<svg width="800" height="800" viewBox="0 0 800 800" fill="none" xmlns="http://www.w3.org/2000/svg">
<path d="M204.904 552.644L256.118 659.782L249.767 662.819C247.623 663.844 245.16 663.975 242.92 663.183C240.681 662.393 238.846 660.744 237.822 658.601L194.332 567.624C193.309 565.481 193.177 563.019 193.968 560.779C194.759 558.538 196.408 556.705 198.551 555.68L204.904 552.644Z" fill="#71C8EA"/>
<path d="M260.661 528.452L225.316 543.063L245.145 571.103L276.479 561.542L260.661 528.452Z" fill="#FFCCB3"/>
<path d="M238.081 544.181C238.081 544.181 251.88 565.494 253.962 577.403C256.043 589.312 263.173 649.553 261.255 654.983C259.876 658.887 254.867 660.561 251.69 660.916C250.993 660.99 250.29 660.846 249.679 660.502C249.068 660.159 248.577 659.634 248.278 659L201.789 561.747C201.012 560.124 200.903 558.262 201.484 556.559C202.066 554.857 203.292 553.451 204.901 552.644C211.332 549.412 221.17 544.57 225.313 543.062C231.715 540.732 235.942 540.746 238.081 544.181Z" fill="#5661AE"/>
<path d="M488.289 595.169L440.258 683.832C439.127 685.921 437.212 687.475 434.936 688.152C432.659 688.828 430.205 688.572 428.117 687.441L421.926 684.088L478.489 579.673L484.68 583.028C486.769 584.159 488.323 586.074 489 588.351C489.676 590.627 489.422 593.08 488.289 595.169Z" fill="#71C8EA"/>
<path d="M424.027 552.694L458.589 569.072L437.368 596.075L406.557 584.943L424.027 552.694Z" fill="#FFCCB3"/>
<path d="M445.78 569.544C445.78 569.544 430.921 590.132 428.24 601.921C425.56 613.71 415.397 673.513 417.038 679.034C418.217 683.002 423.134 684.928 426.29 685.442C426.982 685.552 427.691 685.443 428.319 685.131C428.947 684.819 429.463 684.319 429.794 683.701L481.139 588.921C481.997 587.34 482.2 585.485 481.705 583.756C481.21 582.026 480.056 580.56 478.492 579.672C472.231 576.121 462.649 570.787 458.589 569.072C452.312 566.421 448.091 566.221 445.78 569.544Z" fill="#5661AE"/>
<path d="M528.147 426.395C528.147 426.395 541.379 492.1 531.111 504.973L269.473 571.968L247.162 530.176L399.946 460.847L430.545 418.908L528.147 426.395Z" fill="#D1E8F7"/>
<path d="M461.944 473.279L404.217 492.586L377.28 503.881L412.31 535.396L380.992 542.471L295.57 473.279H461.944Z" fill="#5CA4E6"/>
<path d="M263.559 524.696L265.334 530.867L305.898 562.528L344.002 553.231C344.002 553.231 270.496 518.25 263.559 524.696Z" fill="#5CA4E6"/>
<path d="M336.994 422.561C336.994 422.561 263.012 418.548 226.342 421.771C202.729 423.847 194.217 484.271 213.06 495.263L415.288 598.808L439.12 555.745L308.664 467.441L401.995 454.313L336.994 422.561Z" fill="#D1E8F7"/>
<path d="M232.56 500.408C254.408 500.408 272.12 482.696 272.12 460.847C272.12 438.998 254.408 421.286 232.56 421.286C210.71 421.286 192.998 438.998 192.998 460.847C192.998 482.696 210.71 500.408 232.56 500.408Z" fill="#D1E8F7"/>
<path d="M524.538 505.518C546.387 505.518 564.099 487.806 564.099 465.956C564.099 444.107 546.387 426.396 524.538 426.396C502.689 426.396 484.977 444.107 484.977 465.956C484.977 487.806 502.689 505.518 524.538 505.518Z" fill="#D1E8F7"/>
<path d="M416.17 279.274C412.002 258.698 421.804 259.229 425.066 255.957C425.066 255.957 437.302 245.866 446.626 255.273C456.496 265.222 513.071 342.511 513.071 342.511L477.672 375.069L471.018 367.128L453.782 346.572L435.347 324.602L433.057 322.1L408.188 293.931C408.188 293.931 418.527 290.106 416.17 279.274Z" fill="#5661AE"/>
<path d="M435.803 299.934C450.049 295.161 457.73 279.744 452.959 265.498C448.187 251.252 432.77 243.571 418.523 248.342C404.276 253.114 396.595 268.532 401.367 282.778C406.14 297.024 421.557 304.706 435.803 299.934Z" fill="#5661AE"/>
<path d="M433.381 321.991C432.667 317.691 431.24 309.09 429.703 301.251L421.535 263.312C421.535 263.312 443.471 295.732 453.576 318.314C461.061 335.236 469.743 352.483 471.179 367.074L453.944 346.517L435.509 324.547L433.381 321.991Z" fill="#465393"/>
<path d="M548.428 255.495C556.839 240.153 552.797 237.549 556.375 228.819C559.901 220.301 553.642 199.187 559.634 202.065C565.626 204.945 567.48 212.596 567.48 212.596C571.579 205.347 575.353 192.008 585.162 190.481C594.974 188.954 595.843 192.041 601.403 196.605C616.197 208.914 597.333 227.413 594.184 234.458C592.158 238.873 577.273 252.335 575.624 255.278L568.132 266.144L548.428 255.495Z" fill="#FFCCB3"/>
<path d="M577.334 213.549L589.289 191.477L577.334 213.549Z" fill="#E56441"/>
<path d="M577.334 213.549L589.289 191.477" stroke="#E56441" stroke-width="1.13208" stroke-linecap="round"/>
<path d="M585.162 217.122L598.192 196.566L585.162 217.122Z" fill="#E56441"/>
<path d="M585.162 217.122L598.192 196.566" stroke="#E56441" stroke-width="1.13208" stroke-linecap="round"/>
<path d="M594.471 221.074L601.917 208.625L594.471 221.074Z" fill="#E56441"/>
<path d="M594.471 221.074L601.917 208.625" stroke="#E56441" stroke-width="1.13208" stroke-linecap="round"/>
<path d="M574.378 232.978C574.315 225.336 569.729 216.088 569.729 216.088L574.378 232.978Z" fill="#E56441"/>
<path d="M574.378 232.978C574.315 225.336 569.729 216.088 569.729 216.088" stroke="#E56441" stroke-width="1.13208" stroke-linecap="round"/>
<path d="M477.373 341.898L549.356 246.037C549.814 245.474 550.466 245.101 551.183 244.99C551.901 244.877 552.635 245.035 553.242 245.433L572.092 257.898C572.987 258.505 573.625 259.424 573.882 260.474C574.139 261.525 573.995 262.635 573.48 263.585L515.593 370.339L477.373 341.898Z" fill="#5661AE"/>
<path d="M494.863 382.385C508.176 382.385 518.969 371.593 518.969 358.28C518.969 344.967 508.176 334.175 494.863 334.175C481.55 334.175 470.758 344.967 470.758 358.28C470.758 371.593 481.55 382.385 494.863 382.385Z" fill="#5661AE"/>
<path d="M387.969 234.769C387.969 234.769 428.363 245.458 435.298 248.233C442.233 251.006 442.695 262.101 443.157 269.96C443.619 277.819 442.067 454.315 442.067 454.315L352.669 450.877L285.812 411.741C285.812 411.741 288.718 271.699 289.644 265.227C290.568 258.755 283.304 253.181 291.178 249.924L341.799 236.552L387.969 234.769Z" fill="#5661AE"/>
<path d="M320.699 297.643L321.419 428.045L282.986 385.209L301.581 293.585L320.699 297.643Z" fill="#465393"/>
<path d="M335.204 238.541C335.204 238.541 329.485 250.043 335.204 257.976C340.922 265.91 363.816 273.616 379.457 273.39C395.096 273.163 403.384 258.251 396.293 237.374L370.39 230.096L341.797 236.549L335.204 238.541Z" fill="#465393"/>
<path d="M399.952 139.424C399.952 139.424 411.215 163.727 399.202 168.747C387.19 173.768 388.589 140.603 399.952 139.424Z" fill="#93523E"/>
<path d="M387.248 217.193L390.507 253.934C390.507 253.934 393.63 258.86 381.465 261.447C373.639 263.112 352.565 254.809 348.477 252.318C346.738 251.394 345.376 249.894 344.625 248.075C343.874 246.256 343.78 244.231 344.361 242.351C345.603 237.854 350.752 200.398 350.752 200.398L387.248 217.193Z" fill="#FFCCB3"/>
<path d="M387.872 224.278L368.461 214.688L390.101 249.406L387.872 224.278Z" fill="#FF967C"/>
<path d="M393.482 146.458C393.482 146.458 404.874 175.027 409.005 195.07C413.174 215.29 406.523 220.34 397.745 223.314C390.823 225.659 379.769 227.53 372.248 225.176C358.536 220.883 345.121 208.493 341.912 205.948C336.945 202.007 332.039 184.134 339.321 174.022C346.603 163.911 375.29 132.134 393.482 146.458Z" fill="#FFCCB3"/>
<path d="M378.82 185.892C380.336 185.297 380.826 182.939 379.916 180.627C379.006 178.314 377.041 176.923 375.526 177.519C374.011 178.114 373.52 180.473 374.429 182.785C375.339 185.097 377.305 186.489 378.82 185.892Z" fill="#080B09"/>
<path d="M399.64 177.548C401.156 176.953 401.646 174.595 400.736 172.282C399.827 169.97 397.861 168.578 396.346 169.175C394.831 169.771 394.34 172.129 395.25 174.44C396.159 176.753 398.125 178.144 399.64 177.548Z" fill="#080B09"/>
<path d="M392.002 181.492C392.002 181.492 390.152 187.091 394.041 186.546C397.738 185.897 400.245 187.723 397.017 191.474" fill="#E56441"/>
<path d="M392.002 181.492C392.002 181.492 390.152 187.091 394.041 186.546C397.738 185.897 400.245 187.723 397.017 191.474" stroke="#E56441" stroke-width="1.13208" stroke-linecap="round"/>
<path d="M397.195 196.425L397.214 196.42L397.233 196.414C397.287 196.399 397.345 196.397 397.399 196.41C397.454 196.423 397.504 196.45 397.544 196.49C397.585 196.528 397.615 196.578 397.63 196.632C397.645 196.686 397.646 196.743 397.632 196.798L397.62 196.845L397.615 196.893C397.377 199.343 396.767 200.798 396.027 201.618C395.312 202.408 394.415 202.671 393.397 202.593C392.353 202.515 391.206 202.074 390.095 201.471C388.998 200.874 387.977 200.141 387.189 199.512C387.136 199.462 387.096 199.398 387.075 199.329C387.051 199.255 387.048 199.176 387.067 199.102C387.085 199.026 387.125 198.958 387.179 198.903C387.234 198.849 387.302 198.811 387.377 198.793L387.383 198.791C390.39 198.03 394.924 196.961 397.195 196.425Z" fill="#E56441" stroke="#E56441" stroke-width="1.19587"/>
<path d="M365.624 176.102L365.908 176.501C366.273 177.119 366.867 177.569 367.562 177.751C368.256 177.933 368.994 177.833 369.616 177.472L380.122 170.999C380.645 170.706 381.037 170.229 381.224 169.661C381.409 169.093 381.376 168.475 381.128 167.93C380.992 167.591 380.786 167.282 380.522 167.028C380.259 166.773 379.943 166.577 379.599 166.452C379.254 166.329 378.886 166.279 378.521 166.308C378.155 166.336 377.8 166.442 377.478 166.617L366.686 172.692C366.388 172.842 366.124 173.05 365.907 173.305C365.692 173.558 365.529 173.854 365.43 174.172C365.332 174.49 365.297 174.825 365.331 175.157C365.363 175.488 365.464 175.81 365.624 176.102Z" fill="#080B09"/>
<path d="M401.927 159.501L389.596 160.644C389.231 160.682 388.878 160.797 388.561 160.982C388.244 161.166 387.97 161.416 387.758 161.714C387.545 162.012 387.398 162.353 387.326 162.712C387.254 163.071 387.259 163.442 387.34 163.8C387.447 164.388 387.77 164.916 388.246 165.277C388.723 165.638 389.317 165.808 389.913 165.751L402.237 165.098C402.952 165.042 403.617 164.704 404.085 164.16C404.552 163.616 404.786 162.908 404.733 162.191L404.741 161.701C404.707 161.37 404.605 161.048 404.443 160.756C404.282 160.465 404.063 160.209 403.801 160.004C403.538 159.798 403.237 159.648 402.915 159.562C402.593 159.476 402.257 159.454 401.927 159.501Z" fill="#080B09"/>
<path d="M379.342 152.159C379.342 152.159 373.187 163.871 362.02 167.345C350.853 170.818 356.956 188.442 356.956 188.442C356.956 188.442 349.299 180.826 340.496 185.113C331.694 189.401 338.376 206.228 350.536 206.444L347.229 225.379C347.229 225.379 341.07 217.709 334.593 213.604C328.115 209.501 304.846 193.57 315.126 172.59C315.126 172.59 307.083 143.129 329.14 127.855C351.196 112.58 370.287 118.344 370.287 118.344C370.287 118.344 375.545 110.003 387.734 111.707C399.921 113.411 402.732 135.389 398.696 143.338C394.66 151.287 388.083 154.665 379.342 152.159Z" fill="#93523E"/>
<path d="M287.453 269.583C302.963 255.436 307.543 264.117 312.027 265.235C312.027 265.235 326.97 270.548 323.691 283.38C320.225 296.96 282.984 385.207 282.984 385.207L236.865 371.564L240.259 361.776L249.039 336.427L258.417 309.323L259.386 306.074L270.775 270.265C270.775 270.265 279.37 277.17 287.453 269.583Z" fill="#5661AE"/>
<path d="M318.168 294.067C327.939 282.654 326.607 265.48 315.194 255.71C303.78 245.939 286.607 247.271 276.836 258.684C267.065 270.098 268.396 287.271 279.811 297.042C291.224 306.813 308.397 305.481 318.168 294.067Z" fill="#5661AE"/>
<path d="M278.417 363.534L364.038 447.436C364.537 447.964 364.822 448.658 364.838 449.384C364.855 450.111 364.603 450.818 364.129 451.369L349.306 468.424C348.588 469.233 347.594 469.746 346.518 469.863C345.443 469.98 344.362 469.692 343.486 469.057L245.221 397.706L278.417 363.534Z" fill="#5661AE"/>
<path d="M259.888 402.835C273.202 402.835 283.995 392.042 283.995 378.73C283.995 365.416 273.202 354.624 259.888 354.624C246.576 354.624 235.783 365.416 235.783 378.73C235.783 392.042 246.576 402.835 259.888 402.835Z" fill="#5661AE"/>
<path d="M399.187 347.37L352.72 476.107H259.289C259.289 472.177 260.851 468.407 263.63 465.627C266.41 462.848 270.18 461.286 274.111 461.286H341.705L381.829 347.37H399.187Z" fill="white"/>
<path d="M399.185 347.37H524.54L476.06 476.109H352.717L399.185 347.37Z" fill="url(#paint0_linear_84_1862)"/>
<defs>
<linearGradient id="paint0_linear_84_1862" x1="434.351" y1="347.064" x2="456.638" y2="621.415" gradientUnits="userSpaceOnUse">
<stop stop-color="white"/>
<stop offset="1" stop-color="#94B9FF"/>
</linearGradient>
</defs>
</svg>
