<svg width="800" height="800" viewBox="0 0 800 800" fill="none" xmlns="http://www.w3.org/2000/svg">
<path opacity="0.7" d="M260.456 501.622H539.542C545.018 501.622 550.439 500.544 555.499 498.448C560.557 496.354 565.155 493.281 569.026 489.41C572.898 485.539 575.968 480.941 578.064 475.883C580.161 470.825 581.238 465.402 581.238 459.926V373.585C581.238 368.109 580.161 362.686 578.064 357.628C575.968 352.57 572.898 347.972 569.026 344.101C565.155 340.23 560.557 337.157 555.499 335.063C550.439 332.967 545.018 331.889 539.542 331.889H440.47L411.233 302.652C408.497 299.916 404.784 298.378 400.912 298.378C397.044 298.378 393.331 299.916 390.594 302.652L361.357 331.889H260.456C249.396 331.889 238.791 336.282 230.972 344.101C223.153 351.92 218.76 362.525 218.76 373.585V459.926C218.76 470.986 223.153 481.591 230.972 489.41C238.791 497.229 249.396 501.622 260.456 501.622Z" fill="#1C85E8"/>
<path d="M391.93 437.98C396.97 433.93 400.921 430.615 403.781 428.034C406.638 425.414 409.039 422.695 410.984 419.877C412.969 417.019 413.963 414.218 413.963 411.479C413.963 408.898 413.328 406.874 412.057 405.405C410.826 403.897 408.821 403.144 406.043 403.144C403.343 403.144 401.239 403.996 399.729 405.705C398.261 407.371 397.467 409.615 397.348 412.433H392.108C392.266 407.986 393.616 404.553 396.157 402.13C398.698 399.71 401.974 398.498 405.983 398.498C410.072 398.498 413.308 399.631 415.689 401.893C418.111 404.155 419.322 407.272 419.322 411.242C419.322 414.537 418.329 417.753 416.344 420.888C414.398 423.985 412.176 426.724 409.674 429.107C407.175 431.448 403.978 434.187 400.087 437.324H420.573V441.851H391.93V437.98ZM425.527 432.739V428.63L446.428 399.69H452.92V428.034H458.875V432.739H452.92V442.325H447.561V432.739H425.527ZM447.798 405.346L431.779 428.034H447.798V405.346ZM464.168 410.11C464.447 406.459 465.856 403.601 468.397 401.534C470.936 399.47 474.231 398.439 478.281 398.439C480.98 398.439 483.304 398.936 485.249 399.927C487.234 400.879 488.723 402.189 489.716 403.858C490.747 405.524 491.264 407.41 491.264 409.514C491.264 411.976 490.549 414.1 489.121 415.887C487.731 417.674 485.905 418.824 483.64 419.34V419.639C486.221 420.272 488.265 421.523 489.776 423.39C491.284 425.256 492.038 427.698 492.038 430.714C492.038 432.976 491.521 435.023 490.49 436.847C489.457 438.635 487.909 440.044 485.845 441.077C483.781 442.108 481.299 442.625 478.402 442.625C474.192 442.625 470.739 441.532 468.039 439.349C465.34 437.127 463.832 433.99 463.513 429.94H468.754C469.033 432.321 470.004 434.267 471.673 435.777C473.339 437.285 475.561 438.039 478.343 438.039C481.121 438.039 483.225 437.325 484.654 435.896C486.122 434.427 486.856 432.541 486.856 430.237C486.856 427.261 485.865 425.118 483.88 423.807C481.895 422.497 478.896 421.842 474.887 421.842H473.517V417.316H474.946C478.6 417.276 481.358 416.68 483.225 415.528C485.091 414.339 486.023 412.513 486.023 410.05C486.023 407.947 485.328 406.261 483.939 404.99C482.589 403.72 480.644 403.084 478.103 403.084C475.641 403.084 473.658 403.72 472.148 404.99C470.64 406.261 469.747 407.966 469.468 410.11H464.168ZM523.354 409.514C522.478 405.109 519.759 402.904 515.193 402.904C511.661 402.904 509.021 404.276 507.275 407.015C505.528 409.714 504.675 414.179 504.714 420.413C505.627 418.349 507.134 416.74 509.241 415.588C511.384 414.399 513.764 413.803 516.385 413.803C520.474 413.803 523.729 415.074 526.152 417.612C528.614 420.154 529.843 423.669 529.843 428.153C529.843 430.853 529.309 433.275 528.236 435.418C527.202 437.562 525.615 439.27 523.472 440.541C521.368 441.811 518.807 442.447 515.789 442.447C511.7 442.447 508.504 441.532 506.203 439.708C503.901 437.881 502.292 435.359 501.38 432.143C500.465 428.927 500.01 424.957 500.01 420.233C500.01 405.665 505.09 398.38 515.255 398.38C519.144 398.38 522.202 399.431 524.424 401.534C526.649 403.64 527.959 406.3 528.355 409.514H523.354ZM515.255 418.389C513.547 418.389 511.94 418.745 510.43 419.459C508.922 420.134 507.691 421.187 506.739 422.616C505.824 424.005 505.369 425.713 505.369 427.738C505.369 430.754 506.242 433.216 507.99 435.122C509.735 436.986 512.237 437.92 515.492 437.92C518.271 437.92 520.474 437.067 522.103 435.359C523.769 433.611 524.604 431.27 524.604 428.334C524.604 425.236 523.808 422.814 522.221 421.068C520.634 419.281 518.311 418.389 515.255 418.389Z" fill="white"/>
<path d="M273.272 451.036H282.413C284.112 451.033 285.738 450.358 286.937 449.157C288.139 447.958 288.813 446.331 288.816 444.633V402.574C288.813 400.875 288.139 399.249 286.937 398.05C285.738 396.848 284.112 396.173 282.413 396.173H273.272C271.573 396.173 269.947 396.848 268.748 398.05C267.546 399.249 266.872 400.875 266.869 402.574V444.633C266.872 446.331 267.546 447.958 268.748 449.157C269.947 450.358 271.573 451.033 273.272 451.036Z" fill="white"/>
<path d="M313.619 369.658C309.961 369.658 308.131 371.487 308.131 380.631C308.131 389.32 299.717 396.314 294.303 399.916V445.226C300.159 447.935 311.881 451.952 330.076 451.952H335.929C339.378 451.955 342.718 450.738 345.355 448.513C347.991 446.291 349.758 443.208 350.339 439.809L354.435 416.036C354.799 413.934 354.7 411.779 354.144 409.722C353.587 407.666 352.586 405.755 351.214 404.123C349.84 402.491 348.129 401.181 346.196 400.281C344.263 399.384 342.157 398.917 340.026 398.917H322.761C324.704 394.292 325.641 389.303 325.505 384.287C325.505 373.316 317.275 369.658 313.619 369.658Z" fill="white"/>
</svg>
