<svg width="800" height="800" viewBox="0 0 800 800" fill="none" xmlns="http://www.w3.org/2000/svg">
<path d="M585.663 253.82H214.338C205.954 253.82 199.158 260.616 199.158 269V531C199.158 539.384 205.954 546.18 214.338 546.18H585.663C594.047 546.18 600.843 539.384 600.843 531V269C600.843 260.616 594.047 253.82 585.663 253.82Z" fill="#FEBB94"/>
<path d="M252.498 306.501H241.503L239.613 311.866H235.117L244.524 285.569H249.513L258.92 311.866H254.386L252.498 306.501ZM251.288 302.987L247.019 290.782L242.711 302.987H251.288ZM261.575 301.363C261.575 299.272 262.004 297.421 262.861 295.808C263.742 294.196 264.926 292.949 266.412 292.068C267.923 291.161 269.597 290.708 271.437 290.708C272.796 290.708 274.131 291.009 275.441 291.615C276.776 292.193 277.834 292.974 278.616 293.957V283.906H282.96V311.866H278.616V308.729C277.91 309.738 276.928 310.569 275.668 311.224C274.434 311.878 273.011 312.205 271.399 312.205C269.585 312.205 267.923 311.753 266.412 310.846C264.926 309.913 263.742 308.63 262.861 306.991C262.004 305.329 261.575 303.454 261.575 301.363ZM278.616 301.437C278.616 300.002 278.313 298.754 277.709 297.698C277.129 296.64 276.361 295.833 275.403 295.279C274.446 294.724 273.414 294.447 272.306 294.447C271.198 294.447 270.165 294.724 269.207 295.279C268.25 295.808 267.469 296.602 266.865 297.66C266.285 298.692 265.996 299.926 265.996 301.363C265.996 302.798 266.285 304.058 266.865 305.14C267.469 306.224 268.25 307.055 269.207 307.635C270.189 308.189 271.222 308.466 272.306 308.466C273.414 308.466 274.446 308.189 275.403 307.635C276.361 307.079 277.129 306.274 277.709 305.216C278.313 304.133 278.616 302.874 278.616 301.437ZM296.175 312.205C294.537 312.205 293.064 311.916 291.755 311.336C290.469 310.732 289.449 309.927 288.693 308.919C287.938 307.886 287.535 306.74 287.484 305.481H291.942C292.018 306.362 292.434 307.105 293.19 307.709C293.971 308.289 294.94 308.578 296.099 308.578C297.307 308.578 298.24 308.352 298.894 307.898C299.575 307.42 299.914 306.816 299.914 306.085C299.914 305.304 299.537 304.725 298.782 304.347C298.051 303.97 296.879 303.553 295.268 303.101C293.706 302.672 292.434 302.256 291.452 301.853C290.469 301.451 289.612 300.833 288.883 300.002C288.177 299.171 287.824 298.075 287.824 296.715C287.824 295.607 288.152 294.599 288.807 293.692C289.461 292.761 290.394 292.03 291.603 291.501C292.837 290.972 294.248 290.708 295.834 290.708C298.202 290.708 300.104 291.312 301.54 292.52C303.001 293.704 303.781 295.33 303.882 297.395H299.575C299.5 296.462 299.121 295.721 298.441 295.167C297.762 294.611 296.841 294.334 295.683 294.334C294.549 294.334 293.68 294.549 293.076 294.977C292.472 295.406 292.169 295.972 292.169 296.677C292.169 297.231 292.371 297.698 292.773 298.075C293.178 298.453 293.668 298.754 294.248 298.982C294.826 299.183 295.683 299.448 296.817 299.775C298.328 300.179 299.562 300.594 300.52 301.022C301.502 301.425 302.346 302.029 303.051 302.836C303.757 303.641 304.121 304.712 304.147 306.047C304.147 307.231 303.819 308.289 303.165 309.221C302.509 310.152 301.577 310.884 300.369 311.412C299.185 311.942 297.786 312.205 296.175 312.205Z" fill="white"/>
<path d="M476.494 417.542C476.494 432.672 472.007 447.461 463.602 460.042C455.197 472.62 443.249 482.426 429.272 488.215C415.294 494.006 399.913 495.519 385.074 492.569C370.235 489.617 356.605 482.332 345.907 471.633C335.208 460.935 327.923 447.305 324.971 432.466C322.021 417.627 323.535 402.246 329.325 388.268C335.114 374.291 344.92 362.343 357.499 353.938C370.079 345.533 384.868 341.046 399.998 341.046" stroke="white" stroke-width="26.0309" stroke-miterlimit="10"/>
<path d="M414.248 326.418C434.536 326.418 453.992 334.478 468.339 348.824C482.685 363.169 490.743 382.626 490.743 402.915" stroke="#1C85E8" stroke-width="26.0309" stroke-miterlimit="10"/>
<path d="M234.393 491.083H279.167" stroke="white" stroke-width="10.1829" stroke-miterlimit="10" stroke-linecap="round"/>
<path opacity="0.4" d="M234.393 516.147H326.923" stroke="white" stroke-width="10.1829" stroke-miterlimit="10" stroke-linecap="round"/>
<path d="M490.742 491.335H535.517" stroke="white" stroke-width="10.1829" stroke-miterlimit="10" stroke-linecap="round"/>
<path opacity="0.4" d="M490.742 516.4H583.272" stroke="white" stroke-width="10.1829" stroke-miterlimit="10" stroke-linecap="round"/>
</svg>
