<svg width="800" height="800" viewBox="0 0 800 800" fill="none" xmlns="http://www.w3.org/2000/svg">
<path d="M625.145 315.302H174.858C166.91 315.302 160.467 321.745 160.467 329.693V470.309C160.467 478.256 166.91 484.699 174.858 484.699H625.145C633.092 484.699 639.535 478.256 639.535 470.309V329.693C639.535 321.745 633.092 315.302 625.145 315.302Z" fill="#1C85E8"/>
<path d="M309.382 399.165L320.669 399.166C321.656 399.163 322.603 398.771 323.3 398.072C323.998 397.374 324.389 396.427 324.389 395.44C324.389 394.453 323.998 393.506 323.3 392.807C322.603 392.109 321.656 391.716 320.669 391.714H309.382C308.394 391.714 307.446 392.107 306.748 392.805C306.049 393.504 305.656 394.451 305.656 395.44C305.656 396.427 306.049 397.375 306.748 398.074C307.446 398.773 308.394 399.165 309.382 399.165Z" fill="white"/>
<path d="M287.714 358.757C287.714 358.159 287.57 357.569 287.294 357.039C287.019 356.509 286.62 356.052 286.131 355.708C285.641 355.364 285.077 355.143 284.484 355.063C283.892 354.985 283.288 355.049 282.727 355.251L212.793 380.427H196.511C195.523 380.428 194.576 380.82 193.877 381.519C193.178 382.218 192.786 383.164 192.785 384.153V406.728C192.785 407.716 193.178 408.663 193.877 409.362C194.576 410.061 195.523 410.454 196.511 410.454H209.716L209.717 440.59C209.716 441.08 209.813 441.564 210 442.016C210.188 442.468 210.461 442.878 210.808 443.224C211.154 443.571 211.565 443.844 212.017 444.032C212.468 444.219 212.954 444.316 213.442 444.316H233.195C233.685 444.316 234.169 444.219 234.62 444.032C235.073 443.844 235.484 443.57 235.829 443.224C236.176 442.878 236.45 442.468 236.637 442.015C236.824 441.564 236.921 441.079 236.921 440.59V419.139L282.727 435.629C283.288 435.832 283.892 435.896 284.484 435.817C285.077 435.737 285.641 435.516 286.131 435.172C286.619 434.829 287.019 434.372 287.294 433.842C287.57 433.311 287.714 432.722 287.714 432.124V358.757ZM200.237 403.002V387.879H209.716V403.002H200.237ZM229.469 436.864H217.168V412.029L229.469 416.457V436.864ZM217.168 404.11V386.772L280.262 364.057V426.823L217.168 404.11Z" fill="white"/>
<path d="M309.195 423.846L303.551 418.202C303.206 417.855 302.795 417.582 302.342 417.394C301.891 417.207 301.406 417.11 300.917 417.11C300.428 417.11 299.944 417.207 299.491 417.394C299.04 417.582 298.629 417.855 298.282 418.202C297.937 418.547 297.662 418.958 297.475 419.411C297.288 419.862 297.191 420.347 297.191 420.836C297.191 421.325 297.288 421.81 297.475 422.262C297.662 422.713 297.937 423.124 298.282 423.471L303.926 429.114C304.272 429.461 304.683 429.734 305.135 429.922C305.587 430.109 306.072 430.206 306.56 430.206C307.05 430.206 307.535 430.109 307.986 429.922C308.439 429.734 308.85 429.461 309.195 429.114C309.541 428.768 309.816 428.357 310.003 427.906C310.191 427.454 310.286 426.97 310.286 426.48C310.286 425.99 310.191 425.506 310.003 425.054C309.816 424.602 309.541 424.191 309.195 423.846Z" fill="white"/>
<path d="M298.282 372.678C298.981 373.377 299.929 373.77 300.917 373.77C301.906 373.77 302.852 373.377 303.551 372.678L309.195 367.035C309.893 366.336 310.286 365.388 310.286 364.4C310.286 363.413 309.893 362.465 309.195 361.766C308.496 361.067 307.549 360.675 306.56 360.675C305.572 360.675 304.625 361.067 303.926 361.766L298.282 367.41C297.584 368.108 297.191 369.056 297.191 370.044C297.191 371.032 297.584 371.98 298.282 372.678Z" fill="white"/>
<path d="M371.02 361.746H444.709" stroke="white" stroke-width="16.7589" stroke-miterlimit="10" stroke-linecap="round"/>
<path d="M371.02 444.258H507.575" stroke="white" stroke-width="16.7589" stroke-miterlimit="10" stroke-linecap="round"/>
<path opacity="0.4" d="M371.02 403.001H545.819" stroke="white" stroke-width="16.7589" stroke-miterlimit="10" stroke-linecap="round"/>
</svg>
