<svg width="800" height="800" viewBox="0 0 800 800" fill="none" xmlns="http://www.w3.org/2000/svg">
<path d="M560.713 204.745H182.092V595.863H560.713V204.745Z" fill="#FEBB94"/>
<path d="M207.248 149.855H535.557C542.229 149.855 548.628 152.505 553.346 157.223C558.064 161.941 560.713 168.34 560.713 175.011V204.747H182.092V175.011C182.092 168.34 184.743 161.941 189.46 157.223C194.178 152.505 200.576 149.855 207.248 149.855Z" fill="#1C85E8"/>
<path d="M238.953 177.301H346.806" stroke="white" stroke-width="7.76112" stroke-miterlimit="10" stroke-linecap="round"/>
<path d="M182.092 595.863H560.713V690.856C560.713 695.573 558.84 700.096 555.506 703.431C552.172 706.765 547.648 708.638 542.932 708.638H199.873C195.158 708.638 190.635 706.765 187.3 703.431C183.965 700.096 182.092 695.573 182.092 690.856V595.863Z" fill="white"/>
<path d="M205.154 621.016C203.421 619.949 201.81 618.695 200.351 617.276C199.322 616.251 198.541 615.005 198.065 613.631C197.207 610.964 198.209 607.909 201.015 607.005C201.742 606.772 202.514 606.716 203.266 606.842C204.019 606.97 204.731 607.275 205.341 607.734C205.951 607.275 206.663 606.97 207.416 606.843C208.169 606.717 208.941 606.772 209.668 607.005C210.301 607.24 210.882 607.6 211.375 608.062C211.868 608.525 212.263 609.08 212.539 609.697C212.814 610.314 212.963 610.98 212.978 611.656C212.993 612.331 212.873 613.004 212.624 613.631C212.149 615.005 211.368 616.251 210.339 617.276C208.88 618.695 207.269 619.949 205.536 621.016L205.348 621.132L205.154 621.016Z" stroke="#1C85E8" stroke-width="1.19636" stroke-linecap="round" stroke-linejoin="round"/>
<path fill-rule="evenodd" clip-rule="evenodd" d="M240.198 615.064C240.014 615.064 239.834 615.009 239.68 614.906C239.528 614.804 239.409 614.659 239.338 614.488C239.268 614.318 239.249 614.131 239.286 613.951C239.321 613.77 239.41 613.604 239.54 613.474C239.67 613.344 239.836 613.255 240.016 613.219C240.197 613.184 240.384 613.201 240.555 613.271C240.725 613.343 240.87 613.461 240.973 613.614C241.075 613.768 241.13 613.948 241.13 614.132C241.13 614.379 241.032 614.616 240.857 614.79C240.681 614.966 240.445 615.064 240.198 615.064ZM243.821 615.064C243.637 615.064 243.456 615.009 243.304 614.906C243.151 614.804 243.031 614.659 242.961 614.488C242.891 614.318 242.872 614.131 242.909 613.951C242.945 613.77 243.033 613.604 243.164 613.474C243.294 613.344 243.459 613.255 243.64 613.219C243.821 613.184 244.008 613.201 244.178 613.271C244.348 613.343 244.494 613.461 244.596 613.614C244.698 613.768 244.753 613.948 244.753 614.132C244.753 614.379 244.654 614.616 244.48 614.79C244.305 614.966 244.068 615.064 243.821 615.064ZM246.513 614.132C246.513 614.316 246.566 614.496 246.668 614.65C246.771 614.803 246.917 614.924 247.086 614.994C247.257 615.065 247.445 615.083 247.625 615.048C247.806 615.011 247.973 614.924 248.103 614.792C248.234 614.662 248.323 614.496 248.358 614.316C248.394 614.134 248.377 613.947 248.305 613.777C248.235 613.606 248.116 613.461 247.962 613.358C247.809 613.256 247.628 613.201 247.445 613.201C247.198 613.201 246.961 613.299 246.787 613.474C246.611 613.648 246.513 613.885 246.513 614.132Z" fill="#1C85E8"/>
<path d="M243.644 605.978C242.594 605.976 241.555 606.181 240.584 606.583C239.615 606.983 238.733 607.572 237.991 608.314C237.248 609.056 236.659 609.936 236.259 610.907C235.857 611.877 235.651 612.915 235.652 613.966C235.676 615.362 236.046 616.731 236.728 617.95C236.79 618.059 236.828 618.18 236.838 618.304C236.848 618.429 236.829 618.553 236.785 618.67L236.249 620.459C236.22 620.55 236.216 620.646 236.239 620.738C236.261 620.831 236.31 620.914 236.378 620.979C236.447 621.045 236.533 621.089 236.627 621.107C236.719 621.126 236.816 621.116 236.904 621.081L238.515 620.603C238.722 620.554 238.937 620.555 239.144 620.605C239.35 620.655 239.542 620.753 239.704 620.89C240.765 621.491 241.95 621.84 243.167 621.911C244.385 621.982 245.603 621.772 246.726 621.299C247.85 620.825 248.85 620.1 249.649 619.18C250.449 618.258 251.028 617.167 251.339 615.988C251.651 614.809 251.687 613.573 251.447 612.378C251.207 611.182 250.695 610.058 249.952 609.091C249.208 608.125 248.253 607.342 247.159 606.801C246.066 606.261 244.863 605.98 243.644 605.978Z" stroke="#1C85E8" stroke-width="1.19636" stroke-linecap="round" stroke-linejoin="round"/>
<path d="M284.986 610.859L280.469 615.407L284.986 610.859ZM280.469 615.407L275.18 612.152C275.025 612.056 274.901 611.917 274.824 611.753C274.745 611.588 274.717 611.404 274.74 611.224C274.765 611.044 274.841 610.875 274.959 610.737C275.078 610.599 275.233 610.497 275.408 610.446L287.894 606.812C288.056 606.766 288.227 606.764 288.39 606.807C288.553 606.851 288.701 606.936 288.82 607.057C288.938 607.177 289.021 607.326 289.061 607.49C289.102 607.654 289.097 607.825 289.048 607.987L285.343 620.459C285.293 620.634 285.192 620.789 285.055 620.906C284.917 621.025 284.748 621.1 284.568 621.123C284.389 621.146 284.206 621.116 284.043 621.038C283.879 620.958 283.744 620.834 283.65 620.678L280.469 615.407Z" stroke="#1C85E8" stroke-width="1.19636" stroke-linecap="round" stroke-linejoin="round"/>
<path d="M302.842 494.128H427.528V433.574H302.842V494.128Z" fill="#FFDACC"/>
<path d="M399.491 302.114C399.491 302.114 377.096 327.25 384.545 335.313C399.296 351.883 438.531 383.028 451.386 393.337C451.941 393.762 452.575 394.072 453.252 394.251C453.927 394.43 454.631 394.474 455.324 394.379C456.016 394.284 456.684 394.053 457.287 393.7C457.89 393.346 458.417 392.877 458.837 392.318L489.236 352.35C490.425 350.812 490.98 348.876 490.785 346.942C490.592 345.006 489.665 343.219 488.194 341.948L429.31 291.171L399.491 302.114Z" fill="#1C85E8"/>
<path d="M434.846 334.069C434.846 334.069 462.755 350.657 465.27 383.987L459.713 391.129C459.713 391.129 456.223 397.211 451.386 393.336C446.55 389.461 424.176 371.54 424.176 371.54L434.846 334.069Z" fill="#0E66AF"/>
<path d="M408.753 346.707C426.163 346.707 440.276 332.594 440.276 315.185C440.276 297.776 426.163 283.663 408.753 283.663C391.345 283.663 377.232 297.776 377.232 315.185C377.232 332.594 391.345 346.707 408.753 346.707Z" fill="#1C85E8"/>
<path d="M490.833 413.995L518.381 377.519L492.302 357.274L488.215 353.984L459.641 391.351L464.616 394.931L490.833 413.995Z" fill="#FFDACC"/>
<path d="M464.619 394.931C471.999 385.051 485.875 365.742 492.306 357.274L488.218 353.984L459.717 391.129L464.619 394.931Z" fill="#FF967C"/>
<path d="M505.027 419.054C517.664 419.054 527.91 408.81 527.91 396.172C527.91 383.535 517.664 373.289 505.027 373.289C492.389 373.289 482.145 383.535 482.145 396.172C482.145 408.81 492.389 419.054 505.027 419.054Z" fill="#FFDACC"/>
<path d="M485.652 383.862C485.652 383.862 559.468 275.46 562.88 266.253C566.201 257.262 583.636 278.898 583.636 278.898L526.507 403.54L485.652 383.862Z" fill="#FFDACC"/>
<path d="M560.715 271.844C568.506 255.833 564.267 253.386 567.473 244.336C570.636 235.504 563.228 214.35 569.462 216.98C575.694 219.611 577.958 227.297 577.958 227.297C581.764 219.724 584.941 205.979 594.838 203.941C604.734 201.904 605.771 205 611.649 209.363C627.296 221.142 609.035 240.879 606.184 248.195C604.342 252.784 589.879 267.205 588.349 270.276L581.271 281.694L560.715 271.844Z" fill="#FFDACC"/>
<path d="M588.016 227.772L599.075 204.745L588.016 227.772Z" fill="#E56441"/>
<path d="M588.016 227.772L599.075 204.745" stroke="#E56441" stroke-width="1.15208" stroke-linecap="round"/>
<path d="M596.152 231.02L608.379 209.481L596.152 231.02Z" fill="#E56441"/>
<path d="M596.152 231.02L608.379 209.481" stroke="#E56441" stroke-width="1.15208" stroke-linecap="round"/>
<path d="M605.811 234.575L612.763 221.554L605.811 234.575Z" fill="#E56441"/>
<path d="M605.811 234.575L612.763 221.554" stroke="#E56441" stroke-width="1.15208" stroke-linecap="round"/>
<path d="M585.976 247.669C585.534 239.904 580.414 230.731 580.414 230.731L585.976 247.669Z" fill="#E56441"/>
<path d="M585.976 247.669C585.534 239.904 580.414 230.731 580.414 230.731" stroke="#E56441" stroke-width="1.15208" stroke-linecap="round"/>
<path d="M385.603 276.19C385.603 276.19 416.914 283.396 421.756 287.269C426.598 291.141 430.118 322.621 437.273 338.171C447.866 361.191 454.724 373.437 436.928 398.734C426.195 413.993 429.845 452.783 429.845 452.783C429.845 452.783 440.736 504.41 447.869 595.862H278.998C289.826 486.379 295.398 493.218 295.398 458.502C295.398 370.786 285.607 286.597 285.607 286.597L344.583 273.007C357.882 275.3 385.603 276.19 385.603 276.19Z" fill="#1C85E8"/>
<path d="M429.556 448.665C429.556 448.665 370.015 475.512 294.382 448.665C294.382 448.665 294.167 461.324 293.76 467.948C293.76 467.948 371.404 496.792 432.25 465.596C432.25 465.596 432.34 454.085 429.556 448.665Z" fill="white"/>
<path opacity="0.6" d="M314.194 315.183C314.194 315.183 334.759 328.78 328.702 342.499C321.889 357.925 321.948 397.655 341.497 400.145C376.379 404.587 361.224 410.688 345.096 414.585C328.967 418.483 320.261 428.625 320.261 445.334C320.261 457.226 339.731 496.859 291.104 496.791C302.271 413.993 278.657 342.794 314.194 315.183Z" fill="#0E66AF"/>
<path d="M245.164 443.393L286.618 441.97L305.664 383.501L257.722 377.765L245.164 443.393Z" fill="#FFDACC"/>
<path d="M265.871 464.095C277.305 464.095 286.572 454.828 286.572 443.394C286.572 431.961 277.305 422.693 265.871 422.693C254.438 422.693 245.17 431.961 245.17 443.394C245.17 454.828 254.438 464.095 265.871 464.095Z" fill="#FFDACC"/>
<path d="M281.645 570.141C281.645 570.141 277.66 588.071 284.765 599.098C284.765 599.098 279.684 619.823 281.596 622.314C284.897 626.354 288.613 622.049 288.613 622.049C288.613 622.049 287.281 635.129 299.376 634.781C316.347 634.415 315.975 611.231 315.349 600.335C314.988 589.577 303.326 566.482 303.326 566.482L281.645 570.141Z" fill="#FFDACC"/>
<path d="M320.155 621.428L315.432 599.203L312.334 621.951C312.334 621.951 317.274 629.014 319.72 624.897C320.28 623.832 320.434 622.599 320.155 621.428Z" fill="#FFDACC"/>
<path d="M288.551 621.846L291.101 607.041" stroke="#E56441" stroke-width="2.11238" stroke-linecap="round" stroke-linejoin="round"/>
<path d="M299.451 627.434C299.451 627.434 302.49 610.695 302.257 607.22" stroke="#E56441" stroke-width="2.11238" stroke-linecap="round" stroke-linejoin="round"/>
<path d="M307.799 627.851C309.779 621.07 310.726 614.031 310.611 606.969" stroke="#E56441" stroke-width="2.11238" stroke-linecap="round" stroke-linejoin="round"/>
<path d="M286.411 440.322C286.411 440.322 302.779 568.211 305.903 576.526C308.962 584.639 281.65 570.139 281.65 570.139L246.824 451.085L286.411 440.322Z" fill="#FFDACC"/>
<path d="M256.108 385.439L254.428 393.406L301.64 394.423L304.746 386.006L256.108 385.439Z" fill="#FF967C"/>
<path d="M293.444 348.652C310.852 348.652 324.965 334.539 324.965 317.131C324.965 299.722 310.852 285.609 293.444 285.609C276.035 285.609 261.922 299.722 261.922 317.131C261.922 334.539 276.035 348.652 293.444 348.652Z" fill="#1C85E8"/>
<path d="M299.524 302.312C299.524 302.312 266.303 296.86 263.482 307.467C257.388 328.799 249.895 363.044 248.073 379.422C248.012 380.119 248.088 380.82 248.299 381.486C248.51 382.154 248.851 382.771 249.301 383.306C249.752 383.84 250.305 384.279 250.927 384.599C251.548 384.918 252.226 385.113 252.923 385.169L302.956 389.439C304.893 389.619 306.824 389.05 308.354 387.85C309.885 386.651 310.897 384.91 311.184 382.987L324.734 321.634L299.524 302.312Z" fill="#1C85E8"/>
<path d="M367.111 103.696C367.111 103.696 341.494 96.6355 314.456 118.995C287.419 141.355 294.203 164.375 294.203 164.375L367.111 103.696Z" fill="url(#paint0_linear_84_2301)"/>
<path d="M417.259 149.295C417.259 149.295 466.856 79.458 400.867 93.1378C324.736 108.918 257.736 185.063 276.483 209.568C295.228 234.073 373.21 180.172 417.259 149.295Z" fill="url(#paint1_linear_84_2301)"/>
<path d="M423.581 176.367C423.581 176.367 423.773 217.627 440.284 233.03C456.795 248.432 438.094 281.821 409.63 277.396C381.166 272.971 366.833 245.705 368.569 234.799C370.304 223.892 405.652 167.46 423.581 176.367Z" fill="#080B09"/>
<path d="M384.032 232.689L392.905 294.555C392.905 294.555 395.235 302.767 384.897 304.011C374.559 305.254 352.515 302.477 344.642 294.086C336.769 285.696 339.523 281.54 339.523 281.54L356.221 214.389L384.032 232.689Z" fill="#FFDACC"/>
<path d="M385.266 240.695L363.561 233.027L390.023 274.457L385.266 240.695Z" fill="#FF967C"/>
<path d="M408.588 156.272C408.588 156.272 427.211 200.027 417.505 230.017C411.176 249.574 397.392 253.091 365.824 238.434C336.88 224.996 329.363 214.83 329.363 214.83L325.094 166.054C325.094 166.054 389.676 117.273 408.588 156.272Z" fill="#FFDACC"/>
<path d="M393.258 221.736L409.945 220.91C409.921 221.021 409.893 221.143 409.859 221.275C409.694 221.93 409.414 222.812 408.952 223.725C408.031 225.547 406.421 227.442 403.601 227.987C399.057 228.443 396.456 226.693 394.969 224.871C394.213 223.946 393.737 222.99 393.449 222.261C393.371 222.067 393.308 221.89 393.258 221.736Z" fill="#E56441" stroke="#E56441" stroke-width="1.17092"/>
<path d="M413.713 195.855C415.534 195.363 416.424 192.789 415.7 190.106C414.975 187.423 412.913 185.645 411.091 186.136C409.27 186.628 408.382 189.202 409.105 191.885C409.829 194.568 411.892 196.345 413.713 195.855Z" fill="#080B09"/>
<path d="M386.913 203.495C388.733 203.004 389.623 200.43 388.898 197.746C388.175 195.062 386.112 193.286 384.291 193.777C382.47 194.269 381.58 196.842 382.305 199.525C383.029 202.209 385.092 203.986 386.913 203.495Z" fill="#080B09"/>
<path d="M415.88 178.02L402.258 181.937C402.02 181.984 401.774 181.943 401.565 181.822C401.355 181.701 401.196 181.509 401.117 181.281C401.055 180.851 401.08 180.413 401.191 179.993C401.303 179.574 401.499 179.18 401.766 178.838C402.034 178.497 402.368 178.212 402.748 178.002C403.129 177.794 403.548 177.663 403.98 177.621L415.681 176.389C416.579 176.148 417.002 177.718 415.88 178.02Z" fill="#080B09"/>
<path d="M369.306 189.668L387.78 185.887C387.613 185.338 387.332 184.828 386.958 184.394C386.582 183.959 386.119 183.607 385.599 183.362C385.079 183.118 384.515 182.983 383.94 182.97C383.366 182.956 382.795 183.064 382.265 183.284L368.778 188.607C368.331 188.727 368.633 189.849 369.306 189.668Z" fill="#080B09"/>
<path d="M400.865 192.652L409.627 204.453L406.329 209.118" stroke="#E56441" stroke-width="1.51535" stroke-linecap="round"/>
<path d="M396.977 152.111C396.977 152.111 395.799 173.365 377.794 183.664C377.794 183.664 372.53 199.964 352.879 203.798C352.879 203.798 354.041 188.815 344.675 188.974C328.771 189.244 336.593 213.367 347.345 217.324C354.652 220.015 362.29 249.097 351.337 273.938C336.996 306.464 291.924 299.483 285.607 273.007C274.558 226.707 311.066 206.435 312.652 166.755C346.804 131.476 354.22 130.036 365.786 125.511C365.786 125.511 399.503 113.862 417.256 145.808C432.432 173.116 418.258 189.414 418.258 189.414L410.171 165.11C410.171 165.11 406.792 167.482 396.977 152.111Z" fill="#080B09"/>
<path d="M214.598 188.68C220.882 188.68 225.977 183.585 225.977 177.301C225.977 171.017 220.882 165.922 214.598 165.922C208.313 165.922 203.219 171.017 203.219 177.301C203.219 183.585 208.313 188.68 214.598 188.68Z" fill="white"/>
<path d="M197.768 641.19H247.761" stroke="#1C85E8" stroke-width="7.76112" stroke-miterlimit="10" stroke-linecap="round"/>
<path opacity="0.3" d="M197.768 660.452H452.563" stroke="#1C85E8" stroke-width="7.76112" stroke-miterlimit="10" stroke-linecap="round"/>
<path opacity="0.3" d="M197.768 679.717H307.796" stroke="#1C85E8" stroke-width="7.76112" stroke-miterlimit="10" stroke-linecap="round"/>
<path d="M302.08 181.963C302.08 181.963 338.158 124.56 389.155 118.72" stroke="#96BAFD" stroke-width="2.34183" stroke-miterlimit="10" stroke-linecap="round"/>
<path d="M562.881 266.252C562.881 266.252 553.779 263.746 550.072 268.443C546.363 273.14 555.592 281.87 566.138 287.97C576.683 294.07 587.394 295.113 590.856 291.171C594.316 287.228 586.991 280.076 583.637 277.877" stroke="#1C85E8" stroke-width="1.51535" stroke-linecap="round"/>
<defs>
<linearGradient id="paint0_linear_84_2301" x1="321.395" y1="25.6826" x2="349.341" y2="232.445" gradientUnits="userSpaceOnUse">
<stop stop-color="white"/>
<stop offset="1" stop-color="#94B9FF"/>
</linearGradient>
<linearGradient id="paint1_linear_84_2301" x1="335.486" y1="51.7764" x2="367.613" y2="356.487" gradientUnits="userSpaceOnUse">
<stop stop-color="white"/>
<stop offset="1" stop-color="#94B9FF"/>
</linearGradient>
</defs>
</svg>
