<svg width="800" height="800" viewBox="0 0 800 800" fill="none" xmlns="http://www.w3.org/2000/svg">
<path d="M160.707 575.038H639.295C650.83 575.038 660.182 565.686 660.182 554.151V250.728C660.182 239.192 650.83 229.84 639.295 229.84H160.707C149.172 229.84 139.82 239.192 139.82 250.728V554.151C139.82 565.686 149.172 575.038 160.707 575.038Z" fill="#1C85E8"/>
<path d="M335.539 440.892C334.139 425.753 329.119 403.075 329.119 403.075C329.119 403.075 324.782 402.674 311.404 432.568C301.497 454.971 290.002 477.804 288.102 497.12L310.917 469.905L335.539 440.892Z" fill="#96BAFD"/>
<path d="M244.028 331.97C241.587 308.935 247.855 307.818 247.943 295.329C247.986 283.125 266.413 260.532 257.624 260.989C248.835 261.445 242.664 269.845 242.664 269.845C241.36 258.897 243.562 240.677 232.359 233.803C221.155 226.929 218.517 230.256 209.395 232.99C185.041 240.47 198.636 272.697 198.884 282.909C199.105 289.338 210.41 313.38 210.923 317.815L214.523 334.915L244.028 331.97Z" fill="#FCA39B"/>
<path d="M230.144 265.978L226.812 232.915" stroke="#E56441" stroke-width="1.49869" stroke-linecap="round"/>
<path d="M218.753 266.344L213.334 234.583" stroke="#E56441" stroke-width="1.49869" stroke-linecap="round"/>
<path d="M205.369 266.417L202.631 247.41" stroke="#E56441" stroke-width="1.49869" stroke-linecap="round"/>
<path d="M223.836 291.218C227.815 281.917 238.139 272.962 238.139 272.962" stroke="#E56441" stroke-width="1.49869" stroke-linecap="round"/>
<path fill-rule="evenodd" clip-rule="evenodd" d="M248.511 332.694C248.044 332.407 247.523 332.224 246.986 332.152C246.014 329.342 244.806 326.578 243.532 325.39C240.488 322.558 217.815 326.89 214.197 328.413C211.899 329.381 212.518 335.324 213.278 339.534C213.138 339.687 213.005 339.848 212.88 340.017C212.031 341.169 211.64 342.596 211.783 344.021L225.062 484.436C225.06 484.578 225.059 484.721 225.059 484.862C225.059 502.486 239.347 516.773 256.971 516.773C265.704 516.773 273.617 513.267 279.379 507.582L279.507 507.7L288.315 497.188L311.132 469.975L335.538 440.889L338.57 437.579L371.492 400.289C371.492 400.289 371.394 400.251 371.212 400.175C375.337 396.254 378.591 391.297 380.524 385.524C386.841 366.663 376.673 346.253 357.812 339.936C342.708 334.877 326.61 340.392 317.552 352.476C308.566 362.909 288.897 388.812 270.753 413.095L250.209 334.907C249.936 333.985 249.332 333.196 248.511 332.694Z" fill="url(#paint0_linear_84_2357)"/>
<path d="M383.374 324.187C383.374 324.187 346.737 334.998 337.517 338.854C328.298 342.711 327.683 358.137 327.068 369.064C326.637 376.72 325.19 466.559 325.759 539.37C325.879 554.926 322.24 566.394 320.377 575.04H519.461C519.461 575.04 517.604 567.448 517.144 548.834C515.273 473.21 514.923 372.531 514.104 366.536C512.876 357.537 522.534 349.787 512.064 345.257L447.259 319.362L383.374 324.187Z" fill="url(#paint1_linear_84_2357)"/>
<path d="M466.817 402.025C466.817 402.025 454.572 478.025 453.981 512.966C453.613 534.737 453.906 562.435 453.832 575.041H519.461L505.938 510.756L510.831 402.388L466.817 402.025Z" fill="url(#paint2_linear_84_2357)"/>
<path d="M391.842 287.141L398.099 345.599C398.099 345.599 397.408 363.07 407.476 363.062C442.783 363.037 450.378 331.654 449.225 327.482C447.572 321.503 440.807 276.14 440.807 276.14L391.842 287.141Z" fill="#FCA39B"/>
<path d="M398.495 342.716L392.229 291.767H419.736L398.495 342.716Z" fill="#E56441" stroke="#E56441" stroke-width="1.48916"/>
<path d="M456.953 251.678C455.533 228.726 430.635 237.61 426.41 239.315C422.185 241.02 410.074 208.57 410.074 208.57C410.074 208.57 358.041 207.458 348.599 218.145C348.599 218.145 348.39 261.46 351.519 288.693C354.646 315.925 364.126 326.858 374.193 326.236C388.082 326.547 403.644 321.325 412.917 313.709C429.436 300.141 434.179 279.527 434.179 279.527C434.484 279.327 434.651 279.222 434.651 279.222C434.651 279.222 458.293 273.356 456.953 251.678Z" fill="#FCA39B"/>
<path d="M453.737 273.978C463.838 256.185 486.252 223.809 446.491 186.28C423.917 164.971 338.633 167 342.354 228.311C342.734 234.572 345.482 246.683 349.111 251.214L349.958 234.344C352.198 221.251 355.245 236.362 371.488 235.744C396.907 234.777 398.972 222.844 406.119 226.746C420.266 234.472 412.284 251.591 415.323 256.388C419.706 263.303 421.68 255.78 421.68 255.78C428.806 248.248 437.955 244.288 444.411 252.471C452.902 263.233 432.131 282.242 432.131 282.242L443.863 298.942C450.114 297.392 453.751 273.963 453.751 273.963L453.737 273.978Z" fill="#080B09"/>
<path d="M389.841 262.086C389.947 258.784 388.279 256.052 386.117 255.982C383.953 255.912 382.112 258.533 382.007 261.834C381.901 265.137 383.569 267.87 385.731 267.94C387.895 268.01 389.736 265.389 389.841 262.086Z" fill="#080B09"/>
<path d="M360.04 260.941C360.146 257.638 358.478 254.905 356.315 254.835C354.152 254.767 352.312 257.386 352.206 260.689C352.099 263.991 353.768 266.725 355.93 266.793C358.094 266.863 359.935 264.242 360.04 260.941Z" fill="#080B09"/>
<path d="M367.256 268.319C367.256 268.319 372.074 274.505 366.96 275.56C362.041 276.398 359.717 279.805 365.436 283.061" stroke="#E56441" stroke-width="1.50517" stroke-linecap="round"/>
<path d="M367.367 289.295L367.393 289.293L367.417 289.29C370.501 288.946 376.657 288.258 380.761 287.87L380.768 287.868C380.88 287.858 380.992 287.876 381.093 287.923C381.194 287.971 381.281 288.045 381.342 288.139C381.404 288.233 381.44 288.342 381.444 288.452C381.447 288.559 381.424 288.665 381.374 288.76C380.667 289.902 379.715 291.28 378.605 292.52C377.482 293.776 376.235 294.845 374.955 295.414C373.704 295.972 372.445 296.045 371.181 295.366C369.875 294.663 368.454 293.101 367.059 290.135L367.034 290.079L367.001 290.03C366.953 289.962 366.925 289.881 366.919 289.797C366.913 289.713 366.931 289.63 366.968 289.555C367.005 289.479 367.062 289.415 367.132 289.371C367.202 289.325 367.284 289.298 367.367 289.295Z" fill="#E56441" stroke="#E56441" stroke-width="1.48916"/>
<path d="M397.522 251.468L397.252 252.062C396.935 252.961 396.276 253.7 395.416 254.117C394.557 254.532 393.568 254.59 392.666 254.28L377.296 248.534C376.54 248.287 375.905 247.764 375.517 247.072C375.128 246.378 375.013 245.563 375.197 244.79C375.286 244.311 375.476 243.856 375.755 243.456C376.033 243.057 376.394 242.72 376.812 242.47C377.231 242.218 377.697 242.06 378.181 242.002C378.665 241.946 379.155 241.992 379.619 242.139L395.26 247.292C395.687 247.411 396.085 247.614 396.432 247.891C396.779 248.166 397.066 248.51 397.278 248.9C397.488 249.289 397.619 249.718 397.66 250.159C397.702 250.599 397.656 251.045 397.522 251.468Z" fill="#080B09"/>
<path d="M345.302 244.003L361.67 242.187C362.154 242.139 362.644 242.194 363.105 242.35C363.567 242.505 363.991 242.757 364.349 243.087C364.706 243.42 364.989 243.823 365.18 244.271C365.369 244.721 365.461 245.205 365.451 245.692C365.47 246.487 365.192 247.26 364.667 247.857C364.145 248.456 363.415 248.836 362.624 248.922L346.4 251.376C345.453 251.494 344.497 251.232 343.742 250.648C342.987 250.064 342.494 249.205 342.37 248.259L342.229 247.622C342.186 247.181 342.23 246.736 342.363 246.313C342.495 245.89 342.711 245.497 342.997 245.16C343.285 244.822 343.636 244.545 344.032 244.347C344.428 244.148 344.86 244.032 345.302 244.003Z" fill="#080B09"/>
<path d="M298.528 479.302H354.489C355.305 479.33 356.118 479.171 356.862 478.834C357.607 478.499 358.264 477.996 358.782 477.363C359.3 476.731 359.665 475.988 359.85 475.193C360.033 474.396 360.03 473.568 359.842 472.773L342.634 377.14C342.269 375.345 341.31 373.726 339.913 372.543C338.516 371.359 336.762 370.678 334.932 370.611H278.971C278.154 370.583 277.343 370.742 276.598 371.079C275.854 371.414 275.196 371.919 274.677 372.55C274.161 373.181 273.794 373.924 273.611 374.72C273.426 375.516 273.429 376.344 273.619 377.14L290.826 472.773C291.192 474.568 292.15 476.188 293.546 477.372C294.943 478.556 296.698 479.235 298.528 479.302Z" fill="#5CA4E6"/>
<path d="M296.018 479.302H351.979C352.795 479.33 353.607 479.171 354.352 478.834C355.096 478.499 355.754 477.996 356.271 477.363C356.789 476.731 357.156 475.988 357.339 475.193C357.522 474.396 357.52 473.568 357.331 472.773L340.124 377.14C339.758 375.345 338.8 373.726 337.403 372.543C336.007 371.359 334.251 370.678 332.422 370.611H276.461C275.645 370.583 274.832 370.742 274.087 371.079C273.343 371.414 272.686 371.919 272.168 372.55C271.65 373.181 271.285 373.924 271.1 374.72C270.917 375.516 270.92 376.344 271.108 377.14L288.316 472.773C288.681 474.568 289.64 476.188 291.037 477.372C292.434 478.556 294.188 479.235 296.018 479.302Z" fill="white"/>
<path d="M382.454 452.58L375.957 473.76C375.957 473.76 349.039 467.306 343.28 464.48C332.052 458.706 319.978 450.919 318.563 447.959C314.231 440.472 313.722 431.208 314.216 424.737C314.28 423.775 314.578 422.844 315.086 422.025C315.594 421.206 316.295 420.524 317.129 420.04C317.962 419.556 318.901 419.285 319.865 419.25C320.828 419.214 321.784 419.416 322.651 419.838L346.212 431.596C346.212 431.596 349.28 426.414 346.194 422.295C344.206 419.576 347.274 414.394 348.637 412.806C349.25 412.441 349.95 412.248 350.663 412.245C351.377 412.243 352.078 412.432 352.693 412.793C353.791 414.192 352.282 419.059 354.596 422.148C358.537 427.093 355.039 429.24 365.183 437.669C373.209 444.281 382.537 452.376 382.454 452.58Z" fill="#FCA39B"/>
<path d="M336.886 435.177C330.182 432.918 316.51 424.957 316.51 424.957" stroke="#E56441" stroke-width="1.74936" stroke-linecap="round" stroke-linejoin="round"/>
<path d="M337.767 444.117C332.371 442.154 318.123 434.435 318.123 434.435" stroke="#E56441" stroke-width="1.74936" stroke-linecap="round" stroke-linejoin="round"/>
<path d="M334.512 452.085C330.954 450.873 320.377 445.841 320.377 445.841" stroke="#E56441" stroke-width="1.74936" stroke-linecap="round" stroke-linejoin="round"/>
<path fill-rule="evenodd" clip-rule="evenodd" d="M462.157 390.723C464.77 406.636 473.841 445.929 481.884 479.73L381.09 441.713C380.119 441.39 379.063 441.437 378.125 441.847C377.188 442.256 376.435 442.998 376.012 443.93L363.018 472.993C362.41 474.391 362.346 475.965 362.834 477.408C363.323 478.852 364.331 480.063 365.662 480.805L511.113 561.76C516.645 565.67 523.398 567.967 530.688 567.967C549.442 567.967 564.646 552.762 564.646 534.008C564.646 528.747 563.451 523.767 561.317 519.322L560.268 513.44L553.649 476.231L546.589 436.449L545.958 431.713L538.02 379.375C538.02 379.375 537.921 379.432 537.734 379.527C537.355 373.481 535.53 367.437 532.14 361.913C521.066 343.875 497.466 338.23 479.428 349.305C464.982 358.173 458.483 375.076 462.157 390.723Z" fill="url(#paint3_linear_84_2357)"/>
<path d="M618.499 275.689H555.838" stroke="white" stroke-width="14.2508" stroke-miterlimit="10" stroke-linecap="round"/>
<path opacity="0.4" d="M623.924 306.484H494.43" stroke="white" stroke-width="14.2508" stroke-miterlimit="10" stroke-linecap="round"/>
<defs>
<linearGradient id="paint0_linear_84_2357" x1="277.321" y1="263.258" x2="349.226" y2="728.42" gradientUnits="userSpaceOnUse">
<stop stop-color="white"/>
<stop offset="1" stop-color="#94B9FF"/>
</linearGradient>
<linearGradient id="paint1_linear_84_2357" x1="396.872" y1="238.011" x2="505.044" y2="852.127" gradientUnits="userSpaceOnUse">
<stop stop-color="white"/>
<stop offset="1" stop-color="#94B9FF"/>
</linearGradient>
<linearGradient id="paint2_linear_84_2357" x1="478.707" y1="186.356" x2="691.075" y2="686.157" gradientUnits="userSpaceOnUse">
<stop stop-color="white"/>
<stop offset="1" stop-color="#94B9FF"/>
</linearGradient>
<linearGradient id="paint3_linear_84_2357" x1="440.177" y1="272.257" x2="522.825" y2="815.222" gradientUnits="userSpaceOnUse">
<stop stop-color="white"/>
<stop offset="1" stop-color="#94B9FF"/>
</linearGradient>
</defs>
</svg>
