<svg width="800" height="800" viewBox="0 0 800 800" fill="none" xmlns="http://www.w3.org/2000/svg">
<path opacity="0.7" d="M270.063 234.461C308.238 267.019 408.914 341.252 536.778 344.799C539.393 344.877 541.874 345.972 543.694 347.851C545.514 349.729 546.53 352.244 546.527 354.861V557.458C546.528 560.043 545.536 562.529 543.755 564.401C541.973 566.274 539.54 567.39 536.958 567.518C498.515 569.431 352.735 569.208 256.139 465.79C254.416 463.932 253.463 461.49 253.471 458.957V242.134C253.47 240.211 254.019 238.328 255.055 236.707C256.09 235.088 257.568 233.797 259.313 232.99C261.058 232.183 262.999 231.892 264.904 232.153C266.809 232.414 268.599 233.214 270.063 234.461Z" fill="#FEBB94"/>
<path d="M284.547 294.166C284.547 294.166 314.672 323.437 355.847 341.62" stroke="white" stroke-width="8.0686" stroke-miterlimit="10" stroke-linecap="round"/>
<path opacity="0.4" d="M284.547 329.651C284.547 329.651 326.471 368.756 381.011 383.278" stroke="white" stroke-width="8.0686" stroke-miterlimit="10" stroke-linecap="round"/>
<path d="M278.301 459.415V374.792L307.97 396.023V482.691L278.301 459.415Z" fill="white"/>
<path d="M328.377 493.61V433.315L358.046 451.059V510.662L328.377 493.61Z" fill="white"/>
<path d="M455.241 540.81V480.516L425.572 476.455V536.059L455.241 540.81Z" fill="white"/>
<path d="M503.977 543.391V437.827H474.309V542.702L503.977 543.391Z" fill="white"/>
<path d="M376.977 520.026V492.46L406.645 500.803V530.771L376.977 520.026Z" fill="white"/>
</svg>
