<svg width="800" height="800" viewBox="0 0 800 800" fill="none" xmlns="http://www.w3.org/2000/svg">
<path d="M599.428 178.552H200.57C178.764 178.552 161.084 196.232 161.084 218.038V581.963C161.084 603.768 178.764 621.448 200.57 621.448H599.428C621.234 621.448 638.914 603.768 638.914 581.963V218.038C638.914 196.232 621.234 178.552 599.428 178.552Z" fill="#1C85E8"/>
<path d="M251.24 467.281L320.674 397.847C325.21 393.305 331.369 390.759 337.787 390.759C344.205 390.759 350.363 393.305 354.904 397.847L409.205 452.153C413.746 456.689 419.905 459.241 426.323 459.241C432.741 459.241 438.899 456.689 443.44 452.153L532.198 363.395" stroke="white" stroke-width="27.9113" stroke-miterlimit="10" stroke-linecap="round"/>
<path d="M490.996 347.409H540.344C542.577 347.409 544.712 348.295 546.291 349.874C547.87 351.453 548.757 353.588 548.757 355.821V400.482" stroke="white" stroke-width="27.9113" stroke-miterlimit="10" stroke-linecap="round"/>
</svg>
