<svg width="800" height="800" viewBox="0 0 800 800" fill="none" xmlns="http://www.w3.org/2000/svg">
<path d="M471.711 288.142H478.541" stroke="#5CA4E6" stroke-width="1.13832" stroke-miterlimit="10"/>
<path d="M596.727 252.407H203.273C191.776 252.407 182.457 261.727 182.457 273.224V526.777C182.457 538.274 191.776 547.594 203.273 547.594H596.727C608.224 547.594 617.544 538.274 617.544 526.777V273.224C617.544 261.727 608.224 252.407 596.727 252.407Z" fill="url(#paint0_linear_84_2417)"/>
<path d="M582.962 472.838H364.387C360.769 472.838 357.836 475.772 357.836 479.389V508.948C357.836 512.566 360.769 515.498 364.387 515.498H582.962C586.58 515.498 589.512 512.566 589.512 508.948V479.389C589.512 475.772 586.58 472.838 582.962 472.838Z" fill="white"/>
<path d="M515.264 491.24V489.541H519.112V504.342H517.23V491.24H515.264ZM522.271 493.267C522.367 492.011 522.852 491.028 523.725 490.319C524.599 489.609 525.732 489.255 527.124 489.255C528.052 489.255 528.85 489.425 529.519 489.766C530.201 490.094 530.713 490.545 531.054 491.117C531.41 491.691 531.586 492.339 531.586 493.063C531.586 493.908 531.341 494.638 530.85 495.253C530.371 495.867 529.744 496.262 528.966 496.44V496.542C529.854 496.761 530.556 497.191 531.075 497.832C531.593 498.474 531.852 499.313 531.852 500.35C531.852 501.129 531.675 501.831 531.321 502.459C530.966 503.073 530.433 503.558 529.724 503.913C529.013 504.267 528.161 504.445 527.165 504.445C525.718 504.445 524.531 504.069 523.602 503.319C522.674 502.555 522.155 501.476 522.047 500.084H523.848C523.943 500.903 524.278 501.571 524.851 502.091C525.424 502.61 526.188 502.868 527.144 502.868C528.099 502.868 528.822 502.623 529.314 502.132C529.819 501.626 530.072 500.978 530.072 500.186C530.072 499.163 529.731 498.426 529.048 497.976C528.366 497.525 527.336 497.301 525.957 497.301H525.486V495.744H525.978C527.233 495.731 528.181 495.526 528.822 495.13C529.464 494.72 529.785 494.093 529.785 493.247C529.785 492.523 529.546 491.944 529.068 491.507C528.605 491.069 527.935 490.851 527.062 490.851C526.215 490.851 525.534 491.069 525.015 491.507C524.497 491.944 524.189 492.53 524.094 493.267H522.271ZM534.143 502.848C535.876 501.455 537.234 500.316 538.217 499.429C539.199 498.529 540.026 497.593 540.694 496.624C541.377 495.642 541.717 494.679 541.717 493.738C541.717 492.851 541.5 492.154 541.063 491.65C540.639 491.131 539.95 490.871 538.994 490.871C538.067 490.871 537.344 491.165 536.825 491.752C536.319 492.325 536.047 493.097 536.006 494.065H534.204C534.259 492.537 534.723 491.356 535.596 490.524C536.469 489.691 537.596 489.275 538.974 489.275C540.38 489.275 541.493 489.664 542.311 490.442C543.143 491.22 543.56 492.291 543.56 493.656C543.56 494.788 543.219 495.895 542.537 496.973C541.867 498.037 541.103 498.978 540.244 499.798C539.383 500.603 538.285 501.544 536.948 502.623H543.99V504.178H534.143V502.848Z" fill="#1C85E8"/>
<path d="M327.213 283.671H212.668C208.373 283.671 204.891 287.153 204.891 291.448V507.719C204.891 512.015 208.373 515.497 212.668 515.497H327.213C331.508 515.497 334.99 512.015 334.99 507.719V291.448C334.99 287.153 331.508 283.671 327.213 283.671Z" fill="#1C85E8"/>
<path opacity="0.4" d="M269.941 437.631C288.06 437.631 302.749 422.942 302.749 404.823C302.749 386.704 288.06 372.015 269.941 372.015C251.822 372.015 237.133 386.704 237.133 404.823C237.133 422.942 251.822 437.631 269.941 437.631Z" fill="white"/>
<path d="M259.789 395.791V416.613C259.789 417.191 259.939 417.758 260.225 418.26C260.511 418.761 260.923 419.18 261.419 419.475C261.915 419.768 262.48 419.929 263.057 419.939C263.634 419.948 264.205 419.808 264.711 419.532L283.745 409.119C284.269 408.834 284.706 408.411 285.01 407.898C285.315 407.385 285.475 406.798 285.475 406.202C285.475 405.605 285.315 405.019 285.01 404.506C284.706 403.992 284.269 403.57 283.745 403.284L264.711 392.872C264.205 392.596 263.634 392.456 263.057 392.466C262.48 392.475 261.915 392.636 261.419 392.929C260.923 393.224 260.511 393.643 260.225 394.144C259.939 394.646 259.789 395.213 259.789 395.791Z" fill="white"/>
<path d="M363.713 311.516H445.542" stroke="white" stroke-width="18.6101" stroke-miterlimit="10" stroke-linecap="round"/>
<path opacity="0.4" d="M363.713 349.705H532.82" stroke="white" stroke-width="18.6101" stroke-miterlimit="10" stroke-linecap="round"/>
<path d="M364.723 400.321H446.552" stroke="white" stroke-width="18.6101" stroke-miterlimit="10" stroke-linecap="round"/>
<path opacity="0.4" d="M364.723 438.512H533.83" stroke="white" stroke-width="18.6101" stroke-miterlimit="10" stroke-linecap="round"/>
<path d="M394.385 486.874C393.105 485.691 391.426 485.033 389.683 485.033C387.939 485.033 386.26 485.691 384.979 486.874L383.207 488.51L381.435 486.874C380.154 485.691 378.475 485.033 376.731 485.033C374.988 485.033 373.308 485.691 372.028 486.874C371.352 487.486 370.812 488.233 370.442 489.066C370.072 489.899 369.881 490.802 369.881 491.714C369.881 492.626 370.072 493.527 370.442 494.361C370.812 495.195 371.352 495.942 372.028 496.553L383.207 506.914L394.385 496.69C395.091 496.082 395.658 495.328 396.046 494.481C396.434 493.634 396.635 492.713 396.635 491.782C396.635 490.85 396.434 489.929 396.046 489.082C395.658 488.235 395.091 487.482 394.385 486.874Z" fill="#F4608A"/>
<path d="M406.866 493.267C406.962 492.011 407.447 491.028 408.32 490.319C409.193 489.609 410.326 489.255 411.717 489.255C412.646 489.255 413.444 489.425 414.114 489.766C414.796 490.094 415.308 490.545 415.649 491.117C416.003 491.691 416.181 492.339 416.181 493.063C416.181 493.908 415.935 494.638 415.444 495.253C414.966 495.867 414.339 496.262 413.56 496.44V496.542C414.447 496.761 415.151 497.191 415.67 497.832C416.188 498.474 416.447 499.313 416.447 500.35C416.447 501.129 416.27 501.831 415.914 502.459C415.56 503.073 415.028 503.558 414.319 503.913C413.608 504.267 412.756 504.445 411.758 504.445C410.313 504.445 409.124 504.069 408.197 503.319C407.269 502.555 406.75 501.476 406.641 500.084H408.443C408.538 500.903 408.873 501.571 409.445 502.091C410.019 502.61 410.783 502.868 411.738 502.868C412.694 502.868 413.417 502.623 413.909 502.132C414.413 501.626 414.666 500.978 414.666 500.186C414.666 499.163 414.325 498.426 413.642 497.976C412.961 497.525 411.929 497.301 410.551 497.301H410.081V495.744H410.571C411.827 495.731 412.776 495.526 413.417 495.13C414.059 494.72 414.379 494.093 414.379 493.247C414.379 492.523 414.141 491.944 413.663 491.507C413.198 491.069 412.53 490.851 411.657 490.851C410.81 490.851 410.128 491.069 409.609 491.507C409.09 491.944 408.784 492.53 408.688 493.267H406.866ZM421.194 501.763L418.901 507.27H417.653L419.147 501.763H421.194ZM432.459 491.158H425.273V495.826C425.587 495.389 426.051 495.034 426.665 494.761C427.279 494.475 427.941 494.332 428.651 494.332C429.784 494.332 430.705 494.571 431.415 495.048C432.124 495.512 432.63 496.119 432.93 496.87C433.243 497.607 433.4 498.392 433.4 499.224C433.4 500.207 433.216 501.088 432.848 501.865C432.479 502.644 431.912 503.257 431.149 503.708C430.397 504.158 429.463 504.383 428.344 504.383C426.911 504.383 425.751 504.014 424.864 503.278C423.976 502.541 423.438 501.558 423.246 500.33H425.068C425.245 501.108 425.621 501.715 426.195 502.152C426.767 502.589 427.491 502.807 428.364 502.807C429.442 502.807 430.255 502.487 430.8 501.845C431.347 501.19 431.62 500.33 431.62 499.265C431.62 498.201 431.347 497.381 430.8 496.809C430.255 496.221 429.449 495.929 428.385 495.929C427.662 495.929 427.027 496.105 426.48 496.46C425.949 496.802 425.559 497.273 425.314 497.873H423.554V489.52H432.459V491.158ZM435.651 502.848C437.384 501.455 438.742 500.316 439.725 499.429C440.708 498.529 441.533 497.593 442.202 496.624C442.885 495.642 443.226 494.679 443.226 493.738C443.226 492.851 443.008 492.154 442.57 491.65C442.147 491.131 441.458 490.871 440.503 490.871C439.574 490.871 438.852 491.165 438.333 491.752C437.828 492.325 437.555 493.097 437.514 494.065H435.712C435.767 492.537 436.231 491.356 437.104 490.524C437.978 489.691 439.104 489.275 440.483 489.275C441.889 489.275 443.001 489.664 443.819 490.442C444.652 491.22 445.068 492.291 445.068 493.656C445.068 494.788 444.728 495.895 444.045 496.973C443.376 498.037 442.611 498.978 441.752 499.798C440.891 500.603 439.793 501.544 438.455 502.623H445.498V504.178H435.651V502.848ZM456.762 490.994L451.07 504.342H449.187L454.96 491.179H447.058V489.582H456.762V490.994Z" fill="#1C85E8"/>
<path d="M506.917 494.19C506.917 487.909 499.475 482.819 490.297 482.819C481.118 482.819 473.678 487.909 473.678 494.19C473.678 500.47 481.118 505.561 490.297 505.561C490.954 505.561 491.597 505.526 492.233 505.473C492.33 505.465 492.429 505.478 492.52 505.514C492.613 505.549 492.694 505.603 492.762 505.675C493.941 506.91 496.53 508.823 501.433 509.124C501.555 509.133 501.678 509.107 501.787 509.05C501.896 508.992 501.987 508.907 502.05 508.801C502.113 508.695 502.146 508.574 502.144 508.451C502.143 508.329 502.107 508.208 502.042 508.104C501.185 506.825 500.517 505.429 500.056 503.961C500.018 503.814 500.032 503.659 500.095 503.523C500.157 503.385 500.265 503.273 500.401 503.206C504.358 501.129 506.917 497.866 506.917 494.19Z" fill="#1C85E8"/>
<defs>
<linearGradient id="paint0_linear_84_2417" x1="349.632" y1="158.486" x2="417.07" y2="883.221" gradientUnits="userSpaceOnUse">
<stop stop-color="white"/>
<stop offset="1" stop-color="#94B9FF"/>
</linearGradient>
</defs>
</svg>
