<svg width="800" height="800" viewBox="0 0 800 800" fill="none" xmlns="http://www.w3.org/2000/svg">
<g opacity="0.7">
<path opacity="0.7" d="M238.579 222.928C286.003 257.751 411.074 348.626 569.92 334.195C571.465 334.013 573.031 334.167 574.512 334.644C575.994 335.12 577.355 335.91 578.504 336.959C579.653 338.009 580.562 339.294 581.171 340.725C581.779 342.157 582.073 343.702 582.032 345.259V596.947C581.952 600.279 580.725 603.481 578.56 606.014C576.395 608.546 573.422 610.256 570.145 610.854C522.385 618.894 323.753 614.924 221.28 512.362C220.22 511.299 219.381 510.036 218.812 508.646C218.243 507.256 217.956 505.769 217.965 504.266V234.906C217.965 224.238 230.462 216.969 238.579 222.928Z" fill="#96BAFD"/>
</g>
<path d="M315.765 477.584C289.301 468.252 267.846 439.235 267.846 412.769C267.846 386.304 289.301 372.415 315.765 381.748V350.989C273.011 335.914 238.352 358.353 238.352 401.106C238.352 443.86 273.011 490.739 315.765 505.814C356.712 520.253 390.212 500.266 392.971 460.993L363.497 450.599C361.413 474.407 340.846 486.428 315.765 477.584Z" fill="white"/>
<path d="M325.59 344.625V375.383C352.054 384.714 373.509 413.733 373.509 440.197C373.509 441.581 373.436 442.923 373.321 444.235L402.797 454.628C402.918 452.895 403.002 451.139 403.002 449.334C403.002 406.58 368.344 359.701 325.59 344.625Z" fill="#1C85E8"/>
<path d="M267.846 412.768L238.352 402.368" stroke="white" stroke-width="3.27459" stroke-miterlimit="10"/>
<path d="M439.904 417.166L494.635 427.566" stroke="white" stroke-width="13.982" stroke-miterlimit="10" stroke-linecap="round"/>
<path opacity="0.4" d="M439.904 502.92L494.635 513.32" stroke="white" stroke-width="13.982" stroke-miterlimit="10" stroke-linecap="round"/>
<path d="M439.904 460.916L518.534 475.858" stroke="white" stroke-width="13.982" stroke-miterlimit="10" stroke-linecap="round"/>
</svg>
