<svg width="800" height="800" viewBox="0 0 800 800" fill="none" xmlns="http://www.w3.org/2000/svg">
<path d="M564.468 497.594H399.854V577.539H564.468V497.594Z" fill="#FFCCB3"/>
<path d="M398.886 546.88C379.58 565.875 371.984 659.424 373.002 711.854H602.811C602.811 711.854 602.397 597.52 584.974 558.991C568.952 523.559 542.319 575.826 398.886 546.88Z" fill="#1F2D49"/>
<path d="M536.809 133.763C536.809 133.763 555.876 112.014 592.888 108.849C629.9 105.685 640.975 138.102 639.393 158.019C637.81 177.936 608.805 219.071 614.606 236.475C620.407 253.879 593.128 245.441 590.155 210.634C587.182 175.826 576.107 127.308 546.046 144.711L536.809 133.763Z" fill="#080B09"/>
<path d="M542.598 123.584C542.598 123.584 547.158 120.942 550.461 127.106C553.762 133.27 559.93 145.786 552.113 149.105C544.296 152.423 542.598 123.584 542.598 123.584Z" fill="#1C85E8"/>
<path d="M436.869 324.037C436.869 324.037 466.437 357.222 456.602 367.867C437.127 389.744 385.328 430.862 368.355 444.472C367.622 445.034 366.786 445.444 365.894 445.681C365.001 445.916 364.071 445.974 363.157 445.849C362.243 445.723 361.363 445.419 360.566 444.951C359.77 444.485 359.075 443.865 358.519 443.127L318.384 390.361C316.815 388.33 316.083 385.774 316.339 383.22C316.595 380.665 317.82 378.306 319.762 376.626L397.502 309.589L436.869 324.037Z" fill="#1C85E8"/>
<path d="M390.193 366.228C390.193 366.228 353.346 388.128 350.025 432.132L357.364 441.559C357.364 441.559 361.971 449.589 368.357 444.474C374.742 439.359 404.279 415.699 404.279 415.699L390.193 366.228Z" fill="#0E66AF"/>
<path d="M424.646 382.909C447.629 382.909 466.262 364.278 466.262 341.294C466.262 318.309 447.629 299.678 424.646 299.678C401.661 299.678 383.029 318.309 383.029 341.294C383.029 364.278 401.661 382.909 424.646 382.909Z" fill="#1C85E8"/>
<path d="M316.28 471.745L279.91 423.591L314.34 396.862L319.736 392.517L357.461 441.852L350.892 446.577L316.28 471.745Z" fill="#FFCCB3"/>
<path d="M350.89 446.577C341.148 433.534 322.827 408.042 314.338 396.862L319.734 392.517L357.364 441.559L350.89 446.577Z" fill="#FF967C"/>
<path d="M297.54 478.424C314.225 478.424 327.751 464.899 327.751 448.214C327.751 431.53 314.225 418.004 297.54 418.004C280.856 418.004 267.33 431.53 267.33 448.214C267.33 464.899 280.856 478.424 297.54 478.424Z" fill="#FFCCB3"/>
<path d="M323.121 431.964C323.121 431.964 225.668 288.846 221.162 276.692C216.779 264.822 193.76 293.385 193.76 293.385L269.184 457.943L323.121 431.964Z" fill="#FFCCB3"/>
<path d="M457.284 232.381L445.568 314.061C445.568 314.061 442.493 324.902 456.142 326.543C469.791 328.184 498.893 324.518 509.288 313.44C519.681 302.364 516.045 296.877 516.045 296.877L494.002 208.222L457.284 232.381Z" fill="#FFCCB3"/>
<path d="M455.655 242.951L484.312 232.829L448.809 285.448L455.655 242.951Z" fill="#FF967C"/>
<path d="M424.862 131.492C424.862 131.492 400.277 189.259 413.09 228.851C421.446 254.671 439.644 259.313 481.32 239.964C519.533 222.222 529.458 208.8 529.458 208.8L535.094 144.405C535.094 144.405 449.83 80.0027 424.862 131.492Z" fill="#FFCCB3"/>
<path d="M445.361 290.576C445.361 290.576 413.868 299.326 407.476 304.439C401.085 309.552 396.436 351.113 386.99 371.642C373.005 402.034 363.95 418.202 387.445 451.6C401.616 471.745 396.797 522.957 396.797 522.957H569.322C564.095 422.259 587.226 303.553 587.226 303.553L509.362 285.611C491.806 288.637 445.361 290.576 445.361 290.576Z" fill="#1C85E8"/>
<path d="M439.853 292.201C439.853 292.201 442.181 276.372 449.625 275.258C457.068 274.143 502.55 267.302 509.624 270.281C516.699 273.259 525.262 292.201 525.262 292.201C525.262 292.201 510.741 327.619 489.89 329.481C469.041 331.343 433.153 324.915 436.948 311.747C440.743 298.578 439.853 292.201 439.853 292.201Z" fill="#1C85E8"/>
<path d="M425.688 297.012C425.688 297.012 430.719 327.56 458.043 327.078C485.367 326.596 525.072 285.611 525.072 285.611" stroke="white" stroke-width="1.21271" stroke-miterlimit="10"/>
<path d="M549.486 341.292C549.486 341.292 522.335 359.243 530.333 377.357C539.326 397.723 539.248 450.175 513.439 453.463C467.386 459.327 487.396 467.381 508.689 472.527C529.982 477.672 521.265 477.678 521.265 499.737C521.265 515.437 570.603 529.049 569.321 516.364C560.741 431.49 596.404 377.747 549.486 341.292Z" fill="#0E66AF"/>
<path d="M422.67 216.481L445.54 217.613C445.459 217.894 445.334 218.279 445.155 218.732C444.765 219.715 444.12 221.01 443.097 222.264C441.068 224.749 437.524 227.113 431.401 226.493C427.536 225.753 425.337 223.153 424.093 220.692C423.47 219.459 423.092 218.27 422.869 217.389C422.778 217.027 422.714 216.719 422.67 216.481Z" fill="#E56441" stroke="#E56441" stroke-width="0.893608"/>
<path d="M424.181 178.506C425.137 174.963 423.963 171.566 421.558 170.917C419.154 170.268 416.431 172.615 415.475 176.158C414.519 179.701 415.693 183.099 418.097 183.747C420.502 184.396 423.226 182.049 424.181 178.506Z" fill="#080B09"/>
<path d="M459.562 188.596C460.518 185.052 459.344 181.655 456.94 181.006C454.535 180.357 451.812 182.704 450.856 186.247C449.9 189.79 451.074 193.188 453.479 193.837C455.883 194.485 458.607 192.139 459.562 188.596Z" fill="#080B09"/>
<path d="M415.233 160.207L433.219 165.376C433.532 165.439 433.857 165.385 434.134 165.226C434.411 165.067 434.621 164.813 434.724 164.511C434.806 163.944 434.773 163.366 434.626 162.812C434.479 162.258 434.22 161.738 433.867 161.287C433.513 160.835 433.073 160.46 432.57 160.184C432.068 159.907 431.514 159.736 430.944 159.679L415.496 158.053C414.312 157.734 413.752 159.807 415.233 160.207Z" fill="#080B09"/>
<path d="M476.724 175.58L452.334 170.588C452.554 169.863 452.925 169.192 453.42 168.617C453.916 168.043 454.527 167.58 455.212 167.255C455.899 166.932 456.645 166.755 457.403 166.737C458.161 166.719 458.915 166.86 459.616 167.151L477.42 174.179C478.012 174.339 477.612 175.819 476.724 175.58Z" fill="#080B09"/>
<path d="M435.057 179.521L423.488 195.1L427.845 201.259" stroke="#E56441" stroke-width="2.00062" stroke-linecap="round"/>
<path d="M456.572 349.491C458.811 349.491 460.627 344.474 460.627 338.285C460.627 332.096 458.811 327.08 456.572 327.08C454.331 327.08 452.516 332.096 452.516 338.285C452.516 344.474 454.331 349.491 456.572 349.491Z" fill="white"/>
<path d="M643.522 503.665L583.377 508.594L573.111 465.006L560.742 431.489L624.036 423.914L631.95 461.425L643.522 503.665Z" fill="#FFCCB3"/>
<path d="M626.174 434.044L628.393 444.563L566.062 445.904L561.961 434.793L626.174 434.044Z" fill="#FF967C"/>
<path d="M576.878 385.479C599.862 385.479 618.494 366.847 618.494 343.863C618.494 320.879 599.862 302.247 576.878 302.247C553.894 302.247 535.262 320.879 535.262 343.863C535.262 366.847 553.894 385.479 576.878 385.479Z" fill="#1C85E8"/>
<path d="M568.853 324.297C568.853 324.297 612.713 317.097 616.436 331.102C624.483 359.265 634.374 404.477 636.779 426.099C636.861 427.019 636.76 427.945 636.481 428.825C636.203 429.705 635.754 430.521 635.158 431.227C634.562 431.932 633.834 432.512 633.013 432.934C632.193 433.356 631.296 433.612 630.377 433.686L564.321 439.324C561.765 439.561 559.215 438.812 557.195 437.227C555.174 435.643 553.837 433.345 553.459 430.807L535.57 349.805L568.853 324.297Z" fill="#1C85E8"/>
<path d="M440.19 126.001C440.19 126.001 441.746 154.059 465.516 167.657C465.516 167.657 472.467 189.177 498.409 194.238C498.409 194.238 496.878 174.458 509.242 174.668C530.239 175.023 519.911 206.872 505.715 212.098C496.069 215.648 490.258 228.253 504.579 256.976C537.46 245.247 560.585 197.883 551.519 145.334C544.258 103.253 492.089 89.5103 481.37 90.8811C481.37 90.8811 436.857 75.5039 413.418 117.679C393.382 153.732 412.094 175.249 412.094 175.249L422.772 143.162C422.772 143.162 427.232 146.294 440.19 126.001Z" fill="#080B09"/>
<path d="M643.745 607.646H484.446C481.365 607.646 478.389 606.52 476.079 604.482C473.769 602.443 472.282 599.631 471.9 596.573L457.196 479.225C456.973 477.446 457.131 475.639 457.659 473.926C458.188 472.212 459.075 470.63 460.262 469.286C461.448 467.942 462.907 466.865 464.542 466.127C466.177 465.389 467.949 465.008 469.742 465.008H658.448C660.242 465.008 662.015 465.389 663.649 466.127C665.283 466.865 666.743 467.942 667.929 469.286C669.116 470.63 670.003 472.212 670.532 473.926C671.06 475.639 671.218 477.446 670.995 479.225L656.292 596.573C655.909 599.631 654.423 602.443 652.113 604.482C649.802 606.52 646.827 607.646 643.745 607.646Z" fill="url(#paint0_linear_84_2249)"/>
<path d="M564.468 545.318C570.644 545.318 575.65 540.312 575.65 534.137C575.65 527.962 570.644 522.956 564.468 522.956C558.293 522.956 553.287 527.962 553.287 534.137C553.287 540.312 558.293 545.318 564.468 545.318Z" fill="white"/>
<path d="M197.901 302.785L188.302 284.369C188.302 284.369 154.359 264.953 150.426 257.933C146.491 250.912 144.945 230.869 151.91 225.737C151.91 225.737 124.828 205.396 129.438 201.275C134.034 196.855 187.24 236.38 187.24 236.38C187.24 236.38 180.763 207.261 190.606 205.897C193.272 217.183 197.841 227.933 204.115 237.686C214.479 253.711 215.756 268.062 215.756 268.062L227.97 291.505L197.901 302.785Z" fill="#FFCCB3"/>
<path d="M153.734 226.251L170.135 236.586" stroke="#FF967C" stroke-width="2.56634" stroke-linecap="round" stroke-linejoin="round"/>
<path d="M151.291 238.076L165.211 246.728" stroke="#FF967C" stroke-width="2.56634" stroke-linecap="round" stroke-linejoin="round"/>
<path d="M153.994 250.859L163.279 256.727" stroke="#FF967C" stroke-width="2.56634" stroke-linecap="round" stroke-linejoin="round"/>
<path d="M611.308 602.856C611.308 602.856 619.728 603.555 618.46 607.803C617.192 612.053 609.675 610.091 602.811 614.34C595.948 618.588 568.813 621.62 555.259 619.362C541.705 617.103 537.94 602.856 537.94 602.856C537.94 602.856 535.674 589.34 559.616 587.952C583.557 586.563 594.699 594.246 598.863 602.573L611.308 602.856Z" fill="#FFCCB3"/>
<path d="M548.119 590.053L553.29 603.96" stroke="#E56441" stroke-width="2.00062" stroke-linecap="round"/>
<path d="M561.51 587.789L566.68 601.696" stroke="#E56441" stroke-width="2.00062" stroke-linecap="round"/>
<path d="M575.65 588.966L580.821 602.874" stroke="#E56441" stroke-width="2.00062" stroke-linecap="round"/>
<path d="M156.641 592.75V611.457" stroke="white" stroke-width="2.16985" stroke-miterlimit="10"/>
<defs>
<linearGradient id="paint0_linear_84_2249" x1="558.768" y1="464.669" x2="580.765" y2="769.057" gradientUnits="userSpaceOnUse">
<stop stop-color="white"/>
<stop offset="1" stop-color="#94B9FF"/>
</linearGradient>
</defs>
</svg>
