<svg width="800" height="800" viewBox="0 0 800 800" fill="none" xmlns="http://www.w3.org/2000/svg">
<path d="M489.016 733.3H275.098C257.747 733.3 246.066 719.234 249.008 701.882L335.163 193.778C338.105 176.427 354.557 162.361 371.908 162.361H585.825C603.177 162.361 614.858 176.427 611.916 193.778L525.761 701.882C522.819 719.234 506.367 733.3 489.016 733.3Z" fill="#5CA4E6"/>
<path d="M462.3 733.3H248.382C231.031 733.3 219.349 719.234 222.292 701.882L308.447 193.778C311.389 176.427 327.84 162.361 345.191 162.361H559.109C576.461 162.361 588.142 176.427 585.2 193.778L499.044 701.882C496.102 719.234 479.651 733.3 462.3 733.3Z" fill="#D1E8F7"/>
<path d="M463.53 716.313H252.913C243.904 716.313 237.839 709.009 239.366 700L324.883 195.661C326.411 186.651 334.953 179.348 343.963 179.348H554.579C563.589 179.348 569.654 186.651 568.126 195.661L482.609 700C481.082 709.009 472.54 716.313 463.53 716.313Z" fill="white"/>
<path d="M483.463 349.276H282.078L303.067 233.322C304.442 226.252 311.289 220.521 318.358 220.521H508.505C515.575 220.521 520.191 226.252 518.816 233.322L498.754 336.475C497.378 343.545 490.533 349.276 483.463 349.276Z" fill="url(#paint0_linear_84_3027)"/>
<path d="M467.232 334.355H165.747C158.677 334.355 154.061 328.624 155.436 321.554L175.498 218.402C176.873 211.332 183.718 205.601 190.789 205.601H492.273C499.343 205.601 503.96 211.332 502.585 218.402L482.523 321.554C481.148 328.624 474.302 334.355 467.232 334.355Z" fill="#FEBB94"/>
<path d="M447.999 703.163L261.011 704.051C253.941 704.051 249.324 698.32 250.699 691.25L270.762 588.097C272.137 581.027 278.982 575.295 286.052 575.295L473.04 574.408C480.11 574.408 484.727 580.139 483.352 587.209L463.289 690.362C461.914 697.432 455.068 703.163 447.999 703.163Z" fill="#FEBB94"/>
<path d="M281.576 671.927C286.897 630.311 326.438 596.576 369.893 596.576C413.347 596.576 444.262 630.311 438.941 671.927" stroke="#FF967C" stroke-width="14.6663" stroke-miterlimit="10" stroke-linecap="round"/>
<path d="M281.576 671.927C286.897 630.311 326.438 596.576 369.893 596.576C391.4 596.576 409.835 604.84 422.327 618.233" stroke="white" stroke-width="14.6663" stroke-miterlimit="10" stroke-linecap="round"/>
<path d="M425.637 559.825H291.749C284.603 559.825 279.772 554.031 280.961 546.885L309.238 376.799C310.425 369.653 317.182 363.859 324.328 363.859H458.216C465.362 363.859 470.193 369.653 469.005 376.799L440.727 546.885C439.54 554.031 432.784 559.825 425.637 559.825Z" fill="url(#paint1_linear_84_3027)"/>
<path d="M332.979 453.805H314.724C313.72 453.839 312.757 454.213 311.994 454.868C311.232 455.521 310.714 456.416 310.528 457.403L300.613 517.039C300.517 517.48 300.523 517.938 300.63 518.377C300.738 518.816 300.944 519.225 301.234 519.572C301.523 519.919 301.888 520.195 302.3 520.38C302.713 520.564 303.161 520.653 303.613 520.638H321.868C322.872 520.604 323.835 520.229 324.598 519.575C325.361 518.921 325.878 518.026 326.065 517.039L335.979 457.403C336.075 456.962 336.069 456.504 335.962 456.065C335.854 455.627 335.647 455.217 335.358 454.871C335.069 454.524 334.705 454.247 334.292 454.062C333.88 453.878 333.431 453.79 332.979 453.805Z" fill="white"/>
<path d="M366.282 474.207H348.027C347.022 474.24 346.06 474.615 345.298 475.269C344.534 475.924 344.017 476.818 343.83 477.806L337.308 517.037C337.212 517.478 337.218 517.936 337.326 518.375C337.433 518.813 337.64 519.223 337.929 519.57C338.219 519.916 338.583 520.193 338.995 520.378C339.407 520.562 339.857 520.65 340.308 520.635H358.563C359.567 520.601 360.53 520.227 361.293 519.572C362.056 518.919 362.573 518.024 362.76 517.037L369.282 477.806C369.378 477.364 369.372 476.906 369.265 476.467C369.157 476.028 368.951 475.62 368.661 475.273C368.372 474.926 368.007 474.65 367.595 474.465C367.182 474.28 366.733 474.192 366.282 474.207Z" fill="white"/>
<path d="M410.373 416.798H392.118C391.114 416.832 390.152 417.206 389.388 417.861C388.626 418.515 388.108 419.409 387.922 420.397L371.855 517.038C371.759 517.48 371.765 517.937 371.872 518.376C371.98 518.815 372.186 519.224 372.476 519.571C372.765 519.918 373.13 520.194 373.542 520.379C373.955 520.563 374.404 520.652 374.855 520.637H393.11C394.115 520.603 395.077 520.228 395.839 519.574C396.603 518.92 397.12 518.025 397.307 517.038L413.373 420.397C413.469 419.955 413.463 419.498 413.356 419.058C413.248 418.62 413.042 418.211 412.753 417.864C412.463 417.517 412.099 417.241 411.686 417.056C411.274 416.872 410.825 416.783 410.373 416.798Z" fill="white"/>
<path d="M441.786 441.849H423.532C422.528 441.883 421.564 442.257 420.802 442.911C420.039 443.566 419.522 444.46 419.335 445.447L407.433 517.038C407.337 517.479 407.343 517.937 407.451 518.375C407.558 518.814 407.764 519.223 408.054 519.569C408.343 519.917 408.708 520.193 409.12 520.378C409.533 520.563 409.982 520.651 410.433 520.636H428.688C429.693 520.602 430.655 520.227 431.417 519.573C432.181 518.92 432.698 518.025 432.885 517.038L444.787 445.447C444.883 445.006 444.877 444.548 444.769 444.109C444.662 443.671 444.455 443.262 444.166 442.915C443.876 442.568 443.511 442.291 443.099 442.106C442.687 441.922 442.238 441.834 441.786 441.849Z" fill="white"/>
<path d="M322.598 384.786H372.021" stroke="white" stroke-width="8.87748" stroke-miterlimit="10" stroke-linecap="round"/>
<path d="M319.809 401.568H344.521" stroke="white" stroke-width="8.87748" stroke-miterlimit="10" stroke-linecap="round"/>
<path opacity="0.6" d="M305.939 532.788H315.499" stroke="white" stroke-width="5.32649" stroke-miterlimit="10" stroke-linecap="round"/>
<path opacity="0.6" d="M342.639 532.788H352.197" stroke="white" stroke-width="5.32649" stroke-miterlimit="10" stroke-linecap="round"/>
<path opacity="0.6" d="M377.186 532.788H386.745" stroke="white" stroke-width="5.32649" stroke-miterlimit="10" stroke-linecap="round"/>
<path opacity="0.6" d="M412.762 532.788H422.321" stroke="white" stroke-width="5.32649" stroke-miterlimit="10" stroke-linecap="round"/>
<path d="M601.26 559.825H467.373C460.226 559.825 455.396 554.031 456.584 546.885L484.861 376.799C486.049 369.653 492.805 363.859 499.951 363.859H633.84C640.986 363.859 645.816 369.653 644.628 376.799L616.351 546.885C615.163 554.031 608.407 559.825 601.26 559.825Z" fill="url(#paint2_linear_84_3027)"/>
<path d="M505.134 479.443H486.879C485.875 479.477 484.912 479.851 484.149 480.506C483.386 481.159 482.869 482.054 482.682 483.041L476.236 517.037C476.14 517.479 476.146 517.936 476.253 518.375C476.361 518.814 476.568 519.222 476.857 519.569C477.146 519.916 477.51 520.192 477.923 520.378C478.335 520.563 478.784 520.651 479.236 520.635H497.491C498.495 520.602 499.458 520.227 500.221 519.573C500.983 518.919 501.501 518.025 501.687 517.037L508.134 483.041C508.23 482.6 508.224 482.142 508.116 481.703C508.009 481.264 507.802 480.855 507.513 480.508C507.223 480.162 506.858 479.885 506.447 479.7C506.034 479.516 505.585 479.428 505.134 479.443Z" fill="white"/>
<path d="M548.803 426.801H530.548C529.544 426.835 528.581 427.209 527.818 427.864C527.055 428.517 526.538 429.412 526.351 430.399L512.935 517.038C512.839 517.479 512.845 517.936 512.953 518.376C513.06 518.814 513.266 519.223 513.555 519.57C513.845 519.917 514.21 520.193 514.622 520.379C515.034 520.563 515.484 520.651 515.935 520.636H534.19C535.194 520.602 536.157 520.228 536.92 519.573C537.683 518.919 538.2 518.025 538.387 517.038L551.803 430.399C551.899 429.958 551.893 429.5 551.785 429.061C551.678 428.623 551.472 428.213 551.183 427.867C550.893 427.52 550.528 427.243 550.115 427.058C549.704 426.874 549.254 426.786 548.803 426.801Z" fill="white"/>
<path d="M579.956 451.538H561.701C560.697 451.572 559.734 451.946 558.971 452.6C558.209 453.255 557.691 454.149 557.505 455.136L547.478 517.038C547.382 517.479 547.388 517.937 547.496 518.375C547.603 518.814 547.81 519.223 548.099 519.569C548.389 519.917 548.753 520.194 549.165 520.378C549.577 520.563 550.027 520.651 550.478 520.636H568.733C569.737 520.602 570.7 520.227 571.463 519.573C572.226 518.92 572.743 518.025 572.93 517.038L582.957 455.136C583.053 454.695 583.046 454.237 582.939 453.798C582.831 453.359 582.626 452.951 582.336 452.604C582.047 452.257 581.682 451.981 581.269 451.795C580.857 451.611 580.408 451.523 579.956 451.538Z" fill="white"/>
<path d="M617.41 441.849H599.155C598.15 441.883 597.188 442.257 596.425 442.911C595.662 443.566 595.145 444.46 594.958 445.447L583.056 517.038C582.96 517.479 582.966 517.937 583.074 518.375C583.181 518.814 583.388 519.223 583.677 519.569C583.967 519.917 584.332 520.193 584.744 520.378C585.155 520.563 585.605 520.651 586.056 520.636H604.311C605.315 520.602 606.279 520.227 607.041 519.573C607.804 518.92 608.321 518.025 608.508 517.038L620.41 445.447C620.506 445.006 620.5 444.548 620.392 444.109C620.285 443.671 620.079 443.262 619.789 442.915C619.5 442.568 619.135 442.291 618.723 442.106C618.31 441.922 617.861 441.834 617.41 441.849Z" fill="white"/>
<path d="M498.221 384.786H547.645" stroke="white" stroke-width="8.87748" stroke-miterlimit="10" stroke-linecap="round"/>
<path d="M495.434 401.568H520.145" stroke="white" stroke-width="8.87748" stroke-miterlimit="10" stroke-linecap="round"/>
<path opacity="0.6" d="M481.562 532.788H491.121" stroke="white" stroke-width="5.32649" stroke-miterlimit="10" stroke-linecap="round"/>
<path opacity="0.6" d="M518.262 532.788H527.821" stroke="white" stroke-width="5.32649" stroke-miterlimit="10" stroke-linecap="round"/>
<path opacity="0.6" d="M552.809 532.788H562.367" stroke="white" stroke-width="5.32649" stroke-miterlimit="10" stroke-linecap="round"/>
<path d="M307.113 286.922C307.113 286.922 322.619 283.656 327.537 291.197C332.455 298.737 337.372 312.903 348.52 311.066C359.667 309.229 368.192 272.18 379.34 272.509C390.487 272.836 385.569 297.098 397.7 297.426C409.831 297.753 406.88 283.984 416.716 283.984C426.553 283.984 423.273 313.491 436.061 313.819C448.847 314.147 447.536 275.787 466.88 276.442" stroke="white" stroke-width="4.43874" stroke-miterlimit="10" stroke-linecap="round"/>
<path d="M261.848 281.824C269.745 262.427 262.142 241.002 244.867 233.97C227.593 226.937 207.188 236.96 199.291 256.356C191.395 275.752 198.997 297.177 216.272 304.21C233.547 311.243 253.953 301.22 261.848 281.824Z" stroke="#FF967C" stroke-width="14.6663" stroke-miterlimit="10" stroke-linecap="round"/>
<path d="M246.654 300.592C237.54 306.604 226.371 308.322 216.272 304.21C198.997 297.177 191.395 275.752 199.291 256.356C207.188 236.96 227.593 226.937 244.867 233.97" stroke="white" stroke-width="14.6663" stroke-miterlimit="10" stroke-linecap="round"/>
<path d="M318.768 231.724H386.996" stroke="white" stroke-width="8.87748" stroke-miterlimit="10" stroke-linecap="round"/>
<path opacity="0.6" d="M315.533 250.542H343.292" stroke="white" stroke-width="8.87748" stroke-miterlimit="10" stroke-linecap="round"/>
<path d="M356.301 668.887H377.182" stroke="white" stroke-width="4.43874" stroke-miterlimit="10" stroke-linecap="round"/>
<path opacity="0.5" d="M360.557 677.948H370.997" stroke="white" stroke-width="4.43874" stroke-miterlimit="10" stroke-linecap="round"/>
<path d="M342.395 650.796L358.416 639.624L369.702 647.139L384.722 636.261" stroke="white" stroke-width="5.77404" stroke-linecap="round" stroke-linejoin="round"/>
<path d="M373.176 631.519H389.154V647.33" stroke="white" stroke-width="5.77404" stroke-linecap="round" stroke-linejoin="round"/>
<path d="M562.362 140.594H500.437C499.68 140.623 498.927 140.475 498.237 140.161C497.547 139.848 496.941 139.376 496.466 138.787C495.99 138.196 495.66 137.504 495.5 136.763C495.34 136.022 495.355 135.255 495.545 134.521L505.062 85.5885C505.429 83.916 506.34 82.4131 507.653 81.314C508.966 80.215 510.605 79.5829 512.316 79.5163H574.241C574.997 79.487 575.751 79.6353 576.441 79.9487C577.13 80.2629 577.737 80.7334 578.212 81.3238C578.687 81.9133 579.018 82.6066 579.178 83.347C579.337 84.0873 579.321 84.8552 579.132 85.5885L569.615 134.521C569.248 136.194 568.337 137.697 567.025 138.796C565.712 139.895 564.072 140.527 562.362 140.594Z" fill="#1C85E8"/>
<path d="M519.887 92.7495L561.121 92.7575C561.416 92.7442 561.711 92.8001 561.982 92.92C562.252 93.0407 562.491 93.2209 562.68 93.4491C562.869 93.6772 563.003 93.9453 563.071 94.2338C563.138 94.5215 563.138 94.8215 563.071 95.11L562.506 98.1959C562.412 98.6451 562.215 99.0658 561.931 99.4254C561.647 99.7849 561.283 100.074 560.868 100.271L538.279 111.143C537.929 111.327 537.539 111.423 537.144 111.421C536.749 111.418 536.36 111.318 536.013 111.129L517.429 99.9278C517.09 99.7148 516.825 99.4023 516.671 99.033C516.517 98.6637 516.483 98.2553 516.572 97.8656L517.078 95.1012C517.215 94.4513 517.567 93.8663 518.076 93.4393C518.586 93.0132 519.223 92.7699 519.887 92.7495Z" fill="white"/>
<path d="M517.841 103.99L535.619 115.141C535.86 115.277 536.133 115.349 536.41 115.349C536.687 115.349 536.959 115.278 537.201 115.142L559.056 103.998C560.232 103.398 561.416 104.159 561.195 105.371L557.946 123.135C557.698 124.302 557.066 125.353 556.151 126.119C555.235 126.885 554.089 127.322 552.896 127.36L515.456 127.352C514.925 127.376 514.396 127.275 513.909 127.06C513.423 126.844 512.994 126.519 512.655 126.11C512.315 125.7 512.075 125.217 511.953 124.7C511.831 124.182 511.831 123.643 511.952 123.126L515.201 105.362C515.251 105.079 515.367 104.812 515.537 104.58C515.708 104.348 515.929 104.159 516.183 104.027C516.439 103.895 516.721 103.822 517.008 103.816C517.296 103.809 517.581 103.869 517.841 103.99Z" fill="white"/>
<path d="M576.382 92.3321C583.461 92.3321 589.198 86.5937 589.198 79.5156C589.198 72.4376 583.461 66.6992 576.382 66.6992C569.304 66.6992 563.566 72.4376 563.566 79.5156C563.566 86.5937 569.304 92.3321 576.382 92.3321Z" fill="#FF967C"/>
<defs>
<linearGradient id="paint0_linear_84_3027" x1="394.669" y1="220.216" x2="410.882" y2="495.458" gradientUnits="userSpaceOnUse">
<stop stop-color="white"/>
<stop offset="1" stop-color="#94B9FF"/>
</linearGradient>
<linearGradient id="paint1_linear_84_3027" x1="353.171" y1="301.508" x2="421.023" y2="777.123" gradientUnits="userSpaceOnUse">
<stop stop-color="white"/>
<stop offset="1" stop-color="#94B9FF"/>
</linearGradient>
<linearGradient id="paint2_linear_84_3027" x1="528.795" y1="301.508" x2="596.646" y2="777.123" gradientUnits="userSpaceOnUse">
<stop stop-color="white"/>
<stop offset="1" stop-color="#94B9FF"/>
</linearGradient>
</defs>
</svg>
