<svg width="800" height="800" viewBox="0 0 800 800" fill="none" xmlns="http://www.w3.org/2000/svg">
<path d="M671.868 191.666H127.692C107.773 191.666 91.625 207.813 91.625 227.732V572.268C91.625 592.187 107.773 608.335 127.692 608.335H671.868C691.787 608.335 707.935 592.187 707.935 572.268V227.732C707.935 207.813 691.787 191.666 671.868 191.666Z" fill="url(#paint0_linear_84_3036)"/>
<path d="M132.867 191.666H667.572C678.394 191.666 688.772 195.965 696.424 203.616C704.075 211.268 708.374 221.646 708.374 232.468H92.0645C92.0645 221.646 96.3636 211.268 104.015 203.616C111.667 195.965 122.046 191.666 132.867 191.666Z" fill="#5CA4E6"/>
<path d="M416.505 258.366H668.23C672.548 258.366 676.69 260.081 679.744 263.135C682.798 266.188 684.513 270.331 684.513 274.649V399.08C684.513 403.399 682.798 407.541 679.744 410.595C676.69 413.649 672.548 415.364 668.23 415.364H416.505C412.186 415.364 408.044 413.649 404.991 410.595C401.936 407.541 400.221 403.399 400.221 399.08V274.649C400.221 272.511 400.642 270.393 401.46 268.418C402.279 266.442 403.478 264.647 404.991 263.135C406.503 261.623 408.297 260.424 410.273 259.605C412.249 258.786 414.366 258.366 416.505 258.366Z" stroke="#5661AE" stroke-width="0.833162" stroke-miterlimit="10" stroke-dasharray="9.94 9.94"/>
<path d="M600.661 438.379H348.937C339.943 438.379 332.652 445.67 332.652 454.663V579.094C332.652 588.087 339.943 595.378 348.937 595.378H600.661C609.655 595.378 616.945 588.087 616.945 579.094V454.663C616.945 445.67 609.655 438.379 600.661 438.379Z" fill="white"/>
<path d="M302.152 438.379H126.256C118.648 438.379 112.48 444.547 112.48 452.154V581.603C112.48 589.21 118.648 595.378 126.256 595.378H302.152C309.761 595.378 315.928 589.21 315.928 581.603V452.154C315.928 444.547 309.761 438.379 302.152 438.379Z" fill="white"/>
<path d="M355.816 552.552C355.816 552.552 374.683 550.565 386.028 559.057C401.242 570.446 413.495 579.237 429.669 551.245C447.388 520.578 450.174 509.866 463.1 509.74C479.691 509.578 486.169 553.802 516.761 556.927C547.354 560.052 568.154 555.052 568.154 555.052" stroke="#5661AE" stroke-width="8.33162" stroke-miterlimit="10" stroke-linecap="round"/>
<path d="M355.816 464.291H399.778" stroke="#5661AE" stroke-width="13.3306" stroke-miterlimit="10" stroke-linecap="round"/>
<path d="M355.816 484.807H446.667" stroke="#D4DCF4" stroke-width="13.3306" stroke-miterlimit="10" stroke-linecap="round"/>
<path d="M129.351 221.294C133.202 221.294 136.323 218.172 136.323 214.322C136.323 210.471 133.202 207.349 129.351 207.349C125.5 207.349 122.379 210.471 122.379 214.322C122.379 218.172 125.5 221.294 129.351 221.294Z" fill="white"/>
<path d="M152.98 221.294C156.831 221.294 159.952 218.172 159.952 214.322C159.952 210.471 156.831 207.349 152.98 207.349C149.13 207.349 146.008 210.471 146.008 214.322C146.008 218.172 149.13 221.294 152.98 221.294Z" fill="white"/>
<path d="M175.935 221.294C179.786 221.294 182.908 218.172 182.908 214.322C182.908 210.471 179.786 207.349 175.935 207.349C172.085 207.349 168.963 210.471 168.963 214.322C168.963 218.172 172.085 221.294 175.935 221.294Z" fill="white"/>
<path d="M542.769 365.078C558.35 365.078 570.981 352.447 570.981 336.866C570.981 321.284 558.35 308.653 542.769 308.653C527.187 308.653 514.557 321.284 514.557 336.866C514.557 352.447 527.187 365.078 542.769 365.078Z" fill="#1C85E8"/>
<path d="M544.994 323.535C544.994 322.305 543.998 321.309 542.768 321.309C541.537 321.309 540.541 322.305 540.541 323.535V351.983C540.541 353.214 541.537 354.21 542.768 354.21C543.998 354.21 544.994 353.214 544.994 351.983V323.535Z" fill="white"/>
<path d="M556.994 339.985C558.223 339.985 559.221 338.989 559.221 337.759C559.221 336.529 558.223 335.532 556.994 335.532H528.545C527.316 335.532 526.318 336.529 526.318 337.759C526.318 338.989 527.316 339.985 528.545 339.985H556.994Z" fill="white"/>
<path d="M345.831 262.907L99.2847 303.267C95.0539 303.959 92.1861 307.95 92.8785 312.181L108.978 410.525C109.67 414.755 113.662 417.624 117.892 416.931L364.439 376.571C368.668 375.878 371.537 371.887 370.845 367.657L354.745 269.312C354.052 265.082 350.061 262.213 345.831 262.907Z" fill="#FEBB94"/>
<path d="M219.844 324.568L320.042 308.165" stroke="white" stroke-width="13.7645" stroke-miterlimit="10" stroke-linecap="round"/>
<path opacity="0.7" d="M226.963 354.99L292.325 344.29" stroke="white" stroke-width="13.7645" stroke-miterlimit="10" stroke-linecap="round"/>
<path d="M159.951 391.673C179.523 391.673 195.389 375.807 195.389 356.236C195.389 336.664 179.523 320.798 159.951 320.798C140.38 320.798 124.514 336.664 124.514 356.236C124.514 375.807 140.38 391.673 159.951 391.673Z" stroke="#EF6A77" stroke-width="13.7645" stroke-miterlimit="10"/>
<path d="M194.923 350.51C196.056 357.427 195.112 364.524 192.21 370.904C189.309 377.284 184.58 382.661 178.623 386.354C172.667 390.047 165.748 391.89 158.743 391.652C151.739 391.413 144.962 389.103 139.271 385.012C133.579 380.922 129.228 375.235 126.768 368.673C124.308 362.11 123.85 354.965 125.451 348.141C127.051 341.317 130.64 335.122 135.761 330.337C140.884 325.553 147.31 322.395 154.226 321.263" stroke="white" stroke-width="13.7645" stroke-miterlimit="10" stroke-linecap="round"/>
<defs>
<linearGradient id="paint0_linear_84_3036" x1="384.437" y1="190.675" x2="449.601" y2="1079.71" gradientUnits="userSpaceOnUse">
<stop stop-color="white"/>
<stop offset="1" stop-color="#94B9FF"/>
</linearGradient>
</defs>
</svg>
