<svg width="800" height="800" viewBox="0 0 800 800" fill="none" xmlns="http://www.w3.org/2000/svg">
<path opacity="0.7" d="M222.297 226.909C279.031 243.106 411.758 272.053 585.68 252.086C588.473 251.688 591.321 251.905 594.023 252.717C596.725 253.53 599.219 254.922 601.329 256.796C603.441 258.67 605.117 260.98 606.247 263.567C607.375 266.155 607.925 268.957 607.862 271.777V540.195C607.735 546.117 605.522 551.804 601.612 556.256C597.703 560.706 592.351 563.636 586.495 564.526C524.569 572.993 340.702 591.103 203.685 531.943C200.178 530.393 197.21 527.838 195.154 524.603C193.101 521.365 192.051 517.591 192.14 513.759V250.649C192.14 235.083 207.806 222.771 222.297 226.909Z" fill="url(#paint0_linear_84_2982)"/>
<defs>
<linearGradient id="paint0_linear_84_2982" x1="389.652" y1="225.273" x2="456.77" y2="965.266" gradientUnits="userSpaceOnUse">
<stop stop-color="white"/>
<stop offset="1" stop-color="#94B9FF"/>
</linearGradient>
</defs>
</svg>
