<svg width="800" height="800" viewBox="0 0 800 800" fill="none" xmlns="http://www.w3.org/2000/svg">
<path d="M565.907 179.89H234.097C211.733 179.89 193.607 198.016 193.607 220.379V579.62C193.607 601.984 211.733 620.11 234.097 620.11H565.907C588.267 620.11 606.393 601.984 606.393 579.62V220.379C606.393 198.016 588.267 179.89 565.907 179.89Z" fill="#1C85E8"/>
<path d="M243.891 510.784H350.263" stroke="white" stroke-width="24.192" stroke-miterlimit="10" stroke-linecap="round"/>
<path opacity="0.4" d="M243.891 560.431H463.72" stroke="white" stroke-width="24.192" stroke-miterlimit="10" stroke-linecap="round"/>
<path d="M246.238 304.696H301.247C305.289 304.696 309.26 305.754 312.769 307.766C316.274 309.777 319.191 312.67 321.231 316.159L374.489 407.241C376.582 410.821 379.599 413.773 383.221 415.788C386.847 417.803 390.948 418.808 395.092 418.698C399.238 418.587 403.277 417.363 406.789 415.156C410.301 412.95 413.155 409.841 415.053 406.154L447.978 342.207C449.905 338.464 452.815 335.317 456.398 333.107C459.982 330.894 464.099 329.703 468.311 329.657L564.928 328.622" stroke="white" stroke-width="13.019" stroke-miterlimit="10" stroke-linecap="round"/>
<path opacity="0.4" d="M246.238 402.671H273.292C279.404 402.671 285.266 400.252 289.605 395.946L414.666 271.741C419.001 267.435 424.866 265.017 430.979 265.017H467.595C472.825 265.017 477.902 266.788 481.997 270.042C486.091 273.297 488.965 277.841 490.147 282.935L509.363 365.765C510.545 370.862 513.418 375.406 517.513 378.66C521.607 381.912 526.685 383.682 531.915 383.682H564.928" stroke="white" stroke-width="13.019" stroke-miterlimit="10" stroke-linecap="round"/>
</svg>
