<svg width="800" height="800" viewBox="0 0 800 800" fill="none" xmlns="http://www.w3.org/2000/svg">
<path d="M400 510.629C574.182 510.629 715.387 507.022 715.387 502.572C715.387 498.122 574.182 494.514 400 494.514C225.818 494.514 84.6152 498.122 84.6152 502.572C84.6152 507.022 225.818 510.629 400 510.629Z" fill="#F5F8FF"/>
<path d="M240.417 298.996L184.957 498.086H196.255L260.359 298.996H240.417Z" fill="#D1E8F7"/>
<path d="M663.249 289.37H145.955V298.996H663.249V289.37Z" fill="url(#paint0_linear_84_3021)"/>
<path d="M163.984 298.996L108.523 498.086H119.821L183.924 298.996H163.984Z" fill="#E7EFFF"/>
<path d="M163.982 298.996L159.91 313.613L181.16 307.578L183.923 298.996H163.982Z" fill="#96BAFD"/>
<path d="M636.767 298.996L692.229 498.086H680.932L616.826 298.996H636.767Z" fill="#D1E8F7"/>
<path d="M636.767 298.996L639.88 310.171L619.699 307.917L616.826 298.996H636.767Z" fill="#5CA4E6"/>
<path d="M663.249 289.37H578.094V298.996H663.249V289.37Z" fill="#96BAFD"/>
<path d="M560.335 298.996L615.795 498.086H604.498L540.395 298.996H560.335Z" fill="#E7EFFF"/>
<path d="M560.335 298.996L564.407 313.613L543.158 307.578L540.395 298.996H560.335Z" fill="#5CA4E6"/>
<defs>
<linearGradient id="paint0_linear_84_3021" x1="391.724" y1="289.347" x2="391.766" y2="309.997" gradientUnits="userSpaceOnUse">
<stop stop-color="white"/>
<stop offset="1" stop-color="#94B9FF"/>
</linearGradient>
</defs>
</svg>
