<svg width="800" height="800" viewBox="0 0 800 800" fill="none" xmlns="http://www.w3.org/2000/svg">
<path d="M603.305 473.576H177.32C175.562 473.612 173.818 473.267 172.203 472.569C170.59 471.871 169.145 470.837 167.965 469.531C166.787 468.227 165.902 466.685 165.369 465.01C164.838 463.332 164.673 461.562 164.884 459.816L181.611 285.805C182.03 282.072 183.79 278.619 186.565 276.088C189.338 273.555 192.938 272.119 196.692 272.045H622.677C624.435 272.011 626.18 272.353 627.794 273.052C629.409 273.75 630.854 274.786 632.032 276.09C633.212 277.394 634.097 278.935 634.628 280.613C635.159 282.288 635.326 284.058 635.113 285.805L618.386 459.816C617.969 463.549 616.209 467.002 613.434 469.535C610.66 472.066 607.059 473.501 603.305 473.576Z" fill="#FEBB94"/>
<path d="M217.312 317.423H480.206" stroke="#EF6A77" stroke-width="22.9885" stroke-miterlimit="10" stroke-linecap="round"/>
<path d="M217.312 317.423H399.999" stroke="white" stroke-width="22.9885" stroke-miterlimit="10" stroke-linecap="round"/>
<path d="M213.381 372.808H476.274" stroke="#EF6A77" stroke-width="22.9885" stroke-miterlimit="10" stroke-linecap="round"/>
<path d="M213.381 372.808H322.603" stroke="white" stroke-width="22.9885" stroke-miterlimit="10" stroke-linecap="round"/>
<path d="M204.781 428.195H467.673" stroke="#EF6A77" stroke-width="22.9885" stroke-miterlimit="10" stroke-linecap="round"/>
<path d="M204.781 428.195H271.575" stroke="white" stroke-width="22.9885" stroke-miterlimit="10" stroke-linecap="round"/>
<path d="M573.265 333.133C581.94 333.133 588.974 326.101 588.974 317.426C588.974 308.75 581.94 301.717 573.265 301.717C564.589 301.717 557.557 308.75 557.557 317.426C557.557 326.101 564.589 333.133 573.265 333.133Z" fill="white"/>
<path d="M568.17 386.098C576.844 386.098 583.876 379.066 583.876 370.389C583.876 361.715 576.844 354.681 568.17 354.681C559.493 354.681 552.461 361.715 552.461 370.389C552.461 379.066 559.493 386.098 568.17 386.098Z" fill="white"/>
<path d="M562.486 443.904C571.162 443.904 578.195 436.872 578.195 428.197C578.195 419.521 571.162 412.489 562.486 412.489C553.812 412.489 546.779 419.521 546.779 428.197C546.779 436.872 553.812 443.904 562.486 443.904Z" fill="white"/>
</svg>
