<svg width="800" height="800" viewBox="0 0 800 800" fill="none" xmlns="http://www.w3.org/2000/svg">
<path d="M580.301 253.173H167.892C161.766 253.173 156.799 258.14 156.799 264.265V535.733C156.799 541.86 161.766 546.826 167.892 546.826H580.301C586.428 546.826 591.393 541.86 591.393 535.733V264.265C591.393 258.14 586.428 253.173 580.301 253.173Z" fill="url(#paint0_linear_84_3048)"/>
<path d="M571.05 444.434H494.208C491.357 444.434 489.047 446.745 489.047 449.595V532.986C489.047 535.837 491.357 538.147 494.208 538.147H571.05C573.9 538.147 576.211 535.837 576.211 532.986V449.595C576.211 446.745 573.9 444.434 571.05 444.434Z" fill="#FEBB94"/>
<path d="M285.899 443.556H174.756C172.341 443.556 170.385 445.513 170.385 447.926V533.777C170.385 536.191 172.341 538.147 174.756 538.147H285.899C288.312 538.147 290.269 536.191 290.269 533.777V447.926C290.269 445.513 288.312 443.556 285.899 443.556Z" fill="white"/>
<path d="M475.291 443.556H304.573C301.603 443.556 299.195 445.963 299.195 448.933V532.77C299.195 535.74 301.603 538.147 304.573 538.147H475.291C478.26 538.147 480.668 535.74 480.668 532.77V448.933C480.668 445.963 478.26 443.556 475.291 443.556Z" fill="white"/>
<path d="M569.312 291.526H414.727C410.917 291.526 407.828 294.615 407.828 298.425V428.218C407.828 432.029 410.917 435.117 414.727 435.117H569.312C573.123 435.117 576.211 432.029 576.211 428.218V298.425C576.211 294.615 573.123 291.526 569.312 291.526Z" fill="#1C85E8"/>
<path d="M390.127 291.526H177.24C173.454 291.526 170.385 294.596 170.385 298.382V428.125C170.385 431.911 173.454 434.98 177.24 434.98H390.127C393.912 434.98 396.982 431.911 396.982 428.125V298.382C396.982 294.596 393.912 291.526 390.127 291.526Z" fill="#FEBB94"/>
<path d="M317.646 463.937H329.028" stroke="#D4DCF4" stroke-width="10.1379" stroke-miterlimit="10" stroke-linecap="round"/>
<path d="M354.08 463.937H460.068" stroke="#5661AE" stroke-width="10.1379" stroke-miterlimit="10" stroke-linecap="round"/>
<path d="M317.646 488.868H329.028" stroke="#D4DCF4" stroke-width="10.1379" stroke-miterlimit="10" stroke-linecap="round"/>
<path d="M354.08 488.868H403.428" stroke="#5661AE" stroke-width="10.1379" stroke-miterlimit="10" stroke-linecap="round"/>
<path d="M317.646 514.234H329.028" stroke="#D4DCF4" stroke-width="10.1379" stroke-miterlimit="10" stroke-linecap="round"/>
<path d="M354.08 514.234H438.945" stroke="#5661AE" stroke-width="10.1379" stroke-miterlimit="10" stroke-linecap="round"/>
<path d="M185.455 368.49C185.455 368.49 204.215 364.538 210.165 373.662C216.116 382.785 222.066 399.923 235.553 397.702C249.04 395.479 255.549 350.651 269.036 351.049C282.523 351.445 280.378 380.802 295.055 381.199C309.732 381.595 305.642 364.791 315.441 365.251C327.328 365.808 325.996 400.636 341.467 401.033C356.937 401.429 355.35 355.018 378.755 355.811" stroke="white" stroke-width="5.37036" stroke-miterlimit="10" stroke-linecap="round"/>
<path d="M191.436 313.243H228.89" stroke="white" stroke-width="8.51805" stroke-miterlimit="10" stroke-linecap="round"/>
<path opacity="0.4" d="M191.436 330.722H268.838" stroke="white" stroke-width="8.51805" stroke-miterlimit="10" stroke-linecap="round"/>
<path opacity="0.4" d="M492.021 387.67C505.469 387.67 516.37 376.769 516.37 363.321C516.37 349.873 505.469 338.972 492.021 338.972C478.574 338.972 467.672 349.873 467.672 363.321C467.672 376.769 478.574 387.67 492.021 387.67Z" fill="white"/>
<path d="M484.488 356.618V372.072C484.488 372.5 484.6 372.921 484.812 373.294C485.024 373.666 485.329 373.976 485.697 374.195C486.066 374.414 486.485 374.532 486.914 374.54C487.342 374.547 487.765 374.443 488.14 374.237L502.268 366.51C502.656 366.298 502.981 365.984 503.206 365.603C503.432 365.222 503.551 364.788 503.551 364.344C503.551 363.902 503.432 363.467 503.206 363.086C502.981 362.705 502.656 362.392 502.268 362.179L488.14 354.452C487.765 354.246 487.342 354.142 486.914 354.15C486.485 354.157 486.066 354.276 485.697 354.495C485.329 354.713 485.024 355.023 484.812 355.396C484.6 355.768 484.488 356.189 484.488 356.618Z" fill="white"/>
<path d="M168.234 253.173H579.959C582.992 253.173 585.9 254.378 588.045 256.523C590.189 258.667 591.393 261.576 591.393 264.608V281.835H156.799V264.608C156.799 261.576 158.004 258.667 160.149 256.523C162.293 254.378 165.201 253.173 168.234 253.173Z" fill="#5CA4E6"/>
<path d="M138.868 291.526H94.6271C91.5392 291.526 89.0352 294.03 89.0352 297.119V341.359C89.0352 344.448 91.5392 346.952 94.6271 346.952H138.868C141.957 346.952 144.46 344.448 144.46 341.359V297.119C144.46 294.03 141.957 291.526 138.868 291.526Z" fill="#1C85E8"/>
<path d="M138.868 359.958H94.6271C91.5392 359.958 89.0352 362.462 89.0352 365.55V409.79C89.0352 412.879 91.5392 415.383 94.6271 415.383H138.868C141.957 415.383 144.46 412.879 144.46 409.79V365.55C144.46 362.462 141.957 359.958 138.868 359.958Z" fill="#1C85E8"/>
<path d="M134.784 380.199C134.755 378.696 134.47 377.208 133.941 375.8C133.474 374.596 132.761 373.502 131.848 372.587C130.934 371.674 129.84 370.961 128.635 370.494C127.227 369.966 125.74 369.681 124.236 369.652C122.295 369.559 121.679 369.538 116.755 369.538C111.831 369.538 111.216 369.559 109.281 369.644C107.778 369.674 106.29 369.958 104.882 370.487C103.677 370.954 102.583 371.667 101.669 372.581C100.756 373.494 100.043 374.588 99.5763 375.794C99.0483 377.201 98.7628 378.689 98.7332 380.193C98.6411 382.133 98.6191 382.75 98.6191 387.673C98.6191 392.597 98.6411 393.213 98.7256 395.147C98.7552 396.651 99.0407 398.138 99.5687 399.547C100.036 400.751 100.749 401.845 101.662 402.759C102.576 403.673 103.67 404.386 104.875 404.852C106.283 405.38 107.77 405.665 109.274 405.695C111.208 405.781 111.825 405.802 116.748 405.802C121.672 405.802 122.288 405.781 124.222 405.695C125.725 405.666 127.213 405.381 128.621 404.852C129.826 404.387 130.921 403.674 131.834 402.76C132.748 401.846 133.461 400.751 133.927 399.547C134.455 398.138 134.74 396.651 134.77 395.147C134.855 393.213 134.877 392.597 134.877 387.673C134.877 382.75 134.869 382.133 134.784 380.199ZM131.518 395.006C131.507 396.155 131.296 397.293 130.895 398.371C130.592 399.152 130.13 399.863 129.537 400.456C128.944 401.049 128.235 401.511 127.452 401.813C126.375 402.213 125.236 402.424 124.087 402.437C122.175 402.521 121.601 402.542 116.762 402.542C111.923 402.542 111.343 402.521 109.437 402.437C108.287 402.425 107.149 402.214 106.072 401.813C105.285 401.524 104.573 401.062 103.99 400.46C103.389 399.875 102.927 399.164 102.636 398.377C102.236 397.3 102.025 396.161 102.013 395.012C101.927 393.1 101.907 392.526 101.907 387.687C101.907 382.849 101.927 382.268 102.013 380.362C102.025 379.213 102.236 378.075 102.636 376.997C102.925 376.208 103.391 375.496 103.996 374.915C104.581 374.314 105.293 373.852 106.079 373.562C107.157 373.162 108.295 372.951 109.444 372.938C111.357 372.854 111.931 372.832 116.769 372.832C121.614 372.832 122.188 372.854 124.094 372.938C125.244 372.95 126.382 373.161 127.459 373.562C128.246 373.85 128.959 374.313 129.541 374.915C130.142 375.5 130.604 376.211 130.895 376.997C131.295 378.075 131.506 379.213 131.518 380.362C131.604 382.275 131.625 382.849 131.625 387.687C131.625 392.526 131.604 393.093 131.518 395.006Z" fill="white"/>
<path d="M116.755 378.359C114.912 378.359 113.111 378.905 111.58 379.929C110.048 380.953 108.853 382.408 108.149 384.11C107.443 385.812 107.259 387.685 107.618 389.492C107.978 391.3 108.865 392.959 110.168 394.262C111.471 395.565 113.131 396.452 114.938 396.811C116.745 397.171 118.618 396.986 120.32 396.282C122.023 395.576 123.477 394.382 124.501 392.851C125.524 391.318 126.071 389.517 126.071 387.674C126.07 385.204 125.088 382.835 123.341 381.088C121.595 379.341 119.225 378.359 116.755 378.359ZM116.755 393.717C115.56 393.717 114.392 393.363 113.398 392.699C112.404 392.035 111.629 391.092 111.172 389.988C110.715 388.883 110.595 387.668 110.829 386.496C111.062 385.323 111.637 384.247 112.482 383.402C113.328 382.556 114.404 381.981 115.577 381.748C116.748 381.515 117.963 381.635 119.067 382.092C120.172 382.549 121.115 383.324 121.779 384.318C122.443 385.311 122.798 386.48 122.798 387.674C122.798 389.277 122.161 390.815 121.028 391.948C119.894 393.08 118.358 393.717 116.755 393.717Z" fill="white"/>
<path d="M128.615 377.991C128.615 378.421 128.487 378.842 128.248 379.199C128.01 379.557 127.67 379.836 127.273 380.001C126.876 380.166 126.438 380.209 126.016 380.124C125.594 380.041 125.207 379.834 124.903 379.529C124.599 379.225 124.391 378.837 124.307 378.416C124.224 377.993 124.267 377.557 124.431 377.159C124.595 376.762 124.874 376.422 125.231 376.183C125.59 375.944 126.01 375.816 126.44 375.816C127.017 375.816 127.57 376.045 127.978 376.453C128.386 376.861 128.615 377.414 128.615 377.991Z" fill="white"/>
<path d="M122.242 309.625H125.401V304.123C123.872 303.956 122.336 303.874 120.799 303.88C116.244 303.88 113.124 306.745 113.124 312.009V316.855H108.098V323.007H113.124V338.483H119.286V323.007H124.109L124.874 316.857H119.285V312.619C119.287 310.842 119.765 309.625 122.242 309.625Z" fill="white"/>
<path d="M651.335 402.003C684.269 402.003 710.967 375.306 710.967 342.372C710.967 309.439 684.269 282.742 651.335 282.742C618.402 282.742 591.705 309.439 591.705 342.372C591.705 375.306 618.402 402.003 651.335 402.003Z" fill="#FEBB94"/>
<path d="M672.592 340.924C672.592 337.066 671.543 333.282 669.557 329.975C667.572 326.669 664.724 323.964 661.32 322.151C657.916 320.339 654.083 319.487 650.23 319.685C646.379 319.884 642.653 321.126 639.454 323.279C636.253 325.432 633.699 328.415 632.064 331.908C630.429 335.402 629.774 339.274 630.172 343.11C630.568 346.947 632.001 350.604 634.315 353.688C636.63 356.773 639.741 359.17 643.313 360.623V367.602H659.337V360.623C663.255 359.03 666.609 356.304 668.97 352.795C671.331 349.286 672.592 345.153 672.592 340.924Z" stroke="white" stroke-width="3.14112" stroke-linecap="round" stroke-linejoin="round"/>
<path d="M643.312 367.602H659.39V371.024C659.39 372.474 658.814 373.865 657.789 374.89C656.764 375.916 655.372 376.492 653.923 376.492H648.78C647.33 376.492 645.939 375.916 644.913 374.89C643.889 373.865 643.312 372.474 643.312 371.024V367.602Z" stroke="white" stroke-width="3.14112" stroke-linecap="round" stroke-linejoin="round"/>
<path d="M647.732 367.602V343.189C647.732 342.605 647.5 342.044 647.087 341.631C646.674 341.218 646.114 340.985 645.529 340.985H645.463C644.878 340.985 644.318 341.218 643.905 341.631C643.492 342.044 643.26 342.605 643.26 343.189C643.26 343.478 643.316 343.765 643.428 344.032C643.539 344.3 643.701 344.542 643.905 344.747C644.11 344.951 644.352 345.113 644.62 345.224C644.887 345.335 645.173 345.392 645.463 345.392H657.188C657.478 345.392 657.765 345.335 658.032 345.224C658.299 345.113 658.542 344.951 658.746 344.747C658.951 344.542 659.113 344.3 659.224 344.032C659.334 343.765 659.392 343.478 659.392 343.189C659.392 342.605 659.159 342.044 658.746 341.631C658.333 341.218 657.773 340.985 657.188 340.985H656.996C656.411 340.985 655.851 341.218 655.438 341.631C655.025 342.044 654.792 342.605 654.792 343.189V367.602" stroke="white" stroke-width="3.14112" stroke-linecap="round" stroke-linejoin="round"/>
<path d="M651.35 308.253V313.711" stroke="white" stroke-width="3.14112" stroke-linecap="round" stroke-linejoin="round"/>
<path d="M631.678 313.51L634.407 318.237" stroke="white" stroke-width="3.14112" stroke-linecap="round" stroke-linejoin="round"/>
<path d="M617.268 327.898L621.994 330.627" stroke="white" stroke-width="3.14112" stroke-linecap="round" stroke-linejoin="round"/>
<path d="M685.405 327.947L680.678 330.676" stroke="white" stroke-width="3.14112" stroke-linecap="round" stroke-linejoin="round"/>
<path d="M671.018 313.537L668.289 318.263" stroke="white" stroke-width="3.14112" stroke-linecap="round" stroke-linejoin="round"/>
<defs>
<linearGradient id="paint0_linear_84_3048" x1="363.277" y1="252.475" x2="409.178" y2="879.037" gradientUnits="userSpaceOnUse">
<stop stop-color="white"/>
<stop offset="1" stop-color="#94B9FF"/>
</linearGradient>
</defs>
</svg>
