<svg width="800" height="800" viewBox="0 0 800 800" fill="none" xmlns="http://www.w3.org/2000/svg">
<path d="M515.703 111.58L260.979 117.23C253.352 117.4 247.307 123.72 247.476 131.347L255.282 483.182C255.45 490.809 261.77 496.854 269.397 496.685L524.121 491.034C531.748 490.865 537.794 484.545 537.624 476.918L529.819 125.083C529.649 117.456 523.329 111.41 515.703 111.58Z" fill="url(#paint0_linear_84_1863)"/>
<path d="M559.684 641.688C559.496 641.709 559.412 641.813 559.517 641.897C559.433 642 559.433 642 559.454 642.188C559.059 643.481 558.779 644.806 558.619 646.148L574.698 659.071L576.477 657.071C576.477 657.071 570.544 649.729 568.315 647.594C567.356 646.653 566.502 645.796 565.648 644.938C564.899 644.163 564.233 643.285 563.587 642.595C562.692 641.361 560.081 641.835 560.061 641.647C559.956 641.564 559.684 641.688 559.684 641.688Z" fill="#233B62"/>
<path d="M438.118 529.41L453.638 544.456L540.446 628.284L542.029 629.728L542.715 630.794L542.819 630.878L555.117 649.507L556.49 651.639L556.947 652.35L565.27 665.041L558.414 668.45L556.429 669.427L553.628 670.777L549.218 673.064L549.135 673.168L544.453 675.579L544.224 675.224L533.538 654.803C531.465 650.859 528.559 647.412 525.022 644.7L430.631 572.442L412.688 558.707L438.118 529.41Z" fill="#FFCCB3"/>
<path d="M553.927 631.571C549.767 629.639 545.097 627.911 540.531 628.18C543.284 630.59 544.537 634.879 546.355 638.005C550.097 644.44 559.689 656.399 554.788 666.563C552.034 672.273 544.33 675.308 544.225 675.224C542.936 681.089 536.546 704.962 549.284 691.123C556.397 683.395 563.453 675.139 567 666.945C568.455 663.586 565.379 660.234 563.869 657.397C561.938 653.105 559.049 647.42 559.413 642.669L559.497 642.565C559.707 642.236 576.199 657.001 576.48 657.071C577.046 656.153 578.365 654.298 578.365 654.298C578.365 654.298 554.719 631.865 553.927 631.571Z" fill="#1C85E8"/>
<path d="M376.309 709.663C376.16 709.545 376.027 709.562 376.043 709.695C375.911 709.71 375.911 709.71 375.794 709.859C374.607 710.506 373.481 711.258 372.428 712.105L374.885 732.587L377.556 732.401C377.556 732.401 378.448 723.004 378.347 719.919C378.321 718.576 378.31 717.366 378.299 716.155C378.305 715.077 378.443 713.984 378.464 713.039C378.688 711.532 376.489 710.045 376.607 709.896C376.59 709.763 376.309 709.663 376.309 709.663Z" fill="#233B62"/>
<path d="M367.926 544.392L368.498 566L371.929 686.627L372.051 688.767L371.796 690.008L371.812 690.141L367.575 712.057L367.066 714.542L366.895 715.369L363.97 730.262L356.685 727.904L354.583 727.214L351.637 726.221L346.885 724.772L346.752 724.787L341.719 723.237L341.805 722.823L348.447 700.754C349.723 696.484 350.056 691.988 349.424 687.576L332.481 569.917L329.26 547.549L367.926 544.392Z" fill="#FFCCB3"/>
<path d="M379.268 698.402C377.645 694.111 375.515 689.61 372.064 686.61C372.346 690.258 370.243 694.201 369.356 697.706C367.531 704.923 366.024 720.18 355.414 724.018C349.452 726.174 341.823 722.955 341.807 722.822C336.784 726.113 315.522 738.71 334.304 737.725C344.793 737.175 355.611 736.207 363.876 732.831C367.265 731.447 367.41 726.9 368.315 723.816C369.936 719.397 371.845 713.313 375.429 710.172L375.562 710.156C375.942 710.068 377.406 732.156 377.557 732.401C378.603 732.141 380.843 731.738 380.843 731.738C380.843 731.738 379.629 699.166 379.268 698.402Z" fill="#1C85E8"/>
<path d="M340.243 543.329C355.062 543.329 367.076 531.315 367.076 516.496C367.076 501.677 355.062 489.663 340.243 489.663C325.424 489.663 313.41 501.677 313.41 516.496C313.41 531.315 325.424 543.329 340.243 543.329Z" fill="#1F2D49"/>
<path d="M377.024 499.288L369.457 435.263L366.953 523.649L377.024 499.288Z" fill="#0D1B33"/>
<path d="M344.539 382.269L427.862 383.125L435.96 399.882L343.131 388.215L344.539 382.269Z" fill="#0D1B33"/>
<path d="M407.118 548.964C421.937 548.964 433.95 536.951 433.95 522.131C433.95 507.313 421.937 495.299 407.118 495.299C392.299 495.299 380.285 507.313 380.285 522.131C380.285 536.951 392.299 548.964 407.118 548.964Z" fill="#1F2D49"/>
<path d="M254.768 280.677L248.425 272.558C247.098 270.656 245.331 269.103 243.277 268.029C240.156 266.466 235.371 263.552 233.707 260.637C230.952 256.006 220.091 243.496 229.512 233.772C232.999 230.184 232.127 231.033 239.099 231.14C246.07 231.248 247.14 238.481 250.624 243.217C250.624 243.217 251.406 237.755 255.257 235.26C259.109 232.764 256.552 248.006 259.515 253.782C262.477 259.558 260.083 261.742 267.102 271.89L254.768 280.677Z" fill="#FFCCB3"/>
<path d="M238.037 231.973L243.702 244.826L238.037 231.973Z" fill="#E56441"/>
<path d="M238.037 231.973L243.702 244.826" stroke="#E56441" stroke-width="0.802724" stroke-linecap="round"/>
<path d="M230.648 234.259L238.498 247.944L230.648 234.259Z" fill="#E56441"/>
<path d="M230.648 234.259L238.498 247.944" stroke="#E56441" stroke-width="0.802724" stroke-linecap="round"/>
<path d="M226.016 243.257L232.203 251.427L226.016 243.257Z" fill="#E56441"/>
<path d="M226.016 243.257L232.203 251.427" stroke="#E56441" stroke-width="0.802724" stroke-linecap="round"/>
<path d="M249.165 246.128C249.165 246.128 246.769 252.995 247.183 258.405L249.165 246.128Z" fill="#E56441"/>
<path d="M249.165 246.128C249.165 246.128 246.769 252.995 247.183 258.405" stroke="#E56441" stroke-width="0.802724" stroke-linecap="round"/>
<path d="M353.007 190.614C353.007 190.614 349.469 213.236 342.705 223.708C335.942 234.181 322.633 268.435 340.742 276.508C358.851 284.581 378.726 269.989 375.678 234.536C372.63 199.082 359.599 185.884 353.007 190.614Z" fill="#1F2D49"/>
<path d="M353.007 258.9C346.495 261.158 337.417 265.735 334.96 270.844L313.255 320.29L267.101 267.37L251.078 280.675L297.177 349.603C306.951 364.162 321.281 366.166 330.367 354.178L348.503 325.693L353.007 258.9Z" fill="#1C85E8"/>
<path opacity="0.6" d="M343.751 301.464C343.751 301.464 341.793 298.089 341.793 315.71L330.367 354.177L348.502 325.692C363.051 306.132 351.558 300.907 343.751 301.464Z" fill="#0E66AF"/>
<path d="M408.316 210.852C408.316 210.852 413.401 220.276 427.086 229.634C440.519 238.819 454.331 252.478 446.953 275.739C439.574 298.999 399.665 273.001 389.367 257.153C379.07 241.304 385.048 217.243 385.048 217.243L408.316 210.852Z" fill="#1F2D49"/>
<path d="M368.287 252.415C368.287 252.415 351.49 259.061 348.925 261.113C346.36 263.164 343.926 279.908 339.566 287.859C335.205 295.81 328.827 310.483 338.143 323.962C347.459 337.44 346.468 348.143 346.468 348.143L344.486 381.955L424.77 383.434C425.477 383.456 426.181 383.329 426.835 383.058C427.488 382.789 428.077 382.383 428.563 381.868C429.048 381.353 429.418 380.742 429.65 380.074C429.881 379.405 429.968 378.695 429.904 377.99C429.012 368.132 424.937 354.289 424.616 338.592C424.182 317.319 420.578 246.133 420.578 246.133L388.883 245.139C381.839 246.352 368.287 252.415 368.287 252.415Z" fill="#1C85E8"/>
<path opacity="0.6" d="M410.096 275.292C410.096 275.292 398.396 285.96 397.708 293.875C397.019 301.79 410.573 320.464 395.537 322.666C377.106 325.364 372.282 327.99 380.826 330.056C389.369 332.12 408.054 328.803 408.76 337.626C409.865 351.445 419.517 359.201 426.5 357.239C421.816 315.195 427.333 296.86 410.096 275.292Z" fill="#0E66AF"/>
<path d="M368.142 231.881L364.547 258.082C364.547 258.082 362.283 263.563 368.244 263.948C374.207 264.332 382.886 261.094 388.194 256.802C393.502 252.51 393.27 252.052 391.95 248.401C390.629 244.75 386.118 217.887 386.118 217.887L368.142 231.881Z" fill="#FFCCB3"/>
<path d="M368.318 227.849L380.303 222.852C380.303 222.852 372.263 243.155 365.357 251.992L368.318 227.849Z" fill="#FCBA9F"/>
<path d="M357.956 181.418C357.956 181.418 348.539 208.208 354.29 224.667C358.041 235.401 365.389 234.814 382.658 226.304C398.491 218.501 402.518 212.784 402.518 212.784L404.253 185.756C404.253 185.756 367.914 159.609 357.956 181.418Z" fill="#FFCCB3"/>
<path d="M372.631 184.997C372.631 184.997 374.156 191.864 382.812 197.021C387.523 199.828 388.182 211.625 388.182 211.625C388.182 211.625 389.282 203.559 395.613 206.419C401.944 209.278 392.269 219.529 386.778 221.749C386.778 221.749 388.929 233.418 390.434 241.636L415.3 230.855C415.3 230.855 410.239 216.575 411.566 207.194C412.892 197.814 416.273 168.213 389.667 163.992C360.56 159.374 356.944 176.854 353.008 190.614C353.008 190.614 364.468 196.687 372.631 184.997Z" fill="#1F2D49"/>
<path d="M361.035 217.746L369.668 218.152C369.649 218.207 369.627 218.266 369.602 218.329C369.453 218.709 369.205 219.21 368.813 219.693C368.044 220.64 366.693 221.557 364.316 221.326C362.856 221.045 362.018 220.067 361.535 219.117C361.292 218.64 361.145 218.179 361.057 217.836C361.049 217.805 361.042 217.775 361.035 217.746Z" fill="#E56441" stroke="#E56441" stroke-width="0.777065"/>
<path d="M361.34 202.285C361.72 200.863 361.245 199.5 360.28 199.242C359.315 198.984 358.225 199.929 357.844 201.351C357.464 202.773 357.939 204.136 358.904 204.394C359.869 204.652 360.959 203.708 361.34 202.285Z" fill="#080B09"/>
<path d="M375.549 206.301C375.929 204.878 375.455 203.516 374.489 203.258C373.523 203 372.433 203.944 372.053 205.367C371.673 206.789 372.147 208.151 373.112 208.409C374.078 208.667 375.168 207.724 375.549 206.301Z" fill="#080B09"/>
<path d="M357.736 194.95L364.957 197.007C365.083 197.032 365.213 197.01 365.324 196.946C365.435 196.882 365.519 196.78 365.56 196.659C365.592 196.431 365.578 196.199 365.519 195.977C365.46 195.755 365.356 195.547 365.213 195.366C365.071 195.185 364.894 195.035 364.692 194.925C364.49 194.814 364.268 194.745 364.039 194.724L357.839 194.086C357.363 193.959 357.141 194.791 357.736 194.95Z" fill="#080B09"/>
<path d="M382.42 201.062L372.629 199.082C372.717 198.791 372.864 198.521 373.062 198.291C373.261 198.06 373.505 197.873 373.781 197.742C374.056 197.611 374.355 197.54 374.659 197.532C374.963 197.524 375.266 197.58 375.548 197.697L382.697 200.5C382.935 200.563 382.777 201.158 382.42 201.062Z" fill="#080B09"/>
<path d="M365.707 202.681L362.959 208.809L363.889 211.624" stroke="#E56441" stroke-width="0.802724" stroke-linecap="round"/>
<path d="M413.527 257.634C413.527 257.634 431.668 248.899 435.077 254.509C438.369 258.083 455.613 306.616 455.613 306.616L431.549 324.073C426.269 315.695 402.322 272.975 402.322 272.975L413.527 257.634Z" fill="#1C85E8"/>
<path d="M419.513 283.965C429.925 283.965 438.366 275.524 438.366 265.112C438.366 254.7 429.925 246.259 419.513 246.259C409.101 246.259 400.66 254.7 400.66 265.112C400.66 275.524 409.101 283.965 419.513 283.965Z" fill="#1C85E8"/>
<path d="M462.804 328.584L437.294 338.413L420.346 304.863L447.881 287.553L462.804 328.584Z" fill="#1C85E8"/>
<path opacity="0.6" d="M454.537 303.613L448.642 312.983L447.771 283.963L454.537 303.613Z" fill="#0E66AF"/>
<path d="M484.221 259.274C487.958 249.132 485.25 247.91 486.64 242.25C488.016 236.723 482.262 224.394 486.186 225.606C490.11 226.817 491.942 231.324 491.942 231.324C493.784 226.519 497.096 214.499 500.726 216.196C503.496 217.49 497.737 227.576 498.047 231.004C498.14 232.022 501.155 215.967 506.201 217.306C508.591 217.94 502.893 232.314 503.159 232.472C513.323 238.641 511.535 237.649 510.256 242.241C509.42 245.123 501.556 254.708 500.817 256.657L497.233 263.98L484.221 259.274Z" fill="#FFCCB3"/>
<path d="M497.652 245.929L503.735 232.18L497.652 245.929Z" fill="#93523E"/>
<path d="M497.652 245.929L503.735 232.18" stroke="#93523E" stroke-width="0.699366" stroke-linecap="round"/>
<path d="M504.346 243.198L507.758 234.911L504.346 243.198Z" fill="#93523E"/>
<path d="M504.346 243.198L507.758 234.911" stroke="#93523E" stroke-width="0.699366" stroke-linecap="round"/>
<path d="M450.659 348.844C458.218 348.844 464.345 342.716 464.345 335.158C464.345 327.599 458.218 321.472 450.659 321.472C443.101 321.472 436.973 327.599 436.973 335.158C436.973 342.716 443.101 348.844 450.659 348.844Z" fill="#1C85E8"/>
<path d="M463.165 340.823C463.165 340.823 495.341 271.577 499.105 263.979L483.606 257.41L439.938 326.822L463.165 340.823Z" fill="#1C85E8"/>
<path d="M344.488 381.956C344.488 381.956 313.91 502.654 313.853 511.854C313.8 520.619 308.153 538.507 331.858 584.576C332.24 585.305 332.775 585.943 333.425 586.447C334.075 586.95 334.827 587.308 335.628 587.495C336.43 587.682 337.261 587.694 338.068 587.531C338.875 587.367 339.636 587.031 340.3 586.546C344.356 583.676 351.222 581.604 361.592 586.813C392.407 602.289 459.256 612.284 488.979 594.696C508.237 583.303 522.908 567.477 530.853 557.745C531.509 556.939 531.93 555.969 532.072 554.94C532.214 553.911 532.071 552.863 531.66 551.909C531.247 550.956 530.581 550.134 529.734 549.533C528.886 548.932 527.891 548.575 526.855 548.5C510.267 547.263 478.438 542.732 461.8 526.168C438.653 503.124 442.351 461.046 441.499 438.223C440.647 415.4 441.333 404.432 427.864 383.127L344.488 381.956Z" fill="#1F2D49"/>
<path d="M438.367 604.01C438.367 604.01 409.772 590.421 400.66 566.65C391.548 542.879 365.981 502.906 366.953 523.649C367.925 544.392 371.988 591.319 371.988 591.319C371.988 591.319 413.284 605.3 438.367 604.01Z" fill="#080B09"/>
<path d="M346.773 261.479C346.773 261.479 343.359 277.978 369.753 278.674C396.148 279.371 410.121 267.77 417.456 246.005L391.135 245.208L365.148 253.7L346.773 261.479Z" fill="#FFCCB3"/>
<path d="M221.639 79.0887L231.149 530.522C231.177 531.799 231.455 533.057 231.968 534.226C232.482 535.394 233.221 536.45 234.143 537.333C235.065 538.216 236.151 538.909 237.341 539.371C238.532 539.834 239.8 540.058 241.076 540.03L554.362 533.079C556.935 533.022 559.382 531.945 561.162 530.086C562.943 528.227 563.913 525.736 563.858 523.163L554.347 71.7292C554.321 70.4532 554.042 69.1952 553.529 68.0265C553.015 66.8577 552.276 65.8017 551.354 64.9182C550.432 64.0354 549.345 63.3431 548.155 62.8807C546.966 62.4176 545.696 62.1946 544.42 62.2226L231.135 69.1726C228.561 69.2301 226.116 70.3064 224.335 72.1659C222.554 74.0254 221.584 76.5151 221.639 79.0887ZM528.221 490.943L265.301 496.777C264.026 496.805 262.757 496.582 261.568 496.119C260.379 495.658 259.293 494.966 258.371 494.084C257.449 493.202 256.71 492.148 256.196 490.98C255.682 489.813 255.402 488.555 255.374 487.28L247.387 127.249C247.358 125.974 247.582 124.706 248.044 123.516C248.505 122.327 249.197 121.241 250.079 120.319C250.961 119.397 252.015 118.658 253.183 118.144C254.35 117.63 255.608 117.351 256.883 117.322L519.803 111.489C521.078 111.461 522.347 111.684 523.536 112.146C524.725 112.607 525.811 113.299 526.732 114.181C527.655 115.063 528.394 116.117 528.908 117.285C529.422 118.453 529.702 119.71 529.73 120.985L537.717 481.016C537.745 482.291 537.522 483.56 537.06 484.749C536.598 485.938 535.906 487.024 535.025 487.947C534.143 488.868 533.088 489.607 531.921 490.122C530.754 490.636 529.496 490.915 528.221 490.943Z" fill="url(#paint1_linear_84_1863)"/>
<path d="M258.937 103.124C264.689 103.124 269.352 98.4604 269.352 92.7078C269.352 86.9552 264.689 82.292 258.937 82.292C253.185 82.292 248.521 86.9552 248.521 92.7078C248.521 98.4604 253.185 103.124 258.937 103.124Z" fill="white"/>
<path d="M279.707 86.8211L336.069 85.5708" stroke="white" stroke-width="4.16952" stroke-miterlimit="10" stroke-linecap="round"/>
<path d="M279.707 97.9155L312.826 97.1812" stroke="white" stroke-width="4.16952" stroke-miterlimit="10" stroke-linecap="round"/>
<path d="M376.906 208.606C376.395 210.613 375.414 212.28 374.26 213.356C373.103 214.435 371.817 214.886 370.658 214.591C369.5 214.298 368.586 213.287 368.084 211.785C367.584 210.289 367.518 208.357 368.028 206.35C368.538 204.343 369.52 202.676 370.673 201.6C371.831 200.521 373.117 200.07 374.275 200.364C375.433 200.659 376.348 201.669 376.85 203.17C377.349 204.667 377.415 206.599 376.906 208.606Z" stroke="white" stroke-width="0.777065"/>
<path d="M362.142 204.72C361.631 206.728 360.65 208.394 359.496 209.47C358.339 210.549 357.053 211 355.894 210.705C354.736 210.412 353.822 209.401 353.32 207.899C352.82 206.403 352.754 204.471 353.265 202.464C353.774 200.457 354.756 198.79 355.91 197.714C357.067 196.635 358.354 196.184 359.512 196.478C360.669 196.773 361.585 197.783 362.086 199.284C362.586 200.781 362.652 202.713 362.142 204.72Z" stroke="white" stroke-width="0.777065"/>
<path d="M361.863 204.98C363.159 204.591 366.215 204.436 368.08 206.922" stroke="white" stroke-width="0.777065"/>
<path d="M377.014 208.477L391.001 206.534" stroke="white" stroke-width="0.777065"/>
<defs>
<linearGradient id="paint0_linear_84_1863" x1="381.292" y1="113.659" x2="515.114" y2="908.14" gradientUnits="userSpaceOnUse">
<stop stop-color="white"/>
<stop offset="1" stop-color="#94B9FF"/>
</linearGradient>
<linearGradient id="paint1_linear_84_1863" x1="353.13" y1="-89.8088" x2="571.705" y2="1051.6" gradientUnits="userSpaceOnUse">
<stop stop-color="white"/>
<stop offset="1" stop-color="#94B9FF"/>
</linearGradient>
</defs>
</svg>
