<svg width="800" height="800" viewBox="0 0 800 800" fill="none" xmlns="http://www.w3.org/2000/svg">
<path d="M608.845 293.508H191.158C173.538 293.508 159.258 307.789 159.258 325.408V474.595C159.258 492.211 173.538 506.492 191.158 506.492H608.845C626.461 506.492 640.742 492.211 640.742 474.595V325.408C640.742 307.789 626.461 293.508 608.845 293.508Z" fill="url(#paint0_linear_84_2831)"/>
<path d="M315.794 327.419H225.175C210.115 327.419 197.904 339.63 197.904 354.69V445.31C197.904 460.37 210.115 472.58 225.175 472.58H315.794C330.858 472.58 343.065 460.37 343.065 445.31V354.69C343.065 339.63 330.858 327.419 315.794 327.419Z" fill="white"/>
<path d="M381.023 381.71H482.157" stroke="white" stroke-width="23" stroke-miterlimit="10" stroke-linecap="round"/>
<path opacity="0.4" d="M381.023 428.911H590.022" stroke="white" stroke-width="23" stroke-miterlimit="10" stroke-linecap="round"/>
<path d="M214.78 437.986L237.917 405.619C238.761 404.437 239.875 403.468 241.169 402.8C242.459 402.128 243.892 401.775 245.346 401.763C246.801 401.754 248.236 402.088 249.536 402.741C250.836 403.391 251.965 404.341 252.829 405.513L281.888 444.973C282.829 446.248 283.395 447.758 283.528 449.339C283.658 450.917 283.349 452.502 282.634 453.916C281.919 455.33 280.827 456.518 279.477 457.347C278.128 458.177 276.575 458.616 274.991 458.616H225.394C222.996 458.616 220.647 457.957 218.598 456.707C216.553 455.46 214.888 453.671 213.793 451.539C212.697 449.407 212.209 447.015 212.382 444.623C212.558 442.231 213.387 439.935 214.78 437.986Z" fill="#1C85E8"/>
<path d="M277.209 429.773L294.454 453.899C295.497 455.36 296.874 456.548 298.468 457.368C300.064 458.191 301.834 458.618 303.626 458.618H310.514C313.683 458.618 316.796 457.786 319.543 456.205C322.291 454.624 324.575 452.352 326.169 449.611C327.762 446.869 328.607 443.759 328.619 440.59C328.635 437.422 327.815 434.303 326.246 431.549L302.011 389.01C301.367 387.877 300.423 386.949 299.281 386.321C298.143 385.696 296.852 385.396 295.553 385.461C294.253 385.523 292.994 385.944 291.92 386.677C290.846 387.41 289.995 388.425 289.463 389.613L276.16 419.264C275.402 420.954 275.102 422.813 275.284 424.657C275.467 426.502 276.132 428.266 277.209 429.773Z" fill="#1C85E8"/>
<path d="M253.667 376.01C261.641 376.01 268.108 369.545 268.108 361.571C268.108 353.597 261.641 347.133 253.667 347.133C245.693 347.133 239.229 353.597 239.229 361.571C239.229 369.545 245.693 376.01 253.667 376.01Z" fill="url(#paint1_linear_84_2831)"/>
<defs>
<linearGradient id="paint0_linear_84_2831" x1="344.259" y1="225.741" x2="376.144" y2="751.252" gradientUnits="userSpaceOnUse">
<stop stop-color="white"/>
<stop offset="1" stop-color="#94B9FF"/>
</linearGradient>
<linearGradient id="paint1_linear_84_2831" x1="252.949" y1="347.065" x2="259.586" y2="408.29" gradientUnits="userSpaceOnUse">
<stop stop-color="white"/>
<stop offset="1" stop-color="#94B9FF"/>
</linearGradient>
</defs>
</svg>
