<svg width="800" height="800" viewBox="0 0 800 800" fill="none" xmlns="http://www.w3.org/2000/svg">
<path d="M534.805 238.439H204.758C184.612 238.439 168.283 254.768 168.283 274.914V525.086C168.283 545.229 184.612 561.561 204.758 561.561H534.805C554.951 561.561 571.28 545.229 571.28 525.086V274.914C571.28 254.768 554.951 238.439 534.805 238.439Z" fill="#1C85E8"/>
<path d="M257.674 386.61C287.912 386.61 312.424 362.097 312.424 331.86C312.424 301.622 287.912 277.113 257.674 277.113C227.44 277.113 202.928 301.622 202.928 331.86C202.928 362.097 227.44 386.61 257.674 386.61Z" fill="#5CA4E6"/>
<path d="M243.17 318.622V350.342C243.17 351.265 243.414 352.168 243.874 352.967C244.334 353.763 244.996 354.428 245.792 354.888C246.588 355.348 247.494 355.593 248.414 355.593C249.337 355.596 250.239 355.355 251.039 354.895L278.623 339.034C279.422 338.574 280.088 337.912 280.551 337.113C281.015 336.313 281.255 335.404 281.255 334.484C281.255 333.56 281.015 332.651 280.551 331.851C280.088 331.052 279.422 330.39 278.623 329.93L251.039 314.068C250.239 313.612 249.337 313.368 248.414 313.371C247.494 313.371 246.588 313.615 245.792 314.075C244.996 314.539 244.334 315.2 243.874 315.996C243.414 316.796 243.17 317.702 243.17 318.622Z" fill="white"/>
<path d="M214.896 437.982H343.107" stroke="white" stroke-width="26.2987" stroke-miterlimit="10" stroke-linecap="round"/>
<path opacity="0.4" d="M214.896 500.135H480.767" stroke="white" stroke-width="26.2987" stroke-miterlimit="10" stroke-linecap="round"/>
<path d="M463.258 335.108L475.603 322.767C476.477 321.893 477.517 321.199 478.66 320.725C479.803 320.251 481.027 320.007 482.265 320.007C483.503 320.007 484.728 320.251 485.87 320.725C487.017 321.199 488.054 321.893 488.931 322.767L496.029 329.864C497.794 331.633 500.193 332.627 502.691 332.627C505.193 332.627 507.588 331.633 509.357 329.864L524.6 314.622" stroke="white" stroke-width="5.21664" stroke-miterlimit="10" stroke-linecap="round"/>
<path d="M515.055 311.506H525.075C525.8 311.506 526.494 311.796 527.007 312.309C527.52 312.822 527.81 313.519 527.81 314.244V322.173" stroke="white" stroke-width="5.21664" stroke-miterlimit="10" stroke-linecap="round"/>
</svg>
