<svg width="800" height="800" viewBox="0 0 800 800" fill="none" xmlns="http://www.w3.org/2000/svg">
<path d="M606.154 311.696H193.848C183.105 311.696 174.398 320.402 174.398 331.145V468.858C174.398 479.598 183.105 488.304 193.848 488.304H606.154C616.895 488.304 625.601 479.598 625.601 468.858V331.145C625.601 320.402 616.895 311.696 606.154 311.696Z" fill="#FEBB94"/>
<path d="M370.132 437.216C366.829 437.216 363.86 436.649 361.219 435.518C358.578 434.339 356.503 432.69 354.993 430.567C353.485 428.444 352.729 425.969 352.729 423.138H361.36C361.55 425.262 362.373 427.005 363.837 428.375C365.345 429.741 367.445 430.426 370.132 430.426C372.914 430.426 375.084 429.764 376.64 428.444C378.197 427.077 378.974 425.33 378.974 423.21C378.974 421.559 378.479 420.215 377.489 419.176C376.545 418.141 375.343 417.338 373.881 416.771C372.466 416.207 370.486 415.592 367.94 414.933C364.732 414.084 362.114 413.235 360.085 412.386C358.106 411.489 356.408 410.122 354.993 408.284C353.577 406.442 352.87 403.991 352.87 400.927C352.87 398.096 353.577 395.619 354.993 393.498C356.408 391.375 358.388 389.749 360.934 388.616C363.483 387.485 366.429 386.918 369.778 386.918C374.543 386.918 378.433 388.121 381.451 390.526C384.515 392.885 386.215 396.139 386.543 400.288H377.63C377.489 398.496 376.64 396.965 375.084 395.69C373.527 394.416 371.476 393.78 368.93 393.78C366.619 393.78 364.732 394.37 363.27 395.55C361.809 396.729 361.078 398.427 361.078 400.642C361.078 402.153 361.524 403.401 362.422 404.391C363.365 405.335 364.542 406.091 365.958 406.655C367.373 407.222 369.306 407.835 371.758 408.494C375.012 409.391 377.653 410.286 379.681 411.184C381.756 412.079 383.502 413.471 384.918 415.359C386.379 417.197 387.11 419.671 387.11 422.784C387.11 425.285 386.425 427.644 385.059 429.859C383.738 432.075 381.782 433.867 379.187 435.236C376.64 436.557 373.622 437.216 370.132 437.216ZM416.787 397.106C419.759 397.106 422.401 397.742 424.711 399.016C427.067 400.288 428.909 402.176 430.229 404.676C431.596 407.176 432.281 410.194 432.281 413.73V436.721H424.285V414.933C424.285 411.443 423.413 408.779 421.67 406.94C419.923 405.053 417.541 404.109 414.523 404.109C411.505 404.109 409.1 405.053 407.307 406.94C405.564 408.779 404.689 411.443 404.689 414.933V436.721H396.625V384.372H404.689V402.271C406.059 400.619 407.779 399.345 409.854 398.45C411.977 397.555 414.287 397.106 416.787 397.106ZM439.879 417.056C439.879 413.14 440.679 409.673 442.284 406.655C443.936 403.637 446.151 401.304 448.933 399.652C451.764 397.955 454.875 397.106 458.272 397.106C461.336 397.106 464.001 397.719 466.265 398.945C468.575 400.124 470.417 401.609 471.783 403.401V397.742H479.92V436.721H471.783V430.921C470.417 432.759 468.552 434.293 466.196 435.518C463.837 436.744 461.149 437.357 458.131 437.357C454.782 437.357 451.716 436.508 448.933 434.811C446.151 433.067 443.936 430.662 442.284 427.595C440.679 424.482 439.879 420.969 439.879 417.056ZM471.783 417.197C471.783 414.507 471.217 412.173 470.086 410.194C469.001 408.212 467.563 406.704 465.77 405.666C463.978 404.627 462.044 404.109 459.97 404.109C457.896 404.109 455.959 404.627 454.17 405.666C452.377 406.655 450.916 408.143 449.782 410.122C448.697 412.056 448.156 414.366 448.156 417.056C448.156 419.743 448.697 422.102 449.782 424.128C450.916 426.156 452.377 427.713 454.17 428.797C456.008 429.836 457.942 430.354 459.97 430.354C462.044 430.354 463.978 429.836 465.77 428.797C467.563 427.762 469.001 426.251 470.086 424.272C471.217 422.243 471.783 419.884 471.783 417.197ZM498.575 403.401C499.754 401.422 501.311 399.888 503.244 398.804C505.227 397.673 507.56 397.106 510.247 397.106V405.453H508.196C505.037 405.453 502.632 406.255 500.98 407.858C499.378 409.463 498.575 412.245 498.575 416.207V436.721H490.51V397.742H498.575V403.401ZM553.387 416.276C553.387 417.738 553.292 419.058 553.102 420.238H523.321C523.557 423.351 524.711 425.851 526.788 427.736C528.862 429.623 531.408 430.567 534.427 430.567C538.765 430.567 541.832 428.751 543.625 425.12H552.325C551.145 428.702 548.999 431.651 545.886 433.962C542.822 436.226 539.001 437.357 534.427 437.357C530.701 437.357 527.352 436.534 524.383 434.882C521.457 433.185 519.146 430.826 517.449 427.808C515.797 424.744 514.972 421.205 514.972 417.197C514.972 413.186 515.774 409.673 517.377 406.655C519.028 403.591 521.316 401.232 524.242 399.58C527.211 397.932 530.606 397.106 534.427 397.106C538.106 397.106 541.383 397.906 544.261 399.511C547.138 401.114 549.376 403.378 550.981 406.301C552.584 409.179 553.387 412.504 553.387 416.276ZM544.968 413.73C544.919 410.758 543.861 408.379 541.783 406.586C539.709 404.794 537.14 403.896 534.073 403.896C531.29 403.896 528.908 404.794 526.929 406.586C524.947 408.33 523.77 410.712 523.39 413.73H544.968Z" fill="white"/>
<path d="M293.511 412.338C290.72 412.338 287.966 412.953 285.443 414.139C282.92 415.327 280.69 417.056 278.912 419.205L256.252 406.342C257.708 402.242 257.708 397.765 256.252 393.668L278.909 380.799C281.939 384.444 286.22 386.821 290.915 387.465C295.611 388.11 300.375 386.97 304.271 384.274C308.169 381.578 310.914 377.522 311.967 372.901C313.02 368.28 312.307 363.435 309.965 359.315C307.62 355.198 303.819 352.105 299.311 350.65C294.802 349.194 289.911 349.481 285.601 351.452C281.294 353.423 277.879 356.939 276.035 361.301C274.188 365.665 274.041 370.562 275.626 375.027L252.969 387.897C250.478 384.89 247.12 382.726 243.354 381.699C239.588 380.672 235.597 380.83 231.923 382.154C228.252 383.477 225.079 385.903 222.834 389.096C220.59 392.29 219.385 396.099 219.385 400.003C219.385 403.905 220.59 407.714 222.834 410.911C225.076 414.104 228.252 416.527 231.923 417.853C235.597 419.176 239.588 419.335 243.354 418.308C247.12 417.28 250.478 415.117 252.966 412.11L275.626 424.977C274.283 428.772 274.182 432.897 275.339 436.756C276.495 440.614 278.849 444.003 282.06 446.434C285.271 448.865 289.175 450.212 293.2 450.278C297.228 450.344 301.169 449.124 304.461 446.8C307.749 444.478 310.212 441.166 311.495 437.348C312.776 433.53 312.81 429.402 311.59 425.564C310.37 421.726 307.962 418.374 304.711 415.997C301.46 413.618 297.539 412.338 293.511 412.338ZM293.511 356.355C295.95 356.355 298.335 357.077 300.364 358.435C302.395 359.79 303.975 361.715 304.91 363.971C305.845 366.226 306.089 368.706 305.612 371.1C305.137 373.494 303.96 375.692 302.237 377.415C300.511 379.141 298.312 380.315 295.919 380.793C293.525 381.268 291.045 381.023 288.789 380.091C286.534 379.156 284.609 377.574 283.254 375.545C281.899 373.514 281.173 371.129 281.176 368.689C281.179 365.421 282.48 362.285 284.793 359.971C287.103 357.658 290.239 356.358 293.511 356.355ZM238.374 412.338C235.934 412.338 233.549 411.615 231.52 410.26C229.492 408.905 227.91 406.977 226.977 404.725C226.042 402.472 225.798 399.992 226.273 397.598C226.75 395.204 227.924 393.006 229.647 391.283C231.374 389.557 233.572 388.383 235.966 387.905C238.356 387.43 240.836 387.675 243.092 388.607C245.345 389.542 247.27 391.122 248.628 393.15C249.983 395.178 250.705 397.564 250.705 400.003C250.702 403.272 249.402 406.408 247.088 408.721C244.778 411.031 241.642 412.332 238.374 412.338ZM293.511 443.649C291.071 443.649 288.686 442.927 286.654 441.572C284.626 440.217 283.044 438.289 282.111 436.036C281.176 433.781 280.932 431.301 281.407 428.907C281.884 426.513 283.058 424.315 284.784 422.592C286.508 420.865 288.706 419.689 291.1 419.214C293.493 418.739 295.973 418.981 298.229 419.916C300.482 420.851 302.409 422.43 303.765 424.462C305.12 426.49 305.842 428.875 305.842 431.315C305.839 434.586 304.539 437.719 302.225 440.033C299.915 442.343 296.779 443.646 293.511 443.649Z" fill="white"/>
</svg>
