<svg width="800" height="800" viewBox="0 0 800 800" fill="none" xmlns="http://www.w3.org/2000/svg">
<path d="M273.06 119.196L264.824 490.396L541.025 496.524L549.26 125.324L273.06 119.196Z" fill="url(#paint0_linear_84_1912)"/>
<path d="M387.568 195.413C397.62 195.413 405.769 187.265 405.769 177.212C405.769 167.161 397.62 159.012 387.568 159.012C377.516 159.012 369.367 167.161 369.367 177.212C369.367 187.265 377.516 195.413 387.568 195.413Z" fill="#1F2D49"/>
<path d="M370.479 172.446C377.236 172.446 382.713 166.969 382.713 160.212C382.713 153.456 377.236 147.979 370.479 147.979C363.723 147.979 358.246 153.456 358.246 160.212C358.246 166.969 363.723 172.446 370.479 172.446Z" fill="#1F2D49"/>
<path d="M243.542 638.07C243.726 638.09 243.808 638.192 243.707 638.274C243.788 638.375 243.788 638.375 243.768 638.559C244.155 639.824 244.429 641.12 244.585 642.433L228.856 655.074L227.115 653.117C227.115 653.117 232.92 645.936 235.1 643.848C236.037 642.927 236.873 642.088 237.709 641.249C238.442 640.491 239.094 639.632 239.726 638.957C240.6 637.75 243.155 638.214 243.174 638.03C243.276 637.947 243.542 638.07 243.542 638.07Z" fill="#233B62"/>
<path d="M362.465 528.236L347.282 542.954L262.364 624.959L260.814 626.371L260.143 627.414L260.041 627.496L248.012 645.72L246.668 647.806L246.221 648.502L238.08 660.916L244.786 664.251L246.728 665.207L249.467 666.527L253.782 668.765L253.864 668.866L258.444 671.225L258.667 670.878L269.12 650.901C271.149 647.042 273.992 643.67 277.452 641.018L369.788 570.332L387.343 556.895L362.465 528.236Z" fill="#BC775C"/>
<path d="M249.178 628.174C253.248 626.283 257.816 624.593 262.282 624.856C259.59 627.214 258.364 631.41 256.585 634.468C252.925 640.764 243.541 652.462 248.336 662.405C251.029 667.991 258.566 670.959 258.668 670.877C259.929 676.614 266.18 699.969 253.72 686.431C246.761 678.87 239.858 670.794 236.388 662.779C234.965 659.492 237.975 656.214 239.452 653.438C241.341 649.239 244.168 643.679 243.81 639.03L243.728 638.929C243.524 638.607 227.39 653.051 227.116 653.119C226.562 652.221 225.271 650.407 225.271 650.407C225.271 650.407 248.402 628.462 249.178 628.174Z" fill="#FEBB94"/>
<path d="M422.932 704.567C423.077 704.453 423.207 704.468 423.192 704.598C423.321 704.614 423.321 704.614 423.435 704.759C424.596 705.392 425.698 706.128 426.728 706.957L424.325 726.992L421.713 726.811C421.713 726.811 420.839 717.619 420.938 714.601C420.964 713.287 420.975 712.103 420.985 710.919C420.979 709.864 420.844 708.795 420.824 707.87C420.605 706.396 422.755 704.941 422.641 704.796C422.656 704.666 422.932 704.567 422.932 704.567Z" fill="#233B62"/>
<path d="M431.131 542.891L430.571 564.029L427.216 682.032L427.096 684.125L427.346 685.34L427.33 685.47L431.475 706.909L431.974 709.34L432.14 710.149L435.002 724.717L442.128 722.412L444.184 721.737L447.067 720.765L451.715 719.347L451.844 719.363L456.768 717.845L456.685 717.44L450.187 695.851C448.939 691.674 448.612 687.276 449.231 682.961L465.805 567.86L468.956 545.98L431.131 542.891Z" fill="#BC775C"/>
<path d="M420.038 693.552C421.625 689.355 423.708 684.952 427.085 682.018C426.809 685.586 428.867 689.443 429.734 692.872C431.52 699.932 432.994 714.856 443.373 718.611C449.205 720.72 456.668 717.572 456.684 717.442C461.597 720.661 482.397 732.984 464.024 732.02C453.763 731.481 443.181 730.536 435.094 727.233C431.779 725.879 431.638 721.43 430.753 718.414C429.167 714.091 427.299 708.14 423.793 705.066L423.663 705.051C423.292 704.965 421.86 726.572 421.712 726.812C420.688 726.558 418.496 726.163 418.496 726.163C418.496 726.163 419.684 694.3 420.038 693.552Z" fill="#FEBB94"/>
<path d="M454.059 383.988C454.059 383.988 480.464 523.573 482.464 538.538C484.464 553.503 485.796 657.709 485.796 657.709L397.483 652.108L417.716 530.176L415.256 476.185C415.256 476.185 412.15 529.572 409.981 538.538C407.81 547.504 331.745 640.385 331.745 640.385L290.92 591.496L355.82 504.846C355.82 504.846 362.504 462.821 363.587 440.191C365.673 396.571 372.497 385.133 372.497 385.133L454.059 383.988Z" fill="#1F2D49"/>
<path d="M454.009 384.295L372.498 385.133L367.902 401.525L455.386 390.112L454.009 384.295Z" fill="#0D1B33"/>
<path d="M541.828 284.913L548.032 276.971C549.331 275.112 551.058 273.592 553.069 272.541C556.122 271.013 560.803 268.161 562.43 265.31C565.125 260.78 575.75 248.542 566.534 239.029C563.123 235.519 563.975 236.35 557.156 236.455C550.336 236.559 549.29 243.636 545.882 248.268C545.882 248.268 545.115 242.925 541.349 240.484C537.582 238.043 540.082 252.953 537.183 258.604C534.285 264.254 536.627 266.39 529.762 276.318L541.828 284.913Z" fill="#BC775C"/>
<path d="M558.193 237.269L552.652 249.843L558.193 237.269Z" fill="#E56441"/>
<path d="M558.193 237.269L552.652 249.843" stroke="#E56441" stroke-width="0.785261" stroke-linecap="round"/>
<path d="M565.421 239.505L557.742 252.893L565.421 239.505Z" fill="#E56441"/>
<path d="M565.421 239.505L557.742 252.893" stroke="#E56441" stroke-width="0.785261" stroke-linecap="round"/>
<path d="M569.956 248.308L563.902 256.301L569.956 248.308Z" fill="#E56441"/>
<path d="M569.956 248.308L563.902 256.301" stroke="#E56441" stroke-width="0.785261" stroke-linecap="round"/>
<path d="M547.307 251.118C547.307 251.118 549.651 257.835 549.246 263.128L547.307 251.118Z" fill="#E56441"/>
<path d="M547.307 251.118C547.307 251.118 549.651 257.835 549.246 263.128" stroke="#E56441" stroke-width="0.785261" stroke-linecap="round"/>
<path d="M445.725 263.613C452.096 265.821 460.975 270.299 463.379 275.297L484.611 323.667L529.762 271.899L545.436 284.914L500.34 352.343C490.779 366.584 476.76 368.546 467.872 356.819L450.131 328.953L445.725 263.613Z" fill="#FEBB94"/>
<path d="M454.78 305.25C454.78 305.25 456.694 301.948 456.694 319.186L467.872 356.816L450.132 328.951C435.898 309.816 447.143 304.704 454.78 305.25Z" fill="#FF967C"/>
<path d="M430.775 257.268C430.775 257.268 447.206 263.77 449.715 265.777C452.224 267.784 454.606 284.164 458.871 291.941C463.136 299.718 469.376 314.073 460.263 327.258C451.149 340.443 452.119 350.914 452.119 350.914L454.058 383.99L375.52 385.437C374.828 385.459 374.14 385.334 373.501 385.069C372.861 384.805 372.285 384.409 371.81 383.905C371.335 383.402 370.973 382.803 370.747 382.149C370.52 381.496 370.436 380.801 370.498 380.112C371.371 370.469 375.357 356.926 375.671 341.571C376.095 320.76 379.621 251.123 379.621 251.123L410.626 250.15C417.517 251.338 430.775 257.268 430.775 257.268Z" fill="white"/>
<path d="M452.465 356.818V356.817L452.283 353.718C452.233 351.791 452.248 349.413 452.313 346.749C452.853 342.504 454.634 335.401 460.262 327.258C469.375 314.073 463.136 299.718 458.871 291.941C454.606 284.163 452.224 267.784 449.715 265.776C447.206 263.77 439.279 260.759 439.279 260.759C439.279 260.759 438.81 275.046 438.335 288.13C437.86 301.215 434.846 413.196 434.846 413.196H467.87C467.87 413.196 453.543 366.495 452.465 356.818Z" fill="#FEBB94"/>
<path d="M399.107 250.511C399.107 250.511 412.406 273.927 417.716 297.715C423.026 321.505 409.89 401.609 411.643 411.966L350.197 416.659C350.197 416.659 372.217 387.359 373.833 359.812C375.448 332.266 378.28 276.759 378.28 276.759L381.305 251.256L399.107 250.511Z" fill="#FEBB94"/>
<path d="M389.88 279.647C389.88 279.647 394.698 290.041 395.372 297.783C396.044 305.526 389.414 323.837 404.123 325.99C422.153 328.63 418.237 332.03 409.88 334.05C401.522 336.069 391.877 331.994 391.187 340.625C390.106 354.144 380.665 361.731 373.834 359.811C378.415 318.683 373.018 300.746 389.88 279.647Z" fill="#FF967C"/>
<path d="M430.915 237.18L434.433 262.812C434.433 262.812 436.648 268.173 430.816 268.549C424.984 268.925 416.494 265.757 411.3 261.559C406.107 257.36 406.334 256.912 407.626 253.341C408.918 249.769 413.331 223.49 413.331 223.49L430.915 237.18Z" fill="#BC775C"/>
<path d="M433.855 261.4C430.743 257.073 427.399 250.711 424.745 245.224C423.294 242.224 422.055 239.493 421.177 237.513C420.739 236.522 420.391 235.72 420.153 235.165C420.152 235.164 420.151 235.162 420.15 235.161L430.813 239.606L433.855 261.4Z" fill="#93523E" stroke="#93523E" stroke-width="0.76016"/>
<path d="M440.883 187.814C440.883 187.814 450.096 214.021 444.469 230.122C440.8 240.623 433.612 240.049 416.719 231.724C401.23 224.091 397.29 218.497 397.29 218.497L395.594 192.057C395.594 192.057 431.142 166.479 440.883 187.814Z" fill="#BC775C"/>
<path d="M426.528 191.315C426.528 191.315 425.035 198.033 416.567 203.077C411.959 205.823 411.314 217.364 411.314 217.364C411.314 217.364 410.239 209.473 404.045 212.271C397.851 215.068 407.317 225.096 412.688 227.268C412.688 227.268 412.056 230.644 410.584 238.682C410.584 238.682 390.742 231.497 388.44 213.029C387.294 203.833 383.835 174.897 409.863 170.767C438.336 166.25 441.872 183.35 445.724 196.81C445.724 196.81 434.512 202.75 426.528 191.315Z" fill="#1F2D49"/>
<path d="M429.428 223.748L437.873 223.35C437.866 223.379 437.859 223.409 437.851 223.439C437.766 223.774 437.621 224.226 437.384 224.692C436.911 225.621 436.092 226.578 434.663 226.852C432.338 227.079 431.017 226.182 430.265 225.256C429.881 224.783 429.638 224.293 429.492 223.922C429.468 223.86 429.446 223.802 429.428 223.748Z" fill="#93523E" stroke="#93523E" stroke-width="0.76016"/>
<path d="M439.953 210.29C440.897 210.037 441.361 208.705 440.989 207.314C440.617 205.922 439.551 204.998 438.606 205.251C437.662 205.503 437.198 206.835 437.57 208.227C437.941 209.618 439.009 210.542 439.953 210.29Z" fill="#080B09"/>
<path d="M426.056 214.216C427 213.964 427.464 212.631 427.092 211.24C426.721 209.849 425.653 208.925 424.709 209.177C423.765 209.43 423.301 210.762 423.673 212.153C424.045 213.545 425.112 214.469 426.056 214.216Z" fill="#080B09"/>
<path d="M441.099 201.053L434.034 203.066C433.912 203.09 433.784 203.069 433.676 203.006C433.567 202.944 433.485 202.843 433.445 202.725C433.413 202.502 433.426 202.275 433.485 202.058C433.543 201.841 433.645 201.637 433.784 201.461C433.923 201.283 434.097 201.137 434.294 201.028C434.491 200.92 434.709 200.853 434.933 200.832L440.998 200.208C441.463 200.083 441.681 200.897 441.099 201.053Z" fill="#080B09"/>
<path d="M416.951 207.031L426.529 205.094C426.443 204.809 426.298 204.545 426.104 204.32C425.91 204.094 425.671 203.911 425.402 203.783C425.133 203.655 424.84 203.585 424.543 203.578C424.245 203.57 423.949 203.625 423.674 203.738L416.679 206.481C416.446 206.542 416.602 207.124 416.951 207.031Z" fill="#080B09"/>
<path d="M433.301 208.616L435.989 214.611L435.079 217.365" stroke="#93523E" stroke-width="0.785261" stroke-linecap="round"/>
<path d="M386.714 262.372C386.714 262.372 368.967 253.826 365.633 259.315C358.69 270.283 347.486 308.486 343.76 317.378C343.157 318.997 370.648 323.464 370.648 323.464L397.675 277.379L386.714 262.372Z" fill="#FEBB94"/>
<path d="M380.855 288.129C391.041 288.129 399.298 279.872 399.298 269.686C399.298 259.501 391.041 251.243 380.855 251.243C370.669 251.243 362.412 259.501 362.412 269.686C362.412 279.872 370.669 288.129 380.855 288.129Z" fill="#FEBB94"/>
<path d="M338.51 331.778L363.464 341.393L370.649 323.463L371.84 320.633L346.217 310.585L345.006 313.96L338.51 331.778Z" fill="#FEBB94"/>
<path d="M350.843 350.248C358.237 350.248 364.231 344.253 364.231 336.859C364.231 329.465 358.237 323.471 350.843 323.471C343.449 323.471 337.455 329.465 337.455 336.859C337.455 344.253 343.449 350.248 350.843 350.248Z" fill="#FEBB94"/>
<path d="M430.484 340.651C430.484 340.651 444.335 345.361 452.147 342.055C452.147 342.055 464.791 347.587 466.59 346.644C469.53 344.989 467.198 342.144 467.198 342.144C467.198 342.144 475.385 344.441 476.502 336.695C478.148 325.841 463.334 323.511 456.322 322.705C449.428 321.743 430.484 327.022 430.484 327.022V340.651Z" fill="#BC775C"/>
<path d="M470.291 321.979L455.607 322.528L469.759 327.021C469.759 327.021 474.807 324.655 472.454 322.641C471.837 322.166 471.068 321.931 470.291 321.979Z" fill="#BC775C"/>
<path d="M467.063 342.162L457.912 338.897L467.063 342.162Z" fill="#93523E"/>
<path d="M467.063 342.162L457.912 338.897" stroke="#93523E" stroke-width="0.785261" stroke-linecap="round"/>
<path d="M471.829 335.835C471.829 335.835 461.501 332.046 459.26 331.81L471.829 335.835Z" fill="#93523E"/>
<path d="M471.829 335.835C471.829 335.835 461.501 332.046 459.26 331.81" stroke="#93523E" stroke-width="0.785261" stroke-linecap="round"/>
<path d="M473.02 330.562C468.918 328.551 464.538 327.167 460.025 326.459L473.02 330.562Z" fill="#93523E"/>
<path d="M473.02 330.562C468.918 328.551 464.538 327.167 460.025 326.459" stroke="#93523E" stroke-width="0.785261" stroke-linecap="round"/>
<path d="M351.162 323.431C351.162 323.431 426.211 327.06 431.855 325.989L431.703 342.161L353.638 349.846L351.162 323.431Z" fill="#FEBB94"/>
<path d="M560.167 74.4901L264.471 67.9299C260.523 67.8425 256.702 69.3263 253.848 72.0561C250.994 74.7858 249.342 78.538 249.254 82.4855L239.594 516.727C239.55 518.682 239.892 520.627 240.601 522.449C241.308 524.272 242.369 525.938 243.72 527.351C245.072 528.764 246.689 529.897 248.478 530.685C250.268 531.473 252.195 531.902 254.151 531.945L549.847 538.505C553.794 538.593 557.616 537.108 560.47 534.379C563.324 531.649 564.976 527.897 565.064 523.949L574.724 89.7085C574.768 87.7534 574.426 85.8089 573.717 83.986C573.01 82.1632 571.949 80.4977 570.598 79.0845C569.246 77.6706 567.629 76.538 565.839 75.7497C564.05 74.9614 562.122 74.5334 560.167 74.4901ZM265.155 475.509L272.729 134.084C272.816 130.135 274.469 126.383 277.323 123.653C280.177 120.923 283.998 119.439 287.947 119.527L534.373 124.994C536.327 125.037 538.255 125.465 540.044 126.253C541.834 127.041 543.451 128.174 544.803 129.587C546.155 131 547.214 132.666 547.923 134.489C548.63 136.312 548.973 138.256 548.929 140.211L541.355 481.636C541.312 483.591 540.884 485.519 540.095 487.308C539.307 489.097 538.175 490.714 536.761 492.066C535.348 493.418 533.683 494.478 531.86 495.186C530.037 495.894 528.092 496.236 526.137 496.193L279.712 490.726C277.757 490.682 275.829 490.254 274.039 489.466C272.25 488.678 270.633 487.545 269.282 486.132C267.929 484.719 266.87 483.053 266.161 481.23C265.453 479.408 265.111 477.463 265.155 475.509Z" fill="url(#paint1_linear_84_1912)"/>
<path d="M288.343 106.408C293.97 106.408 298.532 101.846 298.532 96.2187C298.532 90.592 293.97 86.0295 288.343 86.0295C282.716 86.0295 278.154 90.592 278.154 96.2187C278.154 101.846 282.716 106.408 288.343 106.408Z" fill="white"/>
<path d="M367.902 91.4035L312.766 90.1804" stroke="white" stroke-width="4.07881" stroke-miterlimit="10" stroke-linecap="round"/>
<path d="M345.164 102.258L312.766 101.54" stroke="white" stroke-width="4.07881" stroke-miterlimit="10" stroke-linecap="round"/>
<path d="M402.772 250.511C402.772 250.511 402.448 304.922 423.547 310.581C444.646 316.241 445.725 263.613 445.725 263.613" stroke="white" stroke-width="1.35961" stroke-miterlimit="10"/>
<defs>
<linearGradient id="paint0_linear_84_1912" x1="-1212.33" y1="290.809" x2="-1141.78" y2="915.558" gradientUnits="userSpaceOnUse">
<stop stop-color="white"/>
<stop offset="1" stop-color="#94B9FF"/>
</linearGradient>
<linearGradient id="paint1_linear_84_1912" x1="368.361" y1="-81.8028" x2="584.768" y2="1041.89" gradientUnits="userSpaceOnUse">
<stop stop-color="white"/>
<stop offset="1" stop-color="#94B9FF"/>
</linearGradient>
</defs>
</svg>
