<svg width="800" height="800" viewBox="0 0 800 800" fill="none" xmlns="http://www.w3.org/2000/svg">
<path d="M551.667 643.06L509.808 698.708C508.822 700.019 507.356 700.884 505.731 701.114C504.107 701.344 502.458 700.919 501.147 699.932L497.262 697.01L546.557 631.476L550.443 634.399C551.753 635.385 552.619 636.851 552.848 638.476C553.079 640.1 552.653 641.749 551.667 643.06Z" fill="#5661AE"/>
<path d="M512.182 610.471L527.275 622.737L511.941 646.396L494.928 633.408L512.182 610.471Z" fill="#BC775C"/>
<path d="M518.884 616.449L500.086 636.953L495.512 633.345L513.116 611.714L518.884 616.449Z" fill="#93523E" stroke="#93523E" stroke-width="0.825818"/>
<path d="M525.25 621.218C525.25 621.218 521.011 636.122 507.049 643.757L494.438 693.06C494.838 695.89 498 697.707 500.102 698.381C500.564 698.527 501.06 698.525 501.521 698.376C501.981 698.227 502.384 697.939 502.673 697.55L547.42 638.063C548.168 637.07 548.496 635.825 548.334 634.593C548.173 633.361 547.535 632.241 546.557 631.476C542.644 628.41 536.645 623.789 534.047 622.204C530.031 619.752 527.168 619.184 525.25 621.218Z" fill="#1C85E8"/>
<path d="M504.129 653.979L511.305 652.44C511.567 652.384 511.839 652.393 512.097 652.467C512.354 652.54 512.59 652.676 512.784 652.862C512.976 653.048 513.121 653.279 513.203 653.533C513.287 653.789 513.305 654.06 513.259 654.324C513.202 654.648 513.048 654.946 512.818 655.182C512.589 655.416 512.294 655.577 511.972 655.643L503.162 657.421L504.129 653.979Z" fill="white"/>
<path d="M502.437 661.792L509.576 660.236C509.838 660.18 510.11 660.189 510.368 660.263C510.625 660.336 510.861 660.472 511.054 660.657C511.247 660.844 511.391 661.074 511.474 661.33C511.557 661.584 511.576 661.856 511.529 662.12C511.472 662.443 511.318 662.742 511.089 662.977C510.859 663.212 510.564 663.373 510.242 663.438L501.555 665.241L502.437 661.792Z" fill="white"/>
<path d="M500.26 670.297L507.318 668.72C507.579 668.664 507.852 668.673 508.109 668.747C508.367 668.82 508.602 668.956 508.796 669.142C508.989 669.328 509.133 669.559 509.216 669.814C509.299 670.069 509.318 670.34 509.271 670.604C509.214 670.928 509.06 671.227 508.831 671.461C508.602 671.697 508.306 671.858 507.984 671.922L499.4 673.655L500.26 670.297Z" fill="white"/>
<path d="M368.723 545.62L488.192 641.873L515.448 610.111L410.988 512.111L368.723 545.62Z" fill="#1F2D49"/>
<path d="M432.805 532.577V597.248L488.194 641.873L496.149 592.004L432.805 532.577Z" fill="#0D1B33"/>
<path d="M379.325 368.664L359.688 525.262H414.594L462.29 369.449L379.325 368.664Z" fill="#1F2D49"/>
<path d="M426.467 486.467L435.689 408.78H458.362L426.467 486.467Z" fill="#0D1B33"/>
<path d="M475.755 702.267H406.121C404.48 702.267 402.907 701.614 401.747 700.455C400.587 699.294 399.936 697.721 399.936 696.08V691.219H481.94V696.08C481.94 697.721 481.288 699.294 480.128 700.455C478.968 701.614 477.395 702.267 475.755 702.267Z" fill="#5661AE"/>
<path d="M478.061 651.121L477.331 670.556L449.207 672.525L449.358 651.121H478.061Z" fill="#BC775C"/>
<path d="M477.312 660.071L449.627 657.374L449.759 651.55L477.629 652.616L477.312 660.071Z" fill="#93523E" stroke="#93523E" stroke-width="0.825818"/>
<path d="M477.33 668.027C477.33 668.027 462.871 673.598 448.377 667.03L401.395 686.588C399.374 688.609 399.822 692.229 400.547 694.314C400.709 694.771 401.008 695.165 401.404 695.445C401.8 695.723 402.273 695.872 402.757 695.869H477.195C478.437 695.87 479.631 695.383 480.518 694.514C481.405 693.644 481.916 692.462 481.94 691.22C482.038 686.25 482.125 678.678 481.83 675.648C481.376 670.965 480.108 668.336 477.33 668.027Z" fill="#1C85E8"/>
<path d="M438.45 670.842L443.994 675.651C444.196 675.827 444.353 676.05 444.449 676.3C444.546 676.55 444.579 676.82 444.546 677.086C444.514 677.352 444.415 677.606 444.262 677.826C444.108 678.045 443.902 678.224 443.663 678.344C443.371 678.494 443.04 678.551 442.713 678.508C442.387 678.466 442.082 678.327 441.836 678.109L435.119 672.137L438.45 670.842Z" fill="white"/>
<path d="M431.19 674.184L436.726 678.954C436.928 679.129 437.084 679.352 437.181 679.602C437.277 679.852 437.31 680.122 437.277 680.388C437.244 680.654 437.147 680.908 436.993 681.128C436.839 681.347 436.633 681.525 436.395 681.647C436.101 681.795 435.77 681.853 435.445 681.811C435.119 681.769 434.813 681.629 434.568 681.411L427.904 675.551L431.19 674.184Z" fill="white"/>
<path d="M423.085 677.559L428.587 682.251C428.79 682.427 428.946 682.65 429.042 682.9C429.138 683.151 429.172 683.421 429.139 683.687C429.106 683.953 429.008 684.206 428.855 684.426C428.7 684.645 428.496 684.824 428.256 684.945C427.963 685.094 427.633 685.151 427.306 685.109C426.98 685.067 426.675 684.927 426.429 684.709L419.885 678.891L423.085 677.559Z" fill="white"/>
<path d="M495.599 369.45C495.148 377.392 495.148 385.352 495.599 393.293C497.425 418.963 491.588 493.924 491.635 503.788C491.682 513.652 485.185 652.582 485.185 652.582H445.71C445.71 652.582 435.619 533.185 435.386 519.52C435.153 505.856 432.805 370.011 432.805 370.011L495.599 369.45Z" fill="#1F2D49"/>
<path d="M378.137 378.146L495.599 393.293V369.45L378.745 373.292L378.137 378.146Z" fill="#0D1B33"/>
<path d="M387.14 552.716C402.302 552.716 414.593 540.425 414.593 525.263C414.593 510.101 402.302 497.81 387.14 497.81C371.978 497.81 359.688 510.101 359.688 525.263C359.688 540.425 371.978 552.716 387.14 552.716Z" fill="#1F2D49"/>
<path d="M468.847 386.747C468.847 386.747 463.575 396.717 462.288 397.862C461.002 399.005 439.797 401.621 435.689 403.092C431.582 404.562 429.621 406.786 429.621 408.78H479.471C479.471 408.78 480.761 407.577 481.69 403.746C482.62 399.913 484.245 398.288 484.245 398.288L468.847 386.747Z" fill="#BC775C"/>
<path d="M397.199 229.682C400.477 213.497 392.767 213.914 390.202 211.341C390.202 211.341 380.577 203.403 373.242 210.802C365.478 218.629 320.977 279.425 320.977 279.425L348.821 305.035L354.056 298.789L367.613 282.62L382.114 265.337L383.916 263.37L403.478 241.212C403.478 241.212 395.345 238.202 397.199 229.682Z" fill="#5661AE"/>
<path d="M408.842 232.439C412.597 221.233 406.554 209.105 395.348 205.351C384.141 201.598 372.014 207.64 368.26 218.846C364.507 230.053 370.549 242.18 381.755 245.934C392.962 249.688 405.089 243.645 408.842 232.439Z" fill="#5661AE"/>
<path d="M383.66 263.283C384.221 259.899 385.344 253.134 386.552 246.969L392.977 217.125C392.977 217.125 375.723 242.627 367.774 260.39C361.887 273.701 355.057 287.269 353.928 298.745L367.485 282.575L381.987 265.293L383.66 263.283Z" fill="#465393"/>
<path d="M293.162 210.978C286.546 198.91 289.726 196.862 286.911 189.995C284.138 183.295 289.062 166.685 284.348 168.95C279.635 171.215 278.176 177.234 278.176 177.234C274.952 171.531 271.983 161.038 264.267 159.838C256.549 158.637 255.866 161.066 251.492 164.656C239.854 174.337 254.693 188.889 257.171 194.43C258.765 197.904 270.472 208.492 271.77 210.807L277.663 219.355L293.162 210.978Z" fill="#BC775C"/>
<path d="M270.429 177.98L261.025 160.617" stroke="#93523E" stroke-width="0.890496" stroke-linecap="round"/>
<path d="M264.267 180.792L254.018 164.622" stroke="#93523E" stroke-width="0.890496" stroke-linecap="round"/>
<path d="M256.945 183.9L251.088 174.108" stroke="#93523E" stroke-width="0.890496" stroke-linecap="round"/>
<path d="M272.752 193.266C272.802 187.254 276.409 179.979 276.409 179.979" stroke="#93523E" stroke-width="0.890496" stroke-linecap="round"/>
<path d="M349.058 278.941L292.435 203.536C292.075 203.094 291.563 202.8 290.998 202.712C290.433 202.624 289.856 202.748 289.377 203.061L274.551 212.866C273.846 213.344 273.345 214.065 273.143 214.892C272.941 215.719 273.053 216.592 273.459 217.34L318.993 301.313L349.058 278.941Z" fill="#5661AE"/>
<path d="M335.301 310.789C345.773 310.789 354.262 302.299 354.262 291.827C354.262 281.355 345.773 272.866 335.301 272.866C324.828 272.866 316.34 281.355 316.34 291.827C316.34 302.299 324.828 310.789 335.301 310.789Z" fill="#5661AE"/>
<path d="M414.527 194.295C414.527 194.295 386.881 203.088 381.427 205.37C375.972 207.652 375.609 216.779 375.246 223.243C374.99 227.773 380.103 302.151 380.439 345.227C380.511 354.43 378.795 360.269 377.693 365.384C376.591 370.499 377.693 373.283 377.693 373.283L496.149 374.342C496.149 374.342 492.598 224.673 491.871 219.35C491.143 214.026 496.858 209.441 490.663 206.761L445.431 194.295H414.527Z" fill="white"/>
<path d="M399.66 199.095C399.66 199.095 404.174 219.741 407.131 236.264C410.088 252.787 410.988 389.572 410.988 389.572C410.988 389.572 376.374 382.842 371.685 374.891C366.997 366.938 376.028 331.209 376.731 298.745C377.434 266.282 370.6 215.901 377.775 207.161C377.775 207.161 379.616 205.338 399.66 199.095Z" fill="#5661AE"/>
<path d="M457.837 197.769C457.837 197.769 441.413 231.987 442.418 242.416C443.422 252.846 443.479 341.787 442.418 360.356C441.758 371.653 440.037 382.862 437.277 393.836C437.277 393.836 482.081 397.009 499.395 391.59C499.395 391.59 507.613 339.847 502.219 321.363C496.824 302.879 492.703 206.811 492.703 206.811L457.837 197.769Z" fill="#5661AE"/>
<path d="M469.955 243.752C469.955 243.752 471.638 305.766 471.288 326.437C471.07 339.319 456.343 344.774 456.299 352.232C456.273 356.644 467.928 351.479 471.07 356.041C474.212 360.601 468.841 374.89 468.841 374.89L496.148 374.341L507.085 321.267L484.041 240.56L469.955 243.752Z" fill="#465393"/>
<path d="M415.093 180.472L412.529 209.373C412.529 209.373 411.844 213.862 419.642 215.283C425.833 216.41 438.698 209.135 441.602 206.739C448.056 201.412 448.654 198.189 447.971 195.721C446.994 192.184 443.8 167.26 443.8 167.26L415.093 180.472Z" fill="#BC775C"/>
<path d="M413.408 204.123L414.988 186.31L428.749 179.512L413.408 204.123Z" fill="#93523E" stroke="#93523E" stroke-width="0.825818"/>
<path d="M399.796 125.772C399.796 125.772 394.524 149.385 393.822 165.466C393.115 181.691 398.913 184.78 406.101 185.992C411.77 186.947 420.589 187.017 426.134 184.248C436.246 179.198 452.848 166.943 455.02 164.564C458.385 160.883 458.153 144.463 445.305 140.402C435.96 137.449 412.131 112.373 399.796 125.772Z" fill="#BC775C"/>
<path d="M399.847 128.289C407.513 131.294 421.942 129.319 429.867 131.892C437.782 134.472 430.58 137.194 430.925 144.84C431.147 149.792 431.524 159.256 434.563 159.131C437.602 159.006 439.392 148.258 445.801 148.668C452.209 149.085 455.231 151.822 455.091 155.921C454.952 160.012 450.346 163.577 446.714 165.47C442.166 167.825 440.289 166.838 440.289 166.838C440.289 166.838 445.407 185.682 446.18 184.936C446.18 184.936 451.701 181.821 452.697 176.365C452.697 176.365 460.023 174.778 458.401 167.451C458.401 167.451 462.964 165.987 460.799 161.744C460.799 161.744 472.591 153.815 466.445 144.111C466.445 144.111 472.041 138.532 465.357 136.174C465.357 136.174 474.208 123.24 461.617 120.482C461.617 120.482 462.461 114.394 456.698 114.626C456.698 114.626 454.178 104.154 441.6 108.284C441.541 106.187 440.848 104.158 439.614 102.461C438.38 100.765 436.663 99.481 434.686 98.7782C427.562 95.9102 422.926 99.8576 422.926 99.8576C422.926 99.8576 415.45 93.7597 411.513 102.7C411.513 102.7 405.859 99.8097 401.62 102.881C397.374 105.942 399.438 112.36 399.438 112.36C399.438 112.36 394.586 111.222 392.816 115.241C390.315 120.895 393.827 122.956 393.827 122.956C393.827 122.956 385.928 132.294 397.036 141.139L399.847 128.289Z" fill="#493212"/>
<path d="M419.143 151.601C419.56 149.691 418.883 147.922 417.632 147.648C416.381 147.375 415.028 148.702 414.611 150.611C414.194 152.521 414.871 154.29 416.122 154.564C417.373 154.837 418.725 153.511 419.143 151.601Z" fill="#080B09"/>
<path d="M401.928 147.722C402.345 145.813 401.669 144.043 400.417 143.77C399.166 143.497 397.814 144.823 397.397 146.733C396.98 148.642 397.656 150.412 398.907 150.685C400.158 150.959 401.511 149.633 401.928 147.722Z" fill="#080B09"/>
<path d="M405.329 152.794C405.329 152.794 407.466 156.912 404.378 156.974C401.426 156.933 399.707 158.665 402.684 161.175" stroke="#93523E" stroke-width="0.890496" stroke-linecap="round"/>
<path d="M403.142 164.981L403.155 164.983L403.168 164.984C404.999 165.116 408.655 165.378 411.085 165.594H411.089C411.16 165.6 411.228 165.625 411.286 165.666C411.344 165.708 411.389 165.764 411.417 165.83C411.445 165.895 411.454 165.967 411.444 166.037C411.434 166.105 411.407 166.17 411.364 166.223C410.83 166.812 410.126 167.512 409.344 168.116C408.554 168.726 407.71 169.217 406.899 169.413C406.105 169.603 405.356 169.51 404.685 168.972C403.995 168.418 403.334 167.35 402.841 165.471L402.833 165.439L402.82 165.408C402.797 165.359 402.789 165.304 402.795 165.25C402.801 165.195 402.822 165.144 402.855 165.1C402.887 165.056 402.931 165.022 402.981 165.002C403.032 164.98 403.087 164.974 403.142 164.981Z" fill="#93523E" stroke="#93523E" stroke-width="0.825818"/>
<path d="M425.137 145.308L424.966 145.654C424.76 146.18 424.355 146.603 423.838 146.831C423.322 147.059 422.736 147.074 422.209 146.872L413.238 143.159C412.797 142.997 412.432 142.675 412.217 142.257C412.001 141.839 411.95 141.355 412.075 140.902C412.137 140.62 412.259 140.355 412.432 140.125C412.605 139.894 412.825 139.703 413.077 139.563C413.329 139.424 413.608 139.339 413.896 139.316C414.183 139.292 414.472 139.329 414.745 139.425L423.886 142.793C424.136 142.872 424.368 143 424.567 143.171C424.766 143.342 424.929 143.55 425.046 143.785C425.162 144.02 425.231 144.276 425.246 144.537C425.262 144.799 425.225 145.061 425.137 145.308Z" fill="#080B09"/>
<path d="M394.87 136.956L404.59 136.3C404.878 136.284 405.165 136.33 405.435 136.434C405.704 136.538 405.948 136.697 406.151 136.902C406.354 137.107 406.511 137.353 406.611 137.623C406.712 137.893 406.754 138.181 406.735 138.47C406.727 138.939 406.542 139.39 406.218 139.73C405.893 140.07 405.452 140.276 404.983 140.307L395.33 141.342C394.767 141.387 394.209 141.209 393.777 140.844C393.346 140.48 393.076 139.959 393.028 139.397L392.96 139.017C392.946 138.755 392.984 138.493 393.073 138.247C393.161 138 393.299 137.773 393.478 137.581C393.656 137.389 393.871 137.234 394.11 137.127C394.349 137.019 394.607 136.962 394.87 136.956Z" fill="#080B09"/>
<path d="M493.592 221.682C481.392 210.554 477.789 217.383 474.262 218.262C474.262 218.262 462.508 222.441 465.087 232.535C467.813 243.217 497.107 312.632 497.107 312.632L534.071 303.882L530.715 294.202L523.808 274.262L516.432 252.942L515.67 250.385L506.711 222.219C506.711 222.219 499.95 227.65 493.592 221.682Z" fill="#5661AE"/>
<path d="M499.601 243.28C508.578 235.594 509.626 222.085 501.941 213.108C494.255 204.13 480.746 203.083 471.768 210.768C462.79 218.454 461.743 231.963 469.429 240.941C477.114 249.919 490.623 250.966 499.601 243.28Z" fill="#5661AE"/>
<path d="M496.822 302.877L464.131 391.326C463.954 391.869 463.985 392.459 464.217 392.981C464.449 393.503 464.866 393.921 465.388 394.153L481.663 401.301C482.446 401.634 483.326 401.665 484.129 401.387C484.933 401.108 485.606 400.541 486.015 399.795L531.917 316.022L496.822 302.877Z" fill="#5661AE"/>
<path d="M515.11 326.419C525.582 326.419 534.071 317.93 534.071 307.457C534.071 296.985 525.582 288.497 515.11 288.497C504.638 288.497 496.148 296.985 496.148 307.457C496.148 317.93 504.638 326.419 515.11 326.419Z" fill="#5661AE"/>
</svg>
