<svg width="800" height="800" viewBox="0 0 800 800" fill="none" xmlns="http://www.w3.org/2000/svg">
<path d="M463.51 260.099C474.52 247.935 471.399 244.679 476.562 237.495C481.631 230.493 480.514 209.871 485.354 213.801C490.194 217.73 490.22 225.114 490.22 225.114C495.535 219.392 501.88 208.046 511.161 208.787C520.442 209.53 520.563 212.535 524.642 217.907C535.458 232.352 514.227 245.122 509.823 250.863C507.013 254.45 490.509 263.491 488.364 265.815L479.167 274.099L463.51 260.099Z" fill="#FFCCB3"/>
<path d="M498.996 228.123L514.702 210.591" stroke="#EF6A77" stroke-width="1.06157" stroke-linecap="round"/>
<path d="M505.365 233.087L521.722 217.172" stroke="#EF6A77" stroke-width="1.06157" stroke-linecap="round"/>
<path d="M512.994 238.716L522.495 228.981" stroke="#EF6A77" stroke-width="1.06157" stroke-linecap="round"/>
<path d="M298.592 358.517L291.83 382.795L327.124 372.771L331.714 358.517H298.592Z" fill="#5CA4E6"/>
<path fill-rule="evenodd" clip-rule="evenodd" d="M553.994 672.367C541.298 667.881 528.212 663.256 516.149 664.114C515.877 664.132 515.612 664.209 515.373 664.339C515.134 664.47 514.926 664.651 514.764 664.871C514.601 665.09 514.489 665.342 514.434 665.608C514.378 665.875 514.382 666.151 514.444 666.417L519.495 687.758C519.6 688.198 519.858 688.585 520.226 688.848C520.593 689.11 521.043 689.232 521.493 689.188L603.51 681.268C609.558 680.683 612.475 677.103 612.909 672.167C612.921 671.998 612.884 671.828 612.801 671.68C612.719 671.531 612.596 671.409 612.446 671.328C612.297 671.248 612.127 671.212 611.958 671.226C611.789 671.239 611.627 671.301 611.491 671.403C602.442 678.191 591.095 681.167 579.879 679.694C571.781 678.653 562.986 675.545 553.994 672.367Z" fill="#5661AE"/>
<path fill-rule="evenodd" clip-rule="evenodd" d="M509.623 610.79C509.623 610.79 518.085 644.327 518.322 647.926C518.341 649.926 518.215 651.924 517.942 653.905C517.564 657.467 517.143 661.435 517.775 664.037C529.382 663.677 541.865 668.087 553.992 672.371C562.984 675.546 571.778 678.653 579.875 679.695C590.551 681.095 601.364 678.471 610.211 672.333C609.841 666.209 604.033 661.046 593.318 661.151C574.114 661.337 563.486 660.992 552.892 648.06C545.363 638.872 541.73 600.109 541.73 600.109L509.623 610.79Z" fill="#FFCCB3"/>
<path fill-rule="evenodd" clip-rule="evenodd" d="M550.444 642.705C546.906 643.534 532.828 646.766 519.093 649.002C516.424 649.437 515.577 654.949 517.595 657.688C518.985 659.714 520.21 661.847 521.257 664.07C526.042 664.352 530.785 665.13 535.41 666.389C532.971 661.161 535.58 657.74 540.61 656.502C544.583 655.526 554.17 655.359 559.133 655.343C559.406 655.341 559.671 655.262 559.901 655.113C560.13 654.965 560.311 654.756 560.426 654.508C560.539 654.26 560.578 653.984 560.541 653.714C560.502 653.444 560.388 653.19 560.21 652.984L551.857 643.172C551.687 642.972 551.466 642.822 551.217 642.739C550.967 642.658 550.7 642.646 550.444 642.705Z" fill="white"/>
<path fill-rule="evenodd" clip-rule="evenodd" d="M600.676 677.319C591.892 680.72 585.75 680.014 585.75 680.014L583.877 660.616L598.989 659.858L600.676 677.319Z" fill="white"/>
<path d="M501.634 475.481C516.202 471.111 524.468 455.759 520.099 441.191C515.73 426.624 500.378 418.356 485.81 422.725C471.242 427.095 462.975 442.447 467.344 457.015C471.714 471.582 487.066 479.85 501.634 475.481Z" fill="#FFCCB3"/>
<path d="M501.871 422.794L456.219 407.167L434.971 464.411L494.029 474.693L501.871 422.794Z" fill="#FFCCB3"/>
<path d="M521.021 445.446L544.196 618.633L514.133 629.034L468.688 464.598L521.021 445.446Z" fill="#FFCCB3"/>
<path fill-rule="evenodd" clip-rule="evenodd" d="M425.824 684.372C413.831 678.251 401.471 671.942 389.4 671.2C389.127 671.183 388.855 671.224 388.601 671.321C388.347 671.42 388.116 671.571 387.926 671.767C387.737 671.963 387.592 672.198 387.502 672.455C387.411 672.712 387.379 672.986 387.405 673.258L389.598 695.079C389.643 695.528 389.849 695.947 390.179 696.256C390.508 696.565 390.938 696.744 391.39 696.76L473.735 699.726C479.806 699.945 483.171 696.78 484.252 691.945C484.286 691.779 484.271 691.606 484.21 691.448C484.148 691.289 484.042 691.152 483.905 691.053C483.767 690.953 483.603 690.895 483.434 690.886C483.264 690.877 483.095 690.916 482.948 691.001C473.081 696.535 461.441 697.989 450.518 695.05C442.628 692.949 434.319 688.708 425.824 684.372Z" fill="#5661AE"/>
<path fill-rule="evenodd" clip-rule="evenodd" d="M389.969 617.484C389.969 617.484 393.932 651.843 393.693 655.443C393.45 657.427 393.06 659.391 392.528 661.319C391.684 664.8 390.744 668.678 391.027 671.341C402.58 672.514 414.373 678.532 425.828 684.378C434.322 688.712 442.63 692.952 450.519 695.052C460.916 697.847 471.982 696.673 481.56 691.756C482.001 685.635 476.926 679.753 466.29 678.443C447.23 676.095 436.74 674.351 427.944 660.136C421.693 650.034 423.204 611.13 423.204 611.13L389.969 617.484Z" fill="#FCBA9F"/>
<path fill-rule="evenodd" clip-rule="evenodd" d="M426.22 654.503C422.603 654.857 408.222 656.204 394.311 656.61C391.609 656.688 390.043 662.041 391.682 665.022C392.793 667.213 393.725 669.49 394.47 671.83C399.175 672.742 403.775 674.139 408.193 675.997C406.465 670.493 409.502 667.445 414.651 666.883C418.719 666.439 428.244 667.538 433.165 668.175C433.436 668.21 433.71 668.166 433.958 668.05C434.204 667.934 434.411 667.749 434.557 667.518C434.702 667.287 434.778 667.019 434.776 666.747C434.774 666.474 434.694 666.208 434.545 665.98L427.559 655.152C427.417 654.93 427.217 654.753 426.981 654.639C426.744 654.525 426.482 654.477 426.22 654.503Z" fill="white"/>
<path fill-rule="evenodd" clip-rule="evenodd" d="M471.449 695.44C462.294 697.653 456.299 696.143 456.299 696.143L457 676.668L472.081 677.91L471.449 695.44Z" fill="white"/>
<path d="M399.892 482.301C414.909 479.891 425.129 465.764 422.719 450.747C420.309 435.73 406.182 425.51 391.165 427.92C376.148 430.33 365.928 444.457 368.338 459.474C370.748 474.491 384.875 484.711 399.892 482.301Z" stroke="#5CA4E6" stroke-width="1.07986" stroke-miterlimit="10"/>
<path d="M423.072 455.086L423.203 629.817L392.032 636.163L368.67 467.17L423.072 455.086Z" fill="#FCBA9F"/>
<path d="M341.469 391.291C341.469 391.291 333.088 432.305 344.071 449.445C357.973 471.138 374.977 474.46 387.542 474.694L455.434 468.839C455.434 468.839 454.984 429.804 480.128 415.221C480.128 415.221 377.076 377.187 341.469 391.291Z" fill="#5661AE"/>
<path d="M315.337 182.046L309.944 209.588L278.732 207.469L284.712 178.193L315.337 182.046Z" fill="#FFCCB3"/>
<path d="M315.021 183.649L312.402 197.029C312.402 197.029 305.229 190.916 303.844 181.374L315.021 183.649Z" fill="#FCBA9F"/>
<path d="M269.107 215.301C269.107 215.301 276.215 196.753 280.457 199.005C290.54 204.359 305.268 203.367 311.788 200.149C315.695 198.222 315.844 215.301 315.844 215.301H269.107Z" fill="#FEBB94"/>
<path d="M269.109 215.301L239.158 219.314C238.336 219.424 237.588 219.85 237.076 220.502C236.564 221.155 236.325 221.981 236.412 222.806L257.323 421.191L364.63 410.659L351.35 221.877L315.846 215.301H269.109Z" fill="#FEBB94"/>
<path d="M345.468 271.829L337.098 256.606L339.157 271.829H345.468Z" fill="#FF967C"/>
<path d="M349.49 221.533C360.806 223.269 370.291 230.809 373.46 237.397L401.452 301.164L470.19 246.192L489.73 266.774L427.942 343.111C415.516 359.476 394.023 366.21 379.384 344.869L355.995 308.133L349.49 221.533Z" fill="#FEBB94"/>
<path d="M401.449 301.167L409.27 316.54L415.222 290.15L401.449 301.167Z" fill="#FF967C"/>
<path d="M239.387 219.284C239.387 219.284 231.304 219.14 224.509 231.031C217.714 242.922 190.195 314.95 190.195 314.95C190.195 314.95 177.623 342.13 203.105 343.149H256.445L239.387 219.284Z" fill="#FEBB94"/>
<path d="M245.403 271.829L243.17 261.854L237.551 271.829H245.403Z" fill="#FF967C"/>
<path d="M386.516 474.623H270.024C266.355 474.623 262.809 473.3 260.037 470.896C257.266 468.492 255.454 465.169 254.935 461.538L230.317 289.226C230.008 287.065 230.168 284.862 230.784 282.767C231.4 280.672 232.461 278.734 233.891 277.084C235.321 275.434 237.091 274.111 239.077 273.205C241.064 272.298 243.222 271.828 245.405 271.828H361.898C365.567 271.828 369.112 273.152 371.884 275.557C374.656 277.96 376.467 281.283 376.986 284.915L401.605 457.226C401.914 459.388 401.754 461.591 401.138 463.686C400.521 465.781 399.461 467.718 398.031 469.368C396.599 471.018 394.831 472.341 392.845 473.248C390.858 474.155 388.7 474.623 386.516 474.623Z" fill="#5CA4E6"/>
<path d="M378.664 474.624H467.877C468.643 474.624 469.395 474.423 470.058 474.038C470.72 473.653 471.27 473.1 471.649 472.435C472.029 471.769 472.226 471.015 472.221 470.249C472.215 469.484 472.007 468.732 471.617 468.073C471.314 467.558 470.906 467.111 470.421 466.761C469.937 466.41 469.384 466.163 468.8 466.036L396.58 450.337L378.664 474.624Z" fill="#5CA4E6"/>
<path d="M378.665 474.623H262.172C258.503 474.623 254.958 473.3 252.186 470.896C249.415 468.492 247.603 465.169 247.084 461.538L222.466 289.226C222.157 287.065 222.316 284.862 222.933 282.767C223.55 280.672 224.609 278.734 226.039 277.084C227.471 275.434 229.239 274.111 231.226 273.205C233.212 272.298 235.371 271.828 237.555 271.828H354.047C357.716 271.828 361.262 273.152 364.033 275.557C366.805 277.96 368.617 281.283 369.135 284.915L393.753 457.226C394.062 459.388 393.903 461.591 393.286 463.686C392.67 465.781 391.61 467.718 390.179 469.368C388.749 471.018 386.98 472.341 384.993 473.248C383.007 474.155 380.849 474.623 378.665 474.623Z" fill="url(#paint0_linear_84_2010)"/>
<path d="M299.225 474.623H384.149C384.149 483.992 380.428 492.978 373.803 499.604C367.177 506.228 358.192 509.95 348.823 509.95H334.552C325.183 509.95 316.197 506.228 309.572 499.604C302.947 492.978 299.225 483.992 299.225 474.623Z" fill="#E7EFFF"/>
<path d="M343.572 509.951H339.801V679.762H343.572V509.951Z" fill="#5CA4E6"/>
<path d="M339.8 679.762L288.035 696.537H394.533L343.571 679.762H339.8Z" fill="#5CA4E6"/>
<path d="M316.752 123.659C316.752 123.659 329.139 146.01 333.435 155.234C337.731 164.458 339.2 174.407 332.046 178.988C322.31 185.221 311.538 183.836 299.929 182.539C289.88 181.416 277.288 153.138 278.83 146.197C280.373 139.254 297.85 111.407 316.752 123.659Z" fill="#FFCCB3"/>
<path d="M325.987 149.276C326.888 148.547 326.749 146.878 325.674 145.549C324.599 144.219 322.997 143.733 322.095 144.462C321.192 145.192 321.333 146.86 322.407 148.189C323.482 149.518 325.085 150.006 325.987 149.276Z" fill="#080B09"/>
<path d="M312.643 145.878L322.094 139.157C321.863 138.889 321.579 138.672 321.259 138.521C320.94 138.37 320.593 138.287 320.239 138.279C319.886 138.27 319.535 138.336 319.208 138.471C318.882 138.605 318.587 138.808 318.344 139.064L312.083 145.412C311.86 145.591 312.309 146.147 312.643 145.878Z" fill="#080B09"/>
<path d="M331.648 163.15C330.379 163.939 328.915 164.357 327.421 164.357C325.926 164.357 324.462 163.939 323.193 163.15" stroke="#EF6A77" stroke-width="0.984465" stroke-miterlimit="10" stroke-linecap="round"/>
<path d="M307.87 137.063L328.108 126.829C328.108 126.829 320.768 102.958 293.884 100.463C274.16 98.6339 255.827 109.507 248.723 126.496C241.618 143.485 247.694 171.474 265.712 178.193C280.952 183.878 280.462 199.005 280.462 199.005L302.778 169.74C302.778 169.74 287.338 162.229 291.041 153.06C296.06 140.631 308.672 154.999 308.672 154.999L300.138 130.161L307.87 137.063Z" fill="#1F2D49"/>
<path d="M329.255 146.87C329.255 146.87 332.63 151.268 334.673 152.117C336.715 152.964 334.887 156.089 333.526 156.523C332.166 156.957 328.479 148.947 329.255 146.87Z" fill="#FFCCB3"/>
<path d="M245.823 170.849C259.066 170.849 269.803 160.112 269.803 146.869C269.803 133.626 259.066 122.89 245.823 122.89C232.579 122.89 221.844 133.626 221.844 146.869C221.844 160.112 232.579 170.849 245.823 170.849Z" fill="#0D1B33"/>
<path d="M243.173 171.903C256.417 171.903 267.153 161.167 267.153 147.923C267.153 134.68 256.417 123.944 243.173 123.944C229.93 123.944 219.193 134.68 219.193 147.923C219.193 161.167 229.93 171.903 243.173 171.903Z" fill="#1F2D49"/>
<defs>
<linearGradient id="paint0_linear_84_2010" x1="303.838" y1="271.347" x2="358.677" y2="699.342" gradientUnits="userSpaceOnUse">
<stop stop-color="white"/>
<stop offset="1" stop-color="#94B9FF"/>
</linearGradient>
</defs>
</svg>
