<svg width="800" height="800" viewBox="0 0 800 800" fill="none" xmlns="http://www.w3.org/2000/svg">
<path opacity="0.6" d="M303.625 435.19H313.937" stroke="white" stroke-width="5.74589" stroke-miterlimit="10" stroke-linecap="round"/>
<path d="M569.999 615.025C569.786 615.047 569.691 615.165 569.809 615.26C569.714 615.377 569.714 615.377 569.738 615.589C569.291 617.049 568.976 618.546 568.795 620.062L586.954 634.655L588.963 632.396C588.963 632.396 582.262 624.106 579.745 621.695C578.662 620.631 577.697 619.663 576.733 618.694C575.886 617.82 575.135 616.828 574.405 616.048C573.394 614.655 570.446 615.19 570.423 614.978C570.305 614.884 569.999 615.025 569.999 615.025Z" fill="#233B62"/>
<path d="M432.706 488.22L450.233 505.213L548.27 599.885L550.059 601.516L550.834 602.721L550.952 602.814L564.839 623.854L566.39 626.262L566.906 627.065L576.305 641.398L568.564 645.248L566.321 646.351L563.159 647.876L558.178 650.458L558.083 650.575L552.796 653.299L552.538 652.898L540.469 629.834C538.128 625.38 534.846 621.488 530.852 618.425L424.25 536.82L403.984 521.307L432.706 488.22Z" fill="#FFCCB3"/>
<path d="M563.494 603.597C558.795 601.416 553.52 599.464 548.365 599.767C551.474 602.49 552.889 607.334 554.942 610.864C559.168 618.132 570 631.638 564.466 643.116C561.357 649.566 552.655 652.992 552.538 652.898C551.082 659.521 543.865 686.483 558.25 670.854C566.283 662.126 574.252 652.802 578.259 643.548C579.902 639.754 576.427 635.968 574.723 632.765C572.541 627.917 569.278 621.497 569.69 616.132L569.785 616.014C570.021 615.642 588.648 632.318 588.964 632.396C589.603 631.359 591.093 629.265 591.093 629.265C591.093 629.265 564.389 603.929 563.494 603.597Z" fill="#1C85E8"/>
<path d="M362.899 691.793C362.731 691.661 362.581 691.679 362.599 691.83C362.45 691.848 362.45 691.848 362.317 692.016C360.978 692.746 359.705 693.596 358.516 694.552L361.291 717.683L364.307 717.474C364.307 717.474 365.315 706.861 365.201 703.378C365.171 701.861 365.159 700.494 365.147 699.127C365.153 697.91 365.309 696.674 365.333 695.607C365.585 693.904 363.103 692.225 363.235 692.058C363.217 691.907 362.899 691.793 362.899 691.793Z" fill="#233B62"/>
<path d="M353.434 505.143L354.081 529.547L357.954 665.779L358.093 668.195L357.805 669.598L357.823 669.747L353.037 694.498L352.462 697.304L352.27 698.239L348.966 715.057L340.739 712.395L338.365 711.615L335.038 710.494L329.671 708.857L329.522 708.876L323.837 707.124L323.934 706.657L331.435 681.732C332.877 676.91 333.253 671.832 332.538 666.85L313.405 533.97L309.766 508.709L353.434 505.143Z" fill="#FFCCB3"/>
<path d="M366.238 679.076C364.405 674.231 361.999 669.147 358.102 665.76C358.42 669.879 356.045 674.332 355.043 678.291C352.982 686.441 351.28 703.671 339.297 708.006C332.564 710.441 323.948 706.806 323.93 706.656C318.258 710.373 294.245 724.599 315.457 723.486C327.303 722.865 339.52 721.773 348.855 717.96C352.682 716.397 352.846 711.261 353.867 707.779C355.698 702.788 357.855 695.917 361.902 692.369L362.052 692.351C362.481 692.251 364.134 717.196 364.305 717.474C365.487 717.18 368.017 716.725 368.017 716.725C368.017 716.725 366.645 679.94 366.238 679.076Z" fill="#1C85E8"/>
<path d="M327.02 322.046L292.364 468.393L292.301 478.783L320.481 652.073L365.351 647.216L352.335 481.714L388.033 395.362L380.816 324.548L327.02 322.046Z" fill="#1F2D49"/>
<path d="M322.167 503.94C338.903 503.94 352.471 490.372 352.471 473.636C352.471 456.899 338.903 443.332 322.167 443.332C305.43 443.332 291.863 456.899 291.863 473.636C291.863 490.372 305.43 503.94 322.167 503.94Z" fill="#1F2D49"/>
<path d="M363.708 454.203L355.161 381.896L352.334 481.715L363.708 454.203Z" fill="#0D1B33"/>
<path d="M420.568 321.591C420.568 321.591 436.727 348.735 436.939 371.469C437.257 405.588 424.96 466.764 424.96 466.764L532.389 575.359L506.818 613.711C506.818 613.711 415.14 537.643 376.35 501.513L367.661 483.921L355.162 381.897L374.267 321.591H420.568Z" fill="#1F2D49"/>
<path d="M327.019 322.046L421.123 323.013L430.267 341.938L325.43 328.762L327.019 322.046Z" fill="#0D1B33"/>
<path d="M397.692 510.306C414.428 510.306 427.996 496.739 427.996 480.003C427.996 463.267 414.428 449.699 397.692 449.699C380.956 449.699 367.389 463.267 367.389 480.003C367.389 496.739 380.956 510.306 397.692 510.306Z" fill="#1F2D49"/>
<path d="M316.035 120.941C316.035 120.941 317.299 135.008 313.587 148.529C309.875 162.051 281.772 190.686 306.694 214.017C331.616 237.349 362.106 174.778 362.106 174.778L352.561 145.879L319.555 111.538L316.035 120.941Z" fill="#1F2D49"/>
<path d="M392.074 124.225C392.074 124.225 399.554 133.728 416.591 141.494C433.314 149.117 451.324 161.644 447.612 188.952C443.9 216.261 394.466 195.05 379.943 179.407C365.421 163.765 367.419 135.836 367.419 135.836L392.074 124.225Z" fill="#1F2D49"/>
<path d="M353.842 175.395C353.842 175.395 334.872 182.901 331.975 185.218C329.079 187.535 326.328 206.445 321.404 215.424C316.481 224.403 309.278 240.975 319.798 256.197C330.319 271.419 329.2 283.507 329.2 283.507L326.961 321.692L417.632 323.364C418.43 323.388 419.225 323.244 419.963 322.938C420.702 322.634 421.366 322.176 421.914 321.595C422.463 321.013 422.881 320.322 423.142 319.567C423.403 318.813 423.501 318.011 423.429 317.215C422.422 306.083 417.819 290.447 417.458 272.72C416.968 248.694 416.601 168.416 416.601 168.416L377.103 167.177C369.147 168.548 353.842 175.395 353.842 175.395Z" fill="#FEBB94"/>
<path d="M401.055 201.231C401.055 201.231 387.841 213.279 387.063 222.218C386.287 231.156 384.489 256.079 367.508 258.565C346.693 261.612 341.245 264.579 350.894 266.911C360.543 269.243 382.442 265.465 382.442 275.461C382.442 282.575 390.95 287.898 395.225 284.011C399.5 280.125 433.551 221.052 401.055 201.231Z" fill="#FF967C"/>
<path d="M241.692 211.33L234.529 202.161C233.03 200.014 231.035 198.26 228.715 197.047C225.19 195.283 219.786 191.99 217.908 188.699C214.796 183.468 202.53 169.341 213.17 158.359C217.108 154.306 216.124 155.264 223.997 155.386C231.87 155.507 233.078 163.676 237.012 169.025C237.012 169.025 237.896 162.856 242.245 160.038C246.594 157.22 243.708 174.433 247.054 180.956C250.399 187.48 247.696 189.947 255.622 201.407L241.692 211.33Z" fill="#FFCCB3"/>
<path d="M222.799 156.328L229.197 170.843L222.799 156.328Z" fill="#E56441"/>
<path d="M222.799 156.328L229.197 170.843" stroke="#E56441" stroke-width="0.906567" stroke-linecap="round"/>
<path d="M214.453 158.908L223.318 174.365L214.453 158.908Z" fill="#E56441"/>
<path d="M214.453 158.908L223.318 174.365" stroke="#E56441" stroke-width="0.906567" stroke-linecap="round"/>
<path d="M209.223 169.072L216.211 178.299L209.223 169.072Z" fill="#E56441"/>
<path d="M209.223 169.072L216.211 178.299" stroke="#E56441" stroke-width="0.906567" stroke-linecap="round"/>
<path d="M235.368 172.314C235.368 172.314 232.66 180.069 233.129 186.179L235.368 172.314Z" fill="#E56441"/>
<path d="M235.368 172.314C235.368 172.314 232.66 180.069 233.129 186.179" stroke="#E56441" stroke-width="0.906567" stroke-linecap="round"/>
<path d="M336.584 182.72C329.229 185.269 318.977 190.44 316.202 196.208L291.689 252.051L250.866 190.021L235.406 206.303L273.531 285.158C280.498 302.497 298.195 309.012 311.014 290.323L331.497 258.154L336.584 182.72Z" fill="#FEBB94"/>
<path d="M326.13 230.79C326.13 230.79 323.92 226.976 323.92 246.878L311.016 290.322L331.497 258.152C347.928 236.061 334.947 230.16 326.13 230.79Z" fill="#FF967C"/>
<path d="M371.071 204.443L303.357 231.414C301.253 232.252 300.228 234.637 301.066 236.741L334.957 321.826C335.795 323.929 338.179 324.956 340.283 324.118L407.997 297.147C410.101 296.308 411.126 293.924 410.288 291.82L376.397 206.734C375.559 204.631 373.175 203.605 371.071 204.443Z" fill="#1C85E8"/>
<path d="M313.691 239.418L341.614 228.296" stroke="white" stroke-width="3.83059" stroke-miterlimit="10" stroke-linecap="round"/>
<path d="M317.906 249.413L330.633 244.344" stroke="white" stroke-width="3.83059" stroke-miterlimit="10" stroke-linecap="round"/>
<path d="M351.441 155.394L352.507 185.242C352.507 185.242 351.048 191.778 357.755 191.053C364.463 190.328 373.495 185.046 378.572 179.244C383.648 173.442 383.301 172.977 381.126 169.17C378.95 165.363 368.736 136.346 368.736 136.346L351.441 155.394Z" fill="#FFCCB3"/>
<path d="M351.592 157.896L363.961 150.02C363.961 150.02 358.48 174.073 352.505 185.241L351.592 157.896Z" fill="#FCBA9F"/>
<path d="M318.242 110.724C318.242 110.724 318.045 140.43 330.861 155.379C339.22 165.128 348.012 163.836 362.678 147.786C376.125 133.07 378.011 125.399 378.011 125.399L368.726 96.256C368.726 96.256 319.753 83.6898 318.242 110.724Z" fill="#FFCCB3"/>
<path d="M330.996 103.833C330.996 103.833 336.364 116.871 346.334 120.514C356.304 124.156 358.912 130.93 358.912 130.93C358.912 130.93 360.824 119.784 368.66 120.189C376.495 120.595 374.903 134.428 370.04 139.021C370.04 139.021 375.89 149.871 380.851 157.897L402.577 136.335C402.577 136.335 391.383 123.394 388.922 112.982C386.46 102.569 378.495 74.693 348.127 76.5394C312.472 78.7075 314.52 107.68 316.034 123.772C316.034 123.772 327.215 119.486 330.996 103.833Z" fill="#1F2D49"/>
<path d="M334.857 146.194L343.524 141.942C343.532 141.992 343.539 142.043 343.546 142.098C343.606 142.553 343.632 143.178 343.508 143.865C343.265 145.209 342.437 146.839 339.974 147.899C338.393 148.412 337.045 147.905 336.055 147.233C335.559 146.896 335.164 146.522 334.893 146.232C334.88 146.219 334.869 146.206 334.857 146.194Z" fill="#E56441" stroke="#E56441" stroke-width="0.957648"/>
<path d="M325.415 134.13C326.511 133.86 327.076 132.332 326.677 130.717C326.279 129.102 325.067 128.013 323.972 128.284C322.876 128.555 322.311 130.082 322.71 131.697C323.109 133.311 324.32 134.4 325.415 134.13Z" fill="#080B09"/>
<path d="M341.655 130.365C342.751 130.094 343.316 128.566 342.917 126.952C342.518 125.337 341.308 124.247 340.212 124.518C339.117 124.788 338.552 126.317 338.95 127.93C339.348 129.545 340.56 130.635 341.655 130.365Z" fill="#080B09"/>
<path d="M319.112 125.423L327.377 123.526C327.515 123.482 327.632 123.389 327.707 123.266C327.782 123.142 327.809 122.996 327.784 122.853C327.692 122.61 327.553 122.387 327.373 122.201C327.193 122.013 326.976 121.864 326.737 121.762C326.498 121.661 326.241 121.609 325.981 121.61C325.721 121.61 325.464 121.664 325.225 121.766L318.744 124.512C318.204 124.646 318.438 125.59 319.112 125.423Z" fill="#080B09"/>
<path d="M346.864 118.027L336.099 121.401C336.028 121.065 336.027 120.717 336.097 120.38C336.168 120.044 336.308 119.726 336.509 119.448C336.71 119.169 336.967 118.935 337.264 118.761C337.561 118.588 337.891 118.478 338.232 118.44L346.834 117.319C347.103 117.253 347.269 117.928 346.864 118.027Z" fill="#080B09"/>
<path d="M331.212 128.73L330.045 137.446L333.124 138.932" fill="#E56441"/>
<path d="M331.212 128.73L330.045 137.446L333.124 138.932" stroke="#E56441" stroke-width="0.906567" stroke-linecap="round"/>
<path d="M339.404 281.548L312.707 289.208L309.443 305.659L315.518 323.867C315.518 323.867 319.788 320.994 318.897 314.292C318.007 307.591 340.567 307.782 344.701 299.357" fill="#FFCCB3"/>
<path d="M400.391 190.871C400.391 190.871 400.216 168.257 418.333 168.255C430.478 168.253 436.295 173.95 437.844 191.727C438.926 204.158 439.71 272.354 439.71 272.354C439.71 272.354 442.766 303.478 416.367 304.06L340.133 301.776L338.412 280.477L404.866 273.853L400.391 190.871Z" fill="#FEBB94"/>
<path d="M345.266 188.046C345.266 188.046 352.14 186.088 351.025 179.336C349.939 172.691 349.897 166.923 352.077 167.725C352.077 167.725 354.001 171.025 365.965 167.358C377.852 163.829 377.106 159.75 377.106 159.75C377.106 159.75 378.787 158.26 380.044 162.085C381.298 165.91 384.482 176.501 391.214 175.739L393.033 195.481L357.233 207.265C357.155 207.402 340.609 191.373 345.266 188.046Z" fill="#FEBB94"/>
<path d="M291.645 252.03L303.108 269.062L296.995 239.963L291.645 252.03Z" fill="#FF967C"/>
</svg>
