<svg width="800" height="800" viewBox="0 0 800 800" fill="none" xmlns="http://www.w3.org/2000/svg">
<path fill-rule="evenodd" clip-rule="evenodd" d="M358.752 466.232L480.236 461.804L493.135 664.34C494.29 681.475 486.011 696.299 475.422 696.299H363.373C352.784 696.299 344.505 681.475 345.661 664.34L358.752 466.232ZM488.706 664.533L476 466.424L362.795 470.468L350.088 664.533C349.511 673.966 352.014 683.399 356.827 688.406C357.627 689.38 358.623 690.174 359.752 690.738C360.88 691.302 362.113 691.622 363.373 691.678H475.422C476.681 691.622 477.916 691.302 479.043 690.738C480.171 690.174 481.168 689.38 481.968 688.406C486.588 683.399 489.284 673.966 488.706 664.533Z" fill="#1C85E8"/>
<path fill-rule="evenodd" clip-rule="evenodd" d="M466.758 466.232L588.242 461.804L601.141 664.34C602.296 681.475 594.018 696.299 583.428 696.299H471.379C460.79 696.299 452.511 681.475 453.666 664.34L466.758 466.232ZM596.713 664.533L584.006 466.424L470.801 470.468L458.095 664.533C457.517 673.966 460.02 683.399 464.833 688.406C465.633 689.38 466.63 690.174 467.758 690.738C468.885 691.302 470.119 691.622 471.379 691.678H583.428C584.688 691.622 585.922 691.302 587.049 690.738C588.178 690.174 589.174 689.38 589.974 688.406C594.595 683.399 597.29 673.966 596.713 664.533Z" fill="#1C85E8"/>
<path d="M342.196 452.754C342.093 455.813 342.483 458.868 343.351 461.803H524.324C587.665 461.803 586.317 432.731 592.478 392.686C599.795 344.362 629.828 233.082 634.641 195.347H616.93C611.923 195.54 607.11 195.733 602.682 196.118C574.574 198.428 556.284 205.745 547.62 229.617C545.752 234.798 544.398 240.15 543.577 245.596C535.106 296.616 524.132 347.057 515.469 394.996C514.891 397.884 514.313 400.579 513.736 403.082C504.302 444.668 485.627 452.368 459.251 452.368H342.196V452.754Z" fill="#1C85E8"/>
<path d="M343.35 461.803C345.66 468.733 351.629 474.509 367.031 474.509H548.389C611.73 474.509 610.382 445.438 616.542 405.393C623.474 359.571 638.876 240.399 643.303 205.166C643.445 203.94 643.327 202.698 642.957 201.52C642.586 200.342 641.973 199.255 641.157 198.329C640.34 197.403 639.338 196.66 638.215 196.146C637.092 195.632 635.875 195.36 634.64 195.347H634.448C630.126 195.357 625.958 196.948 622.73 199.822C619.502 202.695 617.438 206.651 616.928 210.942C610.959 257.533 599.023 349.945 592.477 392.879C586.316 432.923 587.664 461.995 524.323 461.995H345.66C344.901 461.836 344.124 461.771 343.35 461.803Z" fill="#5661AE"/>
<path d="M408.403 404.486C408.403 404.486 380.382 380.026 357.6 400.812C334.817 421.598 240.691 564.337 240.691 564.337L269.16 584.024L375.931 463.951L394.516 493.865L408.403 404.486Z" fill="#FCBA9F"/>
<path fill-rule="evenodd" clip-rule="evenodd" d="M389.34 677.607C401.077 669.031 413.174 660.19 425.914 657.335C426.201 657.27 426.499 657.267 426.786 657.328C427.074 657.39 427.345 657.512 427.581 657.688C427.817 657.864 428.012 658.09 428.151 658.348C428.292 658.607 428.373 658.894 428.392 659.187L429.787 682.823C429.817 683.31 429.668 683.79 429.37 684.176C429.072 684.562 428.644 684.826 428.165 684.921L340.897 702.17C334.463 703.441 330.335 700.643 328.357 695.674C328.292 695.502 328.277 695.316 328.317 695.136C328.355 694.958 328.445 694.793 328.574 694.664C328.704 694.534 328.867 694.444 329.047 694.405C329.226 694.366 329.413 694.38 329.585 694.444C341.047 698.656 353.705 698.214 364.846 693.213C372.896 689.624 381.027 683.682 389.34 677.607Z" fill="#5661AE"/>
<path fill-rule="evenodd" clip-rule="evenodd" d="M416.122 600.172C416.122 600.172 417.774 637.475 418.645 641.271C419.244 643.345 419.995 645.372 420.892 647.336C422.387 650.902 424.054 654.874 424.206 657.762C412.093 660.989 400.552 669.42 389.341 677.611C381.029 683.684 372.898 689.624 364.848 693.214C354.244 697.972 342.247 698.613 331.196 695.009C329.679 688.562 334.083 681.422 345.195 678.207C365.111 672.443 375.994 668.79 382.938 652.132C387.873 640.295 379.608 599.084 379.608 599.084L416.122 600.172Z" fill="#FFCCB3"/>
<path fill-rule="evenodd" clip-rule="evenodd" d="M383.809 645.833C387.725 645.593 403.284 644.568 418.181 642.62C421.076 642.243 423.66 647.68 422.423 651.138C421.614 653.664 421.01 656.25 420.617 658.873C415.756 660.65 411.093 662.925 406.701 665.662C407.602 659.498 403.842 656.769 398.257 657.051C393.846 657.273 383.881 660.075 378.744 661.595C378.462 661.679 378.161 661.679 377.879 661.597C377.595 661.515 377.342 661.355 377.148 661.133C376.954 660.912 376.828 660.639 376.783 660.349C376.739 660.058 376.779 659.76 376.898 659.491L382.492 646.754C382.605 646.494 382.788 646.271 383.02 646.108C383.253 645.946 383.526 645.851 383.809 645.833Z" fill="white"/>
<path fill-rule="evenodd" clip-rule="evenodd" d="M342.604 697.207C352.741 698.001 358.874 695.365 358.874 695.365L354.795 674.726L338.932 678.629L342.604 697.207Z" fill="white"/>
<path fill-rule="evenodd" clip-rule="evenodd" d="M215.476 603.092C229.972 604.172 244.914 605.286 256.464 611.373C256.725 611.509 256.953 611.701 257.133 611.933C257.312 612.166 257.439 612.436 257.504 612.723C257.569 613.01 257.572 613.307 257.51 613.595C257.449 613.883 257.325 614.154 257.15 614.39L242.887 633.288C242.593 633.677 242.169 633.948 241.691 634.047C241.214 634.147 240.717 634.072 240.291 633.834L162.67 590.381C156.947 587.177 155.618 582.371 157.334 577.304C157.397 577.132 157.507 576.981 157.652 576.869C157.798 576.757 157.972 576.691 158.155 576.676C158.338 576.662 158.522 576.7 158.682 576.786C158.844 576.873 158.977 577.005 159.066 577.164C165.062 587.804 174.985 595.674 186.71 599.091C195.165 601.578 205.208 602.327 215.476 603.092Z" fill="#5661AE"/>
<path fill-rule="evenodd" clip-rule="evenodd" d="M286.074 561.506L261.346 594.431C260.457 596.398 259.714 598.428 259.124 600.505C257.951 604.189 256.643 608.294 254.888 610.591C243.573 605.193 229.32 604.13 215.475 603.096C205.208 602.329 195.166 601.58 186.711 599.092C175.552 595.839 166.004 588.548 159.928 578.64C162.953 572.748 170.935 570.168 181.48 574.925C200.378 583.45 211.033 587.726 227.12 579.548C229.712 578.021 232.036 576.078 233.997 573.797L258.981 537.002L286.074 561.506Z" fill="#FCBA9F"/>
<path fill-rule="evenodd" clip-rule="evenodd" d="M231.866 575.318C235.003 577.674 247.513 586.984 260.117 595.16C262.566 596.749 261.008 602.564 257.824 604.395C255.57 605.793 253.433 607.37 251.434 609.112C246.581 607.313 241.556 606.021 236.438 605.257C241.119 601.149 240.027 596.634 235.593 593.227C232.091 590.536 222.687 586.207 217.79 584.035C217.521 583.915 217.292 583.721 217.13 583.475C216.968 583.23 216.88 582.943 216.875 582.648C216.871 582.353 216.951 582.065 217.106 581.814C217.261 581.563 217.484 581.363 217.75 581.236L230.267 575.165C230.521 575.042 230.806 574.99 231.088 575.017C231.37 575.044 231.639 575.149 231.866 575.318Z" fill="white"/>
<path fill-rule="evenodd" clip-rule="evenodd" d="M167.186 587.712C174.389 594.889 180.766 596.859 180.766 596.859L191.043 578.502L176.436 571.188L167.186 587.712Z" fill="white"/>
<path d="M446.831 386.738L372.947 399.863L387.49 458.348H434.816C434.816 458.348 457.312 409.992 446.831 386.738Z" fill="#FFCCB3"/>
<path d="M382.414 457.775C398.834 457.775 412.144 444.465 412.144 428.044C412.144 411.625 398.834 398.314 382.414 398.314C365.995 398.314 352.684 411.625 352.684 428.044C352.684 444.465 365.995 457.775 382.414 457.775Z" fill="#FFCCB3"/>
<path d="M353.051 432.729L382.801 619.004L417.114 620.436L413.108 436.303L353.051 432.729Z" fill="#FFCCB3"/>
<path d="M399.658 391.861C399.658 391.861 411.045 395.367 415.745 413.938C420.445 432.509 415.317 458.347 415.317 458.347H422.638C422.638 458.347 448.745 427.688 429.537 388.615L399.658 391.861Z" fill="#FF967C"/>
<path d="M554.11 368.309C554.11 368.309 563.158 412.587 551.301 431.089C536.293 454.509 517.936 458.096 504.37 458.349H415.316C415.316 458.349 415.152 402.789 371.279 393.297C371.279 393.297 515.67 353.082 554.11 368.309Z" fill="#1F2D49"/>
<path d="M556.105 381.201L461.727 384.309L462.731 377.716L481.122 375.59H555.974L556.105 381.201Z" fill="#0D1B33"/>
<path d="M337.79 338.221C337.79 338.221 324.016 345.39 313.46 341.994C313.46 341.994 297.644 350.669 295.192 349.651C291.171 347.837 293.876 343.861 293.876 343.861C293.876 343.861 283.484 347.805 281.128 337.852C277.722 323.911 296.738 319.153 305.772 317.287C314.638 315.233 336.046 319.716 336.046 319.716L337.79 338.221Z" fill="#FFCCB3"/>
<path d="M294.055 343.868L305.59 338.554" stroke="#FF967C" stroke-width="1.78573" stroke-linecap="round" stroke-linejoin="round"/>
<path d="M287.115 336.188C287.115 336.188 300.122 330.052 303.011 329.484" stroke="#FF967C" stroke-width="1.78573" stroke-linecap="round" stroke-linejoin="round"/>
<path d="M284.953 329.461C290.059 326.365 295.6 324.054 301.393 322.606" stroke="#FF967C" stroke-width="1.78573" stroke-linecap="round" stroke-linejoin="round"/>
<path d="M446.359 140.662C446.359 140.662 447.363 150.677 450.833 173.321C454.303 195.965 442.737 218.326 437.725 221.41C432.714 224.494 449.731 232.773 466.44 228.735C483.149 224.697 494.396 218.711 497.095 211.387C499.794 204.061 475.039 128.535 446.359 140.662Z" fill="#080B09"/>
<path d="M456.641 197.759C463.146 197.759 468.421 192.485 468.421 185.98C468.421 179.474 463.146 174.201 456.641 174.201C450.135 174.201 444.861 179.474 444.861 185.98C444.861 192.485 450.135 197.759 456.641 197.759Z" stroke="#FEBB94" stroke-width="0.888597" stroke-miterlimit="10"/>
<path d="M490.18 190.145L483.148 224.695C483.148 224.695 481.488 230.551 488.86 231.438C496.233 232.325 511.953 230.343 517.568 224.36C523.182 218.377 521.219 215.413 521.219 215.413L509.311 167.524L490.18 190.145Z" fill="#FFCCB3"/>
<path d="M489.244 194.134L500.718 185.592L484.832 216.422L489.244 194.134Z" fill="#FF967C"/>
<path d="M455.449 137.489C455.449 137.489 451.148 171.128 463.62 189.829C471.753 202.025 481.895 201.768 500.72 185.592C517.981 170.76 521.17 162.326 521.17 162.326L514.648 128.023C514.648 128.023 460.871 107.058 455.449 137.489Z" fill="#FFCCB3"/>
<path d="M423.601 280.689L413.279 297.16C411.806 299.512 409.85 301.523 407.542 303.064C405.234 304.604 402.625 305.638 399.887 306.095L326.527 318.37V336.929H416.954C422.049 336.929 427.066 335.678 431.564 333.287C436.063 330.896 439.906 327.438 442.756 323.215L464.991 290.269L423.601 280.689Z" fill="#FFCCB3"/>
<path d="M417.146 290.987C417.146 290.987 440.73 295.707 448.677 314.438L459.206 296.641L419.428 287.346L417.146 290.987Z" fill="#FF967C"/>
<path d="M469.572 218.131C469.572 218.131 447.386 226.085 441.56 234.068C437.026 240.279 423.453 268.531 417.653 280.764C417.324 281.458 417.151 282.216 417.147 282.983C417.142 283.752 417.307 284.512 417.627 285.209C417.948 285.908 418.418 286.527 419.005 287.023C419.591 287.52 420.279 287.882 421.02 288.084L453.615 296.973L469.572 218.131Z" fill="#FEBB94"/>
<path d="M447.21 253.287C447.21 253.287 434.072 276.433 432.676 291.262L445.015 295.003L447.21 253.287Z" fill="#FF967C"/>
<path d="M487.954 211.924C487.954 211.924 463.535 219.564 460.082 222.326C456.63 225.088 453.351 247.63 447.482 258.333C441.613 269.036 433.729 285.863 446.271 304.009C458.813 322.154 458.88 340.242 458.88 340.242L454.735 374.668L542.141 382.638C546.178 382.761 554.76 372.035 554.396 368.012C553.196 354.741 551.696 350.854 551.264 329.722C550.68 301.082 565.939 216.423 565.939 216.423L521.173 207.235C511.689 208.87 487.954 211.924 487.954 211.924Z" fill="white"/>
<path d="M481.868 213.885C481.868 213.885 483.126 205.334 487.146 204.732C491.167 204.13 515.735 200.435 519.556 202.043C523.378 203.653 528.003 213.885 528.003 213.885C528.003 213.885 520.16 233.016 508.897 234.022C497.635 235.027 478.249 231.555 480.299 224.442C482.349 217.329 481.868 213.885 481.868 213.885Z" fill="white"/>
<path d="M481.869 213.883C481.869 213.883 473.457 240.682 471.411 260.125C469.363 279.569 476.35 306.932 476.997 320.435C477.645 333.938 472.761 383.195 472.761 383.195H440.26C440.26 383.195 455.539 332.977 452.779 319.595C450.02 306.212 438.185 297.046 438.566 283.264C438.945 269.481 456.009 232.517 456.009 232.517C456.816 228.926 458.189 225.485 460.079 222.326C460.079 222.326 468.271 217.846 481.869 213.883Z" fill="#FEBB94"/>
<path d="M562.773 215.568L523.916 203.658C523.916 203.658 519.908 226.586 515.469 239.506C511.03 252.427 505.027 274.833 508.299 291.008C511.571 307.182 516.835 342.904 512.396 356.902C507.958 370.901 504.078 382.509 504.078 382.509L560.177 383.193C560.177 383.193 555.252 358.641 554.876 356.871C554.5 355.101 548.443 334.505 551.256 315.609C554.07 296.713 560.014 263.599 560.014 263.599L562.773 215.568Z" fill="#FEBB94"/>
<path d="M512.127 286.929C513.087 286.929 513.866 286.15 513.866 285.189C513.866 284.228 513.087 283.448 512.127 283.448C511.165 283.448 510.387 284.228 510.387 285.189C510.387 286.15 511.165 286.929 512.127 286.929Z" fill="white"/>
<path d="M513.869 302.488C514.829 302.488 515.609 301.709 515.609 300.747C515.609 299.787 514.829 299.007 513.869 299.007C512.907 299.007 512.129 299.787 512.129 300.747C512.129 301.709 512.907 302.488 513.869 302.488Z" fill="white"/>
<path d="M477.328 215.401C477.328 215.401 480.045 231.902 494.805 231.641C509.565 231.381 531.012 209.242 531.012 209.242" stroke="white" stroke-width="0.655065" stroke-miterlimit="10"/>
<path d="M536.975 243.747C536.975 243.747 532.869 253.831 537.189 263.615C542.047 274.617 548.307 301.762 528.064 304.725C503.251 308.358 513.996 312.244 525.498 315.023C537 317.804 532.291 317.806 532.291 329.722C532.291 338.202 556.047 353.978 553.557 347.557C540.199 313.104 575.713 267.374 536.975 243.747Z" fill="#FF967C"/>
<path d="M467.086 182.133L478.631 179.481C478.625 179.588 478.616 179.71 478.603 179.842C478.547 180.396 478.405 181.142 478.067 181.921C477.403 183.451 475.964 185.15 472.769 185.715C470.739 185.886 469.275 184.904 468.293 183.836C467.8 183.301 467.439 182.751 467.199 182.335C467.158 182.263 467.12 182.195 467.086 182.133Z" fill="#E56441" stroke="#E56441" stroke-width="0.888597"/>
<path d="M459.603 165.649C460.947 165.633 462.019 164.013 461.996 162.031C461.973 160.049 460.864 158.455 459.518 158.471C458.174 158.486 457.102 160.106 457.125 162.088C457.148 164.07 458.257 165.664 459.603 165.649Z" fill="#080B09"/>
<path d="M479.476 165.699C480.821 165.684 481.893 164.064 481.869 162.082C481.846 160.1 480.737 158.506 479.392 158.522C478.047 158.537 476.975 160.157 476.998 162.14C477.022 164.121 478.131 165.715 479.476 165.699Z" fill="#080B09"/>
<path d="M454.659 153.832L464.767 153.88C464.94 153.866 465.101 153.791 465.221 153.667C465.341 153.544 465.413 153.381 465.423 153.209C465.383 152.901 465.281 152.606 465.123 152.34C464.965 152.073 464.754 151.841 464.504 151.658C464.255 151.475 463.97 151.345 463.668 151.275C463.367 151.205 463.054 151.197 462.749 151.251L454.479 152.674C453.817 152.682 453.831 153.841 454.659 153.832Z" fill="#080B09"/>
<path d="M488.881 152.797L475.469 153.782C475.477 153.372 475.571 152.969 475.744 152.598C475.917 152.227 476.167 151.896 476.476 151.627C476.786 151.358 477.147 151.157 477.539 151.036C477.93 150.915 478.343 150.878 478.75 150.927L489.037 151.966C489.368 151.963 489.378 152.791 488.881 152.797Z" fill="#080B09"/>
<path d="M467.799 160.963L464.072 170.76L467.241 173.322" stroke="#E56441" stroke-width="1.08068" stroke-linecap="round"/>
<path d="M462.612 132.385C462.612 132.385 467.539 146.743 481.892 150.323C481.892 150.323 488.664 160.49 502.893 159.313C502.893 159.313 499.194 149.255 505.652 147.55C516.619 144.652 515.925 162.725 509.313 167.525C504.82 170.787 504.285 206.744 528.006 213.882C549.272 220.282 584.538 200.1 570.241 193.389C522.822 171.13 529.393 138.237 523.324 126.095C513.011 105.463 484.236 105.798 478.865 108.085C478.865 108.085 453.468 106.624 447.474 131.989C442.349 153.673 455.235 162.111 455.235 162.111L456.076 143.863C456.076 143.863 458.855 144.836 462.612 132.385Z" fill="#080B09"/>
<path d="M494.009 243.746C495.219 243.746 496.2 241.037 496.2 237.694C496.2 234.35 495.219 231.641 494.009 231.641C492.799 231.641 491.818 234.35 491.818 237.694C491.818 241.037 492.799 243.746 494.009 243.746Z" fill="white"/>
<path d="M551.515 229.948C551.515 229.948 574.713 218.778 579.072 225.952C588.147 240.289 602.778 275.695 607.65 287.319C607.845 287.817 607.94 288.347 607.929 288.882C607.918 289.416 607.802 289.944 607.587 290.433C607.371 290.922 607.061 291.364 606.673 291.733C606.287 292.101 605.83 292.389 605.33 292.581L569.542 306.511C568.161 307.061 566.621 307.061 565.24 306.511C563.858 305.96 562.739 304.902 562.114 303.553L537.188 249.564L551.515 229.948Z" fill="#FEBB94"/>
<path d="M559.176 263.615C572.491 263.615 583.284 252.821 583.284 239.507C583.284 226.193 572.491 215.399 559.176 215.399C545.862 215.399 535.068 226.193 535.068 239.507C535.068 252.821 545.862 263.615 559.176 263.615Z" fill="#FEBB94"/>
<path d="M614.529 320.67L581.909 333.239L572.519 309.802L570.961 306.103L604.453 292.967L606.037 297.379L614.529 320.67Z" fill="#FFCCB3"/>
<path d="M606.037 297.38C597.218 300.724 580.099 306.858 572.519 309.801L570.961 306.103L604.274 292.974L606.037 297.38Z" fill="#FF967C"/>
<path d="M598.408 344.81C608.073 344.81 615.909 336.975 615.909 327.31C615.909 317.644 608.073 309.81 598.408 309.81C588.743 309.81 580.908 317.644 580.908 327.31C580.908 336.975 588.743 344.81 598.408 344.81Z" fill="#FFCCB3"/>
<path d="M490.557 332.51C490.557 332.51 476.2 338.424 465.988 334.102C465.988 334.102 449.462 341.333 447.11 340.101C443.267 337.937 446.315 334.218 446.315 334.218C446.315 334.218 435.614 337.221 434.154 327.097C432.003 312.909 451.366 309.863 460.531 308.808C469.544 307.552 490.468 313.924 490.468 313.924L490.557 332.51Z" fill="#FFCCB3"/>
<path d="M442.269 307.862L461.463 308.579L442.964 314.451C442.964 314.451 436.367 311.359 439.442 308.726C440.249 308.106 441.253 307.798 442.269 307.862Z" fill="#FFCCB3"/>
<path d="M446.492 334.243L458.455 329.976" stroke="#FF967C" stroke-width="1.78573" stroke-linecap="round" stroke-linejoin="round"/>
<path d="M440.262 325.974C440.262 325.974 453.762 321.022 456.691 320.712" stroke="#FF967C" stroke-width="1.78573" stroke-linecap="round" stroke-linejoin="round"/>
<path d="M438.707 319.081C444.068 316.452 449.793 314.643 455.692 313.717" stroke="#FF967C" stroke-width="1.78573" stroke-linecap="round" stroke-linejoin="round"/>
<path d="M597.994 309.759C597.994 309.759 489.109 314.633 481.731 313.233C474.531 311.859 490.56 332.51 490.56 332.51L594.757 344.288L597.994 309.759Z" fill="#FFCCB3"/>
<path d="M583.168 97.5244H588.5" stroke="#5CA4E6" stroke-width="0.888597" stroke-miterlimit="10"/>
<path d="M512.997 186.181C519.502 186.181 524.776 180.907 524.776 174.401C524.776 167.896 519.502 162.622 512.997 162.622C506.491 162.622 501.217 167.896 501.217 174.401C501.217 180.907 506.491 186.181 512.997 186.181Z" stroke="#FEBB94" stroke-width="0.888597" stroke-miterlimit="10"/>
</svg>
