<svg width="800" height="800" viewBox="0 0 800 800" fill="none" xmlns="http://www.w3.org/2000/svg">
<path d="M638.818 447.694H286.408V696.65H638.818V447.694Z" fill="#5CA4E6"/>
<path d="M427.193 447.694H286.408V696.65H427.193V447.694Z" fill="url(#paint0_linear_84_2157)"/>
<path d="M404.761 396.999C404.761 396.999 377.652 373.335 355.611 393.445C333.57 413.554 242.506 551.651 242.506 551.651L270.049 570.698L373.346 454.529L391.326 483.471L404.761 396.999Z" fill="#FCBA9F"/>
<path fill-rule="evenodd" clip-rule="evenodd" d="M386.316 661.236C397.67 652.939 409.375 644.386 421.7 641.624C421.977 641.56 422.265 641.559 422.544 641.617C422.822 641.676 423.084 641.795 423.312 641.966C423.541 642.136 423.729 642.354 423.864 642.605C424 642.855 424.079 643.132 424.096 643.416L425.447 666.283C425.474 666.754 425.331 667.219 425.043 667.592C424.754 667.965 424.34 668.221 423.878 668.312L339.448 685C333.223 686.23 329.23 683.523 327.315 678.715C327.253 678.55 327.239 678.369 327.276 678.196C327.314 678.023 327.4 677.864 327.525 677.738C327.651 677.613 327.81 677.526 327.983 677.489C328.157 677.451 328.337 677.464 328.503 677.527C339.594 681.601 351.838 681.174 362.618 676.335C370.406 672.863 378.273 667.114 386.316 661.236Z" fill="#5661AE"/>
<path fill-rule="evenodd" clip-rule="evenodd" d="M412.227 586.321C412.227 586.321 413.826 622.411 414.668 626.082C415.248 628.089 415.975 630.05 416.842 631.95C418.289 635.4 419.901 639.243 420.049 642.037C408.329 645.159 397.164 653.317 386.318 661.24C378.275 667.116 370.41 672.864 362.62 676.335C352.362 680.939 340.755 681.559 330.064 678.073C328.596 671.835 332.857 664.928 343.607 661.817C362.875 656.24 373.404 652.706 380.123 636.59C384.898 625.139 376.901 585.268 376.901 585.268L412.227 586.321Z" fill="#FFCCB3"/>
<path fill-rule="evenodd" clip-rule="evenodd" d="M380.968 630.497C384.757 630.264 399.81 629.273 414.223 627.388C417.024 627.023 419.523 632.283 418.327 635.629C417.544 638.072 416.959 640.575 416.579 643.112C411.876 644.831 407.365 647.032 403.116 649.679C403.987 643.717 400.35 641.077 394.947 641.349C390.679 641.565 381.039 644.275 376.068 645.747C375.795 645.827 375.504 645.827 375.231 645.748C374.958 645.669 374.713 645.513 374.524 645.299C374.337 645.085 374.214 644.822 374.171 644.54C374.129 644.259 374.167 643.971 374.282 643.711L379.694 631.387C379.804 631.137 379.981 630.92 380.206 630.763C380.431 630.606 380.694 630.514 380.968 630.497Z" fill="white"/>
<path fill-rule="evenodd" clip-rule="evenodd" d="M341.099 680.2C350.907 680.967 356.84 678.417 356.84 678.417L352.893 658.45L337.547 662.226L341.099 680.2Z" fill="white"/>
<path fill-rule="evenodd" clip-rule="evenodd" d="M218.109 589.147C232.133 590.193 246.589 591.27 257.763 597.158C258.016 597.29 258.236 597.475 258.41 597.701C258.584 597.926 258.706 598.186 258.77 598.465C258.833 598.742 258.835 599.03 258.776 599.309C258.716 599.587 258.597 599.849 258.426 600.077L244.628 618.361C244.344 618.738 243.933 618.998 243.471 619.096C243.01 619.193 242.528 619.119 242.117 618.888L167.021 576.849C161.483 573.749 160.199 569.1 161.858 564.198C161.918 564.031 162.025 563.885 162.166 563.777C162.307 563.669 162.475 563.604 162.652 563.59C162.829 563.576 163.006 563.613 163.163 563.697C163.319 563.78 163.448 563.908 163.534 564.063C169.335 574.356 178.934 581.97 190.277 585.275C198.459 587.682 208.175 588.407 218.109 589.147Z" fill="#5661AE"/>
<path fill-rule="evenodd" clip-rule="evenodd" d="M286.41 548.913L262.487 580.767C261.627 582.67 260.909 584.634 260.337 586.644C259.202 590.209 257.937 594.179 256.239 596.402C245.292 591.18 231.502 590.151 218.108 589.15C208.175 588.409 198.46 587.684 190.279 585.277C179.484 582.13 170.246 575.076 164.367 565.49C167.294 559.789 175.017 557.294 185.218 561.896C203.502 570.145 213.81 574.281 229.374 566.368C231.882 564.891 234.13 563.011 236.027 560.805L260.198 525.207L286.41 548.913Z" fill="#FCBA9F"/>
<path fill-rule="evenodd" clip-rule="evenodd" d="M233.966 562.275C237.002 564.555 249.104 573.561 261.299 581.471C263.668 583.009 262.16 588.634 259.08 590.406C256.9 591.758 254.832 593.284 252.897 594.969C248.203 593.229 243.341 591.979 238.389 591.24C242.919 587.265 241.862 582.897 237.571 579.601C234.184 576.997 225.086 572.81 220.348 570.707C220.088 570.592 219.866 570.404 219.71 570.166C219.553 569.928 219.468 569.651 219.463 569.366C219.459 569.081 219.537 568.801 219.686 568.56C219.836 568.317 220.052 568.123 220.309 567.999L232.419 562.128C232.666 562.008 232.941 561.957 233.214 561.984C233.486 562.01 233.747 562.111 233.966 562.275Z" fill="white"/>
<path fill-rule="evenodd" clip-rule="evenodd" d="M171.387 574.266C178.356 581.21 184.526 583.115 184.526 583.115L194.468 565.354L180.336 558.279L171.387 574.266Z" fill="white"/>
<path d="M441.935 379.829L370.455 392.528L384.525 449.11H430.311C430.311 449.11 452.076 402.328 441.935 379.829Z" fill="#FFCCB3"/>
<path d="M379.617 448.557C395.502 448.557 408.38 435.68 408.38 419.794C408.38 403.909 395.502 391.031 379.617 391.031C363.731 391.031 350.854 403.909 350.854 419.794C350.854 435.68 363.731 448.557 379.617 448.557Z" fill="#FFCCB3"/>
<path d="M351.209 424.324L379.991 604.54L413.188 605.925L409.312 427.781L351.209 424.324Z" fill="#FFCCB3"/>
<path d="M396.301 384.787C396.301 384.787 407.317 388.179 411.864 406.147C416.411 424.113 411.449 449.111 411.449 449.111H418.533C418.533 449.111 443.791 419.449 425.208 381.647L396.301 384.787Z" fill="#FF967C"/>
<path d="M465.803 230.674L456.806 234.99C453.356 236.646 450.314 239.042 447.898 242.009C445.481 244.976 443.75 248.44 442.826 252.153L422.488 333.988L376.635 355.912L387.088 372.516L473.784 369.441L465.803 230.674Z" fill="#5661AE"/>
<path d="M452.843 260.132C452.843 260.132 437.055 282.313 444.695 303.438C452.335 324.564 449.216 328.481 447.305 347.197C445.394 365.912 451.633 361.56 451.633 361.56L473.781 351.114C473.781 351.114 483.022 262.584 452.843 260.132Z" fill="#465393"/>
<path d="M545.73 361.999C545.73 361.999 554.483 404.836 543.012 422.737C528.492 445.396 510.732 448.866 497.607 449.11H411.45C411.45 449.11 411.291 395.357 368.846 386.174C368.846 386.174 508.54 347.268 545.73 361.999Z" fill="#1F2D49"/>
<path d="M547.659 374.472L456.35 377.478L457.321 371.1L475.114 369.043H547.531L547.659 374.472Z" fill="#0D1B33"/>
<path d="M429.565 354.402C429.565 354.402 418.395 357.649 413.377 359.125C408.359 360.601 398.438 364.143 398.438 364.143L405.702 374.473L438.625 372.515L429.565 354.402Z" fill="#FFCCB3"/>
<path d="M483.695 223.032C483.695 223.032 464.945 230.451 462.081 232.741C459.219 235.031 456.501 253.722 451.633 262.597C446.767 271.472 439.647 287.852 450.046 302.898C460.446 317.944 459.339 329.891 459.339 329.891L457.126 367.634L543.869 370.273C544.659 370.297 545.443 370.154 546.173 369.854C546.903 369.552 547.561 369.099 548.102 368.525C548.645 367.95 549.057 367.268 549.316 366.521C549.574 365.775 549.671 364.983 549.6 364.196C548.604 353.192 546.932 336.752 546.574 319.229C546.09 295.482 545.727 216.134 545.727 216.134L506.687 214.909C498.823 216.265 483.695 223.032 483.695 223.032Z" fill="#5661AE"/>
<path d="M545.728 258.263C557.361 258.263 566.791 248.832 566.791 237.199C566.791 225.566 557.361 216.136 545.728 216.136C534.095 216.136 524.664 225.566 524.664 237.199C524.664 248.832 534.095 258.263 545.728 258.263Z" fill="#5661AE"/>
<path d="M548.57 355.494C548.57 355.494 546.768 362.079 527.505 369.775C527.505 369.775 482.348 368.794 459.912 369.265C437.476 369.738 462.317 363.819 474.841 357.574C487.365 351.33 547.144 333.986 547.144 333.986L548.57 355.494Z" fill="#465393"/>
<path d="M530.361 248.571C530.361 248.571 517.301 260.479 516.532 269.314C515.765 278.149 513.988 302.784 497.204 305.241C476.629 308.253 471.244 311.186 480.782 313.491C490.319 315.795 511.964 312.06 511.964 321.941C511.964 328.972 520.374 334.233 524.6 330.392C528.825 326.551 562.482 268.162 530.361 248.571Z" fill="#465393"/>
<path d="M566.567 240.281C564.796 248.734 547.95 337.785 547.95 337.785C547.95 337.785 545.73 351.107 532.712 354.401L441.938 377.479L425.965 353.519L508.291 325.363L524.666 237.199C524.666 237.199 568.93 229.005 566.567 240.281Z" fill="#5661AE"/>
<path d="M481.578 206.632L482.442 235.855C482.442 235.855 482.21 240.898 488.33 240.217C494.449 239.537 506.765 234.962 510.165 229.069C513.565 223.176 511.418 221.155 511.418 221.155L492.74 184.75L481.578 206.632Z" fill="#FFCCB3"/>
<path d="M481.578 210.03L489.224 200.963L482.236 228.858L481.578 210.03Z" fill="#FF967C"/>
<path d="M488.393 134.6C488.063 129.025 489.278 123.466 491.907 118.537C496.257 110.673 505.293 99.7971 519.013 104.483C532.733 109.167 542.772 119.709 537.585 134.6C532.399 149.492 517.989 154.257 510.647 152.671C503.305 151.084 488.393 134.6 488.393 134.6Z" fill="#080B09"/>
<path d="M483.975 136.673C484.764 135.34 485.947 134.285 487.36 133.65C488.774 133.016 490.349 132.834 491.869 133.131C497.298 134.13 503.014 138.417 507.871 143.56C512.729 148.703 512.57 152.437 510.364 154.713C508.156 156.99 483.975 136.673 483.975 136.673Z" fill="#FEBB94"/>
<path d="M363.629 285.77L398.437 382.204H468.424C468.424 379.259 467.254 376.435 465.171 374.354C463.09 372.271 460.265 371.101 457.32 371.101H406.689L376.632 285.77H363.629Z" fill="white"/>
<path d="M363.628 285.77H269.729L306.043 382.204H398.437L363.628 285.77Z" fill="#D4DCF4"/>
<path d="M334.085 345.372C338.762 345.372 342.553 341.58 342.553 336.904C342.553 332.227 338.762 328.435 334.085 328.435C329.408 328.435 325.617 332.227 325.617 336.904C325.617 341.58 329.408 345.372 334.085 345.372Z" fill="white"/>
<path d="M443.573 170.701C443.573 170.701 446.468 198.671 460.077 211.407C468.952 219.713 477.09 217.585 489.225 200.963C500.351 185.721 501.329 178.31 501.329 178.31L489.57 151.853C489.57 151.853 442.19 145.109 443.573 170.701Z" fill="#FFCCB3"/>
<path d="M448.389 165.223C448.389 165.223 455.084 175.881 467.348 176.054C469.915 178.156 472.979 179.563 476.246 180.137C479.514 180.713 482.874 180.436 486.004 179.336C486.004 179.336 481.113 171.917 486.004 169.317C494.309 164.902 497.17 179.623 492.74 184.75C489.73 188.234 492.913 192.291 495.159 195.919C497.404 199.546 504.659 208.528 504.659 208.528C504.659 208.528 503.968 203.347 507.25 199.546C510.532 195.746 521.178 156.841 501.403 142.529C481.628 128.218 460.811 139.667 456.908 142.529C456.908 142.529 436.129 146.158 436.092 167.769C436.061 186.243 449.209 190.638 449.209 190.638L445.285 175.726C445.285 175.726 447.712 175.986 448.389 165.223Z" fill="#080B09"/>
<path d="M470.487 199.678C470.487 199.678 472.024 204.472 466.812 206.699C463.295 207.856 460.838 204.411 460.838 204.411L470.487 199.678Z" fill="#E56441"/>
<path d="M452.257 192.647C453.34 192.38 453.899 190.869 453.504 189.273C453.11 187.679 451.914 186.601 450.831 186.868C449.748 187.136 449.189 188.646 449.583 190.242C449.977 191.838 451.174 192.915 452.257 192.647Z" fill="#080B09"/>
<path d="M468.311 188.926C469.394 188.659 469.953 187.148 469.559 185.553C469.165 183.958 467.968 182.88 466.885 183.148C465.802 183.415 465.244 184.926 465.638 186.521C466.032 188.117 467.23 189.194 468.311 188.926Z" fill="#080B09"/>
<path d="M446.03 184.043L454.2 182.168C454.336 182.124 454.452 182.033 454.526 181.911C454.6 181.788 454.627 181.643 454.602 181.503C454.512 181.262 454.372 181.043 454.195 180.858C454.017 180.672 453.804 180.525 453.567 180.424C453.33 180.324 453.077 180.273 452.819 180.274C452.563 180.274 452.309 180.327 452.072 180.428L445.666 183.142C445.133 183.274 445.363 184.208 446.03 184.043Z" fill="#080B09"/>
<path d="M473.462 176.729L462.821 180.064C462.75 179.732 462.749 179.388 462.82 179.055C462.889 178.723 463.028 178.409 463.227 178.133C463.424 177.858 463.679 177.627 463.972 177.454C464.266 177.283 464.591 177.175 464.929 177.137L473.43 176.029C473.696 175.964 473.861 176.631 473.462 176.729Z" fill="#080B09"/>
<path d="M457.986 187.31L456.832 195.925L459.874 197.394" stroke="#E56441" stroke-width="0.896062" stroke-linecap="round"/>
<defs>
<linearGradient id="paint0_linear_84_2157" x1="353.295" y1="447.103" x2="452.053" y2="962.214" gradientUnits="userSpaceOnUse">
<stop stop-color="white"/>
<stop offset="1" stop-color="#94B9FF"/>
</linearGradient>
</defs>
</svg>
