<svg width="800" height="800" viewBox="0 0 800 800" fill="none" xmlns="http://www.w3.org/2000/svg">
<path d="M191.885 603.724L176.557 702.158L170.722 701.249C168.752 700.942 166.986 699.866 165.81 698.256C164.634 696.647 164.147 694.638 164.453 692.668L177.469 609.084C177.775 607.115 178.852 605.348 180.461 604.172C182.07 602.996 184.08 602.509 186.05 602.816L191.885 603.724Z" fill="#5661AE"/>
<path d="M239.793 620.29L215.826 613.119L208.207 646.51L234.428 654.742L239.793 620.29Z" fill="#BC775C"/>
<path d="M223.298 651.249L218.867 649.858L229.753 617.287L233.8 618.498L223.298 651.249Z" fill="#93523E"/>
<path d="M218.864 613.592C218.864 613.592 209.474 629.907 214.649 648.533L182.391 701.272C179.586 703.32 175.325 702.105 172.958 700.844C172.44 700.566 172.022 700.132 171.762 699.605C171.501 699.078 171.411 698.482 171.505 697.901L185.418 608.55C185.65 607.058 186.457 605.718 187.666 604.815C188.875 603.913 190.391 603.521 191.886 603.724C197.87 604.535 206.975 605.847 210.557 606.766C216.093 608.188 219.012 610.2 218.864 613.592Z" fill="#1C85E8"/>
<path d="M208.216 659.735L203.48 652.182C203.306 651.906 203.069 651.677 202.787 651.515C202.504 651.352 202.186 651.262 201.861 651.252C201.536 651.241 201.213 651.311 200.92 651.455C200.628 651.598 200.375 651.812 200.185 652.076C199.952 652.4 199.821 652.786 199.811 653.185C199.8 653.585 199.911 653.978 200.127 654.313L206.039 663.491L208.216 659.735Z" fill="white"/>
<path d="M202.849 667.826L198.158 660.29C197.985 660.014 197.746 659.786 197.464 659.623C197.182 659.461 196.865 659.37 196.538 659.36C196.213 659.35 195.89 659.42 195.597 659.563C195.306 659.706 195.054 659.92 194.863 660.184C194.629 660.508 194.499 660.895 194.489 661.295C194.479 661.693 194.588 662.086 194.805 662.421L200.592 671.515L202.849 667.826Z" fill="white"/>
<path d="M197.282 676.924L192.677 669.441C192.505 669.165 192.267 668.936 191.984 668.774C191.702 668.612 191.384 668.522 191.058 668.511C190.733 668.501 190.41 668.57 190.118 668.714C189.825 668.858 189.573 669.071 189.383 669.335C189.15 669.659 189.019 670.046 189.008 670.445C188.998 670.844 189.109 671.236 189.324 671.573L195.085 680.515L197.282 676.924Z" fill="white"/>
<path d="M455.369 689.475H554.99V695.38C554.99 696.368 554.795 697.345 554.417 698.257C554.04 699.169 553.486 699.996 552.789 700.694C552.091 701.392 551.262 701.946 550.351 702.323C549.439 702.701 548.462 702.896 547.475 702.896H462.884C460.891 702.896 458.98 702.103 457.57 700.694C456.162 699.285 455.369 697.374 455.369 695.38V689.475Z" fill="#5661AE"/>
<path d="M464.367 639.591L460.969 664.375L495.135 666.766L499.234 639.591H464.367Z" fill="#BC775C"/>
<path d="M498.878 641.938L498.003 647.737L462.918 650.141L464.043 641.938H498.878Z" fill="#93523E"/>
<path d="M460.966 661.301C460.966 661.301 478.532 668.068 496.139 660.09L553.213 683.85C555.669 686.306 555.124 690.702 554.243 693.235C554.046 693.79 553.683 694.269 553.202 694.608C552.721 694.946 552.146 695.127 551.558 695.124H461.13C459.62 695.125 458.172 694.534 457.094 693.478C456.016 692.421 455.396 690.985 455.366 689.476C455.247 683.439 455.142 674.24 455.5 670.559C456.052 664.87 457.592 661.677 460.966 661.301Z" fill="#1C85E8"/>
<path d="M508.197 664.722L501.463 670.565C501.217 670.779 501.026 671.049 500.91 671.353C500.792 671.657 500.752 671.985 500.792 672.308C500.833 672.631 500.951 672.939 501.138 673.206C501.324 673.473 501.574 673.69 501.865 673.837C502.22 674.018 502.622 674.087 503.019 674.036C503.414 673.985 503.786 673.815 504.084 673.55L512.243 666.296L508.197 664.722Z" fill="white"/>
<path d="M517.023 668.782L510.298 674.577C510.052 674.79 509.863 675.061 509.745 675.364C509.629 675.668 509.589 675.996 509.628 676.32C509.668 676.643 509.786 676.951 509.973 677.218C510.161 677.485 510.409 677.701 510.7 677.848C511.056 678.03 511.458 678.099 511.854 678.048C512.25 677.997 512.621 677.827 512.919 677.562L521.014 670.445L517.023 668.782Z" fill="white"/>
<path d="M526.866 672.881L520.181 678.581C519.935 678.795 519.745 679.066 519.628 679.369C519.512 679.673 519.471 680.001 519.511 680.325C519.551 680.648 519.67 680.956 519.856 681.223C520.043 681.489 520.293 681.705 520.584 681.853C520.939 682.034 521.341 682.103 521.737 682.052C522.133 682.001 522.505 681.831 522.803 681.567L530.753 674.499L526.866 672.881Z" fill="white"/>
<path d="M405.688 314.776L426.333 274.127C426.333 274.127 413.764 275.769 411.573 267.967C409.382 260.166 470.973 253.186 470.973 253.186C470.973 253.186 466.047 270.431 458.656 272.484L438.331 332.022L405.688 314.776Z" fill="#BC775C"/>
<path d="M408.762 308.719L441.011 324.167L438.33 332.019L406.99 312.208L408.762 308.719Z" fill="#93523E"/>
<path d="M605.395 97.2277L308.529 145.826C303.435 146.66 299.982 151.465 300.816 156.559L320.201 274.976C321.034 280.07 325.84 283.523 330.934 282.689L627.801 234.091C632.894 233.257 636.348 228.452 635.514 223.358L616.129 104.941C615.295 99.847 610.49 96.394 605.395 97.2277Z" fill="#FEBB94"/>
<path d="M453.693 171.477L574.343 151.727" stroke="white" stroke-width="16.5738" stroke-miterlimit="10" stroke-linecap="round"/>
<path opacity="0.7" d="M462.264 208.109L540.967 195.225" stroke="white" stroke-width="16.5738" stroke-miterlimit="10" stroke-linecap="round"/>
<path d="M381.577 252.278C405.142 252.278 424.246 233.174 424.246 209.607C424.246 186.042 405.142 166.938 381.577 166.938C358.01 166.938 338.906 186.042 338.906 209.607C338.906 233.174 358.01 252.278 381.577 252.278Z" stroke="#EF6A77" stroke-width="16.5738" stroke-miterlimit="10"/>
<path d="M423.687 202.715C425.05 211.044 423.913 219.589 420.419 227.272C416.926 234.954 411.233 241.428 404.06 245.875C396.887 250.322 388.557 252.542 380.122 252.254C371.688 251.967 363.528 249.184 356.675 244.259C349.822 239.334 344.583 232.488 341.621 224.585C338.659 216.682 338.107 208.079 340.034 199.863C341.962 191.647 346.283 184.186 352.45 178.426C358.617 172.665 366.354 168.862 374.683 167.499" stroke="white" stroke-width="16.5738" stroke-miterlimit="10" stroke-linecap="round"/>
<path d="M395.48 529.13L407.795 668.51C407.795 698.388 377.31 701.787 367.552 698.266C353.786 693.298 220.463 659.358 220.463 659.358L234.592 616.083L336.918 630.305C336.918 630.305 334.12 601.267 306.68 512.6L395.48 529.13Z" fill="#5661AE"/>
<path d="M315.822 543.312L398.79 566.608L394.126 510.64L306.68 512.6L315.822 543.312Z" fill="#465393"/>
<path d="M394.274 223.76C394.274 223.76 410.705 242.41 415.59 249.96C420.474 257.509 420.65 272.315 410.436 276.09C400.223 279.864 391.868 280.499 376.956 277.713C365.353 275.546 350.312 256.398 354.752 246.629C359.193 236.86 379.842 219.097 394.274 223.76Z" fill="#BC775C"/>
<path d="M397.384 275.936L394.941 307.464L359.193 299.694L375.181 269.941L397.384 275.936Z" fill="#BC775C"/>
<path d="M397.383 279.216H387.664L395.979 294.062" fill="#93523E"/>
<path d="M355.195 297.696L360.527 292.531C361.219 291.861 362.068 291.375 362.998 291.12C363.927 290.864 364.905 290.847 365.842 291.068L395.074 297.992C395.777 298.158 396.426 298.504 396.956 298.996C397.487 299.488 397.88 300.109 398.099 300.799L400.211 307.466L355.195 297.696Z" fill="url(#paint0_linear_84_2205)"/>
<path d="M308.898 457.103L303.667 482.454C297.775 521.124 325.502 546.705 367.875 539.734C405.718 533.507 517.816 490.045 517.816 490.045L513.349 421.261L419.11 436.809C419.11 436.809 334.405 421.114 308.898 457.103Z" fill="#5661AE"/>
<path d="M520.368 481.415C537.204 481.415 550.853 467.768 550.853 450.931C550.853 434.095 537.204 420.446 520.368 420.446C503.531 420.446 489.883 434.095 489.883 450.931C489.883 467.768 503.531 481.415 520.368 481.415Z" fill="#5661AE"/>
<path d="M520.368 481.415C537.204 481.415 550.853 467.768 550.853 450.931C550.853 434.095 537.204 420.446 520.368 420.446C503.531 420.446 489.883 434.095 489.883 450.931C489.883 467.768 503.531 481.415 520.368 481.415Z" fill="#5661AE"/>
<path d="M377.307 699.872C394.144 699.872 407.792 686.223 407.792 669.386C407.792 652.551 394.144 638.902 377.307 638.902C360.471 638.902 346.822 652.551 346.822 669.386C346.822 686.223 360.471 699.872 377.307 699.872Z" fill="#5661AE"/>
<path d="M549.368 459.739L506.513 641.939H455.258L489.886 450.93L549.368 459.739Z" fill="#5661AE"/>
<path d="M419.11 436.812L306.236 471.939L308.898 457.105L419.11 436.812Z" fill="#465393"/>
<path d="M444.44 333.885L455.654 342.044L493.103 280.575C493.103 280.575 488.117 260.442 487.774 257.014L499.959 255.277C499.959 255.277 509.829 236.676 512.642 232.997C515.455 229.317 518.701 229.966 520.433 232.997C520.433 232.997 525.843 233.863 526.709 241.22C526.709 241.22 531.47 242.303 533.418 251.825C533.418 251.825 537.529 256.153 536.665 260.914C535.799 265.675 524.977 284.335 523.247 286.259C521.913 287.828 520.684 289.483 519.567 291.213L483.498 377.642C483.498 377.642 474.685 396.546 454.032 389.376L428.425 377.509C416.673 369.894 444.44 333.885 444.44 333.885Z" fill="#BC775C"/>
<path d="M463.315 391.613C475.22 391.613 484.872 381.962 484.872 370.056C484.872 358.149 475.22 348.499 463.315 348.499C451.409 348.499 441.758 358.149 441.758 370.056C441.758 381.962 451.409 391.613 463.315 391.613Z" fill="#BC775C"/>
<path d="M372.959 239.301C372.959 239.301 394.052 232.196 398.271 217.319C402.489 202.444 393.608 194.672 382.062 202.221C382.062 202.221 373.846 189.121 359.859 198.225C345.87 207.328 348.534 228.865 348.979 233.084C348.979 233.084 333.214 244.186 340.763 261.727C348.313 279.268 369.027 283.486 369.027 283.486C371.313 280.201 372.949 276.507 373.846 272.606C373.846 272.606 362.432 263.947 369.027 255.51C375.623 247.073 383.172 260.617 383.172 260.617C383.172 260.617 388.945 241.522 372.959 239.301Z" fill="#465393"/>
<path d="M355.197 297.695C355.197 297.695 340.554 304.977 337.236 312.817C334.171 320.062 312.851 415.224 306.321 453.533C306.166 454.441 306.235 455.374 306.524 456.25C306.814 457.125 307.313 457.915 307.979 458.552C308.646 459.189 309.458 459.653 310.346 459.902C311.234 460.151 312.169 460.179 313.069 459.983L419.111 436.809C419.111 436.809 413.925 381.075 415.742 364.719C417.56 348.362 400.213 307.465 400.213 307.465L355.197 297.695Z" fill="url(#paint1_linear_84_2205)"/>
<path d="M415.367 372.432L388.633 356.544L416.451 402.305L415.367 372.432Z" fill="#96BAFD"/>
<path d="M455.654 342.044L463.439 347.47L470.974 316.898L455.654 342.044Z" fill="#93523E"/>
<path d="M400.212 307.466C400.212 307.466 442.763 330.726 447.929 334.541C448.599 335.035 449.07 335.752 449.258 336.564C449.446 337.375 449.336 338.226 448.952 338.964L429.408 376.487C429.189 376.908 428.886 377.28 428.518 377.581C428.149 377.881 427.724 378.103 427.267 378.233C426.81 378.363 426.331 378.399 425.86 378.337C425.389 378.275 424.935 378.119 424.527 377.876L374.93 348.402C374.93 348.402 372.291 309.167 400.212 307.466Z" fill="url(#paint2_linear_84_2205)"/>
<path d="M394.782 251.737C395.802 250.975 395.686 249.096 394.524 247.54C393.363 245.984 391.594 245.339 390.574 246.101C389.555 246.862 389.67 248.741 390.832 250.297C391.994 251.854 393.763 252.498 394.782 251.737Z" fill="#080B09"/>
<path d="M408.767 241.157C409.786 240.396 409.671 238.517 408.509 236.961C407.347 235.405 405.578 234.76 404.558 235.521C403.539 236.282 403.654 238.161 404.816 239.717C405.979 241.274 407.747 241.918 408.767 241.157Z" fill="#080B09"/>
<path d="M403.107 244.054C403.107 244.054 402.864 248.657 405.685 247.445C408.339 246.195 410.606 247.055 408.942 250.549" stroke="#93523E" stroke-width="1.21265" stroke-linecap="round" stroke-linejoin="round"/>
<path d="M409.876 253.833C408.273 254.704 405.07 256.445 402.956 257.641C402.829 257.711 402.724 257.816 402.65 257.942C402.578 258.068 402.542 258.212 402.545 258.358C402.549 258.504 402.592 258.645 402.67 258.769C402.75 258.891 402.86 258.99 402.992 259.055C405.955 260.335 412.303 262.199 410.971 254.43C410.97 254.303 410.935 254.178 410.87 254.07C410.805 253.96 410.71 253.87 410.599 253.81C410.487 253.749 410.361 253.719 410.234 253.723C410.106 253.727 409.983 253.765 409.876 253.833Z" fill="white"/>
<path d="M382.759 247.135L383.056 247.376C383.458 247.768 383.999 247.984 384.56 247.978C385.121 247.972 385.657 247.746 386.051 247.345L392.641 240.301C392.974 239.973 393.172 239.531 393.195 239.065C393.219 238.598 393.066 238.14 392.768 237.781C392.595 237.552 392.376 237.362 392.125 237.224C391.873 237.086 391.596 237.003 391.31 236.981C391.024 236.958 390.737 236.996 390.467 237.094C390.198 237.19 389.952 237.342 389.745 237.541L382.858 244.345C382.664 244.518 382.507 244.73 382.397 244.966C382.287 245.202 382.225 245.458 382.216 245.718C382.207 245.979 382.25 246.239 382.343 246.482C382.437 246.725 382.578 246.947 382.759 247.135Z" fill="#080B09"/>
<path d="M406.711 227.144L397.648 230.545C397.381 230.648 397.138 230.808 396.938 231.012C396.737 231.217 396.582 231.461 396.482 231.73C396.384 231.998 396.343 232.285 396.362 232.571C396.382 232.857 396.462 233.136 396.598 233.388C396.798 233.81 397.151 234.141 397.585 234.316C398.018 234.49 398.501 234.495 398.938 234.33L408.098 231.301C408.625 231.111 409.057 230.719 409.297 230.213C409.538 229.705 409.568 229.124 409.382 228.595L409.286 228.223C409.192 227.981 409.05 227.759 408.868 227.572C408.685 227.386 408.469 227.237 408.228 227.137C407.988 227.037 407.729 226.984 407.47 226.985C407.209 226.987 406.951 227.041 406.711 227.144Z" fill="#080B09"/>
<defs>
<linearGradient id="paint0_linear_84_2205" x1="376.583" y1="290.875" x2="377.995" y2="326.323" gradientUnits="userSpaceOnUse">
<stop stop-color="white"/>
<stop offset="1" stop-color="#94B9FF"/>
</linearGradient>
<linearGradient id="paint1_linear_84_2205" x1="359.866" y1="297.309" x2="412.929" y2="637.437" gradientUnits="userSpaceOnUse">
<stop stop-color="white"/>
<stop offset="1" stop-color="#94B9FF"/>
</linearGradient>
<linearGradient id="paint2_linear_84_2205" x1="410.251" y1="307.297" x2="425.782" y2="457.786" gradientUnits="userSpaceOnUse">
<stop stop-color="white"/>
<stop offset="1" stop-color="#94B9FF"/>
</linearGradient>
</defs>
</svg>
