<svg width="800" height="800" viewBox="0 0 800 800" fill="none" xmlns="http://www.w3.org/2000/svg">
<path d="M455.758 642.942L307.5 616.798C290.622 613.82 278.378 594.295 280.033 573.115L307.5 226.96C309.155 205.78 324.378 186.255 341.586 183.277L493.815 157.133C516.318 153.162 533.527 170.371 531.541 195.521L499.11 605.216C497.786 629.705 477.93 646.582 455.758 642.942Z" fill="#22272E"/>
<path d="M444.176 642.943L295.918 616.799C279.04 613.821 266.796 594.296 268.451 573.116L295.918 226.961C297.573 205.781 312.796 186.256 330.004 183.278L482.233 157.134C504.736 153.163 521.945 170.372 519.959 195.522L487.528 605.217C486.204 629.706 466.017 646.583 444.176 642.943Z" fill="#22272E"/>
<path d="M399.5 209.09L371.04 213.062C368.392 213.392 366.076 211.076 366.407 207.767C366.738 204.457 369.054 201.479 372.032 201.148L400.493 196.846C403.471 196.515 405.457 198.831 405.457 202.141C405.126 205.781 402.478 208.759 399.5 209.09Z" fill="#63737A"/>
<path d="M428.287 205.121L424.316 205.783C421.337 206.113 419.021 203.797 419.352 200.488C419.683 197.178 422.33 193.869 425.309 193.538L429.28 192.876C432.258 192.545 434.575 194.862 434.244 198.171C434.244 201.48 431.265 204.459 428.287 205.121Z" fill="#63737A"/>
<path d="M350.52 576.758L301.212 569.809C295.917 569.147 291.945 563.19 292.607 556.571C293.269 549.953 297.902 544.989 303.197 545.651L352.506 551.607C358.132 552.269 362.434 558.557 362.103 565.506C361.441 572.787 356.146 577.751 350.52 576.758Z" fill="#63737A"/>
<path d="M316.102 260.387L386.59 252.445" stroke="#63737A" stroke-width="5.95678" stroke-miterlimit="10" stroke-linecap="round" stroke-linejoin="round"/>
<path d="M304.191 408.642L338.278 408.973" stroke="#63737A" stroke-width="5.95678" stroke-miterlimit="10" stroke-linecap="round" stroke-linejoin="round"/>
<path d="M364.75 408.979L402.145 409.31" stroke="#63737A" stroke-width="5.95678" stroke-miterlimit="10" stroke-linecap="round" stroke-linejoin="round"/>
<path d="M431.602 409.638L472.968 409.969" stroke="#63737A" stroke-width="5.95678" stroke-miterlimit="10" stroke-linecap="round" stroke-linejoin="round"/>
<path d="M397.508 382.505L315.106 383.498C310.142 383.498 306.502 378.534 307.164 372.577L312.79 301.096C313.121 295.139 317.754 289.844 322.718 289.183L405.782 281.902C411.407 281.24 415.709 286.204 415.048 292.823L409.091 370.261C408.098 376.88 403.134 382.175 397.508 382.505Z" fill="#B8D8C7"/>
<path d="M505.729 380.85L450.464 381.512C444.507 381.512 439.874 376.217 440.536 369.599L446.824 290.175C447.485 283.556 452.78 277.599 458.737 276.938L514.334 271.974L505.729 380.85Z" fill="#FFE779"/>
<path d="M452.116 530.765L304.52 516.865C299.556 516.535 296.247 511.24 296.577 504.952L301.211 446.377C301.542 440.42 306.174 435.456 310.807 435.456L459.396 439.758C465.684 440.089 470.317 445.715 469.655 452.665L464.36 519.513C463.698 526.462 458.403 531.426 452.116 530.765Z" fill="#F4C2C9"/>
<rect x="0.5" y="0.5" width="799" height="799" stroke="black"/>
</svg>
