<svg width="800" height="800" viewBox="0 0 800 800" fill="none" xmlns="http://www.w3.org/2000/svg">
<path d="M309.532 238.37C309.532 238.37 301.56 254.957 300.917 265.501C300.274 276.045 311.461 318.349 329.72 350.624C329.72 350.624 346.95 344.966 346.95 339.694C346.95 334.422 336.792 272.059 337.435 270.259C338.078 268.459 345.15 255.214 345.15 249.557C345.15 244.028 312.232 232.198 309.532 238.37Z" fill="#F4C2C9"/>
<path d="M345.147 249.557C345.147 243.899 312.358 232.198 309.658 238.37C309.658 238.37 308.629 240.684 307.215 244.028C317.63 252.128 328.817 259.072 341.547 261.386C343.347 257.272 345.147 252.386 345.147 249.557Z" fill="#E26E85"/>
<path d="M343.736 167.906C343.736 167.906 330.878 172.278 321.106 194.394C311.205 216.639 300.918 235.027 300.918 235.027C300.918 235.027 316.991 250.971 337.564 259.072C358.138 267.43 358.909 169.963 343.736 167.906Z" fill="#6DAFA7"/>
<path d="M304.516 228.469C304.516 228.469 326.504 246.471 346.948 254.315" stroke="#22272E" stroke-width="2.31452" stroke-miterlimit="10" stroke-linecap="round" stroke-linejoin="round"/>
<path d="M386.707 647.536C386.707 647.536 385.549 674.539 385.806 677.111C386.064 679.811 376.806 685.211 365.362 684.826C354.046 684.44 352.889 681.097 352.889 681.097C352.889 681.097 350.317 651.908 350.06 647.793C349.803 643.679 384.392 642.007 386.707 647.536Z" fill="#F4C2C9"/>
<path d="M386.064 663.095C386.321 655.38 386.707 647.536 386.707 647.536C384.392 642.007 349.803 643.679 350.06 647.793C350.189 649.722 350.832 656.923 351.346 664.123C361.504 669.138 374.877 667.852 386.064 663.095Z" fill="#22272E"/>
<path d="M385.808 676.339C385.808 676.339 386.837 683.926 387.223 692.155C387.608 700.513 388.894 715.429 387.48 718.001C385.937 720.572 378.222 722.758 359.834 724.173C341.447 725.587 324.474 724.301 321.516 721.987C318.559 719.672 319.459 716.2 322.288 713.5C325.117 710.8 336.303 698.842 340.932 693.955C346.976 687.526 351.348 680.968 351.348 680.197C351.733 677.111 352.376 677.111 352.376 677.111C352.376 677.111 353.148 679.04 354.177 678.911C355.205 678.782 356.62 672.996 362.792 674.411C369.092 675.825 371.535 680.068 373.85 680.068C376.164 679.94 382.465 679.168 385.808 676.339Z" fill="#22272E"/>
<path d="M434.926 652.937C434.926 652.937 438.398 680.711 439.04 682.383C439.683 684.054 446.113 688.683 456.142 688.169C466.172 687.655 470.029 684.697 470.415 684.054C470.801 683.411 470.158 651.651 469.901 649.594C469.644 647.536 437.24 648.051 434.926 652.937Z" fill="#F4C2C9"/>
<path d="M470.286 663.866C470.158 656.794 469.9 650.236 469.772 649.336C469.386 647.279 437.24 647.922 434.797 652.808C434.797 652.808 435.568 658.98 436.468 665.666C448.041 668.367 459.614 667.595 470.286 663.866Z" fill="#22272E"/>
<path d="M438.526 679.939C438.269 681.997 438.141 683.926 438.269 685.983C438.398 687.655 438.526 689.969 438.526 692.798C438.655 698.713 439.169 719.158 440.584 722.115C441.998 725.073 458.2 727.516 470.415 727.644C482.631 727.773 491.632 724.558 493.046 721.215C494.46 717.872 493.689 712.986 489.446 707.585C485.202 702.185 475.43 693.827 474.273 689.84C473.116 685.854 471.315 681.225 470.544 679.939C470.544 679.939 468.872 682.254 467.072 682.768C465.4 683.283 462.957 676.339 457.685 676.082C452.413 675.696 450.099 677.882 446.756 682.768C446.627 682.768 441.998 683.154 438.526 679.939Z" fill="#22272E"/>
<path d="M325.76 317.589C325.76 317.589 322.674 331.605 321.131 350.507C319.588 369.408 324.989 486.549 325.76 495.678C326.532 504.808 329.489 556.884 332.832 582.215C335.533 603.046 333.604 645.093 339.905 651.008C346.205 656.923 365.493 660.138 377.451 656.923C389.409 653.708 394.939 647.793 396.353 642.907C397.767 638.021 392.11 600.86 392.495 581.958C392.881 563.056 392.495 507.251 391.853 494.007C391.853 494.007 397.125 426.371 403.425 410.941C409.726 395.511 418.855 338.677 401.368 322.218C383.623 305.759 327.303 314.889 325.76 317.589Z" fill="#22272E"/>
<path d="M353.919 325.047C353.919 325.047 353.791 350.507 354.819 369.537C355.205 376.738 355.848 383.038 356.748 386.767C359.963 400.14 366.906 401.169 372.178 404.255C377.45 407.469 396.352 483.077 404.067 502.75C404.067 502.75 409.982 548.012 414.611 575.015C419.111 602.017 418.469 634.678 421.94 645.865C425.412 657.051 445.728 659.237 455.629 658.337C465.53 657.437 478.774 653.58 478.389 642.007C478.003 630.435 476.074 597.517 474.403 569.486C472.602 541.454 469.516 499.664 468.745 489.892C468.745 489.892 464.887 443.602 462.83 419.814C460.773 396.025 461.93 371.723 458.844 330.705C455.501 289.558 353.791 302.159 353.919 325.047Z" fill="#22272E"/>
<path d="M354.82 369.538C355.206 376.738 355.849 383.039 356.749 386.768C359.964 400.141 366.907 401.169 372.179 404.255C377.451 407.47 396.353 483.077 404.068 502.751" stroke="#63737A" stroke-width="2.31452" stroke-miterlimit="10" stroke-linecap="round" stroke-linejoin="round"/>
<path d="M372.176 404.255C372.176 404.255 357.132 396.54 350.445 399.369" stroke="#63737A" stroke-width="2.31452" stroke-miterlimit="10" stroke-linecap="round" stroke-linejoin="round"/>
<path d="M349.161 514.451C358.535 514.451 366.134 506.104 366.134 495.806C366.134 485.509 358.535 477.162 349.161 477.162C339.787 477.162 332.188 485.509 332.188 495.806C332.188 506.104 339.787 514.451 349.161 514.451Z" stroke="#63737A" stroke-width="2.31452" stroke-miterlimit="10" stroke-linecap="round" stroke-linejoin="round"/>
<path d="M437.882 513.294C447.54 513.294 455.369 504.947 455.369 494.65C455.369 484.352 447.54 476.005 437.882 476.005C428.224 476.005 420.395 484.352 420.395 494.65C420.395 504.947 428.224 513.294 437.882 513.294Z" stroke="#63737A" stroke-width="2.31452" stroke-miterlimit="10" stroke-linecap="round" stroke-linejoin="round"/>
<path d="M356.621 666.052C356.621 666.052 356.235 663.352 356.621 662.194" stroke="#63737A" stroke-width="2.31452" stroke-miterlimit="10" stroke-linecap="round" stroke-linejoin="round"/>
<path d="M367.293 667.723C367.293 667.723 367.293 662.709 367.293 662.194" stroke="#63737A" stroke-width="2.31452" stroke-miterlimit="10" stroke-linecap="round" stroke-linejoin="round"/>
<path d="M380.277 665.152C380.277 665.152 380.406 661.938 380.277 660.523" stroke="#63737A" stroke-width="2.31452" stroke-miterlimit="10" stroke-linecap="round" stroke-linejoin="round"/>
<path d="M442.002 666.824C442.002 666.824 441.359 663.352 441.359 662.324" stroke="#63737A" stroke-width="2.31452" stroke-miterlimit="10" stroke-linecap="round" stroke-linejoin="round"/>
<path d="M454.855 667.338C454.855 667.338 455.113 662.966 454.855 661.809" stroke="#63737A" stroke-width="2.31452" stroke-miterlimit="10" stroke-linecap="round" stroke-linejoin="round"/>
<path d="M465.918 665.281C465.918 665.281 466.175 662.323 465.918 660.909" stroke="#63737A" stroke-width="2.31452" stroke-miterlimit="10" stroke-linecap="round" stroke-linejoin="round"/>
<path d="M344.531 692.026C344.531 692.026 354.304 684.182 373.463 694.983" stroke="white" stroke-width="2.31452" stroke-miterlimit="10" stroke-linecap="round" stroke-linejoin="round"/>
<path d="M337.203 701.927C337.203 701.927 349.29 692.283 367.292 703.984" stroke="white" stroke-width="2.31452" stroke-miterlimit="10" stroke-linecap="round" stroke-linejoin="round"/>
<path d="M477.232 697.684C477.232 697.684 465.531 692.541 449.715 700.899" stroke="white" stroke-width="2.31452" stroke-miterlimit="10" stroke-linecap="round" stroke-linejoin="round"/>
<path d="M482.503 706.428C482.503 706.428 469.002 700.513 452.672 711.185" stroke="white" stroke-width="2.31452" stroke-miterlimit="10" stroke-linecap="round" stroke-linejoin="round"/>
<path d="M405.996 163.417C405.996 163.417 412.425 165.346 426.055 165.603C439.685 165.86 455.244 169.846 461.287 177.433C467.33 185.019 469.259 240.953 468.359 266.285C467.459 291.487 449.329 329.291 449.329 329.291C449.329 329.291 405.996 334.177 370.507 332.505C335.017 330.705 326.531 322.99 324.088 320.547C321.645 318.104 320.23 312.189 321.645 309.617C323.059 307.174 330.003 287.115 332.574 267.956C335.017 248.668 329.745 222.052 332.188 198.521C334.632 174.99 343.761 168.046 343.761 168.046C343.761 168.046 355.205 164.189 375.007 163.546C394.68 162.646 405.996 163.417 405.996 163.417Z" fill="#FFE779"/>
<path d="M404.042 231.169C408.658 231.169 412.4 227.427 412.4 222.811C412.4 218.195 408.658 214.453 404.042 214.453C399.426 214.453 395.684 218.195 395.684 222.811C395.684 227.427 399.426 231.169 404.042 231.169Z" fill="#F8AB5D"/>
<path d="M376.012 158.519C372.54 158.647 369.84 160.705 367.396 163.148C365.853 164.691 364.439 166.748 363.796 169.449C358.91 193.108 366.368 221.654 375.883 221.397C387.841 221.011 403.914 199.28 416.516 174.592C421.659 164.434 411.758 157.362 405.972 157.362C401.471 157.233 383.212 158.133 376.012 158.519Z" fill="#6DAFA7"/>
<path d="M430.917 108.5C430.917 108.5 430.917 118.915 424.873 129.202C418.83 139.488 411.5 144.889 409.057 149.518C406.614 154.147 407.257 142.06 409.057 136.274C410.857 130.616 421.53 99.6273 430.917 108.5Z" fill="#22272E"/>
<path d="M373.313 147.589C373.313 147.589 371.899 160.062 370.999 164.819C370.099 169.577 368.041 182.049 383.986 182.821C398.259 183.592 405.974 172.534 408.802 167.134C409.703 165.462 410.088 163.662 409.96 161.862C409.574 156.204 408.802 142.317 409.188 131.002C409.703 116.6 373.313 137.431 373.313 147.589Z" fill="#F4C2C9"/>
<path d="M401.598 148.49C394.012 154.533 382.825 157.362 372.281 155.819C371.895 159.162 371.381 162.763 370.995 164.82C370.867 165.463 370.738 166.234 370.609 167.134C383.596 167.777 398.384 161.348 401.598 148.49Z" fill="#E26E85"/>
<path d="M358.134 101.298C358.134 101.298 354.663 106.313 355.177 110.171C355.691 114.028 363.021 127.015 366.75 126.63C370.479 126.244 374.336 110.299 369.964 105.027C365.464 99.7555 359.549 98.8554 358.134 101.298Z" fill="#22272E"/>
<path d="M361.097 108.628C361.097 108.628 361.482 117.629 359.811 127.916C358.139 138.202 356.982 153.632 372.283 157.876C387.585 162.119 405.587 156.333 411.245 135.245C416.902 114.157 421.017 92.8121 401.472 86.64C381.927 80.468 358.782 88.4402 361.097 108.628Z" fill="#F4C2C9"/>
<path d="M367.656 118.915C368.041 120.329 367.913 122.001 367.399 123.544C367.141 124.316 366.756 124.958 366.241 125.601C365.984 125.987 365.727 126.244 365.47 126.502C365.341 126.63 365.213 126.887 365.084 127.016C364.955 127.402 364.955 127.787 365.084 128.173C365.213 128.687 365.598 129.202 365.984 129.716C366.756 130.745 367.913 131.645 369.07 132.416C367.527 132.545 365.984 132.031 364.698 131.002C364.055 130.488 363.412 129.845 363.027 128.945C362.641 128.045 362.512 126.887 363.027 125.987C363.284 125.473 363.541 125.087 363.927 124.83C364.184 124.573 364.441 124.444 364.57 124.187C364.955 123.673 365.47 123.158 365.727 122.644C366.498 121.487 367.141 120.329 367.656 118.915Z" fill="#22272E"/>
<path d="M410.471 124.83C410.471 124.83 408.543 121.872 407.643 115.957C406.871 110.042 400.57 110.428 397.613 99.4985C394.656 88.5689 387.455 102.07 376.011 106.956C364.567 111.843 355.566 103.999 350.937 95.2552C346.437 86.6401 354.152 78.7965 359.424 75.1961C364.695 71.5958 370.225 77.382 380.511 74.8104C390.798 72.2387 407.385 69.0241 415.358 80.5967C423.33 92.1692 431.559 94.9981 431.045 107.599C430.402 120.201 415.743 134.216 414.843 134.345C413.815 134.602 410.471 124.83 410.471 124.83Z" fill="#22272E"/>
<path d="M383.338 112.743C382.952 111.714 382.566 109.785 383.981 108.757C385.395 107.728 388.61 108.114 391.696 110.043C394.396 111.714 395.167 114.414 393.367 114.157C391.567 113.9 390.153 113.129 387.967 113C385.652 112.871 383.723 113.643 383.338 112.743Z" fill="#22272E"/>
<path d="M367.909 111.329C368.167 110.429 368.424 108.757 367.524 107.6C366.752 106.571 364.695 106.7 362.766 108.114C361.094 109.4 360.58 111.843 361.737 111.714C362.895 111.586 363.666 111.071 365.081 111.2C366.495 111.329 367.652 112.1 367.909 111.329Z" fill="#22272E"/>
<path d="M359.04 134.473C359.04 134.473 358.911 136.016 361.097 136.402C363.283 136.659 363.54 133.445 367.269 132.93C369.584 132.673 377.685 133.316 381.028 136.402C384.371 139.488 389 143.088 395.686 141.031C402.373 138.974 406.359 129.587 407.645 115.957C408.802 103.484 413.431 115.571 413.431 118.529C413.431 120.586 411.502 117.629 409.188 125.987C408.159 129.716 409.188 140.26 405.202 147.975C402.116 153.889 393.5 159.933 382.571 160.704C371.641 161.476 362.64 156.976 359.94 149.775C357.24 142.831 358.268 134.988 359.04 134.473Z" fill="#22272E"/>
<path d="M364.311 120.973C365.339 121.101 366.239 120.33 366.368 119.301L366.497 118.273C366.625 117.244 365.854 116.344 364.825 116.215C363.796 116.087 362.896 116.858 362.768 117.887L362.639 118.915C362.51 119.944 363.282 120.844 364.311 120.973Z" fill="#22272E"/>
<path d="M384.752 122.258C385.781 122.387 386.681 121.616 386.809 120.587L386.938 119.558C387.067 118.53 386.295 117.629 385.266 117.501C384.238 117.372 383.338 118.144 383.209 119.172L383.08 120.201C382.952 121.358 383.723 122.258 384.752 122.258Z" fill="#22272E"/>
<path d="M409.059 125.987C409.059 125.987 412.53 118.272 418.574 119.172C424.746 120.2 421.66 136.402 410.473 136.273" fill="#F4C2C9"/>
<path d="M418.185 124.958C417.8 124.572 417.414 124.187 417.157 124.058C416.771 123.93 416.899 124.187 416.642 124.315C416.642 124.444 416.385 125.473 416.257 126.373C416.128 127.273 415.871 128.301 415.356 129.202C415.099 129.716 414.842 130.23 414.328 130.616C413.813 131.002 413.171 131.13 412.656 130.873C413.171 130.616 413.299 130.23 413.428 129.844C413.556 129.459 413.556 129.073 413.685 128.687C413.813 127.787 413.813 126.887 414.071 125.858C414.199 125.344 414.328 124.83 414.456 124.315C414.585 124.058 414.714 123.801 414.842 123.544C414.971 123.415 414.971 123.287 415.228 123.158C415.357 123.029 415.614 122.901 415.742 122.772C415.999 122.644 416.385 122.515 416.9 122.515C417.414 122.644 417.671 122.901 417.928 123.158C418.314 123.801 418.314 124.444 418.185 124.958Z" fill="#22272E"/>
<path d="M373.309 141.674C373.309 141.674 376.78 143.217 380.252 142.574" stroke="#F4C2C9" stroke-width="2.31452" stroke-miterlimit="10" stroke-linecap="round" stroke-linejoin="round"/>
<path d="M367.105 117.275C367.72 110.842 364.779 105.298 360.537 104.893C356.295 104.488 352.359 109.375 351.745 115.809C351.131 122.242 354.071 127.785 358.313 128.19C362.555 128.595 366.491 123.708 367.105 117.275Z" stroke="#22272E" stroke-width="2.31452" stroke-miterlimit="10" stroke-linecap="round" stroke-linejoin="round"/>
<path d="M395.696 119.779C396.31 113.346 392.395 107.709 386.951 107.19C381.508 106.67 376.597 111.464 375.983 117.897C375.369 124.331 379.284 129.967 384.728 130.487C390.171 131.006 395.082 126.213 395.696 119.779Z" stroke="#22272E" stroke-width="2.31452" stroke-miterlimit="10" stroke-linecap="round" stroke-linejoin="round"/>
<path d="M366.754 119.172C366.754 119.172 368.94 115.057 375.883 119.943" stroke="#22272E" stroke-width="2.31452" stroke-miterlimit="10" stroke-linecap="round" stroke-linejoin="round"/>
<path d="M395.555 119.815L410.085 122.901" stroke="#22272E" stroke-width="2.31452" stroke-miterlimit="10" stroke-linecap="round" stroke-linejoin="round"/>
<path d="M451.23 261.772L458.045 275.53C458.045 275.53 450.844 285.303 443.129 303.819C435.414 322.335 429.756 345.223 424.484 351.781C424.484 351.781 429.628 364.125 442.229 369.526C442.229 369.526 466.789 333.522 477.975 317.835C489.162 302.147 499.835 282.088 499.063 272.059C497.906 257.272 486.719 235.412 485.69 229.497C484.662 223.582 451.487 244.67 451.23 261.772Z" fill="#F4C2C9"/>
<path d="M485.562 229.497C484.662 223.711 451.488 244.67 451.23 261.772L452.259 263.701C463.96 254.828 477.076 248.785 491.092 244.542C488.391 237.855 485.948 232.069 485.562 229.497Z" fill="#E26E85"/>
<path d="M430.915 338.408C432.715 341.494 438.887 349.724 453.288 353.067C453.803 353.195 453.931 353.71 453.674 354.095L447.116 362.968C446.988 363.225 446.602 363.225 446.345 363.225C430.272 358.339 426.028 350.238 425.386 348.695C425.257 348.566 425.257 348.309 425.386 348.181L429.757 338.537C430.014 337.894 430.657 337.894 430.915 338.408Z" fill="#22272E"/>
<path d="M440.01 354.017C441.781 351.104 440.954 347.368 438.163 345.67C435.372 343.973 431.673 344.958 429.902 347.87C428.131 350.783 428.958 354.52 431.749 356.217C434.54 357.914 438.238 356.929 440.01 354.017Z" fill="white"/>
<path d="M454.954 176.392C458.04 175.878 461.126 177.035 463.055 179.478C466.012 183.207 470.898 190.408 476.942 202.752C487.1 223.454 494.172 237.084 494.172 237.084C494.172 237.084 458.94 256.114 451.225 261.772C451.225 261.772 436.952 237.727 432.323 227.697C427.822 218.182 429.108 181.15 454.954 176.392Z" fill="#6DAFA7"/>
<path d="M446.855 254.314C446.855 254.314 466.143 239.913 490.188 229.369" stroke="#22272E" stroke-width="2.31452" stroke-miterlimit="10" stroke-linecap="round" stroke-linejoin="round"/>
<path d="M419.469 343.294C419.469 343.294 425.512 365.797 450.329 373.64" stroke="#63737A" stroke-width="2.31452" stroke-miterlimit="10" stroke-linecap="round" stroke-linejoin="round"/>
<path d="M458.047 275.531C458.047 275.531 461.39 271.159 468.591 269.487" stroke="#E26E85" stroke-width="2.31452" stroke-miterlimit="10" stroke-linecap="round" stroke-linejoin="round"/>
<rect x="0.5" y="0.5" width="799" height="799" stroke="black"/>
</svg>
