<svg width="800" height="800" viewBox="0 0 800 800" fill="none" xmlns="http://www.w3.org/2000/svg">
<path d="M213.832 303.298L575.785 265.855C582.488 265.161 588.035 270.708 587.573 277.411L556.601 629.656C555.907 638.439 548.28 644.911 539.728 644.449L188.177 625.496C182.167 625.265 177.776 619.949 178.007 614.17L199.271 318.553C199.964 310.463 205.974 304.222 213.832 303.298Z" fill="#F8AB5D"/>
<path d="M200.659 299.371L566.772 261.465C573.475 260.771 579.253 266.319 578.56 273.253L547.357 629.427C546.664 638.21 539.036 644.913 530.253 644.219L174.542 625.035C168.532 624.804 163.909 619.488 164.372 613.479L185.867 314.394C186.792 306.536 192.801 300.295 200.659 299.371Z" fill="#FFE779"/>
<path d="M238.562 376.105L221.92 377.03L219.84 408.002L236.25 407.539L238.562 376.105Z" fill="#6DAFA7"/>
<path d="M219.841 408.005L218.686 423.26L235.096 422.798L236.252 407.543L219.841 408.005Z" fill="#B8D8C7"/>
<path d="M274.39 334.04L257.748 335.196L254.975 375.182L271.385 374.488L274.39 334.04Z" fill="#6DAFA7"/>
<path d="M254.971 375.182L251.504 422.333L267.914 421.871L271.381 374.489L254.971 375.182Z" fill="#B8D8C7"/>
<path d="M289.642 348.604L287.793 373.567L304.203 372.642L306.052 347.449L289.642 348.604Z" fill="#6DAFA7"/>
<path d="M287.795 373.563L284.328 421.638L300.738 421.176L304.205 372.638L287.795 373.563Z" fill="#B8D8C7"/>
<path d="M337.025 370.791L320.615 371.715L319.459 389.281L335.869 388.357L337.025 370.791Z" fill="#6DAFA7"/>
<path d="M319.458 389.281L317.146 420.715L333.557 420.253L335.868 388.357L319.458 389.281Z" fill="#B8D8C7"/>
<path d="M371.924 342.826L369.843 369.175L368.688 386.51L352.277 387.434L353.433 369.868L355.513 343.981L371.924 342.826Z" fill="#6DAFA7"/>
<path d="M352.279 387.428L349.736 419.786L366.147 419.555L368.689 386.503L352.279 387.428Z" fill="#B8D8C7"/>
<path d="M503.902 323.868L474.548 370.325L448.893 335.424C459.062 327.104 471.312 321.788 484.025 320.863C491.421 320.401 498.124 321.557 503.902 323.868Z" fill="#22272E"/>
<path d="M526.787 366.63L474.551 370.328L503.905 323.87C520.084 330.342 529.56 346.521 526.787 366.63Z" fill="#F4C2C9"/>
<path d="M526.785 366.629C526.785 367.322 526.554 368.016 526.554 368.709C521.7 396.214 496.044 419.096 469.002 421.176L474.549 370.327L526.785 366.629Z" fill="#B8D8C7"/>
<path d="M474.548 370.326L469.001 421.175C467.614 421.406 465.997 421.406 464.61 421.406C437.105 421.406 420.232 398.986 426.011 371.943C429.015 357.844 437.567 344.901 448.893 335.656L474.548 370.326Z" fill="white"/>
<path d="M519.388 460.696L507.369 577.88L205.279 572.333L205.742 563.318L271.152 518.248C274.157 516.168 278.086 516.167 281.091 518.479L305.591 536.507C309.289 539.281 314.836 538.587 317.609 534.658L341.878 502.3C345.345 497.677 352.279 497.677 355.746 502.531L377.241 532.347C380.015 536.276 385.562 537.201 389.491 534.196C392.496 531.884 396.656 531.884 399.661 533.965L414.916 544.828C418.845 547.601 424.392 546.677 427.166 542.517L461.373 489.818C464.147 485.658 469.694 484.734 473.623 487.507L483.562 494.672C487.491 497.446 492.807 496.752 495.581 492.823L519.388 460.696Z" fill="#6DAFA7"/>
<path d="M299.581 497.912H286.406C285.713 497.912 285.251 498.144 284.788 498.606L281.783 501.611C280.859 502.535 279.241 502.535 278.548 501.611L276.236 498.606C275.774 498.144 275.312 497.912 274.618 497.912H261.906C260.751 497.912 259.826 496.988 260.057 495.832L261.906 470.87C261.906 469.714 263.062 468.559 264.217 468.559L301.892 467.172C303.048 467.172 303.972 468.096 303.972 469.252L301.892 495.37C301.892 496.757 300.967 497.912 299.581 497.912Z" fill="white"/>
<path d="M423.007 510.394L409.833 510.163C409.139 510.163 408.677 510.394 408.215 510.856L405.21 513.861C404.286 514.785 402.899 514.785 401.974 513.63L399.663 510.625C399.201 510.163 398.738 509.932 398.045 509.932L385.564 509.7C384.408 509.7 383.715 508.776 383.715 507.389L385.564 482.196C385.564 481.04 386.72 479.884 387.644 479.884L425.319 478.96C426.474 478.96 427.399 479.884 427.399 481.271L425.319 508.083C425.319 509.469 424.163 510.625 423.007 510.394Z" fill="#F4C2C9"/>
<path d="M613.921 291.049L438.261 304.686C433.87 304.917 430.172 301.45 430.403 296.827L437.799 195.36C438.261 189.351 442.884 184.266 448.893 183.573L627.327 159.304C631.95 158.61 635.879 162.54 635.648 167.162L625.709 279.492C625.247 285.502 620.162 290.356 613.921 291.049Z" fill="#6DAFA7"/>
<path d="M608.144 287.353L432.484 300.99C428.092 301.221 424.394 297.754 424.626 293.131L432.022 191.664C432.484 185.655 437.107 180.57 443.116 179.876L621.55 155.608C626.172 154.914 630.102 158.843 629.871 163.466L619.932 275.796C619.47 282.037 614.385 286.89 608.144 287.353Z" fill="#B8D8C7"/>
<path d="M491.192 219.395C490.73 226.329 484.72 232.569 478.017 233.263C471.314 233.956 466.461 228.871 466.923 222.168C467.385 215.235 473.164 208.994 479.866 208.301C486.8 207.376 491.654 212.461 491.192 219.395Z" fill="#22272E"/>
<path d="M487.723 263.541L463.685 265.852C458.369 266.314 454.44 262.154 454.902 256.838C455.827 244.588 466.228 233.494 478.246 232.107C490.265 230.72 499.511 239.965 498.355 252.678C497.893 257.994 493.27 263.079 487.723 263.541Z" fill="#22272E"/>
<path d="M519.617 206.916L594.504 198.133" stroke="#63737A" stroke-width="4.16037" stroke-miterlimit="10" stroke-linecap="round" stroke-linejoin="round"/>
<path d="M517.768 227.484L592.654 219.395" stroke="#63737A" stroke-width="4.16037" stroke-miterlimit="10" stroke-linecap="round" stroke-linejoin="round"/>
<path d="M516.152 248.057L561.223 243.665" stroke="#63737A" stroke-width="4.16037" stroke-miterlimit="10" stroke-linecap="round" stroke-linejoin="round"/>
<rect x="0.5" y="0.5" width="799" height="799" stroke="black"/>
</svg>
