<svg width="800" height="800" viewBox="0 0 800 800" fill="none" xmlns="http://www.w3.org/2000/svg">
<path d="M445.771 222.149C445.771 222.149 456.661 244.296 464.492 264.24C472.323 284.184 473.669 302.661 466.082 306.576C455.437 312.082 443.568 312.449 429.864 286.509C416.16 260.569 426.438 201.96 445.771 222.149Z" fill="#22272E"/>
<path d="M387.158 626.666C387.281 628.134 382.876 652.973 383.12 654.808C383.487 656.644 364.4 661.416 355.223 653.218C355.223 653.218 356.569 620.793 356.569 615.898C356.569 611.126 386.302 612.962 387.158 626.666Z" fill="#F4C2C9"/>
<path d="M383.489 650.403C383.489 650.403 385.569 659.58 388.628 665.208C391.687 670.837 408.572 686.621 406.737 692.005C404.902 697.389 389.362 697.878 377.371 697.389C365.38 696.899 359.996 692.739 355.224 684.174C350.33 675.609 353.634 669.858 354.245 653.217C354.245 653.217 354.612 650.403 355.347 649.914C355.347 649.914 357.794 654.196 360.608 654.563C363.422 654.808 366.236 648.078 373.089 647.344C379.941 646.732 380.797 653.462 381.531 653.462C382.388 653.462 383.244 652.361 383.489 650.403Z" fill="#6DAFA7"/>
<path d="M394.622 676.71C394.622 676.71 386.057 673.04 370.15 679.035" stroke="#22272E" stroke-width="2.20245" stroke-miterlimit="10" stroke-linecap="round" stroke-linejoin="round"/>
<path d="M391.563 669.981C391.563 669.981 382.998 666.31 367.092 672.306" stroke="#22272E" stroke-width="2.20245" stroke-miterlimit="10" stroke-linecap="round" stroke-linejoin="round"/>
<path d="M448.338 622.383C448.46 623.851 444.055 648.69 444.3 650.525C444.667 652.361 425.579 657.133 416.402 648.935C416.402 648.935 417.748 616.51 417.748 611.615C417.748 606.843 447.604 608.679 448.338 622.383Z" fill="#F4C2C9"/>
<path d="M444.79 645.999C444.79 645.999 446.87 655.176 449.929 660.804C452.988 666.432 469.873 682.217 468.038 687.601C466.203 692.984 450.663 693.474 438.672 692.984C426.681 692.495 421.297 688.335 416.525 679.77C411.631 671.204 414.934 665.454 415.546 648.813C415.546 648.813 415.913 645.999 416.647 645.509C416.647 645.509 419.095 649.792 421.909 650.159C424.723 650.404 427.537 643.674 434.389 642.94C441.241 642.328 442.098 649.058 442.832 649.058C443.689 649.18 444.545 648.079 444.79 645.999Z" fill="#6DAFA7"/>
<path d="M455.804 672.428C455.804 672.428 447.239 668.757 431.332 674.753" stroke="#22272E" stroke-width="2.20245" stroke-miterlimit="10" stroke-linecap="round" stroke-linejoin="round"/>
<path d="M452.866 665.698C452.866 665.698 444.301 662.027 428.395 668.023" stroke="#22272E" stroke-width="2.20245" stroke-miterlimit="10" stroke-linecap="round" stroke-linejoin="round"/>
<path d="M332.466 358.333C332.466 358.333 328.795 379.746 339.318 430.035C342.499 445.33 345.069 465.275 346.904 486.198C351.186 533.918 347.516 582.616 345.313 601.827C342.132 629.357 356.203 634.619 371.376 635.842C386.548 637.066 392.177 630.091 392.911 622.383C393.645 614.674 402.699 511.893 406.125 488.645C409.674 465.397 409.919 433.584 408.817 428.934C407.716 424.285 420.931 425.263 415.425 367.755C410.041 310.002 336.871 343.039 332.466 358.333Z" fill="#FFE779"/>
<path d="M437.816 361.148C437.816 361.148 456.169 439.702 458.372 464.173C460.574 488.645 456.047 608.679 456.169 615.898C456.414 623.117 449.684 629.602 433.288 629.969C416.892 630.336 410.285 619.446 410.407 613.573C410.774 593.996 411.019 516.053 409.796 504.062C408.572 492.071 390.708 433.094 387.159 427.466C383.611 421.715 375.78 379.501 391.197 372.16C406.614 364.818 430.841 353.806 437.816 361.148Z" fill="#FFE779"/>
<path d="M414.688 204.407C414.688 204.407 383.365 203.306 368.804 201.348C354.243 199.39 327.08 199.268 316.312 221.17C305.545 243.072 338.949 253.84 338.092 269.379C337.358 284.796 335.033 311.226 335.033 311.226C335.033 311.226 331.974 340.714 328.548 351.849C325.122 362.983 331.607 368.612 334.666 369.591C337.725 370.57 369.538 377.055 393.643 375.709C417.747 374.363 437.447 368.856 439.16 363.473C440.995 358.089 438.059 342.305 439.16 325.786C440.261 309.268 443.443 280.391 443.443 269.379C443.443 258.367 448.826 230.469 443.443 218.967C438.059 207.466 425.089 204.774 414.688 204.407Z" fill="#6DAFA7"/>
<path d="M373.578 191.437C373.578 191.437 368.561 192.171 366.848 195.475C365.747 197.555 364.401 201.348 364.523 205.264C364.646 209.179 370.519 219.947 387.527 221.904C404.657 223.862 410.653 215.542 411.387 212.36C412.121 209.179 410.897 200.614 409.674 199.146C408.572 197.555 406.737 195.964 400.619 195.23C394.624 194.251 375.536 190.703 373.578 191.437Z" fill="#22272E"/>
<path d="M398.172 265.831C398.172 265.831 403.189 260.569 405.758 256.654C408.328 252.739 411.754 248.456 414.568 246.865C417.382 245.152 423.255 244.173 424.846 243.317C426.559 242.46 428.272 245.519 424.846 248.334C421.42 251.148 422.888 259.346 418.116 263.751C413.222 268.156 399.885 270.848 398.172 265.831Z" fill="#B28D93"/>
<path d="M433.778 193.394L495.569 189.356C497.404 189.234 498.872 190.825 498.627 192.66L483.455 285.897C483.088 287.977 481.497 289.568 479.417 289.813L420.318 297.888C418.483 298.133 416.892 296.542 417.014 294.707L429.495 197.554C429.617 195.229 431.453 193.516 433.778 193.394Z" fill="#FFE779"/>
<path d="M477.462 193.64L454.091 194.863C453.235 194.863 452.5 194.129 452.623 193.272L452.99 190.825C453.112 189.846 453.969 189.112 454.825 189.112L478.196 187.889C479.052 187.889 479.786 188.623 479.664 189.479L479.297 191.927C479.175 192.905 478.318 193.517 477.462 193.64Z" fill="#6DAFA7"/>
<path d="M341.152 288.1C341.152 288.1 348.861 257.143 350.819 245.274C352.777 233.406 345.313 220.191 333.811 217.254C320.352 213.951 316.191 221.047 316.191 221.047C316.191 221.047 310.808 230.469 305.424 260.08C300.04 289.69 296.981 317.221 316.191 323.951C335.402 330.68 374.801 308.778 387.404 299.357C400.007 290.057 404.657 286.02 407.104 285.408C409.551 284.796 419.217 287.366 424.356 281.615C429.495 275.864 433.9 271.337 434.39 271.337C434.879 271.337 447.115 273.172 449.195 271.581C451.52 269.746 448.094 267.911 445.647 267.544C443.322 267.176 436.225 264.852 436.225 264.852C436.225 264.852 441.731 263.139 445.647 261.67C449.562 260.08 453.6 259.346 453.355 257.265C453.11 255.063 450.663 255.43 448.216 255.308C445.769 255.185 442.465 255.919 442.465 255.919C442.465 255.919 449.195 254.084 450.908 252.126C452.743 250.046 451.153 248.456 447.604 248.823C444.79 249.067 440.875 250.046 440.875 250.046C440.875 250.046 447.727 249.434 447.237 246.376C446.87 244.295 440.752 245.397 436.714 245.886C432.677 246.376 427.538 247.354 423.133 248.456C420.196 249.19 417.504 250.046 415.669 250.903C411.386 252.983 400.619 263.261 398.906 265.341C397.193 267.421 375.658 270.847 358.038 274.763C340.418 278.556 330.14 281.859 324.756 286.876L341.152 288.1Z" fill="#B28D93"/>
<path d="M436.958 245.764C432.92 246.254 427.781 247.232 423.376 248.334C420.439 249.068 417.747 249.924 415.912 250.781" stroke="#896068" stroke-width="2.20245" stroke-miterlimit="10" stroke-linecap="round" stroke-linejoin="round"/>
<path d="M402.578 288.1C399.519 290.302 394.869 293.973 387.528 299.357C374.925 308.656 335.525 330.558 316.315 323.951C297.227 317.221 300.286 289.69 305.548 260.08C310.931 230.469 316.315 221.047 316.315 221.047C316.315 221.047 320.475 213.951 333.935 217.254C345.314 220.068 352.9 233.283 350.943 245.274C349.719 252.738 346.171 267.911 343.723 278.066C348.006 276.843 352.9 275.742 358.529 274.518C371.009 271.826 385.57 269.257 393.523 267.299C393.401 267.666 391.81 274.273 394.869 280.514C397.683 286.876 402.578 288.1 402.578 288.1Z" fill="#22272E"/>
<path d="M304.321 312.327C304.321 312.327 304.076 305.719 312.152 306.576C320.105 307.432 341.151 315.018 335.155 323.951" stroke="#63737A" stroke-width="2.20245" stroke-miterlimit="10" stroke-linecap="round" stroke-linejoin="round"/>
<path d="M383.733 269.501C383.733 269.501 381.898 276.598 385.201 283.817C388.505 290.914 394.501 294.34 394.501 294.34" stroke="#63737A" stroke-width="2.20245" stroke-miterlimit="10" stroke-linecap="round" stroke-linejoin="round"/>
<path d="M372.599 172.226C372.599 172.226 372.232 187.888 371.253 197.677C370.274 207.465 388.505 211.503 397.315 209.79C406.125 208.077 407.471 205.385 407.471 205.385C407.471 205.385 406.737 192.171 407.471 187.399C408.205 182.627 372.721 167.087 372.599 172.226Z" fill="#B28D93"/>
<path d="M407.227 201.837C407.105 199.879 407.105 197.309 407.105 194.74C399.641 195.107 393.034 188.255 387.65 182.626C386.181 194.373 396.337 201.959 407.227 201.837Z" fill="#896068"/>
<path d="M421.663 151.425C421.663 151.425 427.781 148.244 429.616 138.21C431.452 128.055 429.249 113.249 422.397 111.536C415.423 109.701 420.317 130.869 415.668 134.784C411.018 138.578 421.663 145.919 421.663 151.425Z" fill="#22272E"/>
<path d="M421.421 134.173C421.421 134.173 423.501 142.615 422.767 154.974C422.033 167.454 424.48 188.5 410.898 194.618C397.316 200.736 379.33 194.373 371.988 174.306C364.647 154.239 364.524 134.295 375.781 125.73C387.161 117.042 417.383 118.266 421.421 134.173Z" fill="#B28D93"/>
<path d="M373.455 158.278C373.455 158.278 377.615 156.932 377.737 149.468C377.737 141.882 381.775 135.641 389.851 137.844C397.927 140.046 409.184 146.287 415.791 146.164C423.622 145.919 426.069 137.477 426.681 127.076C427.293 116.553 423.867 110.191 419.829 111.292C415.791 112.393 412.365 115.819 407.348 109.457C400.496 100.892 394.378 101.136 389.484 105.174C380.919 112.393 382.876 116.186 375.046 113.127C370.518 111.292 367.337 111.782 365.134 120.224C362.932 128.667 363.789 130.992 358.527 130.258C353.143 129.523 356.569 157.421 365.134 163.661C365.257 163.661 371.864 157.666 373.455 158.278Z" fill="#22272E"/>
<path d="M415.547 160.358C416.036 161.704 416.281 163.05 416.648 164.273C417.015 165.497 417.382 166.843 417.749 167.822C417.994 168.434 418.361 169.29 418.361 170.147C418.361 171.003 418.239 171.982 417.627 172.594C416.526 173.94 414.935 174.307 413.467 174.184C414.69 173.45 415.792 172.594 416.159 171.737C416.526 170.881 416.281 169.902 415.669 168.801C415.057 167.332 414.813 165.986 414.813 164.518C414.935 163.05 415.18 161.704 415.547 160.358Z" fill="#22272E"/>
<path d="M403.678 149.712C404.779 149.835 405.636 148.856 405.269 147.755C404.902 146.654 404.657 145.675 403.433 145.43C400.864 144.818 395.358 145.308 392.054 147.755C388.75 150.202 391.932 150.691 396.092 149.835C399.028 149.345 401.72 149.468 403.678 149.712Z" fill="#22272E"/>
<path d="M398.049 174.307C404.739 174.307 410.163 168.664 410.163 161.704C410.163 154.744 404.739 149.101 398.049 149.101C391.359 149.101 385.936 154.744 385.936 161.704C385.936 168.664 391.359 174.307 398.049 174.307Z" stroke="#22272E" stroke-width="2.20245" stroke-miterlimit="10" stroke-linecap="round" stroke-linejoin="round"/>
<path d="M423.378 173.206C427.703 173.206 431.209 168.056 431.209 161.704C431.209 155.352 427.703 150.202 423.378 150.202C419.053 150.202 415.547 155.352 415.547 161.704C415.547 168.056 419.053 173.206 423.378 173.206Z" stroke="#22272E" stroke-width="2.20245" stroke-miterlimit="10" stroke-linecap="round" stroke-linejoin="round"/>
<path d="M415.793 159.135C415.793 159.135 414.202 156.932 409.92 159.135" stroke="#22272E" stroke-width="2.20245" stroke-miterlimit="10" stroke-linecap="round" stroke-linejoin="round"/>
<path d="M386.426 158.155L371.865 157.054" stroke="#22272E" stroke-width="2.20245" stroke-miterlimit="10" stroke-linecap="round" stroke-linejoin="round"/>
<path d="M405.393 182.872C405.393 182.872 399.887 182.505 397.072 177.121" stroke="#22272E" stroke-width="2.20245" stroke-miterlimit="10" stroke-linecap="round" stroke-linejoin="round"/>
<path d="M399.883 166.353C400.985 166.476 401.964 165.619 402.086 164.396L402.208 163.172C402.331 162.071 401.474 161.092 400.25 160.97C399.149 160.847 398.17 161.704 398.048 162.927L397.926 164.151C397.803 165.375 398.66 166.231 399.883 166.353Z" fill="#22272E"/>
<path d="M417.993 166.721C419.094 166.843 420.073 165.986 420.195 164.763L420.318 163.539C420.44 162.438 419.584 161.459 418.36 161.337C417.259 161.214 416.28 162.071 416.158 163.295L416.035 164.518C416.035 165.619 416.892 166.598 417.993 166.721Z" fill="#22272E"/>
<path d="M372.965 158.645C372.965 158.645 369.417 152.527 364.645 154.117C359.873 155.708 359.995 163.05 362.32 167.455C365.257 173.083 371.986 174.796 375.535 174.184" fill="#B28D93"/>
<path d="M364.523 163.05C364.278 162.438 364.156 161.826 364.278 161.092C364.278 160.725 364.523 160.358 364.768 159.991C365.135 159.624 365.624 159.379 366.114 159.379C366.97 159.379 367.827 159.746 368.316 160.358C368.806 160.847 369.173 161.459 369.54 162.071C370.152 163.172 370.396 164.273 370.763 165.252C371.008 165.742 371.131 166.109 371.375 166.353C371.62 166.598 372.232 166.598 372.844 166.598C372.476 167.087 371.865 167.577 371.008 167.455C370.152 167.21 369.662 166.72 369.173 166.231C368.439 165.13 367.949 164.151 367.46 163.172C366.97 162.193 366.481 161.459 365.991 161.337C365.869 161.337 365.747 161.214 365.624 161.337C365.502 161.337 365.38 161.459 365.257 161.704C365.013 161.826 364.768 162.438 364.523 163.05Z" fill="#22272E"/>
<path d="M436.959 264.974C436.959 264.974 434.634 264.362 432.921 264.24C431.208 263.995 429.984 264.24 429.984 264.24" stroke="#896068" stroke-width="2.20245" stroke-miterlimit="10" stroke-linecap="round" stroke-linejoin="round"/>
<path d="M442.59 255.797C442.59 255.797 430.109 258.489 429.008 259.346" stroke="#896068" stroke-width="2.20245" stroke-miterlimit="10" stroke-linecap="round" stroke-linejoin="round"/>
<path d="M441.119 249.924C441.119 249.924 432.554 251.759 432.064 251.882C430.474 252.371 427.537 253.228 427.537 253.228" stroke="#896068" stroke-width="2.20245" stroke-miterlimit="10" stroke-linecap="round" stroke-linejoin="round"/>
<path d="M343.721 408.623C343.721 408.623 358.037 402.506 358.037 381.705" stroke="#22272E" stroke-width="2.20245" stroke-miterlimit="10" stroke-linecap="round" stroke-linejoin="round"/>
</svg>
