<svg width="800" height="800" viewBox="0 0 800 800" fill="none" xmlns="http://www.w3.org/2000/svg">
<path d="M452.233 405.067L460.679 602.54C460.825 604.725 459.223 606.618 457.184 606.618C455.437 606.618 453.835 605.016 453.689 602.977L438.98 404.921H452.233V405.067Z" fill="#B8D8C7"/>
<path d="M470.437 381.912L478.447 569.773C478.593 571.958 476.991 573.705 475.097 573.705C473.35 573.705 471.894 572.249 471.748 570.356L457.768 381.912H470.437Z" fill="#B8D8C7"/>
<path d="M319.856 405.212L293.352 601.083C293.06 603.268 294.517 605.306 296.41 605.452C298.157 605.598 299.905 604.141 300.196 602.248L332.963 406.377L319.856 405.212Z" fill="#B8D8C7"/>
<path d="M496.651 195.652C496.651 195.652 505.243 199.584 497.816 234.098C490.389 268.612 476.7 314.339 478.593 366.038C480.341 417.736 446.555 439.143 391.07 435.211C335.586 431.279 422.672 274.582 422.672 274.582C422.672 274.582 485.147 181.526 496.651 195.652Z" fill="#B8D8C7"/>
<path d="M347.815 206.137C349.271 199.73 352.329 189.39 363.834 185.167C375.339 180.944 496.211 182.982 497.813 197.982C499.269 212.836 467.813 282.884 467.959 332.98C468.105 382.931 476.988 424.581 418.008 432.882C359.028 441.183 295.825 428.95 302.233 408.853C308.641 388.902 328.155 361.815 334.126 306.622C340.097 251.428 342.427 230.894 347.815 206.137Z" fill="white"/>
<path d="M320.436 366.477C320.436 366.477 276.019 422.107 274.709 440.602C273.398 459.097 347.669 458.369 347.814 454.583C348.106 450.796 360.338 429.243 366.164 428.806C369.95 428.515 375.775 428.224 376.795 432.884C378.251 439.437 376.795 453.126 376.795 453.126L440.726 483.126L446.988 456.476C446.988 456.476 457.764 439.146 457.764 410.603C457.764 382.059 449.463 339.973 449.463 339.973C449.463 339.973 327.718 352.788 320.436 366.477Z" fill="#22272E"/>
<path d="M372.861 634.726C372.861 634.726 368.929 637.347 368.055 643.9C367.181 650.454 363.686 660.211 361.356 668.22C359.026 676.23 352.181 691.812 355.677 694.434C360.628 698.366 373.735 701.133 388.88 702.443C404.025 703.754 411.307 702.88 413.637 698.511C415.821 694.142 411.016 669.094 410.142 659.628C409.268 650.162 410.142 640.26 408.394 636.91C406.647 633.706 379.851 625.697 372.861 634.726Z" fill="#22272E"/>
<path d="M319.127 626.28C319.127 626.28 317.379 629.047 315.631 634.872C313.884 640.551 298.447 664.435 298.593 672.007C298.884 679.726 313.447 679.726 319.127 680.017C325.971 680.308 343.301 678.997 348.98 675.065C354.66 671.133 354.806 657.59 355.243 653.221C356.116 644.483 355.971 639.241 353.932 626.134C353.349 621.911 346.942 620.746 343.447 623.222C339.952 625.552 321.748 620.6 319.127 626.28Z" fill="#22272E"/>
<path d="M375.192 617.396C375.192 617.396 372.571 636.474 372.28 638.804C371.988 640.988 376.212 646.231 388.444 648.852C398.93 651.182 405.192 647.25 406.211 645.794C407.231 644.338 412.036 620.018 413.638 614.484C415.24 609.095 378.542 610.843 375.192 617.396Z" fill="#F4C2C9"/>
<path d="M315.631 613.319C315.631 613.319 319.563 626.716 319.563 628.464C319.563 630.212 326.262 633.852 335.582 633.561C344.757 633.27 352.766 628.173 352.766 625.697C352.766 623.221 349.999 599.484 349.999 599.484C349.999 599.484 316.505 606.62 315.631 613.319Z" fill="#F4C2C9"/>
<path d="M369.805 668.658C369.805 668.658 387.717 662.687 404.61 676.668" stroke="white" stroke-width="2.62132" stroke-miterlimit="10" stroke-linecap="round" stroke-linejoin="round"/>
<path d="M374.467 658.027C374.467 658.027 392.088 654.823 403.301 663.998" stroke="white" stroke-width="2.62132" stroke-miterlimit="10" stroke-linecap="round" stroke-linejoin="round"/>
<path d="M373.008 642.444C373.008 642.444 375.92 644.192 379.27 642.444C382.619 640.697 386.114 637.493 392.959 638.804C401.26 640.405 402.862 648.998 407.376 645.211C407.376 645.211 407.522 651.036 396.163 651.619C384.804 652.201 373.153 644.337 373.008 642.444Z" fill="#22272E"/>
<path d="M318.981 628.755C318.981 628.755 320.583 630.502 323.205 628.026C325.826 625.696 325.535 622.784 332.671 621.764C337.331 621.182 341.263 624.531 344.758 627.298C348.253 630.065 351.748 626.279 352.476 623.075C352.476 623.075 354.806 631.376 351.602 635.454C349.272 638.512 340.243 636.327 334.855 636.473C329.612 636.619 317.816 633.997 317.816 633.997L318.981 628.755Z" fill="#22272E"/>
<path d="M309.078 650.162C309.078 650.162 322.767 641.716 341.553 653.075" stroke="white" stroke-width="2.62132" stroke-miterlimit="10" stroke-linecap="round" stroke-linejoin="round"/>
<path d="M315.631 641.425C315.631 641.425 327.572 632.978 344.029 644.337" stroke="white" stroke-width="2.62132" stroke-miterlimit="10" stroke-linecap="round" stroke-linejoin="round"/>
<path d="M393.979 424.437C393.979 424.437 376.358 426.913 375.193 470.893C374.028 514.873 370.387 585.503 365.436 595.406C360.63 605.309 362.232 616.959 371.407 621.619C380.581 626.279 391.212 631.667 404.61 630.211C418.008 628.9 424.416 621.037 424.416 605.454C424.416 589.726 430.095 546.183 438.833 510.65C447.425 475.116 453.396 440.02 435.629 427.35C417.862 414.68 393.979 424.437 393.979 424.437Z" fill="#22272E"/>
<path d="M289.563 420.943C289.563 420.943 263.059 424.292 278.059 489.971C293.058 555.504 303.107 590.164 300.777 600.212C298.447 610.261 305.728 615.649 314.029 617.542C322.184 619.435 338.203 619.144 347.232 614.047C356.407 608.95 357.281 600.795 353.64 585.212C349.999 569.63 349.126 507.301 348.689 485.893C348.252 464.486 353.64 428.079 327.718 417.593C301.65 406.962 289.563 420.943 289.563 420.943Z" fill="#22272E"/>
<path d="M306.165 464.339C317.827 464.339 327.281 455.016 327.281 443.514C327.281 432.013 317.827 422.689 306.165 422.689C294.503 422.689 285.049 432.013 285.049 443.514C285.049 455.016 294.503 464.339 306.165 464.339Z" stroke="#63737A" stroke-width="2.62132" stroke-miterlimit="10" stroke-linecap="round" stroke-linejoin="round"/>
<path d="M410.581 480.358C422.243 480.358 431.697 471.035 431.697 459.533C431.697 448.032 422.243 438.708 410.581 438.708C398.919 438.708 389.465 448.032 389.465 459.533C389.465 471.035 398.919 480.358 410.581 480.358Z" stroke="#63737A" stroke-width="2.62132" stroke-miterlimit="10" stroke-linecap="round" stroke-linejoin="round"/>
<path d="M459.223 149.344C459.223 149.344 467.815 146.577 470.582 140.315C473.495 134.052 473.058 115.121 467.961 109.15C462.864 103.179 448.592 105.8 439.563 103.179C430.534 100.558 424.272 94.7326 407.525 97.9365C390.778 101.14 375.341 116.14 374.613 124.295C373.885 132.451 378.69 135.8 376.943 141.043C375.05 146.14 372.865 151.382 381.021 159.392C389.176 167.402 385.972 172.644 392.088 172.644C398.205 172.644 387.137 154.004 395.001 137.984C403.011 122.111 454.854 131.286 459.223 149.344Z" fill="#22272E"/>
<path d="M290 245.75C290 245.75 270.777 271.089 267.428 290.167C264.078 309.244 274.418 321.623 287.233 323.661C300.049 325.7 343.009 269.633 345.048 258.274C346.941 246.915 296.117 236.866 290 245.75Z" fill="#F4C2C9"/>
<path d="M351.309 196.235C351.309 196.235 341.552 193.468 318.105 213.711C298.446 230.604 282.863 246.769 282.863 246.769C282.863 246.769 324.222 284.341 329.901 294.098C329.901 294.098 355.387 264.681 357.571 234.973C359.755 205.119 354.95 195.07 351.309 196.235Z" fill="#63737A"/>
<path d="M290 240.07C290 240.07 319.854 264.099 336.019 286.234" stroke="#22272E" stroke-width="2.62132" stroke-miterlimit="10" stroke-linecap="round" stroke-linejoin="round"/>
<path d="M339.806 208.615C343.447 200.46 350.728 194.489 359.757 194.198C368.495 193.907 381.747 194.052 400.97 195.363C442.329 198.275 474.222 210.071 482.668 216.188C491.115 222.304 480.775 260.168 472.037 281.138C463.3 302.109 453.834 321.186 452.232 328.468C450.775 335.749 456.455 370.118 453.397 377.108C450.339 384.098 417.863 396.185 376.505 393.855C335.146 391.38 317.962 378.127 316.651 373.176C315.486 368.37 320.583 325.264 323.059 310.555C325.534 295.847 327.282 263.517 327.573 258.857C330.195 228.858 336.02 217.062 339.806 208.615Z" fill="#22272E"/>
<path d="M520.386 276.331C510.046 258.564 474.221 293.952 475.095 301.816C475.095 301.816 481.503 315.214 481.503 316.67C481.503 318.127 475.095 354.971 470.726 375.65C469.415 382.058 465.483 389.194 460.678 396.038C472.037 400.262 483.541 403.757 495.337 406.087C510.774 379.145 528.541 337.932 531.308 327.738C536.405 308.661 530.725 294.098 520.386 276.331Z" fill="#F4C2C9"/>
<path d="M481.504 316.67C481.504 316.67 484.125 310.408 490.824 307.641" stroke="#E26E85" stroke-width="2.62132" stroke-miterlimit="10" stroke-linecap="round" stroke-linejoin="round"/>
<path d="M482.667 216.041C482.667 216.041 494.463 222.594 506.113 242.254C517.618 261.914 526.793 279.826 526.793 279.826L475.531 306.622C475.531 306.622 460.677 282.302 454.561 271.38C448.444 260.458 447.862 238.031 456.454 225.507C464.755 213.128 478.589 213.274 482.667 216.041Z" fill="#63737A"/>
<path d="M470.727 298.904C470.727 298.904 500.581 279.244 522.571 271.962" stroke="#22272E" stroke-width="2.62132" stroke-miterlimit="10" stroke-linecap="round" stroke-linejoin="round"/>
<path d="M467.815 383.806C467.815 383.806 447.281 385.845 442.621 388.466C438.106 391.087 430.971 406.961 431.553 408.417C431.99 409.873 436.504 408.417 436.504 408.417C436.504 408.417 435.922 411.475 439.417 411.475C442.912 411.475 443.495 410.019 443.495 410.019C443.495 410.019 442.912 413.805 446.99 413.66C451.067 413.368 459.514 406.087 459.514 406.087C459.514 406.087 454.999 414.097 457.766 415.99C460.388 417.883 466.504 411.184 467.378 409.873C468.252 408.563 491.407 422.543 500.29 396.767C500.29 396.767 483.543 378.563 467.815 383.806Z" fill="#F4C2C9"/>
<path d="M381.457 193.323C381.457 193.323 374.467 194.051 373.01 195.362C371.554 196.673 367.185 208.032 373.01 219.828C378.836 231.478 395.728 237.449 412.913 232.061C430.097 226.818 437.378 210.216 436.796 205.119C436.213 200.022 433.155 198.42 426.893 196.818C420.631 195.216 381.457 193.323 381.457 193.323Z" fill="#63737A"/>
<path d="M389.757 156.77C389.757 156.77 390.194 170.168 386.845 181.09C385.389 186.042 383.059 190.556 381.602 193.177C380.437 195.362 379.563 197.692 379.272 200.022C378.398 205.993 378.835 216.332 389.757 221.284C407.233 229.148 425.582 214.73 428.058 203.226C428.058 203.226 429.077 191.284 431.699 186.478C434.32 181.818 398.204 152.256 389.757 156.77Z" fill="#F4C2C9"/>
<path d="M426.894 206.576C427.476 205.411 427.768 204.246 428.059 203.227C428.059 203.227 428.205 200.897 428.787 197.839C416.7 195.8 406.069 188.81 399.516 179.344C400.389 193.615 412.622 204.538 426.894 206.576Z" fill="#E26E85"/>
<path d="M280.099 321.331C280.099 321.331 287.235 329.341 318.982 321.331C350.584 313.322 391.651 291.186 397.767 289.002C403.884 286.672 406.214 287.837 412.767 287.837C428.35 288.128 434.757 286.671 436.796 285.652C440.874 283.613 442.767 280.555 442.039 277.934C441.311 275.312 443.495 274.584 443.932 272.254C444.66 267.885 443.058 267.303 443.495 267.012C443.932 266.72 448.301 265.41 449.174 264.245C451.359 260.895 449.611 258.711 449.611 258.711C449.611 258.711 455.145 257.254 461.699 256.672C468.252 256.089 472.184 253.759 470.291 251.429C468.398 249.099 455.582 249.827 447.281 249.827C438.98 249.827 436.068 249.973 435.485 249.682C432.282 248.662 426.019 246.769 422.961 247.06C419.903 247.352 416.408 249.827 410.437 253.031C404.466 256.235 397.767 258.856 389.03 261.041C382.331 262.788 337.331 266.283 309.516 271.526C305.584 272.254 301.944 272.982 298.885 273.856C295.099 274.876 292.041 275.895 290.002 276.914C274.856 285.07 261.604 306.477 280.099 321.331Z" fill="#F4C2C9"/>
<path d="M449.467 258.711C449.467 258.711 445.681 258.129 444.37 257.838C442.914 257.546 440.875 257.546 440.875 257.546" stroke="#E26E85" stroke-width="2.62132" stroke-miterlimit="10" stroke-linecap="round" stroke-linejoin="round"/>
<path d="M443.496 267.012C443.496 267.012 440.875 267.74 439.855 268.177" stroke="#E26E85" stroke-width="2.62132" stroke-miterlimit="10" stroke-linecap="round" stroke-linejoin="round"/>
<path d="M442.039 276.332C442.039 276.332 439.272 277.934 438.107 278.371" stroke="#E26E85" stroke-width="2.62132" stroke-miterlimit="10" stroke-linecap="round" stroke-linejoin="round"/>
<path d="M397.767 289.002C386.554 275.749 392.233 260.167 392.233 260.167L379.709 262.497C372.573 280.118 385.243 294.972 385.243 294.972L397.767 289.002Z" fill="#22272E"/>
<path d="M435.341 249.683C435.341 249.683 427.477 249.828 426.166 250.411" stroke="#E26E85" stroke-width="2.62132" stroke-miterlimit="10" stroke-linecap="round" stroke-linejoin="round"/>
<path d="M309.514 271.526C305.582 272.255 301.942 272.983 298.883 273.856C295.097 274.876 292.039 275.895 290 276.915" stroke="#E26E85" stroke-width="2.62132" stroke-miterlimit="10" stroke-linecap="round" stroke-linejoin="round"/>
<path d="M391.942 276.332C391.942 272.109 388.593 268.759 384.37 268.759C380.146 268.759 376.797 272.109 376.797 276.332C376.797 280.555 380.146 283.905 384.37 283.905C388.447 283.759 391.942 280.41 391.942 276.332Z" fill="white"/>
<path d="M460.968 124.586C460.968 124.586 464.171 134.198 459.657 148.47C455.142 162.887 452.084 168.13 448.298 179.489C444.366 190.848 435.337 200.751 419.754 199.149C403.444 197.401 390.629 182.547 389.901 164.052C389.172 145.557 387.57 116.723 409.56 111.625C431.259 106.674 457.181 119.635 460.968 124.586Z" fill="#F4C2C9"/>
<path d="M446.55 155.46C446.55 157.208 446.55 158.809 446.841 160.411C446.987 161.139 447.133 162.013 447.278 162.741C447.424 163.178 447.424 163.47 447.569 163.906L447.715 164.489L447.861 165.217C448.152 166.237 448.152 167.256 447.861 168.421C447.424 169.44 446.696 170.46 445.822 170.897C444.074 171.916 442.181 172.062 440.434 171.625C442.036 170.897 443.637 170.169 444.511 169.295C445.531 168.275 445.676 167.256 445.239 165.945L445.094 165.508L444.948 164.78C444.802 164.343 444.803 163.906 444.657 163.47C444.511 162.596 444.511 161.576 444.511 160.703C444.948 158.664 445.531 156.771 446.55 155.46Z" fill="#22272E"/>
<path d="M393.688 147.595C393.688 147.595 398.494 146.43 401.552 133.761C401.552 133.761 402.572 130.848 407.669 134.78C412.62 138.712 421.212 145.12 436.066 138.129C450.921 131.139 452.814 128.809 454.853 131.285C454.853 131.285 457.037 142.353 464.61 138.858C472.182 135.508 468.105 115.703 443.057 109.295C418.008 102.887 400.242 105.072 392.232 119.052C384.077 133.178 387.281 146.722 393.688 147.595Z" fill="#22272E"/>
<path d="M439.415 142.935C440.288 141.916 441.162 139.586 439.997 137.984C438.395 135.508 427.473 133.76 424.852 135.945C422.23 138.129 428.784 138.42 431.842 139.877C434.9 141.479 438.541 143.954 439.415 142.935Z" fill="#22272E"/>
<path d="M452.958 149.198C453.25 148.324 454.123 147.305 455.143 146.868C456.745 146.14 460.094 149.489 459.512 151.673C458.929 153.858 457.327 151.382 455.871 151.091C454.415 150.508 452.522 150.072 452.958 149.198Z" fill="#22272E"/>
<path d="M431.115 151.382C431.552 150.217 430.97 148.906 429.659 148.469C428.494 148.032 427.183 148.615 426.746 149.925L426.455 150.654L430.678 152.255L431.115 151.382Z" fill="#22272E"/>
<path d="M452.957 159.536C453.394 158.371 452.811 157.061 451.501 156.624C450.336 156.187 449.025 156.77 448.588 158.08L448.297 158.808L452.52 160.41L452.957 159.536Z" fill="#22272E"/>
<path d="M396.308 150.071C396.308 150.071 393.833 140.168 386.551 140.314C379.27 140.46 375.92 160.265 392.668 163.323" fill="#F4C2C9"/>
<path d="M385.387 149.343C385.387 148.615 385.532 148.032 386.115 147.304C386.406 147.013 386.843 146.722 387.426 146.722C387.862 146.722 388.445 146.867 388.736 147.013C388.882 147.013 389.173 147.304 389.319 147.45C389.61 147.595 389.61 147.887 389.756 148.032C389.901 148.324 389.901 148.469 390.047 148.615C390.047 148.76 390.192 149.052 390.192 149.197C390.338 149.926 390.338 150.508 390.338 151.091C390.338 152.256 390.338 153.421 390.338 154.44C390.338 154.877 390.484 155.314 390.775 155.751C391.066 156.188 391.503 156.479 392.086 156.77C391.503 157.061 390.775 157.061 390.047 156.77C389.319 156.479 388.736 155.751 388.445 155.023C387.862 153.712 387.717 152.401 387.717 151.091C387.717 149.926 387.571 148.615 387.571 148.615C387.28 148.324 387.134 148.178 386.697 148.178C386.406 148.469 385.969 148.906 385.387 149.343Z" fill="#22272E"/>
<path d="M430.676 181.09C431.258 180.217 431.841 179.343 432.132 178.615C432.714 177.304 432.132 175.848 430.821 175.411C429.365 174.828 427.472 173.809 425.287 172.061C420.773 168.421 418.734 171.624 419.025 175.702C423.394 176.139 427.326 178.906 430.676 181.09Z" fill="#22272E"/>
<path d="M419.025 175.556C419.317 179.051 421.21 183.274 424.996 183.857C427.472 184.293 429.365 182.837 430.676 181.09C427.326 178.905 423.394 176.138 419.025 175.556Z" fill="#E26E85"/>
<path d="M434.611 399.389V399.826C434.611 401.282 433.446 402.447 431.99 402.447H308.496C307.04 402.447 305.875 401.282 305.875 399.826C305.875 398.952 306.312 398.078 306.894 397.35L330.778 373.758C331.943 372.593 333.399 372.011 334.855 372.011H415.971C418.009 372.011 420.048 373.176 421.068 374.923L434.174 397.496C434.32 398.224 434.611 398.806 434.611 399.389Z" fill="#22272E"/>
<path d="M373.009 393.127C373.009 393.564 372.135 394.001 370.97 394.001C369.805 394.001 368.932 393.564 368.932 393.127C368.932 392.69 369.805 392.253 370.97 392.253C372.135 392.253 373.009 392.69 373.009 393.127Z" fill="#63737A"/>
<rect x="0.5" y="0.5" width="799" height="799" stroke="black"/>
</svg>
