<svg width="800" height="800" viewBox="0 0 800 800" fill="none" xmlns="http://www.w3.org/2000/svg">
<path d="M315.193 469.877L307.608 627.33C307.477 629.161 308.916 630.599 310.746 630.599C312.316 630.599 313.754 629.422 313.885 627.722L327.093 469.746H315.193V469.877Z" fill="#B8D8C7"/>
<path d="M389.865 469.877L397.45 627.33C397.581 629.161 396.143 630.599 394.312 630.599C392.742 630.599 391.304 629.422 391.173 627.722L377.965 469.746H389.865V469.877Z" fill="#B8D8C7"/>
<path d="M366.193 438.883L366.063 596.467C366.063 598.297 364.624 599.605 362.793 599.605C361.224 599.474 359.916 598.167 359.786 596.597L354.293 438.229L366.193 438.883Z" fill="#B8D8C7"/>
<path d="M395.095 454.575C383.063 452.875 367.632 451.829 350.631 451.829C333.761 451.829 318.199 452.875 306.168 454.575H281.582V463.468C281.582 469.876 312.445 475.107 350.631 475.107C388.687 475.107 419.68 469.876 419.68 463.468V454.575H395.095Z" fill="#22272E"/>
<path d="M350.631 466.215C388.766 466.215 419.68 461.005 419.68 454.576C419.68 448.148 388.766 442.938 350.631 442.938C312.496 442.938 281.582 448.148 281.582 454.576C281.582 461.005 312.496 466.215 350.631 466.215Z" fill="#63737A"/>
<path d="M399.934 577.501C399.934 577.501 398.234 590.056 395.88 593.848C393.395 597.641 389.603 607.056 389.734 609.28C390.126 613.334 402.68 623.665 410.004 629.942C417.327 636.219 423.343 636.481 436.944 637.527C450.544 638.573 456.037 636.481 456.037 632.296C456.037 628.242 453.29 626.15 447.275 619.219C441.39 612.287 431.843 602.479 428.705 596.856C425.566 591.233 431.843 582.732 434.72 577.501C437.597 572.27 405.95 562.724 399.934 577.501Z" fill="#22272E"/>
<path d="M434.72 577.502C431.973 582.733 425.696 591.233 428.704 596.856C428.965 597.379 429.358 597.902 429.619 598.425C428.835 597.379 426.088 593.979 420.727 593.979C414.449 593.979 411.049 601.303 406.211 597.772C403.072 595.418 399.018 592.802 396.664 591.364C398.495 586.263 399.672 577.371 399.672 577.371C405.949 562.724 437.597 572.271 434.72 577.502Z" fill="#F4C2C9"/>
<path d="M395.228 363.946C395.228 363.946 400.721 377.285 403.467 381.078C406.213 384.87 473.563 391.409 480.755 418.741C487.948 446.073 445.315 561.416 440.738 572.271C436.161 583.125 435.507 592.672 420.076 591.102C404.513 589.402 392.221 579.594 395.228 568.74C398.236 557.885 410.006 528.984 414.845 494.329C419.814 459.673 437.207 452.35 405.821 441.757C374.435 431.165 349.457 434.565 358.088 405.271C366.719 375.978 389.213 360.808 395.228 363.946Z" fill="#6DAFA7"/>
<path d="M443.876 596.594C443.876 596.594 449.369 616.211 449.369 618.303C449.369 620.526 445.838 637.265 446.622 642.235C447.407 647.204 454.207 649.951 463.231 658.189C472.908 667.213 480.755 666.69 492.655 665.774C502.856 664.99 516.456 660.02 517.895 655.966C519.464 651.781 517.764 649.035 509.656 644.72C502.463 640.796 484.416 620.788 483.501 618.565C482.585 616.341 477.093 587.179 476.831 584.432C476.57 581.555 440.607 589.14 443.876 596.594Z" fill="#22272E"/>
<path d="M482.586 615.819C479.839 612.419 475.916 609.542 470.685 612.68C465.192 615.949 464.669 623.011 461.792 623.404C458.915 623.796 458.654 619.742 454.861 618.565C451.069 617.519 448.715 614.903 448.715 614.903C447.276 608.757 443.876 596.464 443.876 596.464C440.607 589.01 476.57 581.425 476.701 584.302C476.962 586.787 480.885 607.972 482.586 615.819Z" fill="#F4C2C9"/>
<path d="M491.348 630.074C491.348 630.074 484.548 627.458 471.209 634.128" stroke="white" stroke-width="2.35395" stroke-miterlimit="10" stroke-linecap="round" stroke-linejoin="round"/>
<path d="M500.762 638.443C500.762 638.443 490.693 635.827 477.354 642.497" stroke="white" stroke-width="2.35395" stroke-miterlimit="10" stroke-linecap="round" stroke-linejoin="round"/>
<path d="M303.161 361.854C303.161 361.854 296.884 378.332 293.091 388.663C289.299 398.994 284.46 420.18 295.315 437.311C306.169 454.443 327.093 457.451 360.702 461.635C393.919 465.69 401.111 468.305 401.111 468.305C401.111 468.305 408.696 502.176 420.989 535.393C433.282 568.609 437.859 587.964 438.382 592.672C438.905 597.249 441.39 601.957 449.629 603.919C457.868 605.88 479.315 601.172 480.753 591.626C482.061 582.079 472.907 552.916 466.891 514.207C460.876 475.498 458.129 443.065 446.752 428.026C435.244 412.987 390.519 411.418 390.519 407.102C390.388 402.918 325 351.392 303.161 361.854Z" fill="#6DAFA7"/>
<path d="M466.761 514.206C460.745 475.497 457.999 443.065 446.621 428.026C435.113 412.987 392.611 408.802 390.388 407.102C390.388 407.102 379.926 399.909 365.41 400.04" stroke="#22272E" stroke-width="2.35395" stroke-miterlimit="10" stroke-linecap="round" stroke-linejoin="round"/>
<path d="M390.389 407.102C390.389 407.102 391.435 400.302 390.389 397.163" stroke="#22272E" stroke-width="2.35395" stroke-miterlimit="10" stroke-linecap="round" stroke-linejoin="round"/>
<path d="M295.314 412.202C295.314 412.202 317.154 411.81 321.993 388.009" stroke="#22272E" stroke-width="2.35395" stroke-miterlimit="10" stroke-linecap="round" stroke-linejoin="round"/>
<path d="M400.983 468.305C400.983 468.305 400.721 462.29 405.952 457.712" stroke="#22272E" stroke-width="2.35395" stroke-miterlimit="10" stroke-linecap="round" stroke-linejoin="round"/>
<path d="M445.968 617.519C445.968 617.519 443.222 610.064 421.252 616.08" stroke="white" stroke-width="2.35395" stroke-miterlimit="10" stroke-linecap="round" stroke-linejoin="round"/>
<path d="M434.983 605.75C434.983 605.75 432.891 600.257 415.367 607.711" stroke="white" stroke-width="2.35395" stroke-miterlimit="10" stroke-linecap="round" stroke-linejoin="round"/>
<path d="M377.307 230.034C377.307 230.034 390.122 226.503 401.369 246.642C412.616 266.782 418.239 304.183 421.77 307.976C425.301 311.768 431.055 314.645 449.625 326.546C468.195 338.446 469.241 338.839 485.327 340.8C501.412 342.762 502.458 348.254 507.428 353.747C512.397 359.239 515.928 363.032 511.22 363.424C506.643 363.817 501.412 357.016 498.404 358.978C495.396 360.94 493.173 362.509 487.811 363.947C482.319 365.255 484.019 367.478 478.919 366.955C473.818 366.432 463.88 366.694 467.018 363.947C470.026 361.201 467.018 360.547 467.018 360.547C467.018 360.547 411.7 353.093 393.784 338.577C375.737 324.061 371.16 275.936 367.629 259.981C363.967 243.896 372.86 230.034 377.307 230.034Z" fill="#FFE7CA"/>
<path d="M421.77 307.976C421.77 307.976 416.8 307.453 413.27 309.284" stroke="#F8AB5D" stroke-width="2.35395" stroke-miterlimit="10" stroke-linecap="round" stroke-linejoin="round"/>
<path d="M383.585 166.347C383.585 166.347 393.263 157.192 389.47 145.292C385.678 133.261 373.908 132.214 364.361 135.091C354.815 138.099 328.66 133.13 319.113 147.646C309.567 162.162 315.582 175.239 309.567 179.032C303.551 182.824 295.051 185.571 296.489 195.117C297.797 204.664 323.429 218.526 315.582 229.511C307.736 240.365 300.282 265.997 330.622 280.513C360.831 295.029 362.792 260.374 364.754 240.234C366.715 220.095 360.7 196.817 369.331 188.186C378.093 179.293 385.285 174.455 383.585 166.347Z" fill="#22272E"/>
<path d="M339.383 225.326C339.383 225.326 374.038 226.111 380.054 228.857C386.07 231.603 388.816 240.888 390.647 247.95C392.608 255.012 406.209 263.512 408.694 279.074C411.179 294.637 397.839 312.684 397.186 315.561C396.663 318.568 396.401 347.731 397.97 353.747C399.67 359.763 402.286 369.571 402.024 373.886C401.763 378.202 383.454 386.702 356.253 385.133C329.052 383.564 300.543 369.832 299.628 366.824C298.843 363.817 307.736 349.693 305.251 320.138C302.766 290.713 288.642 258.804 298.974 241.28C309.305 224.018 334.152 225.195 339.383 225.326Z" fill="#22272E"/>
<path d="M338.076 200.479C338.076 200.479 339.515 215.649 339.253 225.326C339.253 225.326 343.046 233.434 354.946 235.788C369.331 238.796 372.208 230.557 370.247 227.026C370.247 227.026 366.847 214.472 366.454 205.841C366.193 197.471 338.73 199.302 338.076 200.479Z" fill="#FFE7CA"/>
<path d="M349.846 213.033C355.207 221.403 360.7 224.803 370.116 225.457C369.593 223.626 368.939 220.357 368.154 216.826C360.7 217.741 357.169 215.126 349.846 213.033Z" fill="#F8AB5D"/>
<path d="M333.105 225.326C333.105 225.326 340.69 230.295 348.275 241.019C355.73 251.742 365.276 259.72 371.946 258.935C378.615 258.15 381.754 249.388 373.123 227.418C373.123 227.418 352.199 224.018 333.105 225.326Z" fill="#FFE7CA"/>
<path d="M456.427 349.039L511.222 345.639C511.876 345.639 512.661 344.2 512.922 344.723C513.053 344.854 512.922 346.947 512.922 347.077C512.922 347.47 512.791 347.993 512.53 348.254L471.205 390.625C469.505 392.325 467.151 393.241 464.666 392.979L410.787 387.618C410.264 387.618 409.741 387.225 409.61 386.833C409.479 386.571 407.387 383.04 407.518 382.648C407.518 382.256 410.525 382.256 410.918 381.994L452.766 350.477C453.681 349.693 454.989 349.17 456.427 349.039Z" fill="#63737A"/>
<path d="M455.774 345.639L511.353 343.285C512.791 343.285 513.576 344.985 512.53 346.031L469.766 388.141C468.066 389.841 465.582 390.756 463.097 390.364L408.564 383.695C407.125 383.564 406.602 381.733 407.779 380.818L451.85 346.947C452.897 346.162 454.335 345.639 455.774 345.639Z" fill="#22272E"/>
<path d="M480.359 343.154C480.359 343.154 478.92 343.416 478.92 346.162C478.92 348.778 479.966 356.232 477.22 356.755C474.605 357.278 473.297 354.009 471.989 351.132C470.681 348.255 466.758 348.124 464.273 343.939" fill="#FFE7CA"/>
<path d="M380.185 152.353C380.185 152.353 383.977 162.423 384.37 173.8C384.762 185.309 388.685 191.847 386.462 201.786C384.239 211.856 376.392 219.441 366.715 219.833C357.038 220.225 342.914 211.594 335.198 201.263C327.483 190.801 325.129 169.354 329.706 158.892C334.021 148.561 368.284 137.706 380.185 152.353Z" fill="#FFE7CA"/>
<path d="M384.632 163.6C384.632 163.6 379.009 164.254 375.478 158.5C375.478 158.5 366.978 178.116 353.246 179.424C343.831 180.339 342 175.893 338.076 179.424C334.153 182.955 345.531 203.355 342 219.964C338.469 236.572 321.73 241.149 309.96 230.949C295.182 218.002 311.268 215.518 314.275 197.209C317.283 179.031 314.275 165.038 323.953 154.446C333.63 143.853 343.177 137.314 358.477 138.753C373.909 140.191 380.186 142.545 384.632 163.6Z" fill="#22272E"/>
<path d="M344.221 176.939C344.221 176.939 343.306 183.871 343.698 186.094C344.09 188.317 339.644 183.609 335.59 186.617C333.367 188.317 331.274 177.593 335.59 174.324C339.775 171.055 342.26 173.801 344.221 176.939Z" fill="#22272E"/>
<path d="M341.736 186.224C341.736 186.224 336.766 179.817 331.404 183.74C326.043 187.794 332.974 199.564 341.082 198.648" fill="#FFE7CA"/>
<path d="M451.718 378.987C451.718 378.987 459.172 385.133 462.049 387.226C464.795 389.318 463.095 391.149 459.957 391.149C456.687 391.28 446.487 382.91 451.718 378.987Z" fill="#FFE7CA"/>
<path d="M303.551 235.919C300.412 237.357 297.928 239.842 296.228 242.85C293.089 248.735 288.643 260.243 291.912 275.151C296.751 297.252 308.128 330.469 313.228 338.315C318.329 346.162 342.26 361.855 359.13 372.317C376 382.779 388.947 388.533 392.086 390.887C395.355 393.241 401.501 399.257 413.402 400.695C425.433 402.134 429.226 397.818 432.887 398.733C436.68 399.649 442.695 403.834 446.096 403.441C449.496 402.918 447.665 400.433 446.357 399.126C445.049 397.818 437.334 390.887 437.334 390.887C437.334 390.887 442.042 392.849 448.842 396.903C454.596 400.303 457.342 400.434 458.912 400.303C460.481 400.303 462.312 399.649 462.05 398.21C462.05 398.21 463.619 399.126 464.927 397.949C466.235 396.772 466.627 395.726 463.489 392.195C460.219 388.664 452.373 379.379 448.45 375.325C444.396 371.14 439.949 370.878 430.272 371.401C420.595 371.794 406.994 369.832 406.602 370.225C406.209 370.617 364.623 326.546 352.068 313.991C352.068 313.991 341.999 281.167 338.991 267.043C332.845 238.665 317.936 229.118 303.551 235.919Z" fill="#FFE7CA"/>
<path d="M462.049 398.341C462.049 398.341 462.049 396.772 458.126 394.026C454.203 391.41 448.056 385.394 446.095 383.956C444.133 382.387 441.779 380.687 441.387 380.687" stroke="#F8AB5D" stroke-width="2.35395" stroke-miterlimit="10" stroke-linecap="round" stroke-linejoin="round"/>
<path d="M437.335 391.018C437.335 391.018 434.327 388.402 432.889 388.794" stroke="#F8AB5D" stroke-width="2.35395" stroke-miterlimit="10" stroke-linecap="round" stroke-linejoin="round"/>
<path d="M352.069 313.991C352.069 313.991 345.923 313.337 341.084 318.307" stroke="#F8AB5D" stroke-width="2.35395" stroke-miterlimit="10" stroke-linecap="round" stroke-linejoin="round"/>
<path d="M379.531 180.731C380.447 181.908 381.231 183.085 382.016 184.132C382.408 184.655 382.801 185.178 383.324 185.57C383.585 185.832 383.716 185.962 383.978 186.224L384.37 186.486C384.501 186.616 384.762 186.747 384.893 187.009C385.547 187.793 385.808 188.84 385.808 189.755C385.808 190.67 385.416 191.455 385.024 192.109C384.239 193.417 383.062 194.594 381.493 194.986C382.408 193.809 382.931 192.632 383.324 191.324C383.716 190.147 383.585 188.97 383.062 188.447C383.062 188.316 382.931 188.316 382.801 188.186C382.67 188.055 382.539 187.924 382.278 187.793C382.016 187.532 381.624 187.139 381.493 186.878C380.97 186.224 380.577 185.57 380.316 184.916C379.924 183.739 379.531 182.301 379.531 180.731Z" fill="#22272E"/>
<path d="M375.478 204.271C375.478 204.271 371.685 205.448 368.285 201.917" stroke="#22272E" stroke-width="2.35395" stroke-miterlimit="10" stroke-linecap="round" stroke-linejoin="round"/>
<path d="M366.582 186.747C367.759 186.616 368.543 185.439 368.282 184.262L368.02 183.085C367.89 181.908 366.713 181.124 365.536 181.385C364.359 181.516 363.574 182.693 363.836 183.87L364.097 185.047C364.359 186.093 365.405 186.878 366.582 186.747Z" fill="#22272E"/>
<path d="M382.539 184.132C383.716 184.001 384.5 182.824 384.239 181.647L383.977 180.47C383.847 179.293 382.67 178.509 381.493 178.77C380.316 178.901 379.531 180.078 379.793 181.255L380.054 182.432C380.316 183.478 381.362 184.393 382.539 184.132Z" fill="#22272E"/>
<path d="M365.408 173.147C366.585 173.278 367.5 172.231 367.37 171.054C367.239 170.008 366.977 168.962 366.454 168.308C365.277 167 360.7 167.393 357.3 170.008C353.769 172.624 352.461 176.024 354.161 176.155C355.861 176.285 358.346 174.062 361.092 173.408C362.4 172.885 364.1 173.016 365.408 173.147Z" fill="#22272E"/>
<path d="M382.537 171.185C382.014 171.578 381.36 171.185 381.229 170.662C380.968 169.616 380.706 168.047 381.098 167.654C381.752 166.87 383.714 167.393 384.106 168.57C384.499 169.747 384.629 170.401 384.237 170.401C383.976 170.27 383.191 170.662 382.537 171.185Z" fill="#22272E"/>
<path d="M333.498 189.625C333.105 189.232 332.975 188.709 332.975 188.055C332.975 187.794 333.105 187.402 333.367 187.009C333.628 186.617 333.89 186.486 334.282 186.225C334.413 186.225 334.544 186.094 334.805 186.094C335.067 186.094 335.459 186.094 335.721 186.225C336.244 186.486 336.506 186.878 336.636 187.14C337.029 187.663 337.159 188.186 337.421 188.709C337.813 189.625 337.944 190.54 338.206 191.194C338.336 191.586 338.467 191.848 338.729 192.109C338.99 192.371 339.513 192.502 340.036 192.502C339.644 192.894 339.121 193.156 338.467 193.156C337.813 193.156 337.159 192.763 336.767 192.24C335.982 191.325 335.59 190.279 335.198 189.494C335.067 189.102 334.936 188.578 334.805 188.317C334.805 188.186 334.675 188.055 334.805 188.055H334.936H334.805C334.544 188.055 334.413 188.055 334.152 188.317C333.759 188.578 333.628 189.102 333.498 189.625Z" fill="#22272E"/>
<rect x="0.5" y="0.5" width="799" height="799" stroke="black"/>
</svg>
