<svg width="800" height="800" viewBox="0 0 800 800" fill="none" xmlns="http://www.w3.org/2000/svg">
<path d="M269.505 555.151L201.24 232.468C200.886 230.778 200.918 229.03 201.332 227.354C201.747 225.678 202.534 224.117 203.635 222.787C204.736 221.457 206.122 220.393 207.691 219.673C209.261 218.952 210.972 218.595 212.698 218.628H533.954C538.413 218.643 542.725 220.231 546.13 223.111C549.535 225.992 551.814 229.981 552.568 234.377L606.028 560.368C606.286 562.021 606.183 563.71 605.725 565.319C605.268 566.928 604.467 568.418 603.378 569.688C602.289 570.957 600.938 571.976 599.417 572.673C597.897 573.37 596.243 573.73 594.57 573.726L288.12 569.868C283.787 569.973 279.554 568.56 276.154 565.871C272.755 563.183 270.402 559.391 269.505 555.151Z" fill="#B0D7C0"/>
<path d="M262.34 562.79L194.075 240.107C193.718 238.416 193.749 236.667 194.163 234.989C194.577 233.312 195.365 231.749 196.468 230.419C197.57 229.088 198.959 228.024 200.53 227.305C202.101 226.586 203.815 226.231 205.542 226.267H526.817C531.278 226.278 535.591 227.864 538.997 230.746C542.402 233.627 544.681 237.619 545.431 242.016L598.901 568.007C599.161 569.661 599.058 571.351 598.602 572.961C598.145 574.571 597.344 576.063 596.255 577.333C595.166 578.604 593.814 579.623 592.293 580.321C590.771 581.019 589.117 581.378 587.443 581.375L280.993 577.517C276.67 577.558 272.464 576.119 269.071 573.44C265.678 570.762 263.303 567.004 262.34 562.79Z" fill="#6DAFA7"/>
<path d="M299.091 537.019L242.293 267.796H507.696L552.081 539.874L299.091 537.019Z" stroke="#22272E" stroke-width="8.59343" stroke-linecap="round" stroke-linejoin="round"/>
<path d="M320.574 267.796L377.864 537.964" stroke="#22272E" stroke-width="8.59343" stroke-linecap="round" stroke-linejoin="round"/>
<path d="M256.613 336.052H517.242" stroke="#22272E" stroke-width="8.59343" stroke-linecap="round" stroke-linejoin="round"/>
<path d="M270.457 401.925H528.694" stroke="#22272E" stroke-width="8.59343" stroke-linecap="round" stroke-linejoin="round"/>
<path d="M286.211 468.753L541.111 472.09" stroke="#22272E" stroke-width="8.59343" stroke-linecap="round" stroke-linejoin="round"/>
<path d="M366.402 301.206H468.077" stroke="#22272E" stroke-width="8.59343" stroke-linecap="round" stroke-linejoin="round"/>
<path d="M379.777 368.989H481.442" stroke="#22272E" stroke-width="8.59343" stroke-linecap="round" stroke-linejoin="round"/>
<path d="M395.039 435.343L496.714 436.77" stroke="#22272E" stroke-width="8.59343" stroke-linecap="round" stroke-linejoin="round"/>
<path d="M409.367 500.736L507.222 503.128" stroke="#22272E" stroke-width="8.59343" stroke-linecap="round" stroke-linejoin="round"/>
<path d="M269.977 284.974L311.989 316.956" stroke="#F4C2C9" stroke-width="8.59343" stroke-linecap="round" stroke-linejoin="round"/>
<path d="M300.53 284.974L279.051 316.956" stroke="#F4C2C9" stroke-width="8.59343" stroke-linecap="round" stroke-linejoin="round"/>
<path d="M296.719 419.585L338.721 451.094" stroke="#F4C2C9" stroke-width="8.59343" stroke-linecap="round" stroke-linejoin="round"/>
<path d="M327.26 419.585L305.309 451.094" stroke="#F4C2C9" stroke-width="8.59343" stroke-linecap="round" stroke-linejoin="round"/>
<path d="M311.988 485.94L353.991 517.922" stroke="#F4C2C9" stroke-width="8.59343" stroke-linecap="round" stroke-linejoin="round"/>
<path d="M342.533 485.94L321.055 517.922" stroke="#F4C2C9" stroke-width="8.59343" stroke-linecap="round" stroke-linejoin="round"/>
<path d="M286.211 365.169L300.533 379.964L321.057 353.238" stroke="#FFE779" stroke-width="8.59343" stroke-linecap="round" stroke-linejoin="round"/>
<rect x="0.5" y="0.5" width="799" height="799" stroke="black"/>
</svg>
