<svg width="800" height="800" viewBox="0 0 800 800" fill="none" xmlns="http://www.w3.org/2000/svg">
<path d="M494.538 448.807V458.875C494.538 465.39 461.818 470.72 421.25 470.72C380.831 470.72 347.963 465.39 347.963 458.875V448.807H382.46C393.712 447.623 407.037 447.031 421.25 447.031C435.464 447.031 448.789 447.623 460.041 448.807H494.538Z" fill="#22272E"/>
<path d="M421.25 460.652C461.726 460.652 494.538 455.349 494.538 448.807C494.538 442.266 461.726 436.963 421.25 436.963C380.775 436.963 347.963 442.266 347.963 448.807C347.963 455.349 380.775 460.652 421.25 460.652Z" fill="#63737A"/>
<path d="M421.251 580.281C419.326 580.281 417.846 578.8 417.846 576.876V460.8H424.804V576.876C424.804 578.8 423.176 580.281 421.251 580.281Z" fill="#22272E"/>
<path d="M421.252 576.58C421.252 576.58 380.981 579.541 368.248 606.339" stroke="#22272E" stroke-width="5.92222" stroke-miterlimit="10" stroke-linecap="round" stroke-linejoin="round"/>
<path d="M474.403 606.339C461.522 579.541 421.399 576.58 421.399 576.58C421.399 576.58 414.737 581.762 411.924 612.409" stroke="#22272E" stroke-width="5.92222" stroke-miterlimit="10" stroke-linecap="round" stroke-linejoin="round"/>
<path d="M414.251 626.247C420.061 624.875 423.658 619.054 422.286 613.244C420.914 607.435 415.093 603.838 409.284 605.21C403.475 606.581 399.878 612.403 401.249 618.212C402.621 624.021 408.442 627.618 414.251 626.247Z" fill="#6DAFA7"/>
<path d="M481.976 616.174C486.197 611.953 486.197 605.11 481.976 600.889C477.755 596.669 470.912 596.669 466.691 600.889C462.47 605.11 462.47 611.953 466.691 616.174C470.912 620.395 477.755 620.395 481.976 616.174Z" fill="#6DAFA7"/>
<path d="M370.718 618.994C376.527 617.622 380.125 611.801 378.753 605.992C377.381 600.183 371.56 596.586 365.751 597.957C359.942 599.329 356.344 605.15 357.716 610.959C359.088 616.768 364.909 620.366 370.718 618.994Z" stroke="#22272E" stroke-width="2.665" stroke-miterlimit="10" stroke-linecap="round" stroke-linejoin="round"/>
<path d="M461.223 339.693C468.33 356.719 480.915 384.109 480.767 414.905C480.767 452.215 435.61 467.465 431.02 473.387C426.43 479.457 332.415 485.824 322.792 467.021C313.168 448.069 313.76 428.378 339.522 380.852C356.696 349.02 354.475 340.137 354.624 339.693C354.624 339.693 356.992 342.21 358.029 332.29C359.065 322.37 456.93 329.625 461.223 339.693Z" fill="#22272E"/>
<path d="M345.147 428.378C335.967 429.858 320.57 434.744 318.941 459.173C317.461 483.602 336.856 578.358 337.152 595.088C337.448 611.818 335.819 612.558 324.419 622.774C313.019 632.99 290.366 644.094 292.291 651.941C294.216 659.788 320.125 666.451 337.152 663.342C354.326 660.232 358.028 640.837 361.285 639.209C364.542 637.58 366.615 631.51 367.059 627.66C367.503 623.663 379.496 487.896 380.68 467.908C382.309 443.183 372.093 424.084 345.147 428.378Z" fill="#F4C2C9"/>
<path d="M368.245 616.112C367.652 622.627 367.208 626.772 367.208 627.513C366.764 631.51 364.691 637.432 361.434 639.061C358.177 640.69 354.476 660.085 337.301 663.194C320.127 666.303 294.217 659.641 292.44 651.794C290.96 645.723 304.433 637.58 315.833 629.437C315.537 629.733 312.28 632.991 315.833 633.731C319.534 634.471 326.197 631.658 338.93 638.765C351.662 645.872 355.364 634.767 357.881 627.216C360.102 620.85 364.543 622.923 368.245 616.112Z" fill="#22272E"/>
<path d="M389.86 432.82C378.755 440.223 374.314 449.254 372.241 483.307C369.428 530.092 364.394 603.676 362.025 611.523C359.656 619.37 356.695 622.923 353.882 630.77C351.069 638.617 327.232 661.269 328.713 669.857C330.045 678.444 343.814 687.031 352.402 689.844C360.989 692.657 371.205 693.842 377.423 689.844C383.641 685.847 386.75 660.825 388.379 654.903C390.008 648.833 391.784 644.539 393.265 634.027C394.597 623.663 405.553 576.138 410.143 562.516C414.733 549.043 435.313 482.715 435.905 456.805C436.201 430.895 406.146 422.16 389.86 432.82Z" fill="#F4C2C9"/>
<path d="M389.86 432.82C378.756 440.223 374.314 449.254 372.242 483.307C369.429 530.092 364.395 603.676 362.026 611.523C359.657 619.37 356.696 622.923 353.883 630.77" stroke="#E26E85" stroke-width="2.665" stroke-miterlimit="10" stroke-linecap="round" stroke-linejoin="round"/>
<path d="M394.894 624.7C394.005 628.845 393.413 632.102 393.265 634.027C391.933 644.391 390.008 648.833 388.379 654.903C386.751 660.973 383.79 685.995 377.571 689.844C371.353 693.842 361.137 692.657 352.55 689.844C343.963 687.031 330.342 678.444 328.861 670.005C327.825 663.786 339.965 650.313 347.812 640.246C347.368 640.838 341.742 649.277 351.81 656.68C360.545 663.194 376.831 667.192 380.977 657.42C385.122 647.648 387.343 638.469 389.268 635.508C391.192 632.695 393.561 629.586 394.894 624.7Z" fill="#22272E"/>
<path d="M365.35 661.867C366.506 658.72 364.02 654.912 359.799 653.361C355.577 651.81 351.218 653.104 350.062 656.251C348.906 659.399 351.391 663.207 355.613 664.757C359.834 666.308 364.194 665.014 365.35 661.867Z" fill="white"/>
<path d="M332.415 636.692C331.971 639.801 328.121 641.726 323.976 641.134C319.83 640.542 316.721 637.433 317.165 634.323C317.609 631.214 321.459 629.289 325.605 629.882C329.898 630.474 332.859 633.583 332.415 636.692Z" fill="white"/>
<path d="M358.177 215.918C358.177 215.918 338.041 216.215 324.42 246.27C310.799 276.177 289.183 318.669 292.292 336.584C295.401 354.498 336.709 336.584 356.252 302.975C375.647 269.367 373.871 216.807 358.177 215.918Z" fill="#6DAFA7"/>
<path d="M373.723 156.104C373.723 156.104 363.507 155.512 360.25 142.335C356.993 129.158 370.466 112.724 382.902 108.726C395.339 104.729 398.448 112.428 406.591 113.316C414.734 114.204 436.498 111.836 445.234 131.231C453.969 150.626 439.46 168.985 450.564 183.494C461.668 198.152 470.995 224.95 438.275 236.498C405.555 248.047 367.949 239.015 356.252 218.139C344.704 197.263 367.06 184.975 370.466 174.167C374.167 163.507 375.796 160.842 373.723 156.104Z" fill="#22272E"/>
<path d="M406.888 208.22C406.888 208.22 376.685 207.924 360.251 214.142C355.365 215.919 351.219 219.028 350.035 234.426C348.998 248.343 348.258 248.195 344.409 255.006C338.338 265.962 335.821 278.546 347.518 298.978C355.069 312.303 352.7 337.324 351.515 349.909C350.331 362.642 351.811 368.12 376.241 374.338C400.67 380.557 453.081 374.338 459.003 368.416C464.926 362.494 467.591 303.864 466.406 292.464C465.222 281.063 487.134 250.712 485.505 238.719C484.025 226.727 469.664 210.293 406.888 208.22Z" fill="#FFE779"/>
<path d="M390.307 205.702C390.307 205.702 376.686 206.295 372.244 210.884C369.135 214.142 371.652 216.214 375.353 219.027C377.87 220.952 368.987 225.986 373.577 231.76C376.982 236.054 384.681 230.724 387.642 234.721C391.047 239.459 391.639 241.236 396.821 241.384C403.336 241.532 403.928 234.573 408.814 235.314C414.736 236.202 416.068 238.275 420.362 237.831C427.025 237.09 427.173 230.428 426.284 226.43C425.396 222.433 427.765 222.285 432.947 220.804C438.129 219.324 439.165 209.256 420.066 206.443C401.115 203.63 390.307 205.702 390.307 205.702Z" fill="white"/>
<path d="M424.061 178.905C424.061 178.905 420.952 193.858 421.248 209.848C421.248 209.848 416.066 225.394 398.299 224.358C381.717 223.469 385.567 210.144 385.567 210.144C385.567 210.144 389.564 195.339 389.712 191.489C390.008 187.64 419.916 174.907 424.061 178.905Z" fill="#F4C2C9"/>
<path d="M410.885 195.783C403.779 200.52 395.488 203.334 387.641 202.741C386.604 206.739 385.716 210.144 385.716 210.144C385.716 210.144 385.568 210.884 385.42 212.069C396.968 211.773 407.332 206.591 410.885 195.783Z" fill="#E26E85"/>
<path d="M371.798 141.298C371.798 141.742 372.242 153.142 370.169 165.875C368.096 178.608 370.317 198.743 384.086 203.481C403.185 209.995 423.025 196.967 427.911 178.015C432.796 159.064 435.313 135.82 411.032 128.861C386.603 121.754 373.13 131.97 371.798 141.298Z" fill="#F4C2C9"/>
<path d="M371.057 146.628C371.057 146.628 370.02 142.039 374.314 141.15C378.608 140.262 382.605 138.337 386.603 136.561C389.416 135.228 392.969 135.672 395.782 141.891C402 155.216 409.847 175.203 426.133 169.577C426.133 169.577 432.352 170.909 434.128 160.546C435.905 150.182 435.165 136.264 417.102 127.825C399.039 119.534 378.311 125.16 374.462 129.454C368.54 136.116 371.057 146.628 371.057 146.628Z" fill="#22272E"/>
<path d="M419.176 171.65C419.176 171.65 425.838 162.47 432.057 167.8C438.275 173.13 429.688 186.603 421.1 186.159" fill="#F4C2C9"/>
<path d="M428.799 187.195C428.799 185.122 427.022 181.273 424.949 181.273C422.876 181.273 421.1 185.122 421.1 187.195C421.1 189.268 422.876 191.045 424.949 191.045C427.022 191.045 428.799 189.416 428.799 187.195Z" fill="#FFE779"/>
<path d="M429.835 174.019C429.243 173.723 428.799 173.278 428.355 173.13C427.911 172.834 427.466 172.982 427.318 173.13C427.17 173.13 427.17 173.278 427.022 173.427C426.874 173.575 426.726 173.723 426.726 173.871C426.578 174.167 426.578 174.463 426.43 174.907C426.282 175.795 426.43 176.98 426.134 178.312C425.986 179.053 425.542 179.793 424.801 180.237C424.061 180.681 423.321 180.385 422.729 180.237C423.321 179.941 423.765 179.645 423.913 179.201C424.061 178.905 424.061 178.46 424.061 178.016C424.061 177.128 423.765 175.943 423.913 174.611C423.913 173.871 424.209 173.13 424.801 172.39C425.097 172.094 425.394 171.798 425.69 171.502C426.134 171.354 426.578 171.058 427.022 171.058C428.059 171.058 428.799 171.65 429.095 172.242C429.687 172.834 429.835 173.427 429.835 174.019Z" fill="#22272E"/>
<path d="M376.832 164.987C377.425 166.32 377.425 167.8 377.128 169.281C376.832 170.761 376.24 172.094 375.204 173.278C374.908 173.723 374.76 173.723 374.76 174.167C374.76 174.463 374.908 174.907 375.204 175.499C375.5 175.943 375.796 176.536 376.24 176.98C376.684 177.424 377.128 178.016 377.721 178.164C376.98 178.46 376.24 178.312 375.5 178.016C374.76 177.72 374.167 177.276 373.575 176.832C372.983 176.24 372.539 175.499 372.391 174.463C372.391 174.167 372.391 174.019 372.391 173.723C372.391 173.426 372.539 173.13 372.539 172.982C372.687 172.686 372.687 172.538 372.835 172.242C372.983 172.094 373.131 171.798 373.279 171.65C374.76 169.873 375.796 167.652 376.832 164.987Z" fill="#22272E"/>
<path d="M383.494 186.011C383.494 186.011 388.972 186.751 392.97 183.346" stroke="#22272E" stroke-width="2.665" stroke-miterlimit="10" stroke-linecap="round" stroke-linejoin="round"/>
<path d="M389.862 153.735C389.565 152.847 390.01 151.514 390.454 150.922C391.638 149.441 395.488 149.293 398.449 151.218C401.41 152.995 402.594 155.808 401.706 156.104C400.373 156.548 399.041 154.771 395.932 154.475C392.823 154.031 390.454 155.364 389.862 153.735Z" fill="#22272E"/>
<path d="M374.612 153.291C375.352 153.439 376.092 152.995 376.092 152.254C376.24 151.218 376.24 150.034 375.796 149.293C374.908 147.961 372.539 149.441 371.799 150.478C371.058 151.514 371.354 153.291 371.799 153.291C372.095 153.291 373.427 152.995 374.612 153.291Z" fill="#22272E"/>
<path d="M392.823 167.652C394.008 167.8 394.896 166.912 395.044 165.727L395.192 164.543C395.34 163.358 394.452 162.47 393.267 162.322C392.083 162.174 391.195 163.062 391.047 164.247L390.898 165.431C390.898 166.615 391.639 167.652 392.823 167.652Z" fill="#22272E"/>
<path d="M373.722 166.172C374.906 166.32 375.794 165.432 375.942 164.247L376.09 163.063C376.238 161.878 375.35 160.99 374.166 160.842C372.981 160.694 372.093 161.582 371.945 162.767L371.797 163.951C371.797 165.135 372.685 166.024 373.722 166.172Z" fill="#22272E"/>
<path d="M292.293 336.581C292.293 336.581 292.885 355.236 319.831 357.013C346.629 358.938 398.893 352.867 409.109 350.054C419.325 347.241 418.732 330.807 412.218 326.217C405.703 321.628 366.617 319.555 346.629 316.594C342.04 315.853 336.71 314.965 331.232 314.521C326.494 314.077 321.756 313.781 317.166 313.929C303.693 314.521 292.441 319.703 292.293 336.581Z" fill="#6DAFA7"/>
<path d="M291.996 331.399C291.996 331.399 291.996 327.549 297.77 328.586C310.355 330.955 321.015 358.049 308.134 354.644" stroke="#22272E" stroke-width="2.665" stroke-miterlimit="10" stroke-linecap="round" stroke-linejoin="round"/>
<path d="M346.481 316.594C341.891 315.853 336.561 314.965 331.083 314.521C326.345 314.077 321.607 313.781 317.018 313.929" stroke="#22272E" stroke-width="2.665" stroke-miterlimit="10" stroke-linecap="round" stroke-linejoin="round"/>
<path d="M478.693 230.129C483.579 231.758 487.132 235.607 493.35 254.41C501.493 278.987 511.857 331.103 506.527 345.168C501.197 359.234 490.537 366.488 454.708 368.117C418.878 369.745 384.085 366.932 379.496 366.932C374.906 366.932 367.207 350.054 372.093 338.95C372.093 338.95 402.444 331.547 419.619 326.957C436.793 322.368 455.744 317.482 463.591 316.594C463.591 316.594 450.858 285.354 446.713 274.398C442.567 263.442 445.972 244.787 455.744 236.348C465.368 228.056 474.547 228.797 478.693 230.129Z" fill="#6DAFA7"/>
<path d="M463.445 316.593C463.445 316.593 478.103 313.632 486.838 316.593" stroke="#22272E" stroke-width="2.665" stroke-miterlimit="10" stroke-linecap="round" stroke-linejoin="round"/>
<path d="M508.009 336.58C508.009 336.58 504.9 329.178 492.315 337.469C482.395 343.983 479.434 363.527 490.242 362.342" stroke="#22272E" stroke-width="2.665" stroke-miterlimit="10" stroke-linecap="round" stroke-linejoin="round"/>
<path d="M375.055 339.246C375.055 339.246 367.208 339.986 359.213 339.986C351.218 339.986 340.41 341.319 337.893 342.503C335.376 343.54 309.91 369.153 310.502 372.559C310.947 375.964 315.832 373.743 319.978 370.93C323.975 367.969 331.822 360.418 333.451 359.382C333.451 359.382 331.378 364.119 329.453 371.226C327.529 378.333 325.604 385.439 327.529 386.624C330.046 388.104 332.415 385.587 333.155 384.107C333.155 384.107 333.007 387.808 335.968 387.956C338.929 388.104 341.742 382.478 344.111 377.741C346.628 373.003 351.662 366.784 351.662 366.784C351.662 366.784 349.293 374.335 348.405 378.481C347.516 382.626 346.924 387.512 349.145 387.956C352.55 388.697 355.659 378.629 357.584 374.779C359.657 370.782 367.06 373.447 372.538 370.042C378.164 366.488 381.125 365.6 381.125 365.6C381.125 365.6 384.826 361.899 384.826 353.904C384.826 345.761 378.164 338.95 375.055 339.246Z" fill="#F4C2C9"/>
<path d="M332.859 384.256C332.859 384.256 339.966 363.528 342.927 359.53C345.888 355.533 346.925 355.237 347.813 354.645" stroke="#E26E85" stroke-width="2.665" stroke-miterlimit="10" stroke-linecap="round" stroke-linejoin="round"/>
<path d="M333.154 359.53C333.154 359.53 334.339 357.161 336.264 353.608C337.3 351.831 339.521 350.055 339.521 350.055" stroke="#E26E85" stroke-width="2.665" stroke-miterlimit="10" stroke-linecap="round" stroke-linejoin="round"/>
<path d="M351.365 366.785C351.365 366.785 353.438 361.751 355.511 361.159" stroke="#E26E85" stroke-width="2.665" stroke-miterlimit="10" stroke-linecap="round" stroke-linejoin="round"/>
<path d="M398.597 324.145C398.597 324.145 404.519 322.22 409.997 319.703C415.475 317.186 417.696 316.15 421.99 315.853C426.283 315.409 439.756 315.409 441.681 316.594C443.606 317.778 446.123 323.404 447.455 326.217C448.788 329.03 444.494 340.135 444.494 340.135C444.494 340.135 446.419 349.906 444.05 350.943C442.569 351.535 441.237 351.239 439.312 346.057C439.312 346.057 440.645 350.498 437.98 350.794C435.315 351.091 432.354 343.392 430.429 339.986C428.504 336.581 424.803 332.288 424.803 332.288C424.803 332.288 426.431 337.618 426.727 339.394C427.024 341.319 428.208 345.761 427.468 347.537C426.727 349.314 424.062 346.945 421.397 340.875C418.732 334.805 417.844 332.732 416.216 332.88C407.036 333.768 407.628 331.695 403.187 331.399L393.415 333.916C393.267 333.768 392.231 327.846 398.597 324.145Z" fill="#F4C2C9"/>
<path d="M439.312 345.908C439.312 345.908 436.351 336.285 435.315 333.324C434.278 330.511 430.873 325.181 430.873 325.181" stroke="#E26E85" stroke-width="2.665" stroke-miterlimit="10" stroke-linecap="round" stroke-linejoin="round"/>
<path d="M444.492 339.986C444.492 339.986 442.716 329.622 441.975 327.105C441.235 324.736 440.051 322.516 440.051 322.516" stroke="#E26E85" stroke-width="2.665" stroke-miterlimit="10" stroke-linecap="round" stroke-linejoin="round"/>
<path d="M424.655 332.139C424.655 332.139 423.766 329.178 423.322 328.29" stroke="#E26E85" stroke-width="2.665" stroke-miterlimit="10" stroke-linecap="round" stroke-linejoin="round"/>
<rect x="0.5" y="0.5" width="799" height="799" stroke="black"/>
</svg>
