<svg width="800" height="800" viewBox="0 0 800 800" fill="none" xmlns="http://www.w3.org/2000/svg">
<path d="M507.938 666.73L271.059 681.218C268.158 681.398 265.252 680.96 262.534 679.931C259.815 678.903 257.347 677.308 255.291 675.253C253.236 673.198 251.642 670.729 250.613 668.011C249.585 665.293 249.146 662.387 249.327 659.486L280.476 192.247C280.914 186.217 283.367 180.511 287.439 176.043C291.512 171.576 296.969 168.609 302.932 167.617L544.883 124.153C547.895 123.602 550.992 123.74 553.943 124.557C556.894 125.374 559.621 126.848 561.921 128.869C564.221 130.89 566.034 133.406 567.223 136.227C568.412 139.049 568.947 142.103 568.788 145.16L533.292 640.652C533.12 647.39 530.414 653.817 525.715 658.65C521.017 663.483 514.669 666.368 507.938 666.73V666.73Z" fill="#22272E"/>
<path d="M489.831 661.651L252.951 676.139C250.05 676.319 247.145 675.881 244.426 674.852C241.708 673.824 239.239 672.229 237.184 670.174C235.129 668.119 233.534 665.65 232.506 662.932C231.477 660.214 231.039 657.308 231.219 654.407L262.368 187.167C262.806 181.138 265.259 175.431 269.332 170.964C273.405 166.497 278.861 163.529 284.825 162.538L526.775 119.074C529.787 118.523 532.885 118.661 535.836 119.478C538.786 120.294 541.514 121.769 543.814 123.79C546.114 125.811 547.927 128.327 549.116 131.148C550.305 133.97 550.84 137.024 550.68 140.081L515.185 635.573C515.013 642.311 512.307 648.737 507.608 653.571C502.909 658.404 496.562 661.289 489.831 661.651V661.651Z" fill="#6DAFA7"/>
<path d="M403.625 182.816L374.649 187.887C371.751 188.611 369.578 186.438 369.578 182.816C369.769 181.27 370.425 179.818 371.46 178.654C372.495 177.489 373.86 176.667 375.373 176.297L404.349 171.226C407.247 170.501 409.42 172.674 409.42 176.297C409.464 177.916 408.889 179.492 407.813 180.703C406.736 181.914 405.239 182.669 403.625 182.816V182.816Z" fill="#020202"/>
<path d="M426.809 179.195L423.911 179.919C421.013 180.644 418.84 178.471 418.84 174.849C418.966 173.28 419.601 171.795 420.646 170.619C421.692 169.442 423.092 168.639 424.635 168.329L427.533 167.605C430.43 166.88 432.604 169.053 432.604 172.675C432.477 174.244 431.843 175.729 430.798 176.905C429.752 178.082 428.352 178.885 426.809 179.195Z" fill="#020202"/>
<path d="M386.241 239.33L313.077 250.921C311.706 251.084 310.316 250.934 309.011 250.482C307.706 250.03 306.521 249.287 305.544 248.311C304.568 247.335 303.826 246.15 303.374 244.845C302.922 243.54 302.772 242.15 302.935 240.779V240.779C303.188 237.642 304.457 234.672 306.548 232.319C308.639 229.967 311.44 228.359 314.526 227.74L387.69 216.149C389.081 215.871 390.52 215.941 391.878 216.353C393.235 216.764 394.471 217.504 395.474 218.507C396.477 219.51 397.217 220.746 397.629 222.104C398.04 223.461 398.11 224.9 397.832 226.291V226.291C397.579 229.428 396.31 232.398 394.219 234.751C392.128 237.103 389.327 238.711 386.241 239.33V239.33Z" fill="#22272E"/>
<path d="M478.963 371.17L302.933 393.627C301.623 393.799 300.29 393.681 299.031 393.279C297.772 392.878 296.616 392.203 295.648 391.304C294.679 390.404 293.921 389.302 293.427 388.076C292.934 386.849 292.717 385.529 292.792 384.21L299.311 290.037C299.422 288.08 300.202 286.22 301.521 284.769C302.84 283.318 304.617 282.365 306.555 282.069L483.31 255.266C484.62 255.093 485.953 255.212 487.212 255.613C488.471 256.015 489.627 256.69 490.596 257.589C491.564 258.489 492.322 259.591 492.816 260.817C493.31 262.043 493.527 263.363 493.451 264.683L486.207 363.202C486.124 365.168 485.353 367.043 484.029 368.499C482.706 369.955 480.913 370.901 478.963 371.17Z" fill="#FFE779"/>
<path d="M370.302 460.272L297.137 468.24C295.766 468.403 294.376 468.253 293.071 467.801C291.766 467.349 290.581 466.607 289.605 465.631C288.629 464.654 287.887 463.469 287.435 462.164C286.983 460.86 286.832 459.47 286.996 458.099V458.099C287.177 455.013 288.438 452.089 290.556 449.838C292.675 447.587 295.517 446.152 298.586 445.784L371.75 437.815C373.133 437.59 374.549 437.697 375.882 438.128C377.216 438.558 378.428 439.299 379.418 440.289C380.409 441.28 381.15 442.492 381.58 443.825C382.01 445.158 382.117 446.574 381.892 447.957V447.957C381.724 451.047 380.469 453.979 378.347 456.233C376.226 458.486 373.376 459.917 370.302 460.272V460.272Z" fill="#22272E"/>
<path d="M359.439 621.803L286.999 626.874C281.204 627.599 276.857 622.528 276.857 616.008C277.156 612.963 278.455 610.102 280.552 607.874C282.65 605.646 285.426 604.175 288.448 603.693L360.888 597.898C362.316 597.77 363.754 597.969 365.093 598.481C366.432 598.993 367.637 599.804 368.615 600.852C369.593 601.9 370.319 603.158 370.737 604.529C371.156 605.9 371.256 607.349 371.03 608.764V608.764C371.003 611.972 369.813 615.061 367.682 617.459C365.551 619.857 362.622 621.4 359.439 621.803V621.803Z" fill="#F4C2C9"/>
<path d="M353.641 568.933L290.619 574.003C289.343 574.17 288.045 574.04 286.827 573.626C285.609 573.211 284.502 572.522 283.592 571.612C282.682 570.703 281.994 569.596 281.579 568.378C281.165 567.159 281.035 565.862 281.201 564.586L284.823 506.634C284.842 504.526 285.688 502.511 287.178 501.02C288.668 499.53 290.684 498.684 292.792 498.666L356.539 492.146C357.815 491.98 359.112 492.109 360.33 492.524C361.549 492.938 362.656 493.627 363.566 494.537C364.476 495.447 365.164 496.554 365.579 497.772C365.993 498.99 366.122 500.287 365.956 501.563L361.61 560.964C361.353 562.988 360.431 564.869 358.989 566.311C357.546 567.754 355.665 568.676 353.641 568.933V568.933Z" fill="#FFE779"/>
<path d="M465.2 559.514L397.83 565.309C396.569 565.407 395.301 565.231 394.114 564.792C392.927 564.354 391.849 563.663 390.954 562.768C390.059 561.874 389.369 560.796 388.93 559.609C388.491 558.422 388.315 557.154 388.413 555.892L392.759 495.767C392.778 493.659 393.624 491.643 395.114 490.153C396.604 488.663 398.62 487.817 400.728 487.798L468.097 481.279C469.373 481.113 470.67 481.242 471.889 481.656C473.107 482.071 474.213 482.76 475.123 483.67C476.033 484.58 476.722 485.686 477.137 486.905C477.551 488.123 477.68 489.42 477.514 490.696L473.168 551.546C473.032 553.614 472.149 555.563 470.683 557.029C469.217 558.495 467.268 559.378 465.2 559.514V559.514Z" fill="white"/>
</svg>
