<svg width="800" height="800" viewBox="0 0 800 800" fill="none" xmlns="http://www.w3.org/2000/svg">
<path d="M351.897 645.306C351.367 647.03 350.174 653.925 349.245 660.289C333.467 662.941 319.943 656.709 319.943 656.709C320.606 650.08 321.269 643.185 321.269 643.185C321.269 639.473 352.958 642.124 351.897 645.306Z" fill="#22272E"/>
<path d="M349.244 660.156C348.448 665.725 347.652 670.631 347.652 670.631C347.652 670.631 344.073 678.984 335.057 678.984C325.908 678.984 318.748 671.426 318.881 668.244C319.013 666.785 319.411 661.747 319.941 656.576C319.941 656.576 333.333 662.808 349.244 660.156Z" fill="#F4C2C9"/>
<path d="M319.015 665.725C319.015 665.725 321.534 668.509 323.125 669.835C324.583 671.161 329.091 667.05 335.456 667.846C341.82 668.642 343.809 671.161 343.809 671.161C343.809 671.161 346.461 670.63 347.919 669.437C347.919 669.437 347.919 673.945 349.908 679.116C351.897 684.287 361.973 699.402 361.973 702.319C361.973 705.236 361.311 707.49 359.189 708.418C357.068 709.346 343.013 709.479 331.213 709.744C319.413 710.009 310.264 710.672 308.938 706.032C307.612 701.391 313.048 686.939 315.302 678.055C317.556 669.039 317.158 665.857 319.015 665.725Z" fill="#22272E"/>
<path d="M321.004 690.253C321.004 690.253 335.191 682.696 348.715 690.253" stroke="white" stroke-width="2.3866" stroke-miterlimit="10" stroke-linecap="round" stroke-linejoin="round"/>
<path d="M323.654 682.829C323.654 682.829 334.659 679.249 346.194 682.829" stroke="white" stroke-width="2.3866" stroke-miterlimit="10" stroke-linecap="round" stroke-linejoin="round"/>
<path d="M489.522 654.454C474.407 659.625 458.762 656.443 458.894 656.576C458.364 649.151 457.701 641.328 457.701 641.328C459.69 636.687 488.197 634.566 488.462 636.555C488.462 637.615 488.992 646.366 489.522 654.454Z" fill="#22272E"/>
<path d="M490.32 668.509C490.32 668.509 488.331 674.741 479.713 677.923C471.095 681.105 460.09 672.487 459.957 669.967C459.825 668.907 459.427 662.808 458.896 656.576C458.896 656.443 474.409 659.626 489.524 654.455C489.922 661.747 490.32 668.509 490.32 668.509Z" fill="#F4C2C9"/>
<path d="M459.69 668.111C458.762 668.111 458.099 669.437 457.569 677.79C457.039 686.143 454.387 704.573 457.569 707.358C460.751 710.142 524.261 709.346 531.553 708.816C538.846 708.286 542.824 703.513 540.57 700.33C538.316 697.148 522.67 691.314 508.881 682.033C495.092 672.752 491.777 670.763 490.186 668.509C490.186 668.509 490.981 660.952 486.871 662.145C482.761 663.338 479.976 673.15 474.673 674.476C469.502 675.669 468.706 667.581 459.69 668.111Z" fill="#22272E"/>
<path d="M511.931 682.298C511.931 682.298 508.352 681.237 500.264 689.855" stroke="white" stroke-width="2.3866" stroke-miterlimit="10" stroke-linecap="round" stroke-linejoin="round"/>
<path d="M503.182 676.597C503.182 676.597 496.818 676.332 489.525 685.746" stroke="white" stroke-width="2.3866" stroke-miterlimit="10" stroke-linecap="round" stroke-linejoin="round"/>
<path d="M324.982 658.431L325.778 653.128" stroke="#63737A" stroke-width="2.3866" stroke-miterlimit="10" stroke-linecap="round" stroke-linejoin="round"/>
<path d="M334.129 660.421L334.924 655.117" stroke="#63737A" stroke-width="2.3866" stroke-miterlimit="10" stroke-linecap="round" stroke-linejoin="round"/>
<path d="M344.207 660.819L345.135 656.045" stroke="#63737A" stroke-width="2.3866" stroke-miterlimit="10" stroke-linecap="round" stroke-linejoin="round"/>
<path d="M464.863 657.239L464.465 651.67" stroke="#63737A" stroke-width="2.3866" stroke-miterlimit="10" stroke-linecap="round" stroke-linejoin="round"/>
<path d="M475.868 657.106L475.471 651.007" stroke="#63737A" stroke-width="2.3866" stroke-miterlimit="10" stroke-linecap="round" stroke-linejoin="round"/>
<path d="M485.81 655.515L485.412 649.813" stroke="#63737A" stroke-width="2.3866" stroke-miterlimit="10" stroke-linecap="round" stroke-linejoin="round"/>
<path d="M316.097 348.44C316.097 348.44 312.782 362.096 312.384 380.261C311.986 398.426 326.173 455.306 331.344 474.532C336.515 493.889 335.455 496.806 334.659 500.519C333.864 504.231 325.908 533.666 323.256 564.161C320.605 594.657 311.058 619.186 312.119 628.6C313.577 641.328 319.014 645.041 321.268 646.499C323.522 647.958 342.084 653.924 354.68 651.007C354.68 651.007 368.071 642.522 370.591 630.589C373.242 618.656 371.651 604.203 380.27 565.222C388.755 526.241 392.866 510.198 394.059 494.685C394.722 485.404 394.854 458.886 394.987 438.6C395.12 424.811 395.12 413.806 395.252 412.745C395.65 410.093 402.147 413.143 405.594 404.657C407.053 400.812 407.848 393.52 407.981 385.697C408.246 375.753 407.583 364.881 406.257 358.914C404.136 347.909 318.218 336.772 316.097 348.44Z" fill="#22272E"/>
<path d="M498.008 630.986C495.754 636.555 491.643 642.919 487.931 644.378C484.218 645.836 467.512 648.09 459.027 647.295C459.027 647.295 444.84 643.184 443.381 632.445C441.923 621.705 444.442 609.772 439.669 585.641C434.895 561.51 430.785 518.816 429.592 506.22C428.531 493.624 402.411 456.102 390.213 433.429C378.015 410.756 364.889 369.256 375.761 359.577C386.633 349.765 425.482 345.523 437.017 353.345C437.017 353.345 450.408 385.962 463.8 424.943C476.131 460.742 478.65 472.808 480.373 483.15C480.506 484.078 480.639 485.006 480.904 485.934C481.434 489.116 482.097 497.337 483.025 507.944C485.147 534.859 487.666 576.625 488.726 586.171C490.185 599.43 500.262 625.417 498.008 630.986Z" fill="#22272E"/>
<path d="M387.83 414.734C387.83 414.734 401.884 409.563 414.348 407.574" stroke="#63737A" stroke-width="2.3866" stroke-miterlimit="10" stroke-linecap="round" stroke-linejoin="round"/>
<path d="M385.407 507.034C387.322 497.41 381.19 488.079 371.709 486.192C362.229 484.305 352.991 490.578 351.076 500.202C349.16 509.826 355.293 519.157 364.773 521.044C374.253 522.931 383.492 516.658 385.407 507.034Z" stroke="#63737A" stroke-width="2.3866" stroke-miterlimit="10" stroke-linecap="round" stroke-linejoin="round"/>
<path d="M483.028 507.811C479.846 511.789 474.94 514.308 469.504 514.308C459.825 514.308 452.002 506.485 452.002 496.673C452.002 486.994 459.825 479.039 469.371 479.039C473.481 479.039 477.326 480.498 480.376 483.017" stroke="#63737A" stroke-width="2.3866" stroke-miterlimit="10" stroke-linecap="round" stroke-linejoin="round"/>
<path d="M319.146 411.154C319.146 411.154 333.864 399.221 333.996 377.211C333.996 377.211 324.715 376.681 319.146 375.355" stroke="#63737A" stroke-width="2.3866" stroke-miterlimit="10" stroke-linecap="round" stroke-linejoin="round"/>
<path d="M394.988 438.6C395.121 424.811 395.121 413.806 395.253 412.745C395.651 410.094 402.148 413.143 405.595 404.657C407.054 400.812 407.849 393.52 407.982 385.697" stroke="#63737A" stroke-width="2.3866" stroke-miterlimit="10" stroke-linecap="round" stroke-linejoin="round"/>
<path d="M434.101 196.625C434.101 196.625 444.973 197.155 462.475 232.159C479.977 267.03 486.209 279.758 486.209 279.758C486.209 279.758 497.744 276.974 516.571 273.924C535.399 270.875 561.917 267.03 561.917 267.03C561.917 267.03 569.076 267.162 572.126 277.372C574.247 284.797 570.933 290.1 568.944 292.487C568.281 293.282 567.485 293.945 566.425 294.343C558.337 297.79 511.135 317.679 495.092 321.126C477.458 324.838 468.839 324.308 453.194 302.829C437.548 281.349 425.218 264.643 419.516 256.025C413.815 247.009 409.705 197.951 434.101 196.625Z" fill="#6DAFA7"/>
<path d="M463.935 315.027C463.935 315.027 463.007 308 476.664 308C490.32 308 497.348 318.209 494.033 321.126" stroke="#22272E" stroke-width="2.3866" stroke-miterlimit="10" stroke-linecap="round" stroke-linejoin="round"/>
<path d="M486.207 279.625C486.207 279.625 480.506 282.277 479.312 286.255" stroke="#22272E" stroke-width="2.3866" stroke-miterlimit="10" stroke-linecap="round" stroke-linejoin="round"/>
<path d="M562.58 268.091C562.58 268.091 568.414 265.969 569.873 265.174C571.331 264.378 574.513 258.81 577.165 255.362C579.817 251.915 587.374 249.926 589.496 250.324C591.617 250.722 592.413 252.048 592.413 252.048C592.413 252.048 599.042 249.661 603.55 247.805C608.058 245.949 616.411 241.838 617.605 245.153C618.268 247.142 613.097 250.059 609.517 252.048C605.141 254.567 602.224 256.423 602.224 256.423C602.224 256.423 604.346 257.484 604.876 260.268C605.406 263.052 606.865 266.102 604.213 270.345C603.418 271.538 606.467 274.853 604.081 277.902C599.97 282.808 590.026 285.327 584.723 286.918C579.286 288.51 566.956 289.305 566.956 289.305C566.956 289.305 562.978 288.377 561.254 279.759C559.531 271.14 562.58 268.091 562.58 268.091Z" fill="#F4C2C9"/>
<path d="M592.415 252.047C592.415 252.047 593.343 254.433 594.404 258.013C595.464 261.593 596.26 264.378 593.476 264.51C590.691 264.643 588.172 260.4 587.111 258.279" stroke="#E26E85" stroke-width="2.3866" stroke-miterlimit="10" stroke-linecap="round" stroke-linejoin="round"/>
<path d="M588.966 261.328C588.966 261.328 592.015 267.427 584.988 272.731" stroke="#E26E85" stroke-width="2.3866" stroke-miterlimit="10" stroke-linecap="round" stroke-linejoin="round"/>
<path d="M602.359 256.422L594.934 259.869" stroke="#E26E85" stroke-width="2.3866" stroke-miterlimit="10" stroke-linecap="round" stroke-linejoin="round"/>
<path d="M591.22 263.714C591.22 263.714 589.894 265.836 591.22 267.029C592.546 268.222 599.838 265.571 605.142 262.521" stroke="#E26E85" stroke-width="2.3866" stroke-miterlimit="10" stroke-linecap="round" stroke-linejoin="round"/>
<path d="M592.413 267.295C592.413 267.295 590.159 268.488 591.219 270.875C592.28 273.261 597.981 272.333 604.213 270.344" stroke="#E26E85" stroke-width="2.3866" stroke-miterlimit="10" stroke-linecap="round" stroke-linejoin="round"/>
<path d="M593.607 272.333C593.607 272.333 590.293 272.731 592.016 276.045C593.077 278.034 599.441 277.371 600.767 277.902" stroke="#E26E85" stroke-width="2.3866" stroke-miterlimit="10" stroke-linecap="round" stroke-linejoin="round"/>
<path d="M554.891 269.283C553.831 271.139 552.505 274.719 553.433 281.084C554.493 289.172 559.134 293.149 561.653 294.74" stroke="#22272E" stroke-width="2.3866" stroke-miterlimit="10" stroke-linecap="round" stroke-linejoin="round"/>
<path d="M391.145 148.097C391.145 148.097 386.902 169.444 384.516 175.278C382.129 181.112 395.123 190.261 408.117 190.791C421.11 191.321 419.784 183.764 419.784 183.764L423.63 162.549C423.63 162.682 395.786 143.191 391.145 148.097Z" fill="#F4C2C9"/>
<path d="M396.978 154.461C395.122 170.637 406.79 178.46 419.784 184.559C419.784 184.161 419.784 183.764 419.784 183.764L421.905 172.493C412.226 169.311 403.74 162.417 396.978 154.461Z" fill="#E26E85"/>
<path d="M335.457 190.924C338.374 182.305 349.512 177.134 358.528 177.93C367.809 178.725 385.576 178.991 402.68 184.294C431.849 193.31 438.876 198.614 440.6 200.205C450.279 209.486 449.351 223.275 443.782 261.328C440.202 286.388 437.153 292.752 437.948 305.083C438.744 317.281 440.998 339.29 442.456 343.798C443.915 348.306 440.202 356.129 437.02 358.914C433.838 361.698 408.116 367.532 384.25 367.001C360.516 366.471 322.861 359.974 316.895 355.997C310.928 352.019 306.685 345.124 308.011 339.158C309.205 333.191 310.663 324.706 314.376 312.11C318.088 299.514 318.353 283.073 324.187 256.688C328.695 237.197 329.358 208.956 335.457 190.924Z" fill="#FFE779"/>
<path d="M371.917 288.111C379.342 289.702 396.313 292.884 416.732 293.282C418.721 293.282 420.445 294.873 420.71 296.862C421.107 300.309 422.699 305.878 427.472 311.182C428.135 311.845 428.532 312.773 428.532 313.834C428.665 319.402 428.93 338.23 425.218 341.147C420.975 344.329 375.895 347.246 347.918 339.423C346.062 338.893 344.736 337.302 344.736 335.445C344.869 330.009 345.134 318.607 346.062 311.447C346.327 309.988 347.256 308.795 348.581 308.132C352.957 306.143 363.034 300.84 366.613 290.896C367.674 288.774 369.796 287.581 371.917 288.111Z" stroke="#F8AB5D" stroke-width="2.3866" stroke-miterlimit="10" stroke-linecap="round" stroke-linejoin="round"/>
<path d="M382.792 172.096C383.323 170.77 385.046 170.505 386.107 171.433C388.626 174.085 394.062 178.063 403.874 179.919C418.856 182.703 420.315 180.449 420.315 180.449C420.315 180.449 422.701 181.245 422.967 183.234C423.232 185.222 422.569 190.261 421.906 192.78C421.11 195.299 409.973 195.564 401.09 193.708C392.869 191.985 385.577 188.405 380.273 182.968C379.345 182.04 379.08 180.714 379.61 179.521C380.406 177.532 381.732 174.615 382.792 172.096Z" fill="#6DAFA7"/>
<path d="M448.157 122.905C448.157 125.557 448.157 132.717 445.505 139.612C442.854 146.506 438.478 165.732 429.86 171.963C421.242 178.195 402.414 177.002 394.194 160.958C385.973 145.048 388.625 128.076 392.868 114.552C397.11 101.028 414.612 96.1224 429.86 101.691C445.24 107.26 448.157 116.939 448.157 122.905Z" fill="#F4C2C9"/>
<path d="M392.469 132.187C392.469 132.187 393.397 133.247 394.723 136.032C395.917 138.816 398.436 137.225 399.364 132.187C400.292 127.148 402.413 123.568 404.004 123.834C405.595 124.231 411.164 124.894 414.479 118.928C417.794 112.829 419.252 113.757 419.252 113.757C419.252 113.757 421.904 107.393 428.798 116.541C435.693 125.69 440.069 132.85 448.289 131.391C456.51 129.933 463.802 116.541 457.57 103.68C451.206 90.819 431.715 87.7694 417.131 91.6145C402.546 95.4596 394.988 92.2775 386.238 99.7024C377.487 107.127 379.608 114.95 379.078 123.701C378.547 132.452 374.039 137.092 380.006 144.915C385.972 152.738 384.381 160.03 387.696 164.406C387.696 164.406 391.276 152.871 390.878 144.517C390.48 136.164 392.469 132.187 392.469 132.187Z" fill="#22272E"/>
<path d="M431.849 139.48C431.584 146.507 425.882 152.076 419.12 152.076C412.226 152.076 406.657 146.374 406.789 139.214C406.789 131.922 412.756 125.956 419.783 126.088C426.81 126.221 432.114 132.32 431.849 139.48Z" stroke="#22272E" stroke-width="2.3866" stroke-miterlimit="10" stroke-linecap="round" stroke-linejoin="round"/>
<path d="M452.276 147.315C454.119 140.988 452.022 134.813 447.593 133.523C443.164 132.233 438.08 136.317 436.237 142.644C434.394 148.972 436.491 155.147 440.92 156.437C445.349 157.726 450.434 153.643 452.276 147.315Z" stroke="#22272E" stroke-width="2.3866" stroke-miterlimit="10" stroke-linecap="round" stroke-linejoin="round"/>
<path d="M436.49 142.264C436.49 142.264 436.357 139.612 431.717 141.07" stroke="#22272E" stroke-width="2.3866" stroke-miterlimit="10" stroke-linecap="round" stroke-linejoin="round"/>
<path d="M407.851 133.779L392.471 130.994" stroke="#22272E" stroke-width="2.3866" stroke-miterlimit="10" stroke-linecap="round" stroke-linejoin="round"/>
<path d="M393.795 134.573C393.795 134.573 392.602 127.546 386.9 127.414C381.199 127.414 377.752 144.783 391.939 147.169" fill="#F4C2C9"/>
<path d="M385.971 132.85C387.164 132.585 388.622 132.85 389.551 134.176C389.948 134.839 390.081 135.634 390.081 136.43C390.081 136.827 389.948 137.093 389.948 137.49C389.948 137.756 389.816 138.021 389.816 138.286C389.683 138.816 389.683 139.214 389.683 139.612C389.683 140.01 389.683 140.275 389.948 140.54C390.346 141.203 391.407 141.733 392.468 142.396C391.274 142.661 389.948 142.926 388.622 141.998C387.96 141.601 387.562 140.672 387.429 140.01C387.297 139.214 387.429 138.551 387.562 137.888C387.694 137.623 387.694 137.225 387.827 136.96C387.827 136.695 387.96 136.562 387.96 136.297C388.092 135.899 388.092 135.502 387.96 135.236C387.827 134.308 387.031 133.513 385.971 132.85Z" fill="#22272E"/>
<path d="M434.631 140.142C434.764 141.733 435.029 143.192 435.559 144.518C435.824 145.18 436.089 145.711 436.487 146.241C436.752 146.639 437.548 147.567 437.681 148.495C438.211 150.484 437.548 152.34 436.62 153.666C436.089 154.329 435.559 154.992 434.764 155.39C434.101 155.788 433.172 156.185 432.377 156.053C433.703 155.125 434.366 153.931 434.896 152.605C435.426 151.412 435.559 150.086 435.294 149.026C435.161 148.495 434.896 148.23 434.366 147.302C433.968 146.506 433.703 145.711 433.57 144.783C433.57 143.192 433.835 141.468 434.631 140.142Z" fill="#22272E"/>
<path d="M421.372 161.224C421.372 161.224 415.538 161.356 412.621 155.39" stroke="#22272E" stroke-width="2.3866" stroke-miterlimit="10" stroke-linecap="round" stroke-linejoin="round"/>
<path d="M415.935 141.998C414.874 141.733 414.211 140.672 414.476 139.612L415.007 137.623C415.272 136.562 416.333 135.899 417.393 136.164C418.454 136.43 419.117 137.49 418.852 138.551L418.322 140.54C418.056 141.601 416.996 142.264 415.935 141.998Z" fill="#22272E"/>
<path d="M437.019 147.434C435.958 147.169 435.295 146.108 435.56 145.048L436.091 143.059C436.356 141.998 437.417 141.335 438.477 141.6C439.538 141.866 440.201 142.926 439.936 143.987L439.405 145.976C439.14 147.037 438.08 147.7 437.019 147.434Z" fill="#22272E"/>
<path d="M421.241 132.85C419.782 133.115 419.119 131.126 416.998 131.259C413.683 131.391 411.827 132.054 411.562 130.596C411.429 129.535 413.948 127.546 417.13 127.414C421.771 127.414 423.892 132.452 421.241 132.85Z" fill="#22272E"/>
<path d="M437.017 136.828C437.945 137.623 439.271 136.165 440.597 137.093C442.586 138.286 443.249 139.347 443.912 138.419C444.442 137.623 443.912 135.237 442.056 134.043C439.006 131.922 435.028 135.369 437.017 136.828Z" fill="#22272E"/>
<path d="M269.957 358.517C269.957 358.517 268.234 362.229 268.234 364.483C268.234 366.737 270.09 387.553 269.559 391.664C268.896 395.774 267.703 403.862 266.908 405.055C266.112 406.248 261.339 402.536 261.206 390.073C261.074 377.609 256.831 360.505 260.411 358.517C263.991 356.528 268.896 356.925 269.957 358.517Z" fill="#F4C2C9"/>
<path d="M183.113 420.038L214.934 369.919C216.393 367.665 219.442 366.87 221.829 368.461L296.742 416.06C298.996 417.519 299.791 420.568 298.2 422.955L266.379 473.073C264.92 475.327 261.871 476.123 259.484 474.532L184.571 426.932C182.317 425.474 181.655 422.424 183.113 420.038Z" fill="#22272E"/>
<path d="M271.02 458.356L286.93 433.429C287.593 432.236 289.317 432.236 290.113 433.297L292.632 436.611C293.162 437.274 293.162 438.07 292.764 438.866L278.445 461.406C278.047 462.069 277.252 462.466 276.456 462.201L272.346 461.406C271.02 461.008 270.357 459.549 271.02 458.356Z" fill="#6DAFA7"/>
<path d="M266.379 357.19C266.379 357.19 265.583 380.261 265.451 385.166C265.318 389.94 265.583 399.751 264.39 404.392C263.197 409.032 261.208 420.7 257.628 421.496C254.048 422.291 257.893 407.176 257.893 404.259C257.893 401.342 256.302 394.315 256.302 394.315C256.302 394.315 254.976 401.607 254.048 404.79C253.12 407.972 247.021 417.916 244.634 417.518C242.115 417.12 245.164 409.695 247.021 405.187C248.744 401.077 249.407 392.459 249.407 392.459C249.407 392.459 247.418 397.497 245.827 400.149C244.236 402.801 238.8 411.021 236.546 410.623C234.16 410.226 238.005 401.873 240.259 398.027C242.513 394.182 242.645 391.398 242.645 391.398C242.645 391.398 239.065 394.978 236.811 396.702C234.557 398.425 226.602 402.27 225.939 400.281C225.409 398.293 228.856 396.171 232.171 393.122C235.485 390.205 239.065 383.973 239.861 382.912C240.656 381.984 238.402 372.57 241.982 366.339C245.562 360.107 247.684 357.588 248.612 353.345C249.407 349.235 265.981 354.141 266.379 357.19Z" fill="#F4C2C9"/>
<path d="M349.247 177.93C349.247 177.93 334.132 176.472 315.967 199.277C297.803 222.082 279.903 241.175 274.865 250.191C269.826 259.34 258.689 293.017 253.12 319.668C247.551 346.318 247.021 351.091 247.154 354.008C247.286 356.66 260.678 360.372 269.429 360.24C271.02 360.24 272.478 359.312 273.008 357.853C276.456 349.765 288.521 322.187 293.294 312.11C298.863 300.31 305.36 282.808 306.156 281.615C306.951 280.421 343.148 243.562 349.91 233.883C356.672 224.336 363.169 208.558 361.71 194.769C360.119 179.787 352.429 177.798 349.247 177.93Z" fill="#6DAFA7"/>
<path d="M276.719 247.141C276.719 247.141 280.83 241.44 286.001 246.611C291.437 252.047 289.05 263.847 281.493 271.272C275.261 277.371 266.377 274.852 267.173 269.151" stroke="#22272E" stroke-width="2.3866" stroke-miterlimit="10" stroke-linecap="round" stroke-linejoin="round"/>
<path d="M249.01 347.644C252.59 349.367 263.329 354.14 273.804 352.815" stroke="#22272E" stroke-width="2.3866" stroke-miterlimit="10" stroke-linecap="round" stroke-linejoin="round"/>
<rect x="0.5" y="0.5" width="799" height="799" stroke="black"/>
</svg>
