<svg width="800" height="800" viewBox="0 0 800 800" fill="none" xmlns="http://www.w3.org/2000/svg">
<path d="M458.68 612.133C458.68 612.133 460.566 630.593 462.183 640.16C462.587 642.989 473.232 646.223 482.933 644.202C494.925 641.776 495.599 634.905 495.599 634.905C495.599 634.905 493.308 602.567 493.039 600.276C492.769 597.985 460.431 604.049 458.68 612.133Z" fill="#B28D93"/>
<path d="M492.632 624.125C483.335 628.841 471.208 628.976 464.067 628.572C460.833 628.437 458.138 625.877 457.734 622.643C457.06 616.714 456.521 612.133 456.521 612.133C458.408 603.105 494.654 596.368 494.923 598.928C495.058 600.141 495.731 608.899 496.405 617.658C496.675 620.218 495.058 622.778 492.632 624.125Z" fill="#22272E"/>
<path d="M461.91 639.082C461.91 639.082 460.159 641.373 460.967 646.627C461.641 651.882 460.832 675.462 463.797 678.292C466.761 680.987 500.177 679.1 515.133 675.732C531.168 672.094 541.273 665.761 542.351 662.392C543.968 657.542 542.621 656.868 526.048 652.017C509.474 647.301 501.12 640.295 497.617 636.387C495.326 633.827 490.476 631.941 486.164 635.713C484.143 637.465 481.717 643.798 477.271 643.798C466.626 643.663 462.988 638.543 461.91 639.082Z" fill="#22272E"/>
<path d="M519.985 648.379C519.985 648.379 507.588 649.457 498.561 662.392" stroke="white" stroke-width="2.42536" stroke-miterlimit="10" stroke-linecap="round" stroke-linejoin="round"/>
<path d="M509.745 643.663C509.745 643.663 498.426 644.74 490.611 656.328" stroke="white" stroke-width="2.42536" stroke-miterlimit="10" stroke-linecap="round" stroke-linejoin="round"/>
<path d="M346.033 612.538C346.033 612.538 344.146 638.543 343.877 639.755C343.607 640.968 345.763 647.301 358.564 649.053C371.364 650.804 375.676 642.989 375.676 642.989C375.676 642.989 380.257 619.14 381.066 614.828C382.009 610.651 350.21 608.091 346.033 612.538Z" fill="#B28D93"/>
<path d="M383.491 614.289C383.087 616.041 382.144 620.892 381.201 626.282C380.662 629.246 378.236 631.536 375.272 631.806C363.145 633.153 353.309 630.459 347.785 628.303C344.955 627.225 343.069 624.395 343.338 621.296C343.742 615.906 344.012 611.46 344.012 611.46C348.593 606.474 384.434 609.439 383.491 614.289Z" fill="#22272E"/>
<path d="M343.876 638.813C343.876 638.813 340.642 639.621 340.372 645.146C340.103 650.536 333.77 675.867 334.04 678.562C334.309 681.122 335.791 684.625 356.137 684.356C376.483 684.086 387.802 685.164 391.575 681.931C395.482 678.697 390.227 671.286 386.454 664.549C382.547 657.812 377.022 647.706 376.079 642.182C376.079 642.182 372.845 644.337 371.633 644.472C370.42 644.607 369.207 638.813 361.662 638.813C352.904 638.813 349.804 643.664 348.996 643.529C347.918 643.394 344.954 641.238 343.876 638.813Z" fill="#22272E"/>
<path d="M349.402 655.116C349.402 655.116 364.493 649.457 377.833 655.116" stroke="white" stroke-width="2.42536" stroke-miterlimit="10" stroke-linecap="round" stroke-linejoin="round"/>
<path d="M348.324 662.796C348.324 662.796 366.245 657.137 381.067 662.796" stroke="white" stroke-width="2.42536" stroke-miterlimit="10" stroke-linecap="round" stroke-linejoin="round"/>
<path d="M380.256 371.08C380.256 371.08 408.822 378.895 443.046 391.022C475.384 402.475 488.05 409.212 491.553 431.714C495.057 454.216 490.745 534.387 495.057 555.542C499.368 576.697 504.354 591.653 500.177 602.567C497.347 610.113 491.553 612.268 491.553 612.268C491.553 612.268 474.172 619.679 458.676 616.176C458.676 616.176 450.053 614.155 444.933 604.588C439.812 595.021 444.798 564.165 440.89 541.125C436.983 518.218 432.671 480.086 427.955 454.62C423.239 429.019 346.436 418.913 336.6 398.837C326.629 378.76 331.884 361.109 331.884 361.109C331.884 361.109 371.633 360.301 380.256 371.08Z" fill="#22272E"/>
<path d="M360.316 396.681C360.316 396.681 360.316 391.695 359.373 386.575" stroke="#63737A" stroke-width="2.42536" stroke-miterlimit="10" stroke-linecap="round" stroke-linejoin="round"/>
<path d="M492.767 446.535C491.15 446.94 489.399 447.209 487.647 447.209C475.79 447.209 465.684 437.238 465.145 425.111C464.876 416.757 469.053 409.347 475.655 405.574C484.952 411.772 489.668 419.452 491.555 431.848C492.094 435.352 492.498 440.472 492.767 446.535Z" stroke="#63737A" stroke-width="2.42536" stroke-miterlimit="10" stroke-linecap="round" stroke-linejoin="round"/>
<path d="M247.268 372.831C247.268 372.831 246.19 382.802 247.133 405.573C248.076 427.806 265.054 456.91 301.434 457.314C337.814 457.718 359.238 457.314 359.238 457.314C359.238 457.314 356.409 470.249 355.062 503.261C353.714 536.138 343.743 558.91 337.276 579.525C331.616 597.581 331.616 610.247 344.686 616.31C344.686 616.31 361.125 622.778 381.875 621.565C381.875 621.565 391.846 620.757 394.81 596.907C397.775 573.058 410.441 526.976 420.816 497.333C431.191 467.824 439.41 429.692 423.376 416.757C407.342 403.822 352.771 396.006 349.941 394.659C347.112 393.312 347.516 375.121 344.147 363.938C340.914 352.485 258.182 350.329 247.268 372.831Z" fill="#22272E"/>
<path d="M420.949 497.198C431.324 467.689 439.543 429.557 423.509 416.622C407.474 403.687 352.904 395.872 350.074 394.524" stroke="#63737A" stroke-width="2.42536" stroke-miterlimit="10" stroke-linecap="round" stroke-linejoin="round"/>
<path d="M350.209 394.524C350.209 394.524 336.196 391.829 330.537 392.773" stroke="#63737A" stroke-width="2.42536" stroke-miterlimit="10" stroke-linecap="round" stroke-linejoin="round"/>
<path d="M249.693 420.26C254.409 418.239 261.416 413.254 265.728 400.992" stroke="#63737A" stroke-width="2.42536" stroke-miterlimit="10" stroke-linecap="round" stroke-linejoin="round"/>
<path d="M359.236 457.314C359.236 457.314 361.527 450.712 366.243 445.996" stroke="#63737A" stroke-width="2.42536" stroke-miterlimit="10" stroke-linecap="round" stroke-linejoin="round"/>
<path d="M432.402 447.613C429.033 454.485 422.027 459.201 413.942 459.201C402.085 459.201 391.979 449.23 391.44 437.104C390.901 424.842 400.198 415.006 412.191 415.006C418.254 415.006 423.913 417.566 427.955 421.743C431.863 428.076 433.076 437.238 432.402 447.613Z" stroke="#63737A" stroke-width="2.42536" stroke-miterlimit="10" stroke-linecap="round" stroke-linejoin="round"/>
<path d="M350.211 629.245C350.211 629.245 349.807 628.167 350.211 624.934" stroke="#63737A" stroke-width="2.42536" stroke-miterlimit="10" stroke-linecap="round" stroke-linejoin="round"/>
<path d="M361.934 631.805C361.934 631.805 363.281 628.841 363.281 627.089" stroke="#63737A" stroke-width="2.42536" stroke-miterlimit="10" stroke-linecap="round" stroke-linejoin="round"/>
<path d="M374.328 631.805C374.328 631.805 375.81 629.515 376.215 627.628" stroke="#63737A" stroke-width="2.42536" stroke-miterlimit="10" stroke-linecap="round" stroke-linejoin="round"/>
<path d="M465.953 628.571C465.953 628.571 464.74 625.876 464.336 623.047" stroke="#63737A" stroke-width="2.42536" stroke-miterlimit="10" stroke-linecap="round" stroke-linejoin="round"/>
<path d="M480.91 627.763C480.91 627.763 481.314 625.877 480.506 621.7" stroke="#63737A" stroke-width="2.42536" stroke-miterlimit="10" stroke-linecap="round" stroke-linejoin="round"/>
<path d="M494.113 623.048C494.113 623.048 494.787 620.488 493.979 617.254" stroke="#63737A" stroke-width="2.42536" stroke-miterlimit="10" stroke-linecap="round" stroke-linejoin="round"/>
<path d="M352.635 216.8C352.635 216.8 365.975 219.091 387.264 224.076C408.688 228.927 427.148 230.948 427.148 230.948C427.148 230.948 449.111 221.112 475.116 209.928C501.121 198.61 520.794 192.546 520.794 192.546C520.794 192.546 527.531 193.085 531.438 202.922C533.325 207.772 533.46 211.949 533.19 214.779C533.055 216.935 531.843 218.686 530.091 219.899C524.162 223.807 507.858 234.721 482.257 252.372C449.65 274.874 436.041 276.491 419.872 275.817C401.951 275.009 357.486 267.733 357.486 267.733C357.486 267.733 345.494 265.442 341.317 244.018C337.41 222.594 348.458 215.992 352.635 216.8Z" fill="#FFE779"/>
<path d="M426.878 275.818C426.878 275.818 421.623 274.335 425.126 268.407C428.629 262.478 442.373 257.762 450.862 261.266C458.003 264.23 453.692 269.215 453.692 269.215" stroke="#F8AB5D" stroke-width="2.42536" stroke-miterlimit="10" stroke-linecap="round" stroke-linejoin="round"/>
<path d="M512.439 195.376C512.439 195.376 511.092 202.922 514.864 210.333C519.311 219.091 524.701 221.921 526.317 222.46" stroke="#F8AB5D" stroke-width="2.42536" stroke-miterlimit="10" stroke-linecap="round" stroke-linejoin="round"/>
<path d="M520.795 192.547C520.795 192.547 519.717 200.766 523.086 207.638C524.703 211.141 526.724 213.566 528.341 215.049C529.688 216.261 531.574 216.666 533.326 215.992C534.808 215.318 536.829 214.644 538.312 214.51C541.276 214.24 549.36 215.992 554.076 212.623C558.792 209.255 559.87 208.85 560.544 208.716C561.218 208.581 568.359 208.581 569.572 208.042C571.997 206.964 572.536 202.922 571.323 201.305C570.245 199.958 563.239 199.823 561.891 197.802C560.544 195.915 561.757 193.625 569.302 191.738C576.848 189.852 590.187 185.675 589.783 182.441C589.514 179.342 582.237 181.633 573.075 182.576C564.047 183.519 559.601 183.788 555.828 182.306C552.19 180.959 546.935 180.959 541.141 183.788C537.368 185.675 533.326 187.292 526.185 190.391C523.625 191.738 520.795 192.547 520.795 192.547Z" fill="#B28D93"/>
<path d="M570.516 191.469C570.516 191.469 571.863 195.242 571.863 198.206C571.998 201.17 567.686 209.255 564.587 210.737C561.488 212.219 559.467 210.602 558.119 208.446C556.772 206.29 553.269 193.49 560.006 192.008C566.743 190.526 569.168 190.256 570.516 191.469Z" fill="#B28D93"/>
<path d="M571.189 201.305C570.111 199.958 563.104 199.823 561.757 197.802C560.41 195.916 561.622 193.625 569.168 191.739C576.713 189.852 590.053 185.675 589.649 182.441" stroke="#896068" stroke-width="2.42536" stroke-miterlimit="10" stroke-linecap="round" stroke-linejoin="round"/>
<path d="M558.926 183.25C558.387 183.115 552.998 183.25 551.381 183.923" stroke="#896068" stroke-width="2.42536" stroke-miterlimit="10" stroke-linecap="round" stroke-linejoin="round"/>
<path d="M553.941 212.623C558.657 209.12 559.735 208.85 560.409 208.716C561.083 208.581 568.224 208.581 569.437 208.042" stroke="#896068" stroke-width="2.42536" stroke-miterlimit="10" stroke-linecap="round" stroke-linejoin="round"/>
<path d="M303.053 202.517C303.053 202.517 304.535 196.993 314.641 197.532C324.746 198.071 339.433 203.326 340.376 210.871C341.454 218.417 307.769 222.594 303.053 202.517Z" fill="#22272E"/>
<path d="M375.138 263.556C373.79 220.977 352.771 216.8 352.771 216.8C352.771 216.8 329.191 212.893 300.625 213.432C272.06 213.971 249.693 218.822 238.105 235.26C227.865 249.812 205.497 314.354 211.291 332.275C216.142 347.366 230.425 351.004 256.026 346.557C254.409 355.989 252.522 363.4 252.522 363.4C263.302 371.215 287.151 378.895 322.858 378.895C354.657 378.895 370.691 368.52 370.691 368.52C369.479 358.953 376.35 306.135 375.138 263.556Z" fill="#FFE779"/>
<path d="M340.642 226.77C342.125 235.798 342.798 255.471 345.224 274.065C347.649 292.659 348.053 320.012 348.188 346.152C348.323 372.292 352.904 392.773 352.904 392.773C371.094 386.709 384.029 372.427 384.029 372.427C384.029 372.427 385.781 370.271 381.065 352.889C376.349 335.507 375.136 274.065 375.136 274.065C375.136 274.065 376.484 258.3 373.52 243.478C370.555 228.792 360.584 218.416 352.904 215.991C345.224 213.7 339.969 214.105 339.969 214.105C339.969 214.105 340.238 220.977 340.642 226.77Z" fill="#6DAFA7"/>
<path d="M305.207 187.156C305.207 187.156 304.398 202.517 304.398 210.063C304.398 223.267 322.454 236.876 329.191 236.876C340.105 236.876 341.992 224.076 341.453 218.417C340.914 212.757 340.779 196.319 340.914 195.915C341.048 195.51 311.944 179.88 305.207 187.156Z" fill="#B28D93"/>
<path d="M311.674 195.241C313.695 211.949 327.034 220.707 341.452 220.168C341.452 219.629 341.452 218.955 341.317 218.551C341.048 216.26 340.913 212.218 340.913 208.311C330.538 213.7 317.737 204.942 311.674 195.241Z" fill="#896068"/>
<path d="M321.243 233.912C320.3 249.946 326.228 289.83 326.228 335.103C326.228 380.377 319.626 398.971 319.626 398.971C263.977 405.573 235.682 382.128 235.682 382.128C235.682 382.128 237.838 377.412 242.554 364.342C247.269 351.407 247.269 335.238 247.269 335.238C247.269 335.238 253.737 276.086 251.446 262.881C249.156 249.542 240.667 232.16 240.667 232.16C240.667 232.16 247.404 222.324 265.46 217.339C279.473 213.431 294.699 213.027 300.762 213.027L300.627 213.701C306.826 227.579 321.243 233.912 321.243 233.912Z" fill="#6DAFA7"/>
<path d="M273.138 354.911C277.854 356.258 288.499 358.818 301.03 358.279C302.781 358.144 304.129 359.222 303.994 360.57C303.994 360.704 303.994 360.704 303.994 360.704C303.859 361.782 302.647 362.726 301.299 362.86C295.236 363.265 279.606 362.321 271.521 359.088C270.174 358.549 269.5 357.336 269.769 356.258C270.039 355.045 271.656 354.506 273.138 354.911Z" fill="#EAF9F3"/>
<path d="M361.394 354.506C364.089 353.833 370.152 352.485 376.755 350.195C377.698 349.925 378.776 350.734 379.045 352.081V352.216C379.315 353.294 378.911 354.237 378.237 354.506C375.138 355.719 367.323 358.549 362.337 358.818C361.529 358.818 360.721 358.144 360.316 357.067C360.047 355.854 360.451 354.776 361.394 354.506Z" fill="#EAF9F3"/>
<path d="M362.743 287.81C362.474 287.81 362.204 287.81 362.069 287.81C351.829 293.334 345.9 293.064 345.227 287.944C346.305 287.271 347.248 286.597 348.191 285.923C350.482 284.441 353.042 283.498 355.602 283.094C357.219 282.824 359.24 282.555 361.53 282.42C361.53 282.42 364.495 281.746 365.034 282.824C365.573 283.633 365.438 285.654 362.743 287.81Z" fill="#B28D93"/>
<path d="M430.653 335.104L354.12 334.969C351.694 334.969 349.943 332.948 350.078 330.523L355.871 271.236C356.141 268.541 358.432 266.655 361.126 266.789L437.93 271.91C439.681 272.044 441.029 273.661 440.894 275.413L434.696 331.466C434.561 333.487 432.809 335.104 430.653 335.104Z" fill="#22272E"/>
<path d="M404.514 278.512C404.649 277.569 404.11 276.895 403.167 276.895C402.223 276.895 401.415 277.703 401.28 278.512C401.146 279.32 401.684 280.129 402.628 280.129C403.571 280.129 404.245 279.32 404.514 278.512Z" fill="#63737A"/>
<path d="M335.389 320.417C335.119 321.629 334.311 322.438 333.098 322.977C326.765 325.806 302.377 335.912 271.79 343.323C266.131 344.67 260.742 345.883 255.891 346.691C230.155 351.003 216.007 347.5 211.156 332.409C205.363 314.488 227.73 250.081 237.97 235.394C238.779 234.181 239.722 233.104 240.665 232.026C254.813 220.977 269.5 231.756 272.734 249.812C274.351 259.378 270.308 269.888 266.94 281.88C264.514 290.504 258.316 304.382 258.316 304.382L328.921 297.106C330.269 296.971 331.481 297.376 332.29 298.454C338.757 305.595 336.602 316.24 335.389 320.417Z" fill="#FFE779"/>
<path d="M258.317 304.248C258.317 304.248 244.573 305.864 239.318 309.368" stroke="#F8AB5D" stroke-width="2.42536" stroke-miterlimit="10" stroke-linecap="round" stroke-linejoin="round"/>
<path d="M319.356 297.915C319.356 297.915 315.584 302.226 317.066 311.254C318.683 321.09 322.994 323.785 325.959 325.806" stroke="#F8AB5D" stroke-width="2.42536" stroke-miterlimit="10" stroke-linecap="round" stroke-linejoin="round"/>
<path d="M211.158 333.621C211.158 333.621 209.676 325.536 221.398 325.402C233.121 325.267 246.326 341.436 238.106 348.443" stroke="#F8AB5D" stroke-width="2.42536" stroke-miterlimit="10" stroke-linecap="round" stroke-linejoin="round"/>
<path d="M389.153 308.02C388.345 310.58 382.146 308.155 377.43 306.808C371.367 305.056 367.325 303.709 366.921 303.574C367.46 303.843 370.963 305.595 378.104 310.85C382.955 314.488 386.593 318.395 384.976 320.282C383.359 322.168 373.658 316.509 373.658 316.509C373.658 316.509 377.161 318.934 377.969 321.764C378.778 324.459 374.062 323.65 365.169 318.261C365.169 318.261 361.8 318.396 355.468 321.225C349.135 324.055 339.703 322.707 336.738 321.764C335.391 321.36 334.043 321.225 333.1 321.225C331.753 321.225 330.405 320.551 329.597 319.473C327.98 317.452 325.555 313.814 325.016 308.829C324.477 303.843 325.689 301.014 326.633 299.666C327.037 298.993 327.711 298.454 328.519 298.184C329.732 297.78 331.753 296.971 333.235 296.163C334.448 295.489 338.894 292.256 343.341 289.291C344.014 288.887 344.688 288.348 345.227 287.944C348.326 288.078 357.758 288.348 362.07 287.809C362.339 287.809 362.474 287.809 362.744 287.809C368.537 287.405 384.033 288.752 385.65 290.504C387.401 292.255 384.976 294.546 377.7 294.411C372.445 294.277 365.977 295.22 365.977 295.22C365.977 295.22 372.176 296.702 377.7 299.262C383.359 301.822 390.096 305.46 389.153 308.02Z" fill="#B28D93"/>
<path d="M367.055 303.574C367.055 303.574 364.9 302.766 363.283 302.361C361.666 301.957 360.318 301.957 360.318 301.957" stroke="#896068" stroke-width="2.42536" stroke-miterlimit="10" stroke-linecap="round" stroke-linejoin="round"/>
<path d="M373.658 316.51C373.658 316.51 369.211 311.928 364.091 310.85C361.801 310.446 360.318 310.312 360.318 310.312" stroke="#896068" stroke-width="2.42536" stroke-miterlimit="10" stroke-linecap="round" stroke-linejoin="round"/>
<path d="M366.112 295.22C366.112 295.22 362.474 295.085 360.318 295.759" stroke="#896068" stroke-width="2.42536" stroke-miterlimit="10" stroke-linecap="round" stroke-linejoin="round"/>
<path d="M354.388 288.078C354.388 288.078 351.963 288.078 351.154 287.809" stroke="#896068" stroke-width="2.42536" stroke-miterlimit="10" stroke-linecap="round" stroke-linejoin="round"/>
<path d="M340.24 220.034C340.105 218.282 340.105 216.531 340.24 214.644C340.374 213.297 340.509 211.815 340.374 210.872V207.772C340.374 207.772 341.183 209.524 342.8 212.354C344.417 215.049 341.991 227.58 340.779 229.062L340.24 220.034Z" fill="#22272E"/>
<path d="M354.926 160.074C354.926 160.074 354.118 169.236 354.926 184.732C355.735 200.362 344.686 210.063 335.658 212.893C326.63 215.722 309.653 208.716 305.611 188.639C301.434 168.563 292.81 145.926 316.255 137.707C339.566 129.487 355.196 140.94 354.926 160.074Z" fill="#B28D93"/>
<path d="M304.263 174.221C304.263 174.221 307.092 172.47 308.036 166.541C308.305 164.789 309.113 163.846 310.057 163.307C312.752 161.96 314.907 159.669 315.312 156.705C315.581 154.145 316.659 152.258 319.354 153.741C340.508 166.002 354.522 154.818 354.522 154.818L354.656 162.499C362.876 160.208 367.861 149.429 366.244 141.479C364.223 131.508 360.45 133.394 355.734 125.849C351.153 118.303 342.395 113.048 331.346 116.956C320.297 120.863 316.255 122.615 307.631 122.48C299.143 122.346 290.789 125.984 290.115 134.068C289.576 142.153 282.03 144.578 280.683 152.124C279.335 159.669 282.3 163.442 285.129 166.406C287.959 169.371 282.569 177.725 289.711 184.731C296.987 191.738 301.568 193.894 304.532 198.475C304.936 198.475 306.014 186.079 304.263 174.221Z" fill="#22272E"/>
<path d="M306.688 176.512C306.688 176.512 301.568 167.888 294.696 171.796C287.824 175.703 295.1 189.178 305.745 188.504" fill="#B28D93"/>
<path d="M343.475 169.909C344.014 171.391 344.688 172.604 345.496 173.682C345.901 174.221 346.305 174.625 346.709 175.029C347.113 175.299 348.056 176.107 348.461 176.916C349.404 178.667 349.269 180.554 348.595 182.036C348.326 182.844 347.787 183.518 347.248 184.057C346.709 184.596 346.035 185.135 345.227 185.27C346.17 184.057 346.574 182.71 346.709 181.497C346.844 180.284 346.709 178.937 346.305 178.128C346.035 177.589 345.766 177.455 345.092 176.781C344.553 176.107 344.014 175.434 343.745 174.625C343.206 173.008 343.071 171.391 343.475 169.909Z" fill="#22272E"/>
<path d="M336.2 196.453C336.2 196.453 330.675 197.261 327.172 191.872" stroke="#22272E" stroke-width="2.42536" stroke-miterlimit="10" stroke-linecap="round" stroke-linejoin="round"/>
<path d="M328.519 175.568C327.441 175.568 326.633 174.76 326.633 173.682V171.796C326.633 170.718 327.441 169.909 328.519 169.909C329.597 169.909 330.406 170.718 330.406 171.796V173.682C330.406 174.76 329.462 175.568 328.519 175.568Z" fill="#22272E"/>
<path d="M349.402 175.568C348.324 175.568 347.516 174.76 347.516 173.682V171.796C347.516 170.718 348.324 169.909 349.402 169.909C350.48 169.909 351.288 170.718 351.288 171.796V173.682C351.288 174.76 350.345 175.568 349.402 175.568Z" fill="#22272E"/>
<path d="M331.213 165.732C329.865 166.271 328.922 164.654 326.901 165.193C323.802 166.136 322.32 167.214 321.781 165.867C321.377 164.924 323.263 162.498 326.227 161.69C330.539 160.747 333.638 164.789 331.213 165.732Z" fill="#22272E"/>
<path d="M346.842 165.733C347.92 166.137 348.728 164.655 350.211 165.059C352.232 165.733 353.31 166.541 353.579 165.463C353.849 164.655 352.771 162.499 350.75 161.825C347.516 160.747 344.686 164.924 346.842 165.733Z" fill="#22272E"/>
<path d="M295.775 177.454C295.91 176.915 296.314 176.376 296.853 176.107C297.392 175.702 298.066 175.433 298.874 175.568C299.683 175.703 300.357 176.241 300.761 176.78C301.165 177.319 301.435 177.858 301.704 178.397C302.108 179.475 302.378 180.553 302.513 181.362C302.647 181.766 302.647 182.035 302.917 182.305C303.186 182.574 303.725 182.844 304.264 182.979C303.725 183.248 303.186 183.518 302.513 183.383C301.839 183.248 301.165 182.709 300.761 182.17C300.087 181.092 299.683 180.149 299.413 179.341C299.279 178.936 299.009 178.397 298.874 178.128C298.74 177.858 298.605 177.589 298.335 177.454C297.931 176.915 296.853 177.05 295.775 177.454Z" fill="#22272E"/>
<path d="M307.901 260.591C308.44 265.711 305.072 271.235 300.221 271.64C295.37 272.179 291.059 268.406 290.52 263.286C289.981 258.165 293.484 253.584 298.335 253.18C303.32 252.641 307.497 255.471 307.901 260.591Z" fill="#FFE779"/>
<path d="M321.242 233.912C321.242 233.912 306.825 227.58 300.492 213.566L303.052 202.518C303.052 202.518 307.095 211.141 316.257 215.857C319.356 217.474 321.377 220.573 321.512 224.076C321.647 226.906 321.512 230.544 321.242 233.912Z" fill="#22272E"/>
</svg>
