<svg width="800" height="800" viewBox="0 0 800 800" fill="none" xmlns="http://www.w3.org/2000/svg">
<path d="M534.719 607.673L244.984 573.846C240.882 573.378 237.12 571.341 234.488 568.16C231.855 564.979 230.557 560.903 230.865 556.785L253.22 241.46C253.513 237.706 255.118 234.175 257.753 231.486C260.388 228.797 263.886 227.121 267.633 226.753L569.428 194.985C571.269 194.776 573.133 194.98 574.885 195.582C576.637 196.184 578.233 197.168 579.557 198.464C580.881 199.76 581.899 201.334 582.539 203.073C583.178 204.811 583.422 206.671 583.253 208.515L548.838 596.201C548.445 599.577 546.749 602.666 544.111 604.809C541.474 606.952 538.103 607.979 534.719 607.673Z" fill="#63737A"/>
<path d="M522.068 607.67L230.863 573.549C226.761 573.082 222.999 571.044 220.367 567.863C217.734 564.682 216.436 560.606 216.744 556.489L239.099 239.398C239.382 235.612 240.976 232.042 243.607 229.304C246.237 226.566 249.74 224.831 253.512 224.397L556.778 192.335C558.618 192.126 560.482 192.33 562.234 192.932C563.987 193.534 565.583 194.518 566.906 195.814C568.23 197.11 569.249 198.684 569.888 200.423C570.528 202.162 570.772 204.021 570.603 205.866L536.188 595.61C536.101 597.347 535.661 599.047 534.895 600.608C534.128 602.168 533.05 603.556 531.728 604.685C530.406 605.814 528.868 606.661 527.207 607.175C525.545 607.688 523.797 607.857 522.068 607.67Z" fill="#22272E"/>
<path d="M339.108 308.523L267.63 312.053C266.942 312.077 266.256 311.954 265.619 311.692C264.982 311.43 264.407 311.036 263.934 310.535C263.461 310.034 263.1 309.438 262.875 308.787C262.65 308.136 262.567 307.444 262.63 306.758L265.571 264.107C265.647 262.962 266.136 261.883 266.948 261.072C267.759 260.26 268.838 259.771 269.983 259.695L341.755 253.812C342.464 253.759 343.176 253.86 343.842 254.107C344.508 254.355 345.113 254.743 345.616 255.246C346.119 255.748 346.507 256.353 346.754 257.02C347.002 257.686 347.102 258.398 347.05 259.107L343.52 304.111C343.49 305.272 343.016 306.377 342.195 307.198C341.374 308.019 340.269 308.494 339.108 308.523Z" fill="#63737A"/>
<path d="M376.462 339.992L368.52 442.65L253.215 439.12L254.686 417.353L270.569 396.174C271.275 395.2 272.18 394.387 273.225 393.791C274.269 393.195 275.429 392.829 276.627 392.718C277.824 392.606 279.032 392.752 280.169 393.145C281.306 393.538 282.345 394.17 283.218 394.998C284.18 395.928 285.349 396.617 286.629 397.01C287.908 397.403 289.262 397.489 290.581 397.259C291.9 397.03 293.146 396.493 294.218 395.691C295.289 394.889 296.156 393.845 296.749 392.645L309.397 366.465C310.039 365.169 311 364.056 312.19 363.232C313.379 362.407 314.758 361.898 316.197 361.751C317.637 361.604 319.09 361.824 320.422 362.392C321.753 362.959 322.919 363.855 323.81 364.995L338.812 383.82C339.689 384.908 340.82 385.764 342.105 386.313C343.39 386.863 344.79 387.09 346.183 386.974C347.576 386.858 348.919 386.402 350.095 385.648C351.271 384.893 352.245 383.861 352.931 382.644L376.462 339.992Z" fill="#FFE779"/>
<path d="M264.692 541.195C263.533 541.09 262.458 540.543 261.691 539.666C260.924 538.79 260.524 537.652 260.575 536.489L262.928 503.544C263.032 502.384 263.58 501.31 264.456 500.543C265.333 499.776 266.471 499.376 267.634 499.426C268.241 499.461 268.835 499.621 269.377 499.897C269.92 500.172 270.399 500.557 270.786 501.026C271.173 501.496 271.458 502.04 271.625 502.625C271.791 503.211 271.834 503.824 271.752 504.427L269.399 537.371C269.36 537.938 269.205 538.492 268.943 538.997C268.681 539.501 268.318 539.947 267.876 540.306C267.435 540.664 266.925 540.928 266.377 541.081C265.829 541.234 265.256 541.273 264.692 541.195Z" fill="#FFE779"/>
<path d="M302.926 540.312L306.456 493.542C306.561 492.382 307.108 491.308 307.984 490.541C308.861 489.774 309.999 489.374 311.162 489.424H311.75C312.358 489.459 312.951 489.619 313.494 489.895C314.036 490.17 314.516 490.555 314.903 491.024C315.289 491.494 315.575 492.038 315.741 492.623C315.907 493.209 315.951 493.822 315.869 494.425L312.339 541.194C312.304 541.801 312.144 542.395 311.868 542.937C311.593 543.48 311.208 543.959 310.739 544.346C310.269 544.733 309.725 545.018 309.139 545.184C308.554 545.351 307.941 545.394 307.338 545.312H306.75C305.647 545.024 304.671 544.375 303.978 543.469C303.286 542.563 302.915 541.452 302.926 540.312Z" fill="#FFE779"/>
<path d="M345.289 543.842L349.995 484.13C350.159 482.838 350.786 481.649 351.759 480.783C352.733 479.918 353.988 479.435 355.29 479.424C355.98 479.441 356.659 479.605 357.281 479.905C357.904 480.204 358.455 480.632 358.9 481.16C359.345 481.688 359.673 482.304 359.862 482.969C360.051 483.633 360.096 484.329 359.996 485.013L355.29 544.724C355.251 545.407 355.072 546.075 354.766 546.686C354.459 547.297 354.032 547.84 353.509 548.28C352.986 548.721 352.378 549.05 351.724 549.248C351.069 549.446 350.381 549.508 349.701 549.431C348.456 549.11 347.35 548.389 346.554 547.38C345.757 546.37 345.313 545.128 345.289 543.842Z" fill="#FFE779"/>
<path d="M387.64 547.663L393.817 474.126C393.98 472.834 394.607 471.645 395.581 470.779C396.554 469.914 397.809 469.431 399.111 469.42H399.7C400.39 469.438 401.069 469.601 401.691 469.901C402.313 470.2 402.865 470.628 403.31 471.156C403.755 471.684 404.082 472.301 404.271 472.965C404.46 473.629 404.506 474.325 404.406 475.009L398.229 548.545C398.189 549.228 398.011 549.896 397.705 550.507C397.398 551.118 396.971 551.661 396.447 552.101C395.924 552.542 395.317 552.871 394.662 553.069C394.008 553.267 393.32 553.329 392.64 553.252H392.052C390.744 553.055 389.56 552.368 388.741 551.33C387.922 550.292 387.528 548.981 387.64 547.663Z" fill="#6DAFA7"/>
<path d="M429.998 551.787L437.352 464.425C437.515 463.133 438.142 461.944 439.116 461.078C440.089 460.213 441.344 459.73 442.646 459.719H443.823C444.513 459.736 445.192 459.9 445.814 460.2C446.436 460.499 446.988 460.927 447.433 461.455C447.878 461.983 448.205 462.599 448.394 463.264C448.583 463.928 448.629 464.624 448.529 465.308L441.175 552.669C441.136 553.352 440.958 554.019 440.651 554.631C440.345 555.242 439.917 555.785 439.394 556.225C438.871 556.666 438.263 556.995 437.609 557.193C436.954 557.39 436.266 557.453 435.587 557.376H434.704C433.361 557.207 432.13 556.538 431.258 555.502C430.385 554.466 429.936 553.14 429.998 551.787Z" fill="#6DAFA7"/>
<path d="M478.531 561.198H477.061C475.725 561.011 474.506 560.336 473.638 559.305C472.769 558.273 472.312 556.957 472.354 555.61L480.884 454.423C481.048 453.131 481.675 451.942 482.648 451.076C483.622 450.211 484.877 449.728 486.179 449.717H487.65C488.346 449.754 489.027 449.929 489.655 450.23C490.283 450.532 490.846 450.954 491.31 451.473C491.775 451.992 492.132 452.598 492.362 453.256C492.592 453.913 492.69 454.61 492.65 455.306L484.12 556.492C483.993 557.853 483.336 559.11 482.29 559.99C481.244 560.871 479.894 561.305 478.531 561.198Z" fill="#F4C2C9"/>
<path d="M480.598 354.114L493.246 376.175C482.657 390.294 469.42 399.118 455.595 399.118C428.534 399.118 410.003 365.292 413.532 323.523C417.062 281.754 441.182 245.574 468.832 243.515C482.951 242.338 495.011 250.28 503.247 263.811L486.775 287.048C482.068 278.812 474.715 274.106 466.185 274.4C449.712 275.577 434.711 297.05 432.652 322.64C430.593 348.231 442.065 368.527 458.243 368.233C466.185 368.233 474.127 362.938 480.598 354.114Z" fill="#6DAFA7"/>
<path d="M513.24 319.702C511.181 341.763 503.827 362.059 493.238 376.472L480.59 354.411C487.539 344.428 491.61 332.725 492.356 320.584C493.659 309.136 491.508 297.561 486.179 287.346L502.651 264.108C510.887 277.639 515.005 297.347 513.24 319.702Z" fill="#FFE779"/>
<path d="M531.481 224.693C531.775 222.046 530.599 219.987 528.54 219.987C527.475 220.303 526.548 220.968 525.907 221.875C525.267 222.782 524.951 223.878 525.01 224.987C524.716 227.635 525.892 229.694 527.657 229.694C529.422 229.694 531.187 227.635 531.481 224.693Z" fill="#63737A"/>
<path d="M549.424 223.218C549.718 220.571 548.248 218.512 546.483 218.512C545.373 218.886 544.408 219.597 543.722 220.546C543.037 221.496 542.665 222.635 542.659 223.806C542.365 226.454 543.835 228.513 545.6 228.513C547.365 228.513 549.13 225.865 549.424 223.218Z" fill="#63737A"/>
<rect x="0.5" y="0.5" width="799" height="799" stroke="black"/>
</svg>
