<svg width="800" height="800" viewBox="0 0 800 800" fill="none" xmlns="http://www.w3.org/2000/svg">
<path d="M575.549 527.677L251.441 613.579C248.681 614.331 245.79 614.476 242.969 614.002C240.147 613.529 237.461 612.449 235.097 610.838C232.734 609.226 230.747 607.12 229.276 604.667C227.805 602.213 226.883 599.469 226.575 596.625L186.168 247.085C185.926 245.109 186.127 243.104 186.757 241.216C187.387 239.328 188.431 237.604 189.811 236.169C191.191 234.735 192.874 233.626 194.737 232.924C196.599 232.221 198.595 231.943 200.579 232.109L530.056 254.997C534.601 255.277 538.91 257.117 542.256 260.205C545.603 263.294 547.781 267.443 548.423 271.952L585.157 512.701C585.725 515.947 585.053 519.289 583.274 522.063C581.494 524.837 578.737 526.841 575.549 527.677Z" fill="#63737A"/>
<path d="M590.524 528.807L263.025 615.556C260.228 616.277 257.309 616.391 254.465 615.891C251.62 615.39 248.915 614.286 246.533 612.653C244.15 611.021 242.145 608.896 240.652 606.424C239.159 603.951 238.212 601.188 237.876 598.319L197.186 245.106C196.971 243.098 197.198 241.068 197.852 239.157C198.506 237.246 199.571 235.502 200.972 234.048C202.373 232.593 204.075 231.463 205.96 230.737C207.845 230.012 209.865 229.708 211.88 229.847L545.03 252.736C549.603 253.02 553.943 254.854 557.333 257.936C560.724 261.019 562.962 265.164 563.68 269.69L600.979 512.983C601.347 516.424 600.504 519.887 598.596 522.774C596.688 525.662 593.834 527.795 590.524 528.807Z" fill="#22272E"/>
<path d="M334.234 296.82L254.267 295.689C253.487 295.699 252.733 295.413 252.156 294.889C251.579 294.364 251.223 293.641 251.159 292.864L250.028 283.821C249.973 283.373 250.012 282.918 250.141 282.485C250.27 282.052 250.488 281.65 250.779 281.305C251.071 280.96 251.431 280.679 251.837 280.48C252.243 280.281 252.685 280.168 253.137 280.148L333.386 282.409C334.166 282.399 334.92 282.685 335.497 283.209C336.074 283.734 336.43 284.457 336.495 285.234L337.625 293.429C337.61 294.323 337.248 295.178 336.616 295.81C335.983 296.443 335.129 296.805 334.234 296.82Z" fill="#6DAFA7"/>
<path d="M255.113 326.775L409.962 324.797" stroke="#63737A" stroke-width="5.23442" stroke-linecap="round" stroke-linejoin="round"/>
<path d="M259.068 358.136L357.12 354.18" stroke="#63737A" stroke-width="5.23442" stroke-linecap="round" stroke-linejoin="round"/>
<path d="M295.807 551.414L286.482 553.392C285.995 553.513 285.488 553.526 284.996 553.429C284.503 553.332 284.039 553.128 283.634 552.831C283.23 552.535 282.895 552.153 282.655 551.713C282.415 551.272 282.274 550.784 282.243 550.284L272.919 472.012C272.855 471.547 272.886 471.074 273.01 470.621C273.133 470.168 273.345 469.745 273.635 469.376C273.925 469.007 274.286 468.7 274.697 468.473C275.108 468.247 275.56 468.105 276.027 468.056L285.352 466.643C285.817 466.58 286.289 466.611 286.742 466.734C287.195 466.857 287.618 467.07 287.987 467.36C288.356 467.65 288.663 468.011 288.89 468.422C289.117 468.833 289.259 469.285 289.308 469.751L298.915 547.458C298.879 548.361 298.559 549.229 298.001 549.939C297.443 550.649 296.675 551.165 295.807 551.414Z" fill="#FFE779"/>
<path d="M328.866 540.395L313.325 416.064C313.262 415.599 313.293 415.126 313.416 414.673C313.539 414.22 313.752 413.797 314.042 413.428C314.332 413.059 314.693 412.752 315.103 412.525C315.514 412.299 315.966 412.157 316.433 412.108L324.345 411.26C324.797 411.182 325.261 411.203 325.704 411.323C326.147 411.444 326.558 411.66 326.908 411.956C327.258 412.252 327.539 412.622 327.731 413.039C327.923 413.456 328.021 413.91 328.018 414.368L343.56 537.569C343.664 538.462 343.433 539.361 342.911 540.092C342.388 540.824 341.612 541.334 340.734 541.525L332.54 543.22C331.127 543.785 329.149 542.373 328.866 540.395Z" fill="#6DAFA7"/>
<path d="M372.101 531.068L366.167 485.292C366.042 484.396 366.265 483.486 366.791 482.75C367.316 482.014 368.105 481.508 368.992 481.336L375.774 480.206C376.239 480.143 376.712 480.174 377.165 480.297C377.618 480.42 378.041 480.633 378.41 480.923C378.779 481.212 379.086 481.573 379.313 481.984C379.539 482.395 379.681 482.847 379.73 483.314L385.664 528.808C385.769 529.7 385.537 530.6 385.015 531.331C384.493 532.063 383.717 532.573 382.838 532.764L376.057 534.177C375.589 534.261 375.108 534.246 374.647 534.131C374.186 534.017 373.754 533.806 373.38 533.512C373.006 533.218 372.699 532.848 372.478 532.427C372.258 532.006 372.129 531.543 372.101 531.068Z" fill="#FFE779"/>
<path d="M421.834 524.286L415.9 525.417C415.434 525.541 414.947 525.565 414.471 525.487C413.996 525.409 413.542 525.23 413.141 524.963C412.74 524.695 412.401 524.345 412.145 523.936C411.89 523.527 411.725 523.069 411.661 522.591L408.27 498.007C408.145 497.111 408.369 496.202 408.894 495.466C409.42 494.73 410.208 494.223 411.096 494.051L417.03 492.921C417.498 492.836 417.978 492.852 418.44 492.966C418.901 493.081 419.333 493.292 419.707 493.586C420.081 493.879 420.388 494.249 420.608 494.67C420.829 495.091 420.958 495.555 420.986 496.029L424.377 520.613C424.518 521.436 424.33 522.282 423.855 522.968C423.379 523.655 422.654 524.128 421.834 524.286Z" fill="#F4C2C9"/>
<path d="M537.119 490.094L512.818 435.558L533.729 387.239C543.336 397.411 550.4 412.67 553.226 429.907C556.334 454.49 549.835 477.944 537.119 490.094Z" fill="#6DAFA7"/>
<path d="M533.445 387.239L512.535 435.559L471.562 402.781C477.496 386.109 489.082 374.524 503.493 373.676C514.231 372.828 524.968 377.914 533.445 387.239Z" fill="#F4C2C9"/>
<path d="M537.121 490.103C532.914 494.225 527.622 497.066 521.862 498.297C498.127 503.383 473.543 477.952 468.457 441.5C466.528 428.435 467.591 415.101 471.565 402.506L512.538 435.284L537.121 490.103Z" fill="#FFE779"/>
<path d="M599.851 260.933C604.938 295.407 585.723 326.772 553.51 331.293C516.493 336.379 477.781 304.449 472.695 260.368C467.891 217.135 498.126 187.465 535.143 192.551C567.638 197.072 595.048 227.025 599.851 260.933Z" fill="#F8AB5D"/>
<path d="M613.13 254.998C618.216 290.602 598.719 323.098 565.376 327.619C526.946 332.988 487.104 299.927 482.017 254.433C476.931 209.787 508.296 179.27 546.443 184.356C579.787 189.159 608.044 220.242 613.13 254.998Z" fill="#FFE779"/>
<path d="M566.789 235.222C567.919 243.982 562.551 250.764 554.639 250.764C546.727 250.764 538.532 243.134 537.402 234.092C536.272 225.05 542.205 218.268 550.4 218.833C554.545 219.404 558.39 221.315 561.349 224.273C564.308 227.232 566.218 231.077 566.789 235.222Z" fill="#22272E"/>
<path d="M574.419 290.601L545.314 292.579C538.25 293.144 531.751 287.21 530.621 279.298C528.36 262.061 539.663 248.498 554.639 248.78C568.768 249.063 581.483 261.778 583.744 277.037C584.309 284.384 580.353 290.318 574.419 290.601Z" fill="#22272E"/>
<rect x="0.5" y="0.5" width="799" height="799" stroke="black"/>
</svg>
