<svg width="800" height="800" viewBox="0 0 800 800" fill="none" xmlns="http://www.w3.org/2000/svg">
<path d="M610.456 531.9L238.591 594.085C225.221 596.262 212.473 586.934 210.607 573.564L163.036 233.413C161.171 220.043 172.364 208.539 185.734 210.094L553.246 253.623C563.817 254.867 572.212 262.64 574.389 273.211L621.649 516.043C622.893 523.505 617.918 530.657 610.456 531.9Z" fill="#F8AB5D"/>
<path d="M626.005 527.546L254.14 589.731C240.77 591.908 228.022 582.58 226.157 569.21L178.274 229.059C176.409 215.689 187.602 204.185 200.972 205.74L568.484 249.269C579.055 250.513 587.45 258.286 589.627 268.857L636.887 511.689C638.442 519.151 633.467 526.303 626.005 527.546Z" fill="#FFE779"/>
<path d="M388.455 510.447L296.733 521.018C289.893 521.951 283.674 516.976 282.741 510.447L249.162 285.959C248.229 279.741 253.204 274.144 259.733 274.766L351.456 281.606C357.363 281.917 362.027 286.27 362.96 292.178L397.161 499.253C397.783 504.539 393.741 509.825 388.455 510.447Z" fill="#22272E"/>
<path d="M395.92 506.402L304.198 516.973C297.357 517.906 291.139 512.931 290.206 506.402L256.626 281.914C255.694 275.696 260.668 270.099 267.198 270.721L358.92 277.562C364.828 277.872 369.492 282.225 370.425 288.133L404.626 495.208C405.248 500.494 401.517 505.78 395.92 506.402Z" fill="#6DAFA7"/>
<path d="M305.441 288.133L319.744 289.066" stroke="#22272E" stroke-width="5.59663" stroke-miterlimit="10" stroke-linecap="round" stroke-linejoin="round"/>
<path d="M327.205 289.688H328.138" stroke="#22272E" stroke-width="5.59663" stroke-miterlimit="10" stroke-linecap="round" stroke-linejoin="round"/>
<path d="M259.424 299.64L373.222 305.548" stroke="#22272E" stroke-width="5.59663" stroke-miterlimit="10" stroke-linecap="round" stroke-linejoin="round"/>
<path d="M287.715 488.993L401.513 478.422" stroke="#22272E" stroke-width="5.59663" stroke-miterlimit="10" stroke-linecap="round" stroke-linejoin="round"/>
<path d="M519.351 316.116C520.906 324.822 516.864 331.663 510.335 331.352C503.494 331.041 496.654 323.579 495.099 314.873C493.545 305.856 497.587 299.016 504.427 299.637C510.957 299.948 517.486 307.411 519.351 316.116Z" fill="#22272E"/>
<path d="M531.479 371.773H503.496C498.521 371.773 494.479 368.353 493.547 363.378L492.614 358.403C489.816 341.924 497.589 329.177 509.715 329.488C521.841 329.798 533.656 342.857 536.454 358.714L537.387 364.311C538.32 368.353 535.521 371.773 531.479 371.773Z" fill="#22272E"/>
<path d="M498.833 420.897C500.388 430.225 496.035 437.998 488.884 438.62C481.733 438.931 474.27 431.779 472.716 422.141C471.161 412.502 475.514 404.729 482.976 404.418C490.128 404.418 496.968 411.569 498.833 420.897Z" fill="#22272E"/>
<path d="M511.27 480.283L481.732 483.392C476.447 484.014 471.472 480.283 470.539 474.997L469.606 470.022C466.497 452.611 474.892 437.686 488.262 436.754C501.01 435.821 513.758 448.88 516.867 465.67L517.8 471.266C518.732 475.619 515.934 479.661 511.27 480.283Z" fill="#22272E"/>
<path d="M574.7 417.166C576.255 425.872 572.834 433.024 566.616 433.645C560.397 433.956 553.868 427.116 552.313 418.41C550.759 409.704 554.49 402.242 560.708 401.931C566.927 401.931 573.145 408.771 574.7 417.166Z" fill="#22272E"/>
<path d="M585.893 472.508L562.884 474.996C557.599 475.618 552.935 471.886 552.002 466.601L551.38 462.559C548.271 446.391 555.422 432.71 566.616 431.777C577.809 431.155 589.002 443.281 591.8 458.828L592.733 463.492C593.355 467.844 590.246 471.886 585.893 472.508Z" fill="#22272E"/>
<path d="M412.398 377.677L441.003 377.366" stroke="#22272E" stroke-width="5.59663" stroke-linecap="round" stroke-linejoin="round"/>
<path d="M440.384 390.427L456.552 379.855C458.418 378.612 458.418 375.813 456.241 374.88L436.342 364.62C434.166 363.376 431.678 365.242 432.3 367.729L436.031 388.561C436.342 390.738 438.519 391.67 440.384 390.427Z" fill="#22272E"/>
<rect x="0.5" y="0.5" width="799" height="799" stroke="black"/>
</svg>
