<svg width="800" height="800" viewBox="0 0 800 800" fill="none" xmlns="http://www.w3.org/2000/svg">
<path d="M453.444 652.538L303.067 621.519C286.209 618.147 274.408 597.917 276.094 576.338L304.079 223.661C305.765 202.083 320.937 181.853 338.47 178.481L493.904 147.461C517.506 142.741 535.376 159.937 533.353 186.236L499.636 614.101C496.939 640.063 476.034 657.258 453.444 652.538Z" fill="#22272E"/>
<path d="M444.001 652.538L293.624 621.519C276.765 618.147 264.965 597.917 266.65 576.338L294.635 223.661C296.321 202.083 311.494 181.853 329.026 178.481L484.461 147.461C508.062 142.741 525.932 159.937 523.909 186.236L490.192 614.101C487.495 640.063 466.591 657.258 444.001 652.538Z" fill="#22272E"/>
<path d="M398.486 203.433L369.49 208.153C366.792 208.49 364.77 206.13 364.77 202.758C365.107 199.387 367.467 196.352 370.501 195.678L399.498 190.62C402.532 189.946 404.555 192.643 404.555 196.015C403.881 199.387 401.521 202.758 398.486 203.433Z" fill="#63737A"/>
<path d="M427.819 198.373L423.773 199.048C420.739 199.722 418.379 197.025 418.716 193.653C419.053 189.944 421.75 186.91 424.785 186.235L428.831 185.561C431.865 184.887 434.225 187.584 433.888 190.956C433.888 194.327 430.854 197.699 427.819 198.373Z" fill="#63737A"/>
<path d="M314.191 257.378L385.334 248.274" stroke="#63737A" stroke-width="6.06901" stroke-miterlimit="10" stroke-linecap="round" stroke-linejoin="round"/>
<path d="M348.244 581.733L298.68 573.641C293.285 572.629 289.577 566.56 290.251 559.817C290.925 553.074 295.309 548.016 300.703 549.028L350.267 555.771C355.999 556.445 360.382 563.189 359.708 570.269C359.37 577.687 353.976 582.744 348.244 581.733Z" fill="#63737A"/>
<path d="M464.567 380.783L312.842 383.143C307.784 383.143 304.413 378.086 304.75 372.017L310.482 298.851C310.819 292.782 315.202 287.051 320.26 286.713L472.996 270.867C479.402 270.192 484.46 275.587 483.786 282.667L477.042 367.296C476.705 374.714 470.973 380.783 464.567 380.783Z" fill="#FFE779"/>
<path d="M400.846 326.837L385.337 316.722C383.313 315.373 380.279 317.396 380.279 320.431L378.593 342.346C378.256 345.381 380.953 347.067 383.314 345.381L400.509 333.58C402.869 332.231 403.206 328.523 400.846 326.837Z" fill="#22272E"/>
<path d="M453.442 520.032L303.403 505.196C298.682 504.859 294.973 499.465 295.648 493.058L301.379 419.893C301.717 413.824 306.1 408.767 311.157 408.767L462.546 410.115C468.952 410.115 473.672 416.184 473.335 423.265L466.591 507.894C465.58 515.311 459.848 520.706 453.442 520.032Z" fill="#63737A"/>
<path d="M390.39 458.666L375.217 446.865C373.194 445.179 370.16 447.202 370.16 450.237L368.474 472.153C368.137 475.187 370.834 477.21 373.194 475.861L390.053 465.746C392.413 464.061 392.75 460.352 390.39 458.666Z" fill="#22272E"/>
</svg>
