<svg width="800" height="800" viewBox="0 0 800 800" fill="none" xmlns="http://www.w3.org/2000/svg">
<path d="M592.128 544.309L244.096 588.881C228.495 590.738 212.895 578.11 211.409 562.138L174.638 236.02C172.78 220.791 185.038 209.277 200.638 211.134L549.042 255.706C562.042 257.192 573.185 268.335 575.414 280.963L611.443 517.938C613.3 531.309 605.129 542.452 592.128 544.309Z" fill="#F8AB5D"/>
<path d="M606.242 544.308L258.21 588.88C242.609 590.737 227.009 578.109 225.152 562.137L188.009 236.019C186.152 220.79 198.409 209.276 214.009 211.133L562.413 255.705C575.414 257.191 586.557 268.334 588.785 280.962L625.186 517.937C627.414 531.308 619.243 542.823 606.242 544.308Z" fill="#FFE779"/>
<path d="M339.184 332.224C350.327 328.138 354.784 312.166 342.527 295.823C323.956 280.594 306.498 291.737 308.727 309.566C309.841 319.223 316.898 327.766 325.07 331.481C309.841 333.709 298.327 345.595 295.727 361.938L374.099 364.167C368.156 348.567 354.784 335.938 339.184 332.224Z" fill="#22272E"/>
<path d="M410.873 308.45L538.646 317.736" stroke="#63737A" stroke-width="6.6858" stroke-miterlimit="10" stroke-linecap="round" stroke-linejoin="round"/>
<path d="M414.955 338.906L542.728 345.221" stroke="#63737A" stroke-width="6.6858" stroke-miterlimit="10" stroke-linecap="round" stroke-linejoin="round"/>
<path d="M357.014 470.769C368.157 465.198 372.615 448.112 359.986 432.511C341.414 418.397 323.957 432.14 326.185 450.34C327.3 460.369 334.357 468.541 342.9 471.512C327.671 475.226 316.157 488.969 313.557 506.427L391.929 500.484C385.986 484.512 372.243 472.626 357.014 470.769Z" fill="#22272E"/>
<path d="M428.703 438.083L555.733 434.74" stroke="#63737A" stroke-width="6.6858" stroke-miterlimit="10" stroke-linecap="round" stroke-linejoin="round"/>
<path d="M432.785 469.65L560.187 462.964" stroke="#63737A" stroke-width="6.6858" stroke-miterlimit="10" stroke-linecap="round" stroke-linejoin="round"/>
</svg>
