<svg width="800" height="800" viewBox="0 0 800 800" fill="none" xmlns="http://www.w3.org/2000/svg">
<path d="M577.099 552.301L189.212 536.451C180.855 536.163 175.092 528.382 176.244 518.872L207.944 285.736C209.097 276.515 217.165 269.022 225.523 268.446L613.41 252.596C624.072 252.02 631.565 260.089 630.412 270.463L598.712 533.569C597.56 544.52 587.762 552.877 577.099 552.301Z" fill="#F8AB5D"/>
<path d="M570.472 547.405L182.585 531.555C174.228 531.267 168.465 523.486 169.617 513.976L201.317 280.841C202.47 271.619 210.539 264.127 218.896 263.55L606.782 247.7C617.445 247.124 624.938 255.193 623.785 265.567L592.085 528.673C590.933 539.624 581.135 547.693 570.472 547.405Z" fill="#FFE779"/>
<path d="M262.41 396.975H365.001" stroke="#F8AB5D" stroke-width="5.18719" stroke-miterlimit="10" stroke-linecap="round" stroke-linejoin="round"/>
<path d="M354.047 481.414L298.717 479.973C290.072 479.685 284.308 472.192 285.461 463.259L303.04 330.985C304.193 322.052 311.973 314.559 320.619 314.271L375.949 312.83" stroke="#F8AB5D" stroke-width="5.18719" stroke-miterlimit="10" stroke-linecap="round" stroke-linejoin="round"/>
<path d="M436.467 328.103L372.204 329.256C368.457 329.256 366.152 326.374 366.44 322.628L369.034 303.32C369.61 299.573 372.78 296.403 376.526 296.403L440.79 294.386C444.536 294.386 447.13 297.268 446.842 301.014L444.248 320.61C443.672 324.933 440.214 328.103 436.467 328.103Z" fill="#6DAFA7"/>
<path d="M547.125 414.268L478.25 413.98C474.504 413.98 471.622 410.81 472.199 406.776L474.792 386.603C475.368 382.569 478.827 379.399 482.573 379.399L551.447 379.111C555.482 379.111 558.364 382.281 557.787 386.315L555.194 406.776C554.906 411.099 551.159 414.268 547.125 414.268Z" fill="#6DAFA7"/>
<path d="M414.854 499.855L350.591 498.126C346.844 498.126 344.539 494.956 344.827 491.21L347.42 471.614C347.997 467.868 351.167 464.698 354.913 464.986L419.177 466.139C422.923 466.139 425.517 469.309 425.228 473.343L422.635 493.227C422.059 496.974 418.6 499.855 414.854 499.855Z" fill="#6DAFA7"/>
<path d="M434.74 396.689H473.644" stroke="#F8AB5D" stroke-width="5.18719" stroke-miterlimit="10" stroke-linecap="round" stroke-linejoin="round"/>
<path d="M425.805 413.689L361.542 413.401C357.795 413.401 355.49 410.231 355.778 406.484L358.372 387.177C358.948 383.43 362.118 380.26 365.864 380.26L430.128 379.972C433.874 379.972 436.468 383.142 436.18 386.888L433.586 406.773C433.01 410.519 429.552 413.689 425.805 413.689Z" fill="#F4C2C9"/>
<path d="M262.408 396.978C263.849 386.315 256.933 377.958 247.135 377.958C237.337 377.958 228.403 386.603 226.962 396.978C225.521 407.352 232.149 415.997 241.947 415.997C251.746 415.997 260.967 407.64 262.408 396.978Z" fill="#6DAFA7"/>
</svg>
