<svg width="800" height="800" viewBox="0 0 800 800" fill="none" xmlns="http://www.w3.org/2000/svg">
<path d="M589.544 550.122L266.759 623.2C264.65 623.667 262.467 623.695 260.346 623.282C258.225 622.869 256.212 622.023 254.432 620.798C252.653 619.572 251.145 617.994 250.002 616.16C248.859 614.326 248.106 612.277 247.79 610.139L182.798 197.484C182.402 195.026 182.595 192.509 183.362 190.14C184.128 187.771 185.446 185.617 187.206 183.857C188.967 182.096 191.12 180.778 193.489 180.012C195.858 179.246 198.376 179.052 200.834 179.448L536.68 235.733C539.882 236.308 542.839 237.83 545.167 240.103C547.496 242.376 549.089 245.295 549.74 248.483L599.184 535.507C599.709 538.709 599.008 541.991 597.222 544.699C595.436 547.408 592.694 549.344 589.544 550.122Z" fill="#63737A"/>
<path d="M607.579 549.807L282.617 623.195C280.488 623.677 278.283 623.718 276.138 623.313C273.992 622.909 271.953 622.068 270.146 620.844C268.339 619.62 266.802 618.038 265.631 616.196C264.459 614.353 263.679 612.291 263.337 610.135L197.723 194.681C197.335 192.196 197.544 189.655 198.334 187.267C199.124 184.88 200.472 182.715 202.265 180.952C204.059 179.189 206.246 177.879 208.647 177.13C211.047 176.381 213.592 176.214 216.07 176.645L554.092 233.241C557.339 233.832 560.328 235.399 562.662 237.732C564.995 240.066 566.562 243.055 567.153 246.301L617.219 535.191C617.766 538.396 617.075 541.689 615.285 544.402C613.495 547.116 610.74 549.048 607.579 549.807Z" fill="#22272E"/>
<path d="M336.724 270.252C338.279 279.27 332.682 285.801 324.286 285.179C315.889 284.557 307.493 276.472 305.938 267.143C304.383 257.814 310.292 251.283 318.688 252.216C323.187 252.996 327.335 255.147 330.564 258.376C333.793 261.605 335.945 265.753 336.724 270.252Z" fill="#FFE779"/>
<path d="M346.054 327.158L315.579 325.915C311.873 325.481 308.41 323.849 305.716 321.267C303.021 318.685 301.244 315.294 300.653 311.61C297.854 294.818 308.738 282.068 323.975 283.312C338.902 284.556 352.895 298.549 355.694 314.72C356.938 321.872 352.585 327.469 346.054 327.158Z" fill="#FFE779"/>
<path d="M365.958 540.475C362.873 540.727 359.812 539.762 357.429 537.786C355.046 535.81 353.531 532.98 353.209 529.902L328.331 375.972C327.398 369.442 331.441 363.845 337.349 363.845C340.488 364.11 343.448 365.417 345.758 367.558C348.069 369.699 349.597 372.552 350.099 375.661L374.665 526.481C375.598 533.322 371.867 539.542 365.958 540.475Z" fill="#63737A"/>
<path d="M339.216 444.703L352.899 529.908C353.222 532.987 354.736 535.817 357.119 537.793C359.502 539.769 362.563 540.734 365.649 540.481C368.596 539.783 371.154 537.963 372.78 535.408C374.406 532.853 374.972 529.764 374.356 526.799L360.673 443.148C360.247 440.062 358.724 437.232 356.383 435.176C354.042 433.12 351.039 431.976 347.923 431.953C342.326 432.264 338.283 437.862 339.216 444.703Z" fill="#6DAFA7"/>
<path d="M438.103 280.199C439.347 288.284 434.993 294.504 428.152 293.882C421.311 293.26 414.469 286.107 412.915 277.711C411.36 269.315 416.024 263.407 423.176 264.029C430.329 264.651 436.548 271.803 438.103 280.199Z" fill="#F4C2C9"/>
<path d="M446.499 331.511L421.933 330.578C416.335 330.267 410.738 324.67 409.494 317.829C407.006 302.591 415.402 291.085 427.841 292.018C439.969 292.951 451.786 305.701 454.273 320.316C455.206 326.847 451.786 331.822 446.499 331.511Z" fill="#F4C2C9"/>
<path d="M466.402 523.995C461.737 524.928 456.762 520.574 455.829 514.355L432.817 375.663C431.884 369.754 434.994 364.779 439.97 364.779C444.945 364.779 449.61 369.754 450.542 375.663L473.243 511.556C474.176 517.775 471.377 523.373 466.402 523.995Z" fill="#63737A"/>
<path d="M442.458 433.503L455.83 513.733C456.763 519.33 461.117 523.995 465.47 523.995C470.757 523.684 474.177 518.086 473.244 511.556L459.873 432.259C458.94 426.351 454.275 421.686 449.3 421.997C444.635 422.619 441.526 427.595 442.458 433.503Z" fill="#6DAFA7"/>
<path d="M521.439 288.285C522.683 295.748 519.263 301.345 513.665 300.724C508.068 300.102 502.159 293.571 500.915 286.108C499.672 278.645 503.403 273.047 509.001 273.669C514.598 274.291 520.196 280.822 521.439 288.285Z" fill="#6DAFA7"/>
<path d="M529.526 335.24L509.003 334.307C504.338 333.996 499.674 329.02 498.43 322.801C495.942 308.807 502.783 298.546 513.356 299.167C523.618 300.1 533.569 311.606 535.746 324.667C536.679 330.886 533.88 335.551 529.526 335.24Z" fill="#6DAFA7"/>
<path d="M549.116 510.627C545.073 511.249 541.031 507.207 540.098 501.92L518.641 375.978C517.708 370.38 520.196 366.027 524.239 366.027C528.281 366.027 532.324 370.38 533.257 375.667L554.403 499.432C555.646 505.03 553.159 509.694 549.116 510.627Z" fill="#63737A"/>
<path d="M534.195 466.159L540.103 501.298C541.036 506.584 544.457 510.627 548.499 510.627C552.542 510.627 555.652 505.341 554.719 499.432L548.81 464.604C547.878 459.317 543.835 454.964 540.103 455.586C535.75 455.897 533.262 460.561 534.195 466.159Z" fill="#6DAFA7"/>
<rect x="0.5" y="0.5" width="799" height="799" stroke="black"/>
</svg>
