<svg width="800" height="800" viewBox="0 0 800 800" fill="none" xmlns="http://www.w3.org/2000/svg">
<path d="M394.944 677.427L207.392 665.879C204.092 665.699 200.868 664.818 197.936 663.293C195.003 661.768 192.43 659.636 190.387 657.038C188.344 654.439 186.879 651.435 186.089 648.226C185.299 645.017 185.203 641.676 185.807 638.426L257.272 237.947C258.489 231.274 261.837 225.176 266.812 220.567C271.788 215.957 278.124 213.086 284.87 212.382L473.265 194.153C476.844 193.806 480.454 194.287 483.817 195.558C487.181 196.829 490.207 198.856 492.663 201.482C495.118 204.109 496.937 207.265 497.978 210.706C499.02 214.148 499.256 217.782 498.67 221.33L427.495 651.281C426.323 658.921 422.33 665.844 416.304 670.685C410.278 675.525 402.657 677.931 394.944 677.427V677.427Z" fill="#F8AB5D"/>
<path d="M384.671 676.148L197.105 664.615C193.805 664.435 190.581 663.554 187.648 662.029C184.716 660.504 182.143 658.372 180.1 655.773C178.057 653.175 176.592 650.171 175.802 646.962C175.012 643.753 174.916 640.412 175.52 637.162L246.985 236.683C248.202 230.01 251.549 223.912 256.525 219.303C261.501 214.693 267.837 211.822 274.583 211.118L463.036 192.889C466.618 192.55 470.229 193.039 473.592 194.318C476.955 195.597 479.979 197.632 482.43 200.265C484.881 202.899 486.694 206.061 487.728 209.507C488.763 212.952 488.992 216.59 488.397 220.138L417.223 650.162C415.978 657.756 411.96 664.617 405.946 669.418C399.933 674.218 392.352 676.617 384.671 676.148V676.148Z" fill="#FFE779"/>
<path d="M573.69 449.813L284.911 454.839C283.149 454.869 281.403 454.508 279.798 453.783C278.193 453.058 276.768 451.986 275.626 450.644C274.485 449.302 273.654 447.724 273.195 446.024C272.736 444.323 272.66 442.542 272.971 440.808L294.134 320.247C294.738 316.923 296.419 313.889 298.919 311.616C301.418 309.342 304.596 307.955 307.963 307.668L592.965 288.596C595.247 288.443 597.533 288.807 599.654 289.663C601.775 290.518 603.674 291.842 605.211 293.535C606.748 295.228 607.882 297.247 608.528 299.44C609.174 301.634 609.316 303.945 608.943 306.201L587.954 437.234C587.568 440.73 585.892 443.956 583.254 446.282C580.617 448.608 577.207 449.867 573.69 449.813V449.813Z" fill="#F8AB5D"/>
<path d="M541.838 644.018L253.059 631.454C251.36 631.361 249.7 630.913 248.186 630.137C246.672 629.362 245.339 628.276 244.271 626.952C243.204 625.627 242.428 624.093 241.992 622.449C241.557 620.804 241.472 619.087 241.743 617.408L263.531 493.942C264.158 490.442 265.987 487.272 268.703 484.977C271.418 482.683 274.85 481.41 278.405 481.377L563.829 479.068C566.034 479.062 568.213 479.535 570.217 480.453C572.222 481.372 574.003 482.714 575.437 484.388C576.872 486.062 577.927 488.027 578.528 490.148C579.13 492.269 579.264 494.495 578.921 496.673L557.54 631.425C556.907 635.077 554.962 638.372 552.07 640.691C549.179 643.01 545.54 644.193 541.838 644.018V644.018Z" fill="#F8AB5D"/>
<path d="M242.586 260.797L484.84 241.507" stroke="#F8AB5D" stroke-width="3.7766" stroke-linecap="round" stroke-linejoin="round"/>
<path d="M365.805 231.657L345.063 233.546C343.174 233.764 342.157 232.296 342.332 230.19C342.509 229.2 342.985 228.287 343.697 227.576C344.409 226.864 345.321 226.388 346.312 226.21L367.068 224.322C368.957 224.119 370.206 225.586 369.785 227.677C369.58 228.656 369.095 229.553 368.388 230.26C367.681 230.967 366.783 231.453 365.805 231.657V231.657Z" fill="#22272E"/>
<path d="M379.632 230.408C377.744 230.611 376.495 229.144 376.916 227.053C377.089 226.06 377.564 225.146 378.277 224.433C378.989 223.721 379.904 223.246 380.896 223.073V223.073C382.784 222.855 384.033 224.322 383.612 226.428C383.51 227.449 383.058 228.403 382.332 229.128C381.607 229.854 380.653 230.306 379.632 230.408V230.408Z" fill="#22272E"/>
<path d="M613.085 244.658L533.195 250.73C532.535 250.801 531.867 250.716 531.245 250.482C530.624 250.248 530.066 249.872 529.617 249.383C529.167 248.894 528.839 248.306 528.658 247.667C528.477 247.028 528.449 246.356 528.576 245.704L536.536 197.291C536.755 195.863 537.446 194.551 538.5 193.563C539.553 192.576 540.908 191.97 542.346 191.844L621.35 183.462C622.127 183.378 622.913 183.472 623.648 183.737C624.384 184.001 625.05 184.43 625.596 184.989C626.141 185.549 626.553 186.226 626.798 186.968C627.044 187.71 627.118 188.498 627.014 189.273L619.258 239.153C618.897 240.582 618.115 241.87 617.015 242.852C615.915 243.833 614.546 244.462 613.085 244.658V244.658Z" stroke="#6DAFA7" stroke-width="3.7766" stroke-linecap="round" stroke-linejoin="round"/>
<path d="M538.701 193.108L573.431 215.521C574.361 216.139 575.452 216.469 576.569 216.469C577.685 216.469 578.777 216.139 579.706 215.521L624.982 184.509" stroke="#6DAFA7" stroke-width="3.7766" stroke-linecap="round" stroke-linejoin="round"/>
<path d="M252.855 335.178L187.258 338.751L177.614 345.026C177.115 345.357 176.53 345.533 175.931 345.529C175.333 345.526 174.75 345.344 174.255 345.007C173.761 344.67 173.378 344.194 173.156 343.638C172.934 343.083 172.883 342.473 173.009 341.889L183.278 284.891C183.668 282.669 184.786 280.639 186.456 279.122C188.126 277.604 190.253 276.685 192.502 276.51L260.771 271.266C261.814 271.17 262.865 271.315 263.842 271.691C264.819 272.067 265.697 272.663 266.406 273.433C267.116 274.203 267.638 275.126 267.933 276.131C268.228 277.136 268.288 278.195 268.107 279.226L259.304 329.106C259.079 330.7 258.317 332.17 257.145 333.273C255.973 334.377 254.46 335.049 252.855 335.178V335.178Z" fill="#6DAFA7"/>
<path d="M196.059 293.271L251.386 289.292" stroke="#22272E" stroke-width="3.7766" stroke-linecap="round" stroke-linejoin="round"/>
<path d="M193.547 307.304L248.874 303.542" stroke="#22272E" stroke-width="3.7766" stroke-linecap="round" stroke-linejoin="round"/>
<path d="M191.035 321.149L219.955 319.464" stroke="#22272E" stroke-width="3.7766" stroke-linecap="round" stroke-linejoin="round"/>
<path d="M558.179 437.03L269.415 442.114C267.653 442.143 265.906 441.782 264.301 441.057C262.695 440.332 261.269 439.26 260.127 437.919C258.984 436.577 258.152 435 257.691 433.299C257.23 431.598 257.151 429.817 257.46 428.082L278.624 307.521C279.228 304.195 280.911 301.16 283.414 298.886C285.916 296.612 289.097 295.226 292.467 294.942L577.469 275.871C579.751 275.717 582.037 276.082 584.158 276.937C586.278 277.792 588.178 279.116 589.715 280.809C591.252 282.503 592.386 284.521 593.032 286.715C593.678 288.908 593.82 291.219 593.447 293.475L572.487 424.451C572.069 427.941 570.378 431.154 567.738 433.475C565.098 435.796 561.694 437.062 558.179 437.03V437.03Z" fill="#22272E"/>
<path d="M344.219 345.87C342.766 354.469 335.213 361.848 327.456 362.211C319.7 362.574 314.674 355.936 316.141 347.337C317.608 338.738 325.147 331.359 332.903 330.996C340.66 330.633 345.686 337.286 344.219 345.87Z" fill="#FFE779"/>
<path d="M338.773 400.996L304.406 402.041C303.311 402.086 302.219 401.884 301.212 401.452C300.204 401.02 299.306 400.367 298.583 399.543C297.86 398.718 297.331 397.742 297.034 396.687C296.737 395.631 296.68 394.523 296.868 393.442L297.492 389.666C300.209 374.167 313.63 360.964 327.662 360.615C341.708 359.99 351.135 372.351 348.418 388.068L347.576 393.515C347.151 395.564 346.054 397.412 344.46 398.767C342.865 400.122 340.864 400.907 338.773 400.996V400.996Z" fill="#FFE779"/>
<path d="M527.167 347.337L390.323 353.626C389.648 353.679 388.97 353.574 388.342 353.319C387.715 353.064 387.155 352.666 386.708 352.157C386.261 351.648 385.939 351.042 385.767 350.387C385.596 349.732 385.579 349.045 385.719 348.383L387.171 339.159C387.442 337.652 388.208 336.278 389.347 335.255C390.486 334.231 391.933 333.617 393.461 333.509L530.508 326.377C531.183 326.324 531.862 326.429 532.489 326.684C533.117 326.939 533.676 327.337 534.123 327.846C534.57 328.355 534.892 328.961 535.064 329.616C535.236 330.271 535.252 330.957 535.112 331.62L533.442 341.686C533.239 343.221 532.495 344.632 531.345 345.668C530.195 346.703 528.714 347.295 527.167 347.337V347.337Z" fill="#6DAFA7"/>
<path d="M388.858 378.348L390.95 384.856L397.457 385.901L391.792 391.552L391.371 398.887L385.924 395.953L379.213 399.308L381.32 391.973L377.543 386.744L384.457 385.059L388.858 378.348Z" fill="#FFE779"/>
<path d="M420.288 377.3L422.597 383.793L429.09 384.853L423.44 390.504L423.222 397.839L417.354 394.905L410.658 398.26L412.749 390.925L408.973 385.478L415.887 384.011L420.288 377.3Z" fill="#FFE779"/>
<path d="M452.567 376.053L454.876 382.546L461.572 383.795L455.704 389.46L455.501 396.999L449.632 393.861L442.718 397.42L444.81 389.881L440.83 384.434L448.165 382.749L452.567 376.053Z" fill="#FFE779"/>
<path d="M485.463 374.791L487.773 381.502L494.687 382.548L488.819 388.416L488.615 395.955L482.529 392.817L475.412 396.376L477.707 388.619L473.523 383.39L480.859 381.705L485.463 374.791Z" fill="#FFE779"/>
<path d="M519.209 373.525L521.518 380.236L528.636 381.499L522.564 387.15L522.346 394.906L516.057 391.769L508.939 395.328L511.249 387.571L507.051 382.124L514.386 380.454L519.209 373.525Z" fill="#FFE779"/>
<path d="M526.121 631.294L237.559 618.512C235.859 618.424 234.197 617.978 232.681 617.204C231.165 616.43 229.829 615.345 228.761 614.019C227.693 612.693 226.917 611.157 226.483 609.511C226.05 607.865 225.968 606.146 226.244 604.466L248.032 481C248.658 477.499 250.487 474.326 253.202 472.03C255.918 469.733 259.35 468.457 262.906 468.421L548.33 466.111C550.535 466.103 552.716 466.574 554.722 467.492C556.727 468.41 558.509 469.752 559.944 471.426C561.379 473.101 562.434 475.067 563.034 477.189C563.635 479.311 563.767 481.538 563.422 483.716L542.055 618.512C541.415 622.219 539.442 625.564 536.507 627.918C533.572 630.273 529.879 631.473 526.121 631.294Z" fill="#22272E"/>
<path d="M313.428 524.213C311.975 533.016 304.422 540.191 296.462 539.93C288.502 539.668 283.68 532.667 285.147 523.792C286.614 514.917 294.152 508.076 301.909 508.076C309.666 508.076 315.098 515.411 313.428 524.213Z" fill="#FFE779"/>
<path d="M307.338 580.789L272.971 579.743C271.922 579.69 270.896 579.42 269.957 578.95C269.017 578.48 268.186 577.819 267.516 577.011C266.845 576.202 266.35 575.264 266.061 574.254C265.773 573.244 265.697 572.185 265.839 571.144L266.682 566.787C269.413 550.809 282.819 538.273 296.866 538.491C310.897 538.694 320.324 551.898 317.39 568.036L316.562 573.279C316.18 575.429 315.038 577.369 313.345 578.748C311.652 580.126 309.521 580.851 307.338 580.789V580.789Z" fill="#FFE779"/>
<path d="M495.952 537.199L359.094 535.31C358.449 535.296 357.815 535.143 357.234 534.863C356.654 534.583 356.14 534.181 355.727 533.686C355.314 533.191 355.012 532.613 354.841 531.991C354.67 531.369 354.635 530.718 354.736 530.081L356.407 520.436C356.667 518.849 357.486 517.406 358.717 516.37C359.948 515.333 361.509 514.772 363.117 514.786L500.164 515.832C500.809 515.846 501.443 515.999 502.024 516.279C502.605 516.559 503.119 516.961 503.532 517.456C503.945 517.951 504.246 518.529 504.417 519.151C504.588 519.773 504.624 520.424 504.522 521.061L502.852 531.548C502.494 533.123 501.621 534.534 500.371 535.557C499.122 536.58 497.567 537.158 495.952 537.199V537.199Z" fill="#6DAFA7"/>
<path d="M357.846 560.67L359.938 567.381L366.431 568.848L360.78 574.295L360.577 581.833L354.912 578.275L348.201 581.412L350.293 573.873L346.734 568.426L353.445 567.163L357.846 560.67Z" fill="#FFE779"/>
<path d="M389.482 561.294L391.588 568.005L398.284 569.675L392.416 575.137L392.212 582.675L386.344 579.32L379.633 582.472L381.74 574.919L377.963 569.051L385.095 568.005L389.482 561.294Z" fill="#FFE779"/>
<path d="M421.756 562.138L423.848 568.848L430.776 570.519L424.908 575.966L424.487 583.722L418.619 580.164L411.704 583.301L413.999 575.763L410.02 569.894L417.152 568.848L421.756 562.138Z" fill="#FFE779"/>
<path d="M454.659 562.765L456.968 569.679L463.882 571.364L457.811 577.029L457.593 584.771L451.521 581.212L444.389 584.349L446.699 576.607L442.719 570.739L450.054 569.475L454.659 562.765Z" fill="#63737A"/>
<path d="M488.193 563.607L490.706 570.521L497.62 572.206L491.548 577.856L491.33 585.816L485.259 582.054L477.923 585.41L480.218 577.435L476.035 571.785L483.574 570.521L488.193 563.607Z" fill="#63737A"/>
<path d="M521.138 148.251C520.018 147.011 518.556 146.131 516.936 145.721C515.316 145.312 513.61 145.391 512.036 145.951C510.461 146.51 509.087 147.523 508.088 148.862C507.089 150.202 506.509 151.807 506.422 153.476C506.334 155.145 506.744 156.802 507.598 158.238C508.452 159.675 509.713 160.826 511.221 161.546C512.729 162.266 514.416 162.523 516.07 162.284C517.724 162.046 519.271 161.323 520.514 160.206C521.349 159.468 522.029 158.571 522.514 157.567C522.999 156.563 523.279 155.473 523.337 154.36C523.395 153.247 523.231 152.133 522.853 151.084C522.475 150.035 521.892 149.072 521.138 148.251Z" fill="#22272E"/>
<path d="M509.781 128.556L508.328 126.885C507.149 125.581 505.723 124.524 504.132 123.775C502.542 123.026 500.819 122.6 499.062 122.522C497.306 122.444 495.552 122.714 493.901 123.319C492.25 123.923 490.736 124.849 489.445 126.043V126.043C488.14 127.222 487.083 128.648 486.334 130.239C485.585 131.83 485.16 133.554 485.083 135.311C485.006 137.068 485.279 138.823 485.885 140.473C486.492 142.124 487.421 143.637 488.617 144.926L490.07 146.611C491.776 148.525 492.997 150.822 493.628 153.307C494.05 155.195 494.674 157.505 495.299 159.596C495.561 160.645 496.09 161.607 496.834 162.391C497.578 163.174 498.511 163.753 499.544 164.07C500.577 164.387 501.674 164.432 502.73 164.2C503.785 163.969 504.763 163.469 505.568 162.749L514.995 154.149L524.437 145.565C525.239 144.843 525.839 143.924 526.178 142.899C526.517 141.875 526.584 140.779 526.372 139.721C526.159 138.663 525.675 137.678 524.966 136.864C524.258 136.05 523.349 135.434 522.331 135.078C520.239 134.25 518.147 133.625 516.259 132.986C513.869 131.878 511.68 130.381 509.781 128.556V128.556Z" fill="#6DAFA7"/>
</svg>
