<svg width="800" height="800" viewBox="0 0 800 800" fill="none" xmlns="http://www.w3.org/2000/svg">
<path d="M565.416 543.22L195.93 599.188C193.978 599.49 191.985 599.383 190.077 598.874C188.17 598.366 186.388 597.466 184.846 596.233C183.304 594.999 182.035 593.459 181.12 591.709C180.204 589.96 179.662 588.039 179.528 586.069L157.435 253.309C157.284 251.145 157.599 248.973 158.359 246.94C159.119 244.908 160.307 243.062 161.842 241.528C163.377 239.994 165.223 238.808 167.256 238.049C169.289 237.29 171.462 236.976 173.626 237.129L543.765 260.747C547.164 260.952 550.377 262.365 552.827 264.729C555.277 267.094 556.801 270.256 557.126 273.645L578.335 527.039C578.57 530.858 577.379 534.628 574.991 537.617C572.604 540.607 569.192 542.604 565.416 543.22Z" fill="#63737A"/>
<path d="M575.474 542.778L204.23 598.978C202.281 599.275 200.29 599.164 198.385 598.653C196.481 598.141 194.703 597.24 193.164 596.006C191.626 594.772 190.36 593.232 189.447 591.483C188.534 589.735 187.994 587.816 187.861 585.848L165.536 251.563C165.385 249.37 165.706 247.171 166.477 245.112C167.248 243.054 168.451 241.185 170.005 239.63C171.559 238.076 173.428 236.873 175.487 236.102C177.545 235.332 179.745 235.011 181.938 235.162L553.602 258.78C557.03 259.001 560.264 260.448 562.713 262.857C565.163 265.266 566.663 268.475 566.942 271.899L588.372 526.387C588.795 530.264 587.681 534.152 585.27 537.216C582.858 540.281 579.341 542.278 575.474 542.778Z" fill="#22272E"/>
<path d="M333.44 428.221L228.941 433.902C227.355 433.966 225.808 433.407 224.629 432.346C223.449 431.285 222.732 429.804 222.628 428.221L216.506 339.85C216.465 339.02 216.59 338.191 216.875 337.411C217.16 336.631 217.598 335.915 218.164 335.307C218.73 334.699 219.412 334.211 220.17 333.871C220.927 333.531 221.746 333.346 222.576 333.327L327.085 333.99C328.642 333.963 330.149 334.539 331.29 335.598C332.431 336.657 333.119 338.117 333.208 339.671L339.352 421.656C339.406 422.478 339.295 423.302 339.025 424.08C338.755 424.858 338.333 425.575 337.781 426.186C337.23 426.798 336.562 427.294 335.816 427.643C335.071 427.993 334.263 428.189 333.44 428.221Z" fill="#6DAFA7"/>
<path d="M445.82 394.115L358.364 397.176C356.777 397.24 355.228 396.68 354.048 395.616C352.869 394.553 352.152 393.07 352.052 391.485L348.328 340.545C348.282 339.708 348.406 338.871 348.692 338.084C348.978 337.297 349.421 336.575 349.992 335.963C350.564 335.351 351.254 334.861 352.02 334.522C352.786 334.183 353.613 334.002 354.45 333.991L441.906 334.643C443.444 334.681 444.914 335.28 446.042 336.326C447.169 337.372 447.876 338.794 448.029 340.324L451.722 387.518C451.799 388.346 451.704 389.18 451.444 389.969C451.184 390.758 450.763 391.485 450.209 392.104C449.655 392.723 448.98 393.221 448.224 393.567C447.469 393.913 446.651 394.099 445.82 394.115Z" fill="#FFE779"/>
<path d="M544.858 390.832L471.215 393.452C469.629 393.518 468.08 392.961 466.9 391.899C465.721 390.837 465.004 389.355 464.903 387.771L461.189 341.639C461.142 340.802 461.266 339.964 461.551 339.176C461.837 338.388 462.279 337.666 462.851 337.054C463.423 336.441 464.113 335.951 464.88 335.613C465.647 335.274 466.474 335.095 467.312 335.084L540.955 335.516C542.494 335.555 543.966 336.155 545.094 337.203C546.221 338.251 546.927 339.675 547.078 341.207L550.571 384.267C550.652 385.078 550.566 385.897 550.318 386.674C550.071 387.451 549.668 388.169 549.132 388.784C548.597 389.399 547.942 389.897 547.207 390.25C546.472 390.602 545.673 390.8 544.858 390.832Z" fill="#F4C2C9"/>
<path d="M340.004 513.92L235.495 525.334C234.671 525.434 233.836 525.363 233.041 525.126C232.246 524.889 231.508 524.491 230.873 523.958C230.238 523.424 229.719 522.766 229.349 522.024C228.978 521.282 228.764 520.471 228.72 519.643L224.785 462.538C224.715 460.927 225.265 459.35 226.322 458.131C227.378 456.912 228.861 456.144 230.466 455.984L335.197 448.988C336 448.929 336.808 449.03 337.572 449.284C338.337 449.538 339.044 449.94 339.653 450.468C340.262 450.996 340.761 451.638 341.121 452.359C341.481 453.08 341.695 453.865 341.751 454.669L345.664 507.366C345.668 508.956 345.098 510.495 344.058 511.699C343.018 512.903 341.579 513.692 340.004 513.92V513.92Z" stroke="#63737A" stroke-width="3.93462" stroke-linecap="round" stroke-linejoin="round"/>
<path d="M455.659 511.732L368.424 522.01C367.601 522.109 366.766 522.039 365.972 521.803C365.178 521.566 364.44 521.17 363.805 520.637C363.17 520.105 362.651 519.448 362.28 518.707C361.909 517.966 361.694 517.157 361.648 516.329L354.652 422.098C354.536 420.475 355.07 418.871 356.135 417.641C357.2 416.41 358.71 415.652 360.333 415.533L447.789 411.378C449.376 411.314 450.925 411.874 452.105 412.938C453.284 414.001 454.001 415.484 454.102 417.069L461.098 505.178C461.193 506.757 460.684 508.313 459.674 509.53C458.663 510.747 457.228 511.534 455.659 511.732Z" fill="#F4C2C9"/>
<path d="M437.51 427.78L374.766 431.494C374.411 431.492 374.06 431.568 373.738 431.716C373.415 431.864 373.129 432.081 372.899 432.352C372.669 432.623 372.502 432.941 372.408 433.283C372.315 433.626 372.297 433.985 372.357 434.334L375.208 473.26C375.221 473.61 375.307 473.953 375.461 474.267C375.614 474.582 375.831 474.861 376.099 475.087C376.366 475.312 376.677 475.48 377.013 475.578C377.349 475.677 377.702 475.704 378.049 475.659L440.792 470.198C441.142 470.184 441.484 470.097 441.799 469.943C442.113 469.789 442.392 469.572 442.618 469.305C442.845 469.039 443.013 468.728 443.114 468.393C443.214 468.058 443.244 467.705 443.201 467.358L440.35 430.189C440.211 429.53 439.856 428.935 439.342 428.499C438.828 428.063 438.183 427.81 437.51 427.78Z" fill="#6DAFA7"/>
<path d="M553.603 490.091L479.96 498.181C479.136 498.282 478.301 498.212 477.505 497.976C476.709 497.74 475.971 497.342 475.335 496.809C474.7 496.275 474.181 495.616 473.811 494.873C473.441 494.13 473.228 493.319 473.185 492.49L467.283 416.627C467.167 415.005 467.701 413.403 468.766 412.174C469.832 410.945 471.342 410.189 472.964 410.073L546.607 406.57C548.194 406.506 549.743 407.066 550.922 408.13C552.102 409.193 552.819 410.676 552.919 412.261L558.821 483.526C558.912 484.301 558.849 485.085 558.635 485.834C558.422 486.584 558.062 487.284 557.577 487.894C557.092 488.504 556.491 489.012 555.809 489.389C555.127 489.766 554.377 490.005 553.603 490.091Z" fill="#FFE779"/>
<path d="M286.658 477.847L287.973 494.027" stroke="#63737A" stroke-width="3.93462" stroke-linecap="round" stroke-linejoin="round"/>
<path d="M279.662 486.588L294.969 485.283" stroke="#63737A" stroke-width="3.93462" stroke-linecap="round" stroke-linejoin="round"/>
<path d="M391.378 495.773C390.946 491.396 387.664 487.904 383.729 488.345C379.795 488.787 376.733 492.711 377.175 497.309C377.617 501.906 381.11 505.178 385.045 504.736C388.8 504.084 391.599 500.149 391.378 495.773Z" fill="#282828"/>
<path d="M404.064 494.458L444.947 490.312" stroke="#282828" stroke-width="3.93462" stroke-linecap="round" stroke-linejoin="round"/>
<path d="M495.054 430.652C494.612 426.496 491.771 423.435 488.279 423.435C484.775 423.655 482.377 427.159 482.587 431.314C483.029 435.459 485.869 438.742 489.373 438.521C493.044 438.279 495.443 434.776 495.054 430.652Z" fill="#6DAFA7"/>
<path d="M506.166 429.969L541.367 427.78" stroke="#282828" stroke-width="3.93462" stroke-linecap="round" stroke-linejoin="round"/>
<path d="M496.979 454.017C496.538 449.809 493.697 446.8 490.204 447.021C486.712 447.242 484.302 450.956 484.513 455.111C484.955 459.267 488.016 462.539 491.298 462.107C494.791 461.666 497.421 458.173 496.979 454.017Z" fill="#6DAFA7"/>
<path d="M507.912 453.145L543.334 450.305" stroke="#282828" stroke-width="3.93462" stroke-linecap="round" stroke-linejoin="round"/>
<path d="M498.95 477.405C498.508 473.26 495.668 470.198 492.175 470.409C488.682 470.619 486.273 474.354 486.483 478.499C486.925 482.654 489.987 485.716 493.269 485.495C496.762 485.064 499.171 481.56 498.95 477.405Z" fill="#6DAFA7"/>
<path d="M509.879 476.32L545.08 472.816" stroke="#282828" stroke-width="3.93462" stroke-linecap="round" stroke-linejoin="round"/>
<path d="M252.993 368.75L238.78 368.971C238.13 368.938 237.512 368.679 237.032 368.239C236.551 367.8 236.24 367.206 236.15 366.561L235.098 351.696C235.083 351.348 235.141 351.001 235.267 350.676C235.393 350.352 235.586 350.057 235.832 349.811C236.078 349.564 236.373 349.372 236.698 349.246C237.022 349.119 237.37 349.062 237.718 349.077H251.931C252.577 349.111 253.192 349.37 253.67 349.807C254.147 350.244 254.459 350.834 254.55 351.475L255.602 366.13C255.519 366.794 255.218 367.412 254.746 367.886C254.273 368.36 253.657 368.664 252.993 368.75Z" fill="#FFE779"/>
<path d="M268.287 349.076L317.48 348.855" stroke="#282828" stroke-width="3.93462" stroke-linecap="round" stroke-linejoin="round"/>
<path d="M269.174 361.754L318.357 361.312" stroke="#282828" stroke-width="3.93462" stroke-linecap="round" stroke-linejoin="round"/>
<path d="M488.892 365.246L477.74 365.467C477.388 365.418 477.057 365.269 476.787 365.038C476.516 364.807 476.318 364.503 476.215 364.162L475.163 349.949C475.157 349.747 475.192 349.546 475.267 349.357C475.341 349.169 475.453 348.998 475.596 348.854C475.739 348.711 475.909 348.597 476.097 348.522C476.285 348.446 476.486 348.409 476.688 348.413H487.84C488.193 348.466 488.525 348.618 488.797 348.85C489.068 349.083 489.269 349.387 489.376 349.728L490.428 363.721C490.4 364.118 490.23 364.492 489.947 364.772C489.664 365.053 489.289 365.221 488.892 365.246Z" fill="#282828"/>
<path d="M499.391 348.203H535.896" stroke="#282828" stroke-width="3.93462" stroke-linecap="round" stroke-linejoin="round"/>
<path d="M500.473 359.344L536.768 358.913" stroke="#282828" stroke-width="3.93462" stroke-linecap="round" stroke-linejoin="round"/>
<path d="M477.307 377.492L538.083 375.966" stroke="#282828" stroke-width="3.93462" stroke-linecap="round" stroke-linejoin="round"/>
<path d="M255.391 402.636L241.178 403.078C240.519 403.077 239.884 402.83 239.399 402.383C238.914 401.937 238.614 401.325 238.558 400.668L237.506 385.803C237.487 385.472 237.534 385.139 237.645 384.826C237.756 384.513 237.93 384.226 238.155 383.982C238.379 383.737 238.651 383.54 238.954 383.403C239.256 383.266 239.583 383.191 239.916 383.184L254.129 382.742C254.777 382.777 255.393 383.037 255.871 383.476C256.349 383.916 256.659 384.508 256.748 385.151L257.8 399.795C257.842 400.488 257.615 401.17 257.166 401.699C256.717 402.228 256.081 402.564 255.391 402.636Z" fill="#FFE779"/>
<path d="M270.699 382.521L319.893 381.216" stroke="#282828" stroke-width="3.93462" stroke-linecap="round" stroke-linejoin="round"/>
<path d="M271.572 395.42L320.766 393.895" stroke="#282828" stroke-width="3.93462" stroke-linecap="round" stroke-linejoin="round"/>
<path d="M291.243 296.821L217.6 294.633C216.429 294.602 215.311 294.137 214.463 293.328C213.615 292.52 213.099 291.425 213.013 290.256L212.14 278.684C212.084 278.028 212.168 277.368 212.387 276.748C212.606 276.127 212.954 275.56 213.409 275.085C213.864 274.609 214.414 274.236 215.025 273.989C215.635 273.743 216.29 273.629 216.948 273.655L290.59 276.716C291.757 276.752 292.87 277.217 293.715 278.023C294.559 278.829 295.076 279.919 295.167 281.082L296.061 291.782C296.097 292.434 295.999 293.087 295.772 293.7C295.546 294.313 295.196 294.873 294.744 295.346C294.292 295.818 293.749 296.193 293.146 296.447C292.544 296.7 291.896 296.828 291.243 296.821Z" fill="#6DAFA7"/>
<path d="M365.803 348.634L435.332 348.413" stroke="#282828" stroke-width="3.93462" stroke-linecap="round" stroke-linejoin="round"/>
<path d="M366.674 360.881L436.203 360.008" stroke="#282828" stroke-width="3.93462" stroke-linecap="round" stroke-linejoin="round"/>
<path d="M367.992 380.122L405.371 379.249" stroke="#282828" stroke-width="3.93462" stroke-linecap="round" stroke-linejoin="round"/>
<path d="M542.671 295.727C542.46 292.445 540.051 289.604 537.211 289.415C534.58 289.204 532.403 292.045 532.834 295.317C533.055 298.82 535.464 301.629 538.305 301.629C540.924 301.85 542.892 299.009 542.671 295.727Z" fill="#63737A"/>
<path d="M523.219 295.076C522.998 291.572 520.378 288.764 517.748 288.764C514.908 288.543 512.941 291.383 513.161 294.886C513.382 298.39 516.002 301.199 518.842 301.199C521.462 301.188 523.461 298.348 523.219 295.076Z" fill="#63737A"/>
<path d="M503.105 294.192C502.884 290.699 500.265 287.88 497.424 287.638C494.584 287.396 492.395 290.257 492.606 293.761C492.816 297.264 495.446 300.073 498.297 300.315C501.369 300.536 503.326 297.695 503.105 294.192Z" fill="#63737A"/>
<path d="M631.442 324.394L534.37 322.648C532.472 322.651 530.644 321.929 529.261 320.628C527.878 319.327 527.045 317.547 526.932 315.652L518.2 208.67C518.15 207.828 518.278 206.985 518.577 206.196C518.877 205.407 519.34 204.691 519.937 204.094C520.533 203.498 521.249 203.035 522.038 202.735C522.827 202.436 523.67 202.307 524.512 202.358L622.026 212.636C623.803 212.806 625.461 213.603 626.703 214.885C627.945 216.168 628.689 217.851 628.801 219.632L637.333 317.798C637.428 318.628 637.346 319.468 637.094 320.264C636.841 321.06 636.422 321.794 635.866 322.417C635.31 323.04 634.628 323.538 633.865 323.879C633.103 324.22 632.277 324.395 631.442 324.394Z" fill="#F8AB5D"/>
<path d="M636.682 322.618L539.611 320.871C537.713 320.874 535.887 320.151 534.506 318.85C533.124 317.55 532.294 315.769 532.183 313.875L523.462 206.967C523.411 206.125 523.54 205.282 523.839 204.493C524.139 203.704 524.602 202.988 525.198 202.391C525.795 201.795 526.511 201.331 527.3 201.032C528.089 200.733 528.932 200.604 529.774 200.655L627.288 210.933C629.065 211.1 630.725 211.897 631.967 213.18C633.21 214.463 633.953 216.147 634.063 217.929L642.584 316.095C642.649 316.916 642.545 317.742 642.28 318.521C642.014 319.301 641.592 320.018 641.039 320.628C640.487 321.239 639.815 321.731 639.066 322.073C638.317 322.415 637.506 322.6 636.682 322.618Z" fill="#FFE779"/>
<path d="M565.85 220.518L617.231 225.326" stroke="#63737A" stroke-width="3.93462" stroke-linecap="round" stroke-linejoin="round"/>
<path d="M566.721 231.016L618.102 235.382" stroke="#63737A" stroke-width="3.93462" stroke-linecap="round" stroke-linejoin="round"/>
<path d="M568.686 255.066L620.288 258.559" stroke="#63737A" stroke-width="3.93462" stroke-linecap="round" stroke-linejoin="round"/>
<path d="M569.561 265.334L620.942 268.396" stroke="#63737A" stroke-width="3.93462" stroke-linecap="round" stroke-linejoin="round"/>
<path d="M571.746 289.604L623.128 291.793" stroke="#63737A" stroke-width="3.93462" stroke-linecap="round" stroke-linejoin="round"/>
<path d="M572.621 299.883L624.003 301.629" stroke="#63737A" stroke-width="3.93462" stroke-linecap="round" stroke-linejoin="round"/>
<path d="M548.141 226.419L550.76 229.701L554.484 224.672" stroke="#6DAFA7" stroke-width="3.93462" stroke-linecap="round" stroke-linejoin="round"/>
<path d="M550.98 261.399L553.6 264.461L557.535 259.432" stroke="#6DAFA7" stroke-width="3.93462" stroke-linecap="round" stroke-linejoin="round"/>
<path d="M553.822 295.728L556.663 298.79L560.387 293.54" stroke="#6DAFA7" stroke-width="3.93462" stroke-linecap="round" stroke-linejoin="round"/>
<rect x="0.5" y="0.5" width="799" height="799" stroke="black"/>
</svg>
