<svg width="800" height="800" viewBox="0 0 800 800" fill="none" xmlns="http://www.w3.org/2000/svg">
<path d="M365.449 636.913C362.699 632.039 336.078 636.913 336.078 636.913C336.078 636.913 336.578 647.286 336.828 655.16C345.818 658.941 355.836 659.515 365.199 656.785C365.074 648.661 365.449 636.913 365.449 636.913Z" fill="#B28D93"/>
<path d="M336.703 655.158C336.828 658.783 336.828 661.782 336.828 663.032C336.828 664.532 335.078 667.281 334.453 671.531C333.954 674.655 334.453 678.905 333.829 682.654C333.204 687.153 332.454 691.653 332.079 695.902C330.954 708.275 337.328 709.65 344.452 710.525C351.576 711.4 375.197 712.025 375.947 705.151C376.697 698.277 369.948 685.529 368.448 679.655C366.949 673.78 366.074 667.156 365.324 663.282C365.199 662.157 365.074 659.783 365.074 656.783C355.704 659.455 345.706 658.882 336.703 655.158Z" fill="#FFE779"/>
<path d="M376.072 705.025C375.322 711.899 351.701 711.149 344.577 710.399C337.453 709.649 331.079 708.15 332.204 695.776C332.579 691.652 333.204 687.028 333.953 682.528C334.578 678.779 333.953 674.53 334.578 671.405C335.075 668.877 335.829 666.406 336.828 664.031C337.328 667.281 339.828 668.281 340.078 675.405C340.453 682.778 339.703 686.528 348.326 684.153C359.7 681.029 364.074 684.903 366.449 683.028C368.448 681.279 367.698 675.28 367.573 674.155C367.948 675.904 368.323 677.779 368.698 679.529C369.948 685.403 376.822 698.276 376.072 705.025Z" fill="#22272E"/>
<path d="M362.199 648.159C363.258 647.883 364.301 647.549 365.324 647.159C365.449 641.66 365.574 636.786 365.574 636.786C362.824 631.912 336.203 636.786 336.203 636.786C336.203 636.786 336.328 640.535 336.578 645.285C344.327 648.284 353.201 650.159 362.199 648.159Z" fill="#896068"/>
<path d="M355.825 689.405C359.691 689.405 362.824 687.391 362.824 684.906C362.824 682.421 359.691 680.406 355.825 680.406C351.96 680.406 348.826 682.421 348.826 684.906C348.826 687.391 351.96 689.405 355.825 689.405Z" fill="white"/>
<path d="M408.693 658.284C409.318 663.158 409.693 667.407 409.443 668.532C408.818 671.157 406.818 682.155 405.194 686.904C403.569 691.654 394.32 705.152 400.444 709.276C406.568 713.4 437.814 710.901 441.188 708.026C444.563 705.152 443.438 697.153 442.188 686.904C440.938 676.656 437.189 666.158 437.189 664.658C437.189 664.158 437.064 660.283 436.939 655.534C428.44 659.784 418.567 661.408 408.693 658.284Z" fill="#FFE779"/>
<path d="M406.441 642.537C406.441 642.537 407.816 651.036 408.691 658.285C418.565 661.409 428.438 659.785 436.937 655.535C436.562 646.537 436.062 634.038 435.562 633.288C434.937 632.164 409.191 631.664 406.441 642.537Z" fill="#B28D93"/>
<path d="M441.313 708.027C437.939 710.902 406.693 713.526 400.569 709.277C394.445 705.028 403.694 691.53 405.319 686.905C406.443 683.531 407.818 676.782 408.693 672.283C408.443 673.782 406.443 685.531 408.693 686.28C410.943 687.03 417.067 682.156 424.941 683.906C432.814 685.656 436.814 686.78 436.814 681.906C436.814 677.032 435.314 669.033 436.064 667.658C436.814 666.283 437.314 664.784 437.314 664.784C437.314 666.283 441.063 676.782 442.313 687.03C443.563 697.279 444.688 705.028 441.313 708.027Z" fill="#22272E"/>
<path d="M436.562 646.911C436.312 640.162 435.937 633.788 435.562 633.288C434.937 632.164 409.066 631.664 406.316 642.537C406.316 642.537 406.816 646.037 407.566 650.411C417.94 652.661 427.688 650.786 436.562 646.911Z" fill="#896068"/>
<path d="M419.313 690.779C423.179 690.779 426.312 688.764 426.312 686.28C426.312 683.795 423.179 681.78 419.313 681.78C415.448 681.78 412.314 683.795 412.314 686.28C412.314 688.764 415.448 690.779 419.313 690.779Z" fill="white"/>
<path d="M431.94 323.333C431.94 323.333 444.063 345.455 437.189 400.447C430.315 455.438 426.816 469.311 428.066 472.811C429.315 476.31 435.439 502.681 435.814 543.425C436.189 584.169 437.064 603.666 440.689 615.039C444.313 626.413 445.938 634.911 436.439 641.66C426.941 648.409 410.443 647.535 402.694 643.91C394.946 640.286 394.571 634.162 395.195 620.539C395.82 606.916 389.071 564.672 383.447 539.051C380.073 523.553 377.198 505.681 375.324 492.808C374.417 487.261 373.791 481.671 373.449 476.06C373.449 471.186 365.95 399.447 365.95 395.822C365.95 392.198 357.826 389.698 355.826 374.326C353.827 358.953 357.451 323.458 357.451 323.458C357.451 323.458 425.066 313.71 431.94 323.333Z" fill="#22272E"/>
<path d="M318.205 319.085C318.205 319.085 304.582 351.83 312.331 411.321C320.08 470.812 321.08 476.561 321.455 479.186C321.83 481.811 322.08 526.304 325.704 564.923C329.328 603.542 322.08 623.414 325.704 632.788C329.328 642.161 340.952 644.536 349.075 644.161C357.199 643.786 372.447 640.912 372.447 625.914C372.447 610.916 370.447 587.295 372.447 555.799C374.447 524.304 377.446 492.184 378.321 477.186C379.196 462.189 388.32 375.202 389.944 362.828C391.569 350.455 385.82 330.333 363.198 322.46C340.577 314.836 318.205 319.085 318.205 319.085Z" fill="#22272E"/>
<path d="M309.957 371.825C309.957 371.825 317.331 370.075 319.956 360.827C321.45 355.756 322.537 350.573 323.205 345.329" stroke="#63737A" stroke-width="2.24966" stroke-linecap="round" stroke-linejoin="round"/>
<path d="M439.062 375.076C439.062 375.076 429.438 370.577 426.438 360.329C423.439 350.08 423.814 344.331 423.814 344.331" stroke="#63737A" stroke-width="2.24966" stroke-linecap="round" stroke-linejoin="round"/>
<path d="M348.951 386.075C356.075 386.325 365.699 394.324 365.699 394.324C369.054 391.597 372.701 389.25 376.572 387.325" stroke="#63737A" stroke-width="2.24966" stroke-linecap="round" stroke-linejoin="round"/>
<path d="M345.7 498.558C355.778 498.558 363.948 490.165 363.948 479.811C363.948 469.457 355.778 461.064 345.7 461.064C335.623 461.064 327.453 469.457 327.453 479.811C327.453 490.165 335.623 498.558 345.7 498.558Z" stroke="#63737A" stroke-width="2.24966" stroke-linecap="round" stroke-linejoin="round"/>
<path d="M397.818 498.558C407.895 498.558 416.065 490.165 416.065 479.811C416.065 469.457 407.895 461.064 397.818 461.064C387.74 461.064 379.57 469.457 379.57 479.811C379.57 490.165 387.74 498.558 397.818 498.558Z" stroke="#63737A" stroke-width="2.24966" stroke-linecap="round" stroke-linejoin="round"/>
<path d="M375.321 492.684C374.415 487.137 373.789 481.547 373.447 475.937C373.447 471.063 365.948 399.323 365.948 395.699C365.948 392.074 357.824 389.575 355.824 374.202" stroke="#63737A" stroke-width="2.24966" stroke-linecap="round" stroke-linejoin="round"/>
<path d="M238.717 148.485C238.717 148.485 237.593 144.736 237.093 134.238C236.968 131.738 240.967 126.239 241.467 124.614C241.967 122.989 245.716 123.614 244.717 129.113C243.717 134.612 247.591 144.736 246.466 148.61C245.341 152.485 238.717 150.235 238.717 148.485Z" fill="#B28D93"/>
<path d="M228.469 115.115L262.214 184.855C262.689 185.902 263.467 186.782 264.447 187.384C265.427 187.985 266.564 188.279 267.713 188.229L318.33 187.354C318.845 187.351 319.351 187.219 319.802 186.968C320.252 186.718 320.631 186.358 320.906 185.922C321.18 185.486 321.339 184.987 321.37 184.473C321.4 183.959 321.301 183.445 321.08 182.98L291.334 112.99C290.867 111.893 290.081 110.961 289.079 110.315C288.076 109.669 286.903 109.338 285.71 109.366L231.218 110.616C230.695 110.632 230.184 110.778 229.732 111.04C229.279 111.303 228.899 111.675 228.626 112.121C228.353 112.568 228.196 113.076 228.168 113.598C228.141 114.121 228.244 114.642 228.469 115.115V115.115Z" fill="#22272E"/>
<path d="M247.716 105.491L266.463 104.741C267.269 104.731 268.057 104.981 268.71 105.453C269.363 105.926 269.846 106.597 270.088 107.366L270.838 109.865C270.895 110.047 270.91 110.24 270.882 110.428C270.854 110.617 270.782 110.797 270.674 110.953C270.565 111.11 270.422 111.24 270.256 111.333C270.089 111.426 269.903 111.48 269.713 111.49L247.091 112.115C246.804 112.103 246.527 112 246.302 111.82C246.077 111.64 245.916 111.393 245.842 111.115L245.467 108.365C245.402 108.026 245.411 107.676 245.492 107.34C245.574 107.004 245.726 106.69 245.939 106.418C246.152 106.145 246.421 105.922 246.727 105.762C247.034 105.602 247.371 105.51 247.716 105.491V105.491Z" fill="#6DAFA7"/>
<path d="M296.958 229.597L292.708 233.096C292.708 233.096 287.084 215.349 281.96 203.226C276.836 191.103 273.586 175.73 273.711 173.98C273.836 172.231 275.336 167.231 271.961 161.982C270.177 159.04 267.685 156.591 264.712 154.858C264.712 154.858 267.587 153.483 272.961 151.234C278.335 148.984 275.836 146.484 272.586 146.859C269.337 147.234 261.213 148.359 261.213 148.359L267.587 143.36C269.962 141.485 274.961 139.486 273.711 137.486C272.586 135.736 267.337 137.611 264.962 138.361C262.588 139.111 254.214 143.235 254.214 143.235C254.214 143.235 259.213 137.361 261.463 134.486C263.712 131.612 269.712 128.862 268.962 125.988C268.212 123.113 260.838 127.237 257.338 129.362C253.839 131.487 247.215 138.236 247.215 138.236C247.215 138.236 247.465 131.737 247.715 128.862C247.965 125.988 249.715 118.739 247.59 116.989C244.84 114.739 243.341 121.738 241.966 127.612C240.591 133.486 237.341 145.36 238.091 148.859C238.841 152.359 243.091 156.608 246.715 161.357C250.339 166.107 254.214 171.731 254.839 173.355C255.464 174.98 260.088 249.844 264.212 260.092C268.337 270.341 277.835 287.963 317.329 256.718C317.329 256.718 320.954 234.846 313.705 228.972C306.331 223.348 296.958 229.597 296.958 229.597Z" fill="#B28D93"/>
<path d="M345.327 189.479C345.327 189.479 335.703 191.229 323.58 204.227C311.457 217.225 296.959 229.598 296.959 229.598C296.959 229.598 308.207 254.594 314.956 262.093C314.956 262.093 338.578 246.345 347.826 237.097C357.075 227.848 358.7 192.729 345.327 189.479Z" fill="#6DAFA7"/>
<path d="M301.959 225.223C301.959 225.223 309.833 244.22 320.331 258.343" stroke="#22272E" stroke-width="2.24966" stroke-linecap="round" stroke-linejoin="round"/>
<path d="M292.709 233.098C294.122 236.681 295.291 240.356 296.208 244.097" stroke="#896068" stroke-width="2.24966" stroke-linecap="round" stroke-linejoin="round"/>
<path d="M261.214 148.36C260.284 148.559 259.366 148.809 258.464 149.11C257.453 149.411 256.516 149.922 255.715 150.61" stroke="#896068" stroke-width="2.24966" stroke-linecap="round" stroke-linejoin="round"/>
<path d="M264.589 154.86C263.796 155.243 263.043 155.704 262.34 156.235" stroke="#896068" stroke-width="2.24966" stroke-linecap="round" stroke-linejoin="round"/>
<path d="M254.214 143.236C253.112 143.938 252.139 144.826 251.34 145.86" stroke="#896068" stroke-width="2.24966" stroke-linecap="round" stroke-linejoin="round"/>
<path d="M247.214 138.361C246.162 139.079 245.197 139.918 244.34 140.86" stroke="#896068" stroke-width="2.24966" stroke-linecap="round" stroke-linejoin="round"/>
<path d="M255.09 174.982C255.09 174.982 259.964 181.106 274.087 176.482C274.087 176.482 275.587 182.106 275.712 183.606C275.712 183.606 263.963 188.355 255.84 182.606C255.403 180.086 255.152 177.538 255.09 174.982V174.982Z" fill="#22272E"/>
<path d="M261.278 186.091C263.306 185.675 264.423 182.762 263.773 179.584C263.122 176.405 260.95 174.166 258.921 174.581C256.893 174.996 255.776 177.909 256.426 181.088C257.077 184.266 259.249 186.506 261.278 186.091Z" fill="white"/>
<path d="M340.326 192.729C343.826 189.979 347.325 186.605 378.321 185.605C413.94 184.48 430.938 188.729 435.812 209.101C440.686 229.473 420.189 276.966 420.189 282.465C420.189 287.964 433.062 314.71 434.562 326.834C434.562 326.834 417.19 345.956 373.321 345.331C329.453 344.706 314.83 326.834 314.83 322.209C314.83 317.585 330.078 291.214 331.703 279.591C333.327 267.967 318.08 253.22 318.705 238.347C319.329 223.474 332.327 210.726 333.077 207.477C334.827 201.477 336.577 195.603 340.326 192.729Z" fill="#FFE779"/>
<path d="M356.949 197.852C356.949 197.852 356.824 222.848 367.573 240.596C367.573 240.596 386.445 221.349 392.944 201.851C392.944 201.851 378.196 206.601 369.447 203.476C365.117 201.991 360.933 200.109 356.949 197.852V197.852Z" fill="#6DAFA7"/>
<path d="M366.323 182.229C363.948 183.133 361.788 184.522 359.98 186.309C358.172 188.095 356.757 190.238 355.825 192.602C352.2 201.101 353.575 213.474 356.825 213.349C360.074 213.224 372.572 204.351 372.572 204.351C372.572 204.351 371.947 183.229 366.323 182.229Z" fill="white"/>
<path d="M372.447 204.475L379.321 213.474C382.945 218.223 386.445 223.473 395.443 208.975C404.442 194.477 398.693 184.603 393.444 182.229C388.194 179.854 371.697 199.851 372.447 204.475Z" fill="white"/>
<path d="M366.325 172.607C366.039 178.424 365.455 184.222 364.575 189.979C363.325 196.978 365.325 203.352 372.449 204.477C379.572 205.602 394.195 197.853 395.07 187.23C395.07 187.23 393.82 162.108 395.945 154.235C398.07 146.361 366.699 167.108 366.325 172.607Z" fill="#B28D93"/>
<path d="M388.444 172.23C383.819 179.604 374.321 180.229 365.822 180.354C365.572 183.104 365.197 186.103 364.822 188.728C375.571 188.228 386.194 182.729 388.444 172.23Z" fill="#896068"/>
<path d="M432.563 318.211C399.068 340.082 347.576 342.832 317.205 315.586" stroke="#F8AB5D" stroke-width="2.24966" stroke-linecap="round" stroke-linejoin="round"/>
<path d="M367.572 240.597C367.572 240.597 357.824 253.47 355.324 262.093" stroke="#F8AB5D" stroke-width="2.24966" stroke-linecap="round" stroke-linejoin="round"/>
<path d="M368.949 249.345C369.344 249.345 369.731 249.463 370.06 249.682C370.389 249.902 370.645 250.214 370.796 250.58C370.948 250.945 370.987 251.347 370.91 251.735C370.833 252.123 370.643 252.479 370.363 252.759C370.083 253.039 369.727 253.229 369.339 253.306C368.951 253.383 368.549 253.344 368.184 253.192C367.818 253.041 367.506 252.785 367.286 252.456C367.066 252.127 366.949 251.74 366.949 251.345C366.949 250.815 367.16 250.306 367.535 249.931C367.91 249.556 368.419 249.345 368.949 249.345V249.345Z" fill="#F8AB5D"/>
<path d="M364.447 263.092C365.551 263.092 366.447 262.197 366.447 261.092C366.447 259.988 365.551 259.093 364.447 259.093C363.343 259.093 362.447 259.988 362.447 261.092C362.447 262.197 363.343 263.092 364.447 263.092Z" fill="#F8AB5D"/>
<path d="M452.81 228.972C452.81 228.972 462.184 250.344 466.808 266.717C471.432 283.089 466.683 293.213 456.559 298.087C446.436 302.961 438.437 290.463 423.314 252.594C423.314 252.719 445.936 222.473 452.81 228.972Z" fill="#B28D93"/>
<path d="M441.311 290.715C441.311 290.715 447.56 303.463 461.682 302.088C475.805 300.713 509.925 291.09 516.424 285.59C522.923 280.091 519.799 265.468 513.675 264.843C507.551 264.219 489.553 266.093 479.305 266.218C474.991 266.123 470.679 266.457 466.432 267.218C464.764 267.568 463.133 268.07 461.558 268.718C459.705 269.526 457.945 270.532 456.308 271.717C450.059 276.467 441.311 290.715 441.311 290.715Z" fill="#B28D93"/>
<path d="M466.682 267.343C465.015 267.693 463.383 268.195 461.808 268.843C459.955 269.651 458.195 270.657 456.559 271.843" stroke="#896068" stroke-width="2.24966" stroke-linecap="round" stroke-linejoin="round"/>
<path d="M408.69 200.228C411.314 193.479 418.938 189.104 425.062 191.479C431.743 194.117 437.487 198.686 441.56 204.602C451.183 218.725 460.557 244.221 460.557 244.221C460.557 244.221 450.559 251.22 424.937 260.094C420.288 252.27 416.114 244.173 412.439 235.847C409.44 228.723 404.315 211.726 408.69 200.228Z" fill="#6DAFA7"/>
<path d="M422.189 253.468C422.189 253.468 441.437 248.594 457.684 237.221" stroke="#22272E" stroke-width="2.24966" stroke-linecap="round" stroke-linejoin="round"/>
<path d="M474.183 271.591L558.92 262.968C559.422 262.898 559.934 262.931 560.423 263.065C560.912 263.198 561.37 263.43 561.767 263.745C562.164 264.061 562.493 264.454 562.734 264.9C562.975 265.346 563.123 265.837 563.169 266.342L571.793 333.832C571.94 334.791 571.709 335.769 571.15 336.561C570.59 337.354 569.746 337.899 568.793 338.081L486.056 355.954C485.536 356.082 484.994 356.097 484.468 355.998C483.942 355.899 483.443 355.688 483.005 355.381C482.567 355.073 482.199 354.674 481.928 354.213C481.657 353.751 481.487 353.237 481.431 352.704L470.808 276.091C470.71 275.571 470.722 275.036 470.841 274.521C470.961 274.006 471.187 273.521 471.505 273.098C471.822 272.675 472.224 272.322 472.685 272.063C473.146 271.804 473.656 271.643 474.183 271.591V271.591Z" fill="#6DAFA7"/>
<path d="M493.93 297.714L550.547 289.59C551.176 289.493 551.819 289.648 552.334 290.023C552.849 290.397 553.195 290.961 553.296 291.59L558.796 324.085C558.903 324.697 558.766 325.326 558.416 325.84C558.066 326.353 557.53 326.71 556.921 326.834L499.805 338.457C499.483 338.53 499.15 338.534 498.827 338.471C498.504 338.408 498.198 338.278 497.927 338.09C497.657 337.902 497.429 337.66 497.257 337.379C497.085 337.098 496.974 336.784 496.93 336.458L491.806 300.588C491.731 299.929 491.909 299.267 492.303 298.733C492.697 298.2 493.279 297.836 493.93 297.714Z" stroke="#22272E" stroke-width="2.24966" stroke-linecap="round" stroke-linejoin="round"/>
<path d="M540.672 290.962L547.296 328.832" stroke="#22272E" stroke-width="2.24966" stroke-linecap="round" stroke-linejoin="round"/>
<path d="M502.678 306.71L531.798 302.211" stroke="#22272E" stroke-width="2.24966" stroke-linecap="round" stroke-linejoin="round"/>
<path d="M505.176 316.96L534.296 311.335" stroke="#22272E" stroke-width="2.24966" stroke-linecap="round" stroke-linejoin="round"/>
<path d="M507.176 326.709L536.296 321.085" stroke="#22272E" stroke-width="2.24966" stroke-linecap="round" stroke-linejoin="round"/>
<path d="M546.422 298.838L548.297 300.213L550.421 296.214" stroke="#22272E" stroke-width="2.24966" stroke-linecap="round" stroke-linejoin="round"/>
<path d="M548.047 307.337L549.922 308.712L552.171 304.837" stroke="#22272E" stroke-width="2.24966" stroke-linecap="round" stroke-linejoin="round"/>
<path d="M549.67 316.46L551.545 317.834L553.669 313.96" stroke="#22272E" stroke-width="2.24966" stroke-linecap="round" stroke-linejoin="round"/>
<path d="M490.054 285.465L489.554 282.34C489.526 282.118 489.543 281.893 489.604 281.677C489.665 281.462 489.768 281.261 489.908 281.086C490.048 280.911 490.221 280.767 490.418 280.66C490.615 280.553 490.831 280.487 491.054 280.466L504.177 278.966C504.606 278.908 505.042 279.019 505.392 279.275C505.741 279.531 505.978 279.913 506.051 280.341L506.426 283.09C506.485 283.52 506.374 283.955 506.117 284.305C505.861 284.655 505.479 284.891 505.052 284.965L492.054 286.715C491.84 286.778 491.615 286.795 491.394 286.765C491.173 286.735 490.961 286.658 490.772 286.54C490.583 286.422 490.422 286.265 490.298 286.08C490.174 285.894 490.091 285.685 490.054 285.465V285.465Z" fill="#FFE779"/>
<path d="M539.674 262.593C537.799 260.593 536.799 259.844 529.55 259.344C527.05 259.219 522.551 259.469 518.927 259.594C517.177 259.594 516.052 259.219 514.802 259.344C511.053 259.969 506.678 264.343 504.554 265.843C502.429 267.342 498.555 269.217 498.555 269.217L510.928 267.967C511.307 267.907 511.694 267.973 512.033 268.153C512.371 268.333 512.641 268.619 512.803 268.967C513.878 271.063 514.797 273.235 515.552 275.466C517.052 280.215 518.677 286.215 520.801 284.715C522.051 283.84 522.051 279.841 521.676 277.091C521.676 277.466 521.801 277.716 521.801 278.091C522.176 282.84 521.426 289.964 524.176 290.089C526.675 290.214 527.05 287.214 527.05 287.214C527.119 287.453 527.238 287.675 527.398 287.865C527.559 288.054 527.759 288.207 527.983 288.314C528.208 288.42 528.453 288.478 528.701 288.482C528.95 288.486 529.197 288.438 529.425 288.339C531.425 287.589 534.299 281.465 535.174 277.841C535.299 279.466 534.924 280.091 536.049 280.465C538.424 281.215 540.298 273.591 540.923 268.092C541.298 264.593 540.673 263.593 539.674 262.593Z" fill="#B28D93"/>
<path d="M526.924 287.09C526.924 287.09 528.174 280.591 528.674 277.967C529.114 274.23 529.114 270.455 528.674 266.718C528.368 265.636 527.949 264.588 527.424 263.594" stroke="#896068" stroke-width="2.24966" stroke-linecap="round" stroke-linejoin="round"/>
<path d="M535.172 277.717C535.945 274.341 536.488 270.917 536.797 267.468C536.734 266.157 536.525 264.858 536.172 263.594" stroke="#896068" stroke-width="2.24966" stroke-linecap="round" stroke-linejoin="round"/>
<path d="M521.8 279.716C521.932 277.468 521.932 275.215 521.8 272.967C521.27 270.19 520.475 267.469 519.426 264.843" stroke="#896068" stroke-width="2.24966" stroke-linecap="round" stroke-linejoin="round"/>
<path d="M417.065 123.489C417.056 119.914 415.879 116.441 413.713 113.598C411.547 110.755 408.511 108.698 405.067 107.741C404.692 103.697 402.816 99.9397 399.809 97.2099C396.801 94.4802 392.881 92.9758 388.819 92.9931C386.847 92.9795 384.892 93.362 383.07 94.1179C381.541 92.3687 379.66 90.9631 377.549 89.9937C375.437 89.0243 373.145 88.5131 370.822 88.4938C368.113 88.4698 365.442 89.1338 363.059 90.4235C360.677 91.7131 358.66 93.5863 357.199 95.8677C356.699 95.8677 356.199 95.7427 355.699 95.7427C352.723 95.7469 349.805 96.5684 347.264 98.1176C344.723 99.6668 342.657 101.884 341.29 104.528C339.923 107.171 339.308 110.139 339.513 113.108C339.718 116.077 340.734 118.933 342.451 121.364C341.4 123.549 340.846 125.939 340.826 128.363C340.826 130.496 341.247 132.609 342.063 134.58C342.88 136.552 344.077 138.343 345.585 139.852C347.094 141.36 348.885 142.557 350.856 143.374C352.828 144.19 354.94 144.61 357.074 144.61C359.208 144.61 361.32 144.19 363.292 143.374C365.263 142.557 367.054 141.36 368.563 139.852C370.071 138.343 371.268 136.552 372.085 134.58C372.901 132.609 373.322 130.496 373.322 128.363C373.336 125.84 372.735 123.352 371.572 121.114C373.271 120.974 374.949 120.639 376.571 120.114C378.705 122.51 381.481 124.245 384.57 125.113C384.835 127.383 385.512 129.586 386.57 131.612C385.089 133.698 384.121 136.104 383.746 138.634C383.371 141.164 383.598 143.747 384.409 146.173C385.221 148.599 386.594 150.799 388.416 152.594C390.239 154.389 392.459 155.728 394.897 156.503C397.334 157.277 399.921 157.466 402.445 157.052C404.969 156.638 407.36 155.635 409.423 154.122C411.486 152.61 413.163 150.632 414.317 148.349C415.471 146.067 416.07 143.544 416.065 140.986C416.074 138.179 415.341 135.42 413.94 132.987C416.005 130.254 417.103 126.913 417.065 123.489V123.489Z" fill="#22272E"/>
<path d="M371.698 116.491C366.421 116.433 361.321 118.394 357.442 121.971C353.562 125.549 351.196 130.474 350.826 135.738C350.451 140.612 349.952 147.361 349.077 152.985C347.577 162.734 349.077 177.232 364.449 180.731C379.822 184.231 394.82 169.483 398.194 156.735C401.569 143.987 404.443 125.365 386.321 119.241C381.606 117.621 376.68 116.695 371.698 116.491V116.491Z" fill="#B28D93"/>
<path d="M393.32 150.611C393.32 150.611 390.946 148.611 390.196 140.488C390.135 139.985 389.923 139.513 389.589 139.134C389.254 138.755 388.812 138.486 388.321 138.363C385.572 137.738 380.572 134.863 378.823 123.49C374.015 126.739 368.69 129.148 363.075 130.614C354.576 132.614 349.202 124.865 346.452 120.866C341.578 113.742 342.203 111.992 344.453 109.242C355.576 95.4944 375.323 101.244 378.948 102.493C382.572 103.743 395.445 102.743 404.319 112.242C413.192 121.74 411.193 135.363 408.818 143.737C406.443 152.111 394.57 166.984 394.57 168.108C394.57 169.233 393.32 150.611 393.32 150.611Z" fill="#22272E"/>
<path d="M391.57 151.235C391.57 151.235 393.945 144.986 399.319 145.861C403.568 146.486 404.443 161.109 394.07 163.233" fill="#B28D93"/>
<path d="M359.198 144.486C359.239 145.886 358.893 147.269 358.198 148.485C357.824 149.097 357.406 149.682 356.949 150.235C356.699 150.485 356.574 150.735 356.449 150.86C356.324 150.985 356.199 151.235 356.074 151.485C355.903 151.91 355.837 152.371 355.88 152.827C355.923 153.284 356.076 153.724 356.324 154.109C356.944 155.199 357.797 156.138 358.823 156.859C357.377 156.805 356 156.228 354.949 155.234C354.359 154.663 353.965 153.919 353.824 153.11C353.595 152.233 353.683 151.303 354.074 150.485C354.234 150.085 354.444 149.707 354.699 149.36L355.449 148.61C355.949 148.235 356.324 147.735 356.824 147.36C357.573 146.486 358.323 145.611 359.198 144.486Z" fill="#22272E"/>
<path d="M367.324 165.733C368.841 165.577 370.288 165.02 371.518 164.12C372.748 163.219 373.716 162.007 374.323 160.609" stroke="#22272E" stroke-width="2.24966" stroke-linecap="round" stroke-linejoin="round"/>
<path d="M372.323 137.362C371.573 136.487 371.573 134.237 373.073 133.737C374.572 133.237 378.572 133.737 381.196 137.112C383.821 140.486 378.572 137.861 377.072 137.612C375.572 137.362 372.948 137.986 372.323 137.362Z" fill="#22272E"/>
<path d="M357.449 136.237C357.621 136.299 357.804 136.325 357.987 136.315C358.17 136.304 358.348 136.256 358.512 136.175C358.676 136.093 358.821 135.978 358.939 135.839C359.057 135.699 359.146 135.537 359.199 135.362C359.359 134.977 359.42 134.557 359.376 134.143C359.332 133.728 359.186 133.331 358.949 132.987C358.324 132.112 353.2 132.737 352.325 135.112C351.7 136.737 354.95 135.362 356.075 135.737C356.561 135.811 357.028 135.981 357.449 136.237Z" fill="#22272E"/>
<path d="M356.199 144.235C356.235 143.972 356.219 143.704 356.15 143.447C356.082 143.191 355.962 142.95 355.799 142.741C355.636 142.531 355.432 142.356 355.2 142.226C354.969 142.096 354.713 142.015 354.449 141.985V141.985C354.186 141.949 353.918 141.965 353.661 142.034C353.404 142.102 353.164 142.222 352.954 142.385C352.745 142.548 352.57 142.752 352.44 142.983C352.31 143.215 352.228 143.471 352.199 143.735V144.235L356.199 144.735V144.235Z" fill="#22272E"/>
<path d="M375.572 146.609C375.638 146.079 375.491 145.544 375.163 145.122C374.835 144.7 374.352 144.426 373.822 144.359C373.292 144.293 372.757 144.44 372.335 144.768C371.913 145.096 371.639 145.579 371.572 146.109V146.484L375.572 146.984V146.609Z" fill="#22272E"/>
<path d="M399.943 151.484C399.605 151.266 399.218 151.137 398.818 151.109C398.568 151.109 398.443 151.359 398.193 151.484L398.068 151.609V152.984C398.146 153.943 398.104 154.909 397.943 155.858C397.777 156.451 397.427 156.976 396.943 157.358C396.708 157.518 396.44 157.623 396.159 157.666C395.878 157.71 395.591 157.69 395.318 157.608C395.693 157.233 396.068 156.983 396.068 156.608C396.194 156.286 396.194 155.93 396.068 155.608C395.943 154.983 395.818 154.108 395.693 153.108C395.677 152.564 395.719 152.019 395.818 151.484C395.959 151.138 396.126 150.804 396.318 150.484C396.461 150.33 396.63 150.202 396.818 150.109L397.193 149.859C397.481 149.705 397.803 149.624 398.13 149.624C398.457 149.624 398.779 149.705 399.068 149.859C399.337 150.036 399.558 150.277 399.711 150.561C399.864 150.844 399.943 151.162 399.943 151.484V151.484Z" fill="#22272E"/>
<path d="M356.965 145.951C357.54 140.528 354.611 135.772 350.424 135.329C346.237 134.885 342.377 138.921 341.802 144.344C341.228 149.766 344.156 154.522 348.343 154.966C352.53 155.409 356.39 151.373 356.965 145.951Z" stroke="#22272E" stroke-width="2.24966" stroke-linecap="round" stroke-linejoin="round"/>
<path d="M384.466 148.104C385.041 142.681 381.611 137.872 376.807 137.363C372.002 136.854 367.641 140.837 367.066 146.26C366.491 151.682 369.92 156.491 374.725 157C379.53 157.509 383.891 153.526 384.466 148.104Z" stroke="#22272E" stroke-width="2.24966" stroke-linecap="round" stroke-linejoin="round"/>
<path d="M357.074 144.611C357.074 144.611 359.574 142.611 367.198 145.736" stroke="#22272E" stroke-width="2.24966" stroke-linecap="round" stroke-linejoin="round"/>
<path d="M384.445 147.234L393.319 148.484" stroke="#22272E" stroke-width="2.24966" stroke-linecap="round" stroke-linejoin="round"/>
</svg>
