<svg width="800" height="800" viewBox="0 0 800 800" fill="none" xmlns="http://www.w3.org/2000/svg">
<path d="M480.802 629.063L293.098 617.452C280.036 616.484 270.361 605.358 271.328 592.296L299.871 207.212C300.839 194.15 311.481 183.507 325.027 182.54L517.085 170.929C531.115 169.962 542.725 182.056 541.758 196.086L509.829 604.39C507.893 619.387 495.315 630.03 480.802 629.063Z" fill="#22272E"/>
<path d="M467.736 629.065L280.032 617.454C266.97 616.487 257.294 605.36 258.262 592.298L286.805 207.215C287.772 194.153 298.415 183.51 311.961 182.542L504.019 170.932C518.048 169.964 529.659 182.059 528.691 196.088L496.762 604.392C494.827 619.389 482.249 630.033 467.736 629.065Z" fill="#22272E"/>
<path d="M410.164 215.929L374.365 217.864C371.462 217.864 369.527 215.929 369.527 213.027C369.527 210.124 371.946 207.705 374.849 207.705L410.648 205.77C413.551 205.77 415.486 207.705 415.486 210.608C415.486 213.51 413.067 215.929 410.164 215.929Z" fill="#63737A"/>
<path d="M430.969 214.958H430.002C427.099 214.958 425.164 213.023 425.164 210.121C425.164 207.218 428.067 204.799 430.969 204.315H431.937C434.84 204.315 436.775 206.251 436.775 209.153C436.291 212.056 433.872 214.958 430.969 214.958Z" fill="#63737A"/>
<path d="M374.846 280.263L326.953 281.714C322.115 281.714 318.245 277.844 318.728 272.523C319.212 267.201 323.566 263.331 328.404 262.847L376.298 260.912C381.135 260.912 385.006 264.782 384.522 270.104C384.522 275.425 380.168 279.779 374.846 280.263Z" fill="#63737A"/>
<path d="M362.267 446.68L314.857 446.196C310.019 446.196 306.633 441.842 306.633 437.004C307.117 432.167 311.471 427.812 316.308 427.812L363.718 428.296C368.556 428.296 372.426 432.65 371.942 437.488C371.458 442.809 367.104 446.68 362.267 446.68Z" fill="#63737A"/>
<path d="M352.11 581.172L304.701 578.753C299.863 578.753 296.477 574.399 296.477 569.078C296.96 564.24 300.83 559.886 305.668 560.37L353.078 562.305C357.916 562.305 361.786 566.659 361.302 571.98C361.302 577.302 356.948 581.172 352.11 581.172Z" fill="#63737A"/>
<path d="M462.415 387.177L321.153 387.661C315.348 387.661 310.511 382.823 310.994 376.534L315.348 315.095C315.832 309.773 320.186 305.903 325.024 305.903L466.769 302.033C472.575 302.033 477.412 306.871 476.928 313.16L472.091 377.501C472.091 382.823 467.737 387.177 462.415 387.177Z" fill="#B8D8C7"/>
<path d="M358.882 529.408L310.505 527.473C304.7 527.473 300.346 522.151 300.83 516.346L303.733 479.579C304.216 474.258 308.57 469.904 313.892 470.387L362.753 471.355C368.558 471.355 372.912 476.676 372.912 482.482L370.009 520.216C369.042 525.537 364.688 529.408 358.882 529.408Z" fill="#FFE779"/>
<path d="M450.796 532.307L399.032 530.372C393.227 530.372 388.873 525.05 389.357 519.245L392.26 481.027C392.743 475.705 397.097 471.351 402.419 471.835L454.666 472.803C460.472 472.803 464.826 478.124 464.826 483.929L461.923 523.115C460.955 528.437 456.117 532.791 450.796 532.307Z" fill="#F4C2C9"/>
</svg>
