<svg width="800" height="800" viewBox="0 0 800 800" fill="none" xmlns="http://www.w3.org/2000/svg">
<path d="M311.467 427.577L358.326 274.171C359.72 269.987 363.625 267.198 368.088 267.198L645.334 275.007C650.076 275.007 653.144 279.47 652.028 283.933L597.639 471.088C596.244 475.83 591.503 478.898 586.761 478.061L317.603 436.502C312.862 435.944 310.073 431.761 311.467 427.577Z" fill="#22272E"/>
<path d="M308.956 435.388L147.74 450.449L424.15 518.506C430.844 520.179 437.817 520.179 444.511 518.506L594.57 479.736L308.956 435.388Z" fill="#63737A"/>
<path d="M424.429 518.503L148.02 450.446C148.02 455.746 151.646 460.208 156.666 461.603L417.177 530.775C428.055 533.564 439.77 533.564 450.648 530.217L587.319 490.053C592.06 488.658 595.128 484.475 595.128 479.454L445.069 518.224C437.817 520.176 430.844 520.176 424.429 518.503Z" fill="#22272E"/>
<path d="M493.598 301.221L474.073 367.604C473.516 369.277 471.842 370.393 470.169 370.393L360.553 360.91C358.043 360.631 356.648 358.399 357.206 356.168L375.615 295.363C376.173 293.69 377.567 292.574 379.241 292.574L489.972 296.479C492.482 296.479 494.156 298.989 493.598 301.221Z" fill="white"/>
<path d="M472.679 313.213L460.406 353.099L375.057 346.963L378.125 338.037L409.643 324.091L427.494 338.037L472.679 313.213Z" fill="#F4C2C9"/>
<path d="M408.807 394.659L400.718 419.762C400.16 421.436 398.487 422.551 396.534 422.272L343.819 415.299C341.587 415.02 339.914 412.789 340.75 410.558L347.723 387.129C348.281 385.455 349.955 384.339 351.628 384.339L405.46 389.918C407.97 389.918 409.644 392.149 408.807 394.659Z" fill="#FFE779"/>
<path d="M491.366 403.028L482.44 430.641C481.883 432.315 480.209 433.431 478.257 433.152L428.051 426.457C425.82 426.179 424.146 423.947 424.983 421.437L433.351 395.497C433.908 393.824 435.582 392.708 437.255 392.987L488.019 398.008C490.529 398.287 492.203 400.518 491.366 403.028Z" fill="#6DAFA7"/>
<path d="M586.203 412.509L576.719 443.19C576.162 444.863 574.488 445.979 572.536 445.7L512.01 437.611C509.779 437.332 508.105 435.101 508.942 432.591L518.146 403.862C518.704 402.189 520.378 401.073 522.051 401.352L582.577 407.488C585.366 407.767 587.04 410.277 586.203 412.509Z" fill="#F4C2C9"/>
<path d="M553.566 314.61C551.614 322.978 542.968 329.393 534.6 328.835C526.511 328.277 522.328 321.304 524.559 313.494C526.79 305.964 534.6 300.385 542.131 300.385C549.941 300.385 555.24 306.8 553.566 314.61Z" fill="#FFE779"/>
<path d="M573.369 305.403L614.091 306.798" stroke="#63737A" stroke-width="5.02056" stroke-miterlimit="10" stroke-linecap="round" stroke-linejoin="round"/>
<path d="M509.775 358.398L597.077 364.535" stroke="#63737A" stroke-width="5.02056" stroke-miterlimit="10" stroke-linecap="round" stroke-linejoin="round"/>
<path d="M568.627 321.86L609.349 323.534" stroke="#63737A" stroke-width="5.02056" stroke-miterlimit="10" stroke-linecap="round" stroke-linejoin="round"/>
<rect x="0.5" y="0.5" width="799" height="799" stroke="black"/>
</svg>
