<svg width="800" height="800" viewBox="0 0 800 800" fill="none" xmlns="http://www.w3.org/2000/svg">
<path d="M538.172 606.409L242.569 586.811C233.096 586.157 225.584 577.992 226.237 568.519L241.262 275.528C241.915 264.096 250.081 254.624 261.187 252.664L562.67 194.196C574.102 191.91 584.228 201.056 583.574 212.488L559.404 588.117C558.424 598.896 548.951 607.389 538.172 606.409Z" fill="#63737A"/>
<path d="M528.374 606.079L232.77 586.481C223.297 585.827 215.785 577.661 216.438 568.189L231.463 275.198C232.116 263.766 240.282 254.294 251.388 252.334L552.871 193.866C564.303 191.58 574.429 200.726 573.776 212.158L549.605 587.787C548.625 598.566 539.152 606.732 528.374 606.079Z" fill="#22272E"/>
<path d="M501.917 336.281L272.62 360.779C268.7 361.105 265.434 358.165 265.434 353.919L268.047 301.984C268.047 299.045 270.333 296.432 273.599 296.105L503.876 260.175C507.796 259.522 511.389 262.788 511.389 267.035L507.469 330.402C507.469 333.341 505.183 335.954 501.917 336.281Z" fill="#6DAFA7"/>
<path d="M309.857 290.56L306.264 357.193" stroke="#22272E" stroke-width="7.10569" stroke-miterlimit="10" stroke-linecap="round" stroke-linejoin="round"/>
<path d="M280.129 313.422L296.461 339.879" stroke="#22272E" stroke-width="7.10569" stroke-miterlimit="10" stroke-linecap="round" stroke-linejoin="round"/>
<path d="M298.096 310.806L278.498 342.163" stroke="#22272E" stroke-width="7.10569" stroke-miterlimit="10" stroke-linecap="round" stroke-linejoin="round"/>
<path d="M328.799 311.456L480.357 290.552" stroke="#22272E" stroke-width="7.10569" stroke-miterlimit="10" stroke-linecap="round" stroke-linejoin="round"/>
<path d="M327.82 331.056L409.479 320.604" stroke="#22272E" stroke-width="7.10569" stroke-miterlimit="10" stroke-linecap="round" stroke-linejoin="round"/>
<path d="M495.057 441.786L267.72 450.605C263.8 450.605 260.86 447.665 261.187 443.745L263.8 392.137C264.127 388.871 266.413 386.258 269.679 385.931L498.323 365.68C502.243 365.353 505.509 368.62 505.182 372.539L501.263 435.253C500.936 439.173 498.323 441.786 495.057 441.786Z" fill="#F4C2C9"/>
<path d="M304.956 383.315L301.363 449.296" stroke="#22272E" stroke-width="7.10569" stroke-miterlimit="10" stroke-linecap="round" stroke-linejoin="round"/>
<path d="M275.23 403.901L291.562 431.665" stroke="#22272E" stroke-width="7.10569" stroke-miterlimit="10" stroke-linecap="round" stroke-linejoin="round"/>
<path d="M293.196 402.587L273.598 432.637" stroke="#22272E" stroke-width="7.10569" stroke-miterlimit="10" stroke-linecap="round" stroke-linejoin="round"/>
<path d="M323.902 405.526L474.154 394.747" stroke="#22272E" stroke-width="7.10569" stroke-miterlimit="10" stroke-linecap="round" stroke-linejoin="round"/>
<path d="M322.596 424.802L403.601 420.229" stroke="#22272E" stroke-width="7.10569" stroke-miterlimit="10" stroke-linecap="round" stroke-linejoin="round"/>
<path d="M488.196 546.629L262.819 540.096C259.226 540.096 256.286 536.83 256.613 533.237L259.226 481.956C259.552 478.689 262.166 476.076 265.432 475.75L492.116 471.177C495.709 471.177 498.975 474.116 498.649 478.036L494.729 540.423C494.402 544.016 491.463 546.956 488.196 546.629Z" fill="#FFE779"/>
<path d="M300.058 475.423L296.465 541.076" stroke="#22272E" stroke-width="7.10569" stroke-miterlimit="10" stroke-linecap="round" stroke-linejoin="round"/>
<path d="M270.33 494.041L286.662 522.458" stroke="#22272E" stroke-width="7.10569" stroke-miterlimit="10" stroke-linecap="round" stroke-linejoin="round"/>
<path d="M288.295 493.713L269.023 522.13" stroke="#22272E" stroke-width="7.10569" stroke-miterlimit="10" stroke-linecap="round" stroke-linejoin="round"/>
<path d="M318.672 498.937L467.944 498.61" stroke="#22272E" stroke-width="7.10569" stroke-miterlimit="10" stroke-linecap="round" stroke-linejoin="round"/>
<path d="M317.693 517.881L398.045 518.861" stroke="#22272E" stroke-width="7.10569" stroke-miterlimit="10" stroke-linecap="round" stroke-linejoin="round"/>
<rect x="0.5" y="0.5" width="799" height="799" stroke="black"/>
</svg>
