<svg width="800" height="800" viewBox="0 0 800 800" fill="none" xmlns="http://www.w3.org/2000/svg">
<path d="M433.145 260.788C433.145 260.788 410.137 211.483 467.808 180.407C525.479 149.33 605.561 180.108 598.389 190.865C593.907 197.439 582.253 216.563 560.44 240.169C542.212 260.19 489.92 291.267 433.145 260.788Z" fill="#6DAFA7"/>
<path d="M588.237 188.775C588.237 188.775 461.54 160.388 432.854 260.789C404.466 361.191 413.132 457.409 413.132 457.409" stroke="#22272E" stroke-width="5.37864" stroke-miterlimit="10" stroke-linecap="round" stroke-linejoin="round"/>
<path d="M319.004 373.739L339.622 616.675C339.622 625.938 377.272 633.109 423.887 633.109C470.203 633.109 508.153 625.639 508.153 616.675L528.771 373.739H319.004Z" fill="#22272E"/>
<path d="M423.882 389.579C481.642 389.579 528.466 382.489 528.466 373.742C528.466 364.996 481.642 357.905 423.882 357.905C366.121 357.905 319.297 364.996 319.297 373.742C319.297 382.489 366.121 389.579 423.882 389.579Z" fill="#6DAFA7"/>
<path d="M397.29 323.238C397.29 323.238 363.524 306.504 341.71 344.155C319.897 382.104 336.033 438.58 350.973 446.947C365.914 455.314 428.068 426.926 428.068 369.853C428.068 319.055 397.29 323.238 397.29 323.238Z" fill="#6DAFA7"/>
<path d="M397.293 323.243C397.293 323.243 363.527 320.852 353.367 439.182" stroke="#22272E" stroke-width="5.37864" stroke-miterlimit="10" stroke-linecap="round" stroke-linejoin="round"/>
<path d="M371.594 254.212C371.594 254.212 336.035 198.932 264.918 234.491C193.8 270.049 195.892 368.06 206.948 373.738C218.303 379.415 384.443 321.445 371.594 254.212Z" fill="#6DAFA7"/>
<path d="M428.072 369.853C428.072 369.853 405.959 292.161 371.596 253.913C336.933 215.665 230.556 259.591 211.73 351.924" stroke="#22272E" stroke-width="5.37864" stroke-miterlimit="10" stroke-linecap="round" stroke-linejoin="round"/>
<path d="M467.817 285.289C467.817 285.289 437.636 274.83 423.891 312.182C410.444 348.637 426.281 431.707 503.973 456.808C508.156 458.003 512.639 456.808 515.328 453.521C524.89 442.465 544.91 413.48 544.91 369.853C544.612 309.194 511.145 265.268 467.817 285.289Z" fill="#6DAFA7"/>
<path d="M467.812 285.29C467.812 285.29 530.563 316.068 507.555 445.454" stroke="#22272E" stroke-width="5.37864" stroke-miterlimit="10" stroke-linecap="round" stroke-linejoin="round"/>
</svg>
