<svg width="800" height="800" viewBox="0 0 800 800" fill="none" xmlns="http://www.w3.org/2000/svg">
<path d="M510.149 581.165L191.13 562.137C183.438 561.732 178.175 554.04 180.604 546.753L269.67 263.764C272.099 256.477 278.577 251.214 286.269 250.405L619.053 226.114C627.555 225.304 633.628 233.401 631.199 241.498L529.177 567.805C526.748 576.306 518.651 581.974 510.149 581.165Z" fill="#63737A"/>
<path d="M498.407 573.867L179.388 554.839C171.696 554.434 166.432 546.742 168.862 539.455L257.928 256.467C260.357 249.179 266.835 243.916 274.527 243.107L607.311 218.816C615.813 218.006 621.885 226.103 619.456 234.2L517.435 560.507C515.006 569.009 506.909 574.676 498.407 573.867Z" fill="#22272E"/>
<path d="M334.847 297.759L278.574 300.593C276.549 300.593 275.335 298.974 275.74 296.949L279.788 283.994C280.598 281.97 282.217 280.755 284.241 280.755L340.92 277.517C342.944 277.517 344.159 279.136 343.754 281.16L339.301 294.52C338.491 296.14 336.871 297.354 334.847 297.759Z" fill="#FFE779"/>
<path d="M217.443 517.597C211.775 517.192 207.727 511.929 209.346 506.261L236.066 422.053C237.281 418.41 240.52 415.98 244.163 415.98C249.831 415.98 254.284 421.648 252.26 427.316L225.54 511.524C225.135 515.168 221.492 518.002 217.443 517.597Z" fill="#FFE779"/>
<path d="M257.522 519.216C251.449 518.811 247.401 513.143 249.425 507.476L292.339 371.042C293.553 367.398 296.792 364.969 300.841 364.564C306.913 364.564 311.366 370.232 309.747 376.305L266.833 512.738C265.214 517.192 261.57 519.621 257.522 519.216Z" fill="#63737A"/>
<path d="M298.817 521.239C292.745 520.834 288.696 515.166 290.315 509.093L308.129 452.819C309.343 448.771 312.987 446.342 317.036 446.342C323.108 446.342 327.561 452.415 325.942 458.487L308.129 514.761C306.914 518.809 302.866 521.239 298.817 521.239Z" fill="#FFE779"/>
<path d="M341.731 522.858C335.253 522.453 331.204 516.38 332.824 510.307L383.43 349.178C384.644 345.13 388.288 342.701 392.336 342.296C398.814 342.296 403.672 348.369 401.648 354.846L351.042 515.975C349.827 520.429 345.779 523.263 341.731 522.858Z" fill="#6DAFA7"/>
<path d="M385.859 524.879C379.381 524.474 374.928 517.997 376.547 511.924L409.745 405.854C410.959 401.806 415.008 398.972 419.056 398.972C425.938 398.972 430.797 405.449 428.772 411.927L395.575 517.997C394.36 522.045 390.312 524.879 385.859 524.879Z" fill="#63737A"/>
<path d="M432.014 526.91C425.131 526.506 420.678 520.028 422.702 513.55L429.585 490.879C430.799 486.426 435.252 483.592 439.706 483.592C446.588 483.592 451.446 490.474 449.422 496.952L442.54 519.623C440.92 524.076 436.467 526.91 432.014 526.91Z" fill="#F4C2C9"/>
<path d="M479.381 528.931C472.499 528.526 467.64 521.643 469.664 515.166L504.076 405.857C505.291 401.404 509.744 398.165 514.198 398.165C521.485 398.165 526.748 405.047 524.724 411.93L490.312 521.239C488.692 526.097 484.239 528.931 479.381 528.931Z" fill="#FFE779"/>
<path d="M524.72 277.509C525.53 274.675 524.315 272.246 522.291 272.246C519.862 272.246 517.433 274.675 516.218 277.914C515.409 280.748 516.623 283.177 518.648 283.177C521.077 282.772 523.911 280.343 524.72 277.509Z" fill="#63737A"/>
<path d="M545.77 276.295C546.579 273.461 545.365 271.032 542.936 271.032C540.507 271.032 537.673 273.866 536.863 276.7C536.053 279.534 537.268 281.963 539.697 281.963C542.126 281.558 544.96 279.129 545.77 276.295Z" fill="#63737A"/>
<path d="M567.231 275.083C568.04 272.249 566.826 269.82 564.397 269.82C561.968 269.82 559.134 272.654 558.324 275.488C557.514 278.322 558.729 280.751 561.158 280.751C563.587 280.751 566.421 277.917 567.231 275.083Z" fill="#63737A"/>
<rect x="0.5" y="0.5" width="799" height="799" stroke="black"/>
</svg>
