<svg width="800" height="800" viewBox="0 0 800 800" fill="none" xmlns="http://www.w3.org/2000/svg">
<path d="M543.442 582.085L217.553 563.855C209.226 563.405 203.149 556.203 203.825 547.876L231.732 263.173C232.633 253.72 240.285 246.519 249.512 245.618L591.155 219.511C600.383 218.836 608.035 226.713 606.685 235.941L563.923 565.205C562.573 575.108 553.795 582.535 543.442 582.085Z" fill="#63737A"/>
<path d="M534.439 582.085L206.975 563.855C198.647 563.405 192.346 556.203 193.246 547.876L221.154 261.823C222.054 252.37 229.706 244.943 239.158 244.268L582.377 217.936C591.605 217.261 599.257 225.138 598.131 234.365L555.145 565.206C553.569 575.108 544.567 582.535 534.439 582.085Z" fill="#22272E"/>
<path d="M528.364 440.984L523.638 478.119L477.275 477.219L481.552 440.759L528.364 440.984Z" fill="white"/>
<path d="M435.189 440.532L430.913 476.317L383.65 475.642L387.476 440.532H435.189Z" fill="#F4C2C9"/>
<path d="M477.277 477.217L472.776 513.452L426.639 511.876L430.915 476.316L477.277 477.217Z" fill="#B8D8C7"/>
<path d="M291.151 279.616L252.665 281.866C251.315 281.866 250.189 280.741 250.189 279.391L250.865 272.864C251.09 271.063 252.665 269.488 254.466 269.263L293.176 266.787C294.526 266.787 295.877 267.912 295.652 269.263L294.977 276.015C294.526 278.04 293.176 279.391 291.151 279.616Z" fill="#63737A"/>
<path d="M315.459 357.256L247.49 359.281C244.789 359.281 242.539 357.031 242.764 354.105L246.365 318.545C246.59 315.394 249.29 313.144 252.216 312.918L320.635 309.543C323.561 309.317 325.811 311.793 325.361 314.719L321.31 351.629C321.31 354.555 318.609 357.03 315.459 357.256Z" fill="#B8D8C7"/>
<path d="M420.337 354.101L345.842 356.352C343.141 356.352 340.89 354.101 341.115 351.176L345.166 313.59C345.391 310.44 348.092 308.189 351.018 307.964L426.188 304.363C429.114 304.138 431.365 306.613 430.915 309.539L426.413 348.475C425.963 351.626 423.488 353.876 420.337 354.101Z" fill="#FFE779"/>
<path d="M534.446 350.729L452.298 353.205C449.372 353.205 447.347 350.954 447.572 348.028L452.298 308.417C452.748 305.267 455.224 303.016 458.15 302.791L540.747 298.74C543.673 298.515 545.924 300.99 545.473 303.916L540.297 345.102C540.072 348.253 537.371 350.504 534.446 350.729Z" fill="#F4C2C9"/>
<path d="M332.787 544.507L503.383 552.159C509.46 552.384 514.861 547.883 515.762 541.806L534.667 392.816C535.567 385.614 529.94 379.312 522.738 379.537L348.316 382.913C342.239 383.138 337.288 387.639 336.613 393.491L321.533 531.454C320.633 537.98 325.81 544.057 332.787 544.507Z" stroke="#63737A" stroke-width="5.06088" stroke-miterlimit="10" stroke-linecap="round" stroke-linejoin="round"/>
<path d="M335.037 405.641L533.091 403.615" stroke="#63737A" stroke-width="5.06088" stroke-miterlimit="10" stroke-linecap="round" stroke-linejoin="round"/>
<path d="M391.526 406.54L375.547 546.303" stroke="#63737A" stroke-width="5.06088" stroke-miterlimit="10" stroke-linecap="round" stroke-linejoin="round"/>
<path d="M439.237 406.087L422.357 548.551" stroke="#63737A" stroke-width="5.06088" stroke-miterlimit="10" stroke-linecap="round" stroke-linejoin="round"/>
<path d="M485.826 405.869L468.271 550.584" stroke="#63737A" stroke-width="5.06088" stroke-miterlimit="10" stroke-linecap="round" stroke-linejoin="round"/>
<path d="M387.701 440.532L528.365 440.982" stroke="#63737A" stroke-width="5.06088" stroke-miterlimit="10" stroke-linecap="round" stroke-linejoin="round"/>
<path d="M383.65 475.638L523.639 478.113" stroke="#63737A" stroke-width="5.06088" stroke-miterlimit="10" stroke-linecap="round" stroke-linejoin="round"/>
<path d="M379.598 510.517L518.911 514.793" stroke="#63737A" stroke-width="5.06088" stroke-miterlimit="10" stroke-linecap="round" stroke-linejoin="round"/>
<path d="M535.793 257.557C535.343 260.708 532.867 263.408 530.392 263.633C527.691 263.858 525.89 261.383 526.34 258.232C526.791 255.081 529.266 252.38 531.742 252.155C534.443 252.155 536.243 254.406 535.793 257.557Z" fill="#63737A"/>
<path d="M513.738 259.13C513.288 262.28 511.038 264.981 508.337 264.981C505.636 265.206 503.836 262.731 504.286 259.58C504.736 256.429 506.987 253.728 509.687 253.728C512.388 253.503 514.188 255.979 513.738 259.13Z" fill="#63737A"/>
<path d="M492.132 260.488C491.682 263.639 489.431 266.115 486.73 266.34C484.255 266.565 482.454 264.089 482.679 261.163C483.129 258.013 485.38 255.537 488.081 255.312C490.781 254.862 492.357 257.337 492.132 260.488Z" fill="#63737A"/>
</svg>
