<svg width="800" height="800" viewBox="0 0 800 800" fill="none" xmlns="http://www.w3.org/2000/svg">
<path d="M316.597 528.495L166.219 471.257C164.161 470.444 162.401 469.021 161.175 467.179C159.95 465.337 159.317 463.164 159.362 460.952L400.559 425.833C400.559 425.833 430.329 475.793 427.272 476.978C424.216 478.163 316.597 528.495 316.597 528.495Z" fill="#22272E"/>
<path d="M159.363 461.335L320.41 517.809L412.766 473.158C412.766 473.158 392.547 427.744 390.235 428.097C387.924 428.449 159.363 461.335 159.363 461.335Z" fill="#63737A"/>
<path d="M313.541 518.955L366.205 295.323C367.519 290.061 370.494 285.364 374.688 281.927C378.882 278.489 384.073 276.495 389.49 276.24L631.069 269.726C637.172 269.726 642.129 275.456 640.228 281.559L590.993 453.312C589.788 457.511 587.494 461.316 584.344 464.342C581.194 467.368 577.3 469.508 573.057 470.544L324.993 530.025C317.744 531.553 311.631 525.832 313.541 518.955Z" fill="#22272E"/>
<path d="M518.74 389.788C522.306 377.657 518.969 365.993 511.287 363.735C503.604 361.477 494.486 369.48 490.921 381.611C487.355 393.741 490.692 405.405 498.374 407.663C506.057 409.921 515.175 401.918 518.74 389.788Z" fill="#63737A"/>
<rect x="0.5" y="0.5" width="799" height="799" stroke="black"/>
</svg>
