<svg width="800" height="800" viewBox="0 0 800 800" fill="none" xmlns="http://www.w3.org/2000/svg">
<path d="M560.172 526.228C527.614 526.91 476.476 539.183 445.452 551.797C427.696 558.981 410.34 567.118 393.462 576.173C393.462 576.173 400.791 572.082 409.485 588.788C418.178 605.493 415.11 624.925 415.11 624.925C419.542 623.732 525.228 620.493 558.979 616.061C592.731 611.629 631.766 599.356 629.38 566.457C626.993 533.558 598.015 524.524 558.297 517.194C518.58 509.864 496.42 512.932 494.034 512.25C488.625 510.669 483.74 507.667 479.885 503.557C475.794 498.614 471.533 485.147 471.533 485.147C471.533 485.147 368.574 478.67 358.176 496.057C347.778 513.444 394.484 563.218 394.484 563.218L560.172 526.228Z" fill="#22272E"/>
<path d="M314.709 483.101C314.709 483.101 309.084 495.374 307.038 499.806C304.993 504.238 257.775 505.943 236.638 506.284C215.501 506.625 174.079 515.148 170.84 545.66C167.09 580.434 196.239 596.628 248.229 600.378C306.698 604.64 360.904 603.276 372.325 604.469C383.746 605.663 415.281 591.514 418.861 578.389C422.441 565.263 472.045 555.206 472.045 555.206C472.045 555.206 482.954 500.659 465.056 489.749C447.157 478.839 314.709 483.101 314.709 483.101Z" fill="#22272E"/>
<path d="M418.86 566.114C418.86 566.114 322.038 510.374 245.16 513.612" stroke="#63737A" stroke-width="3.0683" stroke-linecap="round" stroke-linejoin="round"/>
<path d="M393.462 576.345C393.462 576.345 388.689 578.39 391.416 594.755C394.143 611.119 409.144 628.506 415.11 625.097C421.076 621.687 418.008 592.027 411.19 582.14C404.371 572.254 393.462 576.345 393.462 576.345Z" fill="#22272E"/>
<path d="M382.383 581.8C382.383 581.8 373.007 593.221 368.746 596.46C364.484 599.699 345.393 601.063 338.404 611.972C331.415 622.882 347.438 647.939 360.393 643.848C356.814 646.064 353.745 648.11 351.359 649.644C339.767 657.485 318.63 669.247 303.63 652.03C291.016 637.371 295.448 619.643 304.653 607.881C313.857 596.119 337.551 594.756 343.006 593.221C348.461 591.687 360.905 582.653 366.359 579.414C370.962 576.687 374.371 580.266 382.383 581.8Z" fill="#6DAFA7"/>
<path d="M415.452 619.47C414.77 619.641 402.497 621.686 397.383 622.709C393.292 623.561 373.859 634.982 360.222 643.676C347.267 647.767 331.244 622.709 338.233 611.799C345.222 600.89 364.313 599.526 368.575 596.287C372.836 593.049 382.212 581.628 382.212 581.628L386.132 582.139C397.042 582.991 402.667 579.241 402.667 579.241C405.361 581.961 407.554 585.135 409.145 588.617C415.281 600.037 415.793 612.481 415.452 619.47Z" fill="#F4C2C9"/>
<path d="M560.172 526.229C527.614 526.91 476.475 539.184 445.452 551.798C427.695 558.981 410.34 567.118 393.461 576.174" stroke="#63737A" stroke-width="3.0683" stroke-linecap="round" stroke-linejoin="round"/>
<path d="M177.828 528.614C179.302 527.969 180.89 527.622 182.499 527.592C184.108 527.563 185.707 527.852 187.203 528.443C196.408 531.512 199.477 551.797 194.874 564.411C190.272 577.025 180.044 576.513 176.635 572.934" stroke="#63737A" stroke-width="3.0683" stroke-linecap="round" stroke-linejoin="round"/>
<path d="M623.413 546.854C623.413 546.854 614.889 537.137 604.832 549.24C593.752 562.366 599.548 584.525 608.412 589.81C617.276 595.094 622.39 589.81 622.39 589.81" stroke="#63737A" stroke-width="3.0683" stroke-linecap="round" stroke-linejoin="round"/>
<path d="M251.299 306.334C251.299 306.705 251.189 307.067 250.983 307.376C250.777 307.684 250.484 307.924 250.141 308.066C249.799 308.208 249.422 308.245 249.058 308.173C248.694 308.101 248.36 307.922 248.098 307.66C247.836 307.398 247.657 307.064 247.585 306.7C247.513 306.336 247.55 305.959 247.692 305.616C247.833 305.274 248.074 304.981 248.382 304.775C248.691 304.569 249.053 304.459 249.424 304.459C249.92 304.463 250.394 304.662 250.745 305.013C251.096 305.364 251.295 305.838 251.299 306.334Z" stroke="#22272E" stroke-width="3.0683" stroke-linecap="round" stroke-linejoin="round"/>
<path d="M288.458 274.456C284.878 286.388 281.128 291.502 281.469 302.411C275.351 304.3 268.859 304.634 262.579 303.384C256.3 302.134 250.43 299.339 245.502 295.252C246.524 290.65 247.036 287.07 246.354 284.854C244.308 276.672 233.228 272.922 225.558 262.694C217.887 252.466 217.205 234.397 220.955 232.181C222.66 231.159 224.364 231.5 226.921 240.023C227.974 243.519 229.403 246.891 231.183 250.08C227.603 241.898 226.069 214.965 235.956 219.056C239.195 220.42 235.444 226.215 239.365 236.613C241.161 242.171 244.76 246.97 249.593 250.25C248.999 245.247 250.142 240.192 252.831 235.932C256.582 230.647 266.127 224.681 267.832 230.306C269.537 235.932 261.014 237.807 260.332 244.796C259.309 253.148 268.684 259.626 274.991 254.171C281.298 248.716 277.719 242.58 274.991 238.659C272.264 234.738 268.002 229.965 271.071 227.749C274.139 225.533 281.81 228.09 287.265 237.466C292.719 246.841 292.037 262.523 288.458 274.456Z" fill="#F4C2C9"/>
<path d="M323.061 396.679C323.061 396.679 284.708 445.09 259.479 456C234.251 466.909 217.205 459.239 212.262 432.817C207.318 406.396 223.001 359.178 229.819 341.791C234.763 328.836 242.604 308.381 245.502 295.425C250.459 299.46 256.328 302.222 262.597 303.47C268.865 304.718 275.344 304.414 281.469 302.585C281.639 312.983 276.866 351.337 276.355 354.916C276.526 353.723 278.571 348.098 292.89 327.984C309.425 304.971 325.959 294.914 325.959 294.914C325.959 294.914 339.937 301.562 344.028 332.756C348.119 363.951 323.061 396.679 323.061 396.679Z" fill="#6DAFA7"/>
<path d="M276.357 354.915C276.357 354.915 274.822 398.553 269.197 412.701" stroke="#22272E" stroke-width="3.0683" stroke-linecap="round" stroke-linejoin="round"/>
<path d="M249.424 250.421C249.81 253.082 250.739 255.634 252.151 257.922" stroke="#E26E85" stroke-width="3.0683" stroke-linecap="round" stroke-linejoin="round"/>
<path d="M241.58 308.891C241.58 308.891 251.296 322.868 280.445 318.777" stroke="#22272E" stroke-width="3.0683" stroke-linecap="round" stroke-linejoin="round"/>
<path d="M217.205 447.645C217.205 447.645 212.773 432.474 229.138 428.894C245.502 425.315 265.446 449.009 252.832 458.384" stroke="#22272E" stroke-width="3.0683" stroke-linecap="round" stroke-linejoin="round"/>
<path d="M231.014 250.421C232.519 253.521 234.536 256.345 236.98 258.774C238.684 260.479 241.071 262.183 242.094 264.399" stroke="#E26E85" stroke-width="3.0683" stroke-linecap="round" stroke-linejoin="round"/>
<path d="M434.541 147.293C453.974 152.237 463.179 163.317 462.327 191.272C461.474 219.228 457.724 229.285 471.02 244.797C484.316 260.309 487.896 282.128 462.668 295.935C437.439 309.743 382.21 313.322 354.766 295.935C327.321 278.548 324.083 259.968 332.265 241.729C340.447 223.489 362.266 211.557 357.493 198.432C352.72 185.306 358.516 199.625 358.516 199.625C353.997 195.85 350.448 191.049 348.165 185.622C345.881 180.195 344.93 174.3 345.39 168.43C346.413 147.634 371.982 139.793 385.278 139.111C392.097 138.77 399.426 143.032 409.484 144.736C419.541 146.1 429.598 146.1 434.541 147.293Z" fill="#22272E"/>
<path d="M393.802 279.911C393.802 279.911 356.982 281.956 335.504 289.627C314.026 297.298 317.946 314.344 315.219 332.242C312.492 350.141 294.934 368.38 303.798 392.756C312.662 417.132 321.356 430.939 316.753 449.69C312.151 468.441 307.889 477.816 308.571 483.1C309.253 488.385 333.799 504.578 343.175 507.817C352.55 511.056 370.789 498.101 370.789 498.101C370.789 498.101 380.165 510.374 393.802 513.101C407.439 515.829 462.668 501.68 475.282 487.532C470.076 476.591 467.175 464.697 466.759 452.588C466.418 433.496 477.498 409.802 481.589 396.676C485.68 383.551 508.692 332.924 499.658 316.048C493.18 303.946 444.77 276.672 393.802 279.911Z" fill="#FFE779"/>
<mask id="mask0_84_6579" style="mask-type:alpha" maskUnits="userSpaceOnUse" x="301" y="279" width="201" height="235">
<path d="M393.802 279.911C393.802 279.911 356.982 281.956 335.504 289.627C314.026 297.298 317.946 314.344 315.219 332.242C312.492 350.141 294.934 368.38 303.798 392.756C312.662 417.132 321.356 430.939 316.753 449.69C312.151 468.441 307.889 477.816 308.571 483.1C309.253 488.385 333.799 504.578 343.175 507.817C352.55 511.056 370.789 498.101 370.789 498.101C370.789 498.101 380.165 510.374 393.802 513.101C407.439 515.829 462.668 501.68 475.282 487.532C470.076 476.591 467.175 464.697 466.759 452.588C466.418 433.496 477.498 409.802 481.589 396.676C485.68 383.551 508.692 332.924 499.658 316.048C493.18 303.946 444.77 276.672 393.802 279.911Z" fill="#FFE779"/>
</mask>
<g mask="url(#mask0_84_6579)">
<path d="M301.07 503.387L302.775 505.433C303.336 506.135 303.597 507.03 303.501 507.924C303.406 508.818 302.961 509.638 302.263 510.206L300.218 511.91C299.516 512.471 298.62 512.733 297.726 512.637C296.832 512.541 296.012 512.096 295.445 511.399L293.74 509.353C293.179 508.651 292.918 507.755 293.014 506.861C293.109 505.968 293.554 505.148 294.252 504.58L296.297 502.876C296.639 502.584 297.037 502.366 297.466 502.233C297.895 502.101 298.347 502.057 298.794 502.105C299.24 502.153 299.672 502.291 300.064 502.512C300.455 502.732 300.798 503.03 301.07 503.387V503.387Z" fill="#F8AB5D"/>
<path d="M304.648 472.534L306.353 474.58C306.914 475.282 307.175 476.178 307.079 477.072C306.984 477.965 306.539 478.785 305.841 479.353L303.796 481.057C303.094 481.619 302.198 481.88 301.304 481.784C300.41 481.688 299.59 481.243 299.023 480.546L297.318 478.5C296.757 477.798 296.496 476.903 296.592 476.009C296.687 475.115 297.132 474.295 297.83 473.728L299.875 472.023C300.578 471.462 301.473 471.2 302.367 471.296C303.261 471.392 304.081 471.837 304.648 472.534V472.534Z" fill="#F8AB5D"/>
<path d="M308.398 441.852L310.103 443.897C310.664 444.6 310.925 445.495 310.83 446.389C310.734 447.283 310.289 448.103 309.591 448.67L307.546 450.375C306.844 450.936 305.948 451.197 305.054 451.101C304.16 451.006 303.34 450.561 302.773 449.863L301.068 447.818C300.507 447.116 300.246 446.22 300.342 445.326C300.437 444.432 300.882 443.612 301.58 443.045L303.625 441.34C303.959 441.032 304.355 440.798 304.787 440.655C305.219 440.513 305.676 440.464 306.128 440.512C306.58 440.561 307.016 440.705 307.408 440.936C307.8 441.167 308.137 441.479 308.398 441.852V441.852Z" fill="#F8AB5D"/>
<path d="M311.98 410.997L313.685 413.043C314.246 413.745 314.507 414.641 314.412 415.534C314.316 416.428 313.871 417.248 313.173 417.816L311.128 419.52C310.426 420.082 309.53 420.343 308.636 420.247C307.742 420.151 306.922 419.706 306.355 419.009L304.65 416.963C304.089 416.261 303.828 415.366 303.924 414.472C304.019 413.578 304.464 412.758 305.162 412.19L307.207 410.486C307.91 409.925 308.805 409.663 309.699 409.759C310.593 409.855 311.413 410.3 311.98 410.997Z" fill="#F8AB5D"/>
<path d="M315.558 380.145L317.263 382.19C317.824 382.892 318.085 383.788 317.99 384.682C317.894 385.576 317.449 386.396 316.752 386.963L314.706 388.668C314.004 389.229 313.108 389.49 312.214 389.394C311.32 389.299 310.501 388.854 309.933 388.156L308.229 386.111C307.667 385.409 307.406 384.513 307.502 383.619C307.598 382.725 308.043 381.905 308.74 381.338L310.785 379.633C311.488 379.072 312.383 378.811 313.277 378.907C314.171 379.002 314.991 379.447 315.558 380.145Z" fill="#F8AB5D"/>
<path d="M328.853 506.626L330.558 508.672C331.119 509.374 331.38 510.27 331.285 511.164C331.189 512.057 330.744 512.877 330.047 513.445L328.001 515.149C327.299 515.711 326.403 515.972 325.509 515.876C324.615 515.78 323.796 515.335 323.228 514.638L321.523 512.592C320.962 511.89 320.701 510.995 320.797 510.101C320.893 509.207 321.338 508.387 322.035 507.82L324.08 506.115C324.422 505.824 324.82 505.605 325.249 505.473C325.679 505.34 326.13 505.297 326.577 505.344C327.023 505.392 327.456 505.531 327.847 505.751C328.238 505.971 328.581 506.269 328.853 506.626V506.626Z" fill="#F8AB5D"/>
<path d="M332.435 475.773L334.14 477.818C334.701 478.52 334.962 479.416 334.867 480.31C334.771 481.204 334.326 482.024 333.629 482.591L331.583 484.296C330.881 484.857 329.985 485.118 329.091 485.022C328.197 484.927 327.378 484.482 326.81 483.784L325.106 481.739C324.544 481.037 324.283 480.141 324.379 479.247C324.475 478.353 324.92 477.533 325.617 476.966L327.662 475.261C328.365 474.7 329.26 474.439 330.154 474.535C331.048 474.63 331.868 475.075 332.435 475.773Z" fill="#F8AB5D"/>
<path d="M336.013 445.09L337.718 447.135C338.279 447.837 338.541 448.733 338.445 449.627C338.349 450.521 337.904 451.341 337.207 451.908L335.161 453.613C334.459 454.174 333.563 454.435 332.669 454.339C331.776 454.244 330.956 453.799 330.388 453.101L328.684 451.056C328.122 450.353 327.861 449.458 327.957 448.564C328.053 447.67 328.498 446.85 329.195 446.283L331.241 444.578C331.581 444.285 331.979 444.064 332.408 443.93C332.838 443.796 333.29 443.752 333.738 443.8C334.185 443.848 334.618 443.987 335.009 444.209C335.401 444.431 335.742 444.73 336.013 445.09V445.09Z" fill="#F8AB5D"/>
<path d="M339.763 414.237L341.468 416.283C342.029 416.985 342.291 417.881 342.195 418.775C342.099 419.669 341.654 420.488 340.957 421.056L338.911 422.76C338.209 423.322 337.313 423.583 336.419 423.487C335.526 423.391 334.706 422.946 334.138 422.249L332.434 420.204C331.872 419.501 331.611 418.606 331.707 417.712C331.803 416.818 332.248 415.998 332.945 415.431L334.991 413.726C335.693 413.165 336.588 412.904 337.482 412.999C338.376 413.095 339.196 413.54 339.763 414.237Z" fill="#F8AB5D"/>
<path d="M343.342 383.383L345.046 385.428C345.607 386.131 345.869 387.026 345.773 387.92C345.677 388.814 345.232 389.634 344.535 390.201L342.489 391.906C341.787 392.467 340.891 392.728 339.998 392.633C339.104 392.537 338.284 392.092 337.716 391.395L336.012 389.349C335.45 388.647 335.189 387.751 335.285 386.857C335.381 385.963 335.826 385.144 336.523 384.576L338.569 382.872C339.271 382.31 340.166 382.049 341.06 382.145C341.954 382.241 342.774 382.686 343.342 383.383Z" fill="#F8AB5D"/>
<path d="M356.642 509.865L358.347 511.91C358.908 512.613 359.169 513.508 359.074 514.402C358.978 515.296 358.533 516.116 357.836 516.683L355.79 518.388C355.088 518.949 354.192 519.21 353.298 519.115C352.404 519.019 351.585 518.574 351.017 517.877L349.312 515.831C348.751 515.129 348.49 514.233 348.586 513.339C348.682 512.445 349.127 511.626 349.824 511.058L351.869 509.354C352.572 508.792 353.467 508.531 354.361 508.627C355.255 508.723 356.075 509.168 356.642 509.865V509.865Z" fill="#F8AB5D"/>
<path d="M360.22 479.013L361.925 481.058C362.486 481.761 362.748 482.656 362.652 483.55C362.556 484.444 362.111 485.264 361.414 485.831L359.368 487.536C358.666 488.097 357.77 488.358 356.876 488.263C355.983 488.167 355.163 487.722 354.595 487.025L352.891 484.979C352.329 484.277 352.068 483.381 352.164 482.487C352.26 481.593 352.705 480.773 353.402 480.206L355.448 478.501C356.15 477.94 357.045 477.679 357.939 477.775C358.833 477.871 359.653 478.315 360.22 479.013Z" fill="#F8AB5D"/>
<path d="M363.799 448.329L365.503 450.374C366.065 451.077 366.326 451.972 366.23 452.866C366.134 453.76 365.689 454.58 364.992 455.147L362.946 456.852C362.244 457.413 361.349 457.674 360.455 457.579C359.561 457.483 358.741 457.038 358.173 456.341L356.469 454.295C355.908 453.593 355.646 452.697 355.742 451.803C355.838 450.909 356.283 450.09 356.98 449.522L359.026 447.818C359.368 447.526 359.765 447.308 360.195 447.175C360.624 447.043 361.075 446.999 361.522 447.047C361.969 447.095 362.401 447.233 362.792 447.454C363.184 447.674 363.526 447.972 363.799 448.329V448.329Z" fill="#F8AB5D"/>
<path d="M367.381 417.476L369.085 419.521C369.647 420.224 369.908 421.119 369.812 422.013C369.716 422.907 369.271 423.727 368.574 424.294L366.528 425.999C365.826 426.56 364.93 426.821 364.037 426.726C363.143 426.63 362.323 426.185 361.755 425.488L360.051 423.442C359.49 422.74 359.228 421.844 359.324 420.95C359.42 420.056 359.865 419.237 360.562 418.669L362.608 416.965C362.95 416.673 363.347 416.455 363.777 416.322C364.206 416.19 364.657 416.146 365.104 416.194C365.551 416.242 365.983 416.38 366.374 416.601C366.766 416.821 367.108 417.119 367.381 417.476V417.476Z" fill="#F8AB5D"/>
<path d="M370.959 386.622L372.663 388.668C373.225 389.37 373.486 390.266 373.39 391.159C373.294 392.053 372.849 392.873 372.152 393.441L370.106 395.145C369.404 395.707 368.509 395.968 367.615 395.872C366.721 395.776 365.901 395.331 365.334 394.634L363.629 392.588C363.068 391.886 362.806 390.991 362.902 390.097C362.998 389.203 363.443 388.383 364.14 387.815L366.186 386.111C366.888 385.55 367.784 385.288 368.678 385.384C369.571 385.48 370.391 385.925 370.959 386.622Z" fill="#F8AB5D"/>
<path d="M384.254 513.104L385.958 515.15C386.52 515.852 386.781 516.748 386.685 517.641C386.589 518.535 386.144 519.355 385.447 519.923L383.401 521.627C382.699 522.188 381.804 522.45 380.91 522.354C380.016 522.258 379.196 521.813 378.628 521.116L376.924 519.07C376.363 518.368 376.101 517.472 376.197 516.579C376.293 515.685 376.738 514.865 377.435 514.297L379.481 512.593C380.183 512.031 381.079 511.77 381.972 511.866C382.866 511.962 383.686 512.407 384.254 513.104Z" fill="#F8AB5D"/>
<path d="M388.004 482.421L389.708 484.466C390.27 485.168 390.531 486.064 390.435 486.958C390.339 487.852 389.894 488.672 389.197 489.239L387.151 490.944C386.449 491.505 385.554 491.766 384.66 491.67C383.766 491.575 382.946 491.13 382.378 490.432L380.674 488.387C380.113 487.684 379.851 486.789 379.947 485.895C380.043 485.001 380.488 484.181 381.185 483.614L383.231 481.909C383.565 481.601 383.961 481.367 384.392 481.224C384.824 481.082 385.281 481.033 385.733 481.081C386.185 481.13 386.622 481.274 387.013 481.505C387.405 481.736 387.743 482.048 388.004 482.421V482.421Z" fill="#F8AB5D"/>
<path d="M391.586 451.568L393.29 453.614C393.852 454.316 394.113 455.211 394.017 456.105C393.921 456.999 393.476 457.819 392.779 458.386L390.733 460.091C390.031 460.652 389.136 460.914 388.242 460.818C387.348 460.722 386.528 460.277 385.96 459.58L384.256 457.534C383.695 456.832 383.433 455.936 383.529 455.042C383.625 454.149 384.07 453.329 384.767 452.761L386.813 451.057C387.515 450.495 388.411 450.234 389.305 450.33C390.198 450.426 391.018 450.871 391.586 451.568Z" fill="#F8AB5D"/>
<path d="M395.164 420.715L396.868 422.76C397.43 423.462 397.691 424.358 397.595 425.252C397.499 426.146 397.054 426.966 396.357 427.533L394.311 429.238C393.609 429.799 392.714 430.06 391.82 429.964C390.926 429.868 390.106 429.424 389.539 428.726L387.834 426.681C387.273 425.978 387.012 425.083 387.107 424.189C387.203 423.295 387.648 422.475 388.345 421.908L390.391 420.203C391.093 419.642 391.989 419.381 392.883 419.476C393.777 419.572 394.596 420.017 395.164 420.715V420.715Z" fill="#F8AB5D"/>
<path d="M398.742 390.032L400.447 392.077C401.008 392.78 401.269 393.675 401.173 394.569C401.078 395.463 400.633 396.283 399.935 396.85L397.89 398.555C397.187 399.116 396.292 399.377 395.398 399.282C394.504 399.186 393.684 398.741 393.117 398.044L391.412 395.998C390.851 395.296 390.59 394.4 390.685 393.506C390.781 392.612 391.226 391.792 391.924 391.225L393.969 389.52C394.303 389.212 394.699 388.978 395.131 388.836C395.562 388.693 396.02 388.644 396.472 388.692C396.924 388.741 397.36 388.885 397.752 389.116C398.143 389.347 398.481 389.66 398.742 390.032Z" fill="#F8AB5D"/>
<path d="M415.621 485.66L417.325 487.706C417.887 488.408 418.148 489.304 418.052 490.198C417.956 491.091 417.511 491.911 416.814 492.479L414.769 494.183C414.066 494.745 413.171 495.006 412.277 494.91C411.383 494.814 410.563 494.369 409.996 493.672L408.291 491.626C407.73 490.924 407.469 490.029 407.564 489.135C407.66 488.241 408.105 487.421 408.802 486.853L410.848 485.149C411.182 484.84 411.578 484.607 412.01 484.464C412.441 484.321 412.898 484.272 413.35 484.321C413.803 484.369 414.239 484.514 414.631 484.745C415.022 484.976 415.36 485.288 415.621 485.66Z" fill="#F8AB5D"/>
<path d="M419.199 454.806L420.904 456.851C421.465 457.554 421.726 458.449 421.63 459.343C421.535 460.237 421.09 461.057 420.392 461.624L418.347 463.329C417.644 463.89 416.749 464.151 415.855 464.056C414.961 463.96 414.141 463.515 413.574 462.818L411.869 460.772C411.308 460.07 411.047 459.174 411.142 458.28C411.238 457.386 411.683 456.566 412.381 455.999L414.426 454.294C414.767 454.001 415.165 453.78 415.594 453.647C416.024 453.513 416.476 453.468 416.923 453.516C417.371 453.564 417.803 453.703 418.195 453.925C418.586 454.147 418.928 454.447 419.199 454.806V454.806Z" fill="#F8AB5D"/>
<path d="M422.951 423.953L424.656 425.998C425.217 426.701 425.478 427.596 425.382 428.49C425.286 429.384 424.841 430.204 424.144 430.771L422.099 432.476C421.396 433.037 420.501 433.298 419.607 433.203C418.713 433.107 417.893 432.662 417.326 431.965L415.621 429.919C415.06 429.217 414.799 428.321 414.894 427.427C414.99 426.533 415.435 425.713 416.133 425.146L418.178 423.441C418.88 422.88 419.776 422.619 420.67 422.715C421.564 422.81 422.383 423.255 422.951 423.953V423.953Z" fill="#F8AB5D"/>
<path d="M426.529 393.27L428.234 395.315C428.795 396.018 429.056 396.913 428.96 397.807C428.865 398.701 428.42 399.521 427.722 400.088L425.677 401.793C424.974 402.354 424.079 402.615 423.185 402.519C422.291 402.424 421.471 401.979 420.904 401.281L419.199 399.236C418.638 398.534 418.377 397.638 418.473 396.744C418.568 395.85 419.013 395.03 419.711 394.463L421.756 392.758C422.458 392.197 423.354 391.936 424.248 392.032C425.142 392.127 425.962 392.572 426.529 393.27Z" fill="#F8AB5D"/>
<path d="M443.404 488.899L445.109 490.944C445.67 491.646 445.931 492.542 445.835 493.436C445.74 494.33 445.295 495.15 444.597 495.717L442.552 497.422C441.849 497.983 440.954 498.244 440.06 498.148C439.166 498.053 438.346 497.608 437.779 496.91L436.074 494.865C435.513 494.162 435.252 493.267 435.348 492.373C435.443 491.479 435.888 490.659 436.586 490.092L438.631 488.387C439.333 487.826 440.229 487.565 441.123 487.661C442.017 487.756 442.837 488.201 443.404 488.899Z" fill="#F8AB5D"/>
<path d="M446.986 458.045L448.691 460.09C449.252 460.793 449.513 461.688 449.417 462.582C449.322 463.476 448.877 464.296 448.179 464.863L446.134 466.568C445.432 467.129 444.536 467.39 443.642 467.295C442.748 467.199 441.928 466.754 441.361 466.056L439.656 464.011C439.095 463.309 438.834 462.413 438.93 461.519C439.025 460.625 439.47 459.805 440.168 459.238L442.213 457.533C442.555 457.242 442.953 457.024 443.382 456.891C443.811 456.759 444.263 456.715 444.71 456.763C445.156 456.811 445.588 456.949 445.98 457.17C446.371 457.39 446.714 457.688 446.986 458.045V458.045Z" fill="#F8AB5D"/>
<path d="M450.564 427.191L452.269 429.237C452.83 429.939 453.091 430.834 452.996 431.728C452.9 432.622 452.455 433.442 451.757 434.01L449.712 435.714C449.01 436.275 448.114 436.537 447.22 436.441C446.326 436.345 445.506 435.9 444.939 435.203L443.234 433.157C442.673 432.455 442.412 431.559 442.508 430.666C442.603 429.772 443.048 428.952 443.746 428.384L445.791 426.68C446.494 426.118 447.389 425.857 448.283 425.953C449.177 426.049 449.997 426.494 450.564 427.191Z" fill="#F8AB5D"/>
<path d="M454.142 396.508L455.847 398.554C456.408 399.256 456.669 400.151 456.574 401.045C456.478 401.939 456.033 402.759 455.335 403.326L453.29 405.031C452.588 405.592 451.692 405.854 450.798 405.758C449.904 405.662 449.084 405.217 448.517 404.52L446.812 402.474C446.251 401.772 445.99 400.876 446.086 399.982C446.182 399.089 446.627 398.269 447.324 397.701L449.369 395.997C449.71 395.703 450.108 395.483 450.537 395.349C450.967 395.215 451.419 395.17 451.867 395.218C452.314 395.266 452.747 395.406 453.138 395.627C453.53 395.849 453.871 396.149 454.142 396.508Z" fill="#F8AB5D"/>
<path d="M471.191 492.137L472.896 494.182C473.457 494.885 473.718 495.78 473.622 496.674C473.527 497.568 473.082 498.388 472.384 498.955L470.339 500.66C469.637 501.221 468.741 501.482 467.847 501.387C466.953 501.291 466.133 500.846 465.566 500.149L463.861 498.103C463.3 497.401 463.039 496.505 463.135 495.611C463.23 494.717 463.675 493.898 464.373 493.33L466.418 491.626C467.12 491.064 468.016 490.803 468.91 490.899C469.804 490.995 470.624 491.44 471.191 492.137Z" fill="#F8AB5D"/>
<path d="M474.769 461.283L476.474 463.329C477.035 464.031 477.296 464.927 477.201 465.821C477.105 466.715 476.66 467.534 475.963 468.102L473.917 469.806C473.215 470.368 472.319 470.629 471.425 470.533C470.531 470.437 469.712 469.992 469.144 469.295L467.439 467.25C466.878 466.547 466.617 465.652 466.713 464.758C466.809 463.864 467.254 463.044 467.951 462.477L469.996 460.772C470.699 460.211 471.594 459.95 472.488 460.045C473.382 460.141 474.202 460.586 474.769 461.283Z" fill="#F8AB5D"/>
<path d="M478.347 430.431L480.052 432.476C480.613 433.179 480.875 434.074 480.779 434.968C480.683 435.862 480.238 436.682 479.541 437.249L477.495 438.954C476.793 439.515 475.897 439.776 475.003 439.681C474.11 439.585 473.29 439.14 472.722 438.442L471.018 436.397C470.456 435.695 470.195 434.799 470.291 433.905C470.387 433.011 470.832 432.191 471.529 431.624L473.575 429.919C474.277 429.358 475.172 429.097 476.066 429.193C476.96 429.289 477.78 429.733 478.347 430.431Z" fill="#F8AB5D"/>
<path d="M481.929 399.747L483.634 401.793C484.195 402.495 484.457 403.391 484.361 404.285C484.265 405.179 483.82 405.998 483.123 406.566L481.077 408.27C480.375 408.832 479.479 409.093 478.585 408.997C477.692 408.901 476.872 408.456 476.304 407.759L474.6 405.714C474.038 405.011 473.777 404.116 473.873 403.222C473.969 402.328 474.414 401.508 475.111 400.941L477.157 399.236C477.499 398.945 477.896 398.726 478.325 398.594C478.755 398.461 479.206 398.418 479.653 398.466C480.1 398.513 480.532 398.652 480.923 398.872C481.315 399.093 481.657 399.39 481.929 399.747V399.747Z" fill="#F8AB5D"/>
<path d="M319.14 349.461L320.845 351.507C321.406 352.209 321.667 353.104 321.572 353.998C321.476 354.892 321.031 355.712 320.334 356.279L318.288 357.984C317.586 358.545 316.69 358.807 315.796 358.711C314.902 358.615 314.083 358.17 313.515 357.473L311.811 355.427C311.249 354.725 310.988 353.829 311.084 352.935C311.18 352.042 311.625 351.222 312.322 350.654L314.367 348.95C314.701 348.641 315.097 348.408 315.529 348.265C315.961 348.122 316.418 348.073 316.87 348.122C317.322 348.17 317.759 348.315 318.15 348.546C318.542 348.777 318.879 349.089 319.14 349.461V349.461Z" fill="#F8AB5D"/>
<path d="M322.718 318.609L324.423 320.654C324.984 321.356 325.246 322.252 325.15 323.146C325.054 324.04 324.609 324.86 323.912 325.427L321.866 327.132C321.164 327.693 320.268 327.954 319.374 327.858C318.481 327.763 317.661 327.318 317.093 326.62L315.389 324.575C314.827 323.872 314.566 322.977 314.662 322.083C314.758 321.189 315.203 320.369 315.9 319.802L317.946 318.097C318.287 317.804 318.684 317.583 319.114 317.449C319.543 317.315 319.995 317.271 320.443 317.319C320.89 317.367 321.323 317.506 321.714 317.728C322.106 317.95 322.447 318.249 322.718 318.609V318.609Z" fill="#F8AB5D"/>
<path d="M326.469 287.755L328.173 289.8C328.734 290.502 328.996 291.398 328.9 292.292C328.804 293.186 328.359 294.006 327.662 294.573L325.616 296.278C324.914 296.839 324.018 297.1 323.124 297.004C322.231 296.909 321.411 296.464 320.843 295.766L319.139 293.721C318.577 293.018 318.316 292.123 318.412 291.229C318.508 290.335 318.953 289.515 319.65 288.948L321.696 287.243C322.398 286.682 323.293 286.421 324.187 286.516C325.081 286.612 325.901 287.057 326.469 287.755Z" fill="#F8AB5D"/>
<path d="M346.924 352.701L348.628 354.746C349.19 355.448 349.451 356.344 349.355 357.238C349.259 358.132 348.814 358.952 348.117 359.519L346.071 361.224C345.369 361.785 344.473 362.046 343.58 361.95C342.686 361.855 341.866 361.41 341.298 360.712L339.594 358.667C339.033 357.964 338.771 357.069 338.867 356.175C338.963 355.281 339.408 354.461 340.105 353.894L342.151 352.189C342.493 351.898 342.89 351.679 343.32 351.547C343.749 351.414 344.2 351.371 344.647 351.419C345.094 351.467 345.526 351.605 345.917 351.825C346.309 352.046 346.651 352.343 346.924 352.701V352.701Z" fill="#F8AB5D"/>
<path d="M350.502 321.846L352.206 323.892C352.768 324.594 353.029 325.489 352.933 326.383C352.837 327.277 352.392 328.097 351.695 328.665L349.649 330.369C348.947 330.93 348.052 331.192 347.158 331.096C346.264 331 345.444 330.555 344.876 329.858L343.172 327.812C342.611 327.11 342.349 326.214 342.445 325.32C342.541 324.427 342.986 323.607 343.683 323.039L345.729 321.335C346.071 321.043 346.468 320.825 346.898 320.692C347.327 320.56 347.779 320.516 348.225 320.564C348.672 320.612 349.104 320.75 349.495 320.971C349.887 321.191 350.229 321.489 350.502 321.846V321.846Z" fill="#F8AB5D"/>
<path d="M354.084 290.993L355.788 293.039C356.35 293.741 356.611 294.637 356.515 295.531C356.419 296.424 355.974 297.244 355.277 297.812L353.231 299.516C352.529 300.078 351.634 300.339 350.74 300.243C349.846 300.147 349.026 299.702 348.459 299.005L346.754 296.959C346.193 296.257 345.931 295.362 346.027 294.468C346.123 293.574 346.568 292.754 347.265 292.187L349.311 290.482C350.013 289.921 350.909 289.659 351.803 289.755C352.696 289.851 353.516 290.296 354.084 290.993V290.993Z" fill="#F8AB5D"/>
<path d="M374.709 355.939L376.413 357.985C376.975 358.687 377.236 359.582 377.14 360.476C377.044 361.37 376.599 362.19 375.902 362.758L373.856 364.462C373.154 365.023 372.259 365.285 371.365 365.189C370.471 365.093 369.651 364.648 369.084 363.951L367.379 361.905C366.818 361.203 366.556 360.307 366.652 359.414C366.748 358.52 367.193 357.7 367.89 357.132L369.936 355.428C370.638 354.866 371.534 354.605 372.428 354.701C373.321 354.797 374.141 355.242 374.709 355.939V355.939Z" fill="#F8AB5D"/>
<path d="M378.291 325.085L379.995 327.131C380.557 327.833 380.818 328.728 380.722 329.622C380.626 330.516 380.181 331.336 379.484 331.904L377.438 333.608C376.736 334.169 375.841 334.431 374.947 334.335C374.053 334.239 373.233 333.794 372.666 333.097L370.961 331.051C370.4 330.349 370.138 329.453 370.234 328.56C370.33 327.666 370.775 326.846 371.472 326.278L373.518 324.574C374.22 324.012 375.116 323.751 376.01 323.847C376.903 323.943 377.723 324.388 378.291 325.085Z" fill="#F8AB5D"/>
<path d="M381.869 294.232L383.574 296.277C384.135 296.979 384.396 297.875 384.3 298.769C384.204 299.663 383.759 300.483 383.062 301.05L381.017 302.755C380.314 303.316 379.419 303.577 378.525 303.481C377.631 303.386 376.811 302.941 376.244 302.243L374.539 300.198C373.978 299.495 373.717 298.6 373.812 297.706C373.908 296.812 374.353 295.992 375.05 295.425L377.096 293.72C377.798 293.159 378.694 292.898 379.588 292.994C380.482 293.089 381.301 293.534 381.869 294.232Z" fill="#F8AB5D"/>
<path d="M402.324 359.178L404.029 361.223C404.59 361.925 404.851 362.821 404.755 363.715C404.66 364.609 404.215 365.429 403.517 365.996L401.472 367.701C400.769 368.262 399.874 368.523 398.98 368.427C398.086 368.332 397.266 367.887 396.699 367.189L394.994 365.144C394.433 364.441 394.172 363.546 394.267 362.652C394.363 361.758 394.808 360.938 395.506 360.371L397.551 358.666C397.893 358.375 398.291 358.157 398.72 358.024C399.149 357.892 399.601 357.848 400.047 357.896C400.494 357.944 400.926 358.082 401.318 358.302C401.709 358.523 402.051 358.821 402.324 359.178V359.178Z" fill="#F8AB5D"/>
<path d="M406.074 328.324L407.779 330.369C408.34 331.072 408.601 331.967 408.505 332.861C408.41 333.755 407.965 334.575 407.267 335.142L405.222 336.847C404.519 337.408 403.624 337.669 402.73 337.574C401.836 337.478 401.016 337.033 400.449 336.336L398.744 334.29C398.183 333.588 397.922 332.692 398.017 331.798C398.113 330.904 398.558 330.085 399.256 329.517L401.301 327.813C402.003 327.251 402.899 326.99 403.793 327.086C404.687 327.182 405.507 327.627 406.074 328.324V328.324Z" fill="#F8AB5D"/>
<path d="M409.652 297.641L411.357 299.687C411.918 300.389 412.179 301.285 412.083 302.178C411.988 303.072 411.543 303.892 410.845 304.46L408.8 306.164C408.097 306.726 407.202 306.987 406.308 306.891C405.414 306.795 404.594 306.35 404.027 305.653L402.322 303.607C401.761 302.905 401.5 302.01 401.596 301.116C401.691 300.222 402.136 299.402 402.834 298.834L404.879 297.13C405.213 296.821 405.609 296.588 406.041 296.445C406.472 296.302 406.93 296.253 407.382 296.302C407.834 296.35 408.27 296.495 408.662 296.726C409.053 296.957 409.391 297.269 409.652 297.641V297.641Z" fill="#F8AB5D"/>
<path d="M430.109 362.416L431.814 364.461C432.375 365.164 432.636 366.059 432.54 366.953C432.445 367.847 432 368.667 431.302 369.234L429.257 370.939C428.555 371.5 427.659 371.761 426.765 371.666C425.871 371.57 425.051 371.125 424.484 370.428L422.779 368.382C422.218 367.68 421.957 366.784 422.053 365.89C422.148 364.996 422.593 364.177 423.291 363.609L425.336 361.905C425.678 361.613 426.076 361.395 426.505 361.262C426.934 361.13 427.386 361.086 427.833 361.134C428.279 361.182 428.711 361.32 429.103 361.541C429.494 361.761 429.837 362.059 430.109 362.416Z" fill="#F8AB5D"/>
<path d="M433.689 331.563L435.394 333.609C435.955 334.311 436.216 335.207 436.12 336.1C436.025 336.994 435.58 337.814 434.882 338.382L432.837 340.086C432.135 340.647 431.239 340.909 430.345 340.813C429.451 340.717 428.631 340.272 428.064 339.575L426.359 337.529C425.798 336.827 425.537 335.931 425.633 335.038C425.728 334.144 426.173 333.324 426.871 332.756L428.916 331.052C429.619 330.49 430.514 330.229 431.408 330.325C432.302 330.421 433.122 330.866 433.689 331.563Z" fill="#F8AB5D"/>
<path d="M437.269 300.879L438.974 302.925C439.535 303.627 439.796 304.523 439.701 305.416C439.605 306.31 439.16 307.13 438.463 307.698L436.417 309.402C435.715 309.963 434.819 310.225 433.925 310.129C433.031 310.033 432.212 309.588 431.644 308.891L429.939 306.845C429.378 306.143 429.117 305.247 429.213 304.354C429.309 303.46 429.754 302.64 430.451 302.072L432.496 300.368C432.837 300.074 433.235 299.854 433.664 299.72C434.094 299.586 434.546 299.542 434.994 299.59C435.441 299.637 435.874 299.777 436.265 299.998C436.657 300.22 436.998 300.52 437.269 300.879V300.879Z" fill="#F8AB5D"/>
<path d="M457.896 365.655L459.601 367.701C460.162 368.403 460.423 369.299 460.328 370.193C460.232 371.087 459.787 371.906 459.09 372.474L457.044 374.178C456.342 374.74 455.446 375.001 454.552 374.905C453.658 374.809 452.838 374.364 452.271 373.667L450.566 371.622C450.005 370.919 449.744 370.024 449.84 369.13C449.935 368.236 450.38 367.416 451.078 366.849L453.123 365.144C453.826 364.583 454.721 364.322 455.615 364.417C456.509 364.513 457.329 364.958 457.896 365.655Z" fill="#F8AB5D"/>
<path d="M461.474 334.802L463.179 336.848C463.74 337.55 464.001 338.446 463.906 339.34C463.81 340.234 463.365 341.053 462.668 341.621L460.622 343.325C459.92 343.887 459.024 344.148 458.13 344.052C457.236 343.956 456.417 343.511 455.849 342.814L454.145 340.769C453.583 340.066 453.322 339.171 453.418 338.277C453.514 337.383 453.959 336.563 454.656 335.996L456.701 334.291C457.404 333.73 458.299 333.469 459.193 333.564C460.087 333.66 460.907 334.105 461.474 334.802Z" fill="#F8AB5D"/>
<path d="M465.053 304.119L466.757 306.164C467.318 306.866 467.58 307.762 467.484 308.656C467.388 309.55 466.943 310.37 466.246 310.937L464.2 312.642C463.498 313.203 462.602 313.464 461.709 313.368C460.815 313.272 459.995 312.828 459.427 312.13L457.723 310.085C457.161 309.382 456.9 308.487 456.996 307.593C457.092 306.699 457.537 305.879 458.234 305.312L460.28 303.607C460.622 303.316 461.019 303.097 461.449 302.965C461.878 302.832 462.329 302.789 462.776 302.837C463.223 302.885 463.655 303.023 464.046 303.243C464.438 303.464 464.78 303.761 465.053 304.119V304.119Z" fill="#F8AB5D"/>
<path d="M468.635 273.266L470.339 275.311C470.9 276.013 471.162 276.909 471.066 277.803C470.97 278.697 470.525 279.517 469.828 280.084L467.782 281.789C467.08 282.35 466.184 282.611 465.29 282.515C464.397 282.419 463.577 281.974 463.009 281.277L461.305 279.232C460.743 278.529 460.482 277.634 460.578 276.74C460.674 275.846 461.119 275.026 461.816 274.459L463.862 272.754C464.204 272.463 464.601 272.244 465.03 272.112C465.46 271.979 465.911 271.936 466.358 271.984C466.805 272.032 467.237 272.17 467.628 272.39C468.02 272.611 468.362 272.908 468.635 273.266V273.266Z" fill="#F8AB5D"/>
<path d="M485.508 368.895L487.212 370.94C487.773 371.643 488.035 372.538 487.939 373.432C487.843 374.326 487.398 375.146 486.701 375.713L484.655 377.418C483.953 377.979 483.057 378.24 482.164 378.144C481.27 378.049 480.45 377.604 479.882 376.906L478.178 374.861C477.616 374.159 477.355 373.263 477.451 372.369C477.547 371.475 477.992 370.655 478.689 370.088L480.735 368.383C481.076 368.09 481.473 367.869 481.903 367.735C482.332 367.602 482.785 367.557 483.232 367.605C483.679 367.653 484.112 367.792 484.503 368.014C484.895 368.236 485.237 368.536 485.508 368.895V368.895Z" fill="#F8AB5D"/>
<path d="M489.258 338.211L490.962 340.257C491.523 340.959 491.785 341.854 491.689 342.748C491.593 343.642 491.148 344.462 490.451 345.03L488.405 346.734C487.703 347.295 486.807 347.557 485.914 347.461C485.02 347.365 484.2 346.92 483.632 346.223L481.928 344.177C481.366 343.475 481.105 342.579 481.201 341.685C481.297 340.792 481.742 339.972 482.439 339.404L484.485 337.7C484.819 337.391 485.215 337.158 485.646 337.015C486.078 336.872 486.535 336.823 486.987 336.872C487.439 336.92 487.876 337.065 488.267 337.296C488.659 337.527 488.997 337.839 489.258 338.211V338.211Z" fill="#F8AB5D"/>
<path d="M492.84 307.358L494.544 309.403C495.106 310.105 495.367 311.001 495.271 311.895C495.175 312.789 494.73 313.609 494.033 314.176L491.987 315.881C491.285 316.442 490.39 316.703 489.496 316.607C488.602 316.512 487.782 316.067 487.214 315.369L485.51 313.324C484.949 312.621 484.687 311.726 484.783 310.832C484.879 309.938 485.324 309.118 486.021 308.551L488.067 306.846C488.769 306.285 489.665 306.024 490.558 306.12C491.452 306.215 492.272 306.66 492.84 307.358Z" fill="#F8AB5D"/>
<path d="M496.418 276.504L498.122 278.55C498.684 279.252 498.945 280.147 498.849 281.041C498.753 281.935 498.308 282.755 497.611 283.323L495.565 285.027C494.863 285.588 493.968 285.85 493.074 285.754C492.18 285.658 491.36 285.213 490.793 284.516L489.088 282.47C488.527 281.768 488.265 280.872 488.361 279.978C488.457 279.085 488.902 278.265 489.599 277.697L491.645 275.993C492.347 275.431 493.243 275.17 494.137 275.266C495.03 275.362 495.85 275.807 496.418 276.504Z" fill="#F8AB5D"/>
</g>
<path d="M500.34 317.924C513.054 331.597 523.629 347.114 531.705 363.948C531.705 363.948 532.557 304.969 533.75 300.878C545.997 303.351 558.693 302.347 570.399 297.98C570.399 297.98 575.343 343.493 582.672 378.097C590.002 412.7 598.184 464.35 573.297 471.168C548.41 477.987 525.738 462.304 495.567 421.905C465.395 381.506 467.952 361.391 467.952 351.164C467.782 339.061 484.146 308.037 500.34 317.924Z" fill="#6DAFA7"/>
<path d="M531.705 364.12C531.705 364.12 530.511 400.769 534.943 423.952" stroke="#22272E" stroke-width="3.0683" stroke-linecap="round" stroke-linejoin="round"/>
<path d="M532.73 316.9C532.73 316.9 554.549 323.719 571.937 312.639" stroke="#22272E" stroke-width="3.0683" stroke-linecap="round" stroke-linejoin="round"/>
<path d="M565.285 308.208C565.285 308.579 565.175 308.941 564.969 309.25C564.763 309.558 564.47 309.798 564.128 309.94C563.785 310.082 563.408 310.119 563.044 310.047C562.681 309.975 562.347 309.796 562.084 309.534C561.822 309.271 561.644 308.937 561.571 308.574C561.499 308.21 561.536 307.833 561.678 307.49C561.82 307.148 562.06 306.855 562.368 306.649C562.677 306.443 563.039 306.333 563.41 306.333C563.663 306.306 563.919 306.336 564.158 306.421C564.398 306.505 564.616 306.643 564.796 306.822C564.975 307.002 565.113 307.22 565.197 307.46C565.282 307.699 565.312 307.955 565.285 308.208V308.208Z" stroke="#22272E" stroke-width="3.0683" stroke-linecap="round" stroke-linejoin="round"/>
<path d="M569.037 298.661C569.037 298.661 567.333 286.558 575.515 282.638C583.697 278.717 591.197 280.592 599.55 274.456C607.903 268.319 622.051 248.886 621.539 244.625C621.028 240.363 617.96 242.239 612.335 246.841C609.901 249.111 607.144 251.007 604.152 252.466C604.152 252.466 607.562 240.875 606.027 232.352C604.493 223.829 598.698 222.806 597.334 223.658C595.97 224.511 597.334 228.09 596.993 234.909C596.652 241.727 594.607 247.352 588.64 251.614C589.393 247.604 588.979 243.463 587.447 239.682C584.72 233.204 580.117 228.943 576.538 229.965C572.958 230.988 574.151 233.715 575.856 237.466C577.56 241.216 580.288 248.034 573.129 255.194C571.71 256.773 569.776 257.796 567.672 258.078C565.569 258.361 563.433 257.885 561.648 256.736C559.863 255.588 558.546 253.841 557.932 251.809C557.318 249.777 557.448 247.593 558.298 245.648C562.219 236.102 568.185 233.886 571.253 231.329C574.322 228.772 573.469 224.17 566.992 225.192C560.514 226.215 549.434 234.056 542.957 242.75C536.479 251.443 534.604 263.205 534.434 274.797C534.263 286.388 533.752 301.218 533.752 301.218C533.752 301.218 538.013 306.502 547.389 306.502C556.764 306.502 569.037 302.923 569.037 298.661Z" fill="#F4C2C9"/>
<path d="M604.151 252.638C602.275 257.674 599.935 262.524 597.162 267.127" stroke="#E26E85" stroke-width="3.0683" stroke-linecap="round" stroke-linejoin="round"/>
<path d="M588.47 251.616C587.762 256.426 585.89 260.99 583.016 264.912" stroke="#E26E85" stroke-width="3.0683" stroke-linecap="round" stroke-linejoin="round"/>
<path d="M548.24 470.487C548.24 470.487 543.978 463.669 554.376 453.271C564.774 442.873 586.934 444.066 587.616 454.805" stroke="#22272E" stroke-width="3.0683" stroke-linecap="round" stroke-linejoin="round"/>
<path d="M382.722 277.527C382.722 277.527 373.176 277.015 367.21 289.97C361.244 302.925 362.948 329.517 369.426 333.608C375.903 337.699 393.29 320.142 393.29 320.142C393.29 320.142 407.95 339.915 418.519 339.063C429.087 338.211 442.383 319.289 441.531 298.493C440.679 277.697 432.156 275.311 427.553 274.799C423.121 273.947 382.722 277.527 382.722 277.527Z" fill="white"/>
<path d="M393.293 319.971C393.293 319.971 359.712 357.131 359.371 364.12C359.03 371.109 370.451 373.325 373.519 371.791C376.587 370.257 396.702 319.459 393.293 319.971Z" fill="white"/>
<path d="M392.953 324.573C392.953 324.573 398.749 365.825 402.499 372.302C406.249 378.78 418.181 369.064 416.817 363.438C415.454 357.813 399.26 324.914 393.294 320.141C387.328 315.368 392.953 324.573 392.953 324.573Z" fill="white"/>
<path d="M434.542 241.218C434.542 241.218 430.792 264.571 433.519 282.128C433.519 282.128 417.326 318.096 393.461 318.096C381.699 318.096 377.949 293.89 379.995 284.344L383.574 257.752C383.574 257.752 407.439 216.501 434.542 241.218Z" fill="#F4C2C9"/>
<path d="M414.938 265.936C404.71 272.072 393.46 275.14 381.528 272.754L380.164 282.811C393.119 280.254 406.245 276.504 414.938 265.936Z" fill="#E26E85"/>
<path d="M360.222 190.932C360.642 202.598 360.186 214.279 358.858 225.876C356.642 247.525 357.494 261.673 375.904 270.878C394.314 280.083 424.145 271.73 435.054 245.479C445.964 219.228 460.453 169.283 421.247 161.783C382.041 154.283 359.71 163.658 360.222 190.932Z" fill="#F4C2C9"/>
<path d="M387.495 173.715C387.495 173.715 394.995 198.943 411.7 205.421C428.405 211.898 425.848 227.581 434.201 225.706C442.553 223.83 449.031 217.012 454.656 223.66C460.281 230.308 460.793 171.84 431.985 161.783C403.177 151.725 372.664 151.214 363.63 160.419C354.596 169.624 357.834 199.114 357.834 199.114C357.834 199.114 376.244 194.852 387.495 173.715Z" fill="#22272E"/>
<path d="M436.079 225.876C436.079 225.876 439.999 216.16 448.352 217.864C456.704 219.569 456.022 245.99 434.715 244.627" fill="#F4C2C9"/>
<path d="M376.416 216.841C377.381 219.111 377.502 221.65 376.757 224.001C376.423 225.209 375.905 226.358 375.223 227.41L374.2 228.944C374.03 229.285 373.689 229.796 373.519 230.137C373.216 230.954 373.12 231.832 373.239 232.695C373.358 233.557 373.688 234.377 374.2 235.081C375.446 236.823 377.251 238.086 379.314 238.66C378.16 239.092 376.889 239.092 375.735 238.66C374.518 238.31 373.405 237.666 372.496 236.785C371.473 235.861 370.709 234.686 370.28 233.376C369.968 231.953 370.086 230.47 370.621 229.115C370.924 228.524 371.265 227.955 371.644 227.41C371.984 226.899 372.325 226.558 372.666 226.046C373.332 225.202 373.904 224.287 374.371 223.319C375.48 221.319 376.176 219.116 376.416 216.841Z" fill="#22272E"/>
<path d="M389.029 250.082C391.68 250.682 394.454 250.388 396.92 249.247C399.386 248.107 401.406 246.183 402.666 243.775" stroke="#22272E" stroke-width="3.0683" stroke-linecap="round" stroke-linejoin="round"/>
<path d="M399.939 216.841C399.939 216.841 400.621 220.591 407.099 221.273C408.652 221.473 410.231 221.227 411.65 220.563C413.068 219.899 414.269 218.844 415.11 217.523" stroke="#22272E" stroke-width="3.0683" stroke-linecap="round" stroke-linejoin="round"/>
<path d="M373.349 214.115C373.349 214.115 368.236 218.206 364.145 213.092" stroke="#22272E" stroke-width="3.0683" stroke-linecap="round" stroke-linejoin="round"/>
<path d="M378.121 197.92C378.462 195.704 375.905 191.954 372.495 190.931C369.086 189.909 363.632 194.682 364.143 196.727C364.654 198.773 368.064 195.704 371.132 196.045C373.859 196.386 377.78 199.795 378.121 197.92Z" fill="#22272E"/>
<path d="M418.861 201.669C419.202 199.453 416.645 195.703 413.236 194.68C409.827 193.657 404.372 198.43 404.883 200.476C405.395 202.521 408.804 199.453 411.872 199.794C414.94 200.135 418.691 203.544 418.861 201.669Z" fill="#22272E"/>
<path d="M447.67 225.875C446.214 226.181 444.933 227.036 444.09 228.261C443.88 228.806 443.765 229.382 443.749 229.966V232.352C443.76 233.342 443.587 234.324 443.238 235.25C443.065 235.786 442.777 236.277 442.394 236.689C442.011 237.101 441.543 237.425 441.022 237.637C440.106 237.982 439.125 238.115 438.15 238.026C437.176 237.938 436.235 237.63 435.396 237.125C436.92 236.861 438.372 236.28 439.658 235.421C440.072 234.965 440.379 234.422 440.556 233.832C440.733 233.242 440.776 232.62 440.681 232.011V229.284C440.777 228.187 441.26 227.159 442.044 226.386C442.872 225.855 443.815 225.532 444.795 225.443C445.774 225.354 446.76 225.502 447.67 225.875Z" fill="#22272E"/>
<path d="M361.417 230.821C369.796 230.821 376.588 223.418 376.588 214.286C376.588 205.154 369.796 197.751 361.417 197.751C353.038 197.751 346.246 205.154 346.246 214.286C346.246 223.418 353.038 230.821 361.417 230.821Z" stroke="#22272E" stroke-width="3.0683" stroke-linecap="round" stroke-linejoin="round"/>
<path d="M405.19 236.565C414.887 236.565 422.748 228.704 422.748 219.008C422.748 209.311 414.887 201.45 405.19 201.45C395.494 201.45 387.633 209.311 387.633 219.008C387.633 228.704 395.494 236.565 405.19 236.565Z" stroke="#22272E" stroke-width="3.0683" stroke-linecap="round" stroke-linejoin="round"/>
<path d="M376.586 215.648C376.586 215.648 379.313 212.75 387.836 216.33" stroke="#22272E" stroke-width="3.0683" stroke-linecap="round" stroke-linejoin="round"/>
<path d="M422.779 219.059L439.484 220.593" stroke="#22272E" stroke-width="3.0683" stroke-linecap="round" stroke-linejoin="round"/>
<path d="M443.58 240.535L437.784 250.592C437.617 250.889 437.53 251.224 437.533 251.565C437.536 251.905 437.629 252.239 437.802 252.532C437.974 252.826 438.221 253.069 438.517 253.237C438.813 253.405 439.148 253.492 439.488 253.49H451.08C451.42 253.492 451.755 253.405 452.051 253.237C452.347 253.069 452.594 252.826 452.767 252.532C452.939 252.239 453.032 251.905 453.035 251.565C453.038 251.224 452.952 250.889 452.784 250.592L446.989 240.535C446.8 240.257 446.545 240.03 446.248 239.873C445.951 239.716 445.62 239.634 445.284 239.634C444.948 239.634 444.617 239.716 444.32 239.873C444.023 240.03 443.769 240.257 443.58 240.535Z" fill="#FFE779"/>
</svg>
