<svg width="800" height="800" viewBox="0 0 800 800" fill="none" xmlns="http://www.w3.org/2000/svg">
<path d="M505.919 595.504L226.661 562.793C218.484 561.884 213.638 554.615 215.455 546.437L279.969 251.43C281.483 244.463 288.147 238.709 295.416 237.8L586.789 207.209C594.361 206.3 600.116 212.358 598.601 219.627L521.366 584.298C519.549 591.264 512.885 596.413 505.919 595.504Z" fill="#63737A"/>
<path d="M494.711 595.504L213.031 562.49C204.853 561.581 199.704 554.312 201.521 546.134L266.641 249.006C268.155 241.737 274.819 235.982 282.391 235.377L575.884 204.483C583.456 203.574 589.211 209.632 587.696 216.901L509.553 584.6C508.341 591.264 501.375 596.413 494.711 595.504Z" fill="#22272E"/>
<path d="M390.83 310.482L284.821 315.631C282.095 315.631 279.975 313.511 280.581 310.785L289.061 271.41C289.667 269.29 291.484 267.473 293.907 267.17L400.825 258.083C403.854 257.78 405.671 260.203 405.065 262.929L395.676 306.545C395.373 308.362 393.253 310.179 390.83 310.482Z" fill="#6DAFA7"/>
<path d="M250.59 531.279C248.167 530.977 246.653 528.856 247.259 526.736L263.008 452.833C263.614 450.41 265.734 448.592 268.157 448.895C270.58 449.198 272.095 451.016 271.489 453.439L255.739 527.645C255.436 529.765 253.013 531.582 250.59 531.279Z" fill="#F4C2C9"/>
<path d="M288.153 530.376L306.932 443.145C307.537 440.722 309.658 438.905 312.081 439.208H312.687C315.11 439.208 316.624 441.328 316.321 443.751L297.542 530.981C296.937 533.404 294.514 535.222 292.091 534.919H291.485C289.062 534.919 287.547 532.799 288.153 530.376Z" fill="#FFE779"/>
<path d="M329.035 533.704L350.237 434.056C350.843 431.33 353.266 429.513 355.992 429.513C358.718 429.513 360.535 431.936 359.929 434.662L338.727 534.31C338.122 537.036 335.396 538.853 332.67 538.853C330.247 538.853 328.43 536.43 329.035 533.704Z" fill="#6DAFA7"/>
<path d="M480.48 345.618L487.446 360.46C478.965 370.152 468.667 376.209 458.975 376.209C440.196 376.209 430.201 353.493 436.259 325.325C442.317 297.157 462.307 273.229 481.388 271.715C491.384 270.806 498.956 275.955 503.499 285.042L490.172 300.792C487.446 295.34 482.903 292.008 477.148 292.614C465.638 293.522 453.523 307.758 449.586 325.022C445.951 341.984 452.009 355.916 463.518 355.613C469.576 355.008 475.634 351.373 480.48 345.618Z" fill="#6DAFA7"/>
<path d="M506.522 321.986C503.191 336.827 496.224 350.457 487.744 360.149L480.777 345.308C485.926 339.553 490.167 331.375 491.984 322.592C493.801 313.808 493.196 305.933 490.47 300.481L503.796 284.731C508.34 294.121 509.551 307.145 506.522 321.986Z" fill="#FFE779"/>
<path d="M399.607 492.515C393.549 520.683 403.544 543.399 422.323 543.399C432.015 543.399 442.313 537.342 450.794 527.649L443.827 512.808C438.678 518.563 432.621 522.198 426.866 522.5C415.356 522.803 409.299 508.871 412.933 491.909C414.448 484.337 418.082 477.068 422.323 471.616L415.962 457.684C408.39 467.376 402.332 479.491 399.607 492.515Z" fill="#6DAFA7"/>
<path d="M440.493 459.803C446.247 459.5 451.094 462.529 453.517 467.981L466.843 452.231C462.3 443.144 454.425 437.995 444.733 438.904C434.435 439.813 424.137 447.082 415.656 457.683L422.017 471.615C427.469 464.952 433.829 460.106 440.493 459.803Z" fill="#FFE779"/>
<path d="M469.569 489.788C466.238 504.629 459.271 518.259 450.79 527.951L443.824 513.11C448.973 507.355 453.214 499.177 455.031 490.394C456.848 481.61 456.242 473.735 453.516 468.283L466.843 452.533C471.387 461.62 472.901 474.946 469.569 489.788Z" fill="#F4C2C9"/>
<path d="M276.941 341.982L351.45 339.256" stroke="#63737A" stroke-width="5.28054" stroke-miterlimit="10" stroke-linecap="round" stroke-linejoin="round"/>
<path d="M272.703 358.94L379.318 357.728" stroke="#63737A" stroke-width="5.28054" stroke-miterlimit="10" stroke-linecap="round" stroke-linejoin="round"/>
<path d="M269.371 376.51H377.197" stroke="#63737A" stroke-width="5.28054" stroke-miterlimit="10" stroke-linecap="round" stroke-linejoin="round"/>
<path d="M548.022 233.863C548.628 231.44 547.719 229.623 545.902 229.623C544.084 229.926 542.267 232.046 541.964 234.469C541.358 236.892 542.267 238.71 544.084 238.71C545.902 238.407 547.719 236.286 548.022 233.863Z" fill="#63737A"/>
<path d="M565.586 232.348C566.192 229.925 564.98 228.107 563.466 228.107C561.649 228.41 559.831 230.53 559.226 232.954C558.62 235.377 559.831 237.194 561.346 237.194C563.466 236.891 565.283 234.771 565.586 232.348Z" fill="#63737A"/>
<rect x="0.5" y="0.5" width="799" height="799" stroke="black"/>
</svg>
