<svg width="800" height="800" viewBox="0 0 800 800" fill="none" xmlns="http://www.w3.org/2000/svg">
<path d="M225.501 306.512C225.501 306.512 188.448 454.119 243.117 553.739C247.369 561.635 257.088 564.673 264.985 560.42L339.092 519.115L309.328 295.578L225.501 306.512Z" fill="#6DAFA7"/>
<path d="M241.902 309.546C241.902 309.546 206.67 455.939 291.712 562.848C296.571 568.922 305.683 570.744 312.972 566.492L405.91 510.608L329.373 287.071C328.765 287.679 254.05 291.323 241.902 309.546Z" fill="#FFE779"/>
<path d="M225.504 306.514L260.735 313.803L459.367 237.266L421.706 231.191L225.504 306.514Z" fill="#B8D8C7"/>
<path d="M459.364 237.266C459.364 237.266 462.401 334.456 579.029 407.955C589.355 414.637 589.355 429.216 579.029 435.29L393.154 545.236C388.294 548.273 382.22 548.273 377.36 545.843C258.91 483.278 260.732 313.195 260.732 313.195L459.364 237.266Z" fill="#6DAFA7"/>
<path d="M408.342 359.971C407.127 358.149 405.304 356.934 402.874 355.112C398.015 352.682 393.155 353.289 388.296 355.112C380.399 358.756 376.755 364.83 377.362 373.942C377.969 378.802 379.792 386.091 384.044 395.202C385.259 390.95 387.688 387.306 391.333 383.661C394.37 380.624 399.23 377.587 404.089 375.157C415.631 370.297 426.565 368.475 437.498 370.905C448.432 373.335 457.544 378.802 464.225 387.913C470.907 397.025 473.337 407.351 471.515 418.892C469.692 430.434 461.189 440.76 444.788 449.264C427.78 457.768 410.164 457.768 394.978 449.264C382.829 442.582 373.11 431.649 365.213 416.463C360.354 407.958 357.317 400.669 355.494 394.595C351.85 384.268 351.242 375.157 352.457 367.868C353.672 361.186 356.102 355.111 360.354 350.252C364.606 344.785 370.68 341.14 378.577 337.496C390.118 332.636 400.445 331.421 409.556 333.244C419.275 335.066 426.565 339.318 432.639 347.215C422.92 352.682 418.061 355.111 408.342 359.971ZM415.023 434.686C421.098 436.508 427.779 435.901 433.854 433.471C439.928 430.434 442.965 426.182 444.18 421.322C445.395 416.463 443.573 410.996 439.928 405.529C435.676 399.454 430.817 395.81 425.35 394.595C419.883 393.38 413.808 393.38 408.949 395.81C404.697 397.632 401.052 400.669 399.23 404.314C396.193 409.781 396.8 415.855 401.052 423.144C404.089 428.611 408.949 432.256 415.023 434.686Z" fill="#FFE779"/>
</svg>
