<svg width="800" height="800" viewBox="0 0 800 800" fill="none" xmlns="http://www.w3.org/2000/svg">
<path d="M435.316 356.09C435.316 375.819 419.406 391.092 400.314 391.092C381.222 391.092 365.312 375.182 365.312 356.09C365.312 336.362 381.222 321.089 400.314 321.089C419.406 321.089 435.316 336.362 435.316 356.09Z" fill="#22272E"/>
<path d="M435.317 478.92H365.313C349.404 478.92 336.676 466.192 336.676 450.282C336.676 415.28 365.313 386.643 400.315 386.643C435.317 386.643 463.954 415.28 463.954 450.282C463.954 466.192 451.226 478.92 435.317 478.92Z" fill="#22272E"/>
<path d="M222.121 400.001C222.121 498.005 301.67 578.191 400.311 578.191C458.859 578.191 511.043 549.553 543.499 506.278" stroke="#6DAFA7" stroke-width="11.4551" stroke-linecap="round" stroke-linejoin="round"/>
<path d="M562.596 527.284L563.869 470.009L513.594 497.374L562.596 527.284Z" fill="#6DAFA7"/>
<path d="M577.869 400.001C577.869 301.997 498.32 221.812 399.679 221.812C338.585 221.812 284.492 252.358 252.672 299.451" stroke="#6DAFA7" stroke-width="11.4551" stroke-linecap="round" stroke-linejoin="round"/>
<path d="M232.949 279.084L234.222 335.723L283.224 306.449L232.949 279.084Z" fill="#6DAFA7"/>
<rect x="0.5" y="0.5" width="799" height="799" stroke="black"/>
</svg>
