<svg width="800" height="800" viewBox="0 0 800 800" fill="none" xmlns="http://www.w3.org/2000/svg">
<path d="M220.372 502.064L192.51 532.559C188.148 536.908 188.148 544.755 192.51 549.981C194.497 552.041 197.095 553.407 199.918 553.877C202.742 554.346 205.642 553.895 208.189 552.588L241.279 532.559L220.372 502.064Z" fill="#22272E"/>
<path d="M474.707 576.102L482.541 617.037C483.418 623.141 479.934 630.11 473.892 631.864C470.997 632.792 467.858 632.589 465.107 631.296C462.356 630.003 460.197 627.716 459.065 624.896L441.643 590.051L474.707 576.102Z" fill="#22272E"/>
<path d="M381.508 611.81C486.373 611.81 571.383 526.8 571.383 421.935C571.383 317.07 486.373 232.06 381.508 232.06C276.643 232.06 191.633 317.07 191.633 421.935C191.633 526.8 276.643 611.81 381.508 611.81Z" fill="#6DAFA7"/>
<path d="M467.6 508.342C515.217 460.726 515.217 383.524 467.6 335.908C419.984 288.292 342.783 288.292 295.166 335.908C247.55 383.524 247.55 460.726 295.166 508.342C342.783 555.958 419.984 555.958 467.6 508.342Z" fill="#FFE779"/>
<path d="M415.485 465.492L381.506 421.937L399.805 360.973" stroke="#63737A" stroke-width="15.6798" stroke-linecap="round" stroke-linejoin="round"/>
<path d="M260.44 238.226C259.126 238.672 257.735 238.844 256.352 238.732C254.969 238.619 253.624 238.224 252.4 237.571C251.175 236.918 250.098 236.02 249.235 234.934C248.371 233.848 247.74 232.597 247.379 231.257C245.435 218.744 247.851 205.944 254.221 195.001C260.591 184.057 270.529 175.635 282.369 171.147C294.209 166.658 307.232 166.375 319.257 170.345C331.281 174.315 341.575 182.297 348.415 192.953C351.899 198.18 349.279 204.271 343.188 206.891L260.44 238.226Z" fill="#6DAFA7"/>
<path d="M581.838 332.23C582.717 333.319 583.813 334.211 585.057 334.851C586.301 335.49 587.664 335.863 589.06 335.944C590.457 336.025 591.854 335.814 593.164 335.323C594.474 334.833 595.666 334.074 596.665 333.095C614.087 313.931 615.83 285.191 599.273 263.42C582.716 241.648 554.877 235.544 532.192 246.875C526.965 249.482 525.223 256.451 528.707 260.8L581.838 332.23Z" fill="#6DAFA7"/>
<path d="M467.738 218.122L418.091 204.185C410.307 201.578 405.031 193.744 407.638 185.095C410.258 177.249 418.091 172.022 426.802 174.641L476.449 188.579C484.283 191.186 489.509 199.032 486.902 207.731C484.283 215.515 475.572 220.742 467.738 218.122Z" fill="#6DAFA7"/>
<path d="M427.188 196.653L413.578 243.498L449.542 253.947L463.152 207.102L427.188 196.653Z" fill="#6DAFA7"/>
</svg>
