<svg width="800" height="800" viewBox="0 0 800 800" fill="none" xmlns="http://www.w3.org/2000/svg">
<path d="M450.586 310.302C450.586 310.302 445.849 315.038 454.649 350.957C463.449 386.875 483.451 414.308 483.451 414.308C491.288 406.875 497.063 397.535 500.211 387.203C503.359 376.87 503.772 365.897 501.41 355.357C493.912 318.047 450.586 310.302 450.586 310.302Z" fill="#22272E"/>
<path d="M455.623 416C455.623 416 448.888 418.032 432.927 434.633C416.966 451.234 393.641 459.697 365.849 472.235C338.058 484.773 324.51 426.495 331.626 397.031C338.361 367.556 368.891 347.228 368.891 347.228L428.134 355.355C428.134 355.355 447.788 331.974 455.578 347.217C463.076 362.471 462.402 396.683 455.623 416Z" fill="#F4C2C9"/>
<path d="M404.812 524.071L202.895 570.484C200.801 570.975 198.631 571.047 196.509 570.698C194.387 570.348 192.354 569.583 190.528 568.447C188.702 567.31 187.119 565.824 185.868 564.074C184.618 562.324 183.725 560.345 183.241 558.249L125.997 310.301C125.503 308.21 125.428 306.042 125.774 303.922C126.12 301.801 126.881 299.77 128.013 297.944C129.146 296.119 130.627 294.534 132.373 293.282C134.118 292.03 136.094 291.134 138.186 290.647L340.103 244.234C342.194 243.742 344.361 243.668 346.481 244.016C348.601 244.364 350.631 245.126 352.456 246.259C354.28 247.393 355.863 248.875 357.114 250.621C358.365 252.367 359.26 254.343 359.746 256.435L416.665 504.372C417.232 506.445 417.372 508.611 417.078 510.74C416.783 512.868 416.06 514.915 414.952 516.757C413.844 518.598 412.374 520.195 410.632 521.452C408.889 522.71 406.909 523.6 404.812 524.071Z" fill="#22272E"/>
<path d="M319.776 315.373L188.326 345.534C187.302 345.772 186.24 345.802 185.203 345.623C184.167 345.443 183.177 345.057 182.292 344.487C181.408 343.918 180.646 343.177 180.054 342.308C179.461 341.438 179.049 340.459 178.842 339.428C178.603 338.404 178.572 337.342 178.751 336.306C178.93 335.27 179.315 334.281 179.884 333.396C180.452 332.512 181.192 331.751 182.06 331.157C182.928 330.564 183.906 330.151 184.937 329.943L316.386 299.794C317.41 299.555 318.471 299.525 319.507 299.704C320.543 299.883 321.533 300.268 322.417 300.836C323.302 301.404 324.063 302.144 324.656 303.012C325.25 303.88 325.663 304.858 325.871 305.889C326.175 307.94 325.725 310.031 324.604 311.776C323.483 313.52 321.768 314.798 319.776 315.373Z" fill="#FFE779"/>
<path d="M187.988 380.42L335.017 346.545" stroke="#63737A" stroke-width="6.09488" stroke-linecap="round" stroke-linejoin="round"/>
<path d="M193.748 405.159L340.777 371.272" stroke="#63737A" stroke-width="6.09488" stroke-linecap="round" stroke-linejoin="round"/>
<path d="M281.49 502.721L227.287 515.259C226.264 515.498 225.202 515.528 224.166 515.349C223.13 515.17 222.141 514.785 221.256 514.217C220.372 513.649 219.611 512.909 219.017 512.041C218.424 511.173 218.011 510.195 217.803 509.164L205.265 454.984C205.027 453.959 204.996 452.897 205.176 451.86C205.356 450.824 205.742 449.834 206.311 448.949C206.881 448.065 207.622 447.304 208.491 446.711C209.36 446.118 210.34 445.706 211.371 445.499L265.574 432.973C266.598 432.734 267.659 432.703 268.695 432.882C269.731 433.061 270.721 433.446 271.605 434.015C272.49 434.583 273.251 435.323 273.844 436.191C274.437 437.059 274.85 438.037 275.059 439.068L287.596 493.27C287.887 495.317 287.429 497.399 286.307 499.135C285.186 500.872 283.475 502.145 281.49 502.721Z" fill="#FFE779"/>
<path d="M295.047 425.823L350.26 412.948" stroke="#63737A" stroke-width="6.09488" stroke-linecap="round" stroke-linejoin="round"/>
<path d="M301.143 452.583L356.704 440.045" stroke="#63737A" stroke-width="6.09488" stroke-linecap="round" stroke-linejoin="round"/>
<path d="M307.238 479.688L340.777 471.898" stroke="#63737A" stroke-width="6.09488" stroke-linecap="round" stroke-linejoin="round"/>
<path d="M277.087 266.594L205.261 283.251C204.092 283.495 202.881 283.443 201.737 283.1C200.593 282.757 199.553 282.133 198.712 281.285C197.871 280.437 197.255 279.392 196.921 278.246C196.587 277.099 196.544 275.887 196.798 274.72L197.472 271.353C197.787 270.037 198.46 268.834 199.417 267.877C200.374 266.92 201.577 266.247 202.893 265.932L271.665 249.993C272.954 249.677 274.306 249.731 275.565 250.15C276.824 250.569 277.939 251.336 278.782 252.361L280.813 255.078C284.203 259.478 282.216 265.584 277.087 266.594Z" fill="#6DAFA7"/>
<path d="M432.93 334.692C432.93 334.692 424.455 339.092 408.236 334.692C392.017 330.292 389.267 326.217 372.318 321.817C355.369 317.417 331.999 322.154 327.936 329.27C323.873 336.386 334.671 340.786 349.263 342.481C363.854 344.176 370.589 371.957 393.981 382.452C432.93 399.737 467.479 346.881 432.93 334.692Z" fill="#F4C2C9"/>
<path d="M327.903 329.271C323.84 336.387 334.638 340.787 349.229 342.482C363.821 344.177 370.556 371.957 393.948 382.452C401.139 385.79 409.209 386.741 416.98 385.168" stroke="#E26E85" stroke-width="6.09488" stroke-linecap="round" stroke-linejoin="round"/>
<path d="M458.677 319.101C458.677 319.101 440.718 330.628 432.928 334.691C432.928 334.691 448.171 349.597 454.254 376.357C460.338 403.116 455.612 416.001 455.612 416.001C455.612 416.001 475.603 413.958 485.425 406.853C485.425 406.853 494.909 391.263 487.119 360.777C479.33 330.291 458.677 319.101 458.677 319.101Z" fill="white"/>
<path d="M671.425 277.772C668.323 267.407 662.801 257.927 655.314 250.115C647.828 242.304 638.591 236.384 628.367 232.844C618.143 229.304 607.223 228.245 596.509 229.755C585.795 231.265 575.594 235.3 566.746 241.529C544.387 257.108 521.006 272.351 502.374 282.52L450.584 310.638C450.584 310.638 480.059 339.765 484.471 371.957C488.882 404.149 483.449 414.61 483.449 414.61C483.449 414.61 564.422 394.619 635.9 359.722C666.049 344.479 681.291 309.919 671.47 277.784L671.425 277.772Z" fill="#6DAFA7"/>
<path d="M476.625 389.883C476.622 389.08 476.382 388.295 475.934 387.629C475.486 386.962 474.851 386.443 474.108 386.137C473.366 385.831 472.549 385.752 471.762 385.911C470.974 386.069 470.251 386.456 469.684 387.025C469.117 387.594 468.731 388.318 468.575 389.106C468.419 389.894 468.501 390.71 468.808 391.452C469.116 392.194 469.637 392.828 470.305 393.274C470.973 393.72 471.758 393.958 472.561 393.958C473.101 393.978 473.64 393.887 474.143 393.689C474.646 393.491 475.103 393.192 475.484 392.809C475.866 392.427 476.164 391.969 476.36 391.465C476.557 390.962 476.647 390.423 476.625 389.883Z" fill="#22272E"/>
<rect x="0.5" y="0.5" width="799" height="799" stroke="black"/>
</svg>
