<svg width="800" height="800" viewBox="0 0 800 800" fill="none" xmlns="http://www.w3.org/2000/svg">
<path d="M505.419 450.07H273.212C269.428 450.07 266.275 446.917 266.275 443.134C266.275 439.351 269.428 436.198 273.212 436.198H505.419C509.203 436.198 512.356 439.351 512.356 443.134C512.356 446.917 509.203 450.07 505.419 450.07Z" fill="#22272E"/>
<path d="M302.848 450.07H285.823L284.246 470.248H300.799L302.848 450.07Z" fill="#6DAFA7"/>
<path d="M284.248 470.248L265.961 713.176C265.803 716.171 268.01 718.693 271.006 718.693C273.686 718.693 275.893 716.644 276.05 714.121L300.8 470.406H284.248V470.248Z" fill="#B8D8C7"/>
<path d="M475.783 450.07H492.966L494.385 470.248H477.833L475.783 450.07Z" fill="#6DAFA7"/>
<path d="M494.385 470.248L512.829 713.176C512.987 716.171 510.78 718.693 507.785 718.693C505.105 718.693 502.898 716.644 502.74 714.121L477.99 470.406H494.385V470.248Z" fill="#B8D8C7"/>
<path d="M411.148 135.416C411.148 135.416 410.675 146.293 412.567 155.909C413.197 158.904 411.463 162.057 408.626 163.161C406.734 163.791 404.527 164.107 402.478 162.846C397.433 159.693 405.315 126.115 411.148 135.416Z" fill="#22272E"/>
<path d="M340.053 147.869C340.053 147.869 340.21 158.904 341.156 165.998C341.629 169.782 345.413 172.462 349.196 171.516C349.669 171.358 349.984 171.201 350.3 171.043C353.137 169.151 351.088 143.298 351.088 143.298C351.088 143.298 340.683 143.455 340.053 147.869Z" fill="#22272E"/>
<path d="M333.273 124.538C333.273 124.538 333.43 139.356 325.706 155.594C324.918 157.328 325.391 159.377 326.809 160.638C326.809 160.638 326.809 160.638 326.967 160.638C329.016 162.372 332.169 161.742 333.43 159.219C336.583 152.914 342.574 139.041 342.101 124.38C341.628 104.675 333.273 124.538 333.273 124.538Z" fill="#22272E"/>
<path d="M399.801 714.123C399.958 716.488 395.86 720.901 387.662 720.901C379.465 720.901 383.563 720.901 354.872 720.901C326.181 720.901 315.935 719.483 317.038 710.655C318.142 701.827 316.25 695.206 316.25 695.206C316.25 695.206 312.782 693.472 312.151 692.053C311.521 690.634 312.151 689.058 314.831 675.658C314.989 674.87 315.146 673.924 315.304 672.978C317.669 659.106 319.718 636.72 319.718 636.72C325.866 633.725 369.218 641.922 369.218 641.922C369.218 641.922 365.277 658.633 367.326 666.672C367.484 667.145 367.484 667.461 367.641 667.776C370.164 675.5 399.643 711.916 399.801 714.123Z" fill="#B28D93"/>
<path d="M366.694 661.627C366.536 653.115 369.216 641.922 369.216 641.922C369.216 641.922 325.864 633.725 319.716 636.72C319.716 636.72 319.243 641.764 318.455 648.701C331.697 660.997 349.668 663.992 366.694 661.627Z" fill="#896068"/>
<path d="M383.72 691.895C373.788 687.008 355.028 686.535 339.264 690.791C335.796 691.737 332.17 689.688 331.382 686.22C330.279 682.121 328.86 677.865 328.229 672.82C327.599 667.618 321.135 668.564 316.721 663.677C316.091 667.933 315.46 672.189 314.83 675.5C312.15 688.9 311.677 690.476 312.15 691.895C312.78 693.314 316.248 695.048 316.248 695.048C316.248 695.048 317.982 701.826 317.037 710.497C315.933 719.325 326.18 720.743 354.871 720.743C383.562 720.743 379.463 720.743 387.661 720.743C395.858 720.743 399.957 716.329 399.799 713.965C399.641 713.019 391.759 702.615 383.72 691.895Z" fill="#22272E"/>
<path d="M472.473 636.72C472.473 636.72 472.157 662.101 470.423 675.658C468.847 689.058 468.374 690.634 469.005 692.053C469.635 693.472 473.419 695.206 473.419 695.206C473.419 695.206 475.783 701.984 475.31 710.655C474.837 719.483 485.242 720.902 513.933 720.902C542.624 720.902 538.525 720.902 546.723 720.902C554.92 720.902 558.703 716.488 558.388 714.123C558.073 711.758 525.756 675.5 522.603 667.776C519.45 660.209 522.288 641.765 522.288 641.765C522.288 641.765 478.463 633.725 472.473 636.72Z" fill="#B28D93"/>
<path d="M521.185 655.006C521.342 648.228 522.288 641.922 522.288 641.922C522.288 641.922 478.306 633.725 472.473 636.72C472.473 636.72 472.315 644.76 472 654.061C486.503 664.15 504.79 660.524 521.185 655.006Z" fill="#896068"/>
<path d="M538.998 689.846C522.13 686.693 503.686 694.575 488.395 687.639C484.769 686.693 483.192 679.126 480.67 674.397C478.621 670.456 475.783 669.195 471.212 666.988C471.054 670.141 470.739 673.136 470.423 675.658C468.847 689.058 468.374 690.634 469.005 692.053C469.635 693.472 473.419 695.206 473.419 695.206C473.419 695.206 475.783 701.985 475.31 710.655C474.837 719.483 485.242 720.902 513.933 720.902C542.624 720.902 538.525 720.902 546.723 720.902C554.92 720.902 558.703 716.488 558.388 714.123C558.23 712.862 548.457 701.354 538.998 689.846Z" fill="#22272E"/>
<path d="M296.859 337.514C296.859 337.514 283.932 350.756 283.774 381.338C283.617 417.754 306.79 443.923 344.782 443.923C382.774 443.923 458.285 442.819 485.242 443.923C512.199 445.026 508.573 385.595 488.71 367.308C468.847 349.179 314.988 315.286 296.859 337.514Z" fill="#22272E"/>
<path d="M333.747 429.42C337.531 417.597 350.93 398.68 375.365 403.567C401.849 408.769 414.776 417.754 402.322 494.842C391.444 561.682 372.054 637.824 369.059 649.016C368.744 649.962 368.113 650.751 367.168 651.066C364.33 652.012 357.867 654.061 347.935 654.061C336.269 654.061 323.5 649.805 318.456 645.391C317.352 644.445 316.722 642.868 316.879 641.45C318.141 622.533 327.599 477.343 328.387 466.466C329.964 450.859 331.067 437.775 333.747 429.42Z" fill="#22272E"/>
<path d="M510.305 403.566C537.42 404.67 551.765 422.326 544.198 494.841C537.42 559.79 525.281 634.04 523.074 648.07C522.759 649.647 521.813 650.908 520.237 651.381C517.084 652.484 511.093 653.903 502.265 653.903C491.23 653.903 478.777 650.12 472.944 645.863C471.21 644.602 470.264 642.553 470.422 640.503C470.894 623.636 472.786 534.41 466.48 466.623C462.382 423.429 484.925 402.463 510.305 403.566Z" fill="#22272E"/>
<path d="M378.832 447.864C390.934 447.864 400.745 439.676 400.745 429.577C400.745 419.478 390.934 411.291 378.832 411.291C366.73 411.291 356.92 419.478 356.92 429.577C356.92 439.676 366.73 447.864 378.832 447.864Z" stroke="#63737A" stroke-width="2.83757" stroke-miterlimit="10" stroke-linecap="round" stroke-linejoin="round"/>
<path d="M512.828 447.864C524.93 447.864 534.741 439.676 534.741 429.577C534.741 419.478 524.93 411.291 512.828 411.291C500.726 411.291 490.916 419.478 490.916 429.577C490.916 439.676 500.726 447.864 512.828 447.864Z" stroke="#63737A" stroke-width="2.83757" stroke-miterlimit="10" stroke-linecap="round" stroke-linejoin="round"/>
<path d="M480.668 267.836C479.722 265.314 479.092 263.737 479.092 263.737L428.488 274.299L429.434 299.365C448.824 294.005 466.48 282.339 480.668 267.836Z" fill="#896068"/>
<path d="M494.069 307.72C491.389 296.212 483.979 276.349 480.669 267.836C466.481 282.497 448.825 294.005 429.277 299.207L430.066 323.326L452.451 393.32L478.935 378.186C498.798 334.834 497.537 322.538 494.069 307.72Z" fill="#B28D93"/>
<path d="M251.774 273.827C249.41 272.881 248.306 270.201 249.252 267.836C254.139 253.964 271.007 208.72 285.194 192.956C302.22 174.196 355.976 173.093 378.834 173.093C401.692 173.093 433.852 177.191 446.621 188.226C457.656 197.685 475.942 244.663 480.987 257.905C481.775 259.954 480.987 262.319 479.253 263.58C472.947 267.836 457.971 277.452 443.783 282.655L450.562 378.186C450.562 378.186 303.323 375.979 297.491 373.142C291.658 370.146 284.091 335.78 285.194 332.154C286.298 328.686 296.86 288.33 296.86 288.33C296.86 288.33 267.223 280.605 251.774 273.827Z" fill="#FFE779"/>
<path d="M296.857 288.329C296.857 288.329 302.69 289.906 305.055 290.379C305.055 290.379 317.982 253.805 319.716 243.559C321.45 233.312 321.45 225.745 319.716 222.277" stroke="#F8AB5D" stroke-width="2.83757" stroke-miterlimit="10" stroke-linecap="round" stroke-linejoin="round"/>
<path d="M443.78 282.654C443.78 282.654 442.361 239.775 441.731 230.947C441.1 222.119 440.785 214.552 437.947 208.719" stroke="#F8AB5D" stroke-width="2.83757" stroke-miterlimit="10" stroke-linecap="round" stroke-linejoin="round"/>
<path d="M296.856 288.33C296.856 288.33 265.327 279.817 252.4 274.142C252.4 274.142 251.927 275.403 251.297 277.453C264.381 287.069 278.569 295.739 293.86 299.365L296.856 288.33Z" fill="#896068"/>
<path d="M371.737 367.309C367.008 366.837 350.928 370.778 350.928 370.778C335.164 354.698 289.763 315.287 289.763 315.287L294.019 299.208C278.728 295.582 264.54 286.912 251.456 277.295C248.303 286.754 239.632 314.814 241.997 329.16C244.992 346.658 293.704 377.872 332.326 397.735C332.326 397.735 337.529 403.41 350.455 407.351C354.712 408.612 360.544 410.661 362.909 410.977C365.274 411.292 371.422 410.661 375.205 410.977C378.989 411.292 380.723 407.981 384.821 408.454C388.92 408.927 390.024 406.247 393.019 407.981C396.014 409.715 398.221 406.247 398.221 402.779C398.063 399.469 376.466 367.94 371.737 367.309Z" fill="#B28D93"/>
<path d="M289.762 315.444C289.762 315.444 278.411 311.03 269.426 315.444" stroke="#896068" stroke-width="2.83757" stroke-miterlimit="10" stroke-linecap="round" stroke-linejoin="round"/>
<path d="M405.158 185.231C405.789 200.365 392.704 212.346 376.152 211.873C359.599 211.4 345.569 198.631 345.096 183.497C344.466 168.363 358.811 163.634 375.521 164.107C392.074 164.58 404.685 170.097 405.158 185.231Z" fill="white"/>
<path d="M352.823 145.82C352.823 145.82 353.138 177.191 352.823 183.024C352.508 188.857 359.286 203.202 378.992 203.202C398.697 203.202 399.643 183.97 399.328 183.024C399.012 182.078 398.224 152.441 397.278 150.55C396.648 148.658 358.498 138.253 352.823 145.82Z" fill="#B28D93"/>
<path d="M364.172 170.885C373.473 181.447 386.399 185.388 399.326 184.758C399.484 183.812 399.326 183.181 399.326 183.024C399.326 182.708 399.169 180.344 399.011 176.876C387.345 180.501 375.837 174.196 364.172 170.885Z" fill="#896068"/>
<path d="M406.262 147.87C406.262 147.87 413.829 136.992 415.72 120.44C417.927 102.153 409.257 89.3843 397.434 83.7091C389.236 79.7681 359.757 72.9894 341.471 90.8031C329.963 101.996 328.386 138.411 346.357 147.082C369.373 158.117 349.826 160.481 350.771 161.427C350.771 161.427 351.244 164.107 357.865 157.013C364.486 149.761 406.262 147.87 406.262 147.87Z" fill="#22272E"/>
<path d="M411.147 125.326C411.147 125.326 409.886 146.135 408.94 158.589C407.994 171.042 401.689 183.812 380.407 184.442C359.125 185.073 349.036 168.835 346.671 156.697C343.203 138.253 337.213 102.626 366.692 98.5268C396.171 94.4281 411.147 103.729 411.147 125.326Z" fill="#B28D93"/>
<path d="M411.15 112.558C411.15 112.558 392.863 133.682 365.275 116.972C355.186 110.824 352.822 119.967 352.822 123.593C352.822 128.638 355.186 138.569 347.304 142.668C344.151 144.244 339.264 134.47 341.944 112.558C344.624 90.6458 386.084 92.3799 399.799 93.9563C413.514 95.5327 413.357 102.784 411.15 112.558Z" fill="#22272E"/>
<path d="M350.458 140.461C350.458 140.461 347.305 127.376 338.635 130.056C329.807 132.736 333.748 154.018 347.936 156.698" fill="#B28D93"/>
<path d="M381.672 169.308C378.204 169.151 374.105 168.205 370.795 164.579" stroke="#22272E" stroke-width="2.83757" stroke-miterlimit="10" stroke-linecap="round" stroke-linejoin="round"/>
<path d="M399.011 145.662C400.588 145.662 401.849 144.401 401.849 142.825V141.248C401.849 139.672 400.588 138.411 399.011 138.411C397.435 138.411 396.174 139.672 396.174 141.248V142.825C396.331 144.401 397.435 145.662 399.011 145.662Z" fill="#22272E"/>
<path d="M371.423 145.662C373 145.662 374.261 144.401 374.261 142.825V141.248C374.261 139.672 373 138.411 371.423 138.411C369.847 138.411 368.586 139.672 368.586 141.248V142.825C368.586 144.401 369.847 145.662 371.423 145.662Z" fill="#22272E"/>
<path d="M404.688 131.159C404.531 129.268 402.639 126.745 399.013 126.903C394.126 127.061 393.338 129.898 393.969 131.79C394.442 133.366 396.649 131.632 399.171 131.317C402.008 131.159 404.846 132.736 404.688 131.159Z" fill="#22272E"/>
<path d="M384.666 162.688C387.031 162.688 389.08 161.584 390.026 160.008C390.499 159.219 390.972 158.274 391.129 157.17C391.445 156.224 391.445 155.121 391.602 154.017C391.76 151.81 391.445 149.761 391.287 147.396C391.129 145.032 390.814 142.667 391.287 140.302C392.075 142.509 392.863 144.716 393.494 146.923C393.809 148.027 394.125 149.288 394.282 150.391C394.44 151.653 394.597 152.914 394.44 154.017C394.282 156.539 393.652 159.219 391.76 161.111C390.814 162.057 389.553 162.845 388.292 163.003C387.031 163.318 385.77 163.16 384.666 162.688Z" fill="#22272E"/>
<path d="M364.174 131.159C364.332 129.268 366.381 126.745 370.164 126.903C375.524 127.218 376.312 129.898 375.682 131.79C375.051 133.366 372.844 131.632 370.164 131.317C367.011 131.159 364.016 132.736 364.174 131.159Z" fill="#22272E"/>
<path d="M338.793 138.884C338.951 138.254 339.266 137.466 339.896 136.993C340.212 136.677 340.842 136.677 341.315 136.835C341.631 136.835 341.788 136.993 341.946 137.15C342.103 137.308 342.419 137.466 342.419 137.623C343.049 138.254 343.365 138.884 343.68 139.515C343.995 140.146 344.153 140.934 344.31 141.564C344.626 142.983 344.468 144.244 344.31 145.348C344.31 145.821 344.153 146.294 344.31 146.767C344.468 147.239 344.941 147.555 345.414 148.028C344.783 148.185 343.995 148.185 343.207 147.712C342.576 147.239 342.103 146.294 341.946 145.663C341.631 144.244 341.473 143.141 341.315 142.037C341.158 141.564 341.158 140.934 341 140.461C340.842 139.988 340.685 139.515 340.527 139.042C340.369 138.727 340.369 138.411 339.896 138.411C340.054 138.254 339.424 138.569 338.793 138.884Z" fill="#22272E"/>
<path d="M368.741 156.54C376.142 156.54 382.141 150.541 382.141 143.14C382.141 135.74 376.142 129.741 368.741 129.741C361.341 129.741 355.342 135.74 355.342 143.14C355.342 150.541 361.341 156.54 368.741 156.54Z" stroke="white" stroke-width="2.83757" stroke-miterlimit="10" stroke-linecap="round" stroke-linejoin="round"/>
<path d="M404.844 156.54C411.547 156.54 416.982 150.541 416.982 143.14C416.982 135.74 411.547 129.741 404.844 129.741C398.14 129.741 392.705 135.74 392.705 143.14C392.705 150.541 398.14 156.54 404.844 156.54Z" stroke="white" stroke-width="2.83757" stroke-miterlimit="10" stroke-linecap="round" stroke-linejoin="round"/>
<path d="M356.131 138.569H353.924C352.978 138.569 352.033 138.254 351.244 137.623L348.564 135.417" stroke="white" stroke-width="2.83757" stroke-miterlimit="10" stroke-linecap="round" stroke-linejoin="round"/>
<path d="M381.828 140.302C381.828 140.302 389.237 137.622 392.705 140.302" stroke="white" stroke-width="2.83757" stroke-miterlimit="10" stroke-linecap="round" stroke-linejoin="round"/>
<path d="M515.034 417.754H363.697C359.283 417.754 355.973 413.497 357.234 409.241L368.584 367.466L380.092 324.902C381.353 320.173 385.609 316.862 390.496 316.862H494.383H541.833C546.247 316.862 549.558 321.119 548.297 325.375L525.439 409.714C524.177 414.443 519.921 417.754 515.034 417.754Z" fill="#22272E"/>
<path d="M548.297 325.533L525.439 409.714C524.178 414.443 519.921 417.754 515.034 417.754H363.697" stroke="#63737A" stroke-width="2.83757" stroke-miterlimit="10" stroke-linecap="round" stroke-linejoin="round"/>
<path d="M464.871 375.943C470.103 371.347 471.458 364.334 467.896 360.278C464.334 356.223 457.204 356.661 451.971 361.257C446.738 365.854 445.384 372.867 448.946 376.923C452.508 380.978 459.638 380.54 464.871 375.943Z" fill="#63737A"/>
<path d="M333.273 110.666C333.273 110.666 331.066 123.12 321.765 133.682C320.031 135.731 320.189 138.727 322.396 140.303C324.445 141.879 327.283 141.564 328.859 139.515C332.485 134.943 338.791 126.273 342.417 116.972C345.569 108.775 334.061 107.671 333.273 110.666Z" fill="#22272E"/>
<rect x="0.5" y="0.5" width="799" height="799" stroke="black"/>
</svg>
