<svg width="800" height="800" viewBox="0 0 800 800" fill="none" xmlns="http://www.w3.org/2000/svg">
<path d="M608.308 557.938L579.42 293.354C578.436 285.476 572.198 278.911 564.32 277.926L189.767 229.014C181.232 228.029 174.01 235.251 174.994 243.786L211.76 559.251C212.745 568.115 220.295 574.68 229.159 574.68L594.849 572.71C603.056 572.71 609.293 565.817 608.308 557.938Z" fill="#63737A"/>
<path d="M625.05 556.631L596.162 290.077C595.178 281.871 588.94 275.634 581.062 274.649L203.882 225.409C195.347 224.424 187.797 231.646 188.782 240.181L225.876 557.944C226.861 566.807 234.411 573.372 243.275 573.372L611.919 571.403C619.798 571.403 625.706 564.509 625.05 556.631Z" fill="#22272E"/>
<path d="M577.449 530.371H277.412L276.428 520.523L339.783 431.234C347.334 420.401 361.449 416.134 373.923 421.386L402.811 433.204C415.942 438.456 430.714 433.532 437.935 421.715L450.738 400.705C457.96 388.888 472.404 383.964 485.206 388.888C488.489 390.201 492.1 390.857 495.382 390.857C504.245 390.857 512.452 386.918 518.033 379.696L557.425 328.158L577.449 530.371Z" fill="#FFE779"/>
<path d="M276.43 520.516L253.779 324.212" stroke="#6DAFA7" stroke-width="8.515" stroke-miterlimit="10" stroke-linecap="round" stroke-linejoin="round"/>
<path d="M275.443 511.659L326.981 377.069C332.234 362.954 347.991 356.06 362.106 361.641L388.696 372.145C399.529 376.413 412.003 373.13 419.553 364.267L437.279 342.601C447.127 330.784 464.526 329.142 476.015 339.647C484.878 347.854 498.337 348.838 508.513 342.273L556.441 311.744" stroke="#6DAFA7" stroke-width="8.515" stroke-miterlimit="10" stroke-linecap="round" stroke-linejoin="round"/>
<path d="M251.482 298.28L249.512 282.523C249.184 280.226 251.154 277.928 253.78 278.256L325.014 285.806C327.312 286.134 328.953 287.776 329.281 289.745L331.579 304.189C331.908 306.159 330.266 307.8 328.297 307.472L255.749 302.22C253.452 302.548 251.81 300.578 251.482 298.28Z" fill="#6DAFA7"/>
<rect x="0.5" y="0.5" width="799" height="799" stroke="black"/>
</svg>
