<svg width="800" height="800" viewBox="0 0 800 800" fill="none" xmlns="http://www.w3.org/2000/svg">
<path d="M140.905 308.921L138.02 534.137C138.02 536.561 139.982 538.523 142.291 538.523C144.599 538.523 146.562 536.676 146.562 534.367L156.143 308.921H140.905V308.921Z" fill="#B8D8C7"/>
<path d="M659.097 308.92L661.983 534.136C661.983 536.56 660.02 538.522 657.712 538.522C655.403 538.522 653.441 536.675 653.441 534.367L643.859 308.92H659.097V308.92Z" fill="#B8D8C7"/>
<path d="M156.252 308.921H140.899L140.668 326.121H155.559L156.252 308.921Z" fill="#6DAFA7"/>
<path d="M659.091 308.92H643.738L644.431 326.12H659.322L659.091 308.92Z" fill="#6DAFA7"/>
<path d="M206.475 304.764L204.281 472.954C204.281 474.801 205.667 476.186 207.513 476.186C209.245 476.186 210.63 474.801 210.746 473.07L217.903 304.648H206.475V304.764Z" fill="#B8D8C7"/>
<path d="M593.416 304.764L595.61 472.954C595.61 474.801 594.225 476.186 592.378 476.186C590.646 476.186 589.261 474.801 589.145 473.07L581.988 304.648H593.416V304.764Z" fill="#B8D8C7"/>
<path d="M691.187 304.303H108.812L179.228 261.477H620.771L691.187 304.303Z" fill="white"/>
<path d="M691.187 304.302H108.812V313.537H691.187V304.302Z" fill="#B8D8C7"/>
</svg>
