<svg width="800" height="800" viewBox="0 0 800 800" fill="none" xmlns="http://www.w3.org/2000/svg">
<path d="M293.215 183.785H265.619L262.672 218.079H289.196L293.215 183.785Z" fill="#6DAFA7"/>
<path d="M262.671 218.082L227.573 617.285C227.305 621.839 230.788 625.858 235.343 625.858C239.362 625.858 242.577 622.911 243.113 618.892L289.195 218.082H262.671Z" fill="#B8D8C7"/>
<path d="M534.342 183.785H506.746L510.765 218.079H537.289L534.342 183.785Z" fill="#B8D8C7"/>
<path d="M510.77 218.082L556.852 618.892C557.388 622.911 560.603 625.858 564.622 625.858C569.176 625.858 572.927 621.839 572.391 617.285L537.294 218.082H510.77Z" fill="#B8D8C7"/>
<path d="M544.524 400.801H259.992V414.465H544.524V400.801Z" fill="#B8D8C7"/>
<path d="M562.741 193.7H237.217C231.859 193.7 227.84 189.413 227.84 184.323V183.519C227.84 178.16 232.127 174.142 237.217 174.142H563.009C568.368 174.142 572.386 178.428 572.386 183.519V184.323C572.386 189.413 568.1 193.7 562.741 193.7Z" fill="#22272E"/>
<rect x="0.5" y="0.5" width="799" height="799" stroke="black"/>
</svg>
