<svg width="800" height="800" viewBox="0 0 800 800" fill="none" xmlns="http://www.w3.org/2000/svg">
<path d="M421.411 566.906C421.413 562.574 420.13 558.339 417.725 554.736C415.32 551.133 411.9 548.325 407.898 546.666C403.897 545.007 399.493 544.572 395.245 545.416C390.996 546.26 387.093 548.345 384.029 551.407C380.965 554.469 378.879 558.371 378.033 562.62C377.187 566.868 377.62 571.272 379.277 575.274C380.935 579.276 383.742 582.697 387.343 585.104C390.945 587.511 395.179 588.795 399.511 588.795C402.394 588.824 405.254 588.278 407.924 587.188C410.593 586.099 413.018 584.488 415.057 582.449C417.097 580.411 418.709 577.986 419.8 575.317C420.891 572.648 421.438 569.789 421.411 566.906Z" fill="#6DAFA7"/>
<path d="M526.999 329.333C528.24 346.763 525.908 364.263 520.146 380.76C514.384 397.257 505.312 412.403 493.489 425.269C469.04 451.736 455.485 486.457 455.534 522.487V545.018C455.462 550.973 453.064 556.663 448.852 560.873C444.64 565.084 438.948 567.479 432.994 567.548H367.324C361.371 567.477 355.682 565.08 351.472 560.87C347.262 556.66 344.865 550.971 344.794 545.018V522.487C344.794 486.425 331.271 451.663 306.809 425.9C284.777 402.332 272.57 371.244 272.678 338.981C272.678 265.595 335.135 206.361 409.211 211.516C471.628 215.379 522.494 266.236 526.999 329.333Z" fill="#FFE779"/>
<path d="M344.15 522.487H454.881" stroke="#22272E" stroke-width="11.5905" stroke-linecap="round" stroke-linejoin="round"/>
<path d="M344.15 544.376H454.881" stroke="#22272E" stroke-width="11.5905" stroke-linecap="round" stroke-linejoin="round"/>
<path d="M387.932 522.485V346.065C387.932 329.961 369.906 320.312 356.393 329.311C346.084 336.397 344.803 351.841 354.422 360.849L362.149 367.936" stroke="#22272E" stroke-width="11.5905" stroke-linecap="round" stroke-linejoin="round"/>
<path d="M411.102 522.485V346.065C411.102 329.961 429.128 320.312 442.64 329.311C452.94 336.397 454.231 351.841 444.611 360.849L436.884 367.936" stroke="#22272E" stroke-width="11.5905" stroke-linecap="round" stroke-linejoin="round"/>
</svg>
