<svg width="800" height="800" viewBox="0 0 800 800" fill="none" xmlns="http://www.w3.org/2000/svg">
<path d="M414.303 248.934C414.303 248.934 414.795 202.857 402.67 176.185C402.67 176.185 271.73 199.943 247.48 214.011C247.48 214.011 269.296 235.838 276.096 262.51C283.375 288.691 413.344 294.028 414.303 248.934Z" fill="white"/>
<path d="M418.19 282.397C418.19 282.397 426.382 198.494 430.315 181.032C430.315 181.032 324.105 189.763 284.336 212.562L295.01 301.31L418.19 282.397Z" fill="#F4C2C9"/>
<path d="M536.03 347.375C536.03 347.375 535.55 285.346 552.52 255.725C552.52 255.725 452.619 257.656 430.312 270.752C408.005 283.848 410.942 346.895 410.942 346.895C410.942 346.895 531.665 354.175 536.03 347.375Z" fill="white"/>
<path d="M552.519 320.225H442.436V623.336H552.519V320.225Z" fill="#6DAFA7"/>
<path d="M497.728 581.624C509.512 581.624 519.064 572.072 519.064 560.289C519.064 548.505 509.512 538.953 497.728 538.953C485.945 538.953 476.393 548.505 476.393 560.289C476.393 572.072 485.945 581.624 497.728 581.624Z" stroke="#22272E" stroke-width="8.73087" stroke-linecap="round" stroke-linejoin="round"/>
<path d="M332.34 623.813V248.936L266.391 264.934V584.536L332.34 623.813Z" fill="#6DAFA7"/>
<path d="M442.426 248.936H332.342V623.813H442.426V248.936Z" fill="#FFE779"/>
<path d="M387.152 581.624C398.935 581.624 408.488 572.072 408.488 560.289C408.488 548.505 398.935 538.953 387.152 538.953C375.369 538.953 365.816 548.505 365.816 560.289C365.816 572.072 375.369 581.624 387.152 581.624Z" stroke="#22272E" stroke-width="8.73087" stroke-linecap="round" stroke-linejoin="round"/>
<path d="M360.475 478.327H414.299" stroke="#22272E" stroke-width="8.73087" stroke-linecap="round" stroke-linejoin="round"/>
<path d="M360.475 499.664H414.299" stroke="#22272E" stroke-width="8.73087" stroke-linecap="round" stroke-linejoin="round"/>
<rect x="0.5" y="0.5" width="799" height="799" stroke="black"/>
</svg>
