<svg width="800" height="800" viewBox="0 0 800 800" fill="none" xmlns="http://www.w3.org/2000/svg">
<path d="M537.726 537.153C439.765 632.09 318.047 650.843 273.942 585.5C234.924 527.776 271.821 425.163 351.556 350.948C430.014 277.999 533.483 247.889 589.484 286.485C652.658 329.699 633.999 443.822 537.726 537.153Z" fill="#F8AB5D"/>
<path d="M523.728 522.7C425.767 617.696 304.049 636.39 259.944 571.048C220.926 513.371 257.823 410.745 337.558 336.519C416.016 263.582 519.485 233.471 575.486 272.056C639.082 315.738 620.001 429.826 523.728 522.7Z" fill="#FFE779"/>
<path d="M482.59 481.562C423.647 537.973 349.854 551.968 320.166 514.216C293.021 479.441 314.657 413.712 366.392 365.364C417.704 317.439 484.289 299.202 518.642 326.346C555.539 355.191 540.7 425.585 482.59 481.562Z" fill="#6DAFA7"/>
<path d="M444.849 443.822C421.525 465.868 391.836 472.232 379.12 458.238C366.813 444.665 374.877 417.099 396.923 396.318C418.97 375.537 447.392 368.751 460.964 381.081C474.959 393.353 468.173 421.763 444.849 443.822Z" fill="#F4C2C9"/>
<path d="M294.3 301.323C292.159 303.306 289.647 304.848 286.909 305.858C284.171 306.869 281.26 307.328 278.343 307.211C275.427 307.093 272.562 306.401 269.914 305.173C267.266 303.945 264.887 302.207 262.912 300.057L187.42 203.784C185.546 201.359 184.639 198.325 184.875 195.269C185.111 192.213 186.473 189.354 188.698 187.246V187.246C190.964 185.197 193.911 184.062 196.967 184.062C200.022 184.062 202.969 185.197 205.235 187.246L295.144 269.923C297.251 271.986 298.909 274.461 300.015 277.195C301.121 279.928 301.651 282.86 301.572 285.807C301.492 288.754 300.806 291.654 299.554 294.323C298.303 296.993 296.514 299.376 294.3 301.323V301.323Z" fill="#22272E"/>
<path d="M204.812 222.021L180.644 225.385C173.858 226.241 171.268 234.762 176.401 238.958C191.255 252.054 209.468 260.748 228.992 264.063L241.286 266.185C241.607 266.244 241.937 266.208 242.237 266.082C242.537 265.955 242.793 265.744 242.974 265.473C243.155 265.202 243.253 264.884 243.255 264.559C243.257 264.233 243.163 263.914 242.986 263.641L212.442 224.987C211.503 223.915 210.319 223.085 208.991 222.569C207.662 222.052 206.229 221.865 204.812 222.021V222.021Z" fill="#6DAFA7"/>
<path d="M222.626 205.905L228.123 182.159C228.443 180.674 229.187 179.313 230.264 178.24C231.34 177.168 232.704 176.43 234.191 176.115C235.678 175.8 237.224 175.923 238.643 176.467C240.061 177.011 241.293 177.954 242.188 179.182V179.182C254.098 194.951 261.284 213.778 262.91 233.472L263.765 245.767C263.758 246.06 263.671 246.346 263.513 246.594C263.356 246.842 263.134 247.042 262.872 247.174C262.609 247.305 262.316 247.362 262.023 247.339C261.73 247.317 261.449 247.215 261.21 247.044L225.169 213.957C222.626 211.414 221.77 208.449 222.626 205.905Z" fill="#6DAFA7"/>
<path d="M290.902 297.513L315.082 323.38" stroke="#22272E" stroke-width="7.6301" stroke-linecap="round" stroke-linejoin="round"/>
</svg>
