<svg width="800" height="800" viewBox="0 0 800 800" fill="none" xmlns="http://www.w3.org/2000/svg">
<path d="M501.904 649.141L259.28 660.337C239.879 661.088 226.431 645.414 228.684 625.249L268.987 222.121C271.226 201.219 288.401 182.528 307.816 180.316L554.932 148.219C576.572 145.229 591.508 160.902 589.269 182.555L543.723 608.825C542.221 629.7 522.807 647.653 501.904 649.141Z" fill="#22272E"/>
<path d="M483.99 640.937L241.365 652.132C221.951 652.883 208.516 637.196 210.755 617.045L251.072 213.917C253.311 193.015 270.486 174.324 289.887 172.112L536.976 140.001C558.63 137.024 573.566 152.698 571.327 174.351L525.795 600.62C523.556 622.274 504.892 640.186 483.99 640.937Z" fill="#22272E"/>
<path d="M495.185 275.872L306.312 296.037C304.907 296.194 303.485 296.034 302.15 295.568C300.815 295.102 299.601 294.343 298.599 293.346C297.597 292.349 296.831 291.139 296.358 289.807C295.886 288.475 295.718 287.053 295.868 285.647L300.346 239.364C301.083 234.886 304.073 231.172 308.537 231.172L498.162 208.782C499.574 208.623 501.003 208.785 502.344 209.254C503.685 209.724 504.903 210.489 505.908 211.494C506.912 212.498 507.678 213.716 508.147 215.057C508.617 216.398 508.778 217.828 508.62 219.24L503.391 267.762C503.345 269.915 502.463 271.965 500.931 273.479C499.399 274.993 497.339 275.851 495.185 275.872Z" fill="#F4C2C9"/>
<path d="M319.743 404.278L295.168 406.517C293.757 406.678 292.328 406.519 290.987 406.051C289.647 405.583 288.429 404.818 287.425 403.814C286.421 402.81 285.657 401.593 285.189 400.252C284.721 398.912 284.562 397.483 284.723 396.072L287.699 369.19C288.45 364.712 291.44 360.998 295.891 360.998L320.466 358.759C321.877 358.598 323.307 358.758 324.648 359.225C325.989 359.693 327.207 360.457 328.212 361.461C329.217 362.465 329.983 363.682 330.452 365.022C330.922 366.363 331.083 367.792 330.924 369.203L327.934 396.086C327.962 400.55 324.234 403.527 319.743 404.278Z" fill="#B0D7C0"/>
<path d="M483.238 390.094L456.424 392.333C455.013 392.494 453.583 392.334 452.242 391.866C450.901 391.399 449.683 390.634 448.678 389.631C447.673 388.627 446.907 387.41 446.438 386.069C445.968 384.729 445.807 383.3 445.966 381.888L448.956 353.518C449.706 349.04 452.696 345.326 457.147 345.326L484.016 342.35C485.427 342.189 486.857 342.348 488.198 342.816C489.539 343.284 490.757 344.048 491.762 345.052C492.767 346.056 493.533 347.273 494.002 348.613C494.472 349.954 494.633 351.383 494.474 352.794L491.484 381.165C491.359 383.379 490.468 385.48 488.963 387.109C487.459 388.738 485.435 389.793 483.238 390.094Z" fill="#B0D7C0"/>
<path d="M400.445 396.809L375.064 399.048C373.653 399.209 372.224 399.05 370.883 398.582C369.542 398.114 368.323 397.35 367.318 396.346C366.313 395.343 365.548 394.125 365.078 392.785C364.609 391.444 364.447 390.015 364.606 388.604L367.596 360.984C368.347 356.506 371.323 352.793 375.788 352.793L401.169 350.553C402.58 350.395 404.009 350.556 405.349 351.025C406.69 351.495 407.907 352.261 408.911 353.266C409.915 354.271 410.679 355.489 411.147 356.83C411.614 358.171 411.774 359.6 411.613 361.012L408.637 388.604C408.619 390.772 407.751 392.847 406.219 394.382C404.686 395.916 402.613 396.788 400.445 396.809Z" fill="#B0D7C0"/>
<path d="M310.053 496.108L285.478 497.596C279.511 498.347 275.033 493.118 275.033 487.151L278.01 460.269C278.323 458.075 279.389 456.059 281.026 454.565C282.662 453.07 284.766 452.191 286.979 452.077L311.555 449.838C312.966 449.677 314.395 449.837 315.736 450.305C317.077 450.772 318.295 451.537 319.3 452.54C320.305 453.544 321.071 454.761 321.541 456.102C322.01 457.442 322.172 458.871 322.013 460.283L319.023 487.165C318.258 492.367 314.531 496.108 310.053 496.108Z" fill="#B0D7C0"/>
<path d="M473.548 484.982L446.665 487.221C440.699 487.958 436.221 482.743 436.221 476.763L439.197 449.143C439.948 444.665 443.675 440.952 448.153 440.952L475.036 438.562C476.447 438.403 477.876 438.565 479.217 439.034C480.557 439.504 481.774 440.27 482.778 441.274C483.782 442.279 484.546 443.498 485.014 444.839C485.482 446.18 485.641 447.609 485.48 449.02L482.504 477.391C481.753 480.436 478.026 484.163 473.548 484.982Z" fill="#B0D7C0"/>
<path d="M390.673 490.878L365.292 492.366C359.326 493.117 354.834 487.888 354.834 481.922L357.824 454.302C358.575 449.824 362.302 446.111 366.78 446.111L392.161 443.871C393.573 443.71 395.004 443.87 396.346 444.339C397.688 444.807 398.907 445.572 399.913 446.578C400.918 447.583 401.683 448.802 402.152 450.144C402.62 451.486 402.78 452.917 402.619 454.33L399.629 481.949C399.221 484.172 398.145 486.217 396.545 487.812C394.945 489.407 392.896 490.477 390.673 490.878Z" fill="#B0D7C0"/>
<path d="M300.347 587.923L276.455 589.425C270.488 589.425 266.01 584.946 266.748 578.966L269.737 552.098C270.488 547.62 274.216 543.906 278.694 543.906L302.586 542.418C308.553 541.667 313.031 546.896 312.293 552.862L309.303 579.745C309.303 584.195 304.88 587.923 300.347 587.923Z" fill="#B0D7C0"/>
<path d="M463.088 578.968L436.219 580.469C430.239 580.469 425.761 575.991 426.512 570.011L429.488 542.392C430.239 537.913 433.98 534.2 438.458 534.2L465.327 532.712C471.307 531.961 475.785 537.19 475.034 543.17L472.044 571.527C471.58 573.58 470.45 575.423 468.83 576.769C467.211 578.114 465.192 578.887 463.088 578.968Z" fill="#FFE779"/>
<path d="M380.966 583.447L355.586 584.949C349.619 584.949 345.141 580.471 345.878 574.491L348.868 547.622C349.619 543.144 353.346 539.43 357.825 539.43L383.205 537.942C389.185 537.191 393.663 542.42 392.912 548.387L389.922 576.02C389.455 578.071 388.324 579.911 386.705 581.254C385.085 582.596 383.068 583.367 380.966 583.447Z" fill="#FFE779"/>
<rect x="0.5" y="0.5" width="799" height="799" stroke="black"/>
</svg>
