<svg width="800" height="800" viewBox="0 0 800 800" fill="none" xmlns="http://www.w3.org/2000/svg">
<path d="M500.524 451.358H278.975C275.366 451.358 272.357 448.35 272.357 444.74C272.357 441.131 275.366 438.123 278.975 438.123H500.524C504.134 438.123 507.142 441.131 507.142 444.74C507.142 448.35 504.284 451.358 500.524 451.358Z" fill="#22272E"/>
<path d="M307.4 451.357H291.006L289.502 470.609H305.445L307.4 451.357Z" fill="#6DAFA7"/>
<path d="M289.504 470.609L272.056 702.385C271.906 705.243 274.012 707.649 276.869 707.649C279.426 707.649 281.532 705.694 281.682 703.288L305.447 470.609H289.504Z" fill="#B8D8C7"/>
<path d="M472.248 451.357H488.642L490.146 470.609H474.203L472.248 451.357Z" fill="#6DAFA7"/>
<path d="M490.144 470.609L507.591 702.385C507.742 705.243 505.636 707.649 502.778 707.649C500.221 707.649 498.116 705.694 497.965 703.288L474.352 470.759H490.144V470.609Z" fill="#B8D8C7"/>
<path d="M413.889 340.059C413.889 340.059 439.307 352.392 470.291 384.73C503.531 419.624 511.653 440.531 507.141 460.384C503.531 476.327 503.23 467.303 470.291 469.559C437.352 471.815 405.767 471.213 393.885 470.161C382.003 469.108 318.08 452.413 297.474 432.559C276.869 412.705 282.734 377.51 298.978 342.917C315.072 308.173 409.076 331.336 413.889 340.059Z" fill="#FFE779"/>
<path d="M450.289 446.246C450.289 446.246 457.659 428.498 473.602 426.241C489.395 423.985 511.805 434.363 506.09 469.258C499.321 510.619 431.939 633.652 430.886 638.615C429.834 643.579 438.557 656.363 446.679 662.831C454.801 669.298 487.138 682.985 481.122 697.123C481.122 697.123 445.025 702.237 424.269 699.68C403.513 697.123 399.151 687.949 395.842 689.453C392.533 690.957 388.622 686.595 387.87 684.79C387.118 682.985 394.789 643.579 394.789 643.579C394.789 643.579 424.72 534.233 431.187 508.063C437.805 481.892 450.289 446.246 450.289 446.246Z" fill="#F4C2C9"/>
<path d="M481.122 697.274C481.122 697.274 445.025 702.388 424.269 699.831C403.513 697.274 399.151 688.099 395.842 689.604C392.533 691.108 388.622 686.746 387.87 684.941C387.57 684.189 388.472 678.173 389.826 670.953L429.533 674.864C429.533 674.864 435.7 675.766 443.822 674.864C449.537 674.262 456.005 672.307 460.818 671.555C472.248 678.624 485.183 687.799 481.122 697.274Z" fill="#6DAFA7"/>
<path d="M419.455 377.962C419.455 377.962 440.512 391.348 458.11 411.503" stroke="#F8AB5D" stroke-width="2.70731" stroke-miterlimit="10" stroke-linecap="round" stroke-linejoin="round"/>
<path d="M399.449 432.559C399.449 432.559 409.827 418.571 426.973 420.827C444.12 423.083 457.506 437.973 452.994 466.25C448.482 494.526 420.205 622.522 417.949 632.9C415.693 643.278 418.852 653.054 426.522 667.192C434.343 681.331 448.03 691.709 446.225 702.538C446.225 702.538 438.856 705.095 419.002 705.095C399.148 705.095 381.1 704.343 379.595 703.29C378.091 702.237 374.03 694.717 371.022 693.664C368.014 692.611 365.006 693.363 364.555 690.806C363.953 688.4 374.181 647.94 375.384 637.562C382.604 572.587 370.27 460.985 399.449 432.559Z" fill="#F4C2C9"/>
<path d="M446.375 702.388C446.375 702.388 438.855 704.944 419.152 704.944C399.449 704.944 381.249 704.193 379.745 703.14C378.241 702.087 374.18 694.567 371.172 693.514C368.164 692.461 365.156 693.062 364.705 690.656C364.404 689.302 367.713 675.164 370.721 661.327C373.879 662.38 381.249 665.087 382.603 667.193C384.257 669.9 386.814 678.623 392.079 681.481C397.042 684.038 422.16 672.607 435.245 679.375C441.562 687.798 447.579 695.018 446.375 702.388Z" fill="#6DAFA7"/>
<path d="M452.092 442.636C453.897 449.104 454.348 456.925 452.994 466.1C448.482 494.376 420.206 622.372 417.95 632.75C415.694 643.128 418.852 652.904 426.523 667.043C427.877 669.599 429.531 672.156 431.336 674.412" stroke="#E26E85" stroke-width="2.70731" stroke-miterlimit="10" stroke-linecap="round" stroke-linejoin="round"/>
<path d="M403.812 190.705C403.812 190.705 412.836 187.847 434.495 222.591C456.003 257.335 455.401 255.379 455.401 255.379C455.401 255.379 514.06 239.587 519.625 239.737C525.19 239.888 534.365 257.635 522.633 267.713C513.609 275.534 461.869 300.652 445.625 300.802C435.397 300.802 426.674 295.839 401.405 258.388C373.731 217.778 395.54 186.945 403.812 190.705Z" fill="#B8D8C7"/>
<path d="M455.402 255.529C455.402 255.529 441.565 258.237 437.053 269.066" stroke="#6DAFA7" stroke-width="2.70731" stroke-miterlimit="10" stroke-linecap="round" stroke-linejoin="round"/>
<path d="M543.089 228.757C543.089 228.757 543.54 225.147 543.089 218.83C542.638 212.513 540.382 204.391 540.382 204.391C540.382 204.391 537.073 202.737 536.321 207.7C535.569 212.664 533.613 223.794 533.613 223.794C533.613 223.794 538.426 233.72 543.089 228.757Z" fill="#F4C2C9"/>
<path d="M520.228 291.628H460.817C457.057 291.628 454.199 288.319 454.801 284.559L469.24 189.652C469.992 184.99 473.903 181.681 478.565 181.681H537.976C541.736 181.681 544.594 184.99 543.992 188.75L529.553 283.656C528.951 288.319 524.89 291.628 520.228 291.628Z" fill="#22272E"/>
<path d="M517.97 184.689H499.17C497.515 184.689 496.312 183.335 496.613 181.68C496.913 180.026 498.568 178.672 500.222 178.672H519.023C520.678 178.672 521.881 180.026 521.58 181.68C521.129 183.335 519.625 184.689 517.97 184.689Z" fill="#FFE779"/>
<path d="M539.329 219.884C539.329 219.884 517.971 218.53 514.361 218.981C510.902 219.282 509.699 222.741 513.459 224.245C516.317 225.449 526.394 227.103 526.394 227.103C526.394 227.103 505.939 230.713 503.683 232.668C501.426 234.774 502.63 237.03 504.585 237.632C504.585 237.632 499.772 240.189 503.231 243.347C506.691 246.506 519.325 247.709 519.325 247.709C519.325 247.709 507.744 246.054 507.443 249.063C507.292 251.92 522.784 255.38 528.951 254.628C538.126 253.424 537.223 250.717 538.126 248.16C539.028 245.603 541.735 233.119 542.939 228.758C543.089 228.758 543.39 222.29 539.329 219.884Z" fill="#F4C2C9"/>
<path d="M525.342 227.253C525.342 227.253 537.374 229.81 538.578 229.659" stroke="#E26E85" stroke-width="2.70731" stroke-miterlimit="10" stroke-linecap="round" stroke-linejoin="round"/>
<path d="M504.586 237.782C504.586 237.782 506.842 238.534 512.858 238.684C518.875 238.835 536.623 236.879 536.623 236.879" stroke="#E26E85" stroke-width="2.70731" stroke-miterlimit="10" stroke-linecap="round" stroke-linejoin="round"/>
<path d="M516.465 247.408C516.465 247.408 528.648 248.611 533.762 247.408" stroke="#E26E85" stroke-width="2.70731" stroke-miterlimit="10" stroke-linecap="round" stroke-linejoin="round"/>
<path d="M404.263 223.344C404.263 223.344 419.153 204.543 410.43 173.409C405.617 156.413 394.186 146.787 398.247 127.084C402.609 104.974 410.43 102.417 387.267 95.047C387.267 95.047 353.125 85.8723 332.068 101.364C318.532 111.291 317.93 120.616 318.381 139.718C318.682 154.006 302.589 140.019 297.625 166.64C294.918 181.079 294.467 178.372 281.231 190.254C261.979 207.551 282.133 266.661 330.113 273.429C378.093 280.197 401.406 246.807 404.263 223.344Z" fill="#22272E"/>
<path d="M291.607 211.763C291.908 201.986 298.526 193.563 307.701 190.706C316.875 187.848 330.562 184.539 347.107 183.185C378.091 180.628 400.2 186.193 402.908 189.202C405.615 192.21 406.518 207.702 408.774 214.169C411.03 220.636 427.424 235.376 424.115 252.974C420.806 270.571 414.639 279.445 412.684 287.267C410.729 295.088 409.074 305.165 409.375 311.332C409.676 317.498 418.249 340.661 419.152 345.624C420.054 350.588 402.908 365.929 367.562 367.433C338.383 368.636 308.453 359.01 297.623 351.791C294.916 349.986 293.713 346.527 294.766 343.368C297.623 334.344 303.94 313.136 304.843 305.917C305.896 296.441 296.721 264.104 293.713 241.393C291.908 229.661 291.306 219.584 291.607 211.763Z" fill="#6DAFA7"/>
<path d="M329.812 180.778C329.812 180.778 327.104 198.376 339.287 199.128C351.47 199.88 346.206 202.888 348.913 209.055C351.771 215.372 359.893 212.965 360.946 212.063C367.263 207.1 369.82 216.274 375.986 215.221C382.153 214.169 379.747 209.055 382.905 207.852C386.064 206.648 392.531 207.852 390.125 199.73C387.568 190.856 397.194 197.925 392.23 187.246C386.515 174.762 357.787 176.116 340.491 179.876C323.194 183.636 330.113 177.77 329.812 180.778Z" fill="white"/>
<path d="M380.046 171.303C380.046 171.303 380.497 185.591 381.099 188.9C381.55 192.209 386.664 207.25 370.571 206.498C361.546 206.047 354.778 200.933 350.567 196.571C347.258 193.112 345.603 188.449 345.754 183.636L347.107 158.669C347.107 158.518 376.587 154.307 380.046 171.303Z" fill="#F4C2C9"/>
<path d="M357.035 166.64C358.088 180.026 368.917 186.193 380.799 187.246C380.499 184.388 380.348 179.425 380.198 175.665C372.677 180.929 362.45 173.86 357.035 166.64Z" fill="#E26E85"/>
<path d="M393.585 113.998C372.678 109.636 349.666 114.449 329.812 123.172C329.812 123.323 329.812 123.473 329.812 123.624C330.715 158.067 342.146 176.867 361.699 180.327C381.251 183.786 395.69 171.603 393.886 149.794C392.833 134.754 393.284 121.067 393.585 113.998Z" fill="#F4C2C9"/>
<path d="M329.812 123.023C349.666 114.299 372.678 109.486 393.585 113.848C393.735 110.539 393.886 108.734 393.886 108.734" fill="#F4C2C9"/>
<path d="M389.373 123.023C381.402 119.263 379.898 132.198 362.15 126.182C357.487 124.527 352.373 119.263 351.17 130.694C350.568 136.108 352.824 141.373 345.605 151.6C339.739 160.023 361.397 185.742 332.219 195.82C312.215 202.738 301.686 187.999 290.406 205.446C282.885 217.027 297.174 181.531 323.946 164.836C336.58 157.015 326.202 132.499 325.45 126.783C324.849 121.068 328.007 109.486 347.109 104.974C366.211 100.462 387.117 84.2182 400.503 97.4539C409.828 106.629 408.023 131.596 389.373 123.023Z" fill="#22272E"/>
<path d="M315.523 200.632C307.702 193.262 294.917 195.969 290.254 205.595C285.141 216.425 276.567 234.774 268.145 254.778C254.759 286.815 249.193 317.648 268.145 327.725C287.096 337.802 312.815 317.648 326.201 301.705C339.588 285.762 358.088 261.095 358.088 261.095C358.088 261.095 355.23 241.693 341.543 240.64L315.823 260.042C315.823 260.042 321.84 246.205 323.945 239.136C326.201 232.067 325.75 210.408 315.823 200.782C315.673 200.782 315.523 200.632 315.523 200.632Z" fill="#B8D8C7"/>
<path d="M315.825 260.042C315.825 260.042 279.727 282.753 273.41 294.635" stroke="#6DAFA7" stroke-width="2.70731" stroke-miterlimit="10" stroke-linecap="round" stroke-linejoin="round"/>
<path d="M341.393 240.64C341.393 240.64 365.458 224.847 367.414 224.095C369.369 223.192 384.109 226.652 385.613 227.404C387.117 228.156 390.125 235.375 390.125 235.375C390.125 235.375 402.157 241.091 402.458 242.144C402.759 243.196 400.352 246.355 399.6 246.806C398.848 247.107 395.539 247.408 394.938 247.558C394.336 247.709 388.17 257.635 385.161 260.042C382.153 262.448 367.865 260.343 365.759 260.343C363.503 260.343 353.877 263.351 353.877 263.351C353.877 263.351 347.56 261.997 342.897 254.327C338.235 246.656 341.393 240.64 341.393 240.64Z" fill="#F4C2C9"/>
<path d="M413.59 238.685L417.801 241.693C418.403 242.144 418.102 243.046 417.35 243.046L412.236 243.197L358.692 227.254C357.187 226.802 356.135 225.449 356.586 224.095C357.037 222.741 358.541 222.14 360.045 222.591L413.59 238.685Z" fill="white"/>
<path d="M389.372 236.579C389.372 236.579 400.352 235.827 400.953 234.624C401.705 233.421 401.254 231.465 399.6 230.112C397.945 228.758 380.498 228.006 376.738 227.705C372.978 227.404 368.014 228.307 364.705 231.014C361.547 234.022 378.543 244.551 389.372 236.579Z" fill="#F4C2C9"/>
<path d="M395.087 247.558C395.087 247.558 386.815 246.355 385.762 246.355C384.709 246.355 381.25 246.355 381.25 246.355" stroke="#E26E85" stroke-width="2.70731" stroke-miterlimit="10" stroke-linecap="round" stroke-linejoin="round"/>
<path d="M390.275 254.176C390.275 254.176 384.559 254.627 382.454 254.928C380.348 255.079 378.994 254.928 378.994 254.928" stroke="#E26E85" stroke-width="2.70731" stroke-miterlimit="10" stroke-linecap="round" stroke-linejoin="round"/>
<path d="M373.882 163.181C370.723 163.03 366.963 162.128 363.955 158.819" stroke="#22272E" stroke-width="2.70731" stroke-miterlimit="10" stroke-linecap="round" stroke-linejoin="round"/>
<path d="M387.115 147.688C388.469 147.688 389.672 146.485 389.672 145.131V143.627C389.672 142.274 388.469 141.07 387.115 141.07C385.762 141.07 384.559 142.274 384.559 143.627V145.131C384.559 146.485 385.611 147.688 387.115 147.688Z" fill="#22272E"/>
<path d="M363.655 147.689C365.008 147.689 366.211 146.485 366.211 145.132V143.628C366.211 142.274 365.008 141.071 363.655 141.071C362.301 141.071 361.098 142.274 361.098 143.628V145.132C361.098 146.485 362.301 147.689 363.655 147.689Z" fill="#22272E"/>
<path d="M378.545 157.766C380.049 157.314 380.951 156.412 381.703 155.509C382.455 154.607 382.907 153.554 382.907 152.652C382.907 152.351 382.907 152.201 382.756 151.9L382.455 150.847C382.305 150.095 382.155 149.493 382.004 148.591C381.854 147.087 381.854 145.733 382.155 144.229C383.057 145.432 383.508 146.936 384.11 148.14L384.862 149.944L385.313 150.997C385.464 151.449 385.614 151.9 385.614 152.351C385.614 153.253 385.313 154.306 384.862 155.058C384.411 155.81 383.809 156.412 383.057 156.863C382.305 157.314 381.553 157.615 380.801 157.766C380.049 158.217 379.297 158.217 378.545 157.766Z" fill="#22272E"/>
<path d="M356.434 132.046C356.584 130.542 358.389 129.64 361.247 128.887C367.263 128.135 369.669 130.542 368.767 133.55C368.015 135.957 363.804 133.7 361.096 133.7C358.84 133.55 356.434 133.4 356.434 132.046Z" fill="#22272E"/>
<path d="M392.83 131.896C392.83 130.392 391.326 129.64 389.22 128.737C384.708 127.835 382.753 130.242 383.354 132.949C383.956 135.205 387.114 133.25 389.22 133.25C391.025 133.4 392.98 133.25 392.83 131.896Z" fill="#22272E"/>
<rect x="0.5" y="0.5" width="799" height="799" stroke="black"/>
</svg>
