<svg width="800" height="800" viewBox="0 0 800 800" fill="none" xmlns="http://www.w3.org/2000/svg">
<path d="M411.193 648.016C411.193 648.016 413.128 666.846 413.644 671.876C414.16 676.262 415.063 681.679 415.708 685.161C416.094 687.482 415.45 689.933 413.773 691.61C413.773 691.61 412.999 698.445 413.773 704.894C413.773 705.023 413.773 705.023 413.773 705.152C414.289 709.408 411.322 713.278 407.066 713.922C400.746 714.954 390.428 716.373 378.563 716.76C370.566 717.018 364.246 716.631 359.345 715.986C354.315 715.341 351.736 709.537 354.831 705.539C360.248 698.445 367.6 688.385 371.727 682.323C378.563 672.005 377.66 658.076 376.112 647.887C374.564 637.827 405.518 640.277 411.193 648.016Z" fill="#F4C2C9"/>
<path d="M412.097 656.915C411.581 652.014 411.194 648.016 411.194 648.016C405.648 640.277 374.565 637.827 376.112 648.016C376.886 653.304 377.531 659.752 377.015 666.072C390.042 668.265 404.874 666.459 412.097 656.915Z" fill="#E26E85"/>
<path d="M413.773 705.152C412.999 698.575 413.773 691.868 413.773 691.868C415.45 690.062 416.094 687.741 415.708 685.419C415.063 681.937 414.16 676.52 413.644 672.135C413.644 671.877 413.644 671.748 413.515 671.49C409.517 675.23 405.26 678.712 403.584 684C402.681 686.838 399.715 688.644 396.748 687.87C387.204 685.419 377.66 684.903 368.115 687.999C364.117 693.674 358.829 700.638 354.831 706.055C351.736 710.054 354.315 715.986 359.345 716.502C364.117 717.018 370.566 717.405 378.563 717.276C390.428 716.889 400.746 715.471 407.066 714.439C411.322 713.794 414.289 709.925 413.773 705.668C413.773 705.281 413.773 705.152 413.773 705.152Z" fill="#22272E"/>
<path d="M481.873 650.595C481.873 650.595 485.871 665.815 485.871 671.103C485.871 674.843 484.968 684 484.324 689.417C484.066 691.61 484.453 693.673 485.484 695.608C485.742 695.995 485.871 696.382 485.871 696.898C486 697.8 486 701.67 486 705.281C486 709.408 489.096 712.891 493.223 713.278C497.737 713.665 504.96 713.922 516.31 713.536C525.209 713.278 531.271 712.762 535.269 712.375C539.396 711.988 541.847 707.474 539.912 703.733C534.495 693.673 525.08 675.617 523.145 671.232C520.437 664.912 517.599 646.597 517.599 646.597C517.599 646.597 482.647 632.281 481.873 650.595Z" fill="#F4C2C9"/>
<path d="M520.695 662.719C519.018 655.238 517.599 646.597 517.599 646.597C517.599 646.597 482.647 632.281 482.002 650.595C482.002 650.595 482.905 653.949 483.808 658.076C496.06 662.848 508.313 663.751 520.695 662.719Z" fill="#E26E85"/>
<path d="M539.912 703.733C537.59 699.477 534.624 693.673 531.658 688.127C531.142 687.998 530.626 687.998 530.11 687.998C519.921 685.16 508.442 689.417 498.253 689.417C494.255 688.127 492.707 677.035 485.742 673.037C485.484 677.422 484.839 684.902 484.323 689.545C484.066 691.738 484.452 693.802 485.484 695.736C485.742 696.123 485.871 696.51 485.871 697.026C486 697.929 486 701.798 486 705.41C486 709.537 489.096 713.019 493.223 713.406C497.737 713.793 504.96 714.051 516.309 713.664C525.209 713.406 531.271 712.89 535.269 712.503C539.525 711.987 541.847 707.473 539.912 703.733Z" fill="#22272E"/>
<path d="M477.358 312.55C477.358 312.55 487.805 328.672 490.643 360.4C492.319 378.715 489.998 442.558 490.643 448.619C491.159 453.263 499.671 510.915 507.539 563.795C511.408 589.074 518.373 614.353 522.371 630.733C524.434 639.375 522.5 645.178 520.694 649.048C520.694 649.048 518.115 657.431 505.862 658.076C491.546 658.721 486.644 656.915 479.938 654.078C477.1 652.788 471.167 649.048 469.749 641.309C467.169 627.122 463.816 600.94 455.819 573.081C445.759 538.258 432.991 497.759 427.961 466.289C427.316 462.549 424.607 450.167 421.77 438.43C419.319 428.499 416.869 419.084 415.579 415.473C410.936 402.575 411.452 402.059 409.904 398.964C407.453 394.063 401.778 400.125 396.104 376.651C395.201 373.169 394.556 367.752 394.04 361.948C392.75 347.116 392.363 328.93 392.363 328.93C392.363 328.93 457.496 296.686 477.358 312.55Z" fill="#22272E"/>
<path d="M359.99 327.769C359.99 327.769 350.962 384.906 351.091 456.1C351.091 470.674 354.831 504.724 359.217 540.321C363.86 578.369 364.634 609.323 367.213 639.762C367.6 645.05 370.18 648.661 371.985 650.596C373.275 651.885 374.436 653.304 375.726 654.594C377.789 656.915 382.561 660.398 392.363 660.14C406.938 659.753 413.773 652.659 416.482 649.177C418.674 646.339 421.383 642.986 421.512 634.087C421.899 612.419 416.611 605.196 418.288 534.904C418.932 507.432 417.643 481.508 416.095 466.16C415.321 458.164 443.051 367.365 445.501 355.628C447.952 343.891 380.369 316.032 359.99 327.769Z" fill="#22272E"/>
<path d="M463.299 344.407C463.299 344.407 465.749 363.625 482.903 373.298" stroke="#63737A" stroke-width="2.32156" stroke-miterlimit="10" stroke-linecap="round" stroke-linejoin="round"/>
<path d="M421.51 438.431C419.059 428.5 416.609 419.084 415.319 415.473C410.676 402.575 411.192 402.06 409.644 398.964C407.194 394.063 401.519 400.125 395.844 376.651" stroke="#63737A" stroke-width="2.32156" stroke-miterlimit="10" stroke-linecap="round" stroke-linejoin="round"/>
<path d="M371.081 491.181C380.199 491.181 387.59 483.097 387.59 473.124C387.59 463.152 380.199 455.068 371.081 455.068C361.964 455.068 354.572 463.152 354.572 473.124C354.572 483.097 361.964 491.181 371.081 491.181Z" stroke="#63737A" stroke-width="2.32156" stroke-miterlimit="10" stroke-linecap="round" stroke-linejoin="round"/>
<path d="M461.236 491.181C471.137 491.181 479.164 483.097 479.164 473.124C479.164 463.152 471.137 455.068 461.236 455.068C451.335 455.068 443.309 463.152 443.309 473.124C443.309 483.097 451.335 491.181 461.236 491.181Z" stroke="#63737A" stroke-width="2.32156" stroke-miterlimit="10" stroke-linecap="round" stroke-linejoin="round"/>
<path d="M379.724 258.508C363.215 280.821 345.804 290.881 330.972 281.337C318.203 273.082 305.176 212.206 300.92 190.925C300.017 186.282 299.502 183.573 299.502 183.573L298.083 177.253C298.083 177.253 284.411 175.061 281.058 174.029C277.576 172.997 273.964 171.062 271.256 166.161C268.547 161.26 261.196 153.006 264.678 151.845C268.16 150.684 277.447 162.034 277.447 162.034C277.447 162.034 285.572 162.292 297.954 160.744C310.335 159.197 316.655 159.197 320.525 164.356C322.717 167.193 324.007 172.223 324.007 172.223L326.844 179.833L346.191 231.294C346.191 231.294 347.094 229.617 348.512 226.909C362.313 234.776 371.341 246.384 379.724 258.508Z" fill="#F4C2C9"/>
<path d="M372.887 267.021C375.209 264.441 377.53 261.604 379.723 258.508C371.339 246.513 362.182 234.777 348.382 226.909C347.866 227.941 347.479 228.715 347.092 229.36C358.442 240.065 366.696 252.962 372.887 267.021Z" fill="#E26E85"/>
<path d="M346.189 226.265C359.99 234.261 371.469 246.514 379.852 258.509C381.787 255.8 383.85 252.963 385.785 249.996C374.693 238.904 362.311 228.973 349.93 220.461C348.382 222.525 346.963 224.588 346.189 226.265Z" fill="white"/>
<path d="M377.66 180.349C377.66 180.349 369.921 186.282 361.409 202.275C357.668 209.24 353.154 215.431 349.801 220.332C362.182 228.973 374.564 238.775 385.656 249.867C387.978 246.256 390.299 242.386 392.621 238.388C412.741 202.533 389.912 173.771 377.66 180.349Z" fill="#6DAFA7"/>
<path d="M346.189 231.294C346.189 231.294 348.898 238.775 351.22 245.481" stroke="#E26E85" stroke-width="2.32156" stroke-miterlimit="10" stroke-linecap="round" stroke-linejoin="round"/>
<path d="M270.094 164.227C270.094 164.227 263.774 159.455 260.421 157.263C257.068 155.07 262.614 152.62 267.644 154.683C272.674 156.747 281.444 159.713 281.444 159.713C281.444 159.713 276.027 154.554 274.608 152.748C273.19 150.943 276.801 149.395 280.283 151.588C283.895 153.909 289.698 159.197 293.826 161.003C297.953 162.809 297.824 167.452 295.76 168.226C293.826 168.999 277.962 167.323 270.094 164.227Z" fill="#F4C2C9"/>
<path d="M316.523 161.132C316.523 161.132 309.559 157.65 306.721 156.489C303.884 155.328 299.37 153.909 298.08 153.78C296.919 153.651 294.727 155.844 298.983 159.326C303.239 162.809 305.69 164.872 305.69 164.872C305.69 164.872 318.587 165.388 316.523 161.132Z" fill="#F4C2C9"/>
<path d="M377.661 179.833C377.661 179.833 385.141 169.644 422.028 167.065C458.915 164.485 480.712 172.611 488.451 185.379C496.189 198.148 475.166 269.729 473.232 279.661C471.297 289.592 481.099 314.484 481.099 319.772C481.099 325.06 438.795 340.666 412.097 340.15C389.397 339.634 370.18 332.928 361.152 328.671C358.83 327.64 357.54 325.06 358.056 322.609C359.604 314.871 362.957 297.201 366.182 281.853C370.438 261.346 358.701 210.401 377.661 179.833Z" fill="#FFE779"/>
<path d="M447.563 175.19C447.434 184.218 431.957 200.082 418.802 201.372C405.646 203.823 398.682 191.57 398.682 181.381C398.682 171.063 410.16 161.519 423.574 160.229C436.214 158.81 447.692 166.033 447.563 175.19Z" fill="white"/>
<path d="M406.937 155.586L405.002 172.095C405.002 172.095 400.359 186.798 414.933 188.603C429.508 190.409 439.439 176.222 439.954 171.321L438.02 134.305C438.149 134.434 411.838 136.884 406.937 155.586Z" fill="#F4C2C9"/>
<path d="M424.866 163.969C418.933 165.774 412.226 165.516 405.778 165.387L405.133 171.191C412.613 171.836 419.965 168.999 424.866 163.969Z" fill="#E26E85"/>
<path d="M405.52 307.133H337.55C334.455 307.133 331.875 304.94 331.359 301.845L324.008 255.027C323.492 252.06 325.813 249.352 328.909 249.352H396.879C399.974 249.352 402.554 251.544 403.07 254.64L410.421 301.458C410.937 304.424 408.616 307.133 405.52 307.133Z" fill="#22272E"/>
<path d="M362.958 259.928C364.098 259.928 365.022 259.004 365.022 257.864C365.022 256.725 364.098 255.801 362.958 255.801C361.818 255.801 360.895 256.725 360.895 257.864C360.895 259.004 361.818 259.928 362.958 259.928Z" fill="#F4C2C9"/>
<path d="M420.612 278.371C420.612 278.371 415.453 272.567 412.358 270.633C409.262 268.698 405.006 267.279 405.006 267.279L404.877 278.242C404.877 278.242 417.388 280.306 420.612 278.371Z" fill="#F4C2C9"/>
<path d="M427.705 277.598C423.32 278.114 420.612 278.372 420.612 278.372C420.612 278.372 417.645 276.05 414.55 274.373C411.454 272.697 405.521 273.471 400.105 273.213C394.688 272.955 388.755 272.697 382.693 272.181C378.05 271.794 373.793 271.278 373.277 273.213C372.504 276.308 379.468 277.082 379.468 277.082C379.468 277.082 372.891 277.082 371.343 277.856C368.118 279.404 371.085 281.983 371.085 281.983C366.442 284.176 370.698 287.529 370.698 287.529C370.698 287.529 368.247 288.561 370.053 291.398C373.793 297.46 392.753 303.006 397.009 303.006C403.974 303.006 416.097 303.006 416.097 303.006C416.097 303.006 420.999 303.393 429.253 304.167C431.575 295.525 431.446 286.11 427.705 277.598Z" fill="#F4C2C9"/>
<path d="M437.636 276.566C433.896 276.953 430.542 277.34 427.834 277.598C431.445 286.11 431.703 295.525 429.253 304.167C431.961 304.425 435.057 304.683 438.41 304.941C441.634 295.654 442.408 285.852 437.636 276.566Z" fill="#22272E"/>
<path d="M470.912 249.61C476.072 261.346 480.973 271.793 480.973 271.793C476.329 272.438 453.759 274.889 437.508 276.565C442.28 285.981 441.506 295.654 438.282 305.069C447.439 305.843 458.789 306.875 471.299 308.036C502.512 310.873 522.503 309.196 526.888 292.43C530.628 278.113 525.985 264.571 510.895 229.36C497.224 235.293 483.294 241.226 470.912 249.61Z" fill="#F4C2C9"/>
<path d="M511.022 229.36C497.221 235.293 483.292 241.226 470.91 249.61C471.297 250.383 471.684 251.286 472.071 252.06C484.066 241.742 499.285 239.291 514.633 237.744C513.472 235.035 512.311 232.327 511.022 229.36Z" fill="#E26E85"/>
<path d="M512.055 219.43C493.869 177.512 481.875 178.157 481.875 178.157C460.465 170.29 451.952 199.438 459.82 223.299C461.368 228.2 464.979 235.809 468.461 243.677C480.843 233.617 498.126 227.168 513.474 222.525C512.829 221.493 512.442 220.461 512.055 219.43Z" fill="#6DAFA7"/>
<path d="M468.334 243.677C469.237 245.612 470.14 247.675 470.913 249.61C483.166 241.226 501.997 234.262 515.797 228.329C515.023 226.394 514.12 224.46 513.218 222.396C497.998 227.168 480.587 233.488 468.334 243.677Z" fill="white"/>
<path d="M379.598 277.082C379.598 277.082 388.11 278.243 390.69 278.759C393.269 279.275 398.815 279.533 398.815 279.533" stroke="#E26E85" stroke-width="2.32156" stroke-miterlimit="10" stroke-linecap="round" stroke-linejoin="round"/>
<path d="M371.086 281.983C371.086 281.983 380.243 284.175 383.726 284.949C387.208 285.723 397.784 286.884 397.784 286.884" stroke="#E26E85" stroke-width="2.32156" stroke-miterlimit="10" stroke-linecap="round" stroke-linejoin="round"/>
<path d="M370.697 287.529C370.697 287.529 375.856 290.366 381.015 292.043C386.303 293.849 395.719 295.138 395.719 295.138" stroke="#E26E85" stroke-width="2.32156" stroke-miterlimit="10" stroke-linecap="round" stroke-linejoin="round"/>
<path d="M480.971 271.665C480.971 271.665 496.448 269.214 500.188 269.472" stroke="#E26E85" stroke-width="2.32156" stroke-miterlimit="10" stroke-linecap="round" stroke-linejoin="round"/>
<path d="M435.314 293.72C439.018 293.72 442.021 290.717 442.021 287.013C442.021 283.309 439.018 280.306 435.314 280.306C431.61 280.306 428.607 283.309 428.607 287.013C428.607 290.717 431.61 293.72 435.314 293.72Z" fill="white"/>
<path d="M390.041 102.577C390.041 102.577 383.85 107.993 385.785 117.796C387.719 127.598 401.52 137.013 401.52 137.013C401.52 137.013 407.582 93.6772 390.041 102.577Z" fill="#22272E"/>
<path d="M391.332 106.575C391.332 106.575 389.655 131.338 389.268 141.141C388.881 150.943 392.75 164.227 407.067 166.549C421.383 168.87 435.957 162.035 440.729 143.462C445.501 124.89 444.985 103.609 428.735 100.771C412.484 97.9338 391.332 106.575 391.332 106.575Z" fill="#F4C2C9"/>
<path d="M435.957 135.982C435.957 135.982 436.473 131.338 432.861 126.695C429.25 121.923 429.766 116.635 429.766 116.635C429.766 116.635 427.057 102.706 406.808 115.99C398.296 121.536 378.305 114.314 381.916 98.5786C387.462 74.3311 417.9 84.6492 426.671 86.1969C435.441 87.7446 444.082 87.7446 445.63 96.7729C445.63 96.7729 459.301 102.577 455.303 118.57C450.015 139.464 439.439 161.132 439.439 161.132C439.439 161.132 438.278 149.266 435.957 135.982Z" fill="#22272E"/>
<path d="M433.895 135.852C433.895 135.852 436.861 125.921 444.729 128.113C452.596 130.306 448.727 145.654 437.893 147.589" fill="#F4C2C9"/>
<path d="M394.171 132.885C393.268 132.885 392.494 132.112 392.494 131.209V129.661C392.494 128.758 393.268 127.984 394.171 127.984C395.074 127.984 395.847 128.758 395.847 129.661V131.209C395.976 132.112 395.203 132.885 394.171 132.885Z" fill="#22272E"/>
<path d="M413.774 132.885C412.871 132.885 412.098 132.112 412.098 131.209V129.661C412.098 128.758 412.871 127.984 413.774 127.984C414.677 127.984 415.451 128.758 415.451 129.661V131.209C415.451 132.112 414.677 132.885 413.774 132.885Z" fill="#22272E"/>
<path d="M390.945 123.469C391.074 122.051 392.493 119.084 395.201 119.213C398.941 119.471 400.36 121.922 399.973 123.469C399.586 124.759 397.136 123.856 395.201 123.727C393.008 123.469 390.816 124.63 390.945 123.469Z" fill="#22272E"/>
<path d="M402.035 130.563C402.68 131.982 402.551 133.659 402.164 135.078C402.035 135.851 401.648 136.496 401.39 137.27C401.261 137.657 401.003 137.915 400.874 138.302C400.745 138.56 400.358 139.076 400.358 139.205C399.843 140.108 399.843 141.011 400.487 142.042C400.874 142.558 401.261 143.074 401.777 143.461C402.293 143.848 402.809 144.235 403.583 144.364C402.938 144.751 402.035 144.622 401.261 144.493C400.487 144.235 399.714 143.848 399.069 143.203C398.424 142.558 397.908 141.784 397.779 140.882C397.521 139.85 397.779 138.818 398.295 138.044C398.553 137.528 398.682 137.399 398.94 137.141C399.198 136.883 399.327 136.625 399.456 136.238C399.843 135.594 400.101 135.078 400.487 134.433C401.003 133.272 401.648 131.982 402.035 130.563Z" fill="#22272E"/>
<path d="M421.511 123.212C421.382 121.407 419.835 118.956 416.997 119.214C412.999 119.472 411.193 121.665 411.709 123.599C412.096 125.147 414.934 123.857 416.997 123.599C419.319 123.212 421.511 124.76 421.511 123.212Z" fill="#22272E"/>
<path d="M405.646 152.36C405.388 151.458 405.259 150.555 405.13 149.781C405.001 148.491 406.033 147.459 407.194 147.459C408.612 147.459 410.418 147.072 412.74 146.299C417.641 144.493 418.286 147.846 416.867 151.2C413.256 150.426 409.257 151.587 405.646 152.36Z" fill="#22272E"/>
<path d="M416.996 151.329C415.707 154.166 412.869 157.132 409.516 156.488C407.323 156.101 406.162 154.295 405.646 152.489C409.258 151.586 413.256 150.426 416.996 151.329Z" fill="#E26E85"/>
<path d="M444.986 134.046C443.825 133.917 442.794 134.046 442.407 134.433C442.278 134.691 442.149 134.949 442.02 135.207C441.891 135.465 441.891 136.11 441.762 136.497C441.633 137.4 441.504 138.431 441.117 139.721C440.859 140.366 440.343 141.011 439.698 141.269C439.053 141.527 438.408 141.527 437.893 141.269C438.408 140.882 438.795 140.624 439.053 140.237C439.311 139.85 439.311 139.592 439.311 139.076C439.311 138.173 439.311 137.142 439.44 135.981C439.569 135.336 439.698 134.82 439.956 134.175C440.214 133.53 440.73 132.885 441.504 132.627C442.278 132.369 443.052 132.498 443.567 132.627C444.212 133.272 444.728 133.659 444.986 134.046Z" fill="#22272E"/>
</svg>
