<svg width="800" height="800" viewBox="0 0 800 800" fill="none" xmlns="http://www.w3.org/2000/svg">
<path d="M404.44 460.302L402.509 469.66C401.766 473.522 398.201 476.493 394.191 476.493H375.03C371.02 476.493 367.603 473.67 366.712 469.66L364.781 460.302L384.536 459.411L404.44 460.302Z" fill="#22272E"/>
<path d="M389.741 471.888H379.047V626.363H389.741V471.888Z" fill="#22272E"/>
<path d="M389.587 636.167H379.338C377.704 636.167 376.219 634.83 376.219 633.047V603.786C376.219 602.152 377.556 600.667 379.338 600.667H389.587C391.221 600.667 392.706 602.004 392.706 603.786V633.047C392.557 634.681 391.221 636.167 389.587 636.167Z" fill="#22272E"/>
<path d="M385.581 627.255C385.581 627.255 374.738 636.018 368.945 668.844" stroke="#22272E" stroke-width="5.94136" stroke-miterlimit="10" stroke-linecap="round" stroke-linejoin="round"/>
<path d="M381.72 629.186C381.72 629.186 349.043 621.314 331.219 660.081" stroke="#22272E" stroke-width="5.94136" stroke-miterlimit="10" stroke-linecap="round" stroke-linejoin="round"/>
<path d="M387.359 628.442C387.359 628.442 416.621 623.244 435.039 664.833" stroke="#22272E" stroke-width="5.94136" stroke-miterlimit="10" stroke-linecap="round" stroke-linejoin="round"/>
<path d="M331.22 673.3C338.52 673.3 344.439 667.382 344.439 660.081C344.439 652.78 338.52 646.861 331.22 646.861C323.919 646.861 318 652.78 318 660.081C318 667.382 323.919 673.3 331.22 673.3Z" fill="#6DAFA7"/>
<path d="M429.395 673.3C436.696 673.3 442.615 667.382 442.615 660.081C442.615 652.78 436.696 646.861 429.395 646.861C422.094 646.861 416.176 652.78 416.176 660.081C416.176 667.382 422.094 673.3 429.395 673.3Z" stroke="#22272E" stroke-width="2.67361" stroke-miterlimit="10" stroke-linecap="round" stroke-linejoin="round"/>
<path d="M367.309 691.421C374.61 691.421 380.529 685.502 380.529 678.201C380.529 670.9 374.61 664.982 367.309 664.982C360.008 664.982 354.09 670.9 354.09 678.201C354.09 685.502 360.008 691.421 367.309 691.421Z" fill="#6DAFA7"/>
<path d="M384.688 463.125C434.646 463.125 475.145 455.145 475.145 445.301C475.145 435.457 434.646 427.477 384.688 427.477C334.73 427.477 294.23 435.457 294.23 445.301C294.23 455.145 334.73 463.125 384.688 463.125Z" fill="#FFE779"/>
<path d="M384.688 453.916C434.646 453.916 475.145 445.936 475.145 436.092C475.145 426.248 434.646 418.268 384.688 418.268C334.73 418.268 294.23 426.248 294.23 436.092C294.23 445.936 334.73 453.916 384.688 453.916Z" fill="#22272E"/>
<path d="M277.152 640.028C278.192 647.009 279.529 656.813 278.935 660.377C278.935 660.377 281.46 666.467 295.422 665.576C309.384 664.685 316.514 657.11 316.514 657.11C316.514 657.11 316.068 648.792 315.474 640.325C302.552 642.85 288.887 642.553 277.152 640.028Z" fill="#F4C2C9"/>
<path d="M275.967 632.751C275.967 632.751 276.562 635.87 277.156 640.178C288.89 642.703 302.555 643 315.626 640.475C315.18 632.157 314.735 623.69 314.735 621.908C314.586 618.195 274.185 621.611 275.967 632.751Z" fill="#E26E85"/>
<path d="M279.084 657.109C279.084 657.109 278.193 659.189 275.965 667.655C273.737 676.122 253.09 699.293 253.684 704.343C254.279 709.393 257.992 713.998 273.291 713.998C288.59 713.998 306.711 714.889 311.761 712.81C313.247 712.216 314.88 710.582 316.217 708.651C320.079 703.155 321.564 696.322 320.822 689.638C319.634 678.795 317.554 660.823 317.554 659.189C317.554 656.664 316.514 654.881 316.514 654.881C316.514 654.881 312.355 660.674 307.305 661.714C302.255 662.754 301.809 656.515 293.789 654.881C285.768 653.248 282.203 660.823 280.866 661.12C279.381 661.12 279.084 658.298 279.084 657.109Z" fill="#22272E"/>
<path d="M448.856 650.723C451.381 643.148 453.906 635.276 454.649 632.454C456.283 626.661 416.327 618.788 413.653 631.117L412.168 638.246C422.12 646.564 435.933 654.139 448.856 650.723Z" fill="#E26E85"/>
<path d="M412.167 638.246L407.562 659.932C407.562 659.932 409.939 664.239 420.782 667.507C431.625 670.775 443.359 667.507 443.359 667.507C443.359 667.507 446.033 659.189 448.855 650.574C435.932 654.139 422.119 646.564 412.167 638.246Z" fill="#F4C2C9"/>
<path d="M409.052 653.248C409.052 653.248 406.527 655.922 404.151 662.011C401.774 667.953 376.969 696.471 376.524 701.373C376.078 706.275 381.128 711.028 386.327 712.81C391.377 714.444 426.579 719.048 432.966 716.82C439.205 714.741 442.473 701.373 442.621 687.708C442.77 674.043 446.037 660.08 446.037 660.08C446.037 660.08 444.552 663.942 440.096 664.982C435.64 666.17 434.006 656.219 426.728 652.802C419.45 649.386 412.32 656.664 410.686 657.852C408.904 659.041 408.755 654.436 409.052 653.248Z" fill="#22272E"/>
<path d="M336.269 362.27C336.269 362.27 321.564 374.153 304.334 386.481C287.104 398.81 235.563 427.477 235.711 459.411C235.86 479.315 247 542.59 254.13 573.931C261.259 605.272 253.238 618.046 262.596 629.037C272.102 640.177 299.729 637.207 311.612 632.305C323.495 627.403 330.179 615.075 324.386 596.954C318.593 578.833 314.434 545.858 316.514 521.201C318.593 496.545 316.959 471.74 316.959 471.74C316.959 471.74 328.842 464.313 341.616 459.857C354.39 455.401 363.45 450.796 363.45 450.796C363.45 450.796 408.753 450.351 411.575 451.688C414.398 452.876 429.251 477.978 430.142 481.691C430.142 481.691 427.32 491.643 424.349 528.183C421.379 564.87 401.178 601.113 404.891 616.263C408.605 631.414 417.665 638.098 429.994 641.811C442.322 645.524 459.997 645.079 467.87 628.294C475.742 611.362 481.386 571.406 489.259 548.829C497.131 526.252 509.459 488.673 508.568 470.997C507.677 453.321 484.803 391.977 470.989 370.588C457.175 349.199 347.557 338.208 336.269 362.27Z" fill="#22272E"/>
<path d="M316.81 471.888C316.81 471.888 315.919 461.936 314.582 458.223" stroke="#63737A" stroke-width="2.67361" stroke-miterlimit="10" stroke-linecap="round" stroke-linejoin="round"/>
<path d="M430.145 481.691C430.145 481.691 432.521 470.7 435.195 464.907" stroke="#63737A" stroke-width="2.67361" stroke-miterlimit="10" stroke-linecap="round" stroke-linejoin="round"/>
<path d="M270.914 485.851C284.203 485.851 294.977 475.078 294.977 461.789C294.977 448.499 284.203 437.726 270.914 437.726C257.625 437.726 246.852 448.499 246.852 461.789C246.852 475.078 257.625 485.851 270.914 485.851Z" stroke="#63737A" stroke-width="2.67361" stroke-miterlimit="10" stroke-linecap="round" stroke-linejoin="round"/>
<path d="M472.621 491.94C485.91 491.94 496.684 481.167 496.684 467.877C496.684 454.588 485.91 443.815 472.621 443.815C459.332 443.815 448.559 454.588 448.559 467.877C448.559 481.167 459.332 491.94 472.621 491.94Z" stroke="#63737A" stroke-width="2.67361" stroke-miterlimit="10" stroke-linecap="round" stroke-linejoin="round"/>
<path d="M275.816 679.687C275.816 679.687 289.333 669.438 308.494 680.726" stroke="white" stroke-width="2.67361" stroke-miterlimit="10" stroke-linecap="round" stroke-linejoin="round"/>
<path d="M270.91 689.639C270.91 689.639 284.427 679.39 303.588 690.679" stroke="white" stroke-width="2.67361" stroke-miterlimit="10" stroke-linecap="round" stroke-linejoin="round"/>
<path d="M402.516 675.38C402.516 675.38 419.597 667.804 436.233 684.292" stroke="white" stroke-width="2.67361" stroke-miterlimit="10" stroke-linecap="round" stroke-linejoin="round"/>
<path d="M397.465 685.034C397.465 685.034 414.546 677.459 431.182 693.946" stroke="white" stroke-width="2.67361" stroke-miterlimit="10" stroke-linecap="round" stroke-linejoin="round"/>
<path d="M308.945 306.868C308.945 306.868 305.38 305.085 302.113 297.361C298.845 289.638 309.836 287.113 310.876 291.42C311.916 295.579 308.945 306.868 308.945 306.868Z" fill="#22272E"/>
<path d="M254.434 291.866C254.434 291.866 260.375 305.828 281.17 305.531C297.508 305.383 346.079 289.341 349.198 288.004C352.317 286.667 367.616 267.506 362.269 246.86C356.773 226.214 342.217 227.848 342.217 227.848C342.217 227.848 324.987 234.086 292.458 256.961C259.929 279.835 255.028 280.875 254.434 291.866Z" fill="#F4C2C9"/>
<path d="M303.6 276.864C303.6 276.864 308.056 293.499 308.948 306.867C308.948 306.867 350.537 292.46 354.102 289.489C357.518 286.518 365.39 258.445 358.706 244.483C352.022 230.521 342.962 225.322 342.962 225.322C342.962 225.322 324.841 234.828 305.68 247.899C286.37 261.119 303.6 276.864 303.6 276.864Z" fill="#6DAFA7"/>
<path d="M317.411 303.897C317.411 303.897 314.886 271.517 304.191 247.9" stroke="#22272E" stroke-width="2.67361" stroke-miterlimit="10" stroke-linecap="round" stroke-linejoin="round"/>
<path d="M490.3 233.789C469.654 216.708 441.729 220.867 427.767 221.461C413.805 222.055 401.477 221.164 374.444 218.787C359.739 217.451 350.233 220.718 344.588 224.135C340.281 226.66 337.31 230.819 335.973 235.572C332.557 248.94 333.003 264.387 333.003 264.387C333.3 274.636 334.637 284.142 335.825 290.826C337.013 302.56 338.053 315.037 338.053 320.682C338.053 333.01 328.992 361.826 329.438 372.074C329.883 382.323 358.699 391.087 385.881 392.275C413.062 393.463 459.553 381.135 467.426 379.055C475.298 376.976 475.001 368.807 472.773 354.399C471.139 344.15 471.436 318.008 473.961 295.876C478.269 299.59 484.359 304.788 489.854 309.69C501.737 297.213 515.105 285.628 528.028 273.745C514.66 257.406 499.955 241.81 490.3 233.789Z" fill="#FFE779"/>
<path d="M382.762 237.057C382.762 237.057 382.465 254.584 401.923 255.772C421.381 256.96 436.531 236.908 433.561 223.392C430.738 210.024 382.762 217.302 382.762 237.057Z" fill="#F4C2C9"/>
<path d="M423.167 232.452C413.809 243.147 395.391 248.791 383.211 241.067C383.805 243.889 385.29 247.603 388.558 250.722C403.263 255.772 417.374 246.414 423.167 232.452Z" fill="#E26E85"/>
<path d="M368.951 178.385C368.951 178.385 370.585 190.417 368.951 206.904C367.317 223.391 378.16 243.592 395.836 246.265C414.848 249.236 432.969 238.69 438.317 206.013C443.812 173.335 436.386 152.986 412.026 151.055C387.666 149.124 368.803 152.095 368.951 178.385Z" fill="#F4C2C9"/>
<path d="M448.416 181.802C447.525 189.08 446.039 194.428 444.257 198.141C441.435 204.231 438.464 206.162 438.464 206.162L420.64 196.358C420.64 196.358 370.435 208.093 369.099 178.386C368.95 174.97 369.099 171.553 369.544 168.583C370.584 161.304 373.258 155.215 377.268 150.313C377.862 149.57 378.605 148.679 379.348 148.085C388.26 139.321 401.925 135.608 417.966 138.133C446.485 142.441 450.495 162.493 448.416 181.802Z" fill="#F4C2C9"/>
<path d="M399.402 150.758C381.43 151.055 367.616 155.957 368.953 178.386C368.953 178.386 369.101 180.019 369.398 182.842C372.963 177.494 380.835 177.791 385.44 173.633C392.273 167.84 397.323 159.967 399.402 150.758Z" fill="#E26E85"/>
<path d="M450.942 171.999C450.942 169.622 450.2 167.543 448.863 165.76C449.308 164.572 449.605 163.235 449.605 161.899C449.605 157.888 447.378 154.472 444.258 152.689C443.813 147.342 439.505 143.035 434.009 142.886C432.227 139.618 428.662 137.39 424.652 137.39C423.166 137.39 421.681 137.688 420.344 138.282C418.413 136.054 415.591 134.568 412.324 134.568C409.798 134.568 407.57 135.46 405.788 136.796C404.154 135.757 402.075 135.014 399.995 135.014C396.43 135.014 393.163 136.796 391.232 139.619C390.489 139.47 389.598 139.321 388.707 139.321C383.953 139.321 379.943 142.441 378.606 146.748C373.556 147.491 369.546 151.947 369.546 157.294C369.546 157.888 369.546 158.334 369.694 158.779C367.763 162.641 368.06 168.731 369.397 168.434C372.516 167.691 378.606 166.949 384.696 169.919C393.311 174.227 397.173 173.187 406.531 169.919C416.928 166.355 433.267 164.275 435.643 182.693C436.237 187.446 430.89 197.992 438.317 201.26C440.248 202.151 442.327 200.666 444.258 197.844C444.852 196.656 445.447 195.17 445.892 193.536C449.011 191.605 450.942 188.338 450.942 184.476C450.942 182.099 450.2 180.02 448.863 178.237C450.2 176.603 450.942 174.375 450.942 171.999Z" fill="#22272E"/>
<path d="M436.087 202.746C436.087 202.746 439.8 194.279 444.405 196.804C448.267 198.884 444.85 218.342 434.453 218.49" fill="#F4C2C9"/>
<path d="M393.606 196.804C394.349 198.883 394.646 201.111 394.349 203.488C394.201 204.676 394.052 205.716 393.606 206.904C393.161 207.944 392.864 208.835 392.418 209.875C392.121 210.766 391.824 211.806 391.824 212.4C391.824 212.994 392.27 213.885 392.864 214.479C394.052 215.816 395.983 216.707 398.211 216.559C396.28 217.747 393.458 217.598 391.527 216.113C390.487 215.37 389.596 214.182 389.447 212.697C389.299 211.211 389.745 210.023 390.042 208.983C390.487 207.944 390.933 206.904 391.378 206.013C391.824 205.122 392.121 204.23 392.418 203.191C392.864 201.111 393.161 199.032 393.606 196.804Z" fill="#22272E"/>
<path d="M395.984 226.511C395.984 226.511 402.817 224.283 408.016 229.481" stroke="#22272E" stroke-width="2.67361" stroke-miterlimit="10" stroke-linecap="round" stroke-linejoin="round"/>
<path d="M376.822 187.892C378.753 187.446 380.536 185.961 384.546 185.813C387.22 185.664 388.854 185.813 389.151 183.882C389.448 182.396 387.665 180.465 384.695 180.465C378.902 180.465 371.475 189.229 376.822 187.892Z" fill="#22272E"/>
<path d="M422.867 189.971C420.936 189.377 419.451 187.743 415.44 187.149C412.767 186.703 411.133 186.703 411.133 184.772C410.984 183.139 412.915 181.505 415.886 181.802C421.382 182.396 428.066 191.754 422.867 189.971Z" fill="#22272E"/>
<path d="M384.545 202.597C385.882 202.597 387.07 201.557 387.219 200.22V198.735C387.219 197.398 386.179 196.21 384.842 196.061C383.506 196.061 382.317 197.101 382.169 198.438V199.923C382.02 201.408 383.209 202.597 384.545 202.597Z" fill="#22272E"/>
<path d="M413.66 203.785C414.997 203.785 416.185 202.745 416.334 201.408V199.923C416.334 198.586 415.294 197.398 413.957 197.249C412.62 197.249 411.432 198.289 411.284 199.626V201.111C411.135 202.448 412.175 203.636 413.66 203.785Z" fill="#22272E"/>
<path d="M442.473 204.082C441.879 203.934 441.285 203.934 441.136 204.231C440.988 204.379 440.839 204.825 440.839 205.27C440.691 205.716 440.691 206.162 440.691 206.756C440.691 207.35 440.542 207.795 440.542 208.39C440.394 209.429 440.097 210.618 439.502 211.806C439.205 212.4 438.463 213.143 437.72 213.291C436.977 213.44 436.383 213.143 435.789 212.846C436.383 212.548 436.977 212.4 437.126 212.103C437.423 211.806 437.423 211.509 437.423 211.063C437.571 210.172 437.571 209.132 437.72 207.944C437.869 207.35 437.869 206.756 438.017 206.31C438.166 205.716 438.314 205.122 438.76 204.528C439.057 203.933 439.651 203.339 440.691 203.191C441.73 202.894 442.176 203.488 442.473 204.082Z" fill="#22272E"/>
<path d="M353.204 204.973C353.204 204.973 346.52 210.617 334.637 232.006C325.131 249.236 316.961 274.932 305.376 289.34C302.702 292.756 299.732 295.579 296.464 297.361C294.384 298.549 291.859 299.738 289.334 300.629C271.807 306.422 247.002 301.966 253.686 275.675C260.37 249.533 305.376 217.45 320.081 194.278C334.786 171.107 353.649 196.358 353.204 204.973Z" fill="#F4C2C9"/>
<path d="M305.374 289.34C302.7 292.757 299.729 295.579 296.462 297.361C294.382 298.549 291.857 299.738 289.332 300.629" stroke="#E26E85" stroke-width="2.67361" stroke-miterlimit="10" stroke-linecap="round" stroke-linejoin="round"/>
<path d="M354.687 158.779C354.687 158.779 362.708 154.917 365.53 153.58C368.352 152.244 374.888 150.907 377.264 150.164C379.789 149.57 379.938 153.283 375.927 156.848C371.917 160.413 364.787 170.068 359.886 171.107C355.132 172.296 352.31 161.75 354.687 158.779Z" fill="#E26E85"/>
<path d="M318.746 196.804C318.746 196.804 327.51 182.396 330.035 177.049C336.273 164.126 345.334 158.779 348.304 156.403C351.424 154.175 370.139 150.164 374.892 148.382C379.348 146.748 378.754 150.461 376.971 152.095C372.07 156.551 362.267 158.334 361.078 159.67C361.078 159.67 368.059 157.591 371.624 156.106C375.189 154.62 384.547 152.541 386.923 152.095C389.3 151.65 390.785 154.323 386.923 156.848C383.061 159.373 376.08 162.493 375.189 163.087C374.298 163.681 367.317 167.988 367.317 167.988C367.317 167.988 374.298 167.988 376.823 167.84C379.348 167.691 384.695 167.988 386.032 167.988C389.597 167.988 390.191 172.444 382.913 173.633C375.635 174.821 371.03 176.752 367.168 179.871C362.712 183.436 368.653 193.536 350.681 207.35C350.829 207.35 323.054 215.668 318.746 196.804Z" fill="#F4C2C9"/>
<path d="M367.313 167.988C367.313 167.988 366.422 168.137 364.64 168.879C362.857 169.622 360.332 171.999 360.332 171.999" stroke="#E26E85" stroke-width="2.67361" stroke-miterlimit="10" stroke-linecap="round" stroke-linejoin="round"/>
<path d="M361.076 159.67C361.076 159.67 358.551 160.413 356.768 161.156C354.986 161.898 352.906 164.126 352.906 164.126" stroke="#E26E85" stroke-width="2.67361" stroke-miterlimit="10" stroke-linecap="round" stroke-linejoin="round"/>
<path d="M320.973 192.645C324.686 192.497 337.46 193.833 344.144 215.817C344.292 216.411 344.292 217.005 343.847 217.45L338.054 226.214C337.905 226.362 337.757 226.362 337.608 226.214C336.569 222.946 330.033 203.191 314.734 201.854C314.14 201.854 313.843 201.112 314.14 200.666C315.477 198.735 318.15 195.022 319.339 193.536C319.784 192.942 320.378 192.645 320.973 192.645Z" fill="#22272E"/>
<path d="M333.456 204.129C335.548 200.506 334.48 195.973 331.07 194.004C327.66 192.035 323.2 193.376 321.108 196.999C319.016 200.622 320.085 205.156 323.495 207.124C326.905 209.093 331.365 207.752 333.456 204.129Z" fill="white"/>
<path d="M495.055 322.167C495.055 322.167 502.184 320.236 515.404 304.64C528.623 289.044 505.006 304.046 503.67 304.64C502.184 305.234 495.055 322.167 495.055 322.167Z" fill="#22272E"/>
<path d="M561.742 323.948C557.583 312.363 543.472 292.459 528.173 273.893C515.251 285.775 501.883 297.361 490 309.838C498.021 316.967 505.15 323.206 505.15 323.206C503.071 324.246 499.209 326.325 495.199 328.256C502.18 339.693 507.23 352.764 508.121 365.835C521.935 366.132 537.531 366.429 544.809 363.459C557.88 358.26 569.614 345.783 561.742 323.948Z" fill="#F4C2C9"/>
<path d="M481.983 334.792C481.983 334.792 479.458 331.227 478.27 329.89C477.081 328.553 470.249 323.949 467.427 321.572C464.605 319.196 462.228 322.612 464.753 326.771C467.278 330.93 468.764 338.059 470.694 339.99C472.477 341.921 482.28 340.139 481.983 334.792Z" fill="#F4C2C9"/>
<path d="M533.668 280.577C533.668 280.577 509.903 297.807 495.05 322.315C495.05 322.315 469.799 297.955 465.194 289.638C460.59 281.171 461.035 257.851 471.73 244.483C482.424 230.967 491.782 235.126 491.782 235.126C491.782 235.126 514.805 254.583 533.668 280.577Z" fill="#6DAFA7"/>
<path d="M488.371 315.63C488.371 315.63 504.116 287.557 527.881 273.001" stroke="#22272E" stroke-width="2.67361" stroke-miterlimit="10" stroke-linecap="round" stroke-linejoin="round"/>
<path d="M505.008 323.207C505.008 323.207 520.604 313.255 533.526 315.78" stroke="#E26E85" stroke-width="2.67361" stroke-miterlimit="10" stroke-linecap="round" stroke-linejoin="round"/>
<path d="M406.526 297.212L473.07 286.666C476.04 286.221 478.714 288.746 478.268 291.717L467.277 366.726C466.98 368.509 465.643 369.994 463.86 370.44L398.654 386.333C395.683 387.075 392.861 384.699 393.158 381.58L399.1 305.085C399.397 301.074 402.367 297.806 406.526 297.212Z" fill="#22272E"/>
<path d="M426.43 292.458L425.984 297.954C425.984 298.697 426.727 299.291 427.767 299.142L454.206 294.389C455.394 294.241 456.285 293.35 456.285 292.458L456.582 288.448C456.582 287.705 455.84 287.111 454.948 287.26L428.658 290.527C427.47 290.676 426.578 291.567 426.43 292.458Z" fill="#6DAFA7"/>
<path d="M481.984 334.791C481.984 334.791 473.072 332.712 470.993 333.306C468.913 333.9 461.635 334.791 456.288 335.98C450.94 337.168 441.286 336.722 437.721 338.059C434.156 339.545 435.493 342.664 435.493 342.664C435.493 342.664 431.78 341.921 430.591 343.852C428.809 346.674 432.522 348.457 432.522 348.457C429.552 347.565 427.026 349.496 428.363 352.318C429.403 354.398 434.305 357.517 438.612 359.597C442.92 361.676 451.238 364.35 451.238 364.35C451.238 364.35 447.376 363.904 442.771 363.458C438.464 363.161 436.533 365.241 439.058 367.617C441.583 369.845 457.179 374.45 462.972 373.113C468.764 371.925 475.151 368.212 483.766 365.984C487.48 365.092 497.134 365.389 507.977 365.686C507.086 352.615 502.185 339.545 495.055 328.107C488.668 331.524 481.984 334.791 481.984 334.791Z" fill="#F4C2C9"/>
<path d="M432.52 348.605C432.52 348.605 440.095 351.873 446.333 353.953C452.572 356.032 459.256 355.735 461.038 356.478" stroke="#E26E85" stroke-width="2.67361" stroke-miterlimit="10" stroke-linecap="round" stroke-linejoin="round"/>
<path d="M451.234 364.351C451.234 364.351 456.879 366.43 459.998 365.39" stroke="#E26E85" stroke-width="2.67361" stroke-miterlimit="10" stroke-linecap="round" stroke-linejoin="round"/>
<path d="M435.637 342.664C435.637 342.664 442.766 345.338 447.668 345.932C452.57 346.526 460.59 346.526 461.63 346.526" stroke="#E26E85" stroke-width="2.67361" stroke-miterlimit="10" stroke-linecap="round" stroke-linejoin="round"/>
<path d="M406.529 265.13C407.513 265.13 408.311 264.332 408.311 263.347C408.311 262.363 407.513 261.565 406.529 261.565C405.544 261.565 404.746 262.363 404.746 263.347C404.746 264.332 405.544 265.13 406.529 265.13Z" fill="#22272E"/>
<path d="M399.991 255.624C399.991 255.624 398.208 259.337 399.397 275.676" stroke="#22272E" stroke-width="2.67361" stroke-miterlimit="10" stroke-linecap="round" stroke-linejoin="round"/>
<path d="M341.168 124.914C341.168 124.914 334.633 132.044 325.869 124.914C317.106 117.785 328.394 104.119 331.959 107.833C335.524 111.695 316.363 118.824 315.769 109.467C315.175 100.109 325.869 99.5149 310.867 87.7808" stroke="#6DAFA7" stroke-width="2.67361" stroke-miterlimit="10" stroke-linecap="round" stroke-linejoin="round"/>
<path d="M390.632 110.357C390.632 110.357 400.584 106.793 397.019 98.7717C393.454 90.7509 384.245 98.7717 390.632 98.7717C397.019 98.7717 401.623 91.9392 397.762 82.5815" stroke="#6DAFA7" stroke-width="2.67361" stroke-miterlimit="10" stroke-linecap="round" stroke-linejoin="round"/>
<path d="M456.582 125.657C456.582 125.657 468.91 130.113 465.643 121.498C462.375 113.031 462.672 109.912 470.247 113.328C477.822 116.744 478.268 109.615 480.942 107.981" stroke="#6DAFA7" stroke-width="2.67361" stroke-miterlimit="10" stroke-linecap="round" stroke-linejoin="round"/>
</svg>
