<svg width="800" height="800" viewBox="0 0 800 800" fill="none" xmlns="http://www.w3.org/2000/svg">
<path d="M378.886 383.31L352.855 591.287C352.588 593.556 354.324 595.559 356.593 595.559C358.462 595.559 360.064 594.224 360.331 592.355L390.099 388.516L378.886 383.31Z" fill="#B8D8C7"/>
<path d="M459.783 413.079L485.814 621.056C486.081 623.325 484.346 625.328 482.076 625.328C480.207 625.328 478.606 623.993 478.339 622.124L448.57 418.285L459.783 413.079Z" fill="#B8D8C7"/>
<path d="M333.501 404.935L298.526 611.577C298.126 613.847 299.861 615.849 302.131 615.983C304 616.116 305.601 614.781 306.002 612.912L344.58 410.542L333.501 404.935Z" fill="#B8D8C7"/>
<path d="M431.484 384.244L450.707 592.889C450.974 595.158 453.11 596.76 455.246 596.226C457.114 595.826 458.316 594.09 458.182 592.355L443.632 386.78L431.484 384.244Z" fill="#B8D8C7"/>
<path d="M487.147 198.56C472.596 196.157 424.406 364.889 424.406 364.889H470.727C470.727 364.889 448.034 391.987 447.233 394.523C446.432 397.06 438.156 431.366 438.156 431.366C493.554 413.746 481.273 364.755 481.273 364.755C469.392 328.045 485.945 281.057 493.02 242.211C500.095 203.232 487.147 198.56 487.147 198.56Z" fill="#FFE779"/>
<path d="M315.477 422.422C315.477 422.422 316.678 440.71 364.334 443.38C411.99 446.05 473.395 441.378 481.405 387.314C481.538 387.314 325.088 407.204 315.477 422.422Z" fill="#FFE779"/>
<path d="M469.662 361.151C456.714 313.895 506.772 208.305 487.283 198.426C467.259 188.415 390.369 192.553 369.678 210.44C350.322 227.26 341.512 351.94 340.444 367.692C340.31 368.226 340.31 368.76 340.31 369.293C340.31 378.638 338.975 394.39 332.168 399.329C318.952 408.94 297.193 423.49 338.842 434.17C338.842 434.17 356.863 438.308 408.257 436.172C477.805 433.235 470.864 390.385 470.73 364.755C470.73 363.553 470.33 362.352 469.662 361.151Z" fill="white"/>
<path d="M283.848 600.898C283.848 600.898 289.721 628.931 291.056 631.2C292.391 633.47 302.403 638.409 316.019 634.404C329.635 630.266 330.035 625.327 330.035 625.327C330.035 625.327 327.365 593.156 327.365 589.551C327.232 585.947 281.578 579.54 283.848 600.898Z" fill="#B28D93"/>
<path d="M328.701 609.975C328.033 601.165 327.232 591.42 327.232 589.551C327.232 585.947 281.445 579.54 283.714 600.898C283.714 600.898 284.649 605.17 285.717 610.509C300.134 614.381 314.951 614.114 328.701 609.975Z" fill="#896068"/>
<path d="M289.589 626.394C289.589 626.394 287.987 628.931 287.987 642.146C287.987 655.362 267.963 685.263 269.298 693.406C270.633 701.549 326.966 703.552 332.039 697.544C337.111 691.404 331.772 647.219 332.172 642.547C332.439 637.741 334.308 629.064 329.769 623.458C329.769 623.458 325.097 628.13 321.359 628.931C317.622 629.732 314.151 622.123 306.809 620.788C299.467 619.453 294.661 628.13 293.86 628.931C293.06 629.732 289.856 628.664 289.589 626.394Z" fill="#22272E"/>
<path d="M291.992 657.631C291.992 657.631 303.339 649.755 321.36 658.699" stroke="white" stroke-width="2.40282" stroke-miterlimit="10" stroke-linecap="round" stroke-linejoin="round"/>
<path d="M287.586 670.179C287.586 670.179 303.338 659.1 321.492 672.449" stroke="white" stroke-width="2.40282" stroke-miterlimit="10" stroke-linecap="round" stroke-linejoin="round"/>
<path d="M428.953 616.116C428.953 616.116 438.03 641.48 442.97 646.018C447.909 650.557 461.124 650.957 470.201 646.018C479.279 641.079 478.878 633.604 478.878 633.604C478.878 633.604 471.002 592.088 469.267 591.02C467.398 589.819 428.953 603.969 428.953 616.116Z" fill="#B28D93"/>
<path d="M428.953 616.116C428.953 616.116 431.222 622.39 434.026 629.332C449.511 632.002 462.993 626.796 476.075 619.32C473.672 607.173 470.335 591.688 469.267 591.02C467.398 589.819 428.953 603.969 428.953 616.116Z" fill="#896068"/>
<path d="M438.831 638.943C438.831 638.943 437.63 639.344 441.101 650.557C442.836 656.564 423.614 687.4 424.014 695.009C424.414 702.618 440.433 703.953 453.115 704.353C472.471 704.887 485.152 701.016 486.22 688.602C487.288 676.187 483.951 652.025 483.951 646.686C483.951 641.346 482.216 635.206 477.81 627.997C477.81 627.997 478.211 638.009 474.206 639.878C470.201 641.88 462.726 634.538 456.986 636.006C451.246 637.475 448.843 641.88 446.44 644.416C444.037 646.819 439.499 640.412 438.831 638.943Z" fill="#22272E"/>
<path d="M444.703 664.84C444.703 664.84 455.115 654.428 473.403 662.437" stroke="white" stroke-width="2.40282" stroke-miterlimit="10" stroke-linecap="round" stroke-linejoin="round"/>
<path d="M438.965 676.721C438.965 676.721 455.384 663.105 473.272 675.653" stroke="white" stroke-width="2.40282" stroke-miterlimit="10" stroke-linecap="round" stroke-linejoin="round"/>
<path d="M335.24 362.085C335.24 362.085 273.968 395.858 257.816 426.828C241.664 457.797 266.893 556.446 266.493 577.271C266.092 598.095 268.762 601.166 280.376 605.571C291.989 609.976 317.219 609.041 327.765 601.166C341.381 591.02 335.107 572.465 332.036 550.039C328.966 527.746 327.498 461.402 327.498 461.402C327.498 461.402 356.332 438.041 370.482 431.099C373.285 429.631 376.355 429.097 379.158 428.83C383.564 428.563 386.767 432.701 385.566 436.839C382.095 449.121 377.156 479.957 379.158 494.107C381.027 507.322 390.238 540.027 408.259 595.425C411.863 606.372 413.065 615.182 417.47 618.92C436.025 634.538 476.339 617.852 480.611 603.301C482.346 597.294 477.941 576.87 472.201 554.578C464.058 522.673 453.112 486.898 453.913 483.027C455.248 476.486 472.468 416.416 467.929 389.451C456.983 324.174 406.39 350.471 335.24 362.085Z" fill="#22272E"/>
<path d="M277.036 467.676C288.168 467.676 297.193 457.814 297.193 445.65C297.193 433.485 288.168 423.624 277.036 423.624C265.903 423.624 256.879 433.485 256.879 445.65C256.879 457.814 265.903 467.676 277.036 467.676Z" stroke="#63737A" stroke-width="2.40282" stroke-miterlimit="10" stroke-linecap="round" stroke-linejoin="round"/>
<path d="M410.64 516.323C422.034 514.757 429.919 503.658 428.252 491.534C426.585 479.409 415.998 470.85 404.603 472.417C393.209 473.983 385.324 485.082 386.991 497.206C388.658 509.331 399.246 517.89 410.64 516.323Z" stroke="#63737A" stroke-width="2.40282" stroke-miterlimit="10" stroke-linecap="round" stroke-linejoin="round"/>
<path d="M327.497 461.401C327.497 461.401 326.696 453.125 324.16 448.72" stroke="#63737A" stroke-width="2.40282" stroke-miterlimit="10" stroke-linecap="round" stroke-linejoin="round"/>
<path d="M380.891 428.429C380.891 428.429 382.36 419.219 379.957 416.549" stroke="#63737A" stroke-width="2.40282" stroke-miterlimit="10" stroke-linecap="round" stroke-linejoin="round"/>
<path d="M364.344 417.617C364.344 417.617 374.222 416.816 395.58 417.617" stroke="#63737A" stroke-width="2.40282" stroke-miterlimit="10" stroke-linecap="round" stroke-linejoin="round"/>
<path d="M343.116 226.325C343.116 226.325 335.373 229.128 323.359 247.283C311.746 264.77 301.333 275.716 301.333 275.716C301.333 275.716 287.584 260.632 273.167 251.021C258.75 241.409 242.331 226.325 242.331 226.325C242.331 226.325 231.518 220.452 224.71 228.461C217.902 236.337 221.373 248.084 221.373 248.084C221.373 248.084 237.525 269.976 261.286 298.543C276.771 317.232 292.523 330.581 305.739 326.442C323.359 320.969 358.067 289.466 364.074 276.918C369.947 264.236 365.542 221.786 343.116 226.325Z" fill="#6DAFA7"/>
<path d="M301.199 275.716C301.199 275.716 306.005 281.589 308.274 288.931" stroke="#22272E" stroke-width="2.40282" stroke-miterlimit="10" stroke-linecap="round" stroke-linejoin="round"/>
<path d="M242.864 226.993C242.864 226.993 232.184 218.182 224.575 218.983C214.697 220.051 214.831 217.782 208.557 219.117C205.62 219.784 200.28 221.92 194.674 228.862C189.067 235.803 187.065 239.407 187.065 239.407C187.065 239.407 181.191 226.859 177.587 228.862C173.983 230.731 182.526 250.087 185.463 252.089C188.4 254.091 197.077 250.621 200.147 252.089C203.217 253.557 211.493 250.887 211.493 250.887L222.84 248.084L225.777 251.288C226.711 252.356 228.18 252.623 229.515 252.222C232.184 251.154 236.723 248.618 239.66 242.344C244.332 232.599 242.864 226.993 242.864 226.993Z" fill="#B28D93"/>
<path d="M187.065 239.407C187.065 239.407 181.191 226.859 177.587 228.861C173.983 230.73 182.526 250.086 185.463 252.089C188.4 254.091 197.077 250.62 200.147 252.089" stroke="#896068" stroke-width="2.40282" stroke-miterlimit="10" stroke-linecap="round" stroke-linejoin="round"/>
<path d="M229.111 235.536C229.111 235.536 225.24 245.681 220.434 252.223C215.495 258.764 208.42 259.03 205.216 256.895C202.013 254.892 206.284 240.075 207.219 236.471C208.153 232.866 211.09 229.529 212.959 233.534C214.427 236.604 212.291 243.946 212.692 249.82" fill="#B28D93"/>
<path d="M206.954 255.693C206.954 255.693 202.816 258.229 200.413 257.429C198.011 256.628 196.542 254.892 196.142 251.288C195.741 247.817 197.076 236.871 196.943 234.068C196.809 231.265 201.214 228.995 203.083 235.403C204.952 241.944 204.018 247.417 205.219 248.752" fill="#B28D93"/>
<path d="M197.875 253.824C197.875 253.824 194.805 255.425 191.601 255.692C188.397 255.959 186.929 253.824 185.861 247.283C184.66 239.407 183.725 231.397 186.529 230.997C189.332 230.596 190.8 234.868 191.868 239.273C192.936 243.678 193.604 246.482 194.271 246.615" fill="#B28D93"/>
<path d="M209.893 218.983C209.893 218.983 202.284 219.517 199.48 219.517C196.811 219.517 189.335 217.648 187.733 219.917C186.131 222.187 190.67 226.325 198.813 227.393C206.956 228.594 214.832 222.053 209.893 218.983Z" fill="#B28D93"/>
<path d="M229.113 258.363C229.113 258.363 239.659 261.833 247.001 251.288C253.542 241.943 251.006 233.934 251.006 233.934" stroke="#22272E" stroke-width="2.40282" stroke-miterlimit="10" stroke-linecap="round" stroke-linejoin="round"/>
<path d="M284.378 321.103C284.378 321.103 281.842 318.033 288.383 316.164C295.058 314.295 320.421 313.227 317.35 320.569" stroke="#22272E" stroke-width="2.40282" stroke-miterlimit="10" stroke-linecap="round" stroke-linejoin="round"/>
<path d="M229.111 235.536C229.111 235.536 225.24 245.681 220.434 252.223C215.495 258.764 208.42 259.03 205.216 256.895C202.013 254.892 206.284 240.075 207.219 236.471C208.153 232.866 211.09 229.529 212.959 233.534C214.427 236.604 212.291 243.946 212.692 249.82" stroke="#896068" stroke-width="2.40282" stroke-miterlimit="10" stroke-linecap="round" stroke-linejoin="round"/>
<path d="M204.418 256.895C203.083 257.429 201.615 257.829 200.413 257.429C198.011 256.628 196.542 254.892 196.142 251.288C195.741 247.817 197.076 236.871 196.943 234.068C196.809 231.265 201.214 228.995 203.083 235.403C204.418 240.208 204.285 244.347 204.685 246.883" stroke="#896068" stroke-width="2.40282" stroke-miterlimit="10" stroke-linecap="round" stroke-linejoin="round"/>
<path d="M196.807 254.225C195.606 254.759 193.737 255.426 191.601 255.56C188.397 255.827 186.929 253.691 185.861 247.15C184.66 239.274 183.725 231.264 186.529 230.864C189.332 230.464 190.8 234.735 191.868 239.14C192.936 243.546 193.604 246.349 194.271 246.482" stroke="#896068" stroke-width="2.40282" stroke-miterlimit="10" stroke-linecap="round" stroke-linejoin="round"/>
<path d="M196.41 227.126C196.41 227.126 200.548 222.988 203.886 221.119" stroke="#896068" stroke-width="2.40282" stroke-miterlimit="10" stroke-linecap="round" stroke-linejoin="round"/>
<path d="M357.796 155.176C357.663 152.773 357.796 150.37 358.197 147.967C359.265 142.36 362.068 130.613 366.74 126.742C373.681 121.002 377.419 129.545 377.419 129.545C377.419 129.545 382.225 123.271 386.763 123.939C391.302 124.473 393.705 129.946 393.705 129.946C393.705 129.946 401.047 123.939 405.452 126.876C409.857 129.679 411.059 134.351 411.059 134.351C411.059 134.351 415.731 129.012 420.67 131.147C425.609 133.417 426.543 145.965 426.543 145.965C426.543 145.965 431.483 148.768 432.55 158.513C433.752 168.925 428.679 184.276 418.267 201.897C418.267 201.897 396.775 163.185 383.159 157.712C369.543 152.239 369.677 162.384 365.405 162.651C361.667 162.784 358.464 162.384 357.796 155.176Z" fill="#22272E"/>
<path d="M360.467 227.394C360.467 227.394 343.781 229.396 363.27 211.775C380.09 196.557 436.156 200.829 443.364 213.911C448.704 223.656 455.512 249.686 432.818 265.305C410.125 280.79 370.612 264.37 360.467 227.394Z" fill="#6DAFA7"/>
<path d="M392.505 222.455C392.505 222.455 408.123 221.787 421.205 221.253C434.154 220.586 453.376 220.986 463.922 235.403C476.07 251.822 457.782 308.422 455.112 322.839C452.442 337.256 462.721 354.61 462.187 366.49C461.92 373.298 453.376 391.186 415.465 394.523C372.615 398.394 334.837 389.584 330.699 364.888C327.896 348.336 338.842 336.722 335.104 309.757C333.102 295.607 330.566 249.82 335.371 236.871C340.177 223.923 348.186 219.651 392.505 222.455Z" fill="#FFE779"/>
<path d="M376.482 209.372C376.482 209.372 374.614 224.189 373.813 228.061C373.145 231.932 375.147 242.878 390.632 242.745C407.319 242.611 417.731 229.262 418.131 223.922C418.532 218.583 417.197 192.819 419.466 184.276C421.735 175.733 400.377 180.672 391.166 186.011C381.955 191.351 375.548 204.967 376.482 209.372Z" fill="#B28D93"/>
<path d="M404.118 208.171C395.442 210.173 384.762 217.649 375.552 216.18C375.285 218.45 374.884 220.852 374.617 222.988C386.898 224.991 398.512 217.248 404.118 208.171Z" fill="#896068"/>
<path d="M375.15 219.385C375.15 219.385 373.014 234.736 385.963 242.345C385.963 242.345 400.913 241.01 411.86 230.331C415.998 226.326 418.134 220.72 418.134 214.98V213.778C418.134 213.778 439.092 214.045 445.099 220.319C456.579 232.333 409.457 251.422 383.827 255.427C383.827 255.427 360.066 242.212 354.459 228.729C348.852 215.113 373.281 219.919 375.15 219.385Z" fill="#6DAFA7"/>
<path d="M379.422 247.016C379.422 247.016 373.282 265.037 371.68 286.129" stroke="#22272E" stroke-width="2.40282" stroke-miterlimit="10" stroke-linecap="round" stroke-linejoin="round"/>
<path d="M374.753 287.731C374.886 285.996 373.952 280.656 372.216 280.523C370.481 280.389 368.479 285.462 368.345 287.197C368.212 288.932 369.547 290.534 371.282 290.668C373.017 290.935 374.619 289.6 374.753 287.731Z" fill="#6DAFA7"/>
<path d="M395.037 247.416C395.037 247.416 393.168 266.372 396.506 287.196" stroke="#22272E" stroke-width="2.40282" stroke-miterlimit="10" stroke-linecap="round" stroke-linejoin="round"/>
<path d="M399.977 288.264C399.71 286.528 397.574 281.589 395.839 281.856C394.104 282.123 393.303 287.463 393.57 289.198C393.837 290.933 395.439 292.268 397.308 292.001C399.043 291.601 400.244 289.999 399.977 288.264Z" fill="#6DAFA7"/>
<path d="M346.32 348.336C348.055 345.666 353.395 336.055 354.463 325.509C354.73 322.839 357.133 320.97 359.669 321.237C369.547 322.305 391.573 324.308 408.126 322.839C410.796 322.572 413.065 324.575 413.332 327.244C413.866 332.984 416.402 342.729 426.281 352.207C427.082 352.874 427.615 353.809 427.749 354.877C428.416 358.481 429.885 367.291 429.484 374.767C428.95 383.978 367.011 390.252 345.653 371.296C344.585 370.362 344.051 368.893 344.051 367.558C344.184 363.954 344.718 356.479 345.653 350.338C345.786 349.404 346.053 348.87 346.32 348.336Z" fill="#6DAFA7"/>
<path d="M358.998 161.45C358.998 161.45 358.731 174.532 357.53 185.745C356.462 196.959 357.53 211.909 375.551 216.582C393.572 221.254 411.06 207.638 417.601 189.75C424.142 171.862 424.408 147.701 401.448 138.223C378.488 128.745 360.066 140.626 358.998 161.45Z" fill="#B28D93"/>
<path d="M426.145 172.93C424.41 181.34 423.209 185.879 423.209 185.879L417.602 180.005C417.602 180.005 407.991 178.67 406.656 161.45C406.389 158.513 404.787 155.843 402.117 154.508C394.241 150.37 390.103 156.511 374.752 155.443C369.546 155.042 361.536 154.241 361.803 146.232C362.471 125.408 394.642 127.01 409.86 136.487C425.078 145.832 427.881 164.654 426.145 172.93Z" fill="#22272E"/>
<path d="M411.195 181.206C411.195 181.206 414.666 173.33 420.406 174.131C426.547 174.932 427.081 193.354 411.195 194.422" fill="#B28D93"/>
<path d="M367.407 170.927C367.674 172.796 367.674 174.665 367.54 176.4C367.407 178.269 367.14 180.138 366.473 181.873C366.339 182.274 366.072 182.808 365.939 183.208C365.805 183.609 365.672 183.876 365.538 184.276C365.405 184.944 365.405 185.478 365.672 186.012C366.206 187.213 367.807 188.147 369.543 188.815C368.608 189.082 367.674 189.082 366.606 188.815C365.672 188.548 364.604 188.014 363.936 187.08C363.536 186.679 363.269 186.012 363.135 185.478C363.002 184.81 363.002 184.276 363.135 183.742C363.269 183.208 363.536 182.541 363.669 182.274C363.803 181.873 364.07 181.473 364.203 181.206C365.538 177.869 366.206 174.398 367.407 170.927Z" fill="#22272E"/>
<path d="M374.883 199.762C374.883 199.762 375.817 197.76 378.087 199.495C380.356 201.231 381.29 200.563 382.492 199.095C383.693 197.626 384.227 200.43 386.897 199.362" stroke="#22272E" stroke-width="2.40282" stroke-miterlimit="10" stroke-linecap="round" stroke-linejoin="round"/>
<path d="M386.357 167.59C385.689 166.789 385.556 163.853 388.226 162.651C390.895 161.45 395.3 163.452 397.837 166.122C400.373 168.792 399.038 170.127 395.968 168.792C392.764 167.59 391.563 167.19 388.893 168.124C387.825 168.525 386.757 168.258 386.357 167.59Z" fill="#22272E"/>
<path d="M367.405 166.256C367.939 165.588 368.34 163.052 366.471 161.717C364.602 160.382 361.532 161.717 359.93 163.853C358.462 165.722 359.129 166.79 361.131 166.256C363.134 165.588 363.935 165.455 365.67 166.523C366.338 166.923 367.005 166.656 367.405 166.256Z" fill="#22272E"/>
<path d="M420.798 181.473C420.264 181.206 419.73 180.939 419.33 180.939C418.929 180.939 418.796 181.073 418.662 181.34C418.395 182.007 418.128 182.808 418.128 183.876C417.995 184.811 417.995 186.146 417.194 187.48C416.794 188.148 416.126 188.548 415.459 188.682C415.192 188.815 414.791 188.815 414.524 188.815C414.257 188.815 413.857 188.682 413.59 188.682C414.658 188.014 415.459 187.347 415.459 186.679C415.592 186.012 415.592 184.944 415.726 183.743C415.859 182.541 416.126 181.206 417.328 180.138C417.595 179.871 418.128 179.604 418.529 179.604C419.063 179.604 419.463 179.738 419.73 179.871C420.264 180.405 420.665 180.939 420.798 181.473Z" fill="#22272E"/>
<path d="M363.935 177.87C365.003 178.003 366.071 177.202 366.071 176.135L366.205 174.933C366.338 173.865 365.537 172.797 364.469 172.797C363.401 172.664 362.333 173.465 362.333 174.533L362.2 175.734C361.933 176.668 362.734 177.736 363.935 177.87Z" fill="#22272E"/>
<path d="M387.832 180.139C388.9 180.272 389.968 179.471 389.968 178.404L390.101 177.202C390.235 176.134 389.434 175.066 388.366 175.066C387.298 174.933 386.23 175.734 386.23 176.802L386.097 178.003C385.963 178.938 386.764 180.005 387.832 180.139Z" fill="#22272E"/>
<path d="M456.719 232.332C459.789 232.198 462.726 233.533 464.995 235.669C467.665 238.205 473.271 243.545 484.217 253.824C501.838 270.51 504.241 273.714 504.241 273.714C504.241 273.714 519.726 285.861 521.328 300.946C522.929 316.03 512.784 336.321 486.353 319.367C459.922 302.414 447.107 291.067 441.768 279.587C436.962 269.309 439.765 232.732 456.719 232.332Z" fill="#6DAFA7"/>
<path d="M496.363 288.264C496.363 288.264 502.37 274.381 516.253 261.166C530.136 247.95 546.555 231.665 549.625 228.461C552.696 225.124 560.171 217.915 570.316 225.791C580.595 233.667 574.588 247.416 574.588 247.416C574.588 247.416 556.834 275.983 542.15 300.278C527.466 324.574 512.515 332.583 493.56 323.372C474.471 314.028 496.363 288.264 496.363 288.264Z" fill="#6DAFA7"/>
<path d="M549.629 230.463C549.629 230.463 557.237 220.184 560.308 216.58C563.378 212.976 568.985 207.503 576.327 209.639C583.802 211.775 587.54 207.236 593.146 213.109C598.753 218.983 602.624 229.796 606.228 233.8C609.832 237.805 608.898 238.873 614.638 238.74C620.378 238.606 625.05 239.941 622.648 243.145C620.245 246.348 604.626 247.149 602.491 246.882C600.355 246.615 590.343 247.95 587.807 246.749C585.27 245.548 585.671 246.615 583.535 245.414C581.399 244.213 575.926 241.543 575.926 241.543C575.926 241.543 574.191 245.014 571.921 247.416C569.652 249.819 559.774 249.419 553.366 241.943C547.893 235.536 549.629 230.463 549.629 230.463Z" fill="#B28D93"/>
<path d="M606.23 233.934C609.834 237.939 608.9 239.007 614.64 238.873C620.38 238.74 625.052 240.075 622.649 243.278C620.246 246.482 604.628 247.283 602.492 247.016" stroke="#896068" stroke-width="2.40282" stroke-miterlimit="10" stroke-linecap="round" stroke-linejoin="round"/>
<path d="M584.07 242.611C584.337 235.536 586.606 229.929 588.742 230.73C591.012 231.531 592.079 246.615 587.007 250.086C581.801 253.557 568.318 234.868 565.648 233.667" fill="#B28D93"/>
<path d="M586.336 248.884C586.336 248.884 589.139 254.358 593.277 251.688C597.416 249.151 601.554 236.737 602.355 234.067C603.289 231.397 598.083 230.329 594.746 236.87C591.542 243.411 589.006 244.346 589.006 244.346" fill="#B28D93"/>
<path d="M594.348 249.419C594.348 249.419 596.217 252.89 600.355 251.822C604.493 250.754 609.832 242.477 612.369 239.808C614.905 237.138 611.701 233.667 607.296 236.871C602.891 240.075 599.687 243.145 597.551 243.812" fill="#B28D93"/>
<path d="M591.277 211.642C591.277 211.642 594.481 213.243 598.619 218.85C602.89 224.457 610.766 225.258 611.701 228.194C612.635 231.131 604.225 232.333 597.551 229.129C591.01 225.792 588.34 212.309 591.277 211.642Z" fill="#B28D93"/>
<path d="M541.217 236.871C541.217 236.871 539.214 245.948 547.491 253.29C557.636 262.367 568.315 257.295 568.315 257.295" stroke="#22272E" stroke-width="2.40282" stroke-miterlimit="10" stroke-linecap="round" stroke-linejoin="round"/>
<path d="M493.429 323.239C493.429 323.239 490.358 318.7 500.504 316.431C510.649 314.161 527.869 312.96 526.134 319.901" stroke="#22272E" stroke-width="2.40282" stroke-miterlimit="10" stroke-linecap="round" stroke-linejoin="round"/>
<path d="M584.07 242.611C584.337 235.536 586.606 229.929 588.742 230.73C591.012 231.531 592.079 246.615 587.007 250.086C581.801 253.557 568.318 234.868 565.648 233.667" stroke="#896068" stroke-width="2.40282" stroke-miterlimit="10" stroke-linecap="round" stroke-linejoin="round"/>
<path d="M593.277 251.688C597.415 249.151 601.554 236.737 602.355 234.067C603.289 231.397 598.083 230.329 594.746 236.87C592.877 240.742 591.141 242.61 590.207 243.545" stroke="#896068" stroke-width="2.40282" stroke-miterlimit="10" stroke-linecap="round" stroke-linejoin="round"/>
<path d="M595.414 250.62C596.348 251.421 597.95 252.355 600.353 251.688C604.491 250.62 609.831 242.344 612.367 239.674C614.904 237.004 611.7 233.533 607.295 236.737C603.824 239.14 601.154 241.676 599.152 242.878" stroke="#896068" stroke-width="2.40282" stroke-miterlimit="10" stroke-linecap="round" stroke-linejoin="round"/>
<path d="M604.224 230.997C604.224 230.997 600.62 224.856 599.285 223.121" stroke="#896068" stroke-width="2.40282" stroke-miterlimit="10" stroke-linecap="round" stroke-linejoin="round"/>
<path d="M504.909 274.114C504.909 274.114 497.434 282.791 495.832 293.203" stroke="#22272E" stroke-width="2.40282" stroke-miterlimit="10" stroke-linecap="round" stroke-linejoin="round"/>
<path d="M332.169 113.26C332.169 113.26 322.558 113.66 320.155 104.85C317.752 96.0395 326.829 92.0349 326.829 100.311C326.829 108.588 313.881 112.192 308.541 105.25C303.068 98.3089 309.476 92.9693 311.211 96.974C313.08 100.979 308.808 109.389 301.199 106.852" stroke="#6DAFA7" stroke-width="2.40282" stroke-miterlimit="10" stroke-linecap="round" stroke-linejoin="round"/>
<path d="M446.973 127.009C446.973 127.009 463.392 126.074 462.324 114.194C461.256 102.313 450.577 124.339 464.86 124.072C479.01 123.805 478.343 110.322 474.071 109.388C469.799 108.454 470.867 118.866 478.743 118.198C486.619 117.531 487.821 112.725 487.821 112.725" stroke="#6DAFA7" stroke-width="2.40282" stroke-miterlimit="10" stroke-linecap="round" stroke-linejoin="round"/>
<path d="M385.026 366.356H353.389C351.921 366.356 350.586 365.154 350.586 363.552C350.586 355.543 357.127 349.002 365.136 349.002H373.146C381.155 349.002 387.696 355.543 387.696 363.552C387.696 365.154 386.495 366.356 385.026 366.356Z" fill="#22272E"/>
</svg>
