<svg width="800" height="800" viewBox="0 0 800 800" fill="none" xmlns="http://www.w3.org/2000/svg">
<path d="M299.194 393.602C299.194 393.602 298.467 401.968 296.527 406.939C294.587 411.91 291.192 417.972 292.284 426.338C293.375 434.703 301.377 446.948 304.529 446.585C307.681 446.221 305.984 440.886 305.984 440.886C305.984 440.886 309.136 445.372 312.167 444.039C315.198 442.826 311.076 433.006 311.076 433.006C311.076 433.006 314.834 439.068 318.229 438.34C321.624 437.613 314.834 428.035 314.834 428.035C314.834 428.035 319.32 433.006 320.533 432.278C321.745 431.551 322.836 431.915 320.533 426.216C318.229 420.518 321.988 401.968 321.866 397.725C321.745 393.602 305.256 389.723 299.194 393.602Z" fill="#F4C2C9"/>
<path d="M344.175 410.455L367.817 459.921C368.787 461.861 367.938 464.164 365.998 465.134L295.8 500.537C293.739 501.628 291.193 500.658 290.344 498.476L264.035 430.823C263.186 428.641 264.52 426.095 266.823 425.61L339.689 408.394C341.508 407.909 343.447 408.757 344.175 410.455Z" fill="#FFE779"/>
<path d="M310.835 465.618L314.715 474.954C315.2 476.166 314.715 477.5 313.503 477.985L303.561 482.471C302.348 483.077 300.894 482.471 300.409 481.258L296.408 471.438C295.923 470.225 296.529 468.892 297.741 468.407L307.683 464.406C308.895 463.921 310.229 464.527 310.835 465.618Z" fill="#6DAFA7"/>
<path d="M291.075 458.223L281.133 433.611" stroke="#63737A" stroke-width="2.18234" stroke-miterlimit="10" stroke-linecap="round" stroke-linejoin="round"/>
<path d="M298.471 455.556L288.529 431.55" stroke="#63737A" stroke-width="2.18234" stroke-miterlimit="10" stroke-linecap="round" stroke-linejoin="round"/>
<path d="M333.023 456.647L336.66 464.892C337.145 466.104 336.66 467.438 335.448 467.923L327.688 471.439C326.476 471.924 325.142 471.439 324.536 470.226L320.778 461.618C320.293 460.406 320.778 459.072 321.99 458.466L329.871 455.314C331.204 454.95 332.538 455.556 333.023 456.647Z" fill="#F4C2C9"/>
<path d="M315.565 449.373L305.865 426.822" stroke="#63737A" stroke-width="2.18234" stroke-miterlimit="10" stroke-linecap="round" stroke-linejoin="round"/>
<path d="M321.869 447.069L312.17 425.125" stroke="#63737A" stroke-width="2.18234" stroke-miterlimit="10" stroke-linecap="round" stroke-linejoin="round"/>
<path d="M351.21 446.948L356.545 458.345L346.239 463.073L340.783 451.192L351.21 446.948Z" stroke="#22272E" stroke-width="2.18234" stroke-miterlimit="10" stroke-linecap="round" stroke-linejoin="round"/>
<path d="M336.539 441.857L327.082 421.125" stroke="#63737A" stroke-width="2.18234" stroke-miterlimit="10" stroke-linecap="round" stroke-linejoin="round"/>
<path d="M341.873 439.916L332.537 419.669" stroke="#63737A" stroke-width="2.18234" stroke-miterlimit="10" stroke-linecap="round" stroke-linejoin="round"/>
<path d="M322.835 396.391C322.835 396.391 322.957 400.271 324.775 407.424C326.594 414.577 327.321 423.064 327.442 426.337C327.564 429.611 322.593 428.52 319.804 423.428C317.016 418.336 315.682 416.881 313.257 415.547C310.711 414.092 308.65 412.759 307.195 408.273C305.74 403.787 318.713 391.42 322.835 396.391Z" fill="#F4C2C9"/>
<path d="M362.484 195.374C355.573 195.374 336.902 198.041 320.899 233.807C307.562 263.511 299.803 280.121 297.863 293.579C295.923 307.158 294.347 339.165 295.68 362.686C297.135 386.207 298.105 396.148 298.105 396.148C298.105 396.148 309.017 403.302 323.445 396.148C323.445 396.148 327.203 367.293 330.113 350.319C332.901 333.346 334.114 316.251 333.386 308.613C333.386 308.613 352.421 275.15 360.908 261.814C369.637 248.477 401.524 195.374 362.484 195.374Z" fill="#6DAFA7"/>
<path d="M297.377 387.055C297.377 387.055 310.107 393.966 324.656 387.055" stroke="#22272E" stroke-width="2.18234" stroke-miterlimit="10" stroke-linecap="round" stroke-linejoin="round"/>
<path d="M298.346 290.305C299.316 287.88 301.619 284.607 306.833 283.758C315.077 282.545 319.684 290.911 317.744 300.853C315.804 310.795 308.287 315.765 302.225 314.674C298.952 314.068 297.376 311.764 296.77 310.188" stroke="#22272E" stroke-width="2.18234" stroke-miterlimit="10" stroke-linecap="round" stroke-linejoin="round"/>
<path d="M455.473 670.88C455.473 670.88 455.958 663.485 462.505 658.756C469.052 654.149 476.569 662.636 459.474 669.547" stroke="#63737A" stroke-width="2.18234" stroke-miterlimit="10" stroke-linecap="round" stroke-linejoin="round"/>
<path d="M461.898 668.577C461.898 668.577 468.93 665.303 472.567 669.426C476.083 673.548 465.899 676.336 460.443 672.699" stroke="#63737A" stroke-width="2.18234" stroke-miterlimit="10" stroke-linecap="round" stroke-linejoin="round"/>
<path d="M350.236 670.88C350.236 670.88 360.542 658.877 369.514 658.756C378.364 658.756 368.301 668.698 357.026 672.214" stroke="#63737A" stroke-width="2.18234" stroke-miterlimit="10" stroke-linecap="round" stroke-linejoin="round"/>
<path d="M357.996 670.88C357.996 670.88 370.605 666.03 372.181 670.88C373.757 675.73 358.845 674.396 358.845 674.396" stroke="#63737A" stroke-width="2.18234" stroke-miterlimit="10" stroke-linecap="round" stroke-linejoin="round"/>
<path d="M425.161 639.357C425.161 639.357 424.676 660.938 425.161 666.879C425.646 672.82 436.558 676.578 445.287 673.79C454.016 671.001 454.259 665.303 454.259 665.303C454.259 665.303 456.198 639.236 456.198 634.265C456.198 629.294 425.282 629.537 425.161 639.357Z" fill="#F4C2C9"/>
<path d="M425.162 639.357C425.162 639.357 425.041 644.571 425.041 650.633C434.862 654.391 446.864 653.179 455.351 651.724C455.836 644.449 456.321 636.569 456.321 634.023C456.2 629.173 425.284 629.537 425.162 639.357Z" fill="#22272E"/>
<path d="M424.922 663.241C424.922 663.241 423.224 662.999 421.527 675.85C419.829 688.702 418.496 696.461 423.588 697.431C428.68 698.401 477.055 697.431 482.269 697.431C487.482 697.431 490.998 694.643 490.755 691.248C490.513 687.853 477.419 682.519 471.357 677.669C465.174 672.941 456.444 667 455.474 663.726C453.777 658.27 450.382 656.209 447.472 663.241C445.169 668.697 439.107 669.303 431.59 668.333C426.255 667.727 424.922 663.241 424.922 663.241Z" fill="#22272E"/>
<path d="M473.176 679.003C473.176 679.003 463.113 681.185 464.568 693.673" stroke="#63737A" stroke-width="2.18234" stroke-miterlimit="10" stroke-linecap="round" stroke-linejoin="round"/>
<path d="M326.353 635.235C326.353 635.235 323.685 662.029 323.928 665.666C324.17 669.182 335.809 670.395 343.326 669.425C350.964 668.455 351.813 666.151 351.813 666.151C351.813 666.151 357.754 641.054 357.754 635.356C357.754 629.658 328.777 628.203 326.353 635.235Z" fill="#F4C2C9"/>
<path d="M326.353 635.235C326.353 635.235 325.868 639.963 325.383 645.783C335.203 650.39 345.266 650.754 355.572 649.905C356.784 643.843 357.875 637.781 357.875 635.356C357.997 629.537 328.778 628.203 326.353 635.235Z" fill="#22272E"/>
<path d="M324.047 658.756C324.047 658.756 321.986 665.182 321.259 670.88C320.531 676.578 315.318 695.249 318.834 697.917C322.35 700.584 372.665 697.917 377.029 697.917C381.273 697.917 386.85 695.249 386.244 690.521C385.638 685.792 376.302 683.853 369.512 679.124C362.723 674.396 353.994 665.667 353.994 665.667C353.994 665.667 355.449 658.392 354.236 656.331C353.024 654.27 349.265 662.514 346.598 663.484C343.931 664.454 338.232 665.303 329.139 663.484C324.775 662.514 324.047 658.756 324.047 658.756Z" fill="#22272E"/>
<path d="M369.512 679.003C369.512 679.003 361.025 681.913 359.934 693.673" stroke="#63737A" stroke-width="2.18234" stroke-miterlimit="10" stroke-linecap="round" stroke-linejoin="round"/>
<path d="M453.169 340.135C453.169 340.135 457.412 354.805 459.837 385.237C462.262 415.668 465.535 471.196 466.505 482.108C467.475 493.02 467.475 521.996 464.565 557.035C461.777 592.195 463.111 621.05 464.08 627.718C465.05 634.387 460.322 640.085 455.594 641.904C450.865 643.843 429.527 643.843 425.162 641.904C425.162 641.904 414.735 636.205 416.19 626.263C417.645 616.322 418.13 596.317 413.402 559.338C408.673 522.36 413.402 495.687 413.402 495.687C413.402 495.687 407.946 478.956 401.763 461.618C399.58 455.435 397.277 449.131 395.216 443.432C392.185 435.309 389.396 428.762 387.699 425.852C381.515 415.426 376.787 369.839 383.94 346.076C390.972 322.555 441.287 322.555 453.169 340.135Z" fill="#22272E"/>
<path d="M342.113 338.68C342.113 338.68 329.746 371.9 333.141 409.849C336.535 447.797 343.567 491.929 342.113 495.323C340.658 498.597 335.444 515.692 330.231 553.64C325.018 591.589 313.621 620.565 316.409 627.719C319.198 634.872 327.079 638.63 329.14 639.115C331.201 639.6 353.024 641.904 358.238 641.055C363.451 640.085 371.574 631.598 371.574 621.656C371.574 611.715 372.544 590.376 382.486 556.186C392.427 521.996 395.943 511.933 399.459 496.293C402.975 480.653 406.249 397.725 406.249 397.725C406.249 397.725 415.1 356.381 386.972 347.894C358.844 339.165 342.113 338.68 342.113 338.68Z" fill="#22272E"/>
<path d="M369.15 424.398C369.15 424.398 388.913 421.246 396.066 426.338" stroke="#63737A" stroke-width="2.18234" stroke-miterlimit="10" stroke-linecap="round" stroke-linejoin="round"/>
<path d="M341.385 368.626C341.385 368.626 353.388 372.87 373.999 374.931C373.999 374.931 371.817 396.269 370.483 400.755C369.028 405.241 360.056 409.121 353.267 409.121C346.962 409.121 340.052 402.21 338.597 397.118C336.778 390.207 341.385 368.626 341.385 368.626Z" stroke="#63737A" stroke-width="2.18234" stroke-miterlimit="10" stroke-linecap="round" stroke-linejoin="round"/>
<path d="M397.277 375.174C397.277 375.174 417.646 377.356 432.801 371.779C432.801 371.779 435.105 394.694 434.741 398.452C434.377 402.211 425.89 409.243 419.586 410.698C414.251 411.91 405.522 407.909 401.4 404.272C397.277 400.635 397.277 375.174 397.277 375.174Z" stroke="#63737A" stroke-width="2.18234" stroke-miterlimit="10" stroke-linecap="round" stroke-linejoin="round"/>
<path d="M461.05 403.18C461.05 403.18 451.472 397.36 450.502 371.657" stroke="#63737A" stroke-width="2.18234" stroke-miterlimit="10" stroke-linecap="round" stroke-linejoin="round"/>
<path d="M401.642 461.739C399.46 455.556 397.156 449.251 395.095 443.553C392.064 435.43 389.275 428.883 387.578 425.973" stroke="#63737A" stroke-width="2.18234" stroke-miterlimit="10" stroke-linecap="round" stroke-linejoin="round"/>
<path d="M352.904 493.99C352.904 493.99 367.574 490.717 376.425 493.99" stroke="#63737A" stroke-width="2.18234" stroke-miterlimit="10" stroke-linecap="round" stroke-linejoin="round"/>
<path d="M413.279 495.808C413.279 495.808 420.554 492.899 428.071 494.111" stroke="#63737A" stroke-width="2.18234" stroke-miterlimit="10" stroke-linecap="round" stroke-linejoin="round"/>
<path d="M330.715 643.358C330.715 643.358 330.23 647.602 330.23 648.572" stroke="#63737A" stroke-width="2.18234" stroke-miterlimit="10" stroke-linecap="round" stroke-linejoin="round"/>
<path d="M340.051 645.419C340.051 645.419 339.809 649.905 339.566 650.754" stroke="#63737A" stroke-width="2.18234" stroke-miterlimit="10" stroke-linecap="round" stroke-linejoin="round"/>
<path d="M351.934 645.904C351.934 645.904 351.328 650.148 351.207 650.754" stroke="#63737A" stroke-width="2.18234" stroke-miterlimit="10" stroke-linecap="round" stroke-linejoin="round"/>
<path d="M429.648 647.238C429.648 647.238 429.648 652.087 429.648 652.936" stroke="#63737A" stroke-width="2.18234" stroke-miterlimit="10" stroke-linecap="round" stroke-linejoin="round"/>
<path d="M440.561 647.602C440.561 647.602 440.198 652.451 439.834 653.542" stroke="#63737A" stroke-width="2.18234" stroke-miterlimit="10" stroke-linecap="round" stroke-linejoin="round"/>
<path d="M451.594 647.602C451.594 647.602 451.352 651.239 451.23 652.815" stroke="#63737A" stroke-width="2.18234" stroke-miterlimit="10" stroke-linecap="round" stroke-linejoin="round"/>
<path d="M425.891 155.97C430.713 155.97 434.621 151.247 434.621 145.422C434.621 139.597 430.713 134.874 425.891 134.874C421.07 134.874 417.162 139.597 417.162 145.422C417.162 151.247 421.07 155.97 425.891 155.97Z" stroke="#22272E" stroke-width="2.18234" stroke-miterlimit="10" stroke-linecap="round" stroke-linejoin="round"/>
<path d="M425.772 121.659C425.772 121.659 428.924 127.236 427.954 139.239C426.863 151.363 429.652 161.183 428.197 169.064C426.621 177.066 420.316 180.946 416.921 181.915C413.648 182.885 396.674 185.189 388.308 174.035C379.943 162.881 372.305 130.024 385.884 123.72C399.463 117.537 420.074 115.233 425.772 121.659Z" fill="#F4C2C9"/>
<path d="M428.073 169.064C429.649 161.062 426.739 151.363 427.83 139.239C428.921 127.115 425.648 121.659 425.648 121.659C419.95 115.233 399.46 117.537 385.76 123.841C375.454 128.57 377.394 148.574 382.486 162.76C392.307 173.671 406.371 180.582 421.404 178.278C421.768 178.278 422.253 178.278 422.981 178.157C425.284 176.096 427.345 173.186 428.073 169.064Z" fill="#F4C2C9"/>
<path d="M382.607 162.76C384.305 167.367 386.245 171.368 388.306 174.156C396.671 185.311 413.524 182.886 416.919 182.037C418.495 181.552 420.92 180.34 423.102 178.4C422.374 178.279 409.523 186.402 382.607 162.76Z" fill="#E26E85"/>
<path d="M420.074 145.3L434.623 144.815" stroke="#22272E" stroke-width="2.18234" stroke-miterlimit="10" stroke-linecap="round" stroke-linejoin="round"/>
<path d="M402.734 174.884C402.734 174.884 409.038 177.187 412.797 181.309C412.797 181.309 411.584 188.341 412.069 191.857C412.554 195.373 407.462 202.89 396.429 202.284C385.396 201.678 375.939 193.312 375.939 193.312C375.939 193.312 377.273 178.036 379.092 173.55C381.032 168.943 402.734 174.884 402.734 174.884Z" fill="#F4C2C9"/>
<path d="M409.525 178.399C409.525 178.399 409.525 178.521 409.525 178.399C411.586 179.854 412.556 182.279 412.314 184.704C412.071 187.008 411.829 189.917 412.071 191.736" stroke="#E26E85" stroke-width="2.18234" stroke-miterlimit="10" stroke-linecap="round" stroke-linejoin="round"/>
<path d="M419.224 146.028C419.224 146.028 421.891 144.089 422.739 140.936C423.588 137.784 424.073 135.359 424.073 135.359C424.073 135.359 425.77 136.935 427.953 137.784C430.256 138.633 436.197 132.328 437.046 123.72C437.895 115.112 433.894 106.14 424.073 102.382C420.315 100.927 414.616 100.684 408.918 101.048C400.916 101.533 393.278 104.2 386.488 108.444C385.034 109.292 383.215 110.141 381.154 110.384C374.122 111.354 369.757 114.142 365.635 123.963C361.513 133.662 361.028 141.3 366.605 153.06C372.182 164.821 373.879 165.548 374.728 170.398C375.698 175.248 374.486 180.703 378.365 179.855C389.034 177.43 399.946 180.461 402.492 178.885C405.16 177.309 413.525 162.275 414.495 155C415.465 147.605 417.647 145.18 419.224 146.028Z" fill="#22272E"/>
<path d="M420.801 146.755C420.801 146.755 418.255 139.966 413.405 142.027C406.858 144.815 410.859 156.333 417.164 158.273" fill="#F4C2C9"/>
<path d="M413.648 147.968C413.527 147.483 413.405 146.877 413.648 146.271C413.769 146.028 413.89 145.664 414.254 145.422C414.496 145.179 414.981 144.937 415.345 144.937C415.466 144.937 415.83 144.937 416.073 145.058C416.315 145.18 416.558 145.301 416.679 145.543C416.8 145.664 416.921 145.907 417.043 146.028C417.164 146.149 417.164 146.392 417.285 146.513C417.528 147.119 417.528 147.604 417.528 148.089C417.649 149.059 417.528 150.029 417.649 150.635C417.649 151.12 418.255 151.727 419.346 151.969C418.982 152.333 418.376 152.575 417.77 152.454C417.164 152.333 416.436 151.969 416.073 151.363C415.466 150.15 415.466 149.18 415.345 148.211C415.345 147.726 415.224 147.241 415.224 146.998C415.224 146.877 415.224 146.877 415.224 146.756C415.224 146.634 415.224 146.634 415.224 146.634C415.224 146.634 415.466 146.634 415.345 146.634C415.224 146.513 414.981 146.513 414.618 146.756C414.133 147.119 413.89 147.483 413.648 147.968Z" fill="#22272E"/>
<path d="M374.85 191.857C374.85 191.857 375.941 184.098 376.668 182.764C377.396 181.552 395.582 180.097 406.009 182.764C416.435 185.431 415.465 194.282 415.465 194.282C415.465 194.282 396.673 192.1 374.85 191.857Z" fill="#6DAFA7"/>
<path d="M338.599 220.107C340.66 208.468 345.025 190.403 387.095 190.282C422.983 190.161 439.593 195.495 448.322 202.163C457.051 208.832 458.021 226.412 455.233 253.933C452.444 281.455 451.959 297.823 453.535 314.917C455.233 332.012 462.022 339.408 452.808 348.622C452.808 348.622 426.256 357.352 392.309 357.352C358.361 357.352 341.509 347.895 340.781 345.228C340.054 342.56 336.78 341.712 339.811 334.801C342.842 327.89 344.903 303.521 342.964 288.851C341.024 274.181 333.507 249.326 338.599 220.107Z" fill="#FFE779"/>
<path d="M503.121 190.402C503.121 190.402 505.91 181.309 505.546 178.035C505.182 174.762 502.515 167.487 501.302 164.82C500.09 162.153 501.06 154.636 500.818 150.877C500.575 147.119 504.94 148.089 506.152 151.847C507.364 155.606 508.819 157.303 508.819 157.303C508.819 157.303 513.548 146.391 514.275 143.36C515.003 140.329 516.943 130.63 519.852 128.327C522.641 125.902 523.853 128.448 522.277 134.995C521.186 139.481 521.307 142.027 521.307 142.39C521.307 142.754 524.823 143.36 526.278 145.421C526.884 146.27 527.369 149.422 527.369 149.422C527.612 149.544 528.824 149.301 530.279 150.15C531.128 150.635 532.098 152.211 532.946 152.938C533.795 153.787 534.644 154.636 535.25 155.606C536.341 157.182 537.19 160.334 533.916 173.671C532.098 180.945 528.824 183.491 526.399 200.465C523.611 217.439 500.696 201.192 503.121 190.402Z" fill="#F4C2C9"/>
<path d="M505.059 182.278C504.331 186.037 503.119 190.28 503.119 190.28C500.694 201.071 523.609 217.317 526.155 200.343C526.761 195.979 527.488 192.463 528.095 189.674C522.154 183.491 514.273 179.975 505.059 182.278Z" fill="#63737A"/>
<path d="M522.642 192.887C525.365 191.597 526.434 188.148 525.029 185.183C523.625 182.218 520.278 180.86 517.555 182.15C514.832 183.44 513.764 186.889 515.168 189.854C516.573 192.819 519.919 194.177 522.642 192.887Z" fill="white"/>
<path d="M444.681 199.858C444.681 199.858 454.26 199.858 467.838 218.165C481.417 236.473 484.206 241.201 484.206 241.201C484.206 241.201 486.995 231.017 492.693 216.711C496.694 206.648 499.24 197.07 500.452 192.341C500.937 190.159 502.756 188.34 504.938 187.855C509.909 186.764 518.881 186.643 526.519 197.797C527.368 199.131 527.732 200.707 527.489 202.162C526.277 209.194 522.761 230.896 519.851 251.992C516.335 277.573 514.395 299.154 497.058 301.337C484.57 302.913 466.384 286.545 453.653 273.815C448.682 268.844 444.56 264.358 442.014 261.691C435.588 255.144 425.525 242.414 425.525 224.106C425.525 203.98 440.438 198.646 444.681 199.858Z" fill="#6DAFA7"/>
<path d="M453.653 273.937C448.682 268.966 444.56 264.48 442.014 261.813C435.588 255.266 425.525 242.536 425.525 224.229" stroke="#F8AB5D" stroke-width="2.18234" stroke-miterlimit="10" stroke-linecap="round" stroke-linejoin="round"/>
<path d="M484.205 241.08C484.205 241.08 499.845 261.449 503.604 271.269" stroke="#22272E" stroke-width="2.18234" stroke-miterlimit="10" stroke-linecap="round" stroke-linejoin="round"/>
<path d="M489.3 300.246C488.451 299.639 487.481 298.427 487.602 295.881C487.845 291.274 492.452 283.878 501.181 282.06C508.577 280.483 512.335 282.787 513.063 285.212" stroke="#22272E" stroke-width="2.18234" stroke-miterlimit="10" stroke-linecap="round" stroke-linejoin="round"/>
<path d="M499.482 195.979C499.482 195.979 515.001 189.189 526.519 207.739" stroke="#22272E" stroke-width="2.18234" stroke-miterlimit="10" stroke-linecap="round" stroke-linejoin="round"/>
<path d="M521.065 142.27C521.065 142.27 520.822 146.392 520.701 147.119C520.58 147.968 519.488 152.333 519.367 154.03" stroke="#E26E85" stroke-width="2.18234" stroke-miterlimit="10" stroke-linecap="round" stroke-linejoin="round"/>
<path d="M527.126 149.301C527.126 149.301 527.126 150.756 527.126 152.817C527.126 154.03 526.52 156.939 526.52 156.939" stroke="#E26E85" stroke-width="2.18234" stroke-miterlimit="10" stroke-linecap="round" stroke-linejoin="round"/>
<path d="M532.34 153.06C532.34 153.06 532.704 154.878 532.704 156.333C532.704 157.788 532.098 161.061 532.098 161.061" stroke="#E26E85" stroke-width="2.18234" stroke-miterlimit="10" stroke-linecap="round" stroke-linejoin="round"/>
<path d="M508.697 157.182C508.697 157.182 507.97 159 507.121 159.97" stroke="#E26E85" stroke-width="2.18234" stroke-miterlimit="10" stroke-linecap="round" stroke-linejoin="round"/>
</svg>
