<svg width="800" height="800" viewBox="0 0 800 800" fill="none" xmlns="http://www.w3.org/2000/svg">
<path d="M465.822 446.632C465.822 455.483 458.752 462.671 450.079 462.671H208.127C199.394 462.671 192.385 455.483 192.385 446.632C192.385 437.781 199.454 430.593 208.127 430.593H450.079C458.752 430.593 465.822 437.781 465.822 446.632Z" fill="#FE5244"/>
<path d="M363.708 279.588H264.682V348.497H455.963C443.844 307.627 406.301 279.588 363.708 279.588Z" fill="white" stroke="#FFCF2D" stroke-width="3.56424" stroke-miterlimit="10"/>
<path d="M282.501 279.588V348.497L241.512 348.557V279.588H282.501Z" fill="#FFCF2D" stroke="#FFCF2D" stroke-width="3.56424" stroke-miterlimit="10"/>
<path d="M607.619 347.131L455.961 348.497C455.961 348.497 493.92 297.053 598.115 310.657C598.115 310.657 516.612 293.667 433.922 310.657" stroke="#FFCF2D" stroke-width="3.56424" stroke-miterlimit="10"/>
<path d="M455.961 348.499C455.961 348.499 522.434 311.965 603.461 329.668" stroke="#FFCF2D" stroke-width="3.56424" stroke-miterlimit="10"/>
<path d="M472.89 404.87C472.89 411.345 473.9 417.226 475.504 421.562H402.734C398.991 421.562 395.902 418.295 395.902 414.315V395.484C395.902 391.445 398.932 388.237 402.734 388.237H475.504C473.9 392.514 472.89 398.395 472.89 404.87Z" fill="#FFCF2D"/>
<path d="M395.961 395.485V414.316C395.961 418.356 399.228 421.564 403.208 421.564H481.384V422.93C481.384 426.257 478.711 428.93 475.384 428.93H201.947C198.621 428.93 195.947 426.257 195.947 422.93V386.812C195.947 383.486 198.621 380.812 201.947 380.812H475.384C478.711 380.812 481.384 383.486 481.384 386.812V388.179H403.208C399.228 388.238 395.961 391.446 395.961 395.485Z" fill="white"/>
<path d="M395.961 395.485V414.316C395.961 418.356 399.228 421.564 403.208 421.564H481.384V422.93C481.384 426.257 478.711 428.93 475.384 428.93H201.947C198.621 428.93 195.947 426.257 195.947 422.93V386.812C195.947 383.486 198.621 380.812 201.947 380.812H475.384C478.711 380.812 481.384 383.486 481.384 386.812V388.179H403.208C399.228 388.238 395.961 391.446 395.961 395.485Z" stroke="#FFCF2D" stroke-width="3.56424" stroke-miterlimit="10"/>
<path d="M294.083 475.562C291.232 478.236 289.45 483.107 289.45 487.206C289.45 495.344 296.578 503.72 305.37 503.72H524.452C524.452 507.522 521.363 510.67 517.502 510.67H253.094C246.025 510.67 239.609 507.997 234.976 503.72C230.342 499.443 227.432 493.502 227.432 486.909C227.432 473.78 238.897 463.147 253.094 463.147H517.502C521.303 463.147 524.452 466.236 524.452 470.097V471.345H305.37C300.914 471.285 296.934 472.949 294.083 475.562Z" fill="#FFCF2D"/>
<path d="M508.593 471.287V503.127H524.394V505.801H304.599C302.164 505.801 299.788 505.325 297.649 504.434C295.332 503.484 293.194 502.118 291.471 500.336C288.085 496.95 286.006 492.316 286.006 487.207C286.006 476.93 294.322 468.614 304.599 468.614H524.394V471.287H508.593Z" fill="#FE5244"/>
<path d="M514.709 471.285V503.125H305.369C296.578 503.125 289.449 495.997 289.449 487.205C289.449 482.809 291.231 478.829 294.083 475.918C296.934 473.067 300.914 471.285 305.31 471.285H514.709Z" fill="white"/>
<path d="M514.707 471.285V503.125" stroke="#FE5244" stroke-width="2.9702" stroke-miterlimit="10"/>
<path d="M334.538 493.859V520.412H316.182V497.245C316.182 491.72 311.727 487.205 306.143 487.205H297.945V483.819H324.499C330.083 483.819 334.538 488.334 334.538 493.859Z" fill="#FE5244"/>
<path d="M525.285 349.982H213.176C205.097 349.982 198.562 356.517 198.562 364.596C198.622 372.615 205.097 379.15 213.176 379.15H525.285C533.364 379.15 539.898 372.615 539.898 364.536C539.839 356.517 533.304 349.982 525.285 349.982Z" fill="#66B0F0"/>
<path d="M454.476 379.206H451.328C451.685 380.157 452.576 382.533 454.536 382.533C455.724 382.533 461.546 381.642 461.546 364.593C461.546 358.534 460.833 353.9 459.407 350.752C457.684 347.009 455.427 346.593 454.595 346.593C452.576 346.593 451.685 349.029 451.328 349.979H454.476C454.595 349.742 454.714 349.623 454.773 349.563C455.843 349.86 458.694 352.831 458.694 364.593C458.694 376.355 455.843 379.265 454.773 379.622C454.655 379.503 454.536 379.384 454.476 379.206Z" fill="#9A3B82"/>
<path d="M480.262 379.206H477.113C477.47 380.157 478.361 382.533 480.321 382.533C481.509 382.533 487.331 381.642 487.331 364.593C487.331 358.534 486.618 353.9 485.192 350.752C483.47 347.009 481.212 346.593 480.381 346.593C478.361 346.593 477.47 349.029 477.113 349.979H480.262C480.381 349.742 480.499 349.623 480.559 349.563C481.628 349.86 484.479 352.831 484.479 364.593C484.479 376.355 481.628 379.265 480.559 379.622C480.499 379.503 480.381 379.384 480.262 379.206Z" fill="#9A3B82"/>
<path d="M506.099 379.204H502.95C503.307 380.155 504.198 382.531 506.158 382.531C507.821 382.531 513.168 381.224 513.168 364.591C513.168 347.898 507.821 346.651 506.158 346.651C504.138 346.651 503.247 349.086 502.891 350.037H506.039C506.158 349.799 506.277 349.68 506.336 349.621C507.524 349.918 510.257 353.007 510.257 364.65C510.257 371.779 509.247 375.462 508.356 377.363C507.643 378.907 506.871 379.561 506.336 379.68C506.277 379.501 506.217 379.383 506.099 379.204Z" fill="#9A3B82"/>
<path d="M376.956 379.204H373.808C374.164 380.155 375.055 382.531 377.015 382.531C378.203 382.531 384.025 381.64 384.025 364.591C384.025 347.898 378.679 346.651 377.015 346.651C374.996 346.651 374.104 349.086 373.748 350.037H376.896C377.015 349.799 377.134 349.68 377.194 349.621C378.382 349.918 381.114 353.007 381.114 364.65C381.114 376.412 378.263 379.323 377.194 379.68C377.194 379.501 377.075 379.383 376.956 379.204Z" fill="#9A3B82"/>
<path d="M402.796 379.204H399.647C400.004 380.155 400.895 382.531 402.855 382.531C403.984 382.531 406.063 382.056 407.667 378.729C409.093 375.699 409.865 370.947 409.865 364.591C409.865 358.235 409.152 353.482 407.667 350.453C406.063 347.126 403.984 346.651 402.855 346.651C400.835 346.651 399.944 349.086 399.588 350.037H402.736C402.855 349.799 402.974 349.68 403.033 349.621C403.746 349.74 404.459 350.512 405.053 351.76C405.885 353.542 406.954 357.225 406.954 364.65C406.954 372.016 405.944 375.699 405.053 377.541C404.459 378.788 403.687 379.561 403.033 379.68C402.974 379.501 402.914 379.383 402.796 379.204Z" fill="#9A3B82"/>
<path d="M428.637 379.204H425.489C425.846 380.155 426.737 382.531 428.697 382.531C430.36 382.531 435.707 381.224 435.707 364.591C435.707 347.483 429.885 346.651 428.697 346.651C426.677 346.651 425.786 349.086 425.43 350.037H428.578C428.697 349.799 428.816 349.68 428.875 349.621C429.944 349.918 432.796 352.888 432.796 364.65C432.796 376.294 430.063 379.382 428.875 379.68C428.816 379.501 428.756 379.383 428.637 379.204Z" fill="#9A3B82"/>
<path d="M299.492 379.205H296.343C296.7 380.156 297.591 382.532 299.551 382.532C300.442 382.532 302.7 382.116 304.363 378.374C305.789 375.285 306.502 370.592 306.502 364.533C306.502 358.949 305.729 354.256 304.363 351.048C303.115 348.197 301.333 346.533 299.492 346.533C297.472 346.533 296.581 348.969 296.225 349.919H299.373C299.492 349.741 299.551 349.563 299.611 349.503C299.967 349.682 300.799 350.335 301.63 352.236C302.521 354.196 303.531 357.939 303.531 364.473C303.531 376.235 300.68 379.146 299.611 379.502C299.67 379.502 299.611 379.384 299.492 379.205Z" fill="#9A3B82"/>
<path d="M325.336 379.206H322.187C322.544 380.157 323.435 382.533 325.395 382.533C326.286 382.533 328.543 382.117 330.207 378.374C331.632 375.285 332.345 370.592 332.345 364.533C332.345 347.841 326.999 346.593 325.336 346.593C323.316 346.593 322.425 349.029 322.068 349.979H325.217C325.336 349.742 325.454 349.623 325.514 349.563C326.702 349.86 329.434 352.95 329.434 364.593C329.434 376.355 326.583 379.265 325.514 379.622C325.514 379.503 325.454 379.384 325.336 379.206Z" fill="#9A3B82"/>
<path d="M351.173 379.204H348.024C348.381 380.155 349.272 382.531 351.232 382.531C352.895 382.531 358.242 381.224 358.242 364.591C358.242 358.235 357.529 353.482 356.044 350.453C354.44 347.126 352.361 346.651 351.232 346.651C349.212 346.651 348.321 349.086 347.965 350.037H351.113C351.232 349.799 351.351 349.68 351.41 349.621C352.123 349.74 352.836 350.512 353.43 351.76C354.262 353.542 355.331 357.225 355.331 364.65C355.331 376.294 352.598 379.382 351.41 379.68C351.351 379.501 351.232 379.383 351.173 379.204Z" fill="#9A3B82"/>
<path d="M222.03 379.206H218.882C219.238 380.156 220.129 382.532 222.089 382.532C223.931 382.532 225.654 380.869 226.961 378.018C228.386 374.81 229.099 370.176 229.099 364.533C229.099 357.939 227.911 353.781 226.961 351.464C225.654 348.375 223.872 346.593 222.089 346.593C220.07 346.593 219.179 349.028 218.822 349.979H221.971C222.09 349.801 222.149 349.682 222.208 349.563C222.624 349.801 223.515 350.632 224.347 352.89C225.179 354.969 226.129 358.652 226.129 364.533C226.129 371.127 225.119 374.81 224.228 376.829C223.396 378.73 222.565 379.384 222.208 379.562C222.208 379.503 222.09 379.384 222.03 379.206Z" fill="#9A3B82"/>
<path d="M247.809 379.206H244.661C245.017 380.157 245.908 382.533 247.869 382.533C249.71 382.533 251.433 380.869 252.74 378.018C254.166 374.81 254.878 370.177 254.878 364.533C254.878 352.89 251.255 346.593 247.869 346.593C245.849 346.593 244.958 349.029 244.602 349.979H247.75C247.869 349.801 247.928 349.682 247.988 349.563C248.403 349.801 249.235 350.633 250.126 352.771C250.958 354.791 251.908 358.533 251.908 364.533C251.908 371.127 250.898 374.81 250.007 376.83C249.176 378.731 248.344 379.384 247.988 379.562C247.988 379.503 247.928 379.384 247.809 379.206Z" fill="#9A3B82"/>
<path d="M273.647 379.206H270.499C270.855 380.157 271.746 382.533 273.707 382.533C274.598 382.533 276.796 382.117 278.578 378.137C280.003 374.929 280.716 370.355 280.716 364.593C280.716 359.009 279.944 354.316 278.578 351.108C277.33 348.257 275.548 346.593 273.707 346.593C271.687 346.593 270.796 349.029 270.439 349.979H273.588C273.707 349.801 273.766 349.623 273.825 349.563C274.182 349.742 275.013 350.395 275.845 352.296C276.736 354.256 277.746 357.999 277.746 364.533C277.746 371.246 276.736 374.929 275.845 376.889C275.013 378.731 274.182 379.384 273.825 379.503C273.825 379.503 273.766 379.384 273.647 379.206Z" fill="#9A3B82"/>
</svg>
