<svg width="800" height="800" viewBox="0 0 800 800" fill="none" xmlns="http://www.w3.org/2000/svg">
<path d="M379.06 381.762C379.06 381.762 304.503 285.998 316.325 256.413C326.425 231.165 349.415 254.69 349.415 254.69L379.06 381.762Z" fill="#3FB1B5"/>
<path d="M433.891 482.638C433.891 482.638 511.536 397.091 509.754 366.318C507.972 335.545 479.872 349.981 479.872 349.981L433.891 482.638Z" fill="#3FB1B5"/>
<path d="M514.926 557.904C514.926 583.687 503.995 607.213 486.054 625.154C471.618 639.53 452.013 647.491 431.636 647.491H368.367C347.991 647.491 328.386 639.53 313.95 625.154C296.009 607.272 285.078 583.687 285.078 557.904C285.078 521.191 307.178 489.051 340.327 471.229H459.736C492.826 488.992 514.926 521.191 514.926 557.904Z" fill="#FFCF2D"/>
<path d="M400.029 491.311C433.79 491.311 461.159 484.049 461.159 475.092C461.159 466.135 433.79 458.874 400.029 458.874C366.267 458.874 338.898 466.135 338.898 475.092C338.898 484.049 366.267 491.311 400.029 491.311Z" fill="#3FB1B5"/>
<path d="M433.896 482.637C424.213 484.36 412.569 485.37 400.034 485.37C388.152 485.37 377.043 484.478 367.716 482.934C345.616 459.468 291.793 397.209 311.695 366.436C336.527 327.999 379.122 381.822 379.122 381.822C379.122 381.822 328.864 227.482 355.478 193.204C382.093 158.926 402.945 219.818 402.945 219.818C402.945 219.818 416.371 145.915 452.431 152.985C486.828 159.757 433.54 331.148 428.549 346.95C431.104 339.346 446.55 297.404 476.669 301.266C505.185 304.89 449.58 444.557 433.896 482.637Z" fill="white" stroke="#3FB1B5" stroke-width="3.56445" stroke-miterlimit="10" stroke-linecap="round"/>
<path d="M452.373 152.927C452.373 152.927 401.52 293.961 400.035 485.371" stroke="#3FB1B5" stroke-width="3.56445" stroke-miterlimit="10" stroke-linecap="round"/>
<path d="M402.887 219.758C405.619 235.085 416.016 303.344 410.729 338.216" stroke="#3FB1B5" stroke-width="3.56445" stroke-miterlimit="10" stroke-linecap="round"/>
<path d="M476.606 301.208C476.606 301.208 418.624 375.824 412.148 485.015" stroke="#3FB1B5" stroke-width="3.56445" stroke-miterlimit="10" stroke-linecap="round"/>
<path d="M317.34 359.368C317.34 359.368 386.609 403.27 387.797 485.074" stroke="#3FB1B5" stroke-width="3.56445" stroke-miterlimit="10" stroke-linecap="round"/>
<path d="M341.635 338.633C348.328 338.633 353.754 333.207 353.754 326.514C353.754 319.821 348.328 314.395 341.635 314.395C334.942 314.395 329.516 319.821 329.516 326.514C329.516 333.207 334.942 338.633 341.635 338.633Z" stroke="#FFCF2D" stroke-width="3.56445" stroke-miterlimit="10"/>
<path d="M313.592 320.337C316.676 320.337 319.176 317.836 319.176 314.752C319.176 311.668 316.676 309.168 313.592 309.168C310.508 309.168 308.008 311.668 308.008 314.752C308.008 317.836 310.508 320.337 313.592 320.337Z" stroke="#FFCF2D" stroke-width="3.56445" stroke-miterlimit="10"/>
<path d="M321.612 460.774C324.696 460.774 327.196 458.274 327.196 455.19C327.196 452.106 324.696 449.606 321.612 449.606C318.528 449.606 316.027 452.106 316.027 455.19C316.027 458.274 318.528 460.774 321.612 460.774Z" stroke="#FFCF2D" stroke-width="3.56445" stroke-miterlimit="10"/>
<path d="M470.252 288.257C476.945 288.257 482.371 282.831 482.371 276.138C482.371 269.445 476.945 264.019 470.252 264.019C463.559 264.019 458.133 269.445 458.133 276.138C458.133 282.831 463.559 288.257 470.252 288.257Z" stroke="#FFCF2D" stroke-width="3.56445" stroke-miterlimit="10"/>
<path d="M473.815 243.465C476.899 243.465 479.399 240.964 479.399 237.88C479.399 234.796 476.899 232.296 473.815 232.296C470.731 232.296 468.23 234.796 468.23 237.88C468.23 240.964 470.731 243.465 473.815 243.465Z" stroke="#FFCF2D" stroke-width="3.56445" stroke-miterlimit="10"/>
<path d="M494.073 288.255C497.157 288.255 499.657 285.755 499.657 282.671C499.657 279.587 497.157 277.086 494.073 277.086C490.988 277.086 488.488 279.587 488.488 282.671C488.488 285.755 490.988 288.255 494.073 288.255Z" stroke="#FFCF2D" stroke-width="3.56445" stroke-miterlimit="10"/>
</svg>
