<svg width="800" height="800" viewBox="0 0 800 800" fill="none" xmlns="http://www.w3.org/2000/svg">
<path d="M636.761 510.713H265.856C251.907 510.713 240.629 499.435 240.629 485.486V226.061C240.629 212.111 251.907 200.833 265.856 200.833H636.761C650.71 200.833 661.988 212.111 661.988 226.061V485.446C662.027 499.396 650.71 510.713 636.761 510.713Z" fill="white" stroke="#3FB1B5" stroke-width="2.35769" stroke-miterlimit="10" stroke-linecap="round"/>
<path d="M637 486.586H269.672C264.21 486.586 259.809 482.145 259.809 476.723V228.536C259.809 223.074 264.249 218.673 269.672 218.673H637C642.462 218.673 646.863 223.114 646.863 228.536V476.684C646.902 482.145 642.462 486.586 637 486.586Z" fill="#66B0F0" stroke="#66B0F0" stroke-width="2.35769" stroke-miterlimit="10" stroke-linejoin="round"/>
<path d="M282.832 241.857H277.017C275.13 241.857 273.559 240.325 273.559 238.399V232.583C273.559 230.697 275.091 229.125 277.017 229.125H282.832C284.718 229.125 286.29 230.658 286.29 232.583V238.399C286.251 240.325 284.718 241.857 282.832 241.857Z" stroke="white" stroke-width="2.35769" stroke-miterlimit="10" stroke-linecap="round"/>
<path d="M309.278 241.856H303.462C301.576 241.856 300.004 240.324 300.004 238.398V232.582C300.004 230.696 301.536 229.125 303.462 229.125H309.278C311.164 229.125 312.735 230.657 312.735 232.582V238.398C312.735 240.324 311.164 241.856 309.278 241.856Z" stroke="white" stroke-width="2.35769" stroke-miterlimit="10" stroke-linecap="round"/>
<path d="M335.723 241.856H329.907C328.021 241.856 326.449 240.324 326.449 238.398V232.582C326.449 230.696 327.982 229.125 329.907 229.125H335.723C337.609 229.125 339.181 230.657 339.181 232.582V238.398C339.181 240.324 337.648 241.856 335.723 241.856Z" stroke="white" stroke-width="2.35769" stroke-miterlimit="10" stroke-linecap="round"/>
<path d="M529.601 599.166H385.625L413.878 510.713H501.309L529.601 599.166Z" fill="white" stroke="#3FB1B5" stroke-width="2.35769" stroke-miterlimit="10" stroke-linecap="round"/>
<path d="M396.938 563.761L413.874 510.713H501.305L396.938 563.761Z" fill="#3FB1B5"/>
<path d="M615.621 300.052H545.637C539.074 300.052 533.77 294.747 533.77 288.185V242.996C533.77 236.434 539.074 231.129 545.637 231.129H615.621C622.183 231.129 627.488 236.434 627.488 242.996V288.185C627.488 294.747 622.183 300.052 615.621 300.052Z" stroke="white" stroke-width="2.35769" stroke-miterlimit="10" stroke-linecap="round"/>
<path d="M553.77 247.24H607.171" stroke="white" stroke-width="2.35769" stroke-miterlimit="10" stroke-linecap="round"/>
<path d="M553.77 259.422H607.171" stroke="white" stroke-width="2.35769" stroke-miterlimit="10" stroke-linecap="round"/>
<path d="M553.77 271.603H607.171" stroke="white" stroke-width="2.35769" stroke-miterlimit="10" stroke-linecap="round"/>
<path d="M553.77 283.786H607.171" stroke="white" stroke-width="2.35769" stroke-miterlimit="10" stroke-linecap="round"/>
<path d="M634.952 486.585H356.784L340.476 509.965C322.047 536.372 283.106 536.765 264.166 510.712L164.828 374.084C168.993 379.271 188.051 373.494 206.206 361.549C224.635 349.407 236.541 334.121 232.808 328.462L301.692 416.247L322.794 378.996C328.57 369.133 338.158 362.059 349.318 359.466L421.109 344.259H482.999L551.215 359.309C563.082 362.02 573.141 369.761 578.839 380.489L634.952 486.585Z" fill="white" stroke="#3FB1B5" stroke-width="2.35769" stroke-miterlimit="10"/>
<path d="M558.601 484.973L538.836 445.953" stroke="#3FB1B5" stroke-width="2.35769" stroke-miterlimit="10" stroke-linecap="round"/>
<path d="M355.211 488.628L374.78 450.001" stroke="#3FB1B5" stroke-width="2.35769" stroke-miterlimit="10" stroke-linecap="round"/>
<path d="M274.891 382.177L319.726 439.508" stroke="#3FB1B5" stroke-width="2.35769" stroke-miterlimit="10" stroke-linecap="round"/>
<path d="M459.773 363.118L476.277 383.198L513.214 351.841" stroke="#3FB1B5" stroke-width="2.35769" stroke-miterlimit="10" stroke-linecap="round"/>
<path d="M447.163 363.511L431.131 383.984L390.539 351.841" stroke="#3FB1B5" stroke-width="2.35769" stroke-miterlimit="10" stroke-linecap="round"/>
<path d="M246.483 346.027C250.216 351.725 238.271 367.207 219.724 379.506C201.491 391.609 182.158 397.425 177.953 392.198" stroke="#3FB1B5" stroke-width="2.35769" stroke-miterlimit="10" stroke-linecap="round"/>
<path d="M234.143 355.967C236.596 355.967 238.584 353.979 238.584 351.527C238.584 349.074 236.596 347.086 234.143 347.086C231.691 347.086 229.703 349.074 229.703 351.527C229.703 353.979 231.691 355.967 234.143 355.967Z" stroke="#3FB1B5" stroke-width="2.35769" stroke-miterlimit="10" stroke-linecap="round"/>
<path d="M453.413 383.868C455.865 383.868 457.853 381.88 457.853 379.428C457.853 376.976 455.865 374.988 453.413 374.988C450.961 374.988 448.973 376.976 448.973 379.428C448.973 381.88 450.961 383.868 453.413 383.868Z" stroke="#3FB1B5" stroke-width="2.35769" stroke-miterlimit="10" stroke-linecap="round"/>
<path d="M453.413 419.624C455.865 419.624 457.853 417.636 457.853 415.184C457.853 412.732 455.865 410.744 453.413 410.744C450.961 410.744 448.973 412.732 448.973 415.184C448.973 417.636 450.961 419.624 453.413 419.624Z" stroke="#3FB1B5" stroke-width="2.35769" stroke-miterlimit="10" stroke-linecap="round"/>
<path d="M339.062 511.85L356.784 486.583V511.85H339.062Z" fill="#3FB1B5"/>
<path d="M205.771 360.371C187.617 372.317 168.559 378.093 164.394 372.906C164.315 372.827 164.276 372.749 164.197 372.631C163.333 371.334 163.411 369.566 164.197 367.405C166.909 360.292 178.108 349.29 192.332 339.938C203.649 332.472 214.809 327.285 222.55 325.674C227.03 324.77 230.37 325.045 231.981 326.774L232.374 327.245C236.068 332.904 224.201 348.229 205.771 360.371Z" fill="#FE5244"/>
<path d="M205.77 360.37C195.435 367.168 184.787 372.001 176.77 373.888L140.894 323.276C135.904 316.203 137.554 306.418 144.666 301.428L176.967 278.715L158.655 247.555C155.983 243.036 157.516 237.181 162.074 234.548C163.567 233.683 165.178 233.291 166.789 233.291C169.894 233.291 172.959 234.823 174.766 237.652L232.019 326.694L232.412 327.323C236.066 332.903 224.199 348.228 205.77 360.37Z" fill="#E57281"/>
<path d="M176.887 279.068L196.888 310.072C198.735 312.98 197.91 316.831 195.002 318.717L190.562 321.625C187.654 323.55 183.724 322.725 181.838 319.817L162.938 291.525" stroke="#9A3B82" stroke-width="2.35769" stroke-miterlimit="10" stroke-linecap="round"/>
<path d="M181.758 319.74C183.684 322.687 182.819 326.656 179.872 328.542L175.825 331.096C172.917 332.943 169.066 332.118 167.18 329.25" stroke="#9A3B82" stroke-width="2.35769" stroke-miterlimit="10" stroke-linecap="round"/>
<path d="M148.597 301.507L167.105 329.014C169.03 331.961 168.205 335.93 165.179 337.816L161.407 339.898C158.578 341.706 154.845 340.959 152.88 338.209L142.152 323.08" stroke="#9A3B82" stroke-width="2.35769" stroke-miterlimit="10" stroke-linecap="round"/>
<path d="M218.657 305.947L209.266 291.369C206.161 286.535 199.678 285.199 194.923 288.421L171.621 304.218C171.621 304.218 178.38 316.36 194.805 306.733L200.306 315.496C189.068 322.608 185.846 337.579 193.155 348.7L218.657 305.947Z" fill="#E57281"/>
<path d="M217.439 306.34L208.047 291.762C204.943 286.929 198.459 285.593 193.705 288.815L171.621 304.219C171.621 304.219 178.38 316.361 194.805 306.733L200.306 315.496C189.068 322.609 185.846 337.58 193.155 348.7" stroke="#9A3B82" stroke-width="2.35769" stroke-miterlimit="10" stroke-linecap="round"/>
<path d="M205.767 360.371C195.433 367.169 184.784 372.002 176.768 373.888L167.848 361.314C172.838 354.791 181.758 346.932 192.328 339.977C203.645 332.511 214.805 327.324 222.546 325.713C227.026 324.809 230.366 325.084 231.977 326.813L232.37 327.284C232.409 327.363 232.448 327.402 232.488 327.481C232.527 327.52 232.527 327.559 232.566 327.638C232.606 327.717 232.645 327.756 232.684 327.835C235.356 333.847 223.607 348.582 205.767 360.371Z" fill="#9A3B82"/>
<path d="M482.957 309.68V344.22C482.957 354.241 469.046 362.335 451.953 362.335C434.82 362.335 420.949 354.241 420.949 344.22V309.68H482.957Z" fill="#E57281"/>
<path d="M430.027 357.032C424.407 353.77 420.91 349.212 420.91 344.222V309.682H482.957V319.27C482.957 329.211 476.905 338.131 467.71 341.864L430.027 357.032Z" fill="#9A3B82"/>
<path d="M500.247 307.636V308.225C500.247 314.198 495.413 319.031 489.441 319.031H482.328C479.931 328.698 471.208 335.889 460.755 335.889H443.151C432.738 335.889 423.975 328.737 421.618 319.031H414.505C408.532 319.031 403.699 314.198 403.699 308.225V307.636C403.699 301.663 408.532 296.83 414.505 296.83H420.95V288.303C420.95 279.186 427.669 271.642 436.432 270.384C438.357 273.606 444.173 281.308 456.04 280.876C461.62 280.68 466.807 279.619 471.09 278.361C476.238 276.868 481.385 280.012 482.682 284.923C482.878 286.024 482.996 287.124 482.996 288.263V296.79H489.441C495.374 296.79 500.247 301.663 500.247 307.636Z" fill="#E57281"/>
<path d="M487.908 296.791H482.957V287.321C482.957 286.496 482.839 285.671 482.643 284.924C481.346 280.012 476.198 276.869 471.051 278.362C466.768 279.619 461.62 280.68 456.001 280.877C444.134 281.309 438.318 273.607 436.393 270.385C427.63 271.643 420.91 279.187 420.91 288.304V296.831H414.741C414.741 296.831 407.668 271.25 412.973 264.019C418.199 256.907 424.486 260.011 424.486 260.011C424.486 260.011 420.714 238.713 441.776 239.106C462.799 239.499 490.148 263.902 492.152 268.381C495.296 275.258 487.908 296.791 487.908 296.791Z" fill="#9A3B82"/>
<path d="M485.348 309.641C485.348 305.437 488.766 302.057 492.932 302.057" stroke="#9A3B82" stroke-width="1.96474" stroke-miterlimit="10" stroke-linecap="round"/>
<path d="M418.627 309.641C418.627 305.437 415.208 302.057 411.043 302.057" stroke="#9A3B82" stroke-width="1.96474" stroke-miterlimit="10" stroke-linecap="round"/>
<path d="M473.052 288.305C473.052 288.305 467.472 284.218 460.359 287.165" stroke="#9A3B82" stroke-width="1.96474" stroke-miterlimit="10" stroke-linecap="round"/>
<path d="M430.457 288.305C430.457 288.305 436.037 284.218 443.149 287.165" stroke="#9A3B82" stroke-width="1.96474" stroke-miterlimit="10" stroke-linecap="round"/>
<path d="M461.737 317.305C461.737 317.305 458.711 323.828 449.438 320.409" stroke="#9A3B82" stroke-width="1.96474" stroke-miterlimit="10" stroke-linecap="round"/>
<path d="M449.004 313.925C451.401 314.082 455.055 313.925 455.055 313.925" stroke="#9A3B82" stroke-width="1.96474" stroke-miterlimit="10" stroke-linecap="round"/>
<path d="M466.726 304.692C467.812 304.692 468.691 303.214 468.691 301.391C468.691 299.568 467.812 298.09 466.726 298.09C465.641 298.09 464.762 299.568 464.762 301.391C464.762 303.214 465.641 304.692 466.726 304.692Z" fill="#9A3B82"/>
<path d="M438.555 304.692C439.64 304.692 440.519 303.214 440.519 301.391C440.519 299.568 439.64 298.09 438.555 298.09C437.469 298.09 436.59 299.568 436.59 301.391C436.59 303.214 437.469 304.692 438.555 304.692Z" fill="#9A3B82"/>
<path d="M443.228 312.509H430.85C428.453 312.509 426.527 310.584 426.527 308.187V295.809C426.527 293.412 428.453 291.486 430.85 291.486H443.228C445.625 291.486 447.55 293.412 447.55 295.809V308.187C447.589 310.544 445.625 312.509 443.228 312.509Z" stroke="white" stroke-width="1.96474" stroke-miterlimit="10"/>
<path d="M473.525 312.511H461.147C458.75 312.511 456.824 310.585 456.824 308.188V295.81C456.824 293.413 458.75 291.488 461.147 291.488H473.525C475.922 291.488 477.847 293.413 477.847 295.81V308.188C477.847 310.546 475.922 312.511 473.525 312.511Z" stroke="white" stroke-width="1.96474" stroke-miterlimit="10"/>
<path d="M447.59 299.66H456.824" stroke="white" stroke-width="1.96474" stroke-miterlimit="10"/>
<path d="M476.78 471.34H433.831C429.941 471.34 426.758 468.196 426.758 464.267V441.436C426.758 437.546 429.901 434.363 433.831 434.363H476.78C480.67 434.363 483.853 437.507 483.853 441.436V464.267C483.853 468.157 480.71 471.34 476.78 471.34Z" stroke="#66B0F0" stroke-width="2.35769" stroke-miterlimit="10" stroke-linejoin="round"/>
<path d="M456.388 462.145H441.849C439.531 462.145 437.645 460.258 437.645 457.94V447.763C437.645 445.444 439.531 443.558 441.849 443.558H456.388C458.707 443.558 460.593 445.444 460.593 447.763V457.94C460.593 460.258 458.707 462.145 456.388 462.145Z" fill="#66B0F0"/>
<path d="M470.534 461.869L466.055 458.883C464.836 458.058 464.09 456.643 464.09 455.111V450.631C464.09 449.099 464.836 447.684 466.055 446.859L470.534 443.872C471.595 443.165 472.97 443.951 472.97 445.287V460.494C473.01 461.791 471.595 462.577 470.534 461.869Z" fill="#66B0F0"/>
</svg>
