<svg width="800" height="800" viewBox="0 0 800 800" fill="none" xmlns="http://www.w3.org/2000/svg">
<path d="M291.719 662.846V695.553C291.719 698.95 294.454 701.686 297.851 701.686H379.619C379.619 701.686 380.1 686.505 367.654 682.266C346.521 675.081 336.661 662.846 336.661 662.846H291.719Z" fill="white" stroke="#FE5244" stroke-width="1.80369" stroke-miterlimit="10"/>
<path d="M337.203 679.592C340.54 678.66 352.565 672.016 348.446 667.898C346.492 665.944 341.803 667.898 341.803 667.898" stroke="#FE5244" stroke-width="1.80369" stroke-miterlimit="10"/>
<path d="M349.527 684.101C352.864 683.169 364.408 675.744 359.869 672.106C356.442 669.34 351.301 674.691 351.301 674.691" stroke="#FE5244" stroke-width="1.80369" stroke-miterlimit="10"/>
<path d="M339.186 665.492L291.719 680.252V662.846H336.691C336.691 662.846 337.502 663.868 339.186 665.492Z" fill="#FE5244"/>
<path d="M394.23 662.846V695.553C394.23 698.95 396.966 701.685 400.363 701.685H482.13C482.13 701.685 482.611 686.504 470.166 682.265C449.033 675.081 439.172 662.846 439.172 662.846H394.23Z" fill="white" stroke="#FE5244" stroke-width="1.80369" stroke-miterlimit="10"/>
<path d="M439.713 679.59C443.05 678.658 455.074 672.014 450.956 667.896C449.002 665.942 444.312 667.896 444.312 667.896" stroke="#FE5244" stroke-width="1.80369" stroke-miterlimit="10"/>
<path d="M452.039 684.099C455.376 683.167 466.92 675.742 462.38 672.105C458.953 669.339 453.813 674.69 453.813 674.69" stroke="#FE5244" stroke-width="1.80369" stroke-miterlimit="10"/>
<path d="M441.698 665.491L394.23 680.251V662.846H439.203C439.203 662.846 440.014 663.868 441.698 665.491Z" fill="#FE5244"/>
<path d="M313.818 337.279L284.207 647.273H346.134L377.247 497.056L389.963 529.071V647.273H454.445V514.732L420.055 337.279H313.818Z" fill="#3FB1B5"/>
<path d="M346.07 411.741L317.271 647.273" stroke="#9A3B82" stroke-width="1.80369" stroke-miterlimit="10"/>
<path d="M421.075 647.274V514.732L380.672 352.31" stroke="#9A3B82" stroke-width="1.80369" stroke-miterlimit="10"/>
<path d="M389.062 529.07L350.463 416.971C349.14 413.123 345.502 410.538 341.414 410.538" stroke="white" stroke-width="1.80369" stroke-miterlimit="10"/>
<path d="M308.914 388.534L313.814 337.279H420.051L423.088 353.031L308.914 388.534Z" fill="#9A3B82"/>
<path d="M454.563 662.844H389.72C387.285 662.844 385.301 660.86 385.301 658.425V651.691C385.301 649.257 387.285 647.272 389.72 647.272H454.563C456.998 647.272 458.982 649.257 458.982 651.691V658.425C458.952 660.86 456.998 662.844 454.563 662.844Z" fill="#9A3B82"/>
<path d="M347.244 662.844H282.401C279.966 662.844 277.982 660.86 277.982 658.425V651.691C277.982 649.257 279.966 647.272 282.401 647.272H347.244C349.679 647.272 351.663 649.257 351.663 651.691V658.425C351.633 660.86 349.679 662.844 347.244 662.844Z" fill="#9A3B82"/>
<path d="M520.307 346.361L540.629 422.387L439.321 449.472L418.97 373.387C418.339 371.012 416.805 369.148 414.851 368.006C412.897 366.863 410.493 366.473 408.118 367.104C403.398 368.366 400.572 373.236 401.835 377.956L422.186 454.042L419.962 454.643L399.64 378.617C398.017 372.575 401.504 366.382 407.456 364.579C407.576 364.549 407.697 364.519 407.817 364.489L506.178 338.185C512.341 336.561 518.654 340.229 520.307 346.361Z" fill="#66B0F0"/>
<path d="M421.224 372.874L441.546 448.9L439.321 449.501L418.97 373.415C418.339 371.041 416.805 369.177 414.851 368.034C412.897 366.892 410.493 366.501 408.118 367.133C403.398 368.395 400.572 373.265 401.835 377.985L422.186 454.07L419.962 454.672L399.64 378.646C398.017 372.604 401.504 366.411 407.456 364.607C413.499 363.194 419.601 366.832 421.224 372.874Z" fill="#9A3B82"/>
<path d="M418.969 373.386L438.058 444.812L420.923 449.381L401.834 377.955C400.572 373.235 403.367 368.365 408.117 367.103C410.492 366.471 412.897 366.862 414.851 368.005C416.805 369.147 418.338 371.011 418.969 373.386Z" fill="white"/>
<path d="M520.607 386.641L474.523 402.514L438.149 337.28H297.16C273.201 337.28 255.284 315.245 260.184 291.797L274.854 221.333C279.454 199.268 298.904 183.456 321.42 183.456H417.827C441.185 183.456 461.086 200.41 464.783 223.467L479.303 292.068L520.607 386.641Z" fill="#FFCF2D" stroke="white" stroke-width="1.80369" stroke-miterlimit="10"/>
<path d="M289.645 336.527C273.051 333.191 260.725 319.062 259.463 302.408C260.725 301.536 262.138 300.784 263.641 300.243C274.554 296.215 287.029 302.828 291.569 315.003C294.364 322.639 293.402 330.635 289.645 336.527Z" fill="white"/>
<path d="M394.619 141.189V183.486H347.934L358.696 155.348L394.619 141.189Z" fill="#E57281"/>
<path d="M405.351 123.393C405.321 123.393 405.261 123.423 405.231 123.423L391.373 127.091C386.412 128.413 382.595 132.081 380.971 136.71H375.651C372.284 136.71 369.548 139.446 369.548 142.813V142.903C369.548 146.09 371.983 148.705 375.109 148.975C375.079 149.006 375.079 149.006 375.079 149.006C375.079 149.006 372.614 160.73 358.215 156.791C358.215 156.791 358.786 125.948 359.387 116.359C359.898 108.453 401.834 93.4819 405.712 99.8549C409.139 105.506 405.171 108.152 401.804 109.324C407.756 108.062 418.999 106.378 420.142 111.399C421.464 117.23 409.59 122.281 405.351 123.393Z" fill="#9A3B82"/>
<path d="M408.057 145.008H406.584L407.005 152.222C407.305 157.393 403.157 161.782 397.986 161.782H391.493C385.24 161.782 380.16 156.702 380.16 150.449V149.036H375.681C372.314 149.036 369.578 146.3 369.578 142.933V142.843C369.578 139.476 372.314 136.741 375.681 136.741H381.002C382.625 132.111 386.443 128.414 391.403 127.121L405.261 123.454L410.011 142.483C410.492 143.685 409.35 145.008 408.057 145.008Z" fill="#E57281"/>
<path d="M381.571 151.019C380.94 157.633 387.553 162.352 393.806 162.352" stroke="#9A3B82" stroke-width="1.50308" stroke-miterlimit="10" stroke-linecap="round"/>
<path d="M379.137 143.954C379.137 141.61 377.243 139.716 374.898 139.716" stroke="#9A3B82" stroke-width="1.50308" stroke-miterlimit="10" stroke-linecap="round"/>
<path d="M402.946 139.655C403.561 139.655 404.059 138.619 404.059 137.341C404.059 136.062 403.561 135.026 402.946 135.026C402.332 135.026 401.834 136.062 401.834 137.341C401.834 138.619 402.332 139.655 402.946 139.655Z" fill="#9A3B82"/>
<path d="M398.135 132.471C398.135 132.471 401.832 129.645 407.123 129.645" stroke="#9A3B82" stroke-width="1.50308" stroke-miterlimit="10" stroke-linecap="round"/>
<path d="M383.824 356.549C383.824 356.549 420.65 358.142 433.606 328.592L426.752 316.056L406.28 323.932L383.824 356.549Z" fill="white" stroke="#FE5244" stroke-width="1.80369" stroke-miterlimit="10"/>
<path d="M413.318 175.726C411.544 175.876 409.921 176.657 408.718 177.86C407.396 179.183 406.554 181.016 406.554 183.061V331.174C406.554 345.303 395.1 356.756 380.971 356.756H324.185C308.914 356.756 297.13 343.499 298.753 328.438V328.408L319.195 187.81C320.217 180.866 326.139 175.726 333.174 175.726H413.318Z" fill="#FE5244" stroke="#FE5244" stroke-width="1.80369" stroke-miterlimit="10"/>
<path d="M407.607 175.728C405.834 175.879 404.21 176.66 403.008 177.863C401.896 178.975 401.144 180.418 400.934 182.041C400.903 182.372 400.873 182.703 400.873 183.033L399.671 194.366L385.241 331.146C385.241 345.275 373.788 356.729 359.659 356.729H324.217C308.945 356.729 297.161 343.472 298.784 328.411V328.381L308.013 264.831L319.226 187.783C319.316 187.122 319.467 186.46 319.647 185.799C321.391 179.877 326.862 175.698 333.175 175.698H407.607V175.728Z" fill="white" stroke="#FE5244" stroke-width="1.80369" stroke-miterlimit="10"/>
<path d="M394.952 205.219L389.571 245.591C387.797 253.858 381.364 258.277 372.045 259.78L308.314 269.039L317.603 205.188H394.952V205.219Z" fill="#FFCF2D"/>
<path d="M405.321 175.728H403.728C400.842 175.698 398.317 177.742 397.746 180.598L388.366 241.112C386.593 249.379 379.288 255.301 370.84 255.301H312.19C305.096 255.301 299.805 248.747 301.338 241.803L312.641 190.458C314.535 181.86 322.171 175.728 330.979 175.728H405.321Z" fill="#FE5244" stroke="#FE5244" stroke-width="1.80369" stroke-miterlimit="10"/>
<path d="M356.981 272.135L371.922 180.778C372.222 178.944 373.816 177.562 375.679 177.562C378.024 177.562 379.828 179.666 379.437 182.011L364.497 273.368C364.196 275.201 362.603 276.584 360.739 276.584C358.394 276.584 356.59 274.48 356.981 272.135Z" fill="white" stroke="#FE5244" stroke-width="1.80369" stroke-miterlimit="10"/>
<path d="M323.583 272.135L338.523 180.778C338.824 178.944 340.417 177.562 342.281 177.562C344.626 177.562 346.43 179.666 346.039 182.011L331.098 273.368C330.797 275.201 329.204 276.584 327.34 276.584C324.996 276.584 323.192 274.48 323.583 272.135Z" fill="white" stroke="#FE5244" stroke-width="1.80369" stroke-miterlimit="10"/>
<path d="M421.282 183.513L406.582 183.574V183.063C406.582 181.018 407.394 179.185 408.746 177.862C409.949 176.659 411.542 175.878 413.346 175.728H414.548C418.246 176.028 421.162 179.155 421.282 183.513Z" fill="white" stroke="#FE5244" stroke-width="1.80369" stroke-miterlimit="10"/>
<path d="M515.106 388.532L527.492 420.487C529.476 425.628 526.59 431.339 521.299 432.812L494.093 440.268C492.44 440.718 490.696 440.328 489.404 439.215L486.638 436.81L492.29 435.307C494.785 434.646 496.468 432.331 496.348 429.746L495.716 423.373C495.596 420.517 493.281 418.233 490.426 418.142H490.726C487.269 418.022 483.902 415.888 482.55 412.701L478.221 401.188L515.106 388.532Z" fill="#E57281"/>
<path d="M487.208 437.443L491.657 436.24C494.152 435.579 495.835 433.565 495.715 430.979L495.384 424.005C495.264 421.149 492.949 418.865 490.094 418.774C486.636 418.654 483.57 416.52 482.217 413.333L477.588 402.421" stroke="white" stroke-width="1.80369" stroke-miterlimit="10" stroke-linecap="round"/>
<path d="M501.758 437.381C504.944 436.539 507.109 433.593 506.958 430.286L506.538 421.388" stroke="white" stroke-width="1.80369" stroke-miterlimit="10" stroke-linecap="round"/>
<path d="M513.271 434.406C516.458 433.565 518.622 430.619 518.472 427.312L518.051 418.414" stroke="white" stroke-width="1.80369" stroke-miterlimit="10" stroke-linecap="round"/>
<path d="M410.281 255.302L417.556 293.36C418.789 299.853 421.073 306.136 424.29 311.908L474.493 402.513L520.577 386.641" stroke="white" stroke-width="1.80369" stroke-miterlimit="10"/>
<path d="M440.733 341.61L424.29 311.909C421.524 306.889 419.45 301.538 418.127 295.976C419.69 295.465 421.313 295.104 423.027 294.954C436.014 293.812 447.527 304.724 448.76 319.304C449.481 328.142 446.265 336.289 440.733 341.61Z" fill="white"/>
</svg>
