<svg width="800" height="800" viewBox="0 0 800 800" fill="none" xmlns="http://www.w3.org/2000/svg">
<path d="M203.861 277.993H270.658V335.365H203.861C203.861 335.365 203.861 275.829 203.861 277.993Z" fill="#FFCF2D"/>
<path d="M453.643 544.56L422.582 467.218H472.593L453.643 544.56Z" fill="#9A3B82"/>
<path d="M368.418 363.988C375.083 351.379 388.189 343.496 402.438 343.496H440.91L467.047 363.988H368.418Z" fill="#9A3B82"/>
<path d="M514.275 454.535H417.361L453.844 543.092C451.307 538.964 436.112 543.266 420.022 553.139C404.131 562.887 393.388 574.625 395.577 578.903L316.942 442.075C296.55 407.558 321.418 363.988 361.506 363.988H578.684L579.157 365.48C593.332 409.497 560.505 454.535 514.275 454.535Z" fill="#3FB1B5"/>
<path d="M582.44 389.378C582.092 397.461 580.302 405.269 577.268 412.506L463.369 364.012H576.422L579.058 371.721C580.898 376.347 581.918 382.838 582.44 389.378Z" fill="#E6E6E6"/>
<path d="M453.87 543.092C456.406 547.22 445.315 558.485 429.25 568.358C413.16 578.231 398.214 583.18 395.677 579.052C393.141 574.923 403.958 563.26 420.048 553.387C436.114 543.514 451.308 538.963 453.87 543.092Z" fill="#66B0F0"/>
<path d="M418.18 553.437L347.454 428.397C341.908 418.5 349.045 406.264 360.41 406.264H498.158C516.71 406.264 530.561 389.18 526.732 371.025" stroke="white" stroke-width="1.49212" stroke-miterlimit="10" stroke-linecap="round"/>
<path d="M394.854 579.325C392.318 575.196 403.285 562.066 420.046 552.292C438.872 541.325 451.057 538.068 454.688 543.887" stroke="white" stroke-width="1.49212" stroke-miterlimit="10" stroke-linecap="round"/>
<path d="M455.235 544.435L409.029 434.267" stroke="white" stroke-width="1.49212" stroke-miterlimit="10" stroke-linecap="round"/>
<path d="M358.795 363.167H471.525" stroke="white" stroke-width="1.49212" stroke-miterlimit="10"/>
<path d="M422.559 584.747L415.845 575.595L406.594 563.012C410.374 559.829 414.925 556.521 420.023 553.388C430.169 547.171 439.943 543.042 446.433 541.898L450.935 550.876L456.555 562.067C452.576 576.217 422.559 584.747 422.559 584.747Z" fill="#E57281"/>
<path d="M450.956 550.876C446.778 555.974 438.92 562.415 429.246 568.359C424.595 571.219 420.044 573.656 415.866 575.595L406.615 563.012C410.395 559.829 414.946 556.521 420.044 553.388C430.191 547.171 439.964 543.042 446.455 541.898L450.956 550.876Z" fill="#9A3B82"/>
<path d="M487.294 611.381L419.055 660.397C413.26 664.426 404.258 667.783 405.451 653.21C407.118 633.116 411.569 603.224 422.561 584.722C423.034 584.597 452.578 576.067 456.556 562.042L487.667 584.15C496.62 591.113 496.421 604.691 487.294 611.381Z" fill="white" stroke="#FFCF2D" stroke-width="1.49212" stroke-miterlimit="10"/>
<path d="M419.4 591.213C424.822 592.232 455.261 581.439 459.986 564.802" stroke="#FFCF2D" stroke-width="1.49212" stroke-miterlimit="10" stroke-linecap="round"/>
<path d="M412.068 655.35C412.068 655.35 456.607 593.477 488.29 596.959C522.783 600.714 383.866 691.435 412.068 655.35Z" fill="#FFCF2D"/>
<path d="M410.796 663.779C407.339 664.003 403.684 659.974 408.732 653.508C408.732 653.508 455.087 589.347 488.088 592.978C493.186 593.525 494.902 597.678 493.708 601.259" stroke="#FFCF2D" stroke-width="1.49212" stroke-miterlimit="10" stroke-linecap="round"/>
<path d="M582.689 394.427C566.923 390.697 527.68 380.874 482.916 370.529C461.877 365.679 444.27 351.355 435.193 331.758L394.434 243.574L419.103 204.481C426.688 192.444 439.62 184.785 453.82 183.914L478.092 182.422C502.562 180.93 522.209 196.199 529.669 219.551L579.034 363.988C584.455 377.517 582.689 394.427 582.689 394.427Z" fill="white" stroke="#FE5244" stroke-width="1.49212" stroke-miterlimit="10"/>
<path d="M415.896 248.523C415.896 248.523 428.878 268.915 458.447 273.416" stroke="#FE5244" stroke-width="1.49212" stroke-miterlimit="10"/>
<path d="M433.406 211.419C432.063 209.977 429.701 210.375 428.88 212.14C427.96 214.13 429.626 216.343 431.789 216.02C434.003 215.697 434.923 213.036 433.406 211.419Z" fill="#FFCF2D" stroke="#FE5244" stroke-width="1.49212" stroke-miterlimit="10" stroke-linejoin="round"/>
<path d="M495.351 253.921C494.008 252.478 491.646 252.876 490.825 254.642C489.905 256.631 491.571 258.845 493.735 258.521C495.948 258.198 496.868 255.537 495.351 253.921Z" fill="#FFCF2D" stroke="#FE5244" stroke-width="1.49212" stroke-miterlimit="10" stroke-linejoin="round"/>
<path d="M514.976 271.327C513.633 269.885 511.271 270.283 510.45 272.049C509.53 274.038 511.196 276.251 513.36 275.928C515.548 275.63 516.468 272.969 514.976 271.327Z" fill="#FFCF2D" stroke="#FE5244" stroke-width="1.49212" stroke-miterlimit="10" stroke-linejoin="round"/>
<path d="M552.597 369.833C551.254 368.39 548.892 368.788 548.071 370.554C547.151 372.544 548.817 374.757 550.981 374.434C553.169 374.11 554.09 371.474 552.597 369.833Z" fill="#FFCF2D" stroke="#FE5244" stroke-width="1.49212" stroke-miterlimit="10" stroke-linejoin="round"/>
<path d="M531.535 322.757C530.192 321.314 527.829 321.712 527.009 323.478C526.089 325.467 527.755 327.681 529.918 327.357C532.132 327.034 533.052 324.373 531.535 322.757Z" fill="#FFCF2D" stroke="#FE5244" stroke-width="1.49212" stroke-miterlimit="10" stroke-linejoin="round"/>
<path d="M540.264 288.885C538.324 289.133 537.255 291.297 538.225 292.988C539.319 294.903 542.08 294.828 543.074 292.864C544.094 290.874 542.453 288.586 540.264 288.885Z" fill="#FFCF2D" stroke="#FE5244" stroke-width="1.49212" stroke-miterlimit="10" stroke-linejoin="round"/>
<path d="M556.155 339.121C554.215 339.369 553.146 341.533 554.116 343.224C555.21 345.139 557.97 345.064 558.965 343.1C559.985 341.11 558.368 338.822 556.155 339.121Z" fill="#FFCF2D" stroke="#FE5244" stroke-width="1.49212" stroke-miterlimit="10" stroke-linejoin="round"/>
<path d="M490.256 284.931C488.913 283.489 486.55 283.887 485.729 285.653C484.809 287.642 486.476 289.855 488.639 289.532C490.828 289.209 491.748 286.573 490.256 284.931Z" fill="#FFCF2D" stroke="#FE5244" stroke-width="1.49212" stroke-miterlimit="10" stroke-linejoin="round"/>
<path d="M476.552 313.108C475.21 311.665 472.847 312.063 472.026 313.829C471.106 315.818 472.772 318.032 474.936 317.708C477.149 317.385 478.069 314.724 476.552 313.108Z" fill="#FFCF2D" stroke="#FE5244" stroke-width="1.49212" stroke-miterlimit="10" stroke-linejoin="round"/>
<path d="M452.029 303.26C453.471 301.917 453.073 299.555 451.308 298.734C449.318 297.814 447.105 299.48 447.428 301.643C447.751 303.832 450.388 304.752 452.029 303.26Z" fill="#FFCF2D" stroke="#FE5244" stroke-width="1.49212" stroke-miterlimit="10" stroke-linejoin="round"/>
<path d="M473.789 351.753C475.231 350.41 474.833 348.048 473.067 347.227C471.078 346.307 468.865 347.973 469.188 350.137C469.511 352.35 472.172 353.27 473.789 351.753Z" fill="#FFCF2D" stroke="#FE5244" stroke-width="1.49212" stroke-miterlimit="10" stroke-linejoin="round"/>
<path d="M510.425 310.148C511.868 308.805 511.47 306.443 509.704 305.622C507.715 304.702 505.501 306.368 505.825 308.532C506.148 310.72 508.809 311.665 510.425 310.148Z" fill="#FFCF2D" stroke="#FE5244" stroke-width="1.49212" stroke-miterlimit="10" stroke-linejoin="round"/>
<path d="M522.933 362.222C524.376 360.879 523.978 358.517 522.212 357.696C520.222 356.776 518.009 358.442 518.332 360.606C518.631 362.819 521.292 363.739 522.933 362.222Z" fill="#FFCF2D" stroke="#FE5244" stroke-width="1.49212" stroke-miterlimit="10" stroke-linejoin="round"/>
<path d="M447.927 256.756C446.585 255.313 444.222 255.711 443.401 257.477C442.481 259.466 444.147 261.68 446.311 261.356C448.524 261.033 449.444 258.372 447.927 256.756Z" fill="#FFCF2D" stroke="#FE5244" stroke-width="1.49212" stroke-miterlimit="10" stroke-linejoin="round"/>
<path d="M452.379 192.246C451.036 190.804 448.673 191.201 447.853 192.967C446.932 194.957 448.599 197.17 450.762 196.847C452.975 196.523 453.896 193.862 452.379 192.246Z" fill="#FFCF2D" stroke="#FE5244" stroke-width="1.49212" stroke-miterlimit="10" stroke-linejoin="round"/>
<path d="M495.351 192.246C494.008 190.804 491.646 191.201 490.825 192.967C489.905 194.957 491.571 197.17 493.735 196.847C495.948 196.523 496.868 193.862 495.351 192.246Z" fill="#FFCF2D" stroke="#FE5244" stroke-width="1.49212" stroke-miterlimit="10" stroke-linejoin="round"/>
<path d="M495.427 220.099C493.611 220.82 493.089 223.158 494.457 224.575C495.974 226.142 498.635 225.421 499.132 223.282C499.63 221.118 497.491 219.278 495.427 220.099Z" fill="#FFCF2D" stroke="#FE5244" stroke-width="1.49212" stroke-miterlimit="10" stroke-linejoin="round"/>
<path d="M471.006 204.233C469.116 204.78 468.395 207.043 469.589 208.585C470.957 210.301 473.667 209.828 474.364 207.764C475.085 205.65 473.12 203.611 471.006 204.233Z" fill="#FFCF2D" stroke="#FE5244" stroke-width="1.49212" stroke-miterlimit="10" stroke-linejoin="round"/>
<path d="M467.401 273.119C465.461 273.342 464.367 275.481 465.312 277.197C466.381 279.112 469.142 279.087 470.161 277.147C471.206 275.183 469.614 272.87 467.401 273.119Z" fill="#FFCF2D" stroke="#FE5244" stroke-width="1.49212" stroke-miterlimit="10" stroke-linejoin="round"/>
<path d="M446.088 324.92C444.149 325.144 443.054 327.283 443.999 328.999C445.069 330.914 447.829 330.889 448.849 328.949C449.893 326.984 448.302 324.672 446.088 324.92Z" fill="#FFCF2D" stroke="#FE5244" stroke-width="1.49212" stroke-miterlimit="10" stroke-linejoin="round"/>
<path d="M453.249 224.774C451.359 225.322 450.637 227.585 451.831 229.126C453.199 230.842 455.91 230.37 456.606 228.306C457.327 226.217 455.387 224.178 453.249 224.774Z" fill="#FFCF2D" stroke="#FE5244" stroke-width="1.49212" stroke-miterlimit="10" stroke-linejoin="round"/>
<path d="M473.842 238.7C471.952 239.247 471.231 241.51 472.425 243.052C473.793 244.768 476.503 244.295 477.2 242.231C477.921 240.117 475.981 238.078 473.842 238.7Z" fill="#FFCF2D" stroke="#FE5244" stroke-width="1.49212" stroke-miterlimit="10" stroke-linejoin="round"/>
<path d="M429.252 238.103C430.495 236.586 429.824 234.298 427.934 233.726C425.845 233.079 423.855 235.019 424.477 237.108C425.099 239.247 427.834 239.819 429.252 238.103Z" fill="#FFCF2D" stroke="#FE5244" stroke-width="1.49212" stroke-miterlimit="10" stroke-linejoin="round"/>
<path d="M523.527 238.179C524.771 236.662 524.099 234.374 522.209 233.802C520.12 233.156 518.131 235.095 518.752 237.184C519.349 239.323 522.11 239.895 523.527 238.179Z" fill="#FFCF2D" stroke="#FE5244" stroke-width="1.49212" stroke-miterlimit="10" stroke-linejoin="round"/>
<path d="M499.605 338.996C500.849 337.479 500.177 335.191 498.287 334.619C496.198 333.973 494.209 335.912 494.831 338.001C495.427 340.115 498.188 340.687 499.605 338.996Z" fill="#FFCF2D" stroke="#FE5244" stroke-width="1.49212" stroke-miterlimit="10" stroke-linejoin="round"/>
<path d="M479.756 181.601C479.209 181.625 478.662 181.65 478.09 181.675L453.818 183.167C447.626 183.54 441.707 185.207 436.336 187.967L428.875 165.635L462.124 141.264L479.756 181.601Z" fill="#E57281"/>
<path d="M436.236 187.62C443.15 184.487 448.67 178.916 451.804 172.003L463.89 145.269L462.124 141.24L428.875 165.612L436.236 187.62Z" fill="#9A3B82"/>
<path d="M464.266 143.503C464.266 145.816 463.321 147.905 461.804 149.422C460.287 150.939 458.198 151.884 455.885 151.884H448.574C445.689 163.1 434.523 170.784 422.511 168.67L417.015 167.7C410.997 166.631 406.894 161.011 407.739 154.968L414.18 122.713C415.299 115.824 422.387 111.621 428.977 113.984L439.646 118.261C445.415 120.251 449.295 125.672 449.295 131.765V134.874L455.885 135.122C460.51 135.122 464.266 138.878 464.266 143.503Z" fill="#E57281"/>
<path d="M451.883 145.119C451.883 141.911 454.469 139.325 457.677 139.325" stroke="#9A3B82" stroke-width="1.24343" stroke-miterlimit="10" stroke-linecap="round"/>
<path d="M417.764 129.502C417.764 129.502 422.986 129.502 426.716 134.501" stroke="#9A3B82" stroke-width="1.24343" stroke-miterlimit="10" stroke-linecap="round"/>
<path d="M421.233 138.809C421.496 137.363 421.161 136.091 420.486 135.969C419.81 135.846 419.049 136.918 418.786 138.364C418.524 139.81 418.858 141.082 419.534 141.205C420.21 141.328 420.97 140.255 421.233 138.809Z" fill="#9A3B82"/>
<path d="M455.884 135.122C460.509 135.122 464.265 138.878 464.265 143.503C464.265 143.528 464.265 143.578 464.265 143.627C467.995 137.883 477.146 123.26 477.146 118.311C477.146 111.671 468.865 105.031 460.286 108.065C460.858 107.643 461.454 107.195 462.076 106.722C465.384 104.136 467.124 102.196 467.398 100.804C467.497 100.306 467.423 99.8587 467.174 99.5105C466.179 98.093 465.085 97.4713 463.916 97.6702C462.2 97.9438 460.435 100.058 458.669 103.937C457.873 105.703 457.252 107.444 456.903 108.513C456.207 104.36 452.85 90.6075 438.426 92.7214C433.452 93.4426 431.115 95.5067 430.468 97.7697C426.34 94.5368 420.819 92.0002 416.243 94.4124C408.335 98.5655 409.305 105.38 413.881 110.204C409.554 110.129 406.52 111.398 406.52 115.053C406.52 118.411 409.976 120.027 414.726 120.674C419.476 121.32 425.569 120.972 430.841 120.375C434.596 119.953 437.978 119.43 440.142 119.057C438.7 122.017 438.128 124.553 438.252 126.692C438.476 131.119 441.684 133.73 446.21 134.65C447.18 134.849 448.224 134.973 449.294 135.023L455.884 135.122ZM464.066 98.665C464.14 98.6401 464.215 98.6401 464.314 98.6401C465.011 98.6401 465.682 99.1375 466.354 100.082C466.403 100.182 466.478 100.331 466.428 100.605C466.03 102.619 460.932 106.449 457.973 108.463C459.142 105.031 461.604 99.0877 464.066 98.665Z" fill="#FFCF2D"/>
<path d="M436.036 106.026C434.321 106.026 432.58 105.106 431.311 103.49C429.894 101.699 429.421 99.486 430.018 97.5711C430.093 97.3224 430.342 97.1732 430.59 97.2229C430.69 97.2229 430.789 97.2478 430.864 97.3224C434.619 100.008 437.628 103.838 437.18 105.355C437.081 105.753 436.758 106.002 436.335 106.026C436.235 106.026 436.136 106.026 436.036 106.026ZM430.814 98.5161C430.59 99.9585 431.038 101.55 432.082 102.868C433.201 104.286 434.743 105.106 436.235 105.007C436.285 104.36 434.619 101.401 430.814 98.5161Z" fill="white"/>
<path d="M386.946 325.617H227.787C223.858 325.617 221.495 321.29 223.584 317.982L244.772 284.708C247.533 280.381 252.283 277.77 257.406 277.77H365.136L386.946 325.617Z" fill="#E57281"/>
<path d="M260.914 277.794L273.597 256.904C274.343 255.661 275.711 254.89 277.153 254.89C280.411 254.89 282.401 258.446 280.71 261.231L270.638 277.794H260.914Z" fill="#FE5244"/>
<path d="M386.947 325.617H351.162C351.087 325.542 350.987 325.443 350.913 325.368C342.209 316.415 338.503 302.837 343.402 289.756L348.501 277.77H365.138L386.947 325.617Z" fill="#9A3B82"/>
<path d="M250.269 303.284H230.324C228.981 303.284 227.738 304.005 227.066 305.174L224.953 308.854C223.535 311.341 225.326 314.45 228.21 314.45H244.251C247.036 314.45 249.622 313.007 251.089 310.62L252.805 307.81C253.999 305.82 252.582 303.284 250.269 303.284Z" fill="#E57281"/>
<path d="M245.12 314.449H225.176C223.833 314.449 222.589 315.17 221.918 316.339L219.804 320.02C218.387 322.507 220.177 325.615 223.062 325.615H239.102C241.887 325.615 244.474 324.173 245.941 321.785L247.657 318.975C248.876 316.986 247.433 314.449 245.12 314.449Z" fill="#E57281"/>
<path d="M255.962 291.968H236.018C234.675 291.968 233.431 292.689 232.76 293.858L230.646 297.539C229.228 300.026 231.019 303.134 233.904 303.134H249.944C252.729 303.134 255.316 301.692 256.783 299.305L258.499 296.494C259.717 294.505 258.275 291.968 255.962 291.968Z" fill="#E57281"/>
<path d="M250.269 303.284H230.324C228.981 303.284 227.738 304.005 227.066 305.174L224.953 308.854C223.535 311.341 225.326 314.45 228.21 314.45H244.251C247.036 314.45 249.622 313.007 251.089 310.62L252.805 307.81C253.999 305.82 252.582 303.284 250.269 303.284Z" stroke="#9A3B82" stroke-width="1.24343" stroke-miterlimit="10" stroke-linecap="round"/>
<path d="M245.12 314.449H225.176C223.833 314.449 222.589 315.17 221.918 316.339L219.804 320.02C218.387 322.507 220.177 325.615 223.062 325.615H239.102C241.887 325.615 244.474 324.173 245.941 321.785L247.657 318.975C248.876 316.986 247.433 314.449 245.12 314.449Z" stroke="#9A3B82" stroke-width="1.24343" stroke-miterlimit="10" stroke-linecap="round"/>
<path d="M255.962 291.968H236.018C234.675 291.968 233.431 292.689 232.76 293.858L230.646 297.539C229.228 300.026 231.019 303.134 233.904 303.134H249.944C252.729 303.134 255.316 301.692 256.783 299.305L258.499 296.494C259.717 294.505 258.275 291.968 255.962 291.968Z" stroke="#9A3B82" stroke-width="1.24343" stroke-miterlimit="10" stroke-linecap="round"/>
<path d="M284.835 308.606C278.842 308.606 273.072 306.442 268.546 302.488L260.986 295.873H254.023L252.232 297.788C249.024 301.22 245.07 303.184 240.37 303.184H237.038C235.297 303.184 234.228 301.244 235.173 299.777L243.553 286.646H284.86V308.606H284.835Z" fill="#E57281"/>
<path d="M243.553 286.646L235.173 299.777C234.228 301.244 235.297 303.184 237.038 303.184H240.37C245.07 303.184 249.024 301.244 252.232 297.788L254.023 295.873H260.986L268.546 302.488C273.048 306.417 278.842 308.606 284.835 308.606" stroke="#9A3B82" stroke-width="1.24343" stroke-miterlimit="10" stroke-linecap="round"/>
<path d="M452.75 279.111L414.775 321.537C406.792 330.465 395.378 335.563 383.391 335.563C359.716 335.563 343.328 311.938 351.634 289.755L396.746 183.765L381.501 175.235C379.338 173.544 378.293 170.783 378.766 168.098L381.352 150.665C382.148 146.785 386.102 143.751 389.956 142.856L407.812 138.827C409.329 138.479 410.722 139.772 410.473 141.289L407.887 154.743C406.867 161.308 411.294 166.979 417.859 168.098C423.231 169.018 427.011 174.414 426.513 179.836L414.353 255.685C414.328 255.735 426.787 275.157 452.75 279.111Z" fill="#E57281"/>
<path d="M423.628 197.865L408.955 293.137" stroke="#9A3B82" stroke-width="1.24343" stroke-miterlimit="10" stroke-linecap="round"/>
<path d="M393.215 151.932L393.016 158.1C392.942 160.636 394.459 162.874 396.647 163.496L419.501 168.122" stroke="#9A3B82" stroke-width="1.24343" stroke-miterlimit="10" stroke-linecap="round"/>
<path d="M435.044 170.112L416.766 167.675C410.747 166.605 406.644 160.985 407.49 154.942L409.852 141.438C410.076 140.17 408.932 139.101 407.689 139.399L389.037 143.751" stroke="#9A3B82" stroke-width="1.24343" stroke-miterlimit="10" stroke-linecap="round"/>
<path d="M424.945 310.097L474.384 255.088" stroke="#FE5244" stroke-width="1.49212" stroke-miterlimit="10"/>
<path d="M397.268 183.789H405.996" stroke="#9A3B82" stroke-width="1.24343" stroke-miterlimit="10" stroke-linecap="round"/>
<path d="M393.238 153.574V155.564C393.238 157.926 394.954 159.866 397.068 159.866H399.804C400.997 159.866 401.942 158.796 401.942 157.454L402.116 144.472C402.141 142.458 400.003 141.214 398.262 141.637" stroke="#9A3B82" stroke-width="1.24343" stroke-miterlimit="10" stroke-linecap="round"/>
<path d="M402.117 153.574V155.563C402.117 157.926 403.833 159.866 405.947 159.866H407.688" stroke="#9A3B82" stroke-width="1.24343" stroke-miterlimit="10" stroke-linecap="round"/>
<path d="M567.264 467.217L596.136 707.498" stroke="#66B0F0" stroke-width="1.49212" stroke-miterlimit="10"/>
<path d="M442.124 467.217L413.252 707.498" stroke="#66B0F0" stroke-width="1.49212" stroke-miterlimit="10"/>
<path d="M423.15 624.984H586.214" stroke="#66B0F0" stroke-width="1.49212" stroke-miterlimit="10"/>
<path d="M425.489 467.963H582.41C584.499 467.963 586.19 466.272 586.19 464.183V459.06C586.19 456.971 584.499 455.28 582.41 455.28H425.489C423.4 455.28 421.709 456.971 421.709 459.06V464.183C421.709 466.272 423.4 467.963 425.489 467.963Z" fill="white" stroke="#FFCF2D" stroke-width="1.49212" stroke-miterlimit="10"/>
</svg>
