<svg width="800" height="800" viewBox="0 0 800 800" fill="none" xmlns="http://www.w3.org/2000/svg">
<path d="M507.648 482.532C505.268 473.848 465.953 481.988 422.649 497.745C381.226 512.822 347.557 533.16 347.194 541.344L324.476 375.63C324.136 373.295 322.141 371.572 319.783 371.572C318.468 371.572 317.289 372.093 316.427 372.955C315.566 373.816 315.044 374.995 315.044 376.31V517.833C314.772 513.956 304.774 510.85 292.485 510.85C280.196 510.85 270.221 513.956 269.926 517.833V358.807C269.926 345.385 276.954 332.96 288.427 326.023L303.323 317.022L364.675 279.975L421.742 245.24V185.951C421.742 188.491 432.239 190.531 444.618 190.531C456.975 190.531 467.495 188.513 467.495 185.951V250.228C467.495 264.466 460.535 277.911 449.425 286.799L414.713 311.603C408.796 315.82 407.367 324.027 411.494 330.013C434.506 363.319 505.222 460.517 507.626 481.897C507.648 482.101 507.648 482.328 507.648 482.532Z" fill="#3FB1B5"/>
<path d="M421.061 240.16V257.618" stroke="white" stroke-width="1.36036" stroke-miterlimit="10" stroke-linecap="round"/>
<path d="M303.369 317.02L379.028 367.625L364.721 279.973L348.329 289.677L352.183 325.613L319.671 306.818L303.369 317.02Z" stroke="white" stroke-width="1.36036" stroke-miterlimit="10" stroke-linecap="round"/>
<path d="M505.224 484.707C502.503 477.202 466.453 485.863 423.126 501.621C379.799 517.378 346.538 537.307 349.281 544.812C352.002 552.317 389.707 544.563 433.034 528.805C476.361 513.048 507.967 492.212 505.224 484.707Z" stroke="#3FB1B5" stroke-width="1.13363" stroke-miterlimit="10" stroke-linecap="round"/>
<path d="M406.549 641.263L404.055 645.616L401.289 650.468C377.369 653.461 373.152 637.817 373.152 637.817L376.757 630.652C386.416 636.593 398.659 639.744 406.549 641.263Z" fill="#E57281"/>
<path d="M492.704 527.424C475.7 556.74 414.552 642.533 414.552 642.533C414.552 642.533 411.355 642.193 406.548 641.263C398.658 639.721 386.415 636.593 376.734 630.652C374.489 629.269 372.403 627.75 370.521 626.05L414.846 536.039L426.047 512.437L432.259 499.332C433.007 499.06 433.755 498.811 434.481 498.562C434.844 498.426 435.206 498.312 435.592 498.176C436.703 497.791 437.791 497.428 438.879 497.065C439.786 496.77 440.671 496.476 441.555 496.158C444.253 495.251 446.906 494.413 449.49 493.596C466.857 488.11 481.708 484.414 491.729 483.28C493.951 486.386 496.491 490.853 497.942 496.453C500.05 504.638 499.801 515.203 492.704 527.424Z" fill="white" stroke="#9A3B82" stroke-width="1.13363" stroke-miterlimit="10"/>
<path d="M418.475 708.17C417.705 711.548 413.51 712.75 411.061 710.301L356.262 655.683L373.402 637.794C373.402 637.794 377.37 653.416 401.312 650.446C420.652 679.648 420.607 698.761 418.475 708.17Z" fill="white" stroke="#FE5244" stroke-width="1.13363" stroke-miterlimit="10"/>
<path d="M416.229 711.617C412.511 713.045 408.316 712.297 405.301 709.645L376.688 684.501C375.985 683.866 375.895 682.8 376.484 682.052C377.051 681.349 377.006 680.306 376.348 679.671L374.013 677.404C373.378 676.769 372.358 676.747 371.678 677.336L371.133 677.789C370.476 678.356 369.524 678.356 368.889 677.789L353.517 664.435C351.522 662.712 351.454 659.629 353.335 657.792L356.011 655.208L411.151 710.869C412.738 712.456 415.028 712.524 416.66 711.458L416.229 711.617Z" fill="#FE5244"/>
<path d="M408.768 657.747C408.768 657.747 413.416 661.873 402.307 666.884" stroke="#FE5244" stroke-width="1.13363" stroke-miterlimit="10" stroke-linecap="round"/>
<path d="M411.692 662.712C411.692 662.712 416.34 666.838 405.23 671.849" stroke="#FE5244" stroke-width="1.13363" stroke-miterlimit="10" stroke-linecap="round"/>
<path d="M414.616 667.678C414.616 667.678 419.264 671.804 408.154 676.815" stroke="#FE5244" stroke-width="1.13363" stroke-miterlimit="10" stroke-linecap="round"/>
<path d="M497.944 496.453C483.206 496.43 468.106 498.992 453.551 503.028C452.394 498.947 450.762 495.705 449.492 493.596C466.859 488.11 481.71 484.414 491.731 483.28C493.976 486.409 496.515 490.876 497.944 496.453Z" fill="#9A3B82"/>
<path d="M344.268 638.974L339.892 644.574L336.446 648.972C312.345 648.496 310.418 632.421 310.418 632.421L315.655 624.917C324.747 632.217 337.036 636.752 344.268 638.974Z" fill="#E57281"/>
<path d="M454.051 521.371C452.736 526.971 449.924 533.002 444.755 539.214C423.533 564.766 350.255 640.629 350.255 640.629C350.255 640.629 321.642 634.19 309.422 618.772L358.757 548.691L376.964 522.822C389.524 516.133 405.486 509.037 423.125 502.598C432.33 499.242 441.195 496.227 449.493 493.597C450.74 495.705 452.395 498.97 453.552 503.028C455.003 508.062 455.706 514.365 454.051 521.371Z" fill="white" stroke="#9A3B82" stroke-width="1.13363" stroke-miterlimit="10"/>
<path d="M345.155 708.555C343.908 711.797 339.6 712.387 337.514 709.598L291.104 647.679L310.625 632.42C310.625 632.42 312.302 648.495 336.426 648.971C351.413 680.645 348.624 699.554 345.155 708.555Z" fill="white" stroke="#FE5244" stroke-width="1.13363" stroke-miterlimit="10"/>
<path d="M342.455 711.457C338.578 712.341 334.519 710.981 331.935 707.965L307.222 679.035C306.609 678.309 306.678 677.244 307.358 676.586C308.038 675.974 308.106 674.931 307.562 674.206L305.567 671.644C305.022 670.941 304.025 670.759 303.254 671.236L302.664 671.621C301.939 672.074 301.009 671.938 300.443 671.304L287.066 655.954C285.343 653.959 285.705 650.921 287.837 649.379L290.852 647.203L337.49 709.983C338.827 711.774 341.095 712.16 342.863 711.366L342.455 711.457Z" fill="#FE5244"/>
<path d="M343.271 657.406C343.271 657.406 347.284 662.145 335.562 665.523" stroke="#FE5244" stroke-width="1.13363" stroke-miterlimit="10" stroke-linecap="round"/>
<path d="M345.922 662.733C345.922 662.733 349.935 667.472 338.213 670.85" stroke="#FE5244" stroke-width="1.13363" stroke-miterlimit="10" stroke-linecap="round"/>
<path d="M348.099 668.062C348.099 668.062 352.112 672.801 340.391 676.179" stroke="#FE5244" stroke-width="1.13363" stroke-miterlimit="10" stroke-linecap="round"/>
<path d="M453.573 503.028C444.096 505.658 434.846 508.901 426.072 512.415C388.186 527.674 359.142 548.396 358.779 548.646L376.985 522.776C389.546 516.088 405.508 508.991 423.147 502.552C426.23 501.441 429.268 500.353 432.284 499.287C433.032 499.015 433.78 498.766 434.506 498.517C434.869 498.381 435.231 498.267 435.617 498.131C436.728 497.746 437.816 497.383 438.904 497.02C439.811 496.725 440.695 496.431 441.58 496.113C444.278 495.206 446.93 494.367 449.515 493.551C450.762 495.728 452.395 498.97 453.573 503.028Z" fill="#9A3B82"/>
<path d="M314.544 520.894C314.544 524.839 304.682 528.058 292.507 528.058C280.331 528.058 270.469 524.862 270.469 520.894C270.469 520.848 270.469 520.78 270.469 520.735C270.741 516.858 280.513 513.752 292.507 513.752C304.5 513.752 314.272 516.858 314.544 520.735C314.544 520.78 314.544 520.848 314.544 520.894Z" fill="white" stroke="#3FB1B5" stroke-width="1.13363" stroke-miterlimit="10" stroke-linecap="round"/>
<path d="M305.657 515.567V534.181C305.657 540.212 302.324 545.721 297.019 548.555L287.973 553.362C285.773 554.541 283.302 555.153 280.808 555.153C279.742 555.153 279.017 554.269 279.017 553.339C279.017 552.954 279.153 552.546 279.425 552.206L282.803 548.125C283.279 547.558 282.871 546.719 282.146 546.719H262.262L258.634 551.299C256.707 553.725 253.76 555.153 250.676 555.153H249.633C248.341 555.153 247.547 553.77 248.182 552.659L248.59 551.911C247.343 552.432 245.983 552.727 244.6 552.727H243.557C242.265 552.727 241.471 551.344 242.106 550.233L250.245 541.255L255.891 539.033V539.056L283.937 528.037V514.796C286.59 514.456 289.469 514.252 292.507 514.252C297.427 514.229 301.962 514.728 305.657 515.567Z" fill="#E57281"/>
<path d="M255.165 539.984L248.363 551.66" stroke="#9A3B82" stroke-width="0.906905" stroke-miterlimit="10" stroke-linecap="round"/>
<path d="M281.08 550.164L285.252 545.063C286.068 544.065 285.365 542.591 284.073 542.591" stroke="#9A3B82" stroke-width="0.906905" stroke-miterlimit="10" stroke-linecap="round"/>
<path d="M305.66 515.565V527.197C301.964 528.035 297.43 528.534 292.51 528.534C289.472 528.534 286.592 528.353 283.939 527.99V514.749C286.592 514.409 289.472 514.205 292.51 514.205C297.407 514.228 301.964 514.727 305.66 515.565Z" fill="#9A3B82"/>
<path d="M467.019 183.524C467.019 186.086 456.998 188.104 444.642 188.104C432.285 188.104 422.264 186.086 422.264 183.524C422.264 180.962 432.285 178.854 444.642 178.854C456.998 178.854 467.019 180.985 467.019 183.524Z" stroke="#3FB1B5" stroke-width="1.13363" stroke-miterlimit="10" stroke-linecap="round"/>
<path d="M437.819 187.265C435.053 187.084 432.536 186.812 430.359 186.426V164.411C430.359 163.686 430.518 162.96 430.835 162.303L437.955 147.611C439.27 144.89 442.036 143.167 445.051 143.167H453.78L434.69 178.287C434.599 178.446 434.531 178.604 434.463 178.763C433.352 181.506 434.735 185.021 437.819 187.265Z" fill="#E57281"/>
<path d="M454.233 178.356L457.045 173.458V186.745C454.732 187.039 452.125 187.289 449.336 187.402L454.233 178.356Z" fill="#9A3B82"/>
<path d="M495.359 101.473L448.88 186.994C447.157 190.168 442.441 190.916 438.315 188.671C434.188 186.427 432.261 182.051 433.984 178.9L480.463 93.3784L495.359 101.473Z" fill="white" stroke="#FE5244" stroke-width="1.13363" stroke-miterlimit="10"/>
<path d="M495.34 101.504C497.062 98.3351 495.123 93.9537 491.008 91.7175C486.894 89.4813 482.162 90.2371 480.44 93.4056C478.718 96.574 480.658 100.955 484.772 103.192C488.887 105.428 493.619 104.672 495.34 101.504Z" fill="white" stroke="#FE5244" stroke-width="1.13363" stroke-miterlimit="10"/>
<path d="M466.881 132.851L488.851 114.667L488.511 121.288L495.539 123.034L478.761 133.395C491.639 130.629 514.765 126.729 518.28 133.531C519.663 136.206 517.055 141.671 515.31 145.593C514.221 153.868 557.617 143.62 558.115 143.507L551.427 149.697L558.115 153.506C558.115 153.506 521.703 160.444 512.317 158.539C507.011 157.451 511.228 150.332 514.924 145.117C516.058 141.104 507.034 139.789 469.511 143.87L466.881 132.851Z" fill="#FE5244"/>
<path d="M467.201 143.78C470.782 143.78 473.686 140.877 473.686 137.296C473.686 133.715 470.782 130.812 467.201 130.812C463.62 130.812 460.717 133.715 460.717 137.296C460.717 140.877 463.62 143.78 467.201 143.78Z" fill="white" stroke="#FE5244" stroke-width="1.13363" stroke-miterlimit="10"/>
<path d="M472.278 159.015L470.192 163.913L467.743 169.626L466.429 172.732L464.411 177.471C464.365 177.607 464.297 177.72 464.229 177.856C464.229 177.856 464.229 177.879 464.207 177.879C463.549 178.99 462.302 179.693 460.942 179.693H444.935C443.008 179.693 441.67 177.856 442.396 176.156L443.552 173.435L446.114 167.427L448.313 162.258L450.24 157.7C450.807 156.363 452.19 155.501 453.709 155.501H469.716C471.689 155.479 473.004 157.315 472.278 159.015Z" fill="#E57281"/>
<path d="M448.881 162.235C449.538 161.487 450.513 161.056 451.556 161.056H466.838C468.447 161.056 469.604 162.439 469.445 163.913" stroke="#9A3B82" stroke-width="0.906905" stroke-miterlimit="10" stroke-linecap="round"/>
<path d="M446.795 167.428C447.452 166.77 448.359 166.385 449.334 166.385H464.616C466.361 166.385 467.586 168.017 467.132 169.627" stroke="#9A3B82" stroke-width="0.906905" stroke-miterlimit="10" stroke-linecap="round"/>
<path d="M444.393 173.412C445.05 172.8 445.934 172.438 446.864 172.438H462.145C463.959 172.438 465.206 174.183 464.617 175.838" stroke="#9A3B82" stroke-width="0.906905" stroke-miterlimit="10" stroke-linecap="round"/>
<path d="M462.552 143.145V143.553C462.552 147.702 459.197 151.08 455.025 151.08H447.135V143.145H462.552Z" fill="#E57281"/>
<path d="M270.946 320.512C270.221 321.601 269.473 322.621 268.725 323.55C267.908 323.346 267.115 323.006 266.389 322.507C265.664 322.009 265.052 321.419 264.553 320.716C265.142 319.696 265.8 318.608 266.548 317.519C270.221 312.078 274.166 308.337 275.39 309.153C276.615 309.97 274.619 315.071 270.946 320.512Z" fill="#FFCF2D"/>
<path d="M304.367 238.824L276.049 280.632C275.709 281.131 276.185 281.743 276.752 281.584L290.287 277.231C288.632 279.204 287.612 281.766 287.612 284.532V297.705C287.612 302.851 283.508 307.046 278.384 307.182C278.067 306.592 277.432 306.184 276.684 306.184C276.162 306.184 275.686 306.388 275.323 306.751C274.96 307.114 274.756 307.59 274.779 308.111C274.779 309.154 275.641 310.016 276.706 310.016C277.658 310.016 278.452 309.29 278.588 308.383C284.256 308.134 288.813 303.441 288.813 297.705V284.532C288.813 281.222 290.446 278.206 292.894 276.392L320.124 267.641L355.085 238.824H304.367ZM277.205 308.565C277.069 308.701 276.888 308.769 276.706 308.769C276.525 308.769 276.343 308.701 276.207 308.565C276.071 308.429 276.003 308.247 276.003 308.066C276.003 307.885 276.071 307.703 276.207 307.567C276.343 307.431 276.525 307.363 276.706 307.363C276.91 307.363 277.069 307.431 277.205 307.567C277.341 307.703 277.409 307.862 277.409 308.066C277.432 308.27 277.341 308.429 277.205 308.565Z" fill="#3FB1B5"/>
<path d="M273.577 280.541C273.463 280.541 273.35 280.518 273.236 280.427C272.964 280.246 272.896 279.861 273.078 279.588L302.598 236.012H356.06C356.4 236.012 356.672 236.284 356.672 236.624C356.672 236.964 356.4 237.236 356.06 237.236H303.232L274.075 280.269C273.962 280.45 273.781 280.541 273.577 280.541Z" fill="#3FB1B5"/>
<path d="M303.415 273.513L300.014 271.971L300.195 271.449C300.263 271.245 301.918 266.439 305.999 261.337C309.786 256.599 316.429 250.772 326.654 249.774L327.243 249.729L327.833 254.014L326.631 254.173L326.201 251.044C316.723 252.132 310.511 257.619 306.951 262.086C303.755 266.076 302.077 269.976 301.555 271.336L303.936 272.424L303.415 273.513Z" fill="white"/>
<path d="M320.645 306.57L313.775 284.124L329.85 276.257L336.471 281.29L347.852 289.928L351.299 324.255L320.645 306.57Z" fill="#E57281"/>
<path d="M336.471 281.29L324.205 308.633L320.645 306.57L313.775 284.124L329.85 276.257L336.471 281.29Z" fill="#9A3B82"/>
<path d="M322.842 285.597C321.686 285.71 319.351 284.531 316.698 282.853L313.592 285.37C311.801 286.821 309.171 286.572 307.72 284.78C307.085 284.01 306.768 283.057 306.768 282.128C306.768 280.926 307.289 279.724 308.309 278.886L309.579 277.843C306.246 275.349 303.639 273.195 303.639 273.195C303.639 273.195 309.42 255.828 327.898 254.059C327.898 254.059 337.693 274.306 338.35 276.233C339.008 278.183 329.372 284.939 322.842 285.597Z" fill="#E57281"/>
<path d="M309.579 277.843C306.246 275.349 303.639 273.195 303.639 273.195C303.639 273.195 305.77 266.779 311.619 261.337C305.498 267.436 314.635 274.238 309.579 277.843Z" fill="#FFCF2D"/>
<path d="M312.799 266.144C312.799 266.144 313.774 263.514 316.245 262.154" stroke="#9A3B82" stroke-width="0.906905" stroke-miterlimit="10" stroke-linecap="round"/>
<path d="M330.484 259.479C330.484 259.479 327.06 259.003 325.36 260.046C323.659 261.089 323.659 266.485 326.38 269.863" stroke="#9A3B82" stroke-width="0.906905" stroke-miterlimit="10" stroke-linecap="round"/>
<path d="M328.013 273.241C328.013 273.241 325.905 275.123 322.322 273.74" stroke="#9A3B82" stroke-width="0.906905" stroke-miterlimit="10" stroke-linecap="round"/>
<path d="M322.662 272.743C322.662 272.743 321.914 273.809 321.959 275.01" stroke="#9A3B82" stroke-width="0.906905" stroke-miterlimit="10" stroke-linecap="round"/>
<path d="M318.228 269.538C318.59 269.44 318.729 268.783 318.538 268.07C318.346 267.356 317.897 266.857 317.534 266.954C317.171 267.051 317.032 267.709 317.224 268.422C317.415 269.136 317.865 269.635 318.228 269.538Z" fill="#9A3B82"/>
<path d="M328.363 265.101C328.689 265.013 328.809 264.403 328.631 263.737C328.452 263.072 328.043 262.604 327.716 262.692C327.39 262.78 327.27 263.39 327.448 264.055C327.627 264.72 328.036 265.188 328.363 265.101Z" fill="#9A3B82"/>
<path d="M317.878 284.214L312.64 280.133C312.051 279.68 311.235 279.725 310.691 280.224L310.373 280.519C309.761 281.108 309.761 282.061 310.373 282.65" stroke="#9A3B82" stroke-width="0.906905" stroke-miterlimit="10" stroke-linecap="round"/>
</svg>
