<svg width="800" height="800" viewBox="0 0 800 800" fill="none" xmlns="http://www.w3.org/2000/svg">
<path d="M352.539 641.702C337.406 649.112 338.831 663.332 338.697 672.879C338.541 683.048 319.137 688.367 319.137 688.367C324.299 672.1 320.628 655.343 320.628 655.343L352.539 641.702Z" fill="#A0505A"/>
<path d="M368.585 679.153L365.136 681.022L357.904 664.488C357.526 663.62 356.68 663.108 355.812 663.108C355.523 663.108 355.211 663.175 354.922 663.286C354.188 663.598 353.654 664.288 353.565 665.089L350.382 689.055L308.524 711.842C307.278 708.86 315.045 701.383 319.161 688.365C319.161 688.365 338.588 683.047 338.722 672.877C338.855 663.331 337.453 649.089 352.563 641.701L355.745 640.343C373.103 648.332 368.585 679.153 368.585 679.153Z" fill="#FFCF2D"/>
<path d="M355.721 522.937V640.344L321.096 655.364L295.148 537.49C306.765 537.935 326.125 535.487 355.721 522.937Z" fill="white" stroke="#9A3B82" stroke-width="1.11265" stroke-miterlimit="10"/>
<path d="M330.262 533.262L337.093 648.377" stroke="#9A3B82" stroke-width="1.11265" stroke-miterlimit="10"/>
<path d="M355.721 522.937V553.668L296.795 545.145L295.148 537.49C306.765 537.935 326.125 535.487 355.721 522.937Z" fill="#9A3B82"/>
<path d="M530.231 443.27L507.845 447.988C507.088 448.144 506.331 447.899 505.797 447.343C505.419 446.92 505.219 446.408 505.219 445.874C505.219 445.295 505.441 444.717 505.909 444.294L518.37 432.611L515.611 430.141C515.611 430.141 486.682 435.816 485.035 453.863L487.238 456.266C498.609 467.437 510.871 461.674 519.438 458.781C527.628 456.021 537.397 468.728 539.333 471.354C539.355 471.354 539.399 471.354 539.422 471.354C552.328 470.931 561.474 475.515 563.722 473.446L530.231 443.27Z" fill="#FFCF2D"/>
<path d="M487.262 456.267C498.633 467.438 510.894 461.675 519.462 458.782C528.586 455.711 539.467 471.355 539.467 471.355C523.312 471.866 509.537 480.434 509.537 480.434L487.262 456.267Z" fill="#A0505A"/>
<path d="M349.021 523.938C349.021 523.938 354.651 561.968 397.845 561.256C441.038 560.544 509.065 480.211 509.065 480.211L485.143 453.997L349.021 523.938Z" fill="white" stroke="#9A3B82" stroke-width="1.11265" stroke-miterlimit="10"/>
<path d="M373.922 513.613C375.346 523.627 382.066 533.062 402.562 532.728C433.004 532.238 476.019 492.294 498.762 468.75" stroke="#9A3B82" stroke-width="1.11265" stroke-miterlimit="10"/>
<path d="M537.551 376.42C533.612 374.93 524.243 380.048 517.189 388.949C509.601 398.496 506.53 408.643 509.868 411.291L402.986 354.457C397.735 351.675 391.682 356.437 393.173 362.179L425.529 484.748C315.933 555.869 280.795 534.551 280.795 534.551V131.77C280.795 131.793 280.795 131.793 280.817 131.815C281.752 134.196 291.788 132.527 303.248 128.054C313.796 123.96 321.852 118.93 322.364 116.304L322.386 116.282V243.191C322.386 251.158 326.681 258.479 333.624 262.374L537.551 376.42Z" fill="#FE5244"/>
<path d="M537.551 376.42C533.612 374.93 524.243 380.048 517.189 388.949C509.601 398.495 506.53 408.643 509.868 411.291L402.986 354.457C397.735 351.675 391.682 356.437 393.173 362.178L425.529 485.238C397.668 503.33 374.614 514.946 355.721 522.957C326.124 535.485 306.764 537.955 295.148 537.51C285.023 537.132 280.795 534.551 280.795 534.551V131.77C280.795 131.793 280.795 131.793 280.817 131.815C281.752 134.196 291.788 132.527 303.248 128.054C313.796 123.96 321.852 118.93 322.364 116.304L322.386 116.282V243.191C322.386 251.158 326.681 258.479 333.624 262.374L537.551 376.42Z" fill="#FE5244"/>
<path d="M384.248 344.576L509.867 412.715" stroke="white" stroke-width="1.33518" stroke-miterlimit="10" stroke-linecap="round"/>
<path d="M336.602 264.021L322.516 345.89L394.415 296.376L336.602 264.021Z" fill="#FFCF2D"/>
<path d="M336.602 264.021L322.516 345.89L394.415 296.376" stroke="white" stroke-width="1.33518" stroke-miterlimit="10" stroke-linecap="round"/>
<path d="M336.027 106.004L243.21 125.031C239.783 125.743 236.245 122.694 235.332 118.221C234.42 113.748 236.467 109.565 239.894 108.853L332.712 89.8262L336.027 106.004Z" fill="white" stroke="#3FB1B5" stroke-width="1.11265" stroke-miterlimit="10" stroke-linecap="round"/>
<path d="M335.995 106.016C339.426 105.312 341.466 101.121 340.55 96.6547C339.634 92.1881 336.111 89.1374 332.68 89.8408C329.248 90.5441 327.209 94.7351 328.125 99.2017C329.04 103.668 332.564 106.719 335.995 106.016Z" fill="white" stroke="#3FB1B5" stroke-width="1.11265" stroke-miterlimit="10" stroke-linecap="round"/>
<path d="M283.064 114.103C283.064 114.103 253.045 147.839 256.316 155.272C260.589 159.522 264.06 161.391 263.548 162.971C262.992 164.685 255.804 175.032 255.804 175.032L255.092 167.355L248.216 169.625C248.216 169.625 255.47 159.032 255.938 155.783C252.956 153.514 246.881 148.796 247.081 145.502C247.304 142.009 257.94 129.592 265.662 121.024L254.024 124.874L251.732 114.126L272.672 110.276L283.064 114.103Z" fill="#FE5244"/>
<path d="M278.992 115.572C282.482 115.572 285.312 112.742 285.312 109.252C285.312 105.762 282.482 102.932 278.992 102.932C275.501 102.932 272.672 105.762 272.672 109.252C272.672 112.742 275.501 115.572 278.992 115.572Z" fill="white" stroke="#FE5244" stroke-width="1.11265" stroke-miterlimit="10"/>
<path d="M322.363 116.305C321.851 118.931 313.796 123.96 303.248 128.054C291.787 132.505 281.751 134.196 280.817 131.815C280.817 131.793 280.817 131.793 280.794 131.771C279.993 129.367 288.494 123.871 299.888 119.442C311.348 114.992 321.384 113.301 322.319 115.682C322.385 115.86 322.408 116.06 322.363 116.305Z" fill="#9A3B82"/>
<path d="M314.642 97.6126L313.418 115.281L312.84 123.738C310.058 125.206 306.787 126.675 303.249 128.055C297.24 130.391 291.632 131.949 287.516 132.594V116.439L304.406 112.967C304.406 112.967 305.34 106.937 307.121 101.885C308.879 96.8114 314.642 97.6126 314.642 97.6126Z" fill="#A0505A"/>
<path d="M304.873 112.233C304.629 113.234 297.285 115.571 297.285 120.912" stroke="#73325A" stroke-width="0.890122" stroke-miterlimit="10" stroke-linecap="round"/>
<path d="M313.418 115.281L312.84 123.737C310.058 125.206 306.787 126.675 303.249 128.055C297.24 130.391 291.632 131.949 287.516 132.594V125.295C290.809 123.359 295.104 121.312 299.888 119.443C304.873 117.484 309.591 116.06 313.418 115.281Z" fill="#73325A"/>
<path d="M302.359 106.447L283.51 110.764C282.509 110.987 281.574 110.185 281.574 109.073V97.6348C281.574 96.0993 282.509 94.7641 283.866 94.319L302.492 88.244C303.672 87.8657 304.851 88.8003 304.851 90.1132V103.154C304.829 104.733 303.805 106.113 302.359 106.447Z" fill="#A0505A"/>
<path d="M288.249 108.984C287.225 109.206 286.246 108.428 286.246 107.359V96.3887C286.246 94.92 287.203 93.6294 288.605 93.2065" stroke="#73325A" stroke-width="0.890122" stroke-miterlimit="10" stroke-linecap="round"/>
<path d="M293.679 107.804C292.655 108.026 291.676 107.225 291.676 106.135V94.8303C291.676 93.3171 292.633 91.9819 294.035 91.5591" stroke="#73325A" stroke-width="0.890122" stroke-miterlimit="10" stroke-linecap="round"/>
<path d="M299.755 106.513C298.731 106.736 297.752 105.912 297.752 104.799V93.0944C297.752 91.5367 298.709 90.157 300.111 89.7119" stroke="#73325A" stroke-width="0.890122" stroke-miterlimit="10" stroke-linecap="round"/>
<path d="M529.272 398.541C521.684 408.11 513.183 413.918 509.845 411.27C506.507 408.621 509.578 398.496 517.166 388.928C524.243 380.026 533.589 374.908 537.528 376.399L538.307 376.844C541.667 379.514 536.86 388.994 529.272 398.541Z" fill="#9A3B82"/>
<path d="M563.611 414.63L558.56 417.3C556.557 418.368 554.064 417.612 552.996 415.609L547.678 405.729L539.622 402.969C540.512 403.303 543.984 405.083 542.893 411.559L523.978 404.505L517.48 402.079L511.316 398.14C512.763 395.203 514.743 392.043 517.213 388.95C519.283 386.346 521.531 384.076 523.778 382.207L530.209 386.702L536.796 387.414L547.5 388.549C549.213 388.727 550.86 389.306 552.307 390.218L560.852 396.293C562.098 397.183 562.921 398.519 563.121 400.032L564.857 412.182C565.013 413.183 564.501 414.162 563.611 414.63Z" fill="#A0505A"/>
<path d="M551.17 394.847L558.58 400.121C559.648 400.878 560.36 402.057 560.561 403.37L562.074 413.184C562.185 414.052 561.762 414.897 560.983 415.298" stroke="#73325A" stroke-width="0.890122" stroke-miterlimit="10" stroke-linecap="round"/>
<path d="M546.588 396.605L553.998 401.879C555.066 402.636 555.778 403.815 555.979 405.128L557.492 414.942C557.603 415.81 557.18 416.655 556.401 417.056" stroke="#73325A" stroke-width="0.890122" stroke-miterlimit="10" stroke-linecap="round"/>
<path d="M539.622 402.946L534.236 401.122" stroke="#73325A" stroke-width="0.890122" stroke-miterlimit="10" stroke-linecap="round"/>
<path d="M536.796 387.414C534.994 390.819 532.368 394.691 529.297 398.563C527.539 400.766 525.759 402.769 523.978 404.505L517.48 402.079L511.316 398.14C512.763 395.203 514.743 392.043 517.213 388.95C519.283 386.346 521.531 384.076 523.778 382.207L530.209 386.702L536.796 387.414Z" fill="#73325A"/>
<path d="M342.482 204.604L390.082 225.723L407.061 275.391L372.569 250.735L356.48 231.086L342.482 204.604Z" fill="#FE5244"/>
<path d="M356.479 231.085C356.479 231.085 372.056 233.755 378.331 251.113L381.647 247.775C381.647 247.775 375.616 230.885 359.683 226.545L356.479 231.085Z" fill="#9A3B82"/>
<path d="M449.319 252.649C443.979 249.623 439.038 247.954 437.458 248.554C437.57 248.287 437.636 247.976 437.614 247.664C437.525 246.685 436.724 245.951 435.767 245.951C435.723 245.951 435.678 245.951 435.611 245.951C434.588 246.04 433.831 246.93 433.898 247.954C433.898 248.02 433.92 248.087 433.92 248.132L428.268 251.759C426.999 252.582 425.442 252.627 424.107 251.892C422.771 251.158 421.993 249.823 421.993 248.31V240.187C421.993 236.649 420.235 233.378 417.275 231.42C414.315 229.461 410.599 229.15 407.35 230.529L396.58 235.336L392.485 223.342L344.641 202.135C344.352 202.001 343.996 202.135 343.862 202.446C343.729 202.735 343.862 203.091 344.174 203.225L391.528 224.232L408.418 273.656C408.507 273.901 408.73 274.056 408.975 274.056C409.041 274.056 409.108 274.034 409.175 274.034C409.486 273.923 409.642 273.589 409.553 273.278L396.98 236.471L407.84 231.62C410.733 230.374 414.026 230.663 416.63 232.399C419.255 234.134 420.813 237.027 420.813 240.187V248.31C420.813 250.268 421.837 252.004 423.55 252.938C424.351 253.383 425.219 253.606 426.087 253.606C427.066 253.606 428.045 253.317 428.913 252.76L434.521 249.178C434.855 249.489 435.3 249.667 435.767 249.667C435.812 249.667 435.878 249.667 435.923 249.667C436.324 249.645 436.68 249.489 436.947 249.244C436.947 250.824 440.997 254.362 446.56 257.522C447.762 258.212 448.963 258.835 450.098 259.369C450.788 258.791 451.367 258.101 451.834 257.278C452.301 256.477 452.591 255.609 452.724 254.719C451.656 254.051 450.521 253.339 449.319 252.649ZM435.812 248.732C435.3 248.777 434.877 248.399 434.833 247.909C434.788 247.42 435.166 246.974 435.656 246.93C436.146 246.885 436.591 247.264 436.635 247.753C436.68 248.243 436.301 248.688 435.812 248.732Z" fill="#FFCF2D"/>
<path d="M353.382 260.351L345.148 306.148L373.21 284.518V255.967L353.382 260.351Z" fill="#A0505A"/>
<path d="M353.381 260.348L352.357 266.089L364.775 291.013L373.209 284.515V255.964L353.381 260.348Z" fill="#73325A"/>
<path d="M356.944 231.554C356.944 231.554 342.902 228.06 338.518 236.204C334.134 244.349 346.952 246.597 347.486 243.748C347.731 242.502 324.41 242.524 328.326 260.171C332.399 278.552 350.757 272.232 350.757 272.232L352.894 260.349L356.944 231.554Z" fill="white" stroke="#9A3B82" stroke-width="0.890122" stroke-miterlimit="10"/>
<path d="M372.987 257.902C372.987 257.902 352.025 285.229 370.451 296.845C385.227 306.147 389.032 293.04 385.071 291.237C380.776 289.279 370.918 326.219 401.271 326.108C431.691 325.997 422.389 288.011 407.057 275.415C399.736 269.407 375.302 252.606 375.302 252.606L372.987 257.902Z" fill="white" stroke="#9A3B82" stroke-width="0.890122" stroke-miterlimit="10"/>
<path d="M372.365 251.047L373.945 252.049C375.481 253.028 375.926 255.053 374.969 256.588L374.657 257.056C373.678 258.591 371.653 259.059 370.118 258.079L368.426 257.011C366.557 258.346 355.319 265.846 348.376 258.391C341.634 251.159 357.211 229.996 357.211 229.996C370.429 234.135 375.592 245.885 375.592 245.885L372.365 251.047Z" fill="#A0505A"/>
<path d="M352.871 234.803C352.871 234.803 356.521 236.161 356.165 239.298C355.808 242.436 352.515 247.376 353.294 248.222C354.073 249.067 355.119 249.223 355.119 249.223" stroke="#73325A" stroke-width="0.890122" stroke-miterlimit="10" stroke-linecap="round"/>
<path d="M351.982 251.114C351.982 251.114 354.697 252.627 358.391 252.049" stroke="#73325A" stroke-width="0.890122" stroke-miterlimit="10" stroke-linecap="round"/>
<path d="M363.618 246.661C363.934 245.834 363.826 245.026 363.378 244.855C362.93 244.684 362.312 245.216 361.996 246.043C361.681 246.87 361.789 247.678 362.237 247.849C362.685 248.02 363.303 247.488 363.618 246.661Z" fill="#73325A"/>
<path d="M353.344 241.948C353.607 241.259 353.512 240.583 353.133 240.439C352.755 240.294 352.234 240.736 351.972 241.425C351.709 242.114 351.803 242.789 352.182 242.934C352.561 243.078 353.081 242.637 353.344 241.948Z" fill="#73325A"/>
<path d="M371.207 254.876C371.83 253.897 373.121 253.607 374.1 254.23" stroke="#73325A" stroke-width="0.890122" stroke-miterlimit="10" stroke-linecap="round"/>
<path d="M362.996 240.79C362.996 240.79 365.711 241.524 367.113 244.751" stroke="#73325A" stroke-width="0.890122" stroke-miterlimit="10" stroke-linecap="round"/>
<path d="M367.047 235.381C367.047 235.381 364.087 245.195 372.566 251.893C377.551 255.832 377.84 251.092 377.84 251.092C377.84 251.092 377.195 241.456 367.047 235.381Z" fill="white" stroke="#9A3B82" stroke-width="0.890122" stroke-miterlimit="10"/>
</svg>
