<svg width="800" height="800" viewBox="0 0 800 800" fill="none" xmlns="http://www.w3.org/2000/svg">
<path d="M651.952 463.791L596.129 365.736C582.803 342.299 557.908 327.846 530.958 327.846H321.885L329.211 312.034C328.615 313.327 325.466 313.658 320.659 312.995C313.3 312.001 302.095 308.785 290.162 303.481C283.333 300.465 277.134 297.316 271.996 294.399C262.283 288.863 256.416 284.023 257.377 281.868L150.637 456.929C127.2 491.106 151.664 537.548 193.101 537.548C198.67 537.548 204.173 536.653 209.41 534.896C214.648 533.139 219.587 530.554 224.029 527.206L306.007 465.581C310.946 461.868 318.007 464.752 319.001 470.819L329.709 537.548H609.024C646.914 537.581 670.682 496.675 651.952 463.791ZM527.709 471.449L536.659 451.095C538.184 447.614 543.09 447.548 544.681 450.995L554.394 471.482H527.709V471.449Z" fill="#FE5244"/>
<path d="M355.164 327.779C355.164 310.641 390.534 289.459 433.429 284.056C497.772 276 511.695 310.641 511.695 327.779" stroke="#FE5244" stroke-width="1.98895" stroke-miterlimit="10"/>
<path d="M504.27 328.078C504.27 343.427 433.43 374.852 433.43 374.852C433.43 374.852 362.59 343.427 362.59 328.078C362.59 312.73 396.269 294.962 435.087 290.222C490.944 283.393 504.27 312.697 504.27 328.078Z" fill="#FE5244"/>
<path d="M504.27 328.078C504.27 343.426 433.43 374.851 433.43 374.851C433.43 374.851 362.59 343.426 362.59 328.078C362.59 328.012 362.59 327.945 362.59 327.879H504.27C504.27 327.912 504.27 327.978 504.27 328.078Z" fill="white"/>
<path d="M511.664 327.747C511.664 344.686 433.431 383.205 433.431 383.205C433.431 383.205 355.199 344.719 355.199 327.747" stroke="white" stroke-width="1.98895" stroke-miterlimit="10"/>
<path d="M493.797 536.818C498.173 536.818 501.72 522.332 501.72 504.497C501.72 486.663 498.173 472.177 493.797 472.177" stroke="white" stroke-width="1.65746" stroke-miterlimit="10" stroke-linecap="round"/>
<path d="M327.59 318.529L266.23 441.215" stroke="white" stroke-width="1.65746" stroke-miterlimit="10"/>
<path d="M314.262 438.397L324.405 505.16" stroke="white" stroke-width="1.65746" stroke-miterlimit="10" stroke-linecap="round"/>
<path d="M430.113 391.062H436.743" stroke="white" stroke-width="1.65746" stroke-miterlimit="10" stroke-linecap="round"/>
<path d="M430.113 398.951H436.743" stroke="white" stroke-width="1.65746" stroke-miterlimit="10" stroke-linecap="round"/>
<path d="M430.113 406.808H436.743" stroke="white" stroke-width="1.65746" stroke-miterlimit="10" stroke-linecap="round"/>
<path d="M430.113 414.664H436.743" stroke="white" stroke-width="1.65746" stroke-miterlimit="10" stroke-linecap="round"/>
<path d="M430.113 422.521H436.743" stroke="white" stroke-width="1.65746" stroke-miterlimit="10" stroke-linecap="round"/>
<path d="M430.113 430.41H436.743" stroke="white" stroke-width="1.65746" stroke-miterlimit="10" stroke-linecap="round"/>
<path d="M430.113 430.774H436.743" stroke="white" stroke-width="1.65746" stroke-miterlimit="10" stroke-linecap="round"/>
<path d="M430.113 438.629H436.743" stroke="white" stroke-width="1.65746" stroke-miterlimit="10" stroke-linecap="round"/>
<path d="M430.113 446.486H436.743" stroke="white" stroke-width="1.65746" stroke-miterlimit="10" stroke-linecap="round"/>
<path d="M430.113 453.979H436.743" stroke="white" stroke-width="1.65746" stroke-miterlimit="10" stroke-linecap="round"/>
<path d="M430.113 461.867H436.743" stroke="white" stroke-width="1.65746" stroke-miterlimit="10" stroke-linecap="round"/>
<path d="M430.113 469.725H436.743" stroke="white" stroke-width="1.65746" stroke-miterlimit="10" stroke-linecap="round"/>
<path d="M430.113 477.581H436.743" stroke="white" stroke-width="1.65746" stroke-miterlimit="10" stroke-linecap="round"/>
<path d="M430.113 485.437H436.743" stroke="white" stroke-width="1.65746" stroke-miterlimit="10" stroke-linecap="round"/>
<path d="M430.113 493.328H436.743" stroke="white" stroke-width="1.65746" stroke-miterlimit="10" stroke-linecap="round"/>
<path d="M430.113 501.183H436.743" stroke="white" stroke-width="1.65746" stroke-miterlimit="10" stroke-linecap="round"/>
<path d="M430.113 509.041H436.743" stroke="white" stroke-width="1.65746" stroke-miterlimit="10" stroke-linecap="round"/>
<path d="M430.113 516.896H436.743" stroke="white" stroke-width="1.65746" stroke-miterlimit="10" stroke-linecap="round"/>
<path d="M430.113 517.294H436.743" stroke="white" stroke-width="1.65746" stroke-miterlimit="10" stroke-linecap="round"/>
<path d="M430.113 525.149H436.743" stroke="white" stroke-width="1.65746" stroke-miterlimit="10" stroke-linecap="round"/>
<path d="M430.113 533.005H436.743" stroke="white" stroke-width="1.65746" stroke-miterlimit="10" stroke-linecap="round"/>
<path d="M429.418 380.354V505.16" stroke="white" stroke-width="1.65746" stroke-miterlimit="10"/>
<path d="M489.953 472.111H569.677" stroke="white" stroke-width="1.65746" stroke-miterlimit="10" stroke-linecap="round"/>
<path d="M268.117 602.554H522.67L498.736 537.813H295.697L268.117 602.554Z" fill="white" stroke="#66B0F0" stroke-width="1.98895" stroke-miterlimit="10"/>
<path d="M268.117 602.553C268.117 593.404 292.382 576.863 331.797 574.609C373.996 572.222 396.106 598.741 395.476 602.553H268.117Z" fill="#66B0F0"/>
<path d="M395.445 602.554C395.445 602.554 384.24 550.179 285.887 560.853L307.135 509.173C307.135 509.173 387.688 494.521 395.478 537.814L395.445 602.554Z" fill="white" stroke="#66B0F0" stroke-width="1.98895" stroke-miterlimit="10" stroke-linejoin="round"/>
<path d="M521.18 598.477C515.313 590.355 492.705 581.869 459.026 579.946C418.981 577.659 397.036 596.687 395.445 601.858V537.814C395.445 537.814 424.02 505.195 498.738 537.814L521.18 598.477Z" fill="white" stroke="#66B0F0" stroke-width="1.98895" stroke-miterlimit="10" stroke-linejoin="round"/>
<path d="M486.803 571.692C478.449 569.571 468.338 567.98 456.803 567.317C451.068 566.985 445.731 567.151 440.825 567.681C428.659 569.04 419.079 572.687 412.25 576.598" stroke="#66B0F0" stroke-width="1.98895" stroke-miterlimit="10" stroke-linecap="round" stroke-linejoin="round"/>
<path d="M483.85 560.654C475.861 558.764 466.348 557.339 455.607 556.709C449.872 556.378 444.535 556.543 439.629 557.074C427.464 558.433 417.883 562.079 411.055 565.991" stroke="#66B0F0" stroke-width="1.98895" stroke-miterlimit="10" stroke-linecap="round" stroke-linejoin="round"/>
<path d="M481.133 549.65C473.508 547.959 464.657 546.699 454.713 546.103C448.978 545.771 443.641 545.937 438.735 546.467C426.569 547.826 416.989 551.473 410.16 555.384" stroke="#66B0F0" stroke-width="1.98895" stroke-miterlimit="10" stroke-linecap="round" stroke-linejoin="round"/>
<path d="M492.07 534.896L513.153 592.311" stroke="#66B0F0" stroke-width="1.98895" stroke-miterlimit="10"/>
<path d="M522.705 602.555H395.445V601.859C397.036 596.688 418.981 577.66 459.026 579.947C492.705 581.87 515.313 590.356 521.18 598.478L522.705 602.555Z" fill="#66B0F0"/>
<path d="M474.037 327.847C474.037 327.847 450.303 340.212 417.352 335.239C409.164 334.013 400.38 331.692 391.297 327.847V287.935L433.993 261.35L440.391 271.991L474.037 327.847Z" fill="#E57281"/>
<path d="M436.347 264.499C438.899 269.239 439.33 274.875 437.474 279.946L417.352 335.239C409.164 334.013 400.38 331.692 391.297 327.847V287.935L434.192 260.521L436.347 264.499Z" fill="#9A3B82"/>
<path d="M432.67 246.631C432.67 246.631 437.675 202.111 419.874 198.034C406.283 194.918 399.521 205.161 399.521 205.161C399.521 205.161 392.162 194.421 380.758 199.459C369.918 204.233 370.681 219.117 375.554 217.923C380.427 216.73 370.847 207.183 360.604 214.244C349.267 222.034 360.604 234.896 360.604 234.896C360.604 234.896 352.217 230.852 348.338 239.106C343.532 249.349 370.979 271.426 370.979 271.426L432.67 246.631Z" fill="#9A3B82"/>
<path d="M405.549 225.117L377.074 236.554C370.212 239.305 366.864 247.161 369.615 253.99L382.046 284.985C386.621 296.421 399.748 301.99 411.151 297.416L422.985 292.675C434.422 288.101 439.991 274.974 435.416 263.57L422.985 232.576C420.234 225.714 412.378 222.366 405.549 225.117Z" fill="#E57281"/>
<path d="M441.15 261.25L435.416 263.571L429.184 248.057L434.918 245.736C438.333 244.377 442.178 246.035 443.537 249.416L444.83 252.631C446.222 256.013 444.565 259.858 441.15 261.25Z" fill="#E57281"/>
<path d="M375.882 286.178L381.617 283.858L375.816 269.438L370.081 271.758C366.667 273.118 365.042 276.996 366.401 280.377L367.263 282.499C368.622 285.88 372.468 287.537 375.882 286.178Z" fill="#9A3B82"/>
<path d="M434.156 256.278C433.095 253.592 434.388 250.576 437.073 249.482" stroke="#9A3B82" stroke-width="1.65746" stroke-miterlimit="10" stroke-linecap="round"/>
<path d="M406.281 241.923C406.281 241.923 413.01 244.443 421.563 240.398" stroke="#9A3B82" stroke-width="1.65746" stroke-miterlimit="10" stroke-linecap="round"/>
<path d="M392.059 253.26C392.059 253.26 402.103 252.233 405.749 269.139" stroke="#9A3B82" stroke-width="1.65746" stroke-miterlimit="10" stroke-linecap="round"/>
<path d="M420.563 274.641C420.563 274.641 405.745 270.663 406.276 278.321" stroke="#9A3B82" stroke-width="1.65746" stroke-miterlimit="10" stroke-linecap="round"/>
<path d="M418.497 258.963C419.205 258.713 419.278 257.097 418.661 255.354C418.043 253.611 416.969 252.401 416.262 252.652C415.554 252.902 415.481 254.518 416.098 256.261C416.716 258.004 417.79 259.214 418.497 258.963Z" fill="#9A3B82"/>
<path d="M391.154 270.37C391.861 270.119 391.934 268.503 391.317 266.76C390.699 265.017 389.625 263.807 388.918 264.058C388.21 264.309 388.137 265.925 388.755 267.668C389.372 269.411 390.446 270.62 391.154 270.37Z" fill="#9A3B82"/>
<path d="M418.186 265.326C423.477 265.326 427.766 261.037 427.766 255.746C427.766 250.455 423.477 246.166 418.186 246.166C412.895 246.166 408.605 250.455 408.605 255.746C408.605 261.037 412.895 265.326 418.186 265.326Z" stroke="#FFCF2D" stroke-width="1.65746" stroke-miterlimit="10" stroke-linecap="round"/>
<path d="M390.006 276.266C395.297 276.266 399.586 271.977 399.586 266.686C399.586 261.395 395.297 257.105 390.006 257.105C384.715 257.105 380.426 261.395 380.426 266.686C380.426 271.977 384.715 276.266 390.006 276.266Z" stroke="#FFCF2D" stroke-width="1.65746" stroke-miterlimit="10" stroke-linecap="round"/>
<path d="M398.953 263.237L409.064 258.596" stroke="#FFCF2D" stroke-width="1.65746" stroke-miterlimit="10" stroke-linecap="round"/>
<path d="M331.201 308.388C330.637 309.681 327.455 310.012 322.648 309.349C315.289 308.355 304.085 305.139 292.151 299.835C285.322 296.786 279.123 293.67 274.018 290.753C264.306 285.217 258.438 280.377 259.399 278.222C260.361 276.101 267.819 277.128 278.361 280.543C284.029 282.366 290.56 284.885 297.455 287.968C309.256 293.206 319.499 298.311 325.532 302.255C329.643 304.907 331.797 307.062 331.201 308.388Z" fill="white" stroke="#FE5244" stroke-width="1.98895" stroke-miterlimit="10"/>
<path d="M387.455 241.162L378.439 276.002L370.317 255.781C367.201 248.024 370.947 239.14 378.605 235.891L387.455 241.162Z" fill="#9A3B82"/>
<path d="M387.785 240.531L369.885 271.559C367.829 275.139 363.984 277.36 359.84 277.36H341.343C338.625 277.36 336.205 279.017 335.177 281.503L325.564 302.288L322.746 308.354C314.625 307.26 303.321 303.747 292.514 298.94C288.47 297.15 284.525 295.26 280.879 293.371L285.752 283.194L294.47 264.995C298.647 255.15 305.84 246.862 315.023 241.36L333.056 230.52C335.442 229.094 338.194 228.332 340.978 228.332H371.608C373.299 228.332 374.956 228.697 376.448 229.426L385.664 233.802C388.216 235.028 389.177 238.111 387.785 240.531Z" fill="#E57281"/>
<path d="M344.496 241.525H366.375C367.999 241.525 369.59 241.89 371.049 242.586L379.899 246.829C382.319 247.989 383.248 250.973 381.922 253.293" stroke="#9A3B82" stroke-width="1.65746" stroke-miterlimit="10" stroke-linecap="round"/>
<path d="M339.059 250.94H360.937C362.561 250.94 364.153 251.305 365.611 252.001L374.462 256.244C376.882 257.405 377.81 260.388 376.484 262.708" stroke="#9A3B82" stroke-width="1.65746" stroke-miterlimit="10" stroke-linecap="round"/>
<path d="M332.664 263.238H354.543C356.167 263.238 357.758 263.603 359.217 264.299L368.067 268.542C370.487 269.702 371.415 272.686 370.09 275.006" stroke="#9A3B82" stroke-width="1.65746" stroke-miterlimit="10" stroke-linecap="round"/>
<path d="M322.782 308.354C314.66 307.26 303.356 303.747 292.549 298.94C288.505 297.15 284.56 295.26 280.914 293.371L286.417 282.133C290.096 283.526 293.71 285.117 297.754 286.94C309.555 292.178 319.864 297.647 325.898 301.592L322.782 308.354Z" fill="#9A3B82"/>
<path d="M326.191 276.464H341.705" stroke="#9A3B82" stroke-width="1.65746" stroke-miterlimit="10" stroke-linecap="round"/>
<path d="M489.821 537.548C494.197 537.548 497.744 522.751 497.744 504.498C497.744 486.245 494.197 471.448 489.821 471.448C485.446 471.448 481.898 486.245 481.898 504.498C481.898 522.751 485.446 537.548 489.821 537.548Z" fill="white"/>
<path d="M497.744 504.498C497.744 510.167 497.412 515.504 496.783 520.178C494.727 525.416 490.517 529.559 485.213 531.515C483.059 532.311 480.705 532.775 478.252 532.775H448.186C444.407 532.775 441.324 535.858 441.324 539.637V540.565C441.324 546.101 435.423 549.681 430.517 547.095L416.396 539.703C413.876 538.377 412.285 535.758 412.285 532.907V521.869C412.285 517.725 414.241 513.847 417.523 511.36L439.07 495.15C442.716 492.399 447.158 490.94 451.7 490.94H497.015C497.512 495.084 497.744 499.659 497.744 504.498Z" fill="#E57281"/>
<path d="M444.503 501.615L424.713 516.499C421.696 518.786 419.906 522.367 419.906 526.146V536.289C419.906 538.908 421.365 541.328 423.685 542.521" stroke="#9A3B82" stroke-width="1.65746" stroke-miterlimit="10" stroke-linecap="round"/>
<path d="M454.581 506.057L434.791 520.941C431.774 523.228 429.984 526.809 429.984 530.588V540.731C429.984 543.35 431.443 545.77 433.763 546.963" stroke="#9A3B82" stroke-width="1.65746" stroke-miterlimit="10" stroke-linecap="round"/>
<path d="M497.746 504.498C497.746 510.167 497.414 515.504 496.784 520.178C494.729 525.416 490.519 529.559 485.215 531.515C483.193 525.515 481.867 515.67 481.867 504.498C481.867 499.659 482.132 495.084 482.563 490.94H497.049C497.514 495.084 497.746 499.659 497.746 504.498Z" fill="#9A3B82"/>
</svg>
