<svg width="800" height="800" viewBox="0 0 800 800" fill="none" xmlns="http://www.w3.org/2000/svg">
<path d="M221.039 274.174H361.936C366.343 258.392 380.774 246.805 397.977 246.805H257.081C239.877 246.805 225.447 258.392 221.039 274.174Z" fill="#3FB1B5"/>
<path d="M258.285 249.081C278.901 249.081 295.678 265.858 295.678 286.473V323.866H436.574V286.473C436.574 265.787 419.798 249.081 399.182 249.081H258.285Z" fill="white" stroke="#3FB1B5" stroke-width="4.26529" stroke-miterlimit="10" stroke-linecap="round"/>
<path d="M508.653 271.261H380.055L387.874 306.947H516.473L508.653 271.261Z" fill="white" stroke="#FFCF2D" stroke-width="4.26529" stroke-miterlimit="10"/>
<path d="M574.7 553.196H274.779C298.878 553.196 316.792 530.874 311.532 507.344L270.372 322.444C268.381 313.344 260.277 306.875 250.965 306.875H550.886C560.198 306.875 568.231 313.344 570.293 322.444L611.453 507.344C616.713 530.874 598.799 553.196 574.7 553.196Z" fill="white" stroke="#FFCF2D" stroke-width="4.26529" stroke-miterlimit="10"/>
<path d="M494.724 309.79L509.581 376.541C518.183 415.071 488.824 451.681 449.37 451.681H436.787C389.442 451.681 348.496 418.839 338.188 372.631L324.184 309.79" stroke="#D0F0E4" stroke-width="7.10881" stroke-miterlimit="10"/>
<path d="M509.65 309.079L524.507 375.83C533.109 414.36 503.749 450.97 464.295 450.97H451.713C404.368 450.97 363.421 418.128 353.114 371.92L339.109 309.079" stroke="#FFCF2D" stroke-width="7.10881" stroke-miterlimit="10" stroke-linecap="round"/>
<path d="M274.777 553.196H225.3C201.201 553.196 183.287 530.874 188.547 507.344L229.707 322.444C231.698 313.344 239.802 306.875 249.114 306.875H251.105C260.417 306.875 268.45 313.344 270.512 322.444L311.672 507.344C316.79 530.874 298.876 553.196 274.777 553.196Z" fill="#FFCF2D" stroke="#FFCF2D" stroke-width="4.26529" stroke-miterlimit="10"/>
<path d="M250.965 306.944V510.399" stroke="white" stroke-width="4.26529" stroke-miterlimit="10"/>
<path d="M203.828 546.511L250.888 509.83L297.664 546.795" stroke="white" stroke-width="4.26529" stroke-miterlimit="10" stroke-linecap="round"/>
</svg>
