<svg width="800" height="800" viewBox="0 0 800 800" fill="none" xmlns="http://www.w3.org/2000/svg">
<path d="M463.93 450.29V600.43H429.241L407.149 538.739L375.508 450.29H463.93Z" fill="#A0505A"/>
<path d="M375.508 450.29H463.93V498.493L386.028 479.665L375.508 450.29Z" fill="#73325A"/>
<path d="M463.93 538.739V600.43H429.241L407.148 538.739C407.148 538.739 425.033 548.612 463.93 538.739Z" stroke="white" stroke-width="1.61847" stroke-miterlimit="10" stroke-linecap="round"/>
<path d="M425.196 553.224C427.371 553.224 429.134 551.461 429.134 549.286C429.134 547.111 427.371 545.348 425.196 545.348C423.021 545.348 421.258 547.111 421.258 549.286C421.258 551.461 423.021 553.224 425.196 553.224Z" stroke="white" stroke-width="1.61847" stroke-miterlimit="10" stroke-linecap="round"/>
<path d="M443.97 565.929C446.145 565.929 447.908 564.166 447.908 561.991C447.908 559.815 446.145 558.052 443.97 558.052C441.795 558.052 440.031 559.815 440.031 561.991C440.031 564.166 441.795 565.929 443.97 565.929Z" stroke="white" stroke-width="1.61847" stroke-miterlimit="10" stroke-linecap="round"/>
<path d="M457.942 551.822C460.117 551.822 461.88 550.059 461.88 547.884C461.88 545.709 460.117 543.945 457.942 543.945C455.767 543.945 454.004 545.709 454.004 547.884C454.004 550.059 455.767 551.822 457.942 551.822Z" stroke="white" stroke-width="1.61847" stroke-miterlimit="10" stroke-linecap="round"/>
<path d="M452.411 580.711C454.586 580.711 456.349 578.948 456.349 576.773C456.349 574.598 454.586 572.834 452.411 572.834C450.236 572.834 448.473 574.598 448.473 576.773C448.473 578.948 450.236 580.711 452.411 580.711Z" stroke="white" stroke-width="1.61847" stroke-miterlimit="10" stroke-linecap="round"/>
<path d="M429.13 573.535C431.305 573.535 433.068 571.772 433.068 569.597C433.068 567.422 431.305 565.659 429.13 565.659C426.955 565.659 425.191 567.422 425.191 569.597C425.191 571.772 426.955 573.535 429.13 573.535Z" stroke="white" stroke-width="1.61847" stroke-miterlimit="10" stroke-linecap="round"/>
<path d="M435.555 595.115C437.731 595.115 439.494 593.352 439.494 591.177C439.494 589.002 437.731 587.239 435.555 587.239C433.38 587.239 431.617 589.002 431.617 591.177C431.617 593.352 433.38 595.115 435.555 595.115Z" stroke="white" stroke-width="1.61847" stroke-miterlimit="10" stroke-linecap="round"/>
<path d="M480.331 628.429L456.539 677.819C453.168 685.777 445.372 690.956 436.713 690.956H406.367C398.598 690.956 393.878 683.079 396.845 675.904L427.353 602.318C429.052 597.84 432.047 594.118 435.796 591.501C439.572 588.884 444.104 587.401 448.879 587.401C455.514 587.401 462.096 591.906 466.466 596.896L477.04 608.306C481.922 613.863 483.19 621.659 480.331 628.429Z" fill="#66B0F0"/>
<path d="M480.329 628.429L456.537 677.819C453.165 685.777 445.37 690.956 436.711 690.956H404.449C401.455 690.956 399.756 689.095 398.758 686.532H405.933C414.592 686.532 422.388 681.353 425.759 673.396L453.192 616.183C455.755 610.842 461.177 607.416 467.111 607.416C474.853 607.416 480.733 613.081 481.812 620.256C481.92 623.007 481.435 625.786 480.329 628.429Z" fill="white" stroke="#66B0F0" stroke-width="1.61847" stroke-miterlimit="10" stroke-linejoin="round"/>
<path d="M474.854 605.932C471.995 604.368 468.542 603.235 465.521 603.235C459.721 603.235 454.353 606.607 451.845 611.84L423.441 671.076C419.826 679.626 411.464 685.156 402.158 685.156H396.925C396.655 684.644 396.466 684.104 396.277 683.538H402.158C410.817 683.538 418.585 678.386 421.957 670.428L421.984 670.401L450.415 611.138C453.194 605.339 459.128 601.616 465.548 601.616C467.598 601.616 470.053 602.291 472.157 603.019L474.854 605.932Z" fill="white"/>
<path d="M375.502 450.29L368.732 538.74L365.71 578.365C365.71 578.365 345.992 600.322 323.549 586.781L313.164 538.766L289.4 428.899C282.98 399.2 303.264 370.311 333.395 366.292L375.502 450.29Z" fill="#A0505A"/>
<path d="M368.735 538.74L365.714 579.444C365.714 579.444 345.996 601.401 323.553 587.86L313.168 538.767C339.252 546.589 368.735 538.74 368.735 538.74Z" stroke="white" stroke-width="1.61847" stroke-miterlimit="10" stroke-linecap="round"/>
<path d="M337.743 563.206C339.918 563.206 341.681 561.442 341.681 559.267C341.681 557.092 339.918 555.329 337.743 555.329C335.568 555.329 333.805 557.092 333.805 559.267C333.805 561.442 335.568 563.206 337.743 563.206Z" stroke="white" stroke-width="1.61847" stroke-miterlimit="10" stroke-linecap="round"/>
<path d="M362.774 557.163C364.949 557.163 366.712 555.399 366.712 553.224C366.712 551.049 364.949 549.286 362.774 549.286C360.599 549.286 358.836 551.049 358.836 553.224C358.836 555.399 360.599 557.163 362.774 557.163Z" stroke="white" stroke-width="1.61847" stroke-miterlimit="10" stroke-linecap="round"/>
<path d="M322.638 551.822C324.813 551.822 326.576 550.059 326.576 547.884C326.576 545.709 324.813 543.945 322.638 543.945C320.462 543.945 318.699 545.709 318.699 547.884C318.699 550.059 320.462 551.822 322.638 551.822Z" stroke="white" stroke-width="1.61847" stroke-miterlimit="10" stroke-linecap="round"/>
<path d="M333.809 584.65C335.984 584.65 337.748 582.887 337.748 580.712C337.748 578.537 335.984 576.774 333.809 576.774C331.634 576.774 329.871 578.537 329.871 580.712C329.871 582.887 331.634 584.65 333.809 584.65Z" stroke="white" stroke-width="1.61847" stroke-miterlimit="10" stroke-linecap="round"/>
<path d="M352.173 576.773C354.348 576.773 356.111 575.009 356.111 572.834C356.111 570.659 354.348 568.896 352.173 568.896C349.998 568.896 348.234 570.659 348.234 572.834C348.234 575.009 349.998 576.773 352.173 576.773Z" stroke="white" stroke-width="1.61847" stroke-miterlimit="10" stroke-linecap="round"/>
<path d="M391.715 587.805L365.712 691.792H357.511C357.134 691.792 356.783 691.765 356.405 691.738C350.201 691.171 344.968 685.938 343.646 679.761L323.523 586.726C345.966 600.294 365.712 578.337 365.712 578.337L391.715 587.805Z" fill="#66B0F0"/>
<path d="M393.038 641.161C398.514 612.245 400.024 590.152 390.583 588.372C381.142 586.592 364.337 605.771 358.861 634.687C353.385 663.604 356.245 689.176 365.686 690.956C375.127 692.763 387.562 670.105 393.038 641.161Z" fill="white" stroke="#66B0F0" stroke-width="1.61847" stroke-miterlimit="10" stroke-linejoin="round"/>
<path d="M355.081 634.229C352.249 649.227 351.413 663.712 352.761 675.042C353.732 683.188 355.782 688.988 358.588 691.793H357.509C357.131 691.793 356.78 691.766 356.403 691.739C353.867 688.394 352.06 682.783 351.143 675.231C349.767 663.766 350.603 649.092 353.49 633.933C356.214 619.582 361.717 606.122 369.027 596.006C373.397 589.964 377.982 585.729 382.163 583.814L384.591 584.623C374.961 587.482 360.341 606.473 355.081 634.229Z" fill="white"/>
<path d="M333.402 366.265L456.46 353.587L579.464 388.088L578.412 404.434C576.739 430.222 554.512 450.291 528.671 450.291H375.537L333.402 366.265Z" fill="#FE5244"/>
<path d="M572.445 386.899C572.445 410.313 549.085 438.96 523.244 438.96H370.109" stroke="white" stroke-width="1.61847" stroke-miterlimit="10" stroke-linecap="round" stroke-linejoin="round"/>
<path d="M557.857 382.232C554.026 403.138 533.58 425.473 511.191 425.473H363.91" stroke="white" stroke-width="1.61847" stroke-miterlimit="10" stroke-linecap="round" stroke-linejoin="round"/>
<path d="M541.262 377.27C534.788 395.019 517.228 411.716 498.211 411.716H356.082" stroke="white" stroke-width="1.61847" stroke-miterlimit="10" stroke-linecap="round" stroke-linejoin="round"/>
<path d="M528.505 373.79C520.008 386.71 506.062 396.88 491.199 396.88H349.07" stroke="white" stroke-width="1.61847" stroke-miterlimit="10" stroke-linecap="round" stroke-linejoin="round"/>
<path d="M514.264 369.797C506.09 378.025 495.516 383.392 484.457 383.392H342.328" stroke="white" stroke-width="1.61847" stroke-miterlimit="10" stroke-linecap="round" stroke-linejoin="round"/>
<path d="M495.73 364.429C489.958 367.693 483.645 369.635 477.172 369.635H335.043" stroke="white" stroke-width="1.61847" stroke-miterlimit="10" stroke-linecap="round" stroke-linejoin="round"/>
<path d="M375.236 450.288L333.129 366.263" stroke="white" stroke-width="1.61847" stroke-miterlimit="10" stroke-linecap="round" stroke-linejoin="round"/>
<path d="M586.194 275.496C574.595 278.787 563.185 277.816 561.971 274.282C560.838 270.91 565.963 265.138 576.348 261.307C576.861 261.118 577.4 260.93 577.94 260.741C581.069 259.689 584.198 259.014 587.138 258.664C595.851 257.558 602.945 259.122 603.835 261.766C605.049 265.3 598.467 272.016 586.194 275.496Z" fill="white" stroke="#3FB1B5" stroke-width="1.61847" stroke-miterlimit="10" stroke-linejoin="round"/>
<path d="M578.857 354.154H574.406L562.726 275.307V275.253L562.43 273.284C562.996 269.697 568.607 264.625 578.507 261.335C583.443 259.689 588.352 258.961 592.533 258.88L596.795 270.56L597.2 271.666L610.687 308.648C618.779 330.74 602.406 354.154 578.857 354.154Z" fill="#A0505A"/>
<path d="M597.065 271.396C594.233 273.176 590.564 274.822 586.194 276.063C576.16 278.895 565.99 277.735 562.726 275.307V275.253L562.43 273.284C562.996 269.697 568.607 264.625 578.507 261.335C583.443 259.689 588.352 258.961 592.533 258.88L597.065 271.396Z" fill="#73325A"/>
<path d="M434.386 289.278L420.225 324.507C413.238 341.906 396.352 353.316 377.578 353.316H187.219V335.89C187.219 331.682 189.808 327.906 193.747 326.422L213.303 319.004C215.083 318.33 216.945 317.979 218.833 317.979H241.033L366.68 305.301L388.368 255.641L434.386 289.278Z" fill="#A0505A"/>
<path d="M207.719 329.714L192.964 335.298C189.996 336.431 188.027 339.263 188.027 342.446" stroke="#73325A" stroke-width="1.61847" stroke-miterlimit="10" stroke-linecap="round"/>
<path d="M207.719 338.615L192.964 344.198C189.996 345.331 188.027 348.164 188.027 351.347" stroke="#73325A" stroke-width="1.61847" stroke-miterlimit="10" stroke-linecap="round"/>
<path d="M207.724 347.193L192.969 352.507" stroke="#73325A" stroke-width="1.61847" stroke-miterlimit="10" stroke-linecap="round"/>
<path d="M206.18 321.999C206.18 321.999 219.991 286.743 224.414 287.337C228.838 287.93 212.168 319.733 212.168 319.733L206.18 321.999Z" fill="#FE5244"/>
<path d="M388.363 255.669L385.18 262.925L425.938 310.265L434.381 289.279L388.363 255.669Z" fill="#73325A"/>
<path d="M562.728 275.334L579.452 388.088L456.476 353.587L434.384 289.253L377.359 247.578L397.375 223.732C415.232 202.449 441.586 190.149 469.369 190.149H508.887C543.253 190.149 574.894 208.923 591.375 239.081L604.188 261.254C604.188 261.254 600.331 255.589 579.533 261.281C561.218 266.325 562.728 275.334 562.728 275.334Z" fill="#3FB1B5"/>
<path d="M434.383 288.741L440.776 261.011" stroke="white" stroke-width="1.61847" stroke-miterlimit="10" stroke-linecap="round" stroke-linejoin="round"/>
<path d="M576.352 361.76L555.555 232.472" stroke="white" stroke-width="1.61847" stroke-miterlimit="10" stroke-linecap="round" stroke-linejoin="round"/>
<path d="M456.445 353.075L579.179 388.088" stroke="white" stroke-width="1.61847" stroke-miterlimit="10" stroke-linecap="round" stroke-linejoin="round"/>
<path d="M463.09 172.129V190.256L495.082 189.986V157.994L463.09 172.129Z" fill="#A0505A"/>
<path d="M497.667 152.411V152.897C497.667 157.752 493.999 161.69 489.143 161.69H487.255C486.041 166.492 475.251 172.103 467.591 172.103H458.662C448.897 172.103 441.425 163.336 443.017 153.679L443.449 151.062L440.805 149.579C439.294 148.716 438.863 146.747 439.915 145.344L445.633 137.791L446.874 130.346C447.872 124.223 451.892 119.233 457.233 116.778C459.337 140.488 480.269 143.294 485.798 143.617H488.874C493.729 143.617 497.667 147.556 497.667 152.411Z" fill="#A0505A"/>
<path d="M483.508 154.73C483.508 150.9 486.61 147.798 490.44 147.798" stroke="#73325A" stroke-width="1.61847" stroke-miterlimit="10" stroke-linecap="round"/>
<path d="M454.262 143.86C455.022 143.86 455.638 142.435 455.638 140.677C455.638 138.919 455.022 137.494 454.262 137.494C453.503 137.494 452.887 138.919 452.887 140.677C452.887 142.435 453.503 143.86 454.262 143.86Z" fill="#73325A"/>
<path d="M452.16 130.83C452.16 130.83 455.964 130.453 459.875 135.848" stroke="#73325A" stroke-width="1.61847" stroke-miterlimit="10" stroke-linecap="round"/>
<path d="M485.793 143.617H488.868C493.724 143.617 497.662 147.556 497.662 152.411V152.897C497.662 157.752 493.993 161.69 489.138 161.69L487.061 163.147C478.321 168.758 466.237 190.823 469.204 206.441C472.549 224.001 487.843 227.913 501.978 225.215C516.112 222.518 526.417 214.291 523.072 196.703C522.694 194.626 522.074 192.549 521.292 190.499C521.534 190.58 521.75 190.661 521.993 190.742C538.987 195.381 558.948 195.921 564.451 182.649C569.954 169.378 568.713 156.241 552.177 149.39C542.574 145.398 529.519 145.425 519.403 148.176C524.502 130.454 515.438 110.735 498.795 108.766C472.657 105.664 457.659 116.454 457.254 116.751C457.227 119.88 459.358 142.08 485.793 143.617Z" fill="#73325A"/>
<path d="M520.082 147.556C517.951 154.489 513.554 161.907 506.406 166.951C506.406 166.951 519.03 175.286 521.998 190.769" stroke="white" stroke-width="1.61847" stroke-miterlimit="10" stroke-linecap="round" stroke-linejoin="round"/>
<path d="M527.41 146.964H520.262V139.816C520.262 136.066 523.283 133.045 527.032 133.045H527.41C531.159 133.045 534.181 136.066 534.181 139.816V140.193C534.208 143.916 531.159 146.964 527.41 146.964Z" stroke="#FE5244" stroke-width="1.61847" stroke-miterlimit="10" stroke-linejoin="round"/>
<path d="M524.793 154.301L520.207 147.018L527.49 142.432C531.132 140.139 535.96 141.218 538.253 144.86L538.685 145.534C540.977 149.176 539.898 154.004 536.257 156.297L535.582 156.729C531.887 159.022 527.086 157.943 524.793 154.301Z" stroke="#FE5244" stroke-width="1.61847" stroke-miterlimit="10" stroke-linejoin="round"/>
<path d="M482.551 167.301L487.649 162.418L492.64 168.056C495.094 170.888 494.771 175.177 491.938 177.605L491.642 177.848C488.809 180.303 484.52 179.979 482.093 177.147L481.85 176.85C479.395 174.044 479.719 169.756 482.551 167.301Z" stroke="#FE5244" stroke-width="1.61847" stroke-miterlimit="10" stroke-linejoin="round"/>
<path d="M489.992 170.807L487.699 162.526L495.98 160.234C500.134 159.074 504.423 161.501 505.583 165.655L505.799 166.438C506.959 170.592 504.531 174.881 500.377 176.041L499.595 176.256C495.441 177.389 491.152 174.935 489.992 170.807Z" stroke="#FE5244" stroke-width="1.61847" stroke-miterlimit="10" stroke-linejoin="round"/>
<path d="M416.392 471.036L369.402 690.959" stroke="#FFCF2D" stroke-width="1.61847" stroke-miterlimit="10" stroke-linecap="round"/>
<path d="M536.645 471.036L583.634 690.959" stroke="#FFCF2D" stroke-width="1.61847" stroke-miterlimit="10" stroke-linecap="round"/>
<path d="M379.812 642.133H572.572" stroke="#FFCF2D" stroke-width="1.61847" stroke-miterlimit="10" stroke-linecap="round"/>
<path d="M573.628 471.034H379.384C376.93 471.034 374.934 469.038 374.934 466.584V454.742C374.934 452.287 376.93 450.291 379.384 450.291H573.628C576.083 450.291 578.079 452.287 578.079 454.742V466.584C578.079 469.038 576.083 471.034 573.628 471.034Z" fill="white" stroke="#66B0F0" stroke-width="1.61847" stroke-miterlimit="10" stroke-linejoin="round"/>
</svg>
