<svg width="800" height="800" viewBox="0 0 800 800" fill="none" xmlns="http://www.w3.org/2000/svg">
<path d="M383.223 319.729V223.655C383.223 190.917 409.791 164.349 442.529 164.349C475.267 164.349 501.836 190.917 501.836 223.655V319.729" stroke="#FFCF2D" stroke-width="3.77749" stroke-miterlimit="10"/>
<path d="M324.609 635.651H545.529C571.279 635.651 592.181 614.749 592.181 588.999V281.26C592.181 255.51 571.279 234.608 545.529 234.608H324.609C298.859 234.608 277.957 255.51 277.957 281.26V588.999C277.957 614.812 298.859 635.651 324.609 635.651Z" fill="#3FB1B5"/>
<path d="M592.117 306.069C592.117 276.604 568.193 252.68 538.729 252.68H366.601C337.137 252.68 313.213 276.604 313.213 306.069V518.741" stroke="white" stroke-width="3.77749" stroke-miterlimit="10"/>
<path d="M546.221 635.652H395.562C370.19 635.652 349.666 615.127 349.666 589.755V315.698C349.666 290.326 370.19 269.802 395.562 269.802H546.221C571.593 269.802 592.118 290.326 592.118 315.698V589.755C592.118 615.127 571.593 635.652 546.221 635.652Z" fill="white" stroke="#FFCF2D" stroke-width="3.77749" stroke-miterlimit="10"/>
<path d="M416.4 341.326V245.251C416.4 212.513 442.969 185.945 475.707 185.945C508.445 185.945 535.013 212.513 535.013 245.251V341.326" stroke="#FFCF2D" stroke-width="3.77749" stroke-miterlimit="10"/>
<path d="M545.717 599.577H397.514C385.489 599.577 375.73 589.818 375.73 577.793V464.532C375.73 452.507 385.489 442.748 397.514 442.748H545.717C557.742 442.748 567.501 452.507 567.501 464.532V577.793C567.564 589.818 557.805 599.577 545.717 599.577Z" fill="#FFCF2D"/>
<path d="M322.659 518.74H304.023" stroke="#FFCF2D" stroke-width="3.77749" stroke-miterlimit="10"/>
<path d="M280.853 321.745C280.853 413.538 180.498 549.716 215.062 593.346C248.052 634.962 280.853 593.284 280.853 593.284V321.745Z" fill="white" stroke="#3FB1B5" stroke-width="3.77749" stroke-miterlimit="10"/>
<path d="M387.568 484.805H554.093" stroke="white" stroke-width="3.14791" stroke-miterlimit="10" stroke-linecap="round"/>
<path d="M428.365 339.435H404.441V350.893H428.365V339.435Z" stroke="#FFCF2D" stroke-width="3.77749" stroke-miterlimit="10"/>
<path d="M546.535 339.435H522.611V350.893H546.535V339.435Z" stroke="#FFCF2D" stroke-width="3.77749" stroke-miterlimit="10"/>
<path d="M387.568 492.487V484.806" stroke="white" stroke-width="3.14791" stroke-miterlimit="10" stroke-linecap="round"/>
<path d="M402.678 492.487V484.806" stroke="white" stroke-width="3.14791" stroke-miterlimit="10" stroke-linecap="round"/>
<path d="M417.852 492.487V484.806" stroke="white" stroke-width="3.14791" stroke-miterlimit="10" stroke-linecap="round"/>
<path d="M432.959 492.487V484.806" stroke="white" stroke-width="3.14791" stroke-miterlimit="10" stroke-linecap="round"/>
<path d="M448.133 492.487V484.806" stroke="white" stroke-width="3.14791" stroke-miterlimit="10" stroke-linecap="round"/>
<path d="M463.246 492.487V484.806" stroke="white" stroke-width="3.14791" stroke-miterlimit="10" stroke-linecap="round"/>
<path d="M479.109 492.487V484.806" stroke="white" stroke-width="3.14791" stroke-miterlimit="10" stroke-linecap="round"/>
<path d="M494.283 492.487V484.806" stroke="white" stroke-width="3.14791" stroke-miterlimit="10" stroke-linecap="round"/>
<path d="M508.701 492.487V484.806" stroke="white" stroke-width="3.14791" stroke-miterlimit="10" stroke-linecap="round"/>
<path d="M523.809 492.487V484.806" stroke="white" stroke-width="3.14791" stroke-miterlimit="10" stroke-linecap="round"/>
<path d="M538.982 492.487V484.806" stroke="white" stroke-width="3.14791" stroke-miterlimit="10" stroke-linecap="round"/>
<path d="M554.092 492.487V484.806" stroke="white" stroke-width="3.14791" stroke-miterlimit="10" stroke-linecap="round"/>
<path d="M405.136 518.741C401.043 518.741 397.958 515.153 398.462 511.123L401.799 484.744H408.472L411.809 511.123C412.376 515.153 409.228 518.741 405.136 518.741Z" fill="white" stroke="#3FB1B5" stroke-width="3.77749" stroke-miterlimit="10"/>
</svg>
