<svg width="800" height="800" viewBox="0 0 800 800" fill="none" xmlns="http://www.w3.org/2000/svg">
<path d="M428.216 481.979H447.198C462.236 481.979 474.424 494.167 474.424 509.205V623.832C474.424 638.87 462.236 651.057 447.198 651.057H439.738C431.067 651.057 424.035 658.089 424.035 666.761" stroke="#66B0F0" stroke-width="1.42541" stroke-miterlimit="10" stroke-linecap="round"/>
<path d="M424.745 689.259C432.223 689.259 438.286 683.196 438.286 675.718C438.286 668.239 432.223 662.176 424.745 662.176C417.266 662.176 411.203 668.239 411.203 675.718C411.203 683.196 417.266 689.259 424.745 689.259Z" fill="white" stroke="#66B0F0" stroke-width="1.42541" stroke-miterlimit="10" stroke-linejoin="round"/>
<path d="M422.084 481.978H538.231C543.458 481.978 547.687 477.75 547.687 472.523V464.565C547.687 459.338 543.458 455.109 538.231 455.109H422.084C416.073 455.109 411.203 459.98 411.203 465.99V471.074C411.203 477.108 416.073 481.978 422.084 481.978Z" fill="#D0F0E4" stroke="#66B0F0" stroke-width="1.42541" stroke-miterlimit="10" stroke-linejoin="round"/>
<path d="M530.746 481.979H511.764C496.726 481.979 484.539 494.166 484.539 509.204V623.831C484.539 638.869 496.726 651.056 511.764 651.056H519.224C527.895 651.056 534.927 658.088 534.927 666.76" stroke="#66B0F0" stroke-width="1.42541" stroke-miterlimit="10" stroke-linecap="round"/>
<path d="M534.237 689.258C541.715 689.258 547.778 683.195 547.778 675.716C547.778 668.238 541.715 662.175 534.237 662.175C526.758 662.175 520.695 668.238 520.695 675.716C520.695 683.195 526.758 689.258 534.237 689.258Z" fill="white" stroke="#66B0F0" stroke-width="1.42541" stroke-miterlimit="10" stroke-linejoin="round"/>
<path d="M319.366 638.039L327.918 655.547C330.793 661.439 332.29 667.877 332.29 674.387V687.667C332.29 689.971 330.365 691.848 327.99 691.848H230.301C227.712 691.848 225.621 689.805 225.621 687.287V683.177C225.621 681.514 226.548 679.993 228.044 679.186C238.188 673.745 270.949 656.735 277.292 638.561L319.366 638.039Z" fill="white" stroke="#FFCF2D" stroke-width="1.42541" stroke-miterlimit="10"/>
<path d="M331.695 667.306H324.045C316.966 667.306 310.385 670.893 306.679 676.761L303.424 681.94C301.476 685.029 298.031 686.906 294.325 686.906H225.668" fill="white"/>
<path d="M331.695 667.306H324.045C316.966 667.306 310.385 670.893 306.679 676.761L303.424 681.94C301.476 685.029 298.031 686.906 294.325 686.906H225.668" stroke="#FFCF2D" stroke-width="1.42541" stroke-miterlimit="10"/>
<path d="M325.782 651.175C318.441 651.412 308.7 650.652 296.941 648.514C289.22 647.112 281.879 644.974 275.488 642.575C276.225 641.244 276.819 639.914 277.294 638.584L319.367 638.037L325.782 651.175Z" fill="#FFCF2D"/>
<path d="M256.933 661.533L264.678 649.25C267.576 644.665 264.369 638.655 258.952 638.512C254.058 638.37 250.519 643.192 252.134 647.825L256.933 661.533Z" stroke="#FE5244" stroke-width="1.42541" stroke-miterlimit="10" stroke-linecap="round" stroke-linejoin="round"/>
<path d="M256.505 661.605L248.047 654.644C244.888 652.055 240.089 653.86 239.471 657.923C238.901 661.581 242.179 664.67 245.79 663.91L256.505 661.605Z" stroke="#FE5244" stroke-width="1.42541" stroke-miterlimit="10" stroke-linecap="round" stroke-linejoin="round"/>
<path d="M255.742 661.248H274.961" stroke="#FE5244" stroke-width="1.42541" stroke-miterlimit="10" stroke-linecap="round" stroke-linejoin="round"/>
<path d="M250.141 666.616H269.336" stroke="#FE5244" stroke-width="1.42541" stroke-miterlimit="10" stroke-linecap="round" stroke-linejoin="round"/>
<path d="M264.371 655.617H283.091" stroke="#FE5244" stroke-width="1.42541" stroke-miterlimit="10" stroke-linecap="round" stroke-linejoin="round"/>
<path d="M433.561 393.175L389.492 409.852L347.11 630.578C345.399 634.616 322.925 640.413 301.948 640.413C279.854 640.413 261.965 634.26 261.965 629.912L288.002 427.171C291.4 400.421 314.159 380.346 341.147 380.346H432.729L433.157 393.151L433.561 393.175Z" fill="white" stroke="#3FB1B5" stroke-width="1.42541" stroke-miterlimit="10" stroke-linecap="round"/>
<path d="M300.738 640.365L326.443 440.213C329.793 413.796 353.74 393.507 393.153 393.507" stroke="#3FB1B5" stroke-width="1.42541" stroke-miterlimit="10" stroke-linecap="round"/>
<path d="M413.11 390.798L365.667 535.882L347.185 476.775C335.781 438.977 356.331 390.798 413.11 390.798Z" fill="#3FB1B5"/>
<path d="M465.139 637.159L482.221 679.708C484.596 685.599 479.916 691.895 473.169 691.895H408.835C405.652 691.895 403.062 689.496 403.062 686.502V682.226C403.062 680.278 403.68 678.401 404.868 676.786L416.153 664.456C422.733 657.281 426.344 648.135 426.344 638.703V638.585L465.139 637.159Z" fill="white" stroke="#FFCF2D" stroke-width="1.42541" stroke-miterlimit="10"/>
<path d="M407.246 674.265C410.81 672.602 414.73 671.723 418.721 671.723H439.365C443.024 671.723 446.635 672.46 449.961 673.885L457.516 677.092" fill="white"/>
<path d="M407.246 674.265C410.81 672.602 414.73 671.723 418.721 671.723H439.365C443.024 671.723 446.635 672.46 449.961 673.885L457.516 677.092" stroke="#FFCF2D" stroke-width="1.42541" stroke-miterlimit="10"/>
<path d="M465.945 639.105C464.614 644.355 446.963 648.536 425.392 648.536H425.035C425.914 645.329 426.366 642.027 426.366 638.677V638.558L465.161 637.157L465.945 639.105Z" fill="#FFCF2D"/>
<path d="M432.359 658.419L445.354 658.3C450.723 658.229 453.978 652.361 451.199 647.776C448.68 643.619 442.789 643.286 439.819 647.135L432.359 658.419Z" stroke="#FE5244" stroke-width="1.42541" stroke-miterlimit="10" stroke-linejoin="round"/>
<path d="M432.357 658.419L425.563 649.985C423.021 646.825 418.008 647.633 416.606 651.434C415.323 654.855 417.865 658.514 421.524 658.49L432.357 658.419Z" stroke="#FE5244" stroke-width="1.42541" stroke-miterlimit="10" stroke-linejoin="round"/>
<path d="M425.129 663.266H453.281" stroke="#FE5244" stroke-width="1.42541" stroke-miterlimit="10" stroke-linecap="round" stroke-linejoin="round"/>
<path d="M480.055 625.85C480.055 631.005 461.429 640.674 441.996 640.674C424.535 640.674 410.067 637.206 407.335 632.811L359.298 479.151C345.971 435.034 378.993 390.562 425.057 390.562H432.945L431.828 350.935H530.467L540.183 391.251C548.023 423.797 523.363 455.917 489.89 455.917H445.607L480.055 625.85Z" fill="white" stroke="#3FB1B5" stroke-width="1.42541" stroke-miterlimit="10" stroke-linecap="round"/>
<path d="M449.433 639.937L404.034 494.688C387.713 447.53 406.029 422.823 449.576 422.823H489.274C501.841 422.823 512.033 412.631 512.033 400.064V351.03" stroke="#3FB1B5" stroke-width="1.42541" stroke-miterlimit="10" stroke-linecap="round"/>
<path d="M481.26 201.906L529.083 215.4C550.012 221.125 565.193 239.275 567.094 260.894L574.387 341.549H321.305L344.681 250.916C348.506 235.807 359.957 223.833 374.876 219.343L430.729 201.906H481.26Z" fill="#FE5244"/>
<path d="M335.539 334.588C336.811 334.588 337.843 333.557 337.843 332.284C337.843 331.011 336.811 329.979 335.539 329.979C334.266 329.979 333.234 331.011 333.234 332.284C333.234 333.557 334.266 334.588 335.539 334.588Z" fill="white"/>
<path d="M359.535 334.588C360.808 334.588 361.839 333.556 361.839 332.283C361.839 331.011 360.808 329.979 359.535 329.979C358.262 329.979 357.23 331.011 357.23 332.283C357.23 333.556 358.262 334.588 359.535 334.588Z" fill="white"/>
<path d="M383.527 334.588C384.8 334.588 385.831 333.556 385.831 332.283C385.831 331.011 384.8 329.979 383.527 329.979C382.254 329.979 381.223 331.011 381.223 332.283C381.223 333.556 382.254 334.588 383.527 334.588Z" fill="white"/>
<path d="M407.523 334.588C408.796 334.588 409.828 333.556 409.828 332.283C409.828 331.011 408.796 329.979 407.523 329.979C406.25 329.979 405.219 331.011 405.219 332.283C405.219 333.556 406.25 334.588 407.523 334.588Z" fill="white"/>
<path d="M431.515 334.588C432.788 334.588 433.82 333.556 433.82 332.283C433.82 331.011 432.788 329.979 431.515 329.979C430.243 329.979 429.211 331.011 429.211 332.283C429.211 333.556 430.243 334.588 431.515 334.588Z" fill="white"/>
<path d="M455.511 334.588C456.784 334.588 457.816 333.556 457.816 332.283C457.816 331.011 456.784 329.979 455.511 329.979C454.239 329.979 453.207 331.011 453.207 332.283C453.207 333.556 454.239 334.588 455.511 334.588Z" fill="white"/>
<path d="M479.508 334.588C480.78 334.588 481.812 333.556 481.812 332.283C481.812 331.011 480.78 329.979 479.508 329.979C478.235 329.979 477.203 331.011 477.203 332.283C477.203 333.556 478.235 334.588 479.508 334.588Z" fill="white"/>
<path d="M503.5 334.588C504.772 334.588 505.804 333.556 505.804 332.283C505.804 331.011 504.772 329.979 503.5 329.979C502.227 329.979 501.195 331.011 501.195 332.283C501.195 333.556 502.227 334.588 503.5 334.588Z" fill="white"/>
<path d="M527.496 334.588C528.769 334.588 529.8 333.556 529.8 332.283C529.8 331.011 528.769 329.979 527.496 329.979C526.223 329.979 525.191 331.011 525.191 332.283C525.191 333.556 526.223 334.588 527.496 334.588Z" fill="white"/>
<path d="M551.488 334.588C552.761 334.588 553.792 333.556 553.792 332.283C553.792 331.011 552.761 329.979 551.488 329.979C550.215 329.979 549.184 331.011 549.184 332.283C549.184 333.556 550.215 334.588 551.488 334.588Z" fill="white"/>
<path d="M347.894 318.434C349.167 318.434 350.199 317.402 350.199 316.129C350.199 314.856 349.167 313.825 347.894 313.825C346.622 313.825 345.59 314.856 345.59 316.129C345.59 317.402 346.622 318.434 347.894 318.434Z" fill="white"/>
<path d="M371.89 318.434C373.163 318.434 374.195 317.403 374.195 316.13C374.195 314.857 373.163 313.826 371.89 313.826C370.618 313.826 369.586 314.857 369.586 316.13C369.586 317.403 370.618 318.434 371.89 318.434Z" fill="white"/>
<path d="M395.883 318.434C397.155 318.434 398.187 317.403 398.187 316.13C398.187 314.857 397.155 313.826 395.883 313.826C394.61 313.826 393.578 314.857 393.578 316.13C393.578 317.403 394.61 318.434 395.883 318.434Z" fill="white"/>
<path d="M419.879 318.434C421.151 318.434 422.183 317.403 422.183 316.13C422.183 314.857 421.151 313.826 419.879 313.826C418.606 313.826 417.574 314.857 417.574 316.13C417.574 317.403 418.606 318.434 419.879 318.434Z" fill="white"/>
<path d="M443.871 318.434C445.144 318.434 446.175 317.403 446.175 316.13C446.175 314.857 445.144 313.826 443.871 313.826C442.598 313.826 441.566 314.857 441.566 316.13C441.566 317.403 442.598 318.434 443.871 318.434Z" fill="white"/>
<path d="M467.867 318.434C469.14 318.434 470.171 317.403 470.171 316.13C470.171 314.857 469.14 313.826 467.867 313.826C466.594 313.826 465.562 314.857 465.562 316.13C465.562 317.403 466.594 318.434 467.867 318.434Z" fill="white"/>
<path d="M491.859 318.434C493.132 318.434 494.164 317.403 494.164 316.13C494.164 314.857 493.132 313.826 491.859 313.826C490.586 313.826 489.555 314.857 489.555 316.13C489.555 317.403 490.586 318.434 491.859 318.434Z" fill="white"/>
<path d="M515.855 318.434C517.128 318.434 518.16 317.403 518.16 316.13C518.16 314.857 517.128 313.826 515.855 313.826C514.582 313.826 513.551 314.857 513.551 316.13C513.551 317.403 514.582 318.434 515.855 318.434Z" fill="white"/>
<path d="M539.851 318.434C541.124 318.434 542.156 317.403 542.156 316.13C542.156 314.857 541.124 313.826 539.851 313.826C538.579 313.826 537.547 314.857 537.547 316.13C537.547 317.403 538.579 318.434 539.851 318.434Z" fill="white"/>
<path d="M563.843 318.434C565.116 318.434 566.148 317.403 566.148 316.13C566.148 314.857 565.116 313.826 563.843 313.826C562.571 313.826 561.539 314.857 561.539 316.13C561.539 317.403 562.571 318.434 563.843 318.434Z" fill="white"/>
<path d="M335.539 301.805C336.811 301.805 337.843 300.773 337.843 299.5C337.843 298.228 336.811 297.196 335.539 297.196C334.266 297.196 333.234 298.228 333.234 299.5C333.234 300.773 334.266 301.805 335.539 301.805Z" fill="white"/>
<path d="M359.535 301.804C360.808 301.804 361.839 300.772 361.839 299.5C361.839 298.227 360.808 297.195 359.535 297.195C358.262 297.195 357.23 298.227 357.23 299.5C357.23 300.772 358.262 301.804 359.535 301.804Z" fill="white"/>
<path d="M383.527 301.804C384.8 301.804 385.831 300.772 385.831 299.5C385.831 298.227 384.8 297.195 383.527 297.195C382.254 297.195 381.223 298.227 381.223 299.5C381.223 300.772 382.254 301.804 383.527 301.804Z" fill="white"/>
<path d="M407.523 301.804C408.796 301.804 409.828 300.772 409.828 299.5C409.828 298.227 408.796 297.195 407.523 297.195C406.25 297.195 405.219 298.227 405.219 299.5C405.219 300.772 406.25 301.804 407.523 301.804Z" fill="white"/>
<path d="M431.515 301.804C432.788 301.804 433.82 300.772 433.82 299.5C433.82 298.227 432.788 297.195 431.515 297.195C430.243 297.195 429.211 298.227 429.211 299.5C429.211 300.772 430.243 301.804 431.515 301.804Z" fill="white"/>
<path d="M455.511 301.804C456.784 301.804 457.816 300.772 457.816 299.5C457.816 298.227 456.784 297.195 455.511 297.195C454.239 297.195 453.207 298.227 453.207 299.5C453.207 300.772 454.239 301.804 455.511 301.804Z" fill="white"/>
<path d="M479.508 301.804C480.78 301.804 481.812 300.772 481.812 299.5C481.812 298.227 480.78 297.195 479.508 297.195C478.235 297.195 477.203 298.227 477.203 299.5C477.203 300.772 478.235 301.804 479.508 301.804Z" fill="white"/>
<path d="M503.5 301.804C504.772 301.804 505.804 300.772 505.804 299.5C505.804 298.227 504.772 297.195 503.5 297.195C502.227 297.195 501.195 298.227 501.195 299.5C501.195 300.772 502.227 301.804 503.5 301.804Z" fill="white"/>
<path d="M527.496 301.804C528.769 301.804 529.8 300.772 529.8 299.5C529.8 298.227 528.769 297.195 527.496 297.195C526.223 297.195 525.191 298.227 525.191 299.5C525.191 300.772 526.223 301.804 527.496 301.804Z" fill="white"/>
<path d="M551.488 301.804C552.761 301.804 553.792 300.772 553.792 299.5C553.792 298.227 552.761 297.195 551.488 297.195C550.215 297.195 549.184 298.227 549.184 299.5C549.184 300.772 550.215 301.804 551.488 301.804Z" fill="white"/>
<path d="M347.894 286.362C349.167 286.362 350.199 285.331 350.199 284.058C350.199 282.785 349.167 281.753 347.894 281.753C346.622 281.753 345.59 282.785 345.59 284.058C345.59 285.331 346.622 286.362 347.894 286.362Z" fill="white"/>
<path d="M371.89 286.361C373.163 286.361 374.195 285.33 374.195 284.057C374.195 282.784 373.163 281.752 371.89 281.752C370.618 281.752 369.586 282.784 369.586 284.057C369.586 285.33 370.618 286.361 371.89 286.361Z" fill="white"/>
<path d="M395.883 286.361C397.155 286.361 398.187 285.33 398.187 284.057C398.187 282.784 397.155 281.752 395.883 281.752C394.61 281.752 393.578 282.784 393.578 284.057C393.578 285.33 394.61 286.361 395.883 286.361Z" fill="white"/>
<path d="M419.879 286.361C421.151 286.361 422.183 285.33 422.183 284.057C422.183 282.784 421.151 281.752 419.879 281.752C418.606 281.752 417.574 282.784 417.574 284.057C417.574 285.33 418.606 286.361 419.879 286.361Z" fill="white"/>
<path d="M443.871 286.361C445.144 286.361 446.175 285.33 446.175 284.057C446.175 282.784 445.144 281.752 443.871 281.752C442.598 281.752 441.566 282.784 441.566 284.057C441.566 285.33 442.598 286.361 443.871 286.361Z" fill="white"/>
<path d="M467.867 286.361C469.14 286.361 470.171 285.33 470.171 284.057C470.171 282.784 469.14 281.752 467.867 281.752C466.594 281.752 465.562 282.784 465.562 284.057C465.562 285.33 466.594 286.361 467.867 286.361Z" fill="white"/>
<path d="M491.859 286.361C493.132 286.361 494.164 285.33 494.164 284.057C494.164 282.784 493.132 281.752 491.859 281.752C490.586 281.752 489.555 282.784 489.555 284.057C489.555 285.33 490.586 286.361 491.859 286.361Z" fill="white"/>
<path d="M516.566 286.361C517.839 286.361 518.871 285.33 518.871 284.057C518.871 282.784 517.839 281.752 516.566 281.752C515.293 281.752 514.262 282.784 514.262 284.057C514.262 285.33 515.293 286.361 516.566 286.361Z" fill="white"/>
<path d="M539.851 286.361C541.124 286.361 542.156 285.33 542.156 284.057C542.156 282.784 541.124 281.752 539.851 281.752C538.579 281.752 537.547 282.784 537.547 284.057C537.547 285.33 538.579 286.361 539.851 286.361Z" fill="white"/>
<path d="M563.843 286.361C565.116 286.361 566.148 285.33 566.148 284.057C566.148 282.784 565.116 281.752 563.843 281.752C562.571 281.752 561.539 282.784 561.539 284.057C561.539 285.33 562.571 286.361 563.843 286.361Z" fill="white"/>
<path d="M359.531 270.446C360.804 270.446 361.835 269.415 361.835 268.142C361.835 266.869 360.804 265.837 359.531 265.837C358.258 265.837 357.227 266.869 357.227 268.142C357.227 269.415 358.258 270.446 359.531 270.446Z" fill="white"/>
<path d="M407.519 270.445C408.792 270.445 409.824 269.413 409.824 268.14C409.824 266.868 408.792 265.836 407.519 265.836C406.247 265.836 405.215 266.868 405.215 268.14C405.215 269.413 406.247 270.445 407.519 270.445Z" fill="white"/>
<path d="M431.515 270.445C432.788 270.445 433.82 269.413 433.82 268.14C433.82 266.868 432.788 265.836 431.515 265.836C430.243 265.836 429.211 266.868 429.211 268.14C429.211 269.413 430.243 270.445 431.515 270.445Z" fill="white"/>
<path d="M455.508 270.445C456.78 270.445 457.812 269.413 457.812 268.14C457.812 266.868 456.78 265.836 455.508 265.836C454.235 265.836 453.203 266.868 453.203 268.14C453.203 269.413 454.235 270.445 455.508 270.445Z" fill="white"/>
<path d="M479.504 270.445C480.776 270.445 481.808 269.413 481.808 268.14C481.808 266.868 480.776 265.836 479.504 265.836C478.231 265.836 477.199 266.868 477.199 268.14C477.199 269.413 478.231 270.445 479.504 270.445Z" fill="white"/>
<path d="M503.496 270.445C504.769 270.445 505.8 269.413 505.8 268.14C505.8 266.868 504.769 265.836 503.496 265.836C502.223 265.836 501.191 266.868 501.191 268.14C501.191 269.413 502.223 270.445 503.496 270.445Z" fill="white"/>
<path d="M527.492 270.445C528.765 270.445 529.796 269.413 529.796 268.14C529.796 266.868 528.765 265.836 527.492 265.836C526.219 265.836 525.188 266.868 525.188 268.14C525.188 269.413 526.219 270.445 527.492 270.445Z" fill="white"/>
<path d="M551.488 270.445C552.761 270.445 553.792 269.413 553.792 268.14C553.792 266.868 552.761 265.836 551.488 265.836C550.215 265.836 549.184 266.868 549.184 268.14C549.184 269.413 550.215 270.445 551.488 270.445Z" fill="white"/>
<path d="M347.894 254.765C349.167 254.765 350.199 253.733 350.199 252.461C350.199 251.188 349.167 250.156 347.894 250.156C346.622 250.156 345.59 251.188 345.59 252.461C345.59 253.733 346.622 254.765 347.894 254.765Z" fill="white"/>
<path d="M371.89 254.765C373.163 254.765 374.195 253.733 374.195 252.461C374.195 251.188 373.163 250.156 371.89 250.156C370.618 250.156 369.586 251.188 369.586 252.461C369.586 253.733 370.618 254.765 371.89 254.765Z" fill="white"/>
<path d="M395.883 254.765C397.155 254.765 398.187 253.733 398.187 252.461C398.187 251.188 397.155 250.156 395.883 250.156C394.61 250.156 393.578 251.188 393.578 252.461C393.578 253.733 394.61 254.765 395.883 254.765Z" fill="white"/>
<path d="M419.879 254.765C421.151 254.765 422.183 253.733 422.183 252.461C422.183 251.188 421.151 250.156 419.879 250.156C418.606 250.156 417.574 251.188 417.574 252.461C417.574 253.733 418.606 254.765 419.879 254.765Z" fill="white"/>
<path d="M443.871 254.765C445.144 254.765 446.175 253.733 446.175 252.461C446.175 251.188 445.144 250.156 443.871 250.156C442.598 250.156 441.566 251.188 441.566 252.461C441.566 253.733 442.598 254.765 443.871 254.765Z" fill="white"/>
<path d="M467.867 254.765C469.14 254.765 470.171 253.733 470.171 252.461C470.171 251.188 469.14 250.156 467.867 250.156C466.594 250.156 465.562 251.188 465.562 252.461C465.562 253.733 466.594 254.765 467.867 254.765Z" fill="white"/>
<path d="M491.859 254.765C493.132 254.765 494.164 253.733 494.164 252.461C494.164 251.188 493.132 250.156 491.859 250.156C490.586 250.156 489.555 251.188 489.555 252.461C489.555 253.733 490.586 254.765 491.859 254.765Z" fill="white"/>
<path d="M515.855 254.765C517.128 254.765 518.16 253.733 518.16 252.461C518.16 251.188 517.128 250.156 515.855 250.156C514.582 250.156 513.551 251.188 513.551 252.461C513.551 253.733 514.582 254.765 515.855 254.765Z" fill="white"/>
<path d="M539.851 254.765C541.124 254.765 542.156 253.733 542.156 252.461C542.156 251.188 541.124 250.156 539.851 250.156C538.579 250.156 537.547 251.188 537.547 252.461C537.547 253.733 538.579 254.765 539.851 254.765Z" fill="white"/>
<path d="M562.656 254.765C563.929 254.765 564.96 253.733 564.96 252.461C564.96 251.188 563.929 250.156 562.656 250.156C561.383 250.156 560.352 251.188 560.352 252.461C560.352 253.733 561.383 254.765 562.656 254.765Z" fill="white"/>
<path d="M359.531 239.324C360.804 239.324 361.835 238.292 361.835 237.019C361.835 235.747 360.804 234.715 359.531 234.715C358.258 234.715 357.227 235.747 357.227 237.019C357.227 238.292 358.258 239.324 359.531 239.324Z" fill="white"/>
<path d="M383.527 239.324C384.8 239.324 385.831 238.292 385.831 237.019C385.831 235.747 384.8 234.715 383.527 234.715C382.254 234.715 381.223 235.747 381.223 237.019C381.223 238.292 382.254 239.324 383.527 239.324Z" fill="white"/>
<path d="M407.519 239.324C408.792 239.324 409.824 238.292 409.824 237.019C409.824 235.747 408.792 234.715 407.519 234.715C406.247 234.715 405.215 235.747 405.215 237.019C405.215 238.292 406.247 239.324 407.519 239.324Z" fill="white"/>
<path d="M431.515 239.324C432.788 239.324 433.82 238.292 433.82 237.019C433.82 235.747 432.788 234.715 431.515 234.715C430.243 234.715 429.211 235.747 429.211 237.019C429.211 238.292 430.243 239.324 431.515 239.324Z" fill="white"/>
<path d="M455.508 239.324C456.78 239.324 457.812 238.292 457.812 237.019C457.812 235.747 456.78 234.715 455.508 234.715C454.235 234.715 453.203 235.747 453.203 237.019C453.203 238.292 454.235 239.324 455.508 239.324Z" fill="white"/>
<path d="M479.504 239.324C480.776 239.324 481.808 238.292 481.808 237.019C481.808 235.747 480.776 234.715 479.504 234.715C478.231 234.715 477.199 235.747 477.199 237.019C477.199 238.292 478.231 239.324 479.504 239.324Z" fill="white"/>
<path d="M503.496 239.324C504.769 239.324 505.8 238.292 505.8 237.019C505.8 235.747 504.769 234.715 503.496 234.715C502.223 234.715 501.191 235.747 501.191 237.019C501.191 238.292 502.223 239.324 503.496 239.324Z" fill="white"/>
<path d="M527.492 239.324C528.765 239.324 529.796 238.292 529.796 237.019C529.796 235.747 528.765 234.715 527.492 234.715C526.219 234.715 525.188 235.747 525.188 237.019C525.188 238.292 526.219 239.324 527.492 239.324Z" fill="white"/>
<path d="M551.488 239.324C552.761 239.324 553.792 238.292 553.792 237.019C553.792 235.747 552.761 234.715 551.488 234.715C550.215 234.715 549.184 235.747 549.184 237.019C549.184 238.292 550.215 239.324 551.488 239.324Z" fill="white"/>
<path d="M431.519 210.339C432.792 210.339 433.824 209.308 433.824 208.035C433.824 206.762 432.792 205.73 431.519 205.73C430.247 205.73 429.215 206.762 429.215 208.035C429.215 209.308 430.247 210.339 431.519 210.339Z" fill="white"/>
<path d="M455.515 210.339C456.788 210.339 457.82 209.308 457.82 208.035C457.82 206.762 456.788 205.73 455.515 205.73C454.243 205.73 453.211 206.762 453.211 208.035C453.211 209.308 454.243 210.339 455.515 210.339Z" fill="white"/>
<path d="M479.508 210.339C480.78 210.339 481.812 209.308 481.812 208.035C481.812 206.762 480.78 205.73 479.508 205.73C478.235 205.73 477.203 206.762 477.203 208.035C477.203 209.308 478.235 210.339 479.508 210.339Z" fill="white"/>
<path d="M505.689 208.795C505.38 209.698 504.525 210.339 503.504 210.339C502.245 210.339 501.199 209.317 501.199 208.035C501.199 207.868 501.223 207.702 501.247 207.536L505.689 208.795Z" fill="white"/>
<path d="M371.886 224.831C373.159 224.831 374.191 223.799 374.191 222.527C374.191 221.254 373.159 220.222 371.886 220.222C370.614 220.222 369.582 221.254 369.582 222.527C369.582 223.799 370.614 224.831 371.886 224.831Z" fill="white"/>
<path d="M395.883 224.831C397.155 224.831 398.187 223.799 398.187 222.527C398.187 221.254 397.155 220.222 395.883 220.222C394.61 220.222 393.578 221.254 393.578 222.527C393.578 223.799 394.61 224.831 395.883 224.831Z" fill="white"/>
<path d="M417.594 221.767C418.866 221.767 419.898 220.735 419.898 219.462C419.898 218.189 418.866 217.158 417.594 217.158C416.321 217.158 415.289 218.189 415.289 219.462C415.289 220.735 416.321 221.767 417.594 221.767Z" fill="white"/>
<path d="M443.871 224.831C445.144 224.831 446.175 223.799 446.175 222.527C446.175 221.254 445.144 220.222 443.871 220.222C442.598 220.222 441.566 221.254 441.566 222.527C441.566 223.799 442.598 224.831 443.871 224.831Z" fill="white"/>
<path d="M467.863 224.831C469.136 224.831 470.167 223.799 470.167 222.527C470.167 221.254 469.136 220.222 467.863 220.222C466.59 220.222 465.559 221.254 465.559 222.527C465.559 223.799 466.59 224.831 467.863 224.831Z" fill="white"/>
<path d="M491.859 224.831C493.132 224.831 494.164 223.799 494.164 222.527C494.164 221.254 493.132 220.222 491.859 220.222C490.586 220.222 489.555 221.254 489.555 222.527C489.555 223.799 490.586 224.831 491.859 224.831Z" fill="white"/>
<path d="M515.851 224.831C517.124 224.831 518.156 223.799 518.156 222.527C518.156 221.254 517.124 220.222 515.851 220.222C514.579 220.222 513.547 221.254 513.547 222.527C513.547 223.799 514.579 224.831 515.851 224.831Z" fill="white"/>
<path d="M539.847 224.831C541.12 224.831 542.152 223.799 542.152 222.527C542.152 221.254 541.12 220.222 539.847 220.222C538.575 220.222 537.543 221.254 537.543 222.527C537.543 223.799 538.575 224.831 539.847 224.831Z" fill="white"/>
<path d="M519.297 342.237L514.07 271.132" stroke="white" stroke-width="1.42541" stroke-miterlimit="10" stroke-linecap="round"/>
<path d="M395.641 342.238V320.69L390.699 317.792C382.361 312.898 378.179 303.181 380.341 293.774L387.92 260.704" stroke="white" stroke-width="1.42541" stroke-miterlimit="10" stroke-linecap="round"/>
<path d="M429.516 201.573L445.338 247.4L482.042 201.573" stroke="white" stroke-width="1.42541" stroke-miterlimit="10" stroke-linecap="round"/>
<path d="M471.758 214.045L487.295 232.053L503.378 209.127" stroke="white" stroke-width="1.42541" stroke-miterlimit="10" stroke-linecap="round"/>
<path d="M433.94 214.045L415.814 229.439L405.242 209.459" stroke="white" stroke-width="1.42541" stroke-miterlimit="10" stroke-linecap="round"/>
<path d="M381.172 260.704L384.427 275.885" stroke="white" stroke-width="1.42541" stroke-miterlimit="10" stroke-linecap="round"/>
<path d="M447.856 403.863H382.739L353.945 358.892H419.063L447.856 403.863Z" fill="#FFCF2D"/>
<path d="M408.587 394.099H343.445L314.676 349.151H379.793L408.587 394.099Z" fill="white" stroke="#3FB1B5" stroke-width="1.42541" stroke-miterlimit="10" stroke-linejoin="round"/>
<path d="M328.625 355.708L331.048 356.754C332.664 357.443 334.113 357.466 334.659 356.801L335.538 355.685C336.061 355.019 337.534 355.019 339.149 355.732L341.573 356.777C343.188 357.466 344.637 357.49 345.184 356.825L346.158 355.566C346.68 354.901 348.153 354.901 349.769 355.613L352.976 357.015C354.591 357.704 356.04 357.728 356.587 357.063L357.751 355.59C358.274 354.924 359.746 354.924 361.362 355.637L365.044 357.253C366.66 357.942 368.109 357.965 368.655 357.3L369.914 355.685" stroke="#3FB1B5" stroke-width="1.18785" stroke-miterlimit="10" stroke-linecap="round"/>
<path d="M338.484 366.256C340.1 366.945 341.549 366.968 342.095 366.303L342.974 365.187C343.497 364.521 344.97 364.521 346.585 365.234L349.009 366.279C350.624 366.968 352.073 366.992 352.62 366.327L353.594 365.068C354.116 364.403 355.589 364.403 357.205 365.115L360.412 366.517C362.027 367.206 363.477 367.23 364.023 366.565L365.187 365.092C365.71 364.426 367.183 364.426 368.798 365.139L372.48 366.755C374.096 367.444 375.545 367.467 376.092 366.802L377.351 365.187" stroke="#3FB1B5" stroke-width="1.18785" stroke-miterlimit="10" stroke-linecap="round"/>
<path d="M343.5 374.69L345.923 375.735C347.539 376.424 348.988 376.448 349.534 375.783L350.413 374.666C350.936 374.001 352.409 374.001 354.024 374.714L356.448 375.759C358.063 376.448 359.512 376.472 360.059 375.806L361.033 374.547C361.555 373.882 363.028 373.882 364.644 374.595L367.851 375.996C369.466 376.685 370.915 376.709 371.462 376.044L372.626 374.571C373.149 373.906 374.622 373.906 376.237 374.619L379.919 376.234C381.535 376.923 382.984 376.947 383.53 376.282L384.79 374.666" stroke="#3FB1B5" stroke-width="1.18785" stroke-miterlimit="10" stroke-linecap="round"/>
<path d="M350.934 384.192L353.357 385.238C354.972 385.927 356.421 385.95 356.968 385.285L357.847 384.169C358.37 383.503 359.842 383.503 361.458 384.216L363.881 385.261C365.497 385.95 366.946 385.974 367.492 385.309L368.466 384.05C368.989 383.385 370.462 383.385 372.077 384.097L375.284 385.499C376.9 386.188 378.349 386.212 378.895 385.546L380.06 384.074C380.582 383.408 382.055 383.408 383.671 384.121L387.353 385.736C388.968 386.425 390.418 386.449 390.964 385.784L392.223 384.169" stroke="#3FB1B5" stroke-width="1.18785" stroke-miterlimit="10" stroke-linecap="round"/>
<path d="M421.367 368.251H546.281C562.816 368.251 575.763 354.021 574.195 337.581C572.627 321.07 557.162 309.501 540.888 312.684L397.135 332.711C391.695 333.471 386.92 336.774 384.33 341.62L371.597 365.282C371.145 365.876 370.836 366.565 370.646 367.277L365.871 385.736H368.556C372.713 385.736 376.562 383.432 378.51 379.75L380.909 375.26L408.539 378.253C413.718 378.894 418.635 375.355 420.488 370.508L421.367 368.251Z" fill="#A0505A"/>
<path d="M381.168 374.452L389.507 357.181" stroke="#73325A" stroke-width="1.42541" stroke-miterlimit="10" stroke-linecap="round"/>
<path d="M392.285 375.545L400.624 358.273" stroke="#73325A" stroke-width="1.42541" stroke-miterlimit="10" stroke-linecap="round"/>
<path d="M403.168 376.9L411.483 359.629" stroke="#73325A" stroke-width="1.42541" stroke-miterlimit="10" stroke-linecap="round"/>
<path d="M421.363 368.252L425.164 356.92" stroke="#73325A" stroke-width="1.42541" stroke-miterlimit="10" stroke-linecap="round"/>
<path d="M452.112 120.562C452.112 120.562 468.457 110.299 484.422 123.247C499.484 135.481 492.452 159.595 486.94 155.556C482.212 152.111 519.059 140.352 530.605 167.648C543.695 198.58 514.213 216.136 480.597 200.837H431.824L379.963 217.015C379.963 217.015 353.616 203.616 367.942 177.484C381.174 153.37 412.795 161.97 409.231 167.933C404.218 176.296 382.79 149.831 397.852 124.838C413.769 98.4206 449.927 108.256 452.112 120.562Z" fill="white" stroke="#FFCF2D" stroke-width="1.42541" stroke-miterlimit="10"/>
<path d="M462.639 155.034C462.639 155.034 447.838 148.002 450.57 133.582C450.57 133.582 443.799 153.015 421.872 152.872C411.799 152.801 412.226 142.348 417.596 137.454" stroke="#FFCF2D" stroke-width="1.42541" stroke-miterlimit="10" stroke-linecap="round" stroke-linejoin="round"/>
<path d="M481.002 201.834L468.53 168.717H433.084L430.305 201.834L445.58 245.737L481.002 201.834Z" fill="#A0505A"/>
<path d="M452.375 194.826L433.678 211.337L430.305 201.834L433.084 168.717H464.491V169.334C464.467 179.241 460.025 188.601 452.375 194.826Z" fill="#73325A"/>
<path d="M476.63 162.279V163.61C476.63 167.221 473.685 170.167 470.074 170.167H462.946C461.616 180.263 452.969 188.079 442.516 188.079C436.814 188.079 431.659 185.775 427.929 182.045C424.199 178.315 421.895 173.16 421.895 167.458V153.584C443.822 153.751 450.118 135.719 450.118 135.719C448.669 149.261 461.022 155.081 462.899 155.865V155.723H470.074C473.685 155.723 476.63 158.668 476.63 162.279Z" fill="#A0505A"/>
<path d="M446.105 149.64C446.105 149.64 451.213 149.735 454.658 153.393" stroke="#73325A" stroke-width="1.42541" stroke-miterlimit="10" stroke-linecap="round"/>
<path d="M445.035 166.103C445.835 166.103 446.484 164.964 446.484 163.561C446.484 162.157 445.835 161.019 445.035 161.019C444.235 161.019 443.586 162.157 443.586 163.561C443.586 164.964 444.235 166.103 445.035 166.103Z" fill="#73325A"/>
<path d="M425.25 166.103C426.05 166.103 426.699 164.964 426.699 163.561C426.699 162.157 426.05 161.019 425.25 161.019C424.45 161.019 423.801 162.157 423.801 163.561C423.801 164.964 424.45 166.103 425.25 166.103Z" fill="#73325A"/>
<path d="M434.016 175.795C434.016 175.795 437.912 177.672 441.452 174.228" stroke="#73325A" stroke-width="1.42541" stroke-miterlimit="10" stroke-linecap="round"/>
<path d="M464.777 164.868C464.777 161.779 467.296 159.261 470.384 159.261" stroke="#73325A" stroke-width="1.42541" stroke-miterlimit="10" stroke-linecap="round"/>
<path d="M424.154 149.877C424.154 149.877 419.046 149.972 415.602 153.631" stroke="#73325A" stroke-width="1.42541" stroke-miterlimit="10" stroke-linecap="round"/>
<path d="M424.461 172.779C428.961 172.779 432.61 168.493 432.61 163.205C432.61 157.918 428.961 153.631 424.461 153.631C419.961 153.631 416.312 157.918 416.312 163.205C416.312 168.493 419.961 172.779 424.461 172.779Z" stroke="#FE5244" stroke-width="1.42541" stroke-miterlimit="10" stroke-linejoin="round"/>
<path d="M446.34 172.78C450.84 172.78 454.489 168.494 454.489 163.206C454.489 157.919 450.84 153.632 446.34 153.632C441.84 153.632 438.191 157.919 438.191 163.206C438.191 168.494 441.84 172.78 446.34 172.78Z" stroke="#FE5244" stroke-width="1.42541" stroke-miterlimit="10" stroke-linejoin="round"/>
<path d="M438.216 163.206C438.216 163.206 435.294 161.115 432.609 163.206" stroke="#FE5244" stroke-width="1.42541" stroke-miterlimit="10" stroke-linejoin="round"/>
</svg>
