<svg width="800" height="800" viewBox="0 0 800 800" fill="none" xmlns="http://www.w3.org/2000/svg">
<path d="M509.202 284.031L484.219 335.446H408.727L439.063 284.031H509.202Z" fill="white" stroke="#3FB1B5" stroke-width="1.29312" stroke-miterlimit="10"/>
<path d="M492.652 296.574C492.652 296.574 489.367 290.962 481.479 292.41C475.583 293.471 468.6 298.333 464.307 295.721C460.013 293.109 456.212 289.85 450.651 291.402C445.091 292.953 440.979 295.928 440.979 295.928" stroke="#3FB1B5" stroke-width="1.29312" stroke-miterlimit="10"/>
<path d="M490.066 304.592C490.066 304.592 486.781 298.98 478.893 300.428C472.997 301.488 466.014 306.35 461.721 303.738C457.427 301.126 453.626 297.868 448.065 299.419C442.505 300.971 438.393 303.945 438.393 303.945" stroke="#3FB1B5" stroke-width="1.29312" stroke-miterlimit="10"/>
<path d="M537.6 514.78C537.6 521.685 518.436 527.271 494.435 527.271C470.435 527.271 451.84 521.685 451.84 514.78C451.84 507.874 470.435 502.288 494.435 502.288C518.436 502.288 537.6 507.9 537.6 514.78Z" fill="#FE5244"/>
<path d="M526.559 506.372V595.598L523.844 582.718C520.921 568.856 508.688 558.951 494.516 558.951C490.248 558.951 486.059 559.856 482.257 561.563C482.128 561.615 481.998 561.692 481.843 561.744L471.886 525.433L466.352 505.234C473.929 503.398 483.731 502.286 494.438 502.286C507.163 502.286 518.62 503.864 526.559 506.372Z" fill="#A0505A"/>
<path d="M526.559 506.371V523.181C518.62 525.69 507.163 527.268 494.438 527.268C486.188 527.268 478.481 526.595 471.886 525.457L466.352 505.259C473.929 503.422 483.731 502.31 494.438 502.31C507.163 502.285 518.62 503.862 526.559 506.371Z" fill="#73325A"/>
<path d="M524.644 592.984C525.342 593.191 531.911 595.028 537.73 595.028C540.885 595.028 543.808 594.485 545.463 592.829C546.885 591.407 547.222 589.338 546.472 586.726C545.799 584.398 544.506 582.95 542.618 582.433C539.153 581.502 534.342 584.088 530.54 586.803C536.463 579.614 542.308 570.484 540.135 564.51C539.36 562.389 537.601 560.967 535.403 560.708C533.566 560.501 531.859 561.148 531.058 562.363C527.333 568.027 524.282 591.278 524.152 592.26L524.644 592.984ZM532.144 563.087C532.609 562.389 533.592 561.975 534.73 561.975C534.911 561.975 535.092 561.975 535.273 562.001C536.101 562.105 538.092 562.57 538.946 564.95C539.515 566.527 539.722 569.424 537.42 574.286C535.247 578.889 531.316 584.295 525.73 590.424C526.558 584.527 529.196 567.562 532.144 563.087ZM544.558 591.924C542.851 593.631 538.972 594.148 533.308 593.424C530.333 593.036 527.566 592.416 526.092 592.028C527.204 591.045 529.273 589.26 531.678 587.605C536.282 584.424 539.954 583.053 542.308 583.7C543.73 584.088 544.687 585.2 545.256 587.088C545.877 589.26 545.644 590.838 544.558 591.924Z" fill="#FFCF2D"/>
<path d="M472.143 568.985L466.169 575.683C459.393 583.287 458.281 594.356 463.428 603.149L489.73 648.254C494.876 657.073 504.316 662.478 514.506 662.478H525.394C533.282 662.478 539.153 655.236 537.524 647.529L523.817 582.744C520.894 568.882 508.661 558.976 494.489 558.976C485.98 558.95 477.833 562.597 472.143 568.985Z" fill="white" stroke="#3FB1B5" stroke-width="1.29312" stroke-miterlimit="10"/>
<path d="M492.496 588.484L526.454 654.278C528.057 657.252 530.048 659.166 532.324 660.382C530.359 661.701 527.979 662.503 525.393 662.503H514.505C504.289 662.503 494.85 657.071 489.729 648.278L463.427 603.148C462.366 601.312 461.565 599.398 461.021 597.407C457.297 583.57 473.048 572.708 484.867 580.829C487.556 582.665 490.194 585.148 492.496 588.484Z" fill="#3FB1B5"/>
<path d="M492.576 588.639H461.23C461.386 588.148 461.567 587.682 461.774 587.243H491.567C491.878 587.656 492.188 588.07 492.498 588.51L492.576 588.639Z" fill="white"/>
<path d="M497.18 597.536H461.076C461.076 597.484 461.05 597.432 461.05 597.406C460.947 596.993 460.843 596.553 460.766 596.139H496.482L497.18 597.536Z" fill="white"/>
<path d="M501.781 606.46H465.367L464.539 605.037H501.057L501.781 606.46Z" fill="white"/>
<path d="M506.387 615.381H470.568L469.74 613.959H505.663L506.387 615.381Z" fill="white"/>
<path d="M510.992 624.278H475.767L474.939 622.881H510.268L510.992 624.278Z" fill="white"/>
<path d="M515.594 633.2H480.964L480.137 631.777H514.844L515.594 633.2Z" fill="white"/>
<path d="M520.199 642.123H486.164L485.336 640.701H519.449L520.199 642.123Z" fill="white"/>
<path d="M524.772 651.02H491.565C491.229 650.554 490.892 650.089 490.582 649.623H524.048L524.772 651.02Z" fill="white"/>
<path d="M531.578 659.941H502.716C501.785 659.527 500.879 659.062 500 658.544H529.716C530.311 659.062 530.932 659.527 531.578 659.941Z" fill="white"/>
<path d="M431.666 512.941C431.433 519.769 412.062 525.304 388.217 525.304C364.371 525.304 345 519.795 344.768 512.941V459.173H431.666V512.941Z" fill="#73325A"/>
<path d="M425.896 521.865L425.767 528.253L424.525 590.608V588.797C424.525 572.788 411.542 559.805 395.533 559.805H393.775C385.602 559.805 378.231 562.987 372.774 568.107L368.973 542.4L366.619 526.495C372.981 527.555 380.352 528.15 388.188 528.15C404.327 528.124 418.37 525.589 425.896 521.865Z" fill="#A0505A"/>
<path d="M425.895 521.864L425.766 528.252C416.145 535.08 386.429 543.485 368.998 542.373L366.645 526.468C373.007 527.502 380.377 528.123 388.214 528.123C404.326 528.123 418.37 525.588 425.895 521.864Z" fill="#73325A"/>
<path d="M396.856 663.332H401.667C414.288 663.332 424.529 653.09 424.529 640.469V588.796C424.529 572.787 411.546 559.804 395.537 559.804H393.779C375.158 559.804 360.804 576.227 363.313 594.693L369.39 639.383C371.278 653.09 382.994 663.332 396.856 663.332Z" fill="white" stroke="#3FB1B5" stroke-width="1.29312" stroke-miterlimit="10"/>
<path d="M417.339 657.099C413.253 660.952 407.718 663.331 401.666 663.331H396.856C382.994 663.331 371.278 653.09 369.416 639.383L363.338 594.692C363.235 593.839 363.131 592.985 363.105 592.158C364.657 582.253 373.218 574.675 383.563 574.675C388.658 574.675 393.365 576.537 397.011 579.64C400.658 582.744 403.218 587.115 404.02 592.158L412.011 646.702C412.606 650.762 414.52 654.383 417.339 657.099Z" fill="#3FB1B5"/>
<path d="M401.616 585.252H365.486C365.745 584.761 366.055 584.295 366.366 583.855H400.763C401.073 584.295 401.358 584.761 401.616 585.252Z" fill="white"/>
<path d="M404.304 594.149H363.26C363.208 593.683 363.157 593.217 363.131 592.752H404.097L404.304 594.149Z" fill="white"/>
<path d="M405.624 603.072H364.476L364.27 601.675H405.417L405.624 603.072Z" fill="white"/>
<path d="M406.918 611.994H365.693L365.486 610.572H406.711L406.918 611.994Z" fill="white"/>
<path d="M408.236 620.891H366.908L366.701 619.494H408.029L408.236 620.891Z" fill="white"/>
<path d="M409.531 629.814H368.099L367.918 628.417H409.324L409.531 629.814Z" fill="white"/>
<path d="M410.845 638.735H369.31L369.129 637.312H410.638L410.845 638.735Z" fill="white"/>
<path d="M412.166 647.632H371.873C371.64 647.167 371.433 646.701 371.252 646.236H411.934L412.011 646.701C412.063 647.012 412.115 647.322 412.166 647.632Z" fill="white"/>
<path d="M416.795 656.554H378.699C378.182 656.114 377.665 655.623 377.199 655.157H415.605C415.967 655.649 416.381 656.114 416.795 656.554Z" fill="white"/>
<path d="M450.465 233.472V277.024C448.577 272.084 433.628 272.783 417.18 279.016C403.085 284.369 392.507 291.714 390.955 296.809V235.515C390.955 217.282 400.705 200.988 415.68 192.092C435.128 195.48 450.465 212.42 450.465 233.472Z" fill="#FFCF2D"/>
<path d="M389.817 194.057C376.575 203.264 368.144 218.549 368.144 235.515V286.076H294.514L304.678 242.317C308.997 223.67 322.497 208.799 340.083 202.462L389.817 194.057Z" fill="#FFCF2D"/>
<path d="M538.737 410.474V511.984C538.737 505.079 518.435 499.492 494.434 499.492C470.434 499.492 450.985 505.079 450.985 511.984V463.337C450.985 461.061 449.123 459.199 446.847 459.199H314.845C275.146 459.199 245.792 422.241 254.767 383.577L286.629 246.299C291.698 224.393 309.44 207.712 331.604 203.936L340.087 202.488C322.5 208.824 309 223.695 304.681 242.342L294.517 286.101H368.148V235.514C368.148 218.548 376.605 203.238 389.821 194.056L401.459 192.091C403.864 191.677 406.217 191.496 408.571 191.496C408.881 191.496 409.166 191.496 409.476 191.496C409.76 191.496 410.045 191.522 410.304 191.522C410.355 191.522 410.407 191.522 410.459 191.522C410.666 191.522 410.898 191.548 411.105 191.548C411.131 191.548 411.183 191.548 411.209 191.548C411.338 191.548 411.467 191.574 411.571 191.574C411.804 191.6 412.011 191.6 412.243 191.625C412.502 191.651 412.786 191.677 413.045 191.703C413.304 191.729 413.536 191.755 413.795 191.781C413.847 191.781 413.898 191.806 413.976 191.806C414.235 191.832 414.519 191.884 414.778 191.91C414.804 191.91 414.83 191.91 414.83 191.91C415.114 191.962 415.399 191.987 415.683 192.039C400.709 200.936 390.958 217.229 390.958 235.462V359.732H488.046C516.029 359.783 538.737 382.465 538.737 410.474Z" fill="#FE5244"/>
<path d="M391.502 192.919C378.261 202.126 368.123 218.549 368.123 235.515V286.076H294.492L304.656 242.317C308.975 223.67 321.337 208.515 338.95 202.178" stroke="white" stroke-width="1.55175" stroke-miterlimit="10" stroke-linecap="round"/>
<path d="M450.984 447.742C450.984 433.337 456.079 419.397 465.364 408.405" stroke="white" stroke-width="1.55175" stroke-miterlimit="10" stroke-linecap="round"/>
<path d="M343.423 442.595C343.294 442.595 343.165 442.569 343.061 442.491L339.648 440.629C339.26 440.422 339.13 439.957 339.337 439.569C339.544 439.181 340.01 439.052 340.398 439.259L343.811 441.121C344.199 441.328 344.329 441.793 344.122 442.181C343.967 442.44 343.708 442.595 343.423 442.595ZM346.837 441.715C346.553 441.715 346.294 441.56 346.165 441.302C345.958 440.914 346.087 440.448 346.475 440.241L349.889 438.379C350.277 438.172 350.743 438.327 350.949 438.69C351.156 439.077 351.027 439.543 350.639 439.75L347.225 441.612C347.096 441.664 346.967 441.715 346.837 441.715ZM336.596 438.896C336.466 438.896 336.337 438.871 336.234 438.793L332.82 436.931C332.432 436.724 332.303 436.258 332.509 435.871C332.716 435.483 333.182 435.353 333.57 435.56L336.984 437.422C337.372 437.629 337.501 438.095 337.294 438.483C337.139 438.741 336.88 438.896 336.596 438.896ZM353.639 437.991C353.355 437.991 353.096 437.836 352.967 437.577C352.76 437.19 352.889 436.724 353.277 436.517L356.691 434.655C357.286 434.345 357.829 433.983 358.372 433.595C358.708 433.336 359.2 433.414 359.458 433.75C359.717 434.086 359.639 434.577 359.303 434.836C358.708 435.276 358.087 435.664 357.441 436.026L354.027 437.888C353.898 437.965 353.768 437.991 353.639 437.991ZM329.846 435.069C329.69 435.069 329.535 435.017 329.38 434.914C328.294 434.112 327.285 433.181 326.432 432.12C326.147 431.784 326.199 431.293 326.535 431.034C326.871 430.75 327.363 430.801 327.621 431.138C328.397 432.095 329.303 432.922 330.285 433.646C330.621 433.905 330.699 434.396 330.466 434.733C330.337 434.965 330.104 435.069 329.846 435.069ZM361.631 432.353C361.45 432.353 361.294 432.302 361.139 432.172C360.803 431.914 360.751 431.422 361.036 431.086C361.812 430.129 362.458 429.095 362.975 427.957C363.157 427.569 363.622 427.388 364.01 427.569C364.398 427.75 364.579 428.215 364.398 428.603C363.829 429.845 363.105 431.008 362.251 432.043C362.07 432.25 361.863 432.353 361.631 432.353ZM324.983 429.146C324.699 429.146 324.415 428.991 324.285 428.707C323.716 427.465 323.302 426.172 323.044 424.827C322.966 424.413 323.251 424 323.664 423.922C324.078 423.844 324.492 424.129 324.57 424.543C324.802 425.758 325.165 426.922 325.682 428.034C325.863 428.422 325.682 428.888 325.294 429.069C325.19 429.12 325.087 429.146 324.983 429.146ZM364.838 425.37C364.786 425.37 364.734 425.37 364.708 425.37C364.294 425.293 364.01 424.879 364.088 424.465C364.243 423.612 364.32 422.758 364.32 421.905V420.741C364.32 420.301 364.657 419.965 365.096 419.965C365.536 419.965 365.872 420.301 365.872 420.741V421.905C365.872 422.862 365.795 423.819 365.613 424.75C365.536 425.112 365.2 425.37 364.838 425.37ZM323.561 421.594C323.121 421.594 322.785 421.258 322.785 420.819V416.939C322.785 416.5 323.121 416.163 323.561 416.163C324.001 416.163 324.337 416.5 324.337 416.939V420.819C324.337 421.232 323.975 421.594 323.561 421.594ZM365.07 417.637C364.631 417.637 364.294 417.301 364.294 416.862V412.982C364.294 412.543 364.631 412.206 365.07 412.206C365.51 412.206 365.846 412.543 365.846 412.982V416.862C365.846 417.301 365.51 417.637 365.07 417.637ZM323.561 413.836C323.121 413.836 322.785 413.499 322.785 413.06V409.18C322.785 408.741 323.121 408.405 323.561 408.405C324.001 408.405 324.337 408.741 324.337 409.18V413.06C324.337 413.474 323.975 413.836 323.561 413.836ZM365.07 409.879C364.631 409.879 364.294 409.543 364.294 409.103V405.223C364.294 404.784 364.631 404.448 365.07 404.448C365.51 404.448 365.846 404.784 365.846 405.223V409.103C365.846 409.543 365.51 409.879 365.07 409.879ZM323.561 406.077C323.121 406.077 322.785 405.741 322.785 405.301V401.422C322.785 400.982 323.121 400.646 323.561 400.646C324.001 400.646 324.337 400.982 324.337 401.422V405.301C324.337 405.715 323.975 406.077 323.561 406.077ZM365.07 402.12C364.631 402.12 364.294 401.784 364.294 401.344V397.465C364.294 397.025 364.631 396.689 365.07 396.689C365.51 396.689 365.846 397.025 365.846 397.465V401.344C365.846 401.784 365.51 402.12 365.07 402.12ZM323.561 398.318C323.121 398.318 322.785 397.982 322.785 397.542V394.206H324.88C325.32 394.206 325.656 394.542 325.656 394.982C325.656 395.422 325.32 395.758 324.88 395.758H324.337V397.542C324.337 397.956 323.975 398.318 323.561 398.318ZM363.674 395.758H359.794C359.355 395.758 359.019 395.422 359.019 394.982C359.019 394.542 359.355 394.206 359.794 394.206H363.674C364.113 394.206 364.45 394.542 364.45 394.982C364.45 395.422 364.113 395.758 363.674 395.758ZM355.915 395.758H352.036C351.596 395.758 351.26 395.422 351.26 394.982C351.26 394.542 351.596 394.206 352.036 394.206H355.915C356.355 394.206 356.691 394.542 356.691 394.982C356.691 395.422 356.355 395.758 355.915 395.758ZM348.156 395.758H344.277C343.837 395.758 343.501 395.422 343.501 394.982C343.501 394.542 343.837 394.206 344.277 394.206H348.156C348.596 394.206 348.932 394.542 348.932 394.982C348.932 395.422 348.596 395.758 348.156 395.758ZM340.398 395.758H336.518C336.079 395.758 335.742 395.422 335.742 394.982C335.742 394.542 336.079 394.206 336.518 394.206H340.398C340.837 394.206 341.173 394.542 341.173 394.982C341.173 395.422 340.837 395.758 340.398 395.758ZM332.639 395.758H328.759C328.32 395.758 327.984 395.422 327.984 394.982C327.984 394.542 328.32 394.206 328.759 394.206H332.639C333.078 394.206 333.415 394.542 333.415 394.982C333.415 395.422 333.078 395.758 332.639 395.758Z" fill="white"/>
<path d="M270.231 438.302C269.946 438.302 269.688 438.146 269.558 437.888C269.352 437.5 269.481 437.034 269.869 436.827L273.024 435.095C273.102 435.043 273.179 435.017 273.257 434.965C273.619 434.758 274.11 434.888 274.317 435.25C274.524 435.612 274.395 436.103 274.033 436.31C273.955 436.362 273.877 436.414 273.774 436.44L270.619 438.172C270.489 438.276 270.36 438.302 270.231 438.302ZM276.774 434.164C276.567 434.164 276.36 434.086 276.205 433.905C275.921 433.595 275.946 433.103 276.257 432.819C277.162 431.991 277.964 431.034 278.662 430.026C278.895 429.664 279.386 429.586 279.748 429.819C280.11 430.051 280.188 430.543 279.955 430.905C279.205 432.017 278.3 433.052 277.317 433.983C277.136 434.112 276.955 434.164 276.774 434.164ZM281.093 427.801C280.99 427.801 280.912 427.776 280.809 427.75C280.421 427.595 280.214 427.155 280.369 426.741C280.809 425.577 281.119 424.388 281.3 423.172C281.352 422.758 281.74 422.448 282.179 422.5C282.593 422.551 282.903 422.939 282.852 423.379C282.671 424.724 282.334 426.043 281.843 427.31C281.688 427.62 281.403 427.801 281.093 427.801ZM282.205 420.198C281.766 420.198 281.429 419.862 281.429 419.422V415.543C281.429 415.103 281.766 414.767 282.205 414.767C282.645 414.767 282.981 415.103 282.981 415.543V419.422C282.981 419.836 282.645 420.198 282.205 420.198ZM282.205 412.439C281.766 412.439 281.429 412.103 281.429 411.663V407.784C281.429 407.344 281.766 407.008 282.205 407.008C282.645 407.008 282.981 407.344 282.981 407.784V411.663C282.981 412.077 282.645 412.439 282.205 412.439ZM282.205 404.68C281.766 404.68 281.429 404.344 281.429 403.904V400.025C281.429 399.585 281.766 399.249 282.205 399.249C282.645 399.249 282.981 399.585 282.981 400.025V403.904C282.981 404.318 282.645 404.68 282.205 404.68ZM282.205 396.922C281.766 396.922 281.429 396.585 281.429 396.146V395.758H279.49C279.05 395.758 278.714 395.422 278.714 394.982C278.714 394.542 279.05 394.206 279.49 394.206H282.981V396.146C282.981 396.56 282.645 396.922 282.205 396.922ZM275.61 395.758H271.731C271.291 395.758 270.955 395.422 270.955 394.982C270.955 394.542 271.291 394.206 271.731 394.206H275.61C276.05 394.206 276.386 394.542 276.386 394.982C276.386 395.422 276.024 395.758 275.61 395.758ZM267.851 395.758H263.972C263.532 395.758 263.196 395.422 263.196 394.982C263.196 394.542 263.532 394.206 263.972 394.206H267.851C268.291 394.206 268.627 394.542 268.627 394.982C268.627 395.422 268.265 395.758 267.851 395.758ZM260.093 395.758H256.213C255.774 395.758 255.438 395.422 255.438 394.982C255.438 394.542 255.774 394.206 256.213 394.206H260.093C260.532 394.206 260.869 394.542 260.869 394.982C260.869 395.422 260.507 395.758 260.093 395.758Z" fill="white"/>
<path d="M450.466 277.022C452.354 281.962 440.405 290.729 423.983 296.962C407.56 303.195 392.844 304.152 390.956 299.186C389.068 294.22 400.732 285.272 417.181 279.039C433.629 272.806 448.578 272.056 450.466 277.022Z" fill="#FE5244"/>
<path d="M459.646 437.475V440.216C458.792 440.009 457.887 439.906 456.982 439.906H453.646C448.706 439.906 444.49 436.75 442.887 432.354L452.352 431.086C456.206 430.569 459.646 433.569 459.646 437.475Z" fill="#73325A"/>
<path d="M468.388 451.31V472.362C468.388 477.276 464.405 481.259 459.491 481.259H449.586C447.129 481.259 444.905 480.276 443.301 478.647C441.698 477.044 440.689 474.819 440.689 472.362H447.129C449.25 472.362 450.957 470.655 450.957 468.535V463.026C450.957 460.905 449.25 459.198 447.129 459.198H414.206C401.352 459.198 390.93 448.776 390.93 435.922V296.834C392.481 291.739 403.059 284.368 417.154 279.04C426.775 275.394 435.905 273.635 442.189 273.79V428.5C442.189 434.81 447.31 439.931 453.62 439.931H456.957C463.267 439.905 468.388 445 468.388 451.31Z" fill="#A0505A"/>
<path d="M442.189 273.764V287.834C437.508 290.989 431.172 294.222 423.956 296.937C407.508 303.17 392.818 304.127 390.93 299.161V296.808C392.481 291.713 403.059 284.342 417.154 279.014C426.801 275.368 435.905 273.609 442.189 273.764Z" fill="#73325A"/>
<path d="M399.184 168.996L389.459 194.056L339.338 203.031L352.424 168.996H399.184Z" fill="#A0505A"/>
<path d="M399.182 168.996L393.932 182.548L344.225 190.306L352.423 168.996H399.182Z" fill="#73325A"/>
<path d="M428.565 117.995C428.565 121.383 422.694 125.133 415.918 128.289C406.686 132.608 395.797 135.892 395.797 135.892L388.452 149.729C398.435 155.03 402.341 164.548 403.892 171.194C404.875 175.436 404.875 178.462 404.875 178.462H334.477C334.477 178.462 315.986 118.564 360.547 104.236C387.806 95.4691 428.565 109.952 428.565 117.995Z" fill="white" stroke="#FFCF2D" stroke-width="1.55175" stroke-miterlimit="10" stroke-linecap="round"/>
<path d="M354.028 112.77C363.698 112.77 371.537 104.931 371.537 95.2614C371.537 85.5914 363.698 77.7524 354.028 77.7524C344.359 77.7524 336.52 85.5914 336.52 95.2614C336.52 104.931 344.359 112.77 354.028 112.77Z" fill="white" stroke="#FFCF2D" stroke-width="1.55175" stroke-miterlimit="10" stroke-linecap="round"/>
<path d="M403.868 171.192C402.419 164.907 398.799 155.959 389.876 150.553H387.574C385.453 150.553 383.514 149.7 382.117 148.303C380.721 146.907 379.867 144.967 379.867 142.846C379.867 138.579 383.307 135.139 387.574 135.139L397.324 135.346H397.583C397.764 135.294 397.945 135.217 398.152 135.165C400.79 134.596 409.144 132.579 416.075 129.113L416.876 133.898L419.463 149.234C421.221 159.76 414.006 169.459 403.868 171.192Z" fill="#A0505A"/>
<path d="M416.849 133.874C408.366 137.314 397.297 135.322 397.297 135.322C397.297 135.322 407.719 133.253 416.047 129.089L416.849 133.874Z" fill="#73325A"/>
<path d="M393.576 144.322C393.576 141.373 391.196 138.994 388.248 138.994" stroke="#73325A" stroke-width="1.29312" stroke-miterlimit="10" stroke-linecap="round"/>
<path d="M420.959 472.363L450.985 722.247" stroke="#66B0F0" stroke-width="1.55175" stroke-miterlimit="10"/>
<path d="M290.793 472.363L260.793 722.247" stroke="#66B0F0" stroke-width="1.55175" stroke-miterlimit="10"/>
<path d="M271.086 636.436H440.666" stroke="#66B0F0" stroke-width="1.55175" stroke-miterlimit="10"/>
<path d="M264.699 472.363H447.055C449.228 472.363 450.986 470.605 450.986 468.432V463.104C450.986 460.932 449.228 459.173 447.055 459.173H264.699C262.526 459.173 260.768 460.932 260.768 463.104V468.432C260.793 470.605 262.552 472.363 264.699 472.363Z" fill="white" stroke="#FFCF2D" stroke-width="1.55175" stroke-miterlimit="10"/>
</svg>
