<svg width="800" height="800" viewBox="0 0 800 800" fill="none" xmlns="http://www.w3.org/2000/svg">
<path d="M416.676 557.492V656.206H302.6V598.048C305.077 604.53 334.116 600.393 365.106 588.535C392.986 577.862 414.516 564.739 416.676 557.492Z" fill="#FE5244"/>
<path d="M416.678 554.621C414.491 561.867 392.988 574.991 365.082 585.663C334.118 597.521 305.079 601.659 302.575 595.176C300.072 588.694 325.106 574.016 356.096 562.157C387.059 550.299 414.201 545.951 416.678 552.434C416.942 553.092 416.942 553.83 416.678 554.621Z" fill="#66B0F0"/>
<path d="M392.515 489.162V572.802L386.217 575.991C379.84 579.101 372.699 582.184 365.11 585.082C351.17 590.432 337.598 594.2 326.689 596.15L332.96 571.511L343.185 531.298C338.336 531.298 333.751 529.138 330.668 525.396L288.689 477.646C295.883 471.085 306.635 480.018 306.635 480.018L302.603 459.437C301.655 454.562 303.078 449.503 306.424 445.84L319.178 431.847C321.708 429.08 326.267 430.16 327.321 433.744L336.386 465.024C336.386 465.024 358.891 482.205 363.107 482.205C367.877 482.205 369.537 478.331 360.63 465.604C353.936 456.038 360.63 449.055 360.63 449.055L382.423 467.395C388.826 472.824 392.515 480.782 392.515 489.162Z" fill="white" stroke="#FFCF2D" stroke-width="1.31759" stroke-miterlimit="10"/>
<path d="M344.476 484.289L328.533 471.534L319.811 441.441C318.81 437.989 314.567 436.961 312.143 439.622" stroke="#FFCF2D" stroke-width="1.31759" stroke-miterlimit="10"/>
<path d="M334.039 489.902L320.178 478.623L311.93 450.137C310.982 446.87 306.818 445.895 304.525 448.424" stroke="#FFCF2D" stroke-width="1.31759" stroke-miterlimit="10"/>
<path d="M321.788 492.774L306.609 480.046" stroke="#FFCF2D" stroke-width="1.31759" stroke-miterlimit="10"/>
<path d="M343.184 531.3H360.918" stroke="#FFCF2D" stroke-width="1.31759" stroke-miterlimit="10"/>
<path d="M392.514 551.248V573.357C384.661 577.52 375.307 581.737 365.108 585.663C351.142 591.012 337.571 594.781 326.635 596.731L332.959 572.065C339.969 568.692 347.822 565.319 356.122 562.157C369.535 557.045 382.237 553.303 392.514 551.248Z" fill="#FFCF2D"/>
<path d="M374.649 272.813L382.66 290.39C383.424 296.898 378.786 302.775 372.277 303.565C365.769 304.33 361.131 310.232 361.895 316.741L363.054 326.492" stroke="#FFCF2D" stroke-width="1.58111" stroke-miterlimit="10"/>
<path d="M467.356 216.341L509.572 150.461L364.374 149.302L316.809 275.948L395.337 272.259L467.356 216.341Z" fill="#FE5244"/>
<path d="M511.31 145.508L359.497 143.795L309.086 276.713" stroke="#FFCF2D" stroke-width="1.58111" stroke-miterlimit="10"/>
<path d="M464.748 206.459C473.181 220.926 458.845 245.012 432.704 260.243C406.563 275.475 378.551 276.081 370.119 261.614C368.959 259.637 368.248 257.503 367.905 255.21C365.797 240.743 379.579 220.979 402.163 207.83C424.746 194.68 448.726 192.414 460.268 201.373C462.087 202.796 463.589 204.483 464.748 206.459Z" fill="#66B0F0" stroke="white" stroke-width="1.58111" stroke-miterlimit="10"/>
<path d="M458.056 194.97L464.75 206.46C463.59 204.483 462.088 202.797 460.27 201.374C448.728 192.414 424.747 194.68 402.164 207.83C379.581 220.979 365.825 240.743 367.907 255.21C368.223 257.503 368.961 259.637 370.12 261.614L363.427 250.124C354.994 235.657 369.33 211.572 395.471 196.34C421.585 181.136 449.624 180.503 458.056 194.97Z" stroke="white" stroke-width="1.31759" stroke-miterlimit="10" stroke-linecap="round"/>
<path d="M360.786 362.013C359.758 365.043 358.652 367.942 357.492 370.604C355.147 370.577 352.775 370.182 350.456 369.391C348.111 368.601 346.003 367.494 344.105 366.097C344.791 363.278 345.634 360.3 346.662 357.27C351.774 342.091 359.047 330.865 362.947 332.156C366.847 333.474 365.872 346.834 360.786 362.013Z" fill="#FFCF2D"/>
<path d="M363.478 332.21C365.239 332.21 366.666 330.782 366.666 329.021C366.666 327.26 365.239 325.833 363.478 325.833C361.717 325.833 360.289 327.26 360.289 329.021C360.289 330.782 361.717 332.21 363.478 332.21Z" stroke="#66B0F0" stroke-width="1.58111" stroke-miterlimit="10"/>
</svg>
