<svg width="800" height="800" viewBox="0 0 800 800" fill="none" xmlns="http://www.w3.org/2000/svg">
<path d="M399.326 582.631V680.543H291.773V536.438C293.879 543.495 316.389 558.207 344.33 570.503C374.064 583.636 398.704 589.042 399.326 582.631Z" fill="#66B0F0"/>
<path d="M399.325 580.024C398.679 586.435 374.064 581.005 344.329 567.896C316.388 555.576 293.878 540.864 291.773 533.831C291.629 533.376 291.581 532.946 291.629 532.563C292.251 526.152 316.891 531.582 346.626 544.691C376.36 557.8 399.971 573.613 399.325 580.024Z" fill="#9A3B82"/>
<path d="M335.669 439.578C338.229 434.315 343.563 430.966 349.424 430.966H366.337L367.222 498.952L379.015 561.435L382.771 581.291C372.82 579.09 359.232 574.473 344.353 567.918C335.932 564.21 325.383 558.708 318.35 554.833V472.111C318.35 470.987 318.565 469.863 318.948 468.81L335.669 439.578Z" fill="#A0505A"/>
<path d="M382.75 581.291C372.798 579.09 359.211 574.473 344.331 567.918C335.911 564.21 325.361 558.708 318.328 554.833V534.045C326.007 536.509 337.37 540.623 346.628 544.69C359.115 550.192 370.023 555.862 379.018 561.435L382.75 581.291Z" fill="#73325A"/>
<path d="M445.734 354.536L355.764 520.075C352.439 526.199 343.277 527.659 335.311 523.329C327.345 518.999 323.589 510.531 326.914 504.383L416.884 338.844L445.734 354.536Z" fill="white" stroke="#FFCF2D" stroke-width="1.19609" stroke-miterlimit="10"/>
<path d="M445.719 354.576C449.05 348.447 445.295 339.97 437.332 335.643C429.369 331.315 420.214 332.775 416.883 338.904C413.552 345.033 417.307 353.51 425.27 357.837C433.233 362.165 442.388 360.705 445.719 354.576Z" fill="#66B0F0" stroke="#FFCF2D" stroke-width="1.19609" stroke-miterlimit="10"/>
<path d="M386.959 417.906L429.468 383.195L428.798 395.539L442.41 398.936L411.407 418.073C419.732 416.638 429.755 415.466 438.008 416.112C447.84 416.877 444.539 428.384 440.855 438.215C449.467 437.378 478.34 419.891 489.225 423.193C495.875 425.202 493.483 438.766 491.569 446.253C494.344 446.397 508.386 446.229 508.386 446.229L500.97 452.999L505.037 459.769C489.249 460.463 489.057 457.975 491.043 446.779C491.378 434.603 477.886 446.301 449.156 453.167C434.922 456.564 436.764 447.306 440.281 437.665C438.869 433.24 428.32 428.431 394.423 437.283L386.959 417.906Z" fill="#FE5244"/>
<path d="M387.582 439.052C394.519 439.052 400.141 433.429 400.141 426.493C400.141 419.557 394.519 413.934 387.582 413.934C380.646 413.934 375.023 419.557 375.023 426.493C375.023 433.429 380.646 439.052 387.582 439.052Z" fill="white" stroke="#FE5244" stroke-width="1.19609" stroke-miterlimit="10"/>
<path d="M383.247 430.966V431.756C383.247 439.793 376.74 446.324 368.679 446.324H353.393V430.966H383.247Z" fill="#A0505A"/>
<path d="M401.86 460.462L397.817 469.935L393.104 481.011L390.545 487.015L386.645 496.178C386.55 496.417 386.406 496.68 386.286 496.895C386.286 496.919 386.263 496.919 386.263 496.943C385.019 499.096 382.602 500.436 379.947 500.436H348.968C345.213 500.436 342.653 496.871 344.04 493.594L346.289 488.307L351.241 476.681L355.499 466.658L359.255 457.855C360.355 455.271 363.01 453.573 365.977 453.573H396.956C400.687 453.621 403.247 457.185 401.86 460.462Z" fill="#A0505A"/>
<path d="M356.791 466.705C358.083 465.27 359.949 464.409 361.958 464.409H391.549C394.659 464.409 396.908 467.088 396.597 469.935" stroke="#73325A" stroke-width="1.19609" stroke-miterlimit="10" stroke-linecap="round"/>
<path d="M352.77 476.728C354.037 475.46 355.784 474.719 357.674 474.719H387.265C390.662 474.719 393.006 477.876 392.145 480.986" stroke="#73325A" stroke-width="1.19609" stroke-miterlimit="10" stroke-linecap="round"/>
<path d="M348.129 488.331C349.397 487.135 351.095 486.441 352.913 486.441H382.505C385.997 486.441 388.413 489.838 387.289 493.044" stroke="#73325A" stroke-width="1.19609" stroke-miterlimit="10" stroke-linecap="round"/>
<path d="M455.132 182.228C457.118 180.098 459.103 178.113 461.065 176.343C462.978 177.228 464.796 178.448 466.447 179.979C468.074 181.51 469.437 183.232 470.466 185.074C468.839 187.155 467.021 189.284 465.036 191.414C455.132 202.059 444.917 208.637 442.166 206.102C439.439 203.566 445.228 192.873 455.132 182.228Z" fill="#FFCF2D"/>
<path d="M385.614 266.529L382.456 268.49C370.998 275.595 348.679 260.309 332.627 234.354C316.552 208.399 312.82 181.63 324.254 174.526L327.508 172.516L346.861 229.45L385.614 266.529Z" fill="#66B0F0"/>
<path d="M417.67 297.219L385.615 266.528L346.838 229.425L327.485 172.515L310.189 121.633L390.734 186.533L417.67 297.219Z" fill="#66B0F0" stroke="white" stroke-width="1.43531" stroke-miterlimit="10"/>
<path d="M420.183 294.182L393.438 183.687L311.889 119.457" stroke="#9A3B82" stroke-width="1.43531" stroke-miterlimit="10"/>
<path d="M375.111 218.971C373.054 210.455 378.293 201.867 386.809 199.81C394.894 197.848 403.1 202.465 405.635 210.359L412.357 232.056C416.065 244.065 433.361 243.132 435.777 230.788L439.652 210.862" stroke="#FFCF2D" stroke-width="1.43531" stroke-miterlimit="10"/>
<path d="M440.563 211.412C442.161 211.412 443.457 210.116 443.457 208.518C443.457 206.919 442.161 205.623 440.563 205.623C438.964 205.623 437.668 206.919 437.668 208.518C437.668 210.116 438.964 211.412 440.563 211.412Z" stroke="#66B0F0" stroke-width="1.43531" stroke-miterlimit="10"/>
</svg>
