<svg width="800" height="800" viewBox="0 0 800 800" fill="none" xmlns="http://www.w3.org/2000/svg">
<path d="M258.437 364.408L246.288 375.049C244.331 372.725 242.578 370.157 241.07 367.344L165.322 226.203C162.142 220.292 166.422 213.157 173.108 213.157H183.708C192.188 213.157 199.934 217.805 203.929 225.265L263.492 336.237C268.629 345.696 266.509 357.396 258.437 364.408Z" fill="#FFCF2D"/>
<path d="M464.641 367.506L288.398 403.709V400.039C288.398 382.468 300.751 367.343 317.956 363.796L431.496 340.477C448.619 336.971 464.641 350.057 464.641 367.506Z" fill="#FFCF2D"/>
<path d="M444.663 592.796V416.227C444.663 401.591 431.25 390.665 416.9 393.601L306.213 416.309C293.045 418.999 282.201 428.213 277.39 440.77L218.969 592.796" stroke="#9A3B82" stroke-width="2.44611" stroke-miterlimit="10" stroke-linecap="round"/>
<path d="M164.875 225.429L250.937 385.771C258.316 399.51 273.808 406.767 289.097 403.628L465.054 367.507" stroke="#9A3B82" stroke-width="2.44611" stroke-miterlimit="10" stroke-linecap="round"/>
<path d="M527.138 236.557H378.211V256.452H527.138V236.557Z" fill="#66B0F0"/>
<path d="M499.988 214.951C501.782 216.622 502.882 219.639 502.882 222.167C502.882 227.222 498.48 232.4 493.017 232.4H357.176C357.176 234.764 359.092 236.68 361.456 236.68H525.387C529.79 236.68 533.744 235.049 536.639 232.359C539.533 229.709 541.286 225.999 541.286 221.922C541.286 213.768 534.152 207.205 525.387 207.205H361.456C359.092 207.205 357.176 209.121 357.176 211.485V212.26H493.017C495.748 212.301 498.194 213.32 499.988 214.951Z" fill="#FE5244"/>
<path d="M366.999 212.3V232.032H357.215V233.663H493.504C495.012 233.663 496.48 233.378 497.785 232.848C499.252 232.277 500.557 231.38 501.617 230.32C503.696 228.241 505.001 225.346 505.001 222.166C505.001 215.806 499.823 210.669 493.504 210.669H357.215V212.3H366.999Z" fill="#FE5244"/>
<path d="M363.211 212.299V232.031H493.018C498.481 232.031 502.884 227.628 502.884 222.165C502.884 219.434 501.783 216.988 499.989 215.194C498.196 213.4 495.749 212.299 493.018 212.299H363.211Z" fill="white"/>
<path d="M363.211 212.299V232.031" stroke="#FE5244" stroke-width="2.03843" stroke-miterlimit="10"/>
<path d="M474.875 226.282V242.752H486.249V228.402C486.249 224.977 489.022 222.205 492.446 222.205H497.502V220.085H481.031C477.688 220.085 474.875 222.857 474.875 226.282Z" fill="#FFCF2D"/>
<path d="M294.598 273.495C294.598 264.811 301.651 257.758 310.334 257.758H619.767C628.451 257.758 635.504 264.811 635.504 273.495" stroke="#9A3B82" stroke-width="2.44611" stroke-miterlimit="10" stroke-linecap="round"/>
<path d="M635.747 592.793L548.38 288.496C544.507 275.043 531.176 265.666 515.929 265.666H414.13C398.882 265.666 385.551 275.043 381.678 288.496L294.352 592.793" stroke="#9A3B82" stroke-width="2.44611" stroke-miterlimit="10" stroke-linecap="round"/>
</svg>
