<svg width="800" height="800" viewBox="0 0 800 800" fill="none" xmlns="http://www.w3.org/2000/svg">
<path d="M503.757 293.59C503.757 295.921 503.494 298.215 503.005 300.472C502.892 300.923 502.779 301.374 502.666 301.826C501.463 306.339 499.282 310.626 496.16 314.274C496.123 314.312 496.085 314.387 496.047 314.424C495.709 314.838 495.333 315.214 494.957 315.628C494.881 315.741 494.769 315.816 494.693 315.891C493.452 317.17 492.061 318.373 490.557 319.464C487.924 321.382 485.141 322.811 482.245 323.826C481.794 323.977 481.343 324.127 480.891 324.278C476.83 325.481 472.58 325.857 468.443 325.406C467.992 325.368 467.541 325.293 467.089 325.218C462.689 324.541 458.44 322.999 454.641 320.554C454.19 320.254 453.739 319.953 453.287 319.652C451.633 318.486 450.091 317.132 448.662 315.628C448.248 315.177 447.834 314.763 447.458 314.274C446.668 313.334 445.879 312.318 445.202 311.265L442.832 307.693L444.938 314.274L445.352 315.628L449.301 328.076L449.715 329.43L453.287 340.712L453.663 341.878L454.077 343.232L454.641 344.962L458.026 355.68L458.44 357.034L462.388 369.482L462.802 370.836L466.751 383.284L467.052 384.262L467.165 384.638L468.406 388.512L468.631 389.226C468.594 389.076 468.518 388.925 468.406 388.775C468.142 388.399 467.691 388.06 467.052 387.76C464.908 386.707 460.621 385.917 454.604 385.465C454.152 385.428 453.701 385.39 453.25 385.353C449.639 385.127 445.502 384.977 440.801 384.901C440.35 384.901 439.899 384.901 439.448 384.901C435.612 384.864 431.475 384.901 426.999 385.014C426.548 385.014 426.097 385.052 425.646 385.052C421.697 385.165 417.56 385.315 413.197 385.503C412.746 385.541 412.295 385.541 411.843 385.578C407.857 385.766 403.72 385.992 399.395 386.255C398.944 386.293 398.493 386.293 398.041 386.33C394.017 386.594 389.881 386.857 385.593 387.195C385.142 387.233 384.691 387.271 384.239 387.308C380.178 387.609 376.041 387.948 371.791 388.324C371.377 388.361 370.964 388.399 370.55 388.436C370.513 388.436 370.475 388.436 370.437 388.436C366.225 388.813 362.051 389.189 357.989 389.602C357.538 389.64 357.087 389.678 356.635 389.753C352.386 390.166 348.211 390.618 344.187 391.107C343.736 391.144 343.285 391.219 342.833 391.257C338.546 391.746 334.371 392.272 330.385 392.837C329.934 392.912 329.482 392.949 329.031 393.025C324.669 393.626 320.532 394.228 316.583 394.83C316.132 394.905 315.68 394.98 315.229 395.055C310.942 395.732 306.955 396.447 303.232 397.124C303.082 397.161 302.931 397.199 302.781 397.199C302.33 397.274 301.878 397.387 301.427 397.462C299.735 397.801 298.118 398.139 296.576 398.478C293.793 399.079 291.273 399.681 288.979 400.283C288.528 400.396 288.076 400.509 287.625 400.659C279.727 402.803 275.252 404.909 275.252 406.789V352.784H233.771C233.319 352.784 232.868 352.784 232.417 352.747C228.054 352.596 223.88 351.769 219.969 350.415C219.517 350.265 219.066 350.077 218.615 349.926C214.515 348.309 210.717 346.09 207.332 343.345C206.956 343.044 206.543 342.705 206.167 342.367C206.016 342.254 205.903 342.141 205.753 341.991C205.452 341.728 205.113 341.427 204.813 341.126C204.549 340.9 204.324 340.637 204.06 340.374C200.901 337.215 198.231 333.567 196.2 329.505C195.975 329.054 195.749 328.602 195.561 328.151C193.756 324.278 192.552 320.103 192.026 315.703C191.951 315.252 191.913 314.8 191.876 314.349C191.763 313.07 191.688 311.792 191.688 310.476C191.688 307.58 191.988 304.684 192.552 301.901C192.628 301.45 192.741 300.998 192.853 300.547C193.906 296.147 195.674 291.972 198.081 288.099C198.306 287.76 198.532 287.384 198.758 287.046L198.946 286.745L204.775 277.982L206.129 275.952L207.257 274.297L208.16 272.943L216.471 260.495L217.374 259.141L218.615 257.298L219.969 255.267L225.685 246.693L226.588 245.339L232.417 236.576L233.771 234.545L234.861 232.891L235.764 231.537L244.075 219.089L244.978 217.735L245.203 217.396C245.542 216.907 245.88 216.456 246.219 215.967C246.67 215.365 247.121 214.801 247.573 214.2C250.205 210.89 253.139 207.919 256.373 205.287C256.937 204.835 257.501 204.384 258.065 203.933C258.705 203.444 259.382 202.955 260.021 202.504C260.472 202.203 260.923 201.902 261.375 201.601C265.248 199.006 269.46 196.9 273.823 195.283C274.274 195.132 274.726 194.944 275.177 194.794C279.201 193.402 283.375 192.462 287.625 191.973C288.076 191.936 288.528 191.861 288.979 191.823C290.859 191.635 292.777 191.56 294.695 191.56H400.11L400.223 191.522L403.683 190.168L411.806 187.009L413.16 186.483L425.608 181.631L426.962 181.105L435.724 177.72L439.184 176.366L439.41 176.253L440.764 175.727L443.096 174.824L443.923 176.366L444.675 177.72L451.482 190.168L452.234 191.522L453.212 193.327L454.566 195.809L459.041 203.97L459.793 205.324L466.6 217.772L467.014 218.562L467.315 219.126L468.368 221.007L474.122 231.574L474.874 232.928L480.816 243.797L481.681 245.376L482.17 246.241L482.433 246.73L489.24 259.178L489.992 260.532L494.618 268.994L495.972 271.476L496.8 272.981L497.552 274.334L499.771 278.396C501.237 281.104 502.29 283.924 502.93 286.783C503.042 287.234 503.118 287.685 503.193 288.136C503.607 289.866 503.757 291.747 503.757 293.59Z" fill="#FE5244"/>
<g opacity="0.2">
<g opacity="0.2">
<g opacity="0.2">
<path opacity="0.2" d="M206.315 275.914V342.254C206.164 342.141 206.052 342.029 205.901 341.878C205.6 341.615 205.262 341.314 204.961 341.013V277.945L206.315 275.914Z" fill="white"/>
</g>
<g opacity="0.2">
<path opacity="0.2" d="M233.92 234.507V352.671C233.469 352.671 233.018 352.671 232.566 352.633V236.538L233.92 234.507Z" fill="white"/>
</g>
<g opacity="0.2">
<path opacity="0.2" d="M220.119 255.192V350.265C219.668 350.114 219.217 349.926 218.766 349.776V257.223L220.119 255.192Z" fill="white"/>
</g>
<g opacity="0.2">
<path opacity="0.2" d="M261.524 201.524V352.632H260.17V202.464C260.621 202.163 261.072 201.825 261.524 201.524Z" fill="white"/>
</g>
<g opacity="0.2">
<path opacity="0.2" d="M247.725 214.161V352.633H246.371V215.929C246.822 215.327 247.274 214.763 247.725 214.161Z" fill="white"/>
</g>
<g opacity="0.2">
<path opacity="0.2" d="M289.129 191.784V400.207C288.678 400.319 288.227 400.432 287.775 400.583V191.897C288.227 191.859 288.678 191.822 289.129 191.784Z" fill="white"/>
</g>
<g opacity="0.2">
<path opacity="0.2" d="M275.325 194.756V352.671H273.971V195.208C274.422 195.057 274.873 194.907 275.325 194.756Z" fill="white"/>
</g>
<g opacity="0.2">
<g opacity="0.2">
<path opacity="0.2" d="M302.889 191.447V397.124C302.438 397.2 301.986 397.312 301.535 397.388V191.447H302.889Z" fill="white"/>
</g>
</g>
<g opacity="0.2">
<path opacity="0.2" d="M330.498 191.447V392.762C330.047 392.837 329.596 392.875 329.145 392.95V191.447H330.498Z" fill="white"/>
</g>
<g opacity="0.2">
<path opacity="0.2" d="M316.694 191.447V394.755C316.242 394.83 315.791 394.905 315.34 394.981V191.447H316.694Z" fill="white"/>
</g>
<g opacity="0.2">
<path opacity="0.2" d="M358.102 191.447V389.565C357.651 389.603 357.199 389.64 356.748 389.716V191.447H358.102Z" fill="white"/>
</g>
<g opacity="0.2">
<path opacity="0.2" d="M344.297 191.447V391.032C343.846 391.069 343.395 391.145 342.943 391.182V191.447H344.297Z" fill="white"/>
</g>
<g opacity="0.2">
<path opacity="0.2" d="M385.703 191.448V387.159C385.252 387.196 384.801 387.234 384.35 387.272V191.448H385.703Z" fill="white"/>
</g>
<g opacity="0.2">
<path opacity="0.2" d="M371.903 191.447V388.286C371.489 388.324 371.075 388.362 370.662 388.399C370.624 388.399 370.586 388.399 370.549 388.399V191.447H371.903Z" fill="white"/>
</g>
<g opacity="0.2">
<g opacity="0.2">
<path opacity="0.2" d="M399.467 191.447V386.256C399.016 386.293 398.565 386.293 398.113 386.331V191.447H399.467Z" fill="white"/>
</g>
</g>
<g opacity="0.2">
<path opacity="0.2" d="M427.073 181.067V385.052C426.621 385.052 426.17 385.09 425.719 385.09V181.594L427.073 181.067Z" fill="white"/>
</g>
<g opacity="0.2">
<path opacity="0.2" d="M413.272 186.407V385.503C412.821 385.54 412.369 385.54 411.918 385.578V186.934L413.272 186.407Z" fill="white"/>
</g>
<g opacity="0.2">
<path opacity="0.2" d="M454.674 195.733V320.553C454.223 320.253 453.772 319.952 453.32 319.651V193.289L454.674 195.733Z" fill="white"/>
<path opacity="0.2" d="M454.674 344.963V385.466C454.223 385.429 453.772 385.391 453.32 385.353V340.675L453.696 341.841L454.11 343.195L454.674 344.963Z" fill="white"/>
</g>
<g opacity="0.2">
<path opacity="0.2" d="M440.877 175.501V175.689L439.523 176.216V175.501H440.877Z" fill="white"/>
<path opacity="0.2" d="M440.877 175.689V384.939C440.426 384.939 439.975 384.939 439.523 384.939V176.215L440.877 175.689Z" fill="white"/>
</g>
<g opacity="0.2">
<path opacity="0.2" d="M482.287 246.167V323.827C481.836 323.977 481.385 324.128 480.934 324.278V243.722L481.798 245.302L482.287 246.167Z" fill="white"/>
</g>
<g opacity="0.2">
<path opacity="0.2" d="M468.479 388.514V388.815C468.216 388.439 467.764 388.101 467.125 387.8V384.265L467.238 384.641L468.479 388.514Z" fill="white"/>
<path opacity="0.2" d="M468.479 220.932V325.369C468.028 325.331 467.576 325.256 467.125 325.181V218.487L467.426 219.051L468.479 220.932Z" fill="white"/>
</g>
<g opacity="0.2">
<g opacity="0.2">
<path opacity="0.2" d="M496.041 271.363V314.424C495.703 314.838 495.327 315.214 494.951 315.627C494.876 315.74 494.763 315.815 494.688 315.891V268.918L496.041 271.363Z" fill="white"/>
</g>
</g>
</g>
<g opacity="0.2">
<g opacity="0.2">
<path opacity="0.2" d="M303.385 397.046C303.235 397.084 303.085 397.122 302.934 397.122C302.483 397.197 302.032 397.31 301.58 397.385C299.888 397.723 298.271 398.062 296.729 398.4H275.33V397.046H303.385Z" fill="white"/>
</g>
<g opacity="0.2">
<path opacity="0.2" d="M462.88 370.797H275.33V369.443H462.429L462.88 370.797Z" fill="white"/>
</g>
<g opacity="0.2">
<path opacity="0.2" d="M467.243 384.598H275.33V383.244H466.829L467.13 384.222L467.243 384.598Z" fill="white"/>
</g>
<g opacity="0.2">
<g opacity="0.2">
<path opacity="0.2" d="M458.48 356.992H275.33V355.675H458.066L458.48 356.992Z" fill="white"/>
</g>
</g>
<g opacity="0.2">
<path opacity="0.2" d="M449.753 329.425H196.389C196.164 328.974 195.938 328.523 195.75 328.071H449.339L449.753 329.425Z" fill="white"/>
</g>
<g opacity="0.2">
<path opacity="0.2" d="M454.116 343.23H207.484C207.108 342.929 206.694 342.591 206.318 342.253C206.168 342.14 206.055 342.027 205.904 341.876H453.664L454.116 343.23Z" fill="white"/>
</g>
<g opacity="0.2">
<path opacity="0.2" d="M503.044 300.468C502.931 300.919 502.818 301.37 502.706 301.822H192.742C192.817 301.37 192.93 300.919 193.043 300.468H503.044Z" fill="white"/>
</g>
<g opacity="0.2">
<path opacity="0.2" d="M445.389 315.625H192.176C192.101 315.174 192.063 314.723 192.025 314.271H444.938L445.389 315.625Z" fill="white"/>
<path opacity="0.2" d="M496.198 314.27C496.161 314.308 496.123 314.383 496.085 314.42C495.747 314.834 495.371 315.21 494.995 315.624H448.7C448.286 315.173 447.872 314.759 447.496 314.27H496.198Z" fill="white"/>
</g>
<g opacity="0.2">
<path opacity="0.2" d="M497.629 274.22H207.447L208.35 272.866H496.877L497.629 274.22Z" fill="white"/>
</g>
<g opacity="0.2">
<path opacity="0.2" d="M503.269 288.022H198.27C198.495 287.683 198.721 287.307 198.946 286.969L199.135 286.668H503.005C503.118 287.119 503.193 287.571 503.269 288.022Z" fill="white"/>
</g>
<g opacity="0.2">
<g opacity="0.2">
<path opacity="0.2" d="M490.067 260.417H216.658L217.523 259.101H489.352L490.067 260.417Z" fill="white"/>
</g>
</g>
<g opacity="0.2">
<path opacity="0.2" d="M474.987 232.852H235.012L235.914 231.498H474.235L474.987 232.852Z" fill="white"/>
</g>
<g opacity="0.2">
<path opacity="0.2" d="M482.547 246.652H225.836L226.738 245.298H481.795L482.283 246.163L482.547 246.652Z" fill="white"/>
</g>
<g opacity="0.2">
<path opacity="0.2" d="M459.869 205.245H256.486C257.05 204.794 257.615 204.342 258.179 203.891H459.117L459.869 205.245Z" fill="white"/>
</g>
<g opacity="0.2">
<path opacity="0.2" d="M467.427 219.049H244.225L245.127 217.695H466.675L467.126 218.485L467.427 219.049Z" fill="white"/>
</g>
<g opacity="0.2">
<path opacity="0.2" d="M444.787 177.642H435.836L439.296 176.288H444.034L444.787 177.642Z" fill="white"/>
</g>
<g opacity="0.2">
<path opacity="0.2" d="M452.347 191.444H400.373L403.833 190.09H451.595L452.347 191.444Z" fill="white"/>
</g>
</g>
</g>
<path d="M373.97 415.74C310.338 420.667 275.438 414.65 275.4 406.677C275.4 400.961 317.408 393.025 370.661 388.4C426.885 383.548 466.975 383.774 468.704 389.227C471.111 396.824 439.859 410.626 373.97 415.74Z" fill="#E57281"/>
<path d="M371 342.556L392.662 386.67" stroke="white" stroke-width="2.25647" stroke-miterlimit="10"/>
<path d="M363.818 359.778C365.666 359.778 367.165 358.28 367.165 356.431C367.165 354.583 365.666 353.084 363.818 353.084C361.969 353.084 360.471 354.583 360.471 356.431C360.471 358.28 361.969 359.778 363.818 359.778Z" stroke="white" stroke-width="1.88039" stroke-miterlimit="10"/>
<path d="M400.26 191.482L447.495 317.732" stroke="white" stroke-width="1.88039" stroke-miterlimit="10"/>
<path d="M192.025 303.892C201.578 298.363 215.342 304.306 222.751 317.167C230.16 329.992 228.43 344.884 218.877 350.413" stroke="white" stroke-width="1.88039" stroke-miterlimit="10" stroke-linecap="round"/>
<path d="M502.591 302.2C500.711 308.932 496.611 315.1 490.594 319.462C481.643 325.969 470.474 327.097 460.884 323.599C458.74 315.175 464.983 305.096 475.889 300.019C485.968 295.356 496.875 296.484 502.591 302.2Z" stroke="white" stroke-width="1.88039" stroke-miterlimit="10"/>
<path d="M371 387.532L370.549 191.445" stroke="white" stroke-width="2.25647" stroke-miterlimit="10"/>
<path d="M382.021 235.709C383.87 235.709 385.368 234.211 385.368 232.362C385.368 230.514 383.87 229.015 382.021 229.015C380.172 229.015 378.674 230.514 378.674 232.362C378.674 234.211 380.172 235.709 382.021 235.709Z" stroke="white" stroke-width="1.88039" stroke-miterlimit="10"/>
<path d="M382.021 277.003C383.87 277.003 385.368 275.505 385.368 273.656C385.368 271.808 383.87 270.309 382.021 270.309C380.172 270.309 378.674 271.808 378.674 273.656C378.674 275.505 380.172 277.003 382.021 277.003Z" stroke="white" stroke-width="1.88039" stroke-miterlimit="10"/>
<path d="M382.021 318.299C383.87 318.299 385.368 316.8 385.368 314.952C385.368 313.103 383.87 311.604 382.021 311.604C380.172 311.604 378.674 313.103 378.674 314.952C378.674 316.8 380.172 318.299 382.021 318.299Z" stroke="white" stroke-width="1.88039" stroke-miterlimit="10"/>
<path d="M321.996 190.806L370.849 218.824L396.873 190.468" stroke="white" stroke-width="1.88039" stroke-miterlimit="10"/>
<path d="M484.693 693.585L397.744 693.622L403.573 675.006H484.317L484.693 693.585Z" fill="white" stroke="#FE5244" stroke-width="1.88039" stroke-miterlimit="10"/>
<path d="M504.999 478.318C518.462 500.582 522.336 527.358 515.792 552.518L487.661 660.565L483.901 675.006H403.608L409.55 656.09L442.983 547.742L347.271 390.692C354.718 389.864 362.54 389.074 370.626 388.397C403.796 385.539 431.325 384.449 448.7 385.126L504.999 478.318Z" fill="white" stroke="#9A3B82" stroke-width="2.25647" stroke-miterlimit="10" stroke-linecap="round"/>
<path d="M601.574 693.582L484.689 693.619L484.312 674.891L484.388 675.004L548.697 645.181C584.989 656.425 600.671 672.785 607.29 683.315C610.073 687.79 606.839 693.582 601.574 693.582Z" fill="white" stroke="#FE5244" stroke-width="1.88039" stroke-miterlimit="10"/>
<path d="M548.696 645.183L484.387 675.005L313.422 441.01C307.78 433.3 303.38 424.876 300.297 415.963C298.341 410.322 296.912 404.493 296.047 398.551C313.384 394.752 340.198 391.029 370.661 388.396C378.333 387.72 385.666 387.155 392.661 386.704L407.93 411.977L548.696 645.183Z" fill="white" stroke="#9A3B82" stroke-width="2.25647" stroke-miterlimit="10" stroke-linecap="round"/>
<path d="M360.395 410.923L511.352 661.053" stroke="#9A3B82" stroke-width="2.25647" stroke-miterlimit="10" stroke-linecap="round"/>
<path d="M349.714 401.22C349.714 401.22 348.586 428.824 324.742 438.564" stroke="#9A3B82" stroke-width="2.25647" stroke-miterlimit="10" stroke-linecap="round"/>
<path d="M448.739 385.127L457.389 399.493C447.423 403.931 430.988 408.519 407.897 411.941C397.856 413.446 386.536 414.724 373.937 415.702C367.581 416.191 361.526 416.567 355.772 416.868C332.305 418.034 313.652 417.507 300.263 415.965C298.308 410.324 296.879 404.495 296.014 398.553C296.014 398.553 333.584 391.407 372.395 388.248C411.206 385.089 448.739 385.127 448.739 385.127Z" fill="#9A3B82"/>
<path d="M274.387 407.011C274.387 401.295 314.74 392.946 370.663 388.057C426.886 383.131 467.992 383.77 469.722 389.223" stroke="white" stroke-width="1.88039" stroke-miterlimit="10" stroke-linecap="round"/>
<path d="M374.537 191.484H324.029L330.987 154.816H374.537V191.484Z" fill="#FFCF2D"/>
<path d="M336.59 191.484H324.029L330.987 154.816H374.537V167.753L336.59 191.484Z" fill="#E57281"/>
<path d="M330.799 160.307C330.799 160.307 337.719 120.97 338.621 118.751C340.163 114.99 372.017 102.88 376.906 107.356C381.795 111.831 371.904 115.817 377.207 115.404C382.51 114.99 398.493 103.106 405.187 112.17C409.249 117.698 396.161 125.671 387.775 127.288C379.388 128.905 355.808 141.541 355.244 146.017C354.68 150.492 347.121 159.443 330.799 160.307Z" fill="white" stroke="#FFCF2D" stroke-width="1.88039" stroke-miterlimit="10"/>
<path d="M387.775 126.61V159.93C387.775 165.12 383.563 169.295 378.411 169.295H366.489C360.284 169.295 355.282 164.255 355.282 158.05V154.778H349.491C347.61 154.778 345.918 154.026 344.677 152.785C343.436 151.544 342.684 149.851 342.684 147.971C342.684 144.21 345.73 141.164 349.491 141.164H356.034C357.764 135.749 362.315 131.536 368.144 130.408L387.775 126.61Z" fill="#FFCF2D"/>
<path d="M353.93 149.437C353.93 146.353 352.087 144.059 349.041 144.548" stroke="#E57281" stroke-width="1.50431" stroke-miterlimit="10" stroke-linecap="round"/>
<path d="M375.516 138.681C375.516 138.681 379.427 136.463 383.827 136.049" stroke="#E57281" stroke-width="1.50431" stroke-miterlimit="10" stroke-linecap="round"/>
<path d="M380.93 145.941C381.761 145.941 382.434 144.846 382.434 143.496C382.434 142.146 381.761 141.052 380.93 141.052C380.099 141.052 379.426 142.146 379.426 143.496C379.426 144.846 380.099 145.941 380.93 145.941Z" fill="#E57281"/>
<path d="M351.896 311.307L343.021 314.691L342.231 314.992L336.139 317.286V300.513H262.465L278.862 272.646L279.539 271.48L287.624 268.434L289.204 267.832L295.409 265.463L296.613 265.011L306.165 261.363L307.745 260.762L313.837 258.468L315.341 257.903L321.885 255.421C322.036 255.346 322.186 255.309 322.336 255.271C322.825 255.12 323.314 255.008 323.803 254.97C324.405 254.895 325.007 254.895 325.571 254.932C327.376 255.083 329.068 255.873 330.385 257.114C331.287 257.941 332.002 258.994 332.453 260.198L351.896 311.307Z" fill="white"/>
<path d="M340.502 278.887L333.319 259.895C332.83 258.616 332.078 257.488 331.176 256.623C329.671 255.157 327.641 254.254 325.535 254.104C324.858 254.066 324.181 254.066 323.541 254.179C322.902 254.254 322.263 254.442 321.661 254.668L315.117 257.15L313.538 257.752L307.52 260.046L305.941 260.647L296.539 264.22L294.959 264.822L288.905 267.116L287.325 267.718L280.217 270.425L279.54 271.591L278.863 272.757L288.002 269.297L289.582 268.695L306.543 262.264L308.122 261.663L321.699 256.51L322.187 256.322C322.413 256.247 322.639 256.172 322.864 256.097C323.316 255.984 323.729 255.909 324.181 255.871C324.406 255.871 324.594 255.834 324.82 255.834C327.791 255.834 330.612 257.639 331.74 260.61L350.807 310.929L343.473 313.712L342.684 314.013L341.894 314.314L336.102 316.495V318.3L342.496 315.893L352.951 311.907L340.502 278.887Z" fill="#3FB1B5"/>
<path d="M351.893 311.302L342.98 314.686L322.371 260.343C321.431 257.899 322.672 255.153 325.117 254.213C327.561 253.273 330.306 254.514 331.247 256.958L351.893 311.302Z" fill="#3FB1B5"/>
<path d="M342.494 315.74L321.584 260.607C320.493 257.711 321.96 254.477 324.818 253.386C326.209 252.86 327.751 252.897 329.105 253.499C330.459 254.101 331.512 255.229 332.039 256.62L352.949 311.753L342.494 315.74ZM326.849 254.74C326.398 254.74 325.909 254.815 325.457 255.003C323.426 255.755 322.411 258.049 323.201 260.043L343.509 313.596L350.843 310.813L330.534 257.26C330.158 256.282 329.444 255.492 328.466 255.078C327.939 254.853 327.375 254.74 326.849 254.74Z" fill="#3FB1B5"/>
<path d="M311.806 266.061C310.903 266.061 309.926 265.723 309.023 265.083C307.744 264.181 306.729 262.789 306.09 261.134C305.45 259.48 305.3 257.712 305.676 256.208C306.052 254.591 306.992 253.425 308.271 252.936C310.866 251.958 313.95 254.026 315.303 257.637C315.454 258.088 315.266 258.577 314.815 258.727C314.363 258.878 313.874 258.69 313.724 258.239C312.709 255.606 310.49 253.914 308.835 254.515C308.083 254.816 307.519 255.531 307.293 256.584C307.03 257.75 307.143 259.141 307.669 260.495C308.196 261.849 309.023 262.977 310.001 263.692C310.903 264.331 311.806 264.519 312.558 264.218C313.009 264.068 313.498 264.256 313.649 264.707C313.799 265.158 313.611 265.647 313.16 265.798C312.709 265.986 312.257 266.061 311.806 266.061Z" fill="#3FB1B5"/>
<path d="M293.116 272.869C292.214 272.869 291.236 272.53 290.334 271.891C289.055 270.988 288.039 269.597 287.4 267.942C286.761 266.287 286.61 264.52 286.986 263.015C287.363 261.398 288.303 260.232 289.581 259.743C290.86 259.255 292.327 259.518 293.681 260.458C294.959 261.361 295.975 262.752 296.614 264.407C296.764 264.858 296.576 265.347 296.125 265.497C295.674 265.648 295.185 265.46 295.035 265.009C294.508 263.655 293.681 262.526 292.703 261.812C291.8 261.173 290.898 260.985 290.145 261.285C289.393 261.586 288.829 262.301 288.604 263.354C288.34 264.52 288.453 265.911 288.98 267.265C289.506 268.619 290.334 269.747 291.311 270.462C292.214 271.101 293.116 271.289 293.869 270.988C294.32 270.838 294.809 271.026 294.959 271.477C295.11 271.928 294.922 272.417 294.47 272.568C294.019 272.793 293.568 272.869 293.116 272.869Z" fill="#3FB1B5"/>
<path d="M336.216 352.633C341.492 352.633 345.769 340.964 345.769 326.571C345.769 312.177 341.492 300.508 336.216 300.508C330.941 300.508 326.664 312.177 326.664 326.571C326.664 340.964 330.941 352.633 336.216 352.633Z" fill="#73325A"/>
<path d="M370.513 305.85V334.056C370.513 336.313 369.347 338.419 367.429 339.622L355.395 346.768H330.122C327.979 341.991 326.625 334.733 326.625 326.647C326.625 320.818 327.34 315.403 328.505 311.078H352.725L349.002 301.225C347.911 298.404 350.544 295.546 353.439 296.335L365.699 299.57C368.558 300.322 370.513 302.879 370.513 305.85Z" fill="#FFCF2D"/>
<path d="M369.836 325.256C369.836 327.512 368.67 329.618 366.752 330.822L355.395 337.967" stroke="#73325A" stroke-width="1.50431" stroke-miterlimit="10" stroke-linecap="round"/>
<path d="M369.836 314.837C369.836 317.094 368.67 319.2 366.752 320.403L355.395 327.549" stroke="#73325A" stroke-width="1.50431" stroke-miterlimit="10" stroke-linecap="round"/>
<path d="M369.836 305.058C369.836 307.314 368.67 309.42 366.752 310.624L355.395 317.769" stroke="#73325A" stroke-width="1.50431" stroke-miterlimit="10" stroke-linecap="round"/>
<path d="M358.366 307.466L352.688 311.001" stroke="#73325A" stroke-width="1.50431" stroke-miterlimit="10" stroke-linecap="round"/>
<path d="M345.767 326.57C345.767 334.693 344.413 341.952 342.27 346.728H330.122C327.979 341.952 326.625 334.693 326.625 326.57C326.625 320.741 327.34 315.325 328.505 311H343.849C345.053 315.325 345.767 320.741 345.767 326.57Z" fill="#E57281"/>
<path d="M290.821 254.328L263.781 299.871" stroke="white" stroke-width="1.88039" stroke-miterlimit="10"/>
<path d="M335.875 299.87C330.61 299.87 326.322 312.694 326.322 327.286C326.322 341.878 330.61 353.686 335.875 353.686H275.326" stroke="white" stroke-width="1.88039" stroke-miterlimit="10" stroke-linecap="round"/>
<path d="M401.501 142.669L437.153 186.934L416.92 207.468L372.129 172.492C370.813 171.214 371.866 167.829 374.574 163.617C376.529 160.533 379.35 157.036 382.772 153.576C386.195 150.116 389.654 147.22 392.701 145.227C396.838 142.519 400.185 141.428 401.501 142.669Z" fill="#3FB1B5" stroke="#3FB1B5" stroke-width="1.88039" stroke-miterlimit="10" stroke-linecap="round"/>
<path d="M430.805 201.056C436.387 195.388 439.197 189.105 437.081 187.021C434.965 184.937 428.724 187.841 423.142 193.508C417.56 199.175 414.75 205.459 416.866 207.543C418.982 209.627 425.223 206.723 430.805 201.056Z" fill="white" stroke="#3FB1B5" stroke-width="2.25647" stroke-miterlimit="10"/>
<path d="M410.152 183.888V186.746C410.152 189.078 404.21 190.206 402.593 188.514L388.528 173.771C387.475 172.643 386.873 171.176 386.873 169.635V161.135C386.873 158.954 387.888 156.923 389.618 155.607L394.62 151.808C395.824 150.868 397.328 150.379 398.832 150.379H412.409C416.169 150.379 419.629 152.448 421.359 155.757L433.319 178.284H415.681C412.634 178.322 410.152 180.804 410.152 183.888Z" fill="#FFCF2D"/>
<path d="M433.056 178.322H416.095C413.011 178.322 410.491 180.842 410.491 183.925V186.784C410.491 189.115 405.226 190.244 403.609 188.551L388.002 172.305" stroke="#73325A" stroke-width="1.50431" stroke-miterlimit="10" stroke-linecap="round"/>
<path d="M393.756 178.322C392.703 177.231 392.139 175.802 392.139 174.298V166.024C392.139 163.88 393.117 161.887 394.809 160.608L399.698 156.885C400.901 155.983 402.33 155.494 403.835 155.494H413.387" stroke="#73325A" stroke-width="1.50431" stroke-miterlimit="10" stroke-linecap="round"/>
<path d="M399.17 184.037C398.117 182.947 397.553 181.518 397.553 180.013V171.74C397.553 169.596 398.531 167.603 400.223 166.324L405.112 162.601C406.315 161.698 407.744 161.209 409.249 161.209H417.786" stroke="#73325A" stroke-width="1.50431" stroke-miterlimit="10" stroke-linecap="round"/>
<path d="M405.077 188.776C404.099 187.76 403.572 186.444 403.572 185.053V177.381C403.572 175.425 404.475 173.545 406.054 172.379L410.567 168.919C411.658 168.091 413.012 167.64 414.366 167.64H420.082" stroke="#73325A" stroke-width="1.50431" stroke-miterlimit="10" stroke-linecap="round"/>
</svg>
