<svg width="800" height="800" viewBox="0 0 800 800" fill="none" xmlns="http://www.w3.org/2000/svg">
<path d="M593.374 596.231C592.727 596.04 592.368 595.944 592.368 595.944L584.536 621.595L555.052 613.859C554.812 613.644 554.693 613.524 554.693 613.524C554.693 613.524 435.296 519.947 429.021 475.039C422.77 430.13 472.78 387.521 472.78 387.521C472.78 387.521 579.434 589.118 592.631 595.704C592.895 595.848 593.158 596.016 593.374 596.231Z" fill="#A0505A"/>
<path d="M498.02 434.681C494.283 454.68 481.158 495.182 467.578 534.366C447.459 512.69 431.22 490.823 429.016 475.015C425.041 446.561 443.698 418.993 457.878 402.659C463.075 398.491 468.679 394.659 474.739 391.234C478.451 398.204 487.05 414.347 498.02 434.681Z" fill="#73325A"/>
<path d="M660.384 613.499L616.53 641.642L603.812 639.726L592.1 647.151L595.884 654.911L576.603 667.294C551.048 644.037 554.664 613.787 554.664 613.787L584.507 621.619L592.339 595.967C592.339 595.967 619.141 603.799 638.924 603.129C658.756 602.458 660.384 613.499 660.384 613.499Z" fill="white" stroke="#FE5244" stroke-width="1.43707" stroke-miterlimit="10"/>
<path d="M610.54 599.392C610.54 599.392 608.696 579.896 604.073 581.118C599.451 582.363 605.247 601.811 610.444 599.68C615.642 597.548 620.839 583.728 620.839 583.728" stroke="#FE5244" stroke-width="1.43707" stroke-miterlimit="10"/>
<path d="M559.242 641.618L588.63 642.073L603.216 633.355L617.06 635.583L658.567 609.667" stroke="#FE5244" stroke-width="1.43707" stroke-miterlimit="10"/>
<path d="M604.457 598.29L601.727 611.008" stroke="#FE5244" stroke-width="1.43707" stroke-miterlimit="10"/>
<path d="M610.395 599.727L607.664 612.445" stroke="#FE5244" stroke-width="1.43707" stroke-miterlimit="10"/>
<path d="M616.598 600.757L613.867 613.475" stroke="#FE5244" stroke-width="1.43707" stroke-miterlimit="10"/>
<path d="M462.647 377.726C462.647 377.726 480.203 385.917 480.203 415.952C480.203 444.981 413.188 622.746 413.188 622.746L392.566 640.23L371.633 617.309C381.86 607.585 352.496 431.784 462.647 377.726Z" fill="#A0505A"/>
<path d="M460.779 674.288L408.662 674.336L398.985 665.857L385.118 665.785L384.112 674.36L363.682 674.384C352.568 639.798 371.729 617.284 371.729 617.284L392.519 640.181L413.284 622.721C413.284 622.721 431.295 643.846 448.301 653.953C465.354 664.085 460.779 674.288 460.779 674.288Z" fill="white" stroke="#FE5244" stroke-width="1.43707" stroke-miterlimit="10"/>
<path d="M425.166 635.032C425.166 635.032 445.621 621.835 439.8 616.781C433.98 611.728 422.268 633.667 425.454 635.415C428.639 637.164 450.698 630.529 450.698 630.529" stroke="#FE5244" stroke-width="1.43707" stroke-miterlimit="10"/>
<path d="M360.926 643.798L385.38 659.222H402.361L413.115 668.252H461.185" stroke="#FE5244" stroke-width="1.43707" stroke-miterlimit="10"/>
<path d="M420.611 630.05L411.414 639.247" stroke="#FE5244" stroke-width="1.43707" stroke-miterlimit="10"/>
<path d="M424.826 634.482L415.629 643.679" stroke="#FE5244" stroke-width="1.43707" stroke-miterlimit="10"/>
<path d="M429.478 638.696L420.281 647.894" stroke="#FE5244" stroke-width="1.43707" stroke-miterlimit="10"/>
<path d="M462.65 377.727C421.238 398.037 399.539 435.593 388.066 475.04H262.395C230.228 475.04 206.253 445.365 213.032 413.917L222.253 371.092H440.759C448.854 371.092 456.375 373.535 462.65 377.727Z" fill="#FE5244"/>
<path d="M369.34 418.778L414.583 418.682L407.877 429.676L369.34 418.778Z" fill="#A0505A"/>
<path d="M462.892 377.486C442.294 387.594 426.582 401.964 414.558 418.706H299.905C279.235 418.706 263.81 399.713 268.026 379.474L269.774 371.091" stroke="white" stroke-width="1.43707" stroke-miterlimit="10" stroke-linecap="round"/>
<path d="M388.237 475.016C392.812 459.28 398.991 443.831 407.398 429.676L369.34 418.754" stroke="white" stroke-width="1.43707" stroke-miterlimit="10" stroke-linecap="round"/>
<path d="M192.886 256.055L215.903 346.35H172.959C147.954 346.35 131.859 319.789 143.451 297.634L176.432 234.571C185.773 216.727 204.239 205.542 224.382 205.542H232.166C205.724 205.518 186.347 230.427 192.886 256.055Z" fill="#3FB1B5"/>
<path d="M457.93 232.632C471.463 232.632 482.72 230.835 485.45 228.321L443.464 319.335C435.871 335.813 419.369 346.351 401.238 346.351C395.921 346.351 390.699 345.441 385.766 343.693C380.832 341.944 376.185 339.382 372.042 336.029L345.576 314.664C345.576 314.664 342.941 330.161 324.139 334.112V371.045H222.228L192.887 256.032C186.349 230.404 205.725 205.471 232.167 205.471H303.518C309.817 205.471 316.02 206.262 322.008 207.794C338.39 211.962 353.096 221.59 363.491 235.386L398.364 281.66L429.692 226.907C429.692 226.955 429.668 227.027 429.668 227.075C429.692 230.261 442.362 232.632 457.93 232.632Z" fill="#3FB1B5"/>
<path d="M192.648 256.056L215.186 347.07" stroke="white" stroke-width="1.43707" stroke-miterlimit="10" stroke-linecap="round"/>
<path d="M345.816 315.886L325.793 294.57" stroke="white" stroke-width="1.43707" stroke-miterlimit="10" stroke-linecap="round"/>
<path d="M486.072 226.979L485.449 228.32C482.719 230.859 471.462 232.632 457.93 232.632C442.362 232.632 429.691 230.26 429.691 227.123C429.691 227.075 429.691 227.003 429.715 226.955C430.146 223.889 442.649 221.255 457.954 221.255C473.234 221.255 485.641 223.889 486.072 226.979C486.072 226.955 486.072 226.955 486.072 226.979Z" fill="#FE5244"/>
<path d="M498.614 180.991C498.614 182.357 498.278 183.698 497.655 184.871C497.033 186.045 496.123 187.075 494.997 187.865L494.446 188.249L490.159 211.122C489.464 214.834 487.261 218.116 484.075 220.151L478.207 223.888L473.561 226.858L471.405 232.007C467.405 232.414 462.831 232.654 457.945 232.654C453.011 232.654 448.364 232.414 444.316 231.983V196.512C444.316 194.979 444.652 193.47 445.298 192.081L453.106 175.267C453.106 175.267 461.633 177.375 457.705 187.841C454.136 197.35 462.28 194.907 466.854 193.206C470.95 191.674 488.842 182.572 495.835 179.243C497.129 178.62 498.614 179.578 498.614 180.991Z" fill="#A0505A"/>
<path d="M491.145 202.426C490.45 206.139 488.247 209.396 485.061 211.432L474.547 218.138" stroke="#73325A" stroke-width="1.19755" stroke-miterlimit="10" stroke-linecap="round"/>
<path d="M492.868 192.726C492.173 196.438 489.97 199.696 486.784 201.732L476.27 208.438" stroke="#73325A" stroke-width="1.19755" stroke-miterlimit="10" stroke-linecap="round"/>
<path d="M493.683 188.511L476.773 199.241" stroke="#73325A" stroke-width="1.19755" stroke-miterlimit="10" stroke-linecap="round"/>
<path d="M479.122 223.288L478.188 223.887L473.541 226.857L471.386 232.006C467.386 232.414 462.811 232.653 457.925 232.653C452.991 232.653 448.345 232.414 444.297 231.983V222.019C448.345 221.54 452.991 221.276 457.925 221.276C466.38 221.252 473.948 222.043 479.122 223.288Z" fill="#73325A"/>
<path d="M319.777 207.24C316.304 211.911 303.37 222.904 259.827 222.904C203.805 222.904 239.66 205.564 239.66 205.564L263.42 165.877L288.904 181.517V194.091C288.904 200.438 294.053 205.564 300.376 205.564H302.029C307.969 205.54 314.1 205.803 319.777 207.24Z" fill="#A0505A"/>
<path d="M288.876 181.495V184.704L239.633 205.542L263.392 165.855L288.876 181.495Z" fill="#73325A"/>
<path d="M290.219 183.052H295.632C300.614 183.052 304.662 179.004 304.662 174.022V143.868H272.352V165.184C272.352 175.052 280.351 183.052 290.219 183.052Z" fill="#A0505A"/>
<path d="M303.968 172.275C300.495 172.275 299.105 169.879 299.105 169.879" stroke="#73325A" stroke-width="1.19755" stroke-miterlimit="10" stroke-linecap="round"/>
<path d="M300.833 162.622C301.468 162.622 301.983 161.625 301.983 160.394C301.983 159.164 301.468 158.167 300.833 158.167C300.198 158.167 299.684 159.164 299.684 160.394C299.684 161.625 300.198 162.622 300.833 162.622Z" fill="#73325A"/>
<path d="M278.506 147.005C278.506 147.005 305.164 163.1 313.834 149.089C321.451 136.802 287.703 130.479 275.92 130.431C263.106 130.383 246.124 136.059 246.412 154.909C246.651 170.429 247.298 193.135 238.101 189.183C205.384 175.148 176.307 189.806 176.211 217.733C176.115 245.66 208.521 248.27 209.335 241.061C210.174 233.876 189.217 235.528 192.043 254.186C194.845 272.844 207.348 296.173 235.897 296.173C270.387 296.196 292.35 250.785 271.01 246.163C254.651 242.618 287.679 274.185 297.475 241.372C308.014 206.045 269.932 194.476 268.998 173.136C268.064 151.795 278.506 147.005 278.506 147.005Z" fill="#FFCF2D" stroke="white" stroke-width="1.19755" stroke-miterlimit="10"/>
<path d="M276.637 159.818H295.702" stroke="#FE5244" stroke-width="1.43707" stroke-miterlimit="10"/>
<path d="M301.569 167.483C304.559 167.483 306.982 164.374 306.982 160.538C306.982 156.702 304.559 153.592 301.569 153.592C298.58 153.592 296.156 156.702 296.156 160.538C296.156 164.374 298.58 167.483 301.569 167.483Z" stroke="#FE5244" stroke-width="1.43707" stroke-miterlimit="10"/>
<path d="M266.535 151.269V131.102C266.535 128.084 268.978 125.617 272.02 125.617H278.008C281.026 125.617 283.493 128.06 283.493 131.102" stroke="#66B0F0" stroke-width="1.43707" stroke-miterlimit="10"/>
<path d="M272.307 173.472H260.786C257.84 173.472 255.445 171.077 255.445 168.131V156.61C255.445 153.664 257.84 151.269 260.786 151.269H272.307C275.253 151.269 277.648 153.664 277.648 156.61V168.131C277.624 171.077 275.253 173.472 272.307 173.472Z" fill="white" stroke="#66B0F0" stroke-width="1.43707" stroke-miterlimit="10"/>
<path d="M269.309 169.663H263.68C261.261 169.663 259.273 167.699 259.273 165.256V159.627C259.273 157.208 261.237 155.22 263.68 155.22H269.309C271.728 155.22 273.716 157.184 273.716 159.627V165.256C273.716 167.699 271.752 169.663 269.309 169.663Z" fill="white" stroke="#66B0F0" stroke-width="1.43707" stroke-miterlimit="10"/>
<path d="M271.535 155.796L261.523 169.113" stroke="#66B0F0" stroke-width="1.43707" stroke-miterlimit="10"/>
<path d="M268.233 155.34L259.562 166.837" stroke="#66B0F0" stroke-width="1.43707" stroke-miterlimit="10"/>
<path d="M273.479 158.168L264.809 169.664" stroke="#66B0F0" stroke-width="1.43707" stroke-miterlimit="10"/>
<path d="M273.718 162.455L268.281 169.664" stroke="#66B0F0" stroke-width="1.43707" stroke-miterlimit="10"/>
<path d="M264.714 155.34L259.301 162.502" stroke="#66B0F0" stroke-width="1.43707" stroke-miterlimit="10"/>
<path d="M258.007 488.666V501.863C258.007 508.234 252.834 513.407 246.463 513.407H216.859" stroke="#66B0F0" stroke-width="1.43707" stroke-miterlimit="10"/>
<path d="M269.051 488.81V609.882" stroke="#66B0F0" stroke-width="1.43707" stroke-miterlimit="10"/>
<path d="M215.445 648.709C215.445 627.272 236.738 609.884 262.988 609.884H274.916C301.166 609.884 322.459 627.272 322.459 648.709" stroke="#66B0F0" stroke-width="1.43707" stroke-miterlimit="10"/>
<path d="M384.227 490.653H210.342C201.624 490.653 194.582 483.587 194.582 474.893H388.346L384.227 490.653Z" fill="#FFCF2D"/>
<path d="M214.392 674.384C221.483 674.384 227.23 668.636 227.23 661.546C227.23 654.456 221.483 648.708 214.392 648.708C207.302 648.708 201.555 654.456 201.555 661.546C201.555 668.636 207.302 674.384 214.392 674.384Z" fill="#FFCF2D"/>
<path d="M207.855 516.689H233.626C235.734 516.689 237.435 514.988 237.435 512.88V512.593C237.435 510.485 235.734 508.785 233.626 508.785H207.855C205.747 508.785 204.047 510.485 204.047 512.593V512.88C204.047 514.988 205.747 516.689 207.855 516.689Z" fill="#FFCF2D"/>
<path d="M194.585 475.373H317.957L276.69 359.737C273.816 351.713 266.223 346.348 257.696 346.348H166.994C157.988 346.348 151.713 355.258 154.731 363.737L194.585 475.373Z" stroke="#FFCF2D" stroke-width="1.43707" stroke-miterlimit="10"/>
<path d="M200.691 475.373H307.944L268.066 363.569C265.287 355.809 257.958 350.636 249.719 350.636H157.891" stroke="#FFCF2D" stroke-width="1.43707" stroke-miterlimit="10"/>
<path d="M322.244 674.384C329.334 674.384 335.082 668.636 335.082 661.546C335.082 654.456 329.334 648.708 322.244 648.708C315.154 648.708 309.406 654.456 309.406 661.546C309.406 668.636 315.154 674.384 322.244 674.384Z" fill="#FFCF2D"/>
</svg>
