<svg width="800" height="800" viewBox="0 0 800 800" fill="none" xmlns="http://www.w3.org/2000/svg">
<path d="M503.201 642.239H296.129L336.225 553.629L342.096 540.614H457.234L473.405 576.335L503.201 642.239Z" fill="white" stroke="#66B0F0" stroke-width="3.32289" stroke-miterlimit="10"/>
<path d="M473.403 576.334L336.223 553.628L342.093 540.613H457.231L473.403 576.334Z" fill="#66B0F0"/>
<path d="M643.709 540.613H156.296C138.408 540.613 123.953 526.103 123.953 508.27V190.103C123.953 172.215 138.463 157.76 156.296 157.76H643.709C661.597 157.76 676.052 172.27 676.052 190.103V508.215C676.052 526.103 661.542 540.613 643.709 540.613Z" fill="white" stroke="#66B0F0" stroke-width="3.32289" stroke-miterlimit="10"/>
<path d="M497.668 518.13H302.282C292.757 518.13 285.059 510.432 285.059 500.907V477.259C285.059 467.733 292.757 460.035 302.282 460.035H497.668C507.194 460.035 514.892 467.733 514.892 477.259V500.907C514.892 510.432 507.139 518.13 497.668 518.13Z" fill="#66B0F0"/>
<path d="M446.384 502.346H433.203C429.936 502.346 427.277 499.688 427.277 496.421V486.12C427.277 482.852 429.936 480.194 433.203 480.194H446.384C449.651 480.194 452.31 482.852 452.31 486.12V496.421C452.31 499.688 449.651 502.346 446.384 502.346Z" fill="white"/>
<path d="M463.162 500.631L458.289 497.53C456.96 496.699 456.129 495.204 456.129 493.598V488.946C456.129 487.34 456.96 485.844 458.289 485.014L463.162 481.912C464.325 481.192 465.821 482.023 465.821 483.352V499.136C465.876 500.52 464.325 501.351 463.162 500.631Z" fill="white"/>
<path d="M396.434 497.145H395.215C390.397 497.145 386.465 493.213 386.465 488.394V483.244C386.465 482.801 386.853 482.413 387.296 482.413H404.298C404.741 482.413 405.128 482.801 405.128 483.244V488.394C405.184 493.213 401.252 497.145 396.434 497.145ZM388.126 484.075V488.394C388.126 492.271 391.283 495.483 395.215 495.483H396.434C400.31 495.483 403.522 492.326 403.522 488.394V484.075H388.126Z" fill="white"/>
<path d="M395.823 506.725C395.38 506.725 394.992 506.337 394.992 505.894V499.636C394.992 499.193 395.38 498.805 395.823 498.805C396.266 498.805 396.654 499.193 396.654 499.636V505.894C396.654 506.337 396.266 506.725 395.823 506.725Z" fill="white"/>
<path d="M400.202 506.724H391.507C391.063 506.724 390.676 506.336 390.676 505.893C390.676 505.45 391.063 505.062 391.507 505.062H400.202C400.645 505.062 401.032 505.45 401.032 505.893C401.032 506.336 400.645 506.724 400.202 506.724Z" fill="white"/>
<path d="M396.209 493.267H395.434C392.664 493.267 390.449 491.052 390.449 488.283V478.204C390.449 475.434 392.664 473.219 395.434 473.219H396.209C398.978 473.219 401.193 475.434 401.193 478.204V488.283C401.193 491.052 398.978 493.267 396.209 493.267Z" fill="white"/>
<path d="M345.26 487.002L345.204 487.058C344.152 488.331 344.484 490.27 345.869 491.433L350.964 495.531C352.348 496.639 354.342 496.528 355.394 495.254L355.45 495.199C356.502 493.925 358.496 493.87 359.825 495.033L364.422 499.186C365.862 500.515 365.862 502.731 364.422 503.727C359.604 507.106 353.345 505.887 348.195 501.734L340.441 495.476C335.291 491.267 332.799 485.396 335.069 479.969C335.789 478.307 337.949 477.864 339.5 479.027L344.54 482.683C345.924 483.79 346.256 485.729 345.26 487.002Z" fill="white"/>
<path d="M358.768 490.217C358.325 490.217 357.992 489.884 357.937 489.441C357.66 485.454 354.226 482.408 350.239 482.685C349.796 482.685 349.408 482.352 349.353 481.909C349.298 481.466 349.685 481.079 350.128 481.023C355.057 480.691 359.266 484.457 359.599 489.331C359.654 489.774 359.322 490.161 358.768 490.217C358.823 490.217 358.823 490.217 358.768 490.217Z" fill="white"/>
<path d="M363.975 489.385C363.532 489.385 363.2 489.053 363.145 488.61C362.923 485.287 361.428 482.186 358.88 479.971C356.333 477.755 353.121 476.648 349.798 476.869C349.355 476.869 348.967 476.537 348.912 476.094C348.856 475.651 349.244 475.263 349.687 475.208C353.453 474.986 357.108 476.205 359.988 478.697C362.868 481.189 364.529 484.678 364.806 488.444C364.861 488.998 364.474 489.385 363.975 489.385C364.031 489.385 364.031 489.385 363.975 489.385Z" fill="white"/>
<path d="M551.279 187.722C554.46 187.722 557.039 185.143 557.039 181.962C557.039 178.781 554.46 176.203 551.279 176.203C548.098 176.203 545.52 178.781 545.52 181.962C545.52 185.143 548.098 187.722 551.279 187.722Z" stroke="#FFCF2D" stroke-width="2.76908" stroke-miterlimit="10"/>
<path d="M574.814 187.724C577.995 187.724 580.574 185.146 580.574 181.965C580.574 178.784 577.995 176.205 574.814 176.205C571.633 176.205 569.055 178.784 569.055 181.965C569.055 185.146 571.633 187.724 574.814 187.724Z" stroke="#FFCF2D" stroke-width="2.76908" stroke-miterlimit="10"/>
<path d="M598.408 187.724C601.589 187.724 604.168 185.146 604.168 181.965C604.168 178.784 601.589 176.205 598.408 176.205C595.227 176.205 592.648 178.784 592.648 181.965C592.648 185.146 595.227 187.724 598.408 187.724Z" stroke="#FFCF2D" stroke-width="2.76908" stroke-miterlimit="10"/>
<path d="M379.483 445.857H205.917C200.6 445.857 196.336 441.537 196.336 436.276V343.346C196.336 338.029 200.656 333.765 205.917 333.765H379.483C384.799 333.765 389.064 338.084 389.064 343.346V436.276C389.064 441.537 384.799 445.857 379.483 445.857Z" stroke="#66B0F0" stroke-width="3.32289" stroke-miterlimit="10"/>
<path d="M598.405 445.857H424.839C419.522 445.857 415.258 441.537 415.258 436.276V343.346C415.258 338.029 419.578 333.765 424.839 333.765H598.405C603.721 333.765 607.986 338.084 607.986 343.346V436.276C607.986 441.537 603.721 445.857 598.405 445.857Z" fill="#3FB1B5"/>
<path d="M565.617 445.578H452.195C463.659 431.456 481.16 422.374 500.765 422.374H517.047C536.652 422.429 554.153 431.456 565.617 445.578Z" fill="#FE5244"/>
<path d="M505.363 422.428C504.255 430.791 497.111 437.215 488.471 437.215C482.102 437.215 476.564 433.726 473.629 428.576C481.825 424.643 491.019 422.428 500.711 422.428H505.363Z" fill="white"/>
<path d="M538.872 426.306C536.38 432.675 530.232 437.16 522.977 437.16C514.338 437.16 507.194 430.736 506.086 422.374H517.107C524.749 422.429 532.06 423.758 538.872 426.306Z" fill="white"/>
<path d="M526.407 397.727V422.87C526.407 426.802 518.543 429.959 508.907 429.959C507.135 429.959 505.418 429.848 503.812 429.682C496.612 428.796 491.406 426.082 491.406 422.87V397.727H526.407Z" fill="#A0505A"/>
<path d="M524.081 402.879C524.081 413.789 514.556 427.026 503.812 429.629C496.612 428.742 491.406 426.029 491.406 422.817V397.673H523.528L524.081 402.879Z" fill="#73325A"/>
<path d="M535.376 394.515V395.125C535.376 399.389 531.887 402.878 527.623 402.878H520.202C516.824 410.133 509.458 415.117 500.929 415.117H499.489C489.964 415.117 482.266 407.419 482.266 397.894V380.116C493.287 380.836 507.298 371.2 507.298 371.2C511.895 388.977 525.02 388.756 531.112 387.593C533.604 388.866 535.376 391.525 535.376 394.515Z" fill="#A0505A"/>
<path d="M524.467 397.233C524.024 397.233 523.637 396.845 523.637 396.402C523.637 392.858 526.517 389.978 530.061 389.978C530.504 389.978 530.892 390.366 530.892 390.809C530.892 391.252 530.504 391.639 530.061 391.639C527.458 391.639 525.298 393.744 525.298 396.402C525.298 396.845 524.91 397.233 524.467 397.233Z" fill="#73325A"/>
<path d="M526.407 402.879H527.625C531.89 402.879 535.379 399.39 535.379 395.126V394.516C535.379 391.47 533.662 388.867 531.114 387.594C529.453 387.926 527.182 388.148 524.745 387.981C518.432 387.483 510.623 384.049 507.3 371.201C507.3 371.201 493.289 380.837 482.268 380.117C480.219 380.006 478.28 379.508 476.563 378.511C467.425 373.305 489.523 348.937 514.887 352.593C535.157 355.528 534.714 379.785 534.326 385.545C535.323 385.434 536.32 385.378 537.317 385.378C552.159 385.378 564.177 396.787 564.177 410.909C564.177 420.103 559.082 428.188 551.384 432.674C544.018 427.801 535.545 424.478 526.407 423.093V402.879Z" fill="#FFCF2D"/>
<path d="M493.453 397.84C493.343 397.84 493.232 397.84 493.177 397.785C492.734 397.618 492.512 397.12 492.678 396.732C492.678 396.677 494.34 392.191 491.571 387.373C489.189 383.219 483.928 383.939 483.706 383.995C483.263 384.05 482.82 383.773 482.765 383.275C482.709 382.831 482.986 382.388 483.485 382.333C483.762 382.278 490.075 381.392 493.066 386.542C496.223 392.025 494.34 397.12 494.284 397.286C494.063 397.618 493.786 397.84 493.453 397.84Z" fill="#73325A"/>
<path d="M512.34 387.32C512.174 387.32 512.008 387.264 511.842 387.154C507.023 383.443 500.599 383.886 500.544 383.886C500.101 383.941 499.713 383.554 499.658 383.111C499.602 382.668 499.99 382.28 500.433 382.225C500.71 382.225 507.522 381.726 512.838 385.824C513.226 386.101 513.282 386.6 513.005 386.988C512.783 387.209 512.562 387.32 512.34 387.32Z" fill="#73325A"/>
<path d="M490.574 399.722C490.574 399.722 491.903 408.472 500.931 399.943C500.931 399.943 494.617 400.774 490.574 399.722Z" fill="white"/>
<path d="M504.475 392.357C505.118 392.357 505.638 391.191 505.638 389.754C505.638 388.316 505.118 387.151 504.475 387.151C503.833 387.151 503.312 388.316 503.312 389.754C503.312 391.191 503.833 392.357 504.475 392.357Z" fill="#73325A"/>
<path d="M487.196 391.913C487.747 391.913 488.193 390.946 488.193 389.753C488.193 388.56 487.747 387.593 487.196 387.593C486.646 387.593 486.199 388.56 486.199 389.753C486.199 390.946 486.646 391.913 487.196 391.913Z" fill="#73325A"/>
<path d="M596.248 318.866H422.683C417.366 318.866 413.102 314.546 413.102 309.285V216.354C413.102 211.038 417.421 206.773 422.683 206.773H596.248C601.565 206.773 605.829 211.093 605.829 216.354V309.285C605.829 314.546 601.51 318.866 596.248 318.866Z" fill="#66B0F0"/>
<path d="M560.918 318.865H454.973C465.661 304.632 481.999 295.55 500.33 295.55H515.56C533.891 295.55 550.229 304.632 560.918 318.865Z" fill="#FFCF2D"/>
<path d="M502.319 314.103H504.7C515.057 314.103 523.475 305.685 523.475 295.329V281.982C523.475 281.926 523.419 281.871 523.364 281.871H488.529C488.473 281.871 488.418 281.926 488.418 281.982V300.313C488.473 307.956 494.676 314.103 502.319 314.103Z" fill="white"/>
<path d="M488.477 281.871V299.87C488.477 300.092 488.477 300.369 488.477 300.59C488.975 310.891 514.617 306.848 522.315 281.871H488.477Z" fill="#FFCF2D"/>
<path d="M533.614 273.84C533.614 276.055 532.728 278.049 531.233 279.544C529.793 280.984 527.799 281.87 525.529 281.87H517.941C515.228 289.07 508.25 294.165 500.109 294.165H494.183C485.931 294.165 479.285 287.463 479.285 279.267V256.007C487.814 256.727 495.014 249.859 495.291 249.583C495.18 249.97 490.86 262.154 500.662 262.819C510.41 263.483 513.622 256.45 513.733 256.173C513.733 256.45 513.788 265.865 521.486 266.363H525.529C530.015 266.363 533.614 269.409 533.614 273.84Z" fill="white"/>
<path d="M522.204 266.364H522.038C521.872 266.364 521.706 266.364 521.54 266.364C513.842 265.866 513.787 256.506 513.787 256.174C513.676 256.451 510.408 263.484 500.717 262.82C490.969 262.155 495.234 249.971 495.344 249.584C495.068 249.805 487.868 256.728 479.339 256.008C477.456 255.842 475.573 255.343 473.635 254.291C461.174 247.534 469.204 233.634 481.444 233.467C491.191 233.357 495.344 238.673 495.344 238.673C495.344 238.673 497.449 227.763 509.411 229.646C521.374 231.529 519.214 242.107 519.214 242.107C519.214 242.107 529.238 237.455 534.776 246.039C541.311 256.119 531.509 266.364 522.204 266.364Z" fill="#FE5244"/>
<path d="M489.476 276.501C489.42 276.501 489.365 276.501 489.254 276.501C488.811 276.39 488.534 275.947 488.645 275.504C488.645 275.449 489.974 269.966 487.593 265.48C484.99 260.717 480.504 261.493 480.338 261.493C479.895 261.548 479.452 261.271 479.396 260.828C479.286 260.385 479.618 259.942 480.061 259.887C480.116 259.887 485.931 258.835 489.088 264.705C491.802 269.745 490.362 275.671 490.307 275.892C490.14 276.224 489.808 276.501 489.476 276.501Z" fill="#FFCF2D"/>
<path d="M492.405 282.926C491.242 282.926 490.19 282.76 489.415 282.539C488.972 282.428 488.695 281.985 488.806 281.542C488.916 281.099 489.359 280.822 489.802 280.933C490.079 280.988 496.393 282.65 498.719 277.776C498.94 277.388 499.383 277.167 499.827 277.388C500.27 277.61 500.436 278.053 500.214 278.496C498.608 281.985 495.23 282.926 492.405 282.926Z" fill="#FFCF2D"/>
<path d="M500.44 269.852C501.083 269.852 501.603 268.687 501.603 267.249C501.603 265.812 501.083 264.646 500.44 264.646C499.798 264.646 499.277 265.812 499.277 267.249C499.277 268.687 499.798 269.852 500.44 269.852Z" fill="#FFCF2D"/>
<path d="M483.216 269.41C483.766 269.41 484.213 268.443 484.213 267.25C484.213 266.057 483.766 265.09 483.216 265.09C482.665 265.09 482.219 266.057 482.219 267.25C482.219 268.443 482.665 269.41 483.216 269.41Z" fill="#FFCF2D"/>
<path d="M521.374 276.887C520.931 276.887 520.543 276.5 520.543 276.057C520.543 272.512 523.423 269.632 526.967 269.632C527.41 269.632 527.798 270.02 527.798 270.463C527.798 270.906 527.41 271.294 526.967 271.294C524.364 271.294 522.204 273.398 522.204 276.057C522.204 276.5 521.817 276.887 521.374 276.887Z" fill="#FFCF2D"/>
<path d="M377.272 318.866H203.706C198.389 318.866 194.125 314.546 194.125 309.285V216.354C194.125 211.038 198.445 206.773 203.706 206.773H377.272C382.588 206.773 386.853 211.093 386.853 216.354V309.285C386.908 314.546 382.588 318.866 377.272 318.866Z" fill="#FFCF2D"/>
<path d="M335.349 318.862H227.688C238.542 302.635 255.157 292.279 273.765 292.279H289.272C307.88 292.279 324.439 302.635 335.349 318.862Z" fill="white"/>
<path d="M335.349 318.863H227.688C228.02 318.365 228.352 317.922 228.684 317.423C228.74 317.313 228.795 317.202 228.906 317.146H334.186C334.241 317.257 334.297 317.313 334.408 317.423C334.685 317.866 335.017 318.365 335.349 318.863Z" fill="#FEB040"/>
<path d="M330.81 312.827H232.23C232.729 312.218 233.227 311.664 233.726 311.11H329.314C329.813 311.664 330.311 312.218 330.81 312.827Z" fill="#FEB040"/>
<path d="M324.715 306.512H238.32C238.985 305.903 239.649 305.349 240.314 304.795H322.722C323.386 305.349 324.051 305.903 324.715 306.512Z" fill="#FEB040"/>
<path d="M315.413 299.591H247.57C248.567 298.982 249.619 298.428 250.672 297.874H312.256C313.364 298.428 314.36 298.982 315.413 299.591Z" fill="#FEB040"/>
<path d="M298.689 271.568V296.324C298.689 298.871 290.824 300.921 281.188 300.921C271.773 300.921 264.075 298.982 263.688 296.49C263.688 296.435 263.688 296.379 263.688 296.324V271.568H298.689Z" fill="#E57281"/>
<path d="M298.47 271.568V272.121C298.47 284.305 283.351 298.261 272.441 299.868C270.724 300.144 265.408 299.092 263.746 296.434C263.746 296.379 263.746 296.323 263.746 296.268V271.512H298.47V271.568Z" fill="#9A3B82"/>
<path d="M308.212 263.759V264.313C308.212 268.578 304.722 272.067 300.458 272.067H293.757C291.597 279.82 284.508 285.469 276.09 285.469H268.946C261.027 285.469 254.547 279.045 254.547 271.07V239.558C267.838 243.268 291.597 239.779 291.597 239.779C291.597 239.779 289.437 247.533 293.535 255.951H300.514C304.723 256.006 308.212 259.495 308.212 263.759Z" fill="#E57281"/>
<path d="M300.183 255.008H293.869C288.497 245.926 291.543 239.889 291.543 239.889C291.543 239.889 267.785 243.323 254.493 239.667C248.456 238.006 244.58 234.849 246.02 229.256C250.616 211.312 300.127 230.419 303.561 236.898C307.05 243.378 300.183 255.008 300.183 255.008Z" fill="white" stroke="#FEB040" stroke-width="2.21526" stroke-miterlimit="10"/>
<path d="M275.6 272.008C275.434 272.174 275.268 272.229 275.046 272.229C274.824 272.229 274.603 272.118 274.437 271.952L273.661 271.122C271.28 273.226 269.009 274.278 266.905 274.278C266.683 274.278 266.462 274.278 266.296 274.223C263.97 274.001 262.807 272.451 262.751 272.395C262.474 272.008 262.53 271.509 262.917 271.232C263.305 270.955 263.804 271.011 264.08 271.399C264.136 271.454 264.911 272.451 266.517 272.617C268.289 272.783 270.339 271.842 272.554 269.903L272.111 269.405C271.778 269.073 271.834 268.519 272.166 268.242C272.498 267.91 273.052 267.965 273.329 268.297L275.655 270.845C275.987 271.177 275.932 271.675 275.6 272.008Z" fill="#9A3B82"/>
<path d="M284.01 255.505C283.788 255.505 283.567 255.45 283.401 255.284C278.527 250.521 272.324 251.462 272.269 251.462C271.826 251.518 271.383 251.241 271.327 250.798C271.272 250.355 271.549 249.912 271.992 249.856C272.269 249.801 279.081 248.693 284.564 254.121C284.896 254.453 284.896 254.951 284.564 255.284C284.453 255.45 284.231 255.505 284.01 255.505Z" fill="#9A3B82"/>
<path d="M265.126 267.133C265.071 267.133 264.96 267.133 264.905 267.078C264.462 266.967 264.24 266.469 264.351 266.026C264.351 265.97 266.068 260.321 263.299 255.503C260.917 251.349 255.545 252.623 255.49 252.679C255.047 252.789 254.604 252.512 254.493 252.069C254.382 251.626 254.659 251.183 255.102 251.072C257.373 250.519 262.357 250.519 264.739 254.728C267.896 260.21 266.068 266.302 265.957 266.579C265.791 266.912 265.514 267.133 265.126 267.133Z" fill="#9A3B82"/>
<path d="M258.923 260.657C259.473 260.657 259.92 259.69 259.92 258.497C259.92 257.304 259.473 256.337 258.923 256.337C258.372 256.337 257.926 257.304 257.926 258.497C257.926 259.69 258.372 260.657 258.923 260.657Z" fill="#9A3B82"/>
<path d="M276.147 261.099C276.79 261.099 277.31 259.934 277.31 258.496C277.31 257.058 276.79 255.893 276.147 255.893C275.505 255.893 274.984 257.058 274.984 258.496C274.984 259.934 275.505 261.099 276.147 261.099Z" fill="#9A3B82"/>
<path d="M296.143 266.582C295.7 266.582 295.312 266.194 295.312 265.751C295.312 262.151 298.248 259.216 301.848 259.216C302.291 259.216 302.678 259.603 302.678 260.047C302.678 260.49 302.291 260.877 301.848 260.877C299.134 260.877 296.974 263.037 296.974 265.751C296.974 266.194 296.642 266.582 296.143 266.582Z" fill="#9A3B82"/>
</svg>
