<svg width="800" height="800" viewBox="0 0 800 800" fill="none" xmlns="http://www.w3.org/2000/svg">
<path d="M571.391 472.492H241.676V281.841C241.676 268.932 252.14 258.468 265.049 258.468H548.018C560.927 258.468 571.391 268.932 571.391 281.841V472.492Z" fill="white" stroke="#66B0F0" stroke-width="2.93384" stroke-miterlimit="10"/>
<path d="M546.505 460.07H267.937C260.602 460.07 254.637 454.105 254.637 446.77V283.355C254.637 276.021 260.602 270.055 267.937 270.055H546.505C553.84 270.055 559.805 276.021 559.805 283.355V446.819C559.805 454.154 553.84 460.07 546.505 460.07Z" fill="#66B0F0"/>
<path d="M629.19 517.232C641.806 525.447 638.872 541.534 623.958 541.534H174.787C162.22 541.534 157.917 524.567 170.24 516.792L629.19 517.232Z" fill="#66B0F0" stroke="#66B0F0" stroke-width="2.93384" stroke-miterlimit="10"/>
<path d="M623.957 530.337H174.786C166.767 530.337 163.589 520.9 170.239 516.793L241.775 472.492H570.464L629.14 517.233C635.008 521.682 631.585 530.337 623.957 530.337Z" fill="white" stroke="#66B0F0" stroke-width="2.93384" stroke-miterlimit="10"/>
<path d="M572.126 516.989H226.618C220.456 516.989 218.012 509.704 223.097 506.574L272.777 472.493H530.955L576.087 506.916C580.634 510.339 577.994 516.989 572.126 516.989Z" fill="white" stroke="#66B0F0" stroke-width="2.93384" stroke-miterlimit="10"/>
<path d="M508.605 472.491L553.787 516.988" stroke="#66B0F0" stroke-width="2.93384" stroke-miterlimit="10"/>
<path d="M484.645 472.491L524.447 516.988" stroke="#66B0F0" stroke-width="2.93384" stroke-miterlimit="10"/>
<path d="M462.254 472.491L496.775 516.988" stroke="#66B0F0" stroke-width="2.93384" stroke-miterlimit="10"/>
<path d="M437.215 472.491L466.407 516.988" stroke="#66B0F0" stroke-width="2.93384" stroke-miterlimit="10"/>
<path d="M416.434 472.491L430.663 516.988" stroke="#66B0F0" stroke-width="2.93384" stroke-miterlimit="10"/>
<path d="M293.755 472.491L248.574 516.988" stroke="#66B0F0" stroke-width="2.93384" stroke-miterlimit="10"/>
<path d="M317.713 472.491L277.91 516.988" stroke="#66B0F0" stroke-width="2.93384" stroke-miterlimit="10"/>
<path d="M340.111 472.491L305.59 516.988" stroke="#66B0F0" stroke-width="2.93384" stroke-miterlimit="10"/>
<path d="M365.145 472.491L335.953 516.988" stroke="#66B0F0" stroke-width="2.93384" stroke-miterlimit="10"/>
<path d="M385.924 472.491L371.695 516.988" stroke="#66B0F0" stroke-width="2.93384" stroke-miterlimit="10"/>
<path d="M400.008 517.526V472.491" stroke="#66B0F0" stroke-width="2.93384" stroke-miterlimit="10"/>
<path d="M248.57 489.118H552.81" stroke="#66B0F0" stroke-width="2.93384" stroke-miterlimit="10"/>
<path d="M523.329 460.072H275.957L280.407 428.533C283.145 409.121 297.081 393.18 315.906 387.801L376.197 375.284H423.089L483.38 387.801C502.254 393.131 516.19 409.121 518.879 428.533L523.329 460.072Z" fill="#FFCF2D"/>
<path d="M416.344 411.319L398.497 393.276C398.105 392.885 398.105 392.249 398.497 391.907C398.888 391.516 399.523 391.516 399.866 391.907L416.246 408.483L441.673 379.683C442.015 379.291 442.651 379.243 443.042 379.585C443.433 379.927 443.482 380.563 443.14 380.954L416.344 411.319Z" fill="white"/>
<path d="M383.194 411.319L356.398 380.954C356.056 380.563 356.056 379.927 356.496 379.585C356.887 379.243 357.523 379.243 357.865 379.683L383.292 408.483L399.672 391.907C400.063 391.516 400.65 391.516 401.041 391.907C401.432 392.298 401.432 392.885 401.041 393.276L383.194 411.319Z" fill="white"/>
<path d="M400.059 423.103C397.712 423.103 395.805 421.196 395.805 418.849C395.805 416.502 397.712 414.595 400.059 414.595C402.406 414.595 404.313 416.502 404.313 418.849C404.313 421.196 402.406 423.103 400.059 423.103ZM400.059 416.551C398.787 416.551 397.761 417.578 397.761 418.849C397.761 420.121 398.787 421.147 400.059 421.147C401.33 421.147 402.357 420.121 402.357 418.849C402.357 417.578 401.33 416.551 400.059 416.551Z" fill="white"/>
<path d="M400.059 447.064C397.712 447.064 395.805 445.157 395.805 442.81C395.805 440.463 397.712 438.556 400.059 438.556C402.406 438.556 404.313 440.463 404.313 442.81C404.313 445.157 402.406 447.064 400.059 447.064ZM400.059 440.512C398.787 440.512 397.761 441.538 397.761 442.81C397.761 444.081 398.787 445.108 400.059 445.108C401.33 445.108 402.357 444.081 402.357 442.81C402.357 441.538 401.33 440.512 400.059 440.512Z" fill="white"/>
<path d="M375.905 459.044H296.007L274.688 395.771L354.586 372.887L375.905 459.044Z" fill="white" stroke="#66B0F0" stroke-width="1.95589" stroke-miterlimit="10"/>
<path d="M300.164 403.986H298.649C294.786 403.986 291.656 400.856 291.656 396.994V375.039C291.656 373.474 292.928 372.203 294.492 372.203H301.093C302.658 372.203 303.929 373.474 303.929 375.039V400.172C303.978 402.275 302.267 403.986 300.164 403.986Z" fill="white"/>
<path d="M300.164 403.986H298.649C294.786 403.986 291.656 400.856 291.656 396.994V375.039C291.656 373.474 292.928 372.203 294.492 372.203H301.093C302.658 372.203 303.929 373.474 303.929 375.039V400.172C303.978 402.275 302.267 403.986 300.164 403.986Z" stroke="#66B0F0" stroke-width="1.95589" stroke-miterlimit="10" stroke-linecap="round"/>
<path d="M332.341 403.986H333.857C337.72 403.986 340.849 400.857 340.849 396.994V375.039C340.849 373.474 339.578 372.203 338.014 372.203H331.363C329.799 372.203 328.527 373.474 328.527 375.039V400.172C328.527 402.275 330.239 403.986 332.341 403.986Z" fill="white"/>
<path d="M312.44 406.529H308.919C306.181 406.529 303.98 404.328 303.98 401.59V375.088C303.98 373.523 305.252 372.251 306.817 372.251H313.418C314.982 372.251 316.254 373.523 316.254 375.088V402.715C316.254 404.817 314.542 406.529 312.44 406.529Z" fill="white"/>
<path d="M324.762 407.507H321.828C318.748 407.507 316.254 405.013 316.254 401.933V375.039C316.254 373.474 317.525 372.203 319.09 372.203H325.691C327.256 372.203 328.527 373.474 328.527 375.039V403.693C328.527 405.796 326.816 407.507 324.762 407.507Z" fill="white"/>
<path d="M332.341 403.986H333.857C337.72 403.986 340.849 400.857 340.849 396.994V375.039C340.849 373.474 339.578 372.203 338.014 372.203H331.363C329.799 372.203 328.527 373.474 328.527 375.039V400.172C328.527 402.275 330.239 403.986 332.341 403.986Z" stroke="#66B0F0" stroke-width="1.95589" stroke-miterlimit="10" stroke-linecap="round"/>
<path d="M312.44 406.529H308.919C306.181 406.529 303.98 404.328 303.98 401.59V375.088C303.98 373.523 305.252 372.251 306.817 372.251H313.418C314.982 372.251 316.254 373.523 316.254 375.088V402.715C316.254 404.817 314.542 406.529 312.44 406.529Z" stroke="#66B0F0" stroke-width="1.95589" stroke-miterlimit="10" stroke-linecap="round"/>
<path d="M324.762 407.507H321.828C318.748 407.507 316.254 405.013 316.254 401.933V375.039C316.254 373.474 317.525 372.203 319.09 372.203H325.691C327.256 372.203 328.527 373.474 328.527 375.039V403.693C328.527 405.796 326.816 407.507 324.762 407.507Z" stroke="#66B0F0" stroke-width="1.95589" stroke-miterlimit="10" stroke-linecap="round"/>
<path d="M423.137 346.531V382.226C423.137 388.387 412.624 393.424 399.666 393.424C386.708 393.424 376.195 388.387 376.195 382.226V346.531H423.137Z" fill="white"/>
<path d="M423.139 346.531C423.139 373.474 405.878 381.493 389.302 380.075C389.253 380.075 389.204 380.075 389.155 380.075C381.82 379.39 376.246 373.131 376.246 365.797V346.58H423.139V346.531Z" fill="#66B0F0"/>
<path d="M434.045 337.34V339.149C434.045 343.159 430.817 346.386 426.808 346.386H423.092L423.14 347.218C423.14 358.757 413.801 368.097 402.261 368.097H397.127C385.587 368.097 376.248 358.757 376.248 347.218L376.297 346.386H372.581C368.571 346.386 365.344 343.159 365.344 339.149V337.34C365.344 333.331 368.571 330.103 372.581 330.103H377.324L377.862 321.253C377.862 319.884 378.057 318.564 378.448 317.341C392.433 320.813 408.813 311.816 413.214 309.126C418.104 310.985 421.576 315.679 421.576 321.204L422.114 330.055H426.857C430.817 330.103 434.045 333.331 434.045 337.34Z" fill="white"/>
<path d="M427.149 330.102H422.064L421.526 321.252C421.526 315.726 418.054 311.032 413.164 309.174C408.764 311.815 392.383 320.812 378.398 317.389C378.007 318.611 377.812 319.932 377.812 321.301L377.274 330.151H374.095C374.095 330.151 367.592 298.661 373.998 292.891C378.741 288.637 422.161 297.928 426.953 304.529C429.643 308.294 427.149 330.102 427.149 330.102Z" fill="#E57281"/>
<path d="M414.926 328.192C414.779 328.192 414.583 328.143 414.437 327.997C414.388 327.948 411.209 325.356 406.124 325.356C405.733 325.356 405.391 325.014 405.391 324.623C405.391 324.231 405.733 323.889 406.124 323.889C411.747 323.889 415.219 326.725 415.366 326.872C415.659 327.116 415.708 327.605 415.464 327.899C415.366 328.094 415.121 328.192 414.926 328.192Z" fill="#66B0F0"/>
<path d="M396.344 343.352C396.246 343.352 396.149 343.352 396.1 343.303C395.709 343.156 395.513 342.716 395.66 342.374C397.029 338.756 396.686 334.208 394.779 330.199C393.655 327.754 392.041 325.993 390.623 325.504C387.494 324.429 383.093 325.945 383.044 325.945C382.653 326.091 382.262 325.896 382.115 325.504C381.968 325.113 382.164 324.722 382.555 324.575C382.751 324.527 387.445 322.913 391.063 324.135C392.873 324.771 394.731 326.776 396.051 329.612C398.105 333.964 398.447 338.951 396.98 342.961C396.931 343.156 396.638 343.352 396.344 343.352Z" fill="#66B0F0"/>
<path d="M405.978 351.126C406.027 351.518 405.685 351.86 405.293 351.909H405.245C404.853 351.909 404.56 351.615 404.511 351.224C404.462 350.735 404.364 350.246 404.218 349.806C402.115 350.833 400.208 351.175 398.643 351.175C395.563 351.175 393.705 349.904 393.607 349.806C393.265 349.562 393.216 349.122 393.411 348.779C393.656 348.437 394.096 348.388 394.438 348.584C394.536 348.633 396.101 349.708 398.643 349.708C400.012 349.708 401.675 349.415 403.582 348.486C403.289 347.997 402.995 347.704 402.995 347.704C402.702 347.41 402.751 346.921 403.044 346.677C403.338 346.432 403.826 346.432 404.071 346.726C404.169 346.872 405.831 348.73 405.978 351.126Z" fill="#66B0F0"/>
<path d="M408.618 337.153C409.292 337.111 409.77 335.984 409.686 334.637C409.602 333.289 408.988 332.231 408.314 332.273C407.64 332.315 407.162 333.441 407.246 334.789C407.33 336.137 407.944 337.195 408.618 337.153Z" fill="#66B0F0"/>
<path d="M388.656 336.956C389.276 336.917 389.716 335.881 389.639 334.641C389.562 333.401 388.996 332.427 388.376 332.466C387.756 332.504 387.317 333.541 387.394 334.781C387.471 336.021 388.036 336.994 388.656 336.956Z" fill="#66B0F0"/>
<path d="M374.978 339.684C374.587 339.684 374.245 339.342 374.245 338.95C374.245 336.799 372.484 335.088 370.382 335.088C369.991 335.088 369.648 334.745 369.648 334.354C369.648 333.963 369.991 333.621 370.382 333.621C373.316 333.621 375.712 336.017 375.712 338.95C375.712 339.39 375.369 339.684 374.978 339.684Z" fill="#66B0F0"/>
<path d="M424.167 339.684C423.776 339.684 423.434 339.342 423.434 338.95C423.434 336.017 425.83 333.621 428.763 333.621C429.155 333.621 429.497 333.963 429.497 334.354C429.497 334.745 429.155 335.088 428.763 335.088C426.612 335.088 424.901 336.848 424.901 338.95C424.901 339.39 424.607 339.684 424.167 339.684Z" fill="#66B0F0"/>
</svg>
