<svg width="800" height="800" viewBox="0 0 800 800" fill="none" xmlns="http://www.w3.org/2000/svg">
<path d="M411.257 179.557C411.257 176.914 411.135 174.352 410.932 171.952C408.451 170.854 392.794 163.33 388.849 149.788C388.849 149.788 376.974 173.823 359.323 171.057C359.283 171.057 359.242 171.057 359.201 171.017C359.201 171.017 359.201 171.017 359.161 171.017L354.891 168.821C354.809 168.78 354.769 168.739 354.687 168.739C349.848 166.421 344.276 169.431 343.3 174.474C342.161 171.301 341.348 167.926 340.86 164.388C337.728 140.719 350.783 120.913 372.459 120.913C392.224 120.913 411.216 139.499 414.226 159.141C415.446 166.584 414.185 173.538 411.257 179.557Z" fill="#FFCF2D"/>
<path d="M346.796 182.403C344.885 193.627 302.996 177.97 293.683 196.718C287.624 208.959 296.977 223.722 270.665 224.983C239.31 226.447 226.58 243.609 231.664 283.383L317.312 237.956L341.225 216.646L351.636 184.64L346.796 182.403Z" fill="#FFCF2D"/>
<path d="M395.593 208.838V219.981L369.117 236.005L341.219 216.687L351.63 184.681L395.593 208.838Z" fill="#E57281"/>
<path d="M356.434 187.202L369.122 236.004L395.597 219.981V208.838L356.434 187.202Z" fill="#9A3B82"/>
<path d="M411.253 179.802C411.253 197.981 399.581 212.744 385.185 212.744C373.391 212.744 362.939 202.862 359.523 189.278L347.607 183.178C346.265 182.487 345.167 181.47 344.394 180.209C343.622 178.989 343.215 177.525 343.215 176.02C343.215 170.001 349.559 166.138 354.927 168.863L359.36 171.099V171.059C377.01 173.784 388.886 149.789 388.886 149.789C392.83 163.332 408.488 170.815 410.969 171.953C411.172 174.434 411.253 177.037 411.253 179.802Z" fill="#E57281"/>
<path d="M411.17 176.02C411.17 176.02 404.622 173.296 400.596 177.363C395.594 182.405 396.692 196.883 396.692 196.883" stroke="#9A3B82" stroke-width="1.62674" stroke-miterlimit="10" stroke-linecap="round"/>
<path d="M387.664 175.168C387.664 175.168 382.255 174.761 376.887 177.608" stroke="#9A3B82" stroke-width="1.62674" stroke-miterlimit="10" stroke-linecap="round"/>
<path d="M355.658 179.194C355.211 176.509 353.259 174.313 350.656 173.5" stroke="#9A3B82" stroke-width="1.62674" stroke-miterlimit="10" stroke-linecap="round"/>
<path d="M385.887 184.967C386.345 183.276 385.891 181.681 384.872 181.405C383.853 181.129 382.655 182.276 382.197 183.967C381.739 185.658 382.193 187.253 383.212 187.529C384.231 187.805 385.429 186.658 385.887 184.967Z" fill="#9A3B82"/>
<path d="M405.82 185.78C406.279 184.089 405.824 182.494 404.805 182.218C403.786 181.942 402.589 183.089 402.131 184.78C401.672 186.47 402.127 188.065 403.146 188.341C404.165 188.617 405.362 187.471 405.82 185.78Z" fill="#9A3B82"/>
<path d="M394.702 201.764C394.702 201.764 387.666 203.635 385.633 197.697" stroke="#9A3B82" stroke-width="1.62674" stroke-miterlimit="10" stroke-linecap="round"/>
<path d="M289.172 238.081H447.576C469.293 238.081 489.017 250.891 497.801 270.778L527.733 332.35L259.036 462.449L172.453 425.359L219.588 287.411C229.999 257.845 257.857 238.081 289.172 238.081Z" fill="white" stroke="#FE5244" stroke-width="2.03343" stroke-miterlimit="10"/>
<path d="M363.429 265.248L350.293 257.48L368.513 236.739H369.814L388.278 256.097L375.467 263.865L430.451 377.168L326.055 428.207L363.429 265.248Z" fill="#FE5244"/>
<g opacity="0.2">
<g opacity="0.2">
<g opacity="0.2">
<path opacity="0.2" d="M341.627 360.291V406.409H340V367.367L341.627 360.291Z" fill="white"/>
</g>
<g opacity="0.2">
<path opacity="0.2" d="M358.748 285.501V406.368H357.121V292.577L358.138 288.185L358.504 286.558L358.748 285.501Z" fill="white"/>
<path opacity="0.2" d="M358.748 247.801V262.482L357.121 261.547V249.672L358.748 247.801Z" fill="white"/>
</g>
<g opacity="0.2">
<path opacity="0.2" d="M375.908 243.166V403.847L374.281 404.62V241.458L375.908 243.166Z" fill="white"/>
</g>
<g opacity="0.2">
<path opacity="0.2" d="M393.068 300.141V395.427L391.441 396.241V296.806L393.068 300.141Z" fill="white"/>
</g>
<g opacity="0.2">
<path opacity="0.2" d="M410.24 335.483V387.051L408.613 387.864V332.107L410.24 335.483Z" fill="white"/>
</g>
<g opacity="0.2">
<path opacity="0.2" d="M427.357 370.822V378.671L425.73 379.444V367.487L427.357 370.822Z" fill="white"/>
</g>
</g>
<g opacity="0.2">
<g opacity="0.2">
<path opacity="0.2" d="M370.263 406.612L366.929 408.239H330.652L331.018 406.612H370.263Z" fill="white"/>
</g>
<g opacity="0.2">
<path opacity="0.2" d="M405.314 389.451L401.979 391.077H334.551L334.957 389.451H405.314Z" fill="white"/>
</g>
<g opacity="0.2">
<path opacity="0.2" d="M428.865 373.912H338.5L338.866 372.285H428.093L428.865 373.912Z" fill="white"/>
</g>
<g opacity="0.2">
<path opacity="0.2" d="M420.57 356.792H342.445L342.811 355.165H419.756L420.57 356.792Z" fill="white"/>
</g>
<g opacity="0.2">
<path opacity="0.2" d="M412.227 339.631H346.344L346.75 338.004H411.454L412.227 339.631Z" fill="white"/>
</g>
<g opacity="0.2">
<path opacity="0.2" d="M403.894 322.468H350.293L350.659 320.841H403.121L403.894 322.468Z" fill="white"/>
</g>
<g opacity="0.2">
<path opacity="0.2" d="M395.598 305.345H354.238L354.604 303.718H394.785L395.598 305.345Z" fill="white"/>
</g>
<g opacity="0.2">
<path opacity="0.2" d="M387.259 288.185H358.141L358.507 286.558H386.487L387.259 288.185Z" fill="white"/>
</g>
<g opacity="0.2">
<path opacity="0.2" d="M378.963 271.023H362.086L362.452 269.396H378.15L378.963 271.023Z" fill="white"/>
</g>
<g opacity="0.2">
<path opacity="0.2" d="M386.16 253.901H353.422L354.845 252.274H384.615L386.16 253.901Z" fill="white"/>
</g>
</g>
</g>
<path d="M283.52 326.331L270.75 369.439" stroke="#FE5244" stroke-width="2.03343" stroke-miterlimit="10"/>
<path d="M417.971 237.999L387.836 255.242L369.819 236.738H368.518L350.705 256.666L317.316 237.999L341.636 216.688L369.128 236.006L395.603 219.983L417.971 237.999Z" fill="white" stroke="#FE5244" stroke-width="2.03343" stroke-miterlimit="10" stroke-linejoin="round"/>
<path d="M579.252 288.508L547.694 388.797H355.738L387.297 288.508H579.252Z" fill="#3FB1B5"/>
<path d="M457.812 388.797L489.371 288.508" stroke="white" stroke-width="2.44011" stroke-miterlimit="10"/>
<path d="M390.914 288.508C390.914 288.508 414.949 274.234 449.761 276.43C484.574 278.585 489.454 288.508 489.454 288.508H390.914Z" fill="white" stroke="#3FB1B5" stroke-width="2.03343" stroke-miterlimit="10" stroke-linecap="round"/>
<path d="M572.295 288.509C572.295 288.509 526.99 268.5 489.453 288.509H572.295Z" fill="white" stroke="#3FB1B5" stroke-width="2.03343" stroke-miterlimit="10" stroke-linecap="round"/>
<path d="M484.463 493.642L391.169 567.333C380.026 576.117 378.562 592.466 387.957 603.081L452.05 675.796C452.05 675.796 458.15 671.282 456.117 653.144C453.27 628.051 460.184 604.585 460.184 604.585L598.253 506.127C619.604 490.917 632.456 466.434 632.822 440.203C633.35 404.578 590.16 386.521 565.149 411.857L484.463 493.642Z" fill="#E57281"/>
<path d="M460.143 604.544C460.143 604.544 453.27 628.009 456.076 653.102C458.11 671.281 452.009 675.795 452.009 675.795L387.916 603.08C378.521 592.424 380.026 576.116 391.129 567.332L421.061 543.663C421.955 543.012 422.85 542.321 423.745 541.629L461.811 511.535L484.422 493.641C484.422 493.641 483.162 523.369 497.151 578.15L460.143 604.544Z" fill="white" stroke="#9A3B82" stroke-width="2.44011" stroke-miterlimit="10" stroke-linecap="round"/>
<path d="M457.581 655.539C458.353 662.575 457.865 667.658 456.93 671.237C456.727 672.091 456.483 672.823 456.198 673.514C454.612 677.703 452.538 679.086 452.538 679.086L386.085 603.727C377.464 593.926 377.708 579.489 385.963 570.013C386.98 568.834 388.16 567.695 389.461 566.678L391.616 564.97L410.324 550.208C409.104 558.341 414.35 571.965 424.436 584.816C437.206 601.084 454.165 609.746 461.566 605.273C460.387 609.584 454.978 632.317 457.581 655.539Z" fill="#FFCF2D"/>
<path d="M456.977 671.237C456.773 672.091 456.529 672.823 456.244 673.514L390.28 598.684C385.4 593.153 383.082 586.036 383.733 578.675C384.017 575.625 384.79 572.656 386.01 569.972C387.027 568.793 388.206 567.654 389.507 566.637L391.663 564.929C388.287 568.793 386.213 573.592 385.766 578.838C385.156 585.629 387.311 592.218 391.826 597.342L456.977 671.237Z" fill="white"/>
<path d="M458.886 617.636C458.886 617.636 440.992 610.519 438.592 617.636C436.234 624.753 457.544 629.267 457.544 629.267L458.886 617.636Z" fill="white"/>
<path d="M573.115 397.134V619.956C547.209 646.269 512.804 632.116 512.804 632.116C482.424 544.679 484.458 496.121 484.458 496.121L461.846 513.974C404.015 477.861 399.298 394.775 399.176 392.782L493.405 347.193C530.291 329.339 573.115 356.18 573.115 397.134Z" fill="#E57281"/>
<path d="M493.444 347.154C530.29 329.341 573.114 356.182 573.114 397.095V619.917C547.208 646.23 512.802 632.077 512.802 632.077C482.464 544.64 484.457 496.041 484.457 496.041" stroke="#9A3B82" stroke-width="2.44011" stroke-miterlimit="10" stroke-linecap="round"/>
<path d="M461.849 513.935L423.784 544.029C355.542 597.996 255.172 549.397 255.172 462.407L399.179 392.702C399.179 392.702 399.179 392.702 399.179 392.742C399.301 394.776 404.059 477.862 461.849 513.935Z" fill="#FE5244"/>
<g opacity="0.2">
<g opacity="0.2">
<g opacity="0.2">
<path opacity="0.2" d="M273.154 453.746V521.296C272.585 520.483 272.056 519.67 271.527 518.856V454.519L273.154 453.746Z" fill="white"/>
</g>
<g opacity="0.2">
<path opacity="0.2" d="M290.314 445.451V540.493C289.786 540.005 289.216 539.517 288.688 539.029V446.223L290.314 445.451Z" fill="white"/>
</g>
<g opacity="0.2">
<path opacity="0.2" d="M307.435 437.155V552.694C306.907 552.369 306.337 552.085 305.809 551.759V437.928L307.435 437.155Z" fill="white"/>
</g>
<g opacity="0.2">
<path opacity="0.2" d="M324.595 428.858V560.584C324.067 560.38 323.497 560.218 322.969 560.014V429.672L324.595 428.858Z" fill="white"/>
</g>
<g opacity="0.2">
<path opacity="0.2" d="M341.763 420.561V565.138C341.235 565.056 340.665 564.934 340.137 564.853V421.374L341.763 420.561Z" fill="white"/>
</g>
<g opacity="0.2">
<path opacity="0.2" d="M358.885 412.222V566.681C358.356 566.681 357.787 566.681 357.258 566.641V413.036L358.885 412.222Z" fill="white"/>
</g>
<g opacity="0.2">
<path opacity="0.2" d="M376.045 403.929V565.383C375.516 565.465 374.947 565.546 374.418 565.627V404.743L376.045 403.929Z" fill="white"/>
</g>
<g opacity="0.2">
<path opacity="0.2" d="M393.205 395.632V561.031C392.676 561.235 392.107 561.397 391.578 561.601V396.446L393.205 395.632Z" fill="white"/>
</g>
<g opacity="0.2">
<path opacity="0.2" d="M410.326 444.799V553.181C409.797 553.506 409.228 553.791 408.699 554.076V440.041C408.781 440.326 408.862 440.61 408.984 440.854C409.147 441.383 409.35 441.952 409.513 442.481C409.797 443.254 410.082 444.027 410.326 444.799Z" fill="white"/>
</g>
<g opacity="0.2">
<path opacity="0.2" d="M427.486 479.776V541.145L425.859 542.447V477.255C426.388 478.068 426.917 478.922 427.486 479.776Z" fill="white"/>
</g>
<g opacity="0.2">
<path opacity="0.2" d="M444.658 500.517V528.253H443.804L443.031 528.863V498.89C443.56 499.459 444.089 499.988 444.658 500.517Z" fill="white"/>
</g>
</g>
<g opacity="0.2">
<g opacity="0.2">
<path opacity="0.2" d="M393.49 560.908C393.368 560.948 393.287 560.989 393.165 561.03C392.636 561.233 392.067 561.396 391.538 561.599C390.521 561.924 389.504 562.25 388.447 562.575H330.616C328.908 562.087 327.2 561.518 325.492 560.948H393.49V560.908Z" fill="white"/>
</g>
<g opacity="0.2">
<path opacity="0.2" d="M424.155 543.747L423.789 544.031C423.219 544.479 422.65 544.926 422.081 545.373H296.334C295.602 544.845 294.91 544.316 294.219 543.747H424.155Z" fill="white"/>
</g>
<g opacity="0.2">
<path opacity="0.2" d="M445.825 526.627L444.605 527.562V528.254H278.352C277.905 527.725 277.457 527.156 277.051 526.627H445.825Z" fill="white"/>
</g>
<g opacity="0.2">
<path opacity="0.2" d="M457.542 511.088H267.01C266.726 510.559 266.441 509.99 266.156 509.461H455.265C455.997 510.031 456.77 510.559 457.542 511.088Z" fill="white"/>
</g>
<g opacity="0.2">
<path opacity="0.2" d="M438.344 493.927H259.89C259.728 493.398 259.565 492.829 259.402 492.3H436.961C437.368 492.87 437.856 493.398 438.344 493.927Z" fill="white"/>
</g>
<g opacity="0.2">
<path opacity="0.2" d="M425.575 476.807H256.11C256.028 476.279 255.988 475.709 255.906 475.181H424.559C424.925 475.709 425.25 476.238 425.575 476.807Z" fill="white"/>
</g>
<g opacity="0.2">
<path opacity="0.2" d="M416.387 459.645H260.992L264.368 458.018H415.655C415.858 458.547 416.102 459.116 416.387 459.645Z" fill="white"/>
</g>
<g opacity="0.2">
<path opacity="0.2" d="M409.546 442.481H296.406L299.782 440.854H409.017C409.139 441.423 409.343 441.952 409.546 442.481Z" fill="white"/>
</g>
<g opacity="0.2">
<path opacity="0.2" d="M404.508 425.361H331.793L335.168 423.734H404.102C404.264 424.263 404.386 424.791 404.508 425.361Z" fill="white"/>
</g>
<g opacity="0.2">
<path opacity="0.2" d="M401.014 408.199H367.219L370.594 406.572H400.77C400.852 407.101 400.933 407.63 401.014 408.199Z" fill="white"/>
</g>
</g>
</g>
<path d="M399.18 392.743C399.302 394.776 404.019 477.862 461.85 513.975" stroke="white" stroke-width="2.44011" stroke-miterlimit="10"/>
<path d="M573.117 540.327V619.956C547.211 646.269 512.806 632.116 512.806 632.116C499.507 593.806 492.431 562.939 488.648 540.368H573.117V540.327Z" fill="white"/>
<path d="M512.77 632.075C499.472 593.766 492.395 562.898 488.613 540.327H573.082V619.956" stroke="#9A3B82" stroke-width="2.44011" stroke-miterlimit="10" stroke-linecap="round"/>
<path d="M633.829 678.234H513.653C508.041 678.234 503.771 673.232 504.666 667.701L504.869 666.481L505.601 662.089L510.807 630.205C510.807 630.205 547.449 644.967 574.453 617.557C574.453 617.557 582.912 639.355 618.212 655.378C626.509 659.161 630.413 664.773 632.243 669.531C632.528 670.222 632.731 670.914 632.934 671.564C634.032 675.387 633.829 678.234 633.829 678.234Z" fill="#FFCF2D"/>
<path d="M632.939 671.524H513.658C510.689 671.524 507.883 670.222 505.971 667.945C505.565 667.457 505.199 666.969 504.914 666.44L505.646 662.048C505.768 663.715 506.419 665.342 507.558 666.643C509.103 668.433 511.34 669.49 513.699 669.49H632.288C632.532 670.182 632.776 670.873 632.939 671.524Z" fill="white"/>
<path d="M593.082 640.127C579.742 649.643 559.205 646.918 557.822 642.811C556.399 638.744 577.709 635.775 580.515 627.316C583.484 631.017 587.307 635.49 593.082 640.127Z" fill="white"/>
<path d="M484.457 496.081C484.457 448.295 497.064 420.56 497.064 420.56" stroke="#9A3B82" stroke-width="2.44011" stroke-miterlimit="10" stroke-linecap="round"/>
<path d="M369.121 346.299L202.218 385.544C181.07 390.506 166.145 409.376 166.145 431.093C166.145 465.62 202.299 488.273 233.37 473.185L394.864 394.776C397.63 393.434 399.826 391.075 400.924 388.188L418.818 342.273C419.55 340.443 418.005 338.491 416.012 338.775L413.165 339.182C408.651 339.833 404.584 342.314 401.941 346.055L394.661 356.954C393.319 358.947 391.082 360.126 388.683 360.126H371.643C368.186 360.126 365.705 356.751 366.762 353.457L369.121 346.299Z" fill="#E57281"/>
<path d="M367.494 346.707L202.218 385.952C181.07 390.913 166.145 409.784 166.145 431.501C166.145 466.028 202.299 488.681 233.37 473.593L394.864 395.184C397.63 393.842 399.826 391.483 400.924 388.595L418.818 342.681C419.55 340.851 418.005 338.898 416.012 339.183L413.165 339.59C408.651 340.24 404.584 342.721 401.941 346.463L394.661 357.362C393.319 359.355 391.082 360.534 388.683 360.534H370.016C366.559 360.534 364.078 357.159 365.136 353.864L367.494 346.707Z" stroke="white" stroke-width="2.44011" stroke-miterlimit="10"/>
<path d="M374.082 373.546H399.012C403.119 373.546 406.861 371.309 408.854 367.689" stroke="white" stroke-width="2.03343" stroke-miterlimit="10" stroke-linecap="round"/>
<path d="M368.387 388.188H393.317C397.424 388.188 401.166 385.952 403.158 382.332" stroke="white" stroke-width="2.03343" stroke-miterlimit="10" stroke-linecap="round"/>
</svg>
