<svg width="800" height="800" viewBox="0 0 800 800" fill="none" xmlns="http://www.w3.org/2000/svg">
<path d="M385.579 483.39L383.281 484.867L299.782 356.225L274.666 358.141C269.304 358.578 265.036 353.708 266.13 348.401C267.279 343.148 273.134 340.412 277.895 343.038L298.523 354.365L283.366 330.946L258.251 332.916C252.889 333.353 248.621 328.429 249.77 323.176C250.919 317.923 256.773 315.187 261.534 317.814L282.163 329.085L267.006 305.666L241.89 307.636C236.528 308.074 232.26 303.149 233.409 297.896C234.558 292.643 240.413 289.908 245.173 292.534L265.802 303.861L256.664 289.798L239.702 275.298C235.598 271.796 236.036 265.339 240.522 262.384C245.064 259.43 251.138 261.673 252.67 266.871L258.962 288.266L268.374 302.766L266.404 278.69C265.966 273.328 270.836 269.06 276.089 270.154C281.342 271.249 284.078 277.158 281.506 281.864L269.359 304.298L284.734 327.991L282.764 303.97C282.327 298.608 287.197 294.34 292.449 295.434C297.702 296.528 300.438 302.438 297.867 307.144L285.719 329.578L301.095 353.271L299.125 329.25C298.687 323.887 303.557 319.565 308.81 320.714C314.063 321.808 316.799 327.717 314.227 332.423L302.08 354.857L385.579 483.39Z" fill="#9A3B82"/>
<path d="M525.877 437.92C485.769 518.738 431.598 574.934 399.588 571.049C396.962 570.72 394.499 570.009 392.201 568.86C361.778 553.758 372.284 470.642 415.73 383.203C434.334 345.721 455.948 313.602 476.959 290.237C505.029 259.103 532.005 243.618 549.405 252.263C579.829 267.365 569.268 350.481 525.877 437.92Z" fill="#9A3B82"/>
<path d="M475.648 374.063C466.729 476.495 433.953 559.119 399.645 571.047C397.018 570.719 394.556 570.008 392.258 568.859C361.835 553.757 372.341 470.64 415.787 383.201C434.391 345.72 456.004 313.6 477.016 290.236C478.548 316.008 478.22 344.406 475.648 374.063Z" fill="#FFCF2D"/>
<path d="M549.407 252.261L399.645 571.047" stroke="#FFCF2D" stroke-width="3.28307" stroke-miterlimit="10"/>
<path d="M546.56 488.642L525.384 495.755L511.267 505.659L535.233 502.814C540.596 502.157 545.028 506.863 544.152 512.171C543.222 517.478 537.477 520.433 532.607 518.025L509.735 506.699L486.589 522.95L510.556 520.105C515.918 519.448 520.35 524.154 519.475 529.461C518.545 534.769 512.799 537.724 507.929 535.316L485.057 523.99L461.966 540.241L485.933 537.395C491.295 536.739 495.727 541.445 494.797 546.752C493.867 552.06 488.121 555.015 483.252 552.607L460.38 541.28L418.083 570.992H413.322L458.902 538.982L456.057 513.976C455.455 508.614 460.161 504.182 465.468 505.112C470.776 506.042 473.676 511.842 471.268 516.658L460.708 537.724L483.525 521.692L480.68 496.686C480.078 491.323 484.784 486.891 490.091 487.821C495.399 488.751 498.299 494.551 495.891 499.367L485.386 520.378L508.203 504.346L505.358 479.34C504.756 473.978 509.461 469.545 514.769 470.476C520.077 471.406 522.977 477.206 520.569 482.021L510.009 503.087L523.743 493.457L537.586 475.947C540.924 471.734 547.436 471.898 550.5 476.33C553.728 480.763 551.703 486.946 546.56 488.642Z" fill="#FFCF2D"/>
<path d="M374.911 566.78C372.175 567.71 369.275 568.367 366.32 568.75C331.848 573.237 284.244 541.063 255.462 492.2C224.218 439.123 227.063 386.485 261.809 374.556C273.081 370.671 286.378 371.602 300.166 376.417C328.948 386.43 360.137 413.242 381.258 449.082C412.447 502.213 409.602 554.851 374.911 566.78Z" fill="white" stroke="#FFCF2D" stroke-width="3.28307" stroke-miterlimit="10"/>
<path d="M374.914 566.78C372.178 567.71 369.278 568.367 366.323 568.75C334.478 554.304 306.79 493.13 300.936 418.823C299.787 404.159 299.568 389.932 300.17 376.417C328.951 386.43 360.14 413.242 381.261 449.082C412.45 502.213 409.605 554.852 374.914 566.78Z" fill="#FFCF2D"/>
<path d="M248.623 382.27L366.266 568.748" stroke="#FFCF2D" stroke-width="3.28307" stroke-miterlimit="10"/>
<path d="M388.917 573.234C426.994 573.234 457.861 481.391 457.861 368.097C457.861 254.803 426.994 162.96 388.917 162.96C350.84 162.96 319.973 254.803 319.973 368.097C319.973 481.391 350.84 573.234 388.917 573.234Z" fill="white" stroke="#FFCF2D" stroke-width="3.28307" stroke-miterlimit="10"/>
<path d="M388.916 162.908V573.236" stroke="#FFCF2D" stroke-width="3.28307" stroke-miterlimit="10"/>
<path d="M432.854 212.099L388.915 270.975L351.652 197.215" stroke="#FFCF2D" stroke-width="3.28307" stroke-miterlimit="10" stroke-linecap="round"/>
<path d="M447.138 262L388.48 342.654L335.732 240.605" stroke="#FFCF2D" stroke-width="3.28307" stroke-miterlimit="10" stroke-linecap="round"/>
<path d="M456.275 319.566L387.933 413.79L325.5 293.411" stroke="#FFCF2D" stroke-width="3.28307" stroke-miterlimit="10" stroke-linecap="round"/>
<path d="M460.541 396.39L388.258 497.508L320.135 368.265" stroke="#FFCF2D" stroke-width="3.28307" stroke-miterlimit="10" stroke-linecap="round"/>
<path d="M491.131 637.092H286.541C270.783 637.092 257.979 624.288 257.979 608.53V599.61C257.979 583.852 270.783 571.048 286.541 571.048H491.131C506.89 571.048 519.694 583.852 519.694 599.61V608.53C519.694 624.343 506.89 637.092 491.131 637.092Z" fill="white" stroke="#66B0F0" stroke-width="3.28307" stroke-miterlimit="10"/>
</svg>
