<svg width="800" height="800" viewBox="0 0 800 800" fill="none" xmlns="http://www.w3.org/2000/svg">
<path d="M333.565 174.537H477.614C506.733 174.537 533.94 188.876 550.411 212.847L616.406 310.057C621.847 317.961 616.921 328.734 607.325 328.734H533.866L504.527 290.387C501.071 285.534 493.423 287.666 492.945 293.622L487.026 365.831H329.925L316.689 292.409C315.88 286.674 308.453 284.909 305.108 289.652L278.158 324.359H190.324L258.856 215.752C275.07 190.089 303.269 174.537 333.565 174.537Z" fill="white" stroke="#3FB1B5" stroke-width="2.20596" stroke-miterlimit="10" stroke-linecap="round"/>
<path d="M421.32 212.038L444.666 289.578H386.98L412.606 212.038H421.32Z" fill="#FE5244"/>
<g opacity="0.2">
<g opacity="0.2">
<g opacity="0.2">
<path opacity="0.2" d="M402.712 242.001V289.576H401.168V246.67L401.683 245.089L402.712 242.001Z" fill="white"/>
</g>
<g opacity="0.2">
<path opacity="0.2" d="M419.146 212.223H417.602V289.578H419.146V212.223Z" fill="white"/>
</g>
<g opacity="0.2">
<path opacity="0.2" d="M435.583 259.395V289.58H434.039V254.248L435.583 259.395Z" fill="white"/>
</g>
</g>
<g opacity="0.2">
<g opacity="0.2">
<path opacity="0.2" d="M441.647 279.542H390.285L390.8 277.961H441.169L441.647 279.542Z" fill="white"/>
</g>
<g opacity="0.2">
<path opacity="0.2" d="M436.68 263.107H395.723L396.237 261.526H436.202L436.68 263.107Z" fill="white"/>
</g>
<g opacity="0.2">
<path opacity="0.2" d="M431.757 246.67H401.168L401.683 245.089H431.279L431.757 246.67Z" fill="white"/>
</g>
<g opacity="0.2">
<path opacity="0.2" d="M426.79 230.236H406.605L407.12 228.655H426.312L426.79 230.236Z" fill="white"/>
</g>
<g opacity="0.2">
<path opacity="0.2" d="M421.831 213.804H412.051L412.566 212.223H421.389L421.831 213.804Z" fill="white"/>
</g>
</g>
</g>
<path d="M431.77 211.231L441.182 221.341L471.514 174.538H444.638L431.77 211.231Z" fill="white" stroke="#3FB1B5" stroke-width="2.20596" stroke-miterlimit="10" stroke-linecap="round"/>
<path d="M403.865 211.231L394.416 221.341L361.547 174.538H390.96L403.865 211.231Z" fill="white" stroke="#3FB1B5" stroke-width="2.20596" stroke-miterlimit="10" stroke-linecap="round"/>
<path d="M627.95 337.628C627.95 355.937 614.898 373.291 594.603 376.269L511.402 388.512L493.129 391.196V320.458L498.754 319.135L579.934 299.869C595.596 296.156 611.92 302.443 621.038 315.715C625.781 322.554 627.95 330.164 627.95 337.628Z" fill="#A0505A"/>
<path d="M511.402 388.511L493.129 391.195V320.457L498.754 319.133L511.402 388.511Z" fill="#73325A"/>
<path d="M493.123 409.287H318.227V304.32C318.227 296.158 324.844 289.577 332.97 289.577H478.343C486.505 289.577 493.086 296.195 493.086 304.32V409.287H493.123Z" fill="#FFCF2D"/>
<path d="M416.466 357.815H394.885C392.679 357.815 390.914 356.05 390.914 353.844V344.8C390.914 342.594 392.679 340.829 394.885 340.829H416.466C418.672 340.829 420.437 342.594 420.437 344.8V353.844C420.437 356.05 418.636 357.815 416.466 357.815Z" stroke="white" stroke-width="1.8383" stroke-miterlimit="10"/>
<path d="M379.668 408.152L564.822 380.467C600.852 374.989 633.317 402.895 633.317 439.367C633.317 472.272 606.661 498.928 573.756 498.928H380.881L379.668 408.152Z" fill="#0096A0"/>
<path d="M354.63 515.144L243.192 536.652C229.001 539.667 214.735 527.828 214.11 512.533L212.456 471.87C211.61 451.281 231.354 438.891 249.957 447.715L354.63 515.144Z" fill="white" stroke="#FE5244" stroke-width="2.20596" stroke-miterlimit="10"/>
<path d="M250.732 535.181C237.018 538.049 223.158 526.541 222.496 511.651L220.768 472.164C219.885 452.163 238.93 440.251 256.946 448.854" stroke="#FE5244" stroke-width="2.20596" stroke-miterlimit="10"/>
<path d="M249.957 447.677L354.63 515.143L330.769 519.739L249.957 447.677Z" fill="#FE5244"/>
<path d="M290.294 477.236L276.507 504.7L262.866 472.419L247.094 508.671" stroke="#FE5244" stroke-width="2.20596" stroke-miterlimit="10" stroke-linejoin="round"/>
<path d="M246.32 467.385L261.762 505.916L276.873 475.142L288.601 500.805" stroke="#FE5244" stroke-width="2.20596" stroke-miterlimit="10" stroke-linejoin="round"/>
<path d="M441.179 464.732C435.002 459.659 417.134 471.203 401.251 490.506C385.368 509.808 377.5 529.588 383.677 534.661C382.758 534.11 266.687 461.313 194.662 411.642C176.353 399.032 166.684 378.81 166.684 358.332C166.684 344.066 171.39 329.691 181.133 317.668C205.545 287.557 250.768 285.535 277.791 313.33L441.179 464.732Z" fill="#3FB1B5"/>
<path d="M423.565 508.867C439.442 489.563 447.304 469.794 441.126 464.712C434.947 459.631 417.067 471.16 401.19 490.464C385.313 509.769 377.45 529.538 383.629 534.619C389.807 539.701 407.687 528.172 423.565 508.867Z" fill="#FE5244" stroke="white" stroke-width="2.20596" stroke-miterlimit="10"/>
<path d="M492.281 528.263L471.618 563.338C461.14 581.096 437.463 581.427 426.617 563.926L391.836 507.895C394.814 502.968 398.491 497.821 402.719 492.674C410.366 483.372 418.491 475.872 425.55 471.166L480.92 492.232C494.45 497.416 500.038 515.064 492.281 528.263Z" fill="white" stroke="#FE5244" stroke-width="2.20596" stroke-miterlimit="10"/>
<path d="M475.074 489.954C487.868 494.918 492.391 511.499 485.074 524.183L465.588 557.824C455.735 574.884 433.418 575.178 423.16 558.412" stroke="#FE5244" stroke-width="2.20596" stroke-miterlimit="10"/>
<path d="M407.129 507.935L435.292 493.67L426.835 527.605L460.513 506.942" stroke="#FE5244" stroke-width="2.20596" stroke-miterlimit="10" stroke-linejoin="round"/>
<path d="M437.534 541.207L446.285 501.684L417.57 515.839L421.982 489.588" stroke="#FE5244" stroke-width="2.20596" stroke-miterlimit="10" stroke-linejoin="round"/>
<path d="M459.487 180.896C459.34 183.249 458.311 185.345 456.693 186.852C455.076 188.359 452.943 189.278 450.59 189.278H442.465L441.95 197.845C441.509 204.904 434.487 212.11 427.17 212.11H406.618C399.338 212.11 392.279 204.904 391.838 197.845L391.323 189.278H383.088C380.735 189.278 378.565 188.359 376.985 186.852C375.367 185.345 374.337 183.249 374.19 180.859C373.896 175.712 378.124 171.447 383.271 171.447H390.22L389.448 158.395C389.301 155.638 391.47 153.321 394.228 153.321H439.597C442.355 153.321 444.524 155.638 444.377 158.395L443.605 171.447H450.627C455.701 171.484 459.782 175.785 459.487 180.896Z" fill="#A0505A"/>
<path d="M443.566 171.447H450.956C450.956 171.447 458.015 145.821 451.213 139.24C444.411 132.659 402.645 117.511 389.152 126.96C379.299 133.872 384.666 171.447 384.666 171.447H390.108C390.108 171.447 412.057 155.711 415.513 157.072C418.969 158.432 405.586 165.05 408.27 166.337C418.307 171.153 436.36 153.689 440.514 153.689C444.669 153.689 443.566 171.447 443.566 171.447Z" fill="#73325A"/>
<path d="M434.267 177.808C434.267 177.808 429.45 173.91 423.273 176.447" stroke="#73325A" stroke-width="1.47064" stroke-miterlimit="10" stroke-linecap="round"/>
<path d="M424.408 198.765C424.408 198.765 421.761 204.427 413.746 201.485" stroke="#73325A" stroke-width="1.47064" stroke-miterlimit="10" stroke-linecap="round"/>
<path d="M397.648 176.52C397.648 176.52 407.391 174.351 410.333 180.381C412.134 184.094 411.252 197.073 413.348 197.22C415.443 197.367 418.605 197.22 418.605 197.22" stroke="#73325A" stroke-width="1.47064" stroke-miterlimit="10" stroke-linecap="round"/>
<path d="M427.685 187.806C428.639 187.806 429.413 186.522 429.413 184.938C429.413 183.354 428.639 182.07 427.685 182.07C426.731 182.07 425.957 183.354 425.957 184.938C425.957 186.522 426.731 187.806 427.685 187.806Z" fill="#73325A"/>
<path d="M405.333 187.806C406.288 187.806 407.062 186.522 407.062 184.938C407.062 183.354 406.288 182.07 405.333 182.07C404.379 182.07 403.605 183.354 403.605 184.938C403.605 186.522 404.379 187.806 405.333 187.806Z" fill="#73325A"/>
<path d="M388.419 182.22C388.198 178.617 385.22 175.823 381.617 175.823" stroke="#73325A" stroke-width="1.47064" stroke-miterlimit="10" stroke-linecap="round"/>
<path d="M444.852 182.403C445.072 178.579 448.234 175.601 452.021 175.601" stroke="#73325A" stroke-width="1.47064" stroke-miterlimit="10" stroke-linecap="round"/>
</svg>
