<svg width="800" height="800" viewBox="0 0 800 800" fill="none" xmlns="http://www.w3.org/2000/svg">
<path d="M541.818 631.503C541.818 644.208 539.478 656.408 535.181 667.721C528.923 684.155 513.057 694.902 495.422 694.902H361.609C344.037 694.902 328.108 684.155 321.914 667.721C317.616 656.408 315.277 644.208 315.277 631.503C315.277 594.841 334.682 562.479 364.328 543.138V521.772C364.328 531.127 393.087 538.712 428.485 538.712C463.944 538.712 492.642 531.127 492.642 521.772V543.2C522.413 562.479 541.818 594.841 541.818 631.503Z" fill="#FE5244"/>
<path d="M492.763 537.321V543.01C482.585 551.101 454.9 555.398 428.606 555.398C402.311 555.398 374.626 551.101 364.449 543.01V537.321C365.649 540.039 370.77 543.579 382.147 546.55C394.536 549.837 411.033 551.606 428.606 551.606C446.178 551.606 462.676 549.837 475.064 546.55C486.442 543.515 491.498 539.975 492.763 537.321Z" fill="white"/>
<path d="M492.763 521.771C492.763 531.126 464.002 538.711 428.606 538.711C393.209 538.711 364.449 531.126 364.449 521.771C364.449 520.57 364.891 519.432 365.776 518.294C371.844 510.647 397.633 504.831 428.606 504.831C459.578 504.831 485.367 510.583 491.435 518.294C492.257 519.432 492.763 520.57 492.763 521.771Z" fill="#66B0F0"/>
<path d="M342.708 604.636C347.176 604.636 350.799 601.014 350.799 596.546C350.799 592.076 347.176 588.454 342.708 588.454C338.239 588.454 334.617 592.076 334.617 596.546C334.617 601.014 338.239 604.636 342.708 604.636Z" stroke="#FFCF2D" stroke-width="3.79253" stroke-miterlimit="10"/>
<path d="M370.142 624.551C374.611 624.551 378.233 620.929 378.233 616.461C378.233 611.993 374.611 608.369 370.142 608.369C365.674 608.369 362.051 611.993 362.051 616.461C362.051 620.929 365.674 624.551 370.142 624.551Z" stroke="#FFCF2D" stroke-width="3.79253" stroke-miterlimit="10"/>
<path d="M404.27 600.906C408.738 600.906 412.36 597.284 412.36 592.816C412.36 588.348 408.738 584.726 404.27 584.726C399.802 584.726 396.18 588.348 396.18 592.816C396.18 597.284 399.802 600.906 404.27 600.906Z" stroke="#FFCF2D" stroke-width="3.79253" stroke-miterlimit="10"/>
<path d="M399.465 654.634C403.934 654.634 407.556 651.011 407.556 646.542C407.556 642.074 403.934 638.452 399.465 638.452C394.997 638.452 391.375 642.074 391.375 646.542C391.375 651.011 394.997 654.634 399.465 654.634Z" stroke="#FFCF2D" stroke-width="3.79253" stroke-miterlimit="10"/>
<path d="M369.126 678.214C373.594 678.214 377.216 674.592 377.216 670.123C377.216 665.654 373.594 662.032 369.126 662.032C364.657 662.032 361.035 665.654 361.035 670.123C361.035 674.592 364.657 678.214 369.126 678.214Z" stroke="#FFCF2D" stroke-width="3.79253" stroke-miterlimit="10"/>
<path d="M338.532 654.634C343 654.634 346.622 651.011 346.622 646.542C346.622 642.074 343 638.452 338.532 638.452C334.064 638.452 330.441 642.074 330.441 646.542C330.441 651.011 334.064 654.634 338.532 654.634Z" stroke="#FFCF2D" stroke-width="3.79253" stroke-miterlimit="10"/>
<path d="M374.559 574.612C379.027 574.612 382.649 570.989 382.649 566.521C382.649 562.053 379.027 558.43 374.559 558.43C370.091 558.43 366.469 562.053 366.469 566.521C366.469 570.989 370.091 574.612 374.559 574.612Z" stroke="#FFCF2D" stroke-width="3.79253" stroke-miterlimit="10"/>
<path d="M438.977 580.744C443.446 580.744 447.069 577.122 447.069 572.652C447.069 568.184 443.446 564.562 438.977 564.562C434.509 564.562 430.887 568.184 430.887 572.652C430.887 577.122 434.509 580.744 438.977 580.744Z" stroke="#FFCF2D" stroke-width="3.79253" stroke-miterlimit="10"/>
<path d="M432.213 629.797C436.681 629.797 440.303 626.175 440.303 621.705C440.303 617.237 436.681 613.615 432.213 613.615C427.743 613.615 424.121 617.237 424.121 621.705C424.121 626.175 427.743 629.797 432.213 629.797Z" stroke="#FFCF2D" stroke-width="3.79253" stroke-miterlimit="10"/>
<path d="M455.598 662.031C460.068 662.031 463.69 658.409 463.69 653.94C463.69 649.472 460.068 645.85 455.598 645.85C451.13 645.85 447.508 649.472 447.508 653.94C447.508 658.409 451.13 662.031 455.598 662.031Z" stroke="#FFCF2D" stroke-width="3.79253" stroke-miterlimit="10"/>
<path d="M425.26 686.304C429.728 686.304 433.35 682.682 433.35 678.214C433.35 673.746 429.728 670.124 425.26 670.124C420.79 670.124 417.168 673.746 417.168 678.214C417.168 682.682 420.79 686.304 425.26 686.304Z" stroke="#FFCF2D" stroke-width="3.79253" stroke-miterlimit="10"/>
<path d="M464.258 610.45C468.726 610.45 472.349 606.828 472.349 602.358C472.349 597.89 468.726 594.268 464.258 594.268C459.79 594.268 456.168 597.89 456.168 602.358C456.168 606.828 459.79 610.45 464.258 610.45Z" stroke="#FFCF2D" stroke-width="3.79253" stroke-miterlimit="10"/>
<path d="M487.709 577.265C492.177 577.265 495.799 573.643 495.799 569.175C495.799 564.707 492.177 561.084 487.709 561.084C483.241 561.084 479.617 564.707 479.617 569.175C479.617 573.643 483.241 577.265 487.709 577.265Z" stroke="#FFCF2D" stroke-width="3.79253" stroke-miterlimit="10"/>
<path d="M514.383 604.128C518.852 604.128 522.474 600.504 522.474 596.036C522.474 591.568 518.852 587.946 514.383 587.946C509.915 587.946 506.293 591.568 506.293 596.036C506.293 600.504 509.915 604.128 514.383 604.128Z" stroke="#FFCF2D" stroke-width="3.79253" stroke-miterlimit="10"/>
<path d="M483.852 630.615C488.322 630.615 491.944 626.993 491.944 622.525C491.944 618.057 488.322 614.433 483.852 614.433C479.384 614.433 475.762 618.057 475.762 622.525C475.762 626.993 479.384 630.615 483.852 630.615Z" stroke="#FFCF2D" stroke-width="3.79253" stroke-miterlimit="10"/>
<path d="M520.385 647.555C524.853 647.555 528.475 643.933 528.475 639.464C528.475 634.996 524.853 631.374 520.385 631.374C515.915 631.374 512.293 634.996 512.293 639.464C512.293 643.933 515.915 647.555 520.385 647.555Z" stroke="#FFCF2D" stroke-width="3.79253" stroke-miterlimit="10"/>
<path d="M495.793 678.653C500.262 678.653 503.884 675.031 503.884 670.563C503.884 666.094 500.262 662.472 495.793 662.472C491.325 662.472 487.703 666.094 487.703 670.563C487.703 675.031 491.325 678.653 495.793 678.653Z" stroke="#FFCF2D" stroke-width="3.79253" stroke-miterlimit="10"/>
<path d="M570.32 423.295C570.32 423.295 630.369 390.868 640.293 447.503C651.797 512.925 573.671 570.508 573.671 570.508C573.671 570.508 556.856 528.853 511.788 492.95C472.789 461.915 505.153 379.617 570.32 423.295Z" fill="white" stroke="#FFCF2D" stroke-width="3.79253" stroke-miterlimit="10"/>
<path d="M452.439 351.169C480.946 351.422 521.906 293.522 483.223 229.998C436.51 153.262 428.483 108.826 428.483 108.826C428.483 108.826 359.775 199.72 371.469 269.44C384.301 345.796 452.439 351.169 452.439 351.169Z" fill="#FFCF2D"/>
<path d="M457.366 312.613C499.02 323.611 538.588 298.264 539.41 240.492C540.864 138.346 560.206 105.098 560.206 105.098C560.206 105.098 430.439 151.809 410.78 224.373C392.07 293.524 457.366 312.613 457.366 312.613Z" fill="white" stroke="#FFCF2D" stroke-width="3.79253" stroke-miterlimit="10"/>
<path d="M283.29 379.867C281.773 379.994 280.193 380.12 278.486 380.246C188.856 386.947 163.067 468.992 163.067 468.992C163.067 468.992 157.568 463.05 158.706 442.508C160.855 389.537 209.589 334.799 265.213 369.564C271.407 373.484 277.476 376.833 283.29 379.867Z" fill="#FFCF2D"/>
<path d="M384.933 400.03C369.131 401.042 333.038 405.403 283.294 379.866C277.478 376.895 271.41 373.482 265.216 369.562C209.592 334.799 162.122 389.537 159.973 442.506C159.846 445.098 160.479 447.689 160.605 450.218C155.359 404.202 155.485 289.667 294.734 293.522C390.432 296.304 384.933 400.03 384.933 400.03Z" fill="white" stroke="#FFCF2D" stroke-width="3.79253" stroke-miterlimit="10"/>
<path d="M407.686 518.422C407.686 518.422 424.184 288.532 201.246 318.556" stroke="#FFCF2D" stroke-width="3.79253" stroke-miterlimit="10"/>
<path d="M560.214 105.098C419.764 248.582 445.933 518.42 445.933 518.42C431.141 415.201 521.909 312.613 570.264 420.574C584.676 452.683 573.614 570.441 573.614 570.441" stroke="#FFCF2D" stroke-width="3.79253" stroke-miterlimit="10"/>
</svg>
