<svg width="800" height="800" viewBox="0 0 800 800" fill="none" xmlns="http://www.w3.org/2000/svg">
<path d="M477.411 605.384V697.738H338.473L365.544 555.917C364.676 561.516 382.004 572.014 405.716 582.54C414.226 586.319 423.717 590.071 433.851 593.626C450.2 599.393 465.261 603.312 477.411 605.384C477.383 605.384 477.411 605.384 477.411 605.384Z" fill="#9A3B82"/>
<path d="M477.407 577.613V602.333C465.257 600.261 450.224 596.37 433.819 590.603C395.158 577.025 365.4 560.256 367.079 552.726C367.107 552.614 367.135 552.502 367.163 552.418C369.767 545.055 404.005 550.15 443.197 563.896C455.795 568.319 467.161 572.882 476.707 577.277C476.931 577.389 477.155 577.501 477.407 577.613Z" fill="#FFCF2D"/>
<path d="M458.345 363.621C444.796 363.621 433.822 374.595 433.822 388.116V455.248C433.822 468.769 422.848 479.743 409.327 479.743H311.121C324.671 479.743 335.616 468.769 335.616 455.248V388.116C335.616 374.567 346.59 363.621 360.112 363.621H458.345Z" fill="white" stroke="#FFCF2D" stroke-width="1.39974" stroke-miterlimit="10"/>
<path d="M415.4 398.363H352.859V456.396H415.4V398.363Z" fill="white" stroke="#FFCF2D" stroke-width="1.39974" stroke-miterlimit="10"/>
<path d="M415.372 406.648H352.859" stroke="#FFCF2D" stroke-width="1.39974" stroke-miterlimit="10"/>
<path d="M415.372 414.935H352.859" stroke="#FFCF2D" stroke-width="1.39974" stroke-miterlimit="10"/>
<path d="M415.372 423.249H352.859" stroke="#FFCF2D" stroke-width="1.39974" stroke-miterlimit="10"/>
<path d="M415.372 431.535H352.859" stroke="#FFCF2D" stroke-width="1.39974" stroke-miterlimit="10"/>
<path d="M415.372 439.851H352.859" stroke="#FFCF2D" stroke-width="1.39974" stroke-miterlimit="10"/>
<path d="M415.372 448.136H352.859" stroke="#FFCF2D" stroke-width="1.39974" stroke-miterlimit="10"/>
<path d="M433.816 388.116C433.816 374.651 444.678 363.733 458.088 363.621C471.525 363.733 482.359 374.651 482.359 388.116H433.816Z" fill="#66B0F0" stroke="#FFCF2D" stroke-width="1.39974" stroke-miterlimit="10"/>
<path d="M409.437 480.36C409.409 480.36 409.353 480.36 409.325 480.36H311.483C311.427 480.36 311.371 480.36 311.315 480.36C301.265 480.22 292.671 474.005 289.031 465.215H387.069C390.736 474.005 399.331 480.22 409.437 480.36Z" fill="#FFCF2D"/>
<path d="M356.947 391.699H345.637V382.628H350.956V387.667C350.956 387.779 351.012 387.863 351.068 387.891L351.096 387.919L356.947 391.699Z" fill="#FE5244"/>
<path d="M361.341 385.764V386.968C361.341 387.192 361.312 387.416 361.312 387.639C361.312 387.695 361.285 387.779 361.285 387.835C361.257 387.947 361.256 388.059 361.228 388.171C360.921 389.711 359.997 390.971 358.849 391.447C358.765 391.475 358.681 391.503 358.597 391.531C358.457 391.587 358.289 391.615 358.149 391.643C358.093 391.643 358.037 391.671 357.981 391.671L351.57 387.499C351.626 386.52 352.242 385.736 352.97 385.736H361.341V385.764Z" fill="#FE5244"/>
<path d="M423.802 382.628V391.699H412.492L418.315 387.919L418.343 387.891C418.371 387.863 418.371 387.863 418.399 387.863C418.399 387.835 418.427 387.835 418.427 387.807C418.427 387.807 418.427 387.779 418.455 387.779C418.455 387.751 418.455 387.751 418.483 387.751C418.483 387.751 418.483 387.751 418.483 387.723C418.483 387.695 418.483 387.695 418.483 387.667V382.628H423.802Z" fill="#FE5244"/>
<path d="M417.922 387.528L411.512 391.699C411.344 391.671 411.176 391.643 411.008 391.615C410.952 391.587 410.896 391.587 410.84 391.559C410.756 391.531 410.7 391.503 410.616 391.475C410.56 391.447 410.476 391.419 410.42 391.391C409.552 390.915 408.824 389.991 408.46 388.844C408.404 388.676 408.348 388.508 408.32 388.34C408.292 388.284 408.292 388.2 408.264 388.116C408.208 387.752 408.152 387.388 408.152 386.996V385.792H416.551C417.251 385.764 417.866 386.548 417.922 387.528Z" fill="#FE5244"/>
<path d="M417.922 378.037V385.931C417.866 385.875 417.81 385.792 417.754 385.736C417.642 385.624 417.53 385.54 417.419 385.456C417.139 385.288 416.831 385.176 416.523 385.176H352.947C352.611 385.176 352.303 385.288 352.051 385.456C351.939 385.54 351.827 385.624 351.715 385.736C351.659 385.792 351.603 385.847 351.547 385.931V378.037C351.547 376.973 352.163 376.133 352.947 376.133H416.523C417.278 376.133 417.922 377.001 417.922 378.037Z" fill="#FE5244"/>
<path d="M477.407 492.592V602.331H477.379C465.229 600.26 450.196 596.369 433.791 590.602C423.657 587.046 414.167 583.267 405.656 579.516L410.219 554.04L417.974 510.789C393.646 503.174 389.699 479.77 389.699 479.77H409.268C422.817 479.77 433.763 468.796 433.763 455.275V447.213H421.193C412.375 447.213 405.208 438.534 405.208 429.716V426.86H433.147C438.326 426.86 443.197 429.296 446.305 433.439L466.741 460.734C473.683 469.916 477.407 481.086 477.407 492.592Z" fill="#A0505A"/>
<path d="M477.407 577.611V602.33H477.379C465.229 600.258 450.196 596.367 433.791 590.6C423.657 587.045 414.167 583.266 405.656 579.514L410.219 554.039C420.297 556.503 431.495 559.834 443.141 563.921C455.739 568.344 467.105 572.907 476.623 577.303C476.931 577.387 477.155 577.499 477.407 577.611Z" fill="#73325A"/>
<path d="M435.057 447.212H421.563C412.745 447.212 405.578 438.533 405.578 429.715V426.859H435.057V447.212Z" fill="#A0505A"/>
<path d="M426.566 474.478C426.566 474.478 446.023 481.785 447.786 506.896" stroke="#73325A" stroke-width="1.39974" stroke-miterlimit="10"/>
<path d="M418.031 511.375H431.273" stroke="#73325A" stroke-width="1.39974" stroke-miterlimit="10"/>
<path d="M405.688 197.5L414.562 191.621C426.124 183.978 441.605 191.537 442.697 205.338L444.628 229.778C445.692 243.187 460.445 250.83 472.007 243.971L477.606 240.64" stroke="#FFCF2D" stroke-width="1.67968" stroke-miterlimit="10"/>
<path d="M276.711 106.714L390.734 172.893L448.151 301.809L382.279 257.438L310.697 173.565L276.711 106.714Z" fill="#9A3B82"/>
<path d="M277.016 102.262L393.446 169.869L452.095 301.5" stroke="#FFCF2D" stroke-width="1.67968" stroke-miterlimit="10"/>
<path d="M381.091 260.284C386.419 255.786 374.446 232.842 354.348 209.037C334.251 185.232 313.639 169.581 308.311 174.079C302.983 178.578 314.956 201.522 335.054 225.327C355.151 249.131 375.763 264.782 381.091 260.284Z" fill="white"/>
<path d="M377.849 261.66C383.071 257.252 371.327 234.754 351.618 211.41C331.91 188.066 311.7 172.715 306.478 177.124C301.256 181.532 313 204.03 332.709 227.374C352.417 250.718 372.627 266.069 377.849 261.66Z" fill="white" stroke="#FFCF2D" stroke-width="1.39974" stroke-miterlimit="10"/>
<path d="M391.742 251.222L380.88 260.376C382.896 258.669 382.448 254.357 380.012 248.339C376.009 238.428 366.631 223.955 354.145 209.118C341.631 194.309 328.922 182.635 319.824 177.036C314.309 173.621 310.109 172.445 308.094 174.153L318.956 164.998C324.275 160.491 345.831 175.216 365.931 199.04C386.031 222.863 397.089 246.743 391.742 251.222Z" fill="#FFCF2D"/>
<path d="M507.778 216.2C510.858 214.717 513.853 213.401 516.737 212.309C518.444 214.101 519.928 216.2 521.076 218.552C522.224 220.903 522.951 223.367 523.287 225.803C520.628 227.37 517.745 228.938 514.693 230.422C499.38 237.84 485.439 240.668 483.535 236.748C481.603 232.801 492.465 223.619 507.778 216.2Z" fill="#FFCF2D"/>
<path d="M480.735 242.067C482.606 242.067 484.122 240.551 484.122 238.68C484.122 236.809 482.606 235.292 480.735 235.292C478.864 235.292 477.348 236.809 477.348 238.68C477.348 240.551 478.864 242.067 480.735 242.067Z" stroke="#9A3B82" stroke-width="1.67968" stroke-miterlimit="10"/>
</svg>
