<svg width="800" height="800" viewBox="0 0 800 800" fill="none" xmlns="http://www.w3.org/2000/svg">
<path d="M555.41 584.335H270.959C254.489 584.335 241.184 571.029 241.184 554.559V270.108C241.184 253.638 254.489 240.333 270.959 240.333H555.41C571.88 240.333 585.186 253.638 585.186 270.108V554.559C585.186 571.029 571.799 584.335 555.41 584.335Z" fill="#FFCF2D"/>
<path d="M534.641 565.266H244.592C228.122 565.266 214.816 551.96 214.816 535.491V245.442C214.816 228.972 228.122 215.666 244.592 215.666H534.641C551.111 215.666 564.417 228.972 564.417 245.442V535.491C564.417 551.96 551.111 565.266 534.641 565.266Z" fill="white" stroke="#FFCF2D" stroke-width="4.86795" stroke-miterlimit="10"/>
<path d="M389.658 524.295C463.591 524.295 523.526 464.36 523.526 390.426C523.526 316.493 463.591 256.558 389.658 256.558C315.724 256.558 255.789 316.493 255.789 390.426C255.789 464.36 315.724 524.295 389.658 524.295Z" stroke="#FFCF2D" stroke-width="4.86795" stroke-miterlimit="10"/>
<path d="M314.367 332.983L389.658 390.425L371.16 333.713" stroke="#FFCF2D" stroke-width="4.86795" stroke-miterlimit="10" stroke-linecap="round"/>
</svg>
