<svg width="800" height="800" viewBox="0 0 800 800" fill="none" xmlns="http://www.w3.org/2000/svg">
<path d="M507.212 512.839V647.801H353.477L373.176 501.237C373.176 507.166 403.171 514.561 440.178 517.748C477.186 520.968 507.212 518.768 507.212 512.839Z" fill="#66B0F0"/>
<path d="M506.512 509.366C506.512 515.295 476.772 517.494 440.116 514.275C403.459 511.055 373.719 503.66 373.719 497.763C373.719 491.834 403.459 489.635 440.116 492.854C476.804 496.042 506.512 503.437 506.512 509.366Z" fill="#3FB1B5"/>
<path d="M527.838 210.181L537.145 216.205C546.453 223.409 533.575 255.603 508.394 288.053C483.212 320.534 455.257 340.998 445.949 333.794L441.359 329.459" stroke="#66B0F0" stroke-width="1.91253" stroke-miterlimit="10"/>
<path d="M398.578 361.399L504.246 264.689L541.189 152.2L428.414 254.68L398.578 361.399Z" fill="#66B0F0"/>
<path d="M393.195 373.129L508.202 267.876L545.72 153.602" stroke="#FE5244" stroke-width="1.91253" stroke-miterlimit="10" stroke-linecap="round"/>
<path d="M454.017 264.37L353.673 360.347C348.796 365.001 340.827 360.602 342.198 353.972L345.003 340.361C346.278 334.209 339.297 329.715 334.229 333.412L301.078 357.542" stroke="#FE5244" stroke-width="1.91253" stroke-miterlimit="10"/>
<path d="M274.076 391.904C271.112 394.391 268.147 396.686 265.278 398.694C262.888 397.196 260.688 395.315 258.744 393.02C256.831 390.725 255.333 388.239 254.281 385.625C256.768 383.138 259.509 380.62 262.473 378.102C277.295 365.639 291.894 358.594 295.114 362.419C298.301 366.244 288.898 379.441 274.076 391.904Z" fill="#FFCF2D"/>
<path d="M297.978 363.726C300.108 363.726 301.835 361.999 301.835 359.869C301.835 357.739 300.108 356.012 297.978 356.012C295.848 356.012 294.121 357.739 294.121 359.869C294.121 361.999 295.848 363.726 297.978 363.726Z" stroke="#FE5244" stroke-width="1.91253" stroke-miterlimit="10"/>
<path d="M458.767 411.252V515.485C452.87 515.23 446.591 514.848 440.12 514.274C416.245 512.202 395.335 508.313 383.637 504.233L385.39 492.694L391.255 453.965H383.669C372.863 453.965 364.129 445.231 364.129 434.426V396.048C364.129 388.461 366.87 381.162 371.875 375.456L396.833 346.927C398.459 345.078 401.519 346.226 401.519 348.68V387.473C401.519 392.127 399.861 396.621 396.833 400.159L394.602 402.773H421.696C425.617 402.773 427.912 398.406 425.712 395.155C422.366 390.278 417.967 383.329 413.791 375.296C405.472 359.391 419.911 350.497 419.911 350.497L452.966 393.37C456.727 398.566 458.767 404.845 458.767 411.252Z" fill="#FFCF2D"/>
<path d="M401.519 346.608V387.472C401.519 392.126 399.861 396.621 396.833 400.159L394.602 402.773" stroke="white" stroke-width="1.59378" stroke-miterlimit="10" stroke-linecap="round"/>
<path d="M394.602 402.741L376.688 422.854" stroke="white" stroke-width="1.59378" stroke-miterlimit="10" stroke-linecap="round"/>
<path d="M401.514 369.718C401.514 374.372 399.856 378.866 396.828 382.404L394.597 385.018L376.715 405.1" stroke="white" stroke-width="1.59378" stroke-miterlimit="10" stroke-linecap="round"/>
<path d="M401.514 351.996C401.514 356.649 399.856 361.144 396.828 364.682L394.597 367.296L376.715 387.377" stroke="white" stroke-width="1.59378" stroke-miterlimit="10" stroke-linecap="round"/>
<path d="M391.254 455.017H404.992" stroke="white" stroke-width="1.59378" stroke-miterlimit="10" stroke-linecap="round"/>
<path d="M458.767 494.894V515.485C452.87 515.23 446.591 514.848 440.12 514.274C416.245 512.202 395.335 508.313 383.637 504.233L385.39 492.694C397.375 490.941 417.425 490.845 440.152 492.822C446.591 493.427 452.839 494.097 458.767 494.894Z" fill="#FE5244"/>
</svg>
