<svg width="800" height="800" viewBox="0 0 800 800" fill="none" xmlns="http://www.w3.org/2000/svg">
<path d="M550.137 512.536H234.704C226.232 512.536 218.659 507.401 215.515 499.572L129.196 286.245C125.088 276.041 132.597 264.874 143.572 264.874H459.005C467.476 264.874 475.049 270.008 478.194 277.838L564.513 491.165C568.684 501.369 561.176 512.536 550.137 512.536Z" fill="white" stroke="#FFCF2D" stroke-width="3.85066" stroke-miterlimit="10"/>
<path d="M535.507 514.078H234.578C226.556 514.078 219.304 509.2 216.288 501.756L133.948 298.248C130.033 288.493 137.157 277.904 147.682 277.904H448.611C456.633 277.904 463.885 282.781 466.901 290.226L549.241 493.733C553.156 503.488 545.968 514.078 535.507 514.078Z" fill="#FFCF2D"/>
<path d="M350.74 421.533C341.884 421.533 333.54 418.068 327.251 411.778C322.117 406.644 319.293 399.841 319.293 392.653C319.293 385.401 322.117 378.598 327.251 373.528C331.423 369.357 337.006 367.046 342.91 367.046C348.815 367.046 354.398 369.357 358.57 373.528C365.693 380.652 365.693 392.204 358.57 399.328C352.665 405.232 343.103 405.232 337.199 399.328C336.172 398.301 336.172 396.696 337.199 395.67C338.225 394.643 339.83 394.643 340.857 395.67C344.771 399.584 351.061 399.584 354.976 395.67C360.11 390.535 360.11 382.256 354.976 377.122C351.767 373.913 347.467 372.116 342.91 372.116C338.354 372.116 334.054 373.913 330.845 377.122C326.673 381.294 324.427 386.749 324.427 392.653C324.427 398.493 326.738 404.013 330.845 408.184C336.172 413.511 343.167 416.399 350.676 416.399C358.185 416.399 365.244 413.511 370.507 408.184C371.534 407.157 373.138 407.157 374.165 408.184C375.192 409.211 375.192 410.816 374.165 411.842C367.94 418.068 359.597 421.533 350.74 421.533Z" fill="white"/>
<path d="M663.025 535.126H235.089C230.147 535.126 226.168 531.147 226.168 526.205V521.905C226.168 516.964 230.147 512.985 235.089 512.985H663.025C667.967 512.985 671.946 516.964 671.946 521.905V526.205C671.882 531.147 667.903 535.126 663.025 535.126Z" fill="white" stroke="#FFCF2D" stroke-width="3.85066" stroke-miterlimit="10"/>
</svg>
