<svg width="800" height="800" viewBox="0 0 800 800" fill="none" xmlns="http://www.w3.org/2000/svg">
<path d="M395.28 674.853H265.914V546.601C265.914 552.075 287.185 556.506 313.443 556.506C339.701 556.506 360.973 552.075 360.973 546.601V546.578L395.28 674.853Z" fill="#3FB1B5"/>
<path d="M360.624 544.05C360.624 549.547 339.585 553.978 313.605 553.978C287.625 553.978 266.586 549.547 266.586 544.073V544.05C266.656 538.598 287.671 534.168 313.605 534.168C339.538 534.168 360.577 538.598 360.624 544.05Z" fill="#66B0F0"/>
<path d="M360.623 544.143C360.461 549.571 339.468 553.979 313.604 553.979C308.617 553.979 303.838 553.816 299.338 553.515V505.8H274.797C271.665 505.8 269.137 503.272 269.137 500.14V496.313C269.137 494.596 269.902 493.065 271.108 492.021C269.902 490.978 269.137 489.447 269.137 487.73V483.903C269.137 482.395 269.74 481.003 270.714 480.006C269.74 478.985 269.137 477.617 269.137 476.109V472.281C269.137 470.727 269.763 469.312 270.784 468.268C269.763 467.248 269.137 465.833 269.137 464.279V457.343C269.137 454.211 271.665 451.683 274.797 451.683H306.135C307.179 451.08 308.872 448.946 305.996 447.693L299.269 446.116C293.934 443.448 290.547 439.018 290.547 433.033H314.207C318.174 433.033 321.723 435.538 323.068 439.273L360.043 542.497L360.623 544.143Z" fill="#E57281"/>
<path d="M360.737 544.19C360.667 544.12 360.621 544.074 360.621 544.074C360.621 549.548 339.582 553.978 313.602 553.978C308.614 553.978 303.836 553.816 299.336 553.514V534.656C303.836 534.354 308.638 534.192 313.602 534.192C337.03 534.192 356.468 537.81 360.041 542.519C360.133 542.635 360.389 543.262 360.737 544.19Z" fill="#9A3B82"/>
<path d="M306.662 387.196V406.008C306.662 416.238 298.381 424.519 288.151 424.519C277.922 424.519 269.641 416.238 269.641 406.008V387.196C269.641 391.789 277.922 395.501 288.151 395.501C298.381 395.501 306.662 391.789 306.662 387.196Z" fill="white"/>
<path d="M288.151 395.501C298.374 395.501 306.662 391.783 306.662 387.196C306.662 382.61 298.374 378.892 288.151 378.892C277.928 378.892 269.641 382.61 269.641 387.196C269.641 391.783 277.928 395.501 288.151 395.501Z" fill="#FFCF2D"/>
<path d="M306.662 355.046V405.985C306.662 412.851 302.927 418.836 297.383 422.037C297.383 422.037 297.383 422.037 297.36 422.037C294.646 423.591 291.491 424.496 288.151 424.496C284.811 424.496 281.679 423.614 278.966 422.06C278.942 422.06 278.942 422.037 278.919 422.037C273.375 418.836 269.641 412.851 269.641 405.985V355.046H306.662Z" stroke="#FFCF2D" stroke-width="1.39178" stroke-miterlimit="10"/>
<path d="M288.153 363.351C298.491 363.351 306.872 359.633 306.872 355.046C306.872 350.46 298.491 346.742 288.153 346.742C277.815 346.742 269.434 350.46 269.434 355.046C269.434 359.633 277.815 363.351 288.153 363.351Z" fill="white" stroke="#FFCF2D" stroke-width="1.15982" stroke-miterlimit="10"/>
<path d="M288.155 356.3C289.667 356.3 290.892 355.074 290.892 353.562C290.892 352.051 289.667 350.825 288.155 350.825C286.643 350.825 285.418 352.051 285.418 353.562C285.418 355.074 286.643 356.3 288.155 356.3Z" fill="#FFCF2D"/>
<path d="M282.119 412.202C283.452 412.202 284.532 411.122 284.532 409.789C284.532 408.457 283.452 407.377 282.119 407.377C280.787 407.377 279.707 408.457 279.707 409.789C279.707 411.122 280.787 412.202 282.119 412.202Z" fill="white" stroke="#FFCF2D" stroke-width="1.15982" stroke-miterlimit="10"/>
<path d="M296.596 389.191C297.698 389.191 298.591 388.298 298.591 387.196C298.591 386.094 297.698 385.201 296.596 385.201C295.495 385.201 294.602 386.094 294.602 387.196C294.602 388.298 295.495 389.191 296.596 389.191Z" fill="white"/>
<path d="M277.3 404.153C278.401 404.153 279.294 403.26 279.294 402.158C279.294 401.056 278.401 400.163 277.3 400.163C276.198 400.163 275.305 401.056 275.305 402.158C275.305 403.26 276.198 404.153 277.3 404.153Z" fill="#FFCF2D"/>
<path d="M305.945 518.789H270.362C269.712 518.789 269.527 517.931 270.084 517.63L282.517 512.921C284.465 512.178 285.764 510.3 285.764 508.212V434.076C285.764 429.159 283.213 424.543 278.968 422.061C281.682 423.615 284.813 424.496 288.153 424.496C291.517 424.496 294.648 423.592 297.362 422.038C293.094 424.496 290.543 429.136 290.543 434.053V508.189C290.543 510.276 291.842 512.155 293.79 512.898L306.223 517.606C306.78 517.931 306.595 518.789 305.945 518.789Z" fill="white" stroke="#FFCF2D" stroke-width="1.15982" stroke-miterlimit="10"/>
<path d="M274.975 327.187C276.717 327.187 278.13 325.774 278.13 324.032C278.13 322.29 276.717 320.877 274.975 320.877C273.233 320.877 271.82 322.29 271.82 324.032C271.82 325.774 273.233 327.187 274.975 327.187Z" fill="#FFCF2D"/>
<path d="M296.6 332.268C298.112 332.268 299.338 331.043 299.338 329.531C299.338 328.019 298.112 326.794 296.6 326.794C295.089 326.794 293.863 328.019 293.863 329.531C293.863 331.043 295.089 332.268 296.6 332.268Z" fill="white" stroke="#FFCF2D" stroke-width="1.15982" stroke-miterlimit="10"/>
<path d="M283.19 342.937C284.292 342.937 285.185 342.044 285.185 340.942C285.185 339.84 284.292 338.947 283.19 338.947C282.088 338.947 281.195 339.84 281.195 340.942C281.195 342.044 282.088 342.937 283.19 342.937Z" fill="white" stroke="#FFCF2D" stroke-width="1.15982" stroke-miterlimit="10"/>
<path d="M282.147 318.651C283.057 318.651 283.794 317.914 283.794 317.004C283.794 316.095 283.057 315.357 282.147 315.357C281.237 315.357 280.5 316.095 280.5 317.004C280.5 317.914 281.237 318.651 282.147 318.651Z" fill="#FFCF2D"/>
<path d="M312.004 459.127V505.821H274.797C271.665 505.821 269.137 503.293 269.137 500.161V496.334C269.137 494.617 269.902 493.086 271.108 492.043C269.902 490.999 269.137 489.468 269.137 487.751V483.924C269.137 482.416 269.74 481.024 270.714 480.027C269.74 479.006 269.137 477.638 269.137 476.13V472.302C269.137 470.748 269.763 469.333 270.784 468.289C269.763 467.269 269.137 465.854 269.137 464.3V459.15H312.004V459.127Z" fill="#E57281"/>
<path d="M269.781 487.426C269.781 490.975 272.658 493.851 276.207 493.851H306.315C309.864 493.851 312.741 490.975 312.741 487.426" stroke="#9A3B82" stroke-width="1.15982" stroke-miterlimit="10" stroke-linecap="round"/>
<path d="M269.781 475.851C269.781 479.4 272.658 482.276 276.207 482.276H306.315C309.864 482.276 312.741 479.4 312.741 475.851" stroke="#9A3B82" stroke-width="1.15982" stroke-miterlimit="10" stroke-linecap="round"/>
<path d="M269.781 464.276C269.781 467.825 272.658 470.702 276.207 470.702H306.315C309.864 470.702 312.741 467.825 312.741 464.276" stroke="#9A3B82" stroke-width="1.15982" stroke-miterlimit="10" stroke-linecap="round"/>
<path d="M275.906 505.427H306.317C309.866 505.427 312.742 502.551 312.742 499.002V455.602" stroke="#9A3B82" stroke-width="1.15982" stroke-miterlimit="10" stroke-linecap="round"/>
<path d="M284.3 455.416H281.215C280.194 455.416 279.359 456.251 279.359 457.271C279.359 458.292 280.194 459.127 281.215 459.127H298.473C300.329 459.127 301.86 457.619 301.86 455.74C301.86 453.513 303.669 451.704 305.896 451.704H308.703C310.93 451.704 312.739 453.513 312.739 455.74V463.256" stroke="#9A3B82" stroke-width="1.15982" stroke-miterlimit="10" stroke-linecap="round"/>
<path d="M494.931 216.355L417.711 295.547L328.684 197.404L425.853 129.021L494.931 216.355Z" fill="#3FB1B5"/>
<path d="M414.697 299.351L321.285 196.963L423.72 125.147" stroke="#FFCF2D" stroke-width="1.39178" stroke-miterlimit="10"/>
<path d="M416.207 212.273L422.029 211.414C431.609 209.999 440.494 216.633 441.909 226.19L446.989 260.799C448.705 272.467 461.231 279.148 471.878 274.044L496.165 262.423" stroke="#FFCF2D" stroke-width="1.39178" stroke-miterlimit="10"/>
<path d="M527.127 269.057C529.609 270.402 531.952 271.794 534.086 273.186C533.715 275.204 533.019 277.199 531.998 279.124C530.978 281.026 529.679 282.72 528.194 284.135C525.851 283.114 523.392 281.931 520.91 280.586C508.5 273.882 499.848 265.879 501.565 262.701C503.281 259.523 514.717 262.353 527.127 269.057Z" fill="#FFCF2D"/>
<path d="M498.924 264.581C500.474 264.581 501.731 263.324 501.731 261.774C501.731 260.224 500.474 258.967 498.924 258.967C497.374 258.967 496.117 260.224 496.117 261.774C496.117 263.324 497.374 264.581 498.924 264.581Z" stroke="#66B0F0" stroke-width="1.39178" stroke-miterlimit="10"/>
</svg>
